%TF.GenerationSoftware,KiCad,Pcbnew,9.0.2*%
%TF.CreationDate,2026-07-24T17:45:32+08:00*%
%TF.ProjectId,Discriminator,44697363-7269-46d6-996e-61746f722e6b,rev?*%
%TF.SameCoordinates,Original*%
%TF.FileFunction,Copper,L4,Bot*%
%TF.FilePolarity,Positive*%
%FSLAX46Y46*%
G04 Gerber Fmt 4.6, Leading zero omitted, Abs format (unit mm)*
G04 Created by KiCad (PCBNEW 9.0.2) date 2026-07-24 17:45:32*
%MOMM*%
%LPD*%
G01*
G04 APERTURE LIST*
G04 Aperture macros list*
%AMRoundRect*
0 Rectangle with rounded corners*
0 $1 Rounding radius*
0 $2 $3 $4 $5 $6 $7 $8 $9 X,Y pos of 4 corners*
0 Add a 4 corners polygon primitive as box body*
4,1,4,$2,$3,$4,$5,$6,$7,$8,$9,$2,$3,0*
0 Add four circle primitives for the rounded corners*
1,1,$1+$1,$2,$3*
1,1,$1+$1,$4,$5*
1,1,$1+$1,$6,$7*
1,1,$1+$1,$8,$9*
0 Add four rect primitives between the rounded corners*
20,1,$1+$1,$2,$3,$4,$5,0*
20,1,$1+$1,$4,$5,$6,$7,0*
20,1,$1+$1,$6,$7,$8,$9,0*
20,1,$1+$1,$8,$9,$2,$3,0*%
G04 Aperture macros list end*
%TA.AperFunction,ComponentPad*%
%ADD10O,1.950000X1.700000*%
%TD*%
%TA.AperFunction,ComponentPad*%
%ADD11RoundRect,0.250000X-0.725000X0.600000X-0.725000X-0.600000X0.725000X-0.600000X0.725000X0.600000X0*%
%TD*%
%TA.AperFunction,SMDPad,CuDef*%
%ADD12RoundRect,0.250000X-1.600000X0.425000X-1.600000X-0.425000X1.600000X-0.425000X1.600000X0.425000X0*%
%TD*%
%TA.AperFunction,ViaPad*%
%ADD13C,0.600000*%
%TD*%
G04 APERTURE END LIST*
D10*
%TO.P,J1,5,Pin_5*%
%TO.N,+5V*%
X152620000Y-47500000D03*
%TO.P,J1,4,Pin_4*%
%TO.N,+3.3V*%
X152620000Y-45000000D03*
%TO.P,J1,3,Pin_3*%
%TO.N,/V_threshold*%
X152620000Y-42500000D03*
%TO.P,J1,2,Pin_2*%
%TO.N,GND*%
X152620000Y-40000000D03*
D11*
%TO.P,J1,1,Pin_1*%
%TO.N,/Pulse*%
X152620000Y-37500000D03*
%TD*%
D12*
%TO.P,J3,2,Ext*%
%TO.N,GND*%
X122600000Y-38825000D03*
X122600000Y-33175000D03*
%TD*%
D13*
%TO.N,GND*%
X147500000Y-42500000D03*
X147500000Y-40000000D03*
X125000000Y-32500000D03*
X124720000Y-35100000D03*
X124740000Y-37060000D03*
X125780000Y-37060000D03*
X125820000Y-35100000D03*
X155000000Y-34950000D03*
X152500000Y-35000000D03*
X150000000Y-35000000D03*
X145000000Y-35000000D03*
X147500000Y-34940000D03*
X152500000Y-32500000D03*
X150000000Y-32500000D03*
X145000000Y-32500000D03*
X147500000Y-32500000D03*
X147500000Y-30000000D03*
X150000000Y-30000000D03*
X152500000Y-30000000D03*
X150000000Y-47500000D03*
X147500000Y-47500000D03*
X145000000Y-47500000D03*
X142500000Y-47500000D03*
X127500000Y-40000000D03*
X127500000Y-42500000D03*
X127500000Y-45000000D03*
X127500000Y-47500000D03*
X127500000Y-50000000D03*
X130000000Y-50000000D03*
X132500000Y-50000000D03*
X135000000Y-50000000D03*
X137500000Y-50000000D03*
X140000000Y-50000000D03*
X142500000Y-50000000D03*
X145000000Y-50000000D03*
X147500000Y-50060000D03*
X150000000Y-50060000D03*
X155000000Y-50050000D03*
X152500000Y-50000000D03*
X155000000Y-32500000D03*
X155000000Y-30000000D03*
X155000000Y-27500000D03*
X152500000Y-27500000D03*
X150000000Y-27500000D03*
X147500000Y-27500000D03*
X145000000Y-27500000D03*
X142500000Y-27500000D03*
X140000000Y-27500000D03*
X137500000Y-27500000D03*
X135000000Y-32500000D03*
X132500000Y-32500000D03*
X130000000Y-32500000D03*
X127500000Y-32500000D03*
X127500000Y-30000000D03*
X130000000Y-30000000D03*
X132500000Y-30000000D03*
X135000000Y-30000000D03*
X135000000Y-27500000D03*
X132500000Y-27500000D03*
X130000000Y-27500000D03*
X127500000Y-27500000D03*
X125000000Y-30000000D03*
X125000000Y-27500000D03*
X122500000Y-27500000D03*
X122500000Y-30000000D03*
X125000000Y-40000000D03*
X125000000Y-42500000D03*
X125000000Y-45000000D03*
X125000000Y-47500000D03*
X125000000Y-50000000D03*
X122500000Y-40000000D03*
X122500000Y-42500000D03*
X122500000Y-45000000D03*
X122500000Y-47500000D03*
X122500000Y-50000000D03*
X122500000Y-52500000D03*
X130000000Y-52500000D03*
X127500000Y-52500000D03*
X125000000Y-52500000D03*
X137500000Y-52500000D03*
X135000000Y-52500000D03*
X132500000Y-52500000D03*
X145000000Y-52500000D03*
X142500000Y-52500000D03*
X140000000Y-52500000D03*
X147500000Y-52500000D03*
X150000000Y-52500000D03*
X155000000Y-52500000D03*
X152500000Y-52500000D03*
X130310000Y-40880000D03*
X131750000Y-39460000D03*
X136010000Y-35870000D03*
X134990000Y-35870000D03*
X136010000Y-35220000D03*
X134990000Y-35220000D03*
X136010000Y-34540000D03*
X134990000Y-34540000D03*
X136010000Y-33860000D03*
X134990000Y-33860000D03*
X135500000Y-37362500D03*
X143890000Y-38350000D03*
X143820000Y-36600000D03*
X142160000Y-36450000D03*
X133210000Y-38340000D03*
X126770000Y-35100000D03*
X138070000Y-38260000D03*
X131750000Y-41280000D03*
X133670000Y-44000000D03*
X128500000Y-47660000D03*
X128530000Y-48840000D03*
X140370000Y-44970000D03*
X146200000Y-40840000D03*
X145780000Y-43920000D03*
X144305000Y-39500000D03*
X144590000Y-28960000D03*
X145000000Y-30000000D03*
%TO.N,+3.3V*%
X143760000Y-28970000D03*
X143740000Y-29650000D03*
X143490000Y-39930000D03*
X143400000Y-42530000D03*
%TO.N,+5V*%
X139580000Y-46940000D03*
X138830000Y-42850000D03*
X140080000Y-43190000D03*
X139540000Y-42270000D03*
X139490000Y-43780000D03*
X139760000Y-47970000D03*
X139760000Y-48690000D03*
X133000000Y-42294000D03*
X131930000Y-42380000D03*
X129550000Y-47850000D03*
X129560000Y-48720000D03*
X132880000Y-43820000D03*
%TO.N,GND*%
X130880000Y-36100000D03*
X129070000Y-35270000D03*
X130870000Y-35240000D03*
X129960000Y-35250000D03*
X128960000Y-38100000D03*
X126790000Y-38110000D03*
X128010000Y-38050000D03*
X126750000Y-37060000D03*
X139540000Y-34790000D03*
X141250000Y-34970000D03*
X141270000Y-36470000D03*
X127570000Y-35110000D03*
X139850000Y-38300000D03*
X139040000Y-38250000D03*
X139290000Y-36640000D03*
X138520000Y-36640000D03*
X131540000Y-36670000D03*
X132540000Y-36670000D03*
X132500000Y-38330000D03*
X131510000Y-38320000D03*
%TD*%
%TA.AperFunction,Conductor*%
%TO.N,GND*%
G36*
X155522539Y-26987685D02*
G01*
X155568294Y-27040489D01*
X155579500Y-27092000D01*
X155579500Y-53308000D01*
X155559815Y-53375039D01*
X155507011Y-53420794D01*
X155455500Y-53432000D01*
X120874500Y-53432000D01*
X120807461Y-53412315D01*
X120761706Y-53359511D01*
X120750500Y-53308000D01*
X120750500Y-47771153D01*
X128749500Y-47771153D01*
X128749500Y-47928846D01*
X128780261Y-48083489D01*
X128780264Y-48083501D01*
X128840602Y-48229171D01*
X128843479Y-48234553D01*
X128841498Y-48235611D01*
X128859381Y-48292689D01*
X128849962Y-48342374D01*
X128790264Y-48486498D01*
X128790261Y-48486510D01*
X128759500Y-48641153D01*
X128759500Y-48798846D01*
X128790261Y-48953489D01*
X128790264Y-48953501D01*
X128850602Y-49099172D01*
X128850609Y-49099185D01*
X128938210Y-49230288D01*
X128938213Y-49230292D01*
X129049707Y-49341786D01*
X129049711Y-49341789D01*
X129180814Y-49429390D01*
X129180827Y-49429397D01*
X129254078Y-49459738D01*
X129326503Y-49489737D01*
X129481153Y-49520499D01*
X129481156Y-49520500D01*
X129481158Y-49520500D01*
X129638844Y-49520500D01*
X129638845Y-49520499D01*
X129793497Y-49489737D01*
X129939179Y-49429394D01*
X130070289Y-49341789D01*
X130181789Y-49230289D01*
X130269394Y-49099179D01*
X130329737Y-48953497D01*
X130360500Y-48798842D01*
X130360500Y-48641158D01*
X130360500Y-48641155D01*
X130360499Y-48641153D01*
X130329738Y-48486510D01*
X130329737Y-48486503D01*
X130317310Y-48456502D01*
X130269397Y-48340827D01*
X130266521Y-48335446D01*
X130268496Y-48334390D01*
X130250619Y-48277279D01*
X130260037Y-48227625D01*
X130319737Y-48083497D01*
X130350500Y-47928842D01*
X130350500Y-47771158D01*
X130350500Y-47771155D01*
X130350499Y-47771153D01*
X130319738Y-47616510D01*
X130319737Y-47616503D01*
X130319735Y-47616498D01*
X130259397Y-47470827D01*
X130259390Y-47470814D01*
X130171789Y-47339711D01*
X130171786Y-47339707D01*
X130060292Y-47228213D01*
X130060288Y-47228210D01*
X129929185Y-47140609D01*
X129929172Y-47140602D01*
X129783501Y-47080264D01*
X129783489Y-47080261D01*
X129628845Y-47049500D01*
X129628842Y-47049500D01*
X129471158Y-47049500D01*
X129471155Y-47049500D01*
X129316510Y-47080261D01*
X129316498Y-47080264D01*
X129170827Y-47140602D01*
X129170814Y-47140609D01*
X129039711Y-47228210D01*
X129039707Y-47228213D01*
X128928213Y-47339707D01*
X128928210Y-47339711D01*
X128840609Y-47470814D01*
X128840602Y-47470827D01*
X128780264Y-47616498D01*
X128780261Y-47616510D01*
X128749500Y-47771153D01*
X120750500Y-47771153D01*
X120750500Y-46861153D01*
X138779500Y-46861153D01*
X138779500Y-47018846D01*
X138810261Y-47173489D01*
X138810264Y-47173501D01*
X138870602Y-47319172D01*
X138870609Y-47319185D01*
X138958210Y-47450288D01*
X138958213Y-47450292D01*
X139006118Y-47498197D01*
X139039603Y-47559520D01*
X139034619Y-47629212D01*
X139032998Y-47633330D01*
X138990264Y-47736498D01*
X138990261Y-47736510D01*
X138959500Y-47891153D01*
X138959500Y-48048846D01*
X138990261Y-48203494D01*
X138990263Y-48203497D01*
X139023006Y-48282549D01*
X139030474Y-48352018D01*
X139023006Y-48377451D01*
X138990263Y-48456502D01*
X138990261Y-48456505D01*
X138959500Y-48611153D01*
X138959500Y-48768846D01*
X138990261Y-48923489D01*
X138990264Y-48923501D01*
X139050602Y-49069172D01*
X139050609Y-49069185D01*
X139138210Y-49200288D01*
X139138213Y-49200292D01*
X139249707Y-49311786D01*
X139249711Y-49311789D01*
X139380814Y-49399390D01*
X139380827Y-49399397D01*
X139526498Y-49459735D01*
X139526503Y-49459737D01*
X139677312Y-49489735D01*
X139681153Y-49490499D01*
X139681156Y-49490500D01*
X139681158Y-49490500D01*
X139838844Y-49490500D01*
X139838845Y-49490499D01*
X139993497Y-49459737D01*
X140139179Y-49399394D01*
X140270289Y-49311789D01*
X140381789Y-49200289D01*
X140469394Y-49069179D01*
X140529737Y-48923497D01*
X140560500Y-48768842D01*
X140560500Y-48611158D01*
X140560500Y-48611155D01*
X140560499Y-48611153D01*
X140544377Y-48530104D01*
X140529737Y-48456503D01*
X140496992Y-48377451D01*
X140489524Y-48307984D01*
X140496991Y-48282551D01*
X140529737Y-48203497D01*
X140560500Y-48048842D01*
X140560500Y-47891158D01*
X140560500Y-47891155D01*
X140560499Y-47891153D01*
X140545598Y-47816243D01*
X140529737Y-47736503D01*
X140480030Y-47616498D01*
X140469397Y-47590827D01*
X140469390Y-47590814D01*
X140381789Y-47459711D01*
X140381786Y-47459707D01*
X140333882Y-47411803D01*
X140300397Y-47350480D01*
X140305381Y-47280788D01*
X140307002Y-47276670D01*
X140349735Y-47173501D01*
X140349737Y-47173497D01*
X140380500Y-47018842D01*
X140380500Y-46861158D01*
X140380500Y-46861155D01*
X140380499Y-46861153D01*
X140349738Y-46706510D01*
X140349737Y-46706503D01*
X140313993Y-46620208D01*
X140289397Y-46560827D01*
X140289390Y-46560814D01*
X140201789Y-46429711D01*
X140201786Y-46429707D01*
X140090292Y-46318213D01*
X140090288Y-46318210D01*
X139959185Y-46230609D01*
X139959172Y-46230602D01*
X139813501Y-46170264D01*
X139813489Y-46170261D01*
X139658845Y-46139500D01*
X139658842Y-46139500D01*
X139501158Y-46139500D01*
X139501155Y-46139500D01*
X139346510Y-46170261D01*
X139346498Y-46170264D01*
X139200827Y-46230602D01*
X139200814Y-46230609D01*
X139069711Y-46318210D01*
X139069707Y-46318213D01*
X138958213Y-46429707D01*
X138958210Y-46429711D01*
X138870609Y-46560814D01*
X138870602Y-46560827D01*
X138810264Y-46706498D01*
X138810261Y-46706510D01*
X138779500Y-46861153D01*
X120750500Y-46861153D01*
X120750500Y-42301153D01*
X131129500Y-42301153D01*
X131129500Y-42458846D01*
X131160261Y-42613489D01*
X131160264Y-42613501D01*
X131220602Y-42759172D01*
X131220609Y-42759185D01*
X131308210Y-42890288D01*
X131308213Y-42890292D01*
X131419707Y-43001786D01*
X131419711Y-43001789D01*
X131550814Y-43089390D01*
X131550827Y-43089397D01*
X131688838Y-43146562D01*
X131696503Y-43149737D01*
X131851153Y-43180499D01*
X131851156Y-43180500D01*
X131851158Y-43180500D01*
X132008843Y-43180500D01*
X132027083Y-43176871D01*
X132102393Y-43161891D01*
X132171983Y-43168118D01*
X132227161Y-43210980D01*
X132250406Y-43276869D01*
X132234339Y-43344867D01*
X132229687Y-43352398D01*
X132170608Y-43440816D01*
X132170602Y-43440827D01*
X132110264Y-43586498D01*
X132110261Y-43586510D01*
X132079500Y-43741153D01*
X132079500Y-43898846D01*
X132110261Y-44053489D01*
X132110264Y-44053501D01*
X132170602Y-44199172D01*
X132170609Y-44199185D01*
X132258210Y-44330288D01*
X132258213Y-44330292D01*
X132369707Y-44441786D01*
X132369711Y-44441789D01*
X132500814Y-44529390D01*
X132500827Y-44529397D01*
X132646498Y-44589735D01*
X132646503Y-44589737D01*
X132801153Y-44620499D01*
X132801156Y-44620500D01*
X132801158Y-44620500D01*
X132958844Y-44620500D01*
X132958845Y-44620499D01*
X133113497Y-44589737D01*
X133259179Y-44529394D01*
X133390289Y-44441789D01*
X133501789Y-44330289D01*
X133589394Y-44199179D01*
X133649737Y-44053497D01*
X133680500Y-43898842D01*
X133680500Y-43741158D01*
X133680500Y-43741155D01*
X133680499Y-43741153D01*
X133672371Y-43700292D01*
X133649737Y-43586503D01*
X133642558Y-43569172D01*
X133589397Y-43440827D01*
X133589390Y-43440814D01*
X133501789Y-43309711D01*
X133501786Y-43309707D01*
X133390292Y-43198213D01*
X133385581Y-43194347D01*
X133386960Y-43192666D01*
X133348442Y-43146562D01*
X133339746Y-43077235D01*
X133369911Y-43014213D01*
X133393250Y-42993991D01*
X133510289Y-42915789D01*
X133621789Y-42804289D01*
X133643930Y-42771153D01*
X138029500Y-42771153D01*
X138029500Y-42928846D01*
X138060261Y-43083489D01*
X138060264Y-43083501D01*
X138120602Y-43229172D01*
X138120609Y-43229185D01*
X138208210Y-43360288D01*
X138208213Y-43360292D01*
X138319707Y-43471786D01*
X138319711Y-43471789D01*
X138450814Y-43559390D01*
X138450827Y-43559397D01*
X138596503Y-43619737D01*
X138601500Y-43621253D01*
X138659937Y-43659553D01*
X138688391Y-43723366D01*
X138689500Y-43739912D01*
X138689500Y-43858846D01*
X138720261Y-44013489D01*
X138720264Y-44013501D01*
X138780602Y-44159172D01*
X138780609Y-44159185D01*
X138868210Y-44290288D01*
X138868213Y-44290292D01*
X138979707Y-44401786D01*
X138979711Y-44401789D01*
X139110814Y-44489390D01*
X139110827Y-44489397D01*
X139256498Y-44549735D01*
X139256503Y-44549737D01*
X139411153Y-44580499D01*
X139411156Y-44580500D01*
X139411158Y-44580500D01*
X139568844Y-44580500D01*
X139568845Y-44580499D01*
X139723497Y-44549737D01*
X139869179Y-44489394D01*
X140000289Y-44401789D01*
X140111789Y-44290289D01*
X140199394Y-44159179D01*
X140199395Y-44159176D01*
X140199397Y-44159173D01*
X140243167Y-44053501D01*
X140255827Y-44022935D01*
X140299667Y-43968532D01*
X140322933Y-43955828D01*
X140369582Y-43936505D01*
X140459173Y-43899397D01*
X140459176Y-43899395D01*
X140459179Y-43899394D01*
X140590289Y-43811789D01*
X140701789Y-43700289D01*
X140789394Y-43569179D01*
X140849737Y-43423497D01*
X140880500Y-43268842D01*
X140880500Y-43111158D01*
X140880500Y-43111155D01*
X140880499Y-43111153D01*
X140862052Y-43018414D01*
X140849737Y-42956503D01*
X140849735Y-42956498D01*
X140789397Y-42810827D01*
X140789390Y-42810814D01*
X140701789Y-42679711D01*
X140701786Y-42679707D01*
X140590292Y-42568213D01*
X140590288Y-42568210D01*
X140563337Y-42550202D01*
X140563334Y-42550200D01*
X140459179Y-42480606D01*
X140409178Y-42459895D01*
X140401823Y-42455586D01*
X140397649Y-42451153D01*
X142599500Y-42451153D01*
X142599500Y-42608846D01*
X142630261Y-42763489D01*
X142630264Y-42763501D01*
X142690602Y-42909172D01*
X142690609Y-42909185D01*
X142778210Y-43040288D01*
X142778213Y-43040292D01*
X142889707Y-43151786D01*
X142889711Y-43151789D01*
X143020814Y-43239390D01*
X143020827Y-43239397D01*
X143111294Y-43276869D01*
X143166503Y-43299737D01*
X143321153Y-43330499D01*
X143321156Y-43330500D01*
X143321158Y-43330500D01*
X143478844Y-43330500D01*
X143478845Y-43330499D01*
X143633497Y-43299737D01*
X143779179Y-43239394D01*
X143910289Y-43151789D01*
X144021789Y-43040289D01*
X144109394Y-42909179D01*
X144169737Y-42763497D01*
X144200500Y-42608842D01*
X144200500Y-42451158D01*
X144200500Y-42451155D01*
X144200499Y-42451153D01*
X144192917Y-42413032D01*
X144189074Y-42393713D01*
X151144500Y-42393713D01*
X151144500Y-42606286D01*
X151175860Y-42804289D01*
X151177754Y-42816243D01*
X151238563Y-43003394D01*
X151243444Y-43018414D01*
X151339951Y-43207820D01*
X151464890Y-43379786D01*
X151615209Y-43530105D01*
X151615214Y-43530109D01*
X151779793Y-43649682D01*
X151822459Y-43705011D01*
X151828438Y-43774625D01*
X151795833Y-43836420D01*
X151779793Y-43850318D01*
X151615214Y-43969890D01*
X151615209Y-43969894D01*
X151464890Y-44120213D01*
X151339951Y-44292179D01*
X151243444Y-44481585D01*
X151177753Y-44683760D01*
X151144500Y-44893713D01*
X151144500Y-45106286D01*
X151177753Y-45316239D01*
X151243444Y-45518414D01*
X151339951Y-45707820D01*
X151464890Y-45879786D01*
X151615209Y-46030105D01*
X151615214Y-46030109D01*
X151779793Y-46149682D01*
X151822459Y-46205011D01*
X151828438Y-46274625D01*
X151795833Y-46336420D01*
X151779793Y-46350318D01*
X151615214Y-46469890D01*
X151615209Y-46469894D01*
X151464890Y-46620213D01*
X151339951Y-46792179D01*
X151243444Y-46981585D01*
X151177753Y-47183760D01*
X151144500Y-47393713D01*
X151144500Y-47606286D01*
X151170612Y-47771155D01*
X151177754Y-47816243D01*
X151214340Y-47928844D01*
X151243444Y-48018414D01*
X151339951Y-48207820D01*
X151464890Y-48379786D01*
X151615213Y-48530109D01*
X151787179Y-48655048D01*
X151787181Y-48655049D01*
X151787184Y-48655051D01*
X151976588Y-48751557D01*
X152178757Y-48817246D01*
X152388713Y-48850500D01*
X152388714Y-48850500D01*
X152851286Y-48850500D01*
X152851287Y-48850500D01*
X153061243Y-48817246D01*
X153263412Y-48751557D01*
X153452816Y-48655051D01*
X153513237Y-48611153D01*
X153624786Y-48530109D01*
X153624788Y-48530106D01*
X153624792Y-48530104D01*
X153775104Y-48379792D01*
X153775106Y-48379788D01*
X153775109Y-48379786D01*
X153900048Y-48207820D01*
X153900047Y-48207820D01*
X153900051Y-48207816D01*
X153996557Y-48018412D01*
X154062246Y-47816243D01*
X154095500Y-47606287D01*
X154095500Y-47393713D01*
X154062246Y-47183757D01*
X153996557Y-46981588D01*
X153900051Y-46792184D01*
X153900049Y-46792181D01*
X153900048Y-46792179D01*
X153775109Y-46620213D01*
X153624792Y-46469896D01*
X153624784Y-46469890D01*
X153460204Y-46350316D01*
X153417540Y-46294989D01*
X153411561Y-46225376D01*
X153444166Y-46163580D01*
X153460199Y-46149686D01*
X153624792Y-46030104D01*
X153775104Y-45879792D01*
X153775106Y-45879788D01*
X153775109Y-45879786D01*
X153900048Y-45707820D01*
X153900047Y-45707820D01*
X153900051Y-45707816D01*
X153996557Y-45518412D01*
X154062246Y-45316243D01*
X154095500Y-45106287D01*
X154095500Y-44893713D01*
X154062246Y-44683757D01*
X153996557Y-44481588D01*
X153900051Y-44292184D01*
X153900049Y-44292181D01*
X153900048Y-44292179D01*
X153775109Y-44120213D01*
X153624792Y-43969896D01*
X153610809Y-43959737D01*
X153460204Y-43850316D01*
X153417540Y-43794989D01*
X153411561Y-43725376D01*
X153444166Y-43663580D01*
X153460199Y-43649686D01*
X153624792Y-43530104D01*
X153775104Y-43379792D01*
X153775106Y-43379788D01*
X153775109Y-43379786D01*
X153900048Y-43207820D01*
X153900047Y-43207820D01*
X153900051Y-43207816D01*
X153996557Y-43018412D01*
X154062246Y-42816243D01*
X154095500Y-42606287D01*
X154095500Y-42393713D01*
X154062246Y-42183757D01*
X153996557Y-41981588D01*
X153900051Y-41792184D01*
X153900049Y-41792181D01*
X153900048Y-41792179D01*
X153775109Y-41620213D01*
X153624786Y-41469890D01*
X153452820Y-41344951D01*
X153263414Y-41248444D01*
X153263413Y-41248443D01*
X153263412Y-41248443D01*
X153061243Y-41182754D01*
X153061241Y-41182753D01*
X153061240Y-41182753D01*
X152899957Y-41157208D01*
X152851287Y-41149500D01*
X152388713Y-41149500D01*
X152340042Y-41157208D01*
X152178760Y-41182753D01*
X151976585Y-41248444D01*
X151787179Y-41344951D01*
X151615213Y-41469890D01*
X151464890Y-41620213D01*
X151339951Y-41792179D01*
X151243444Y-41981585D01*
X151243443Y-41981587D01*
X151243443Y-41981588D01*
X151237196Y-42000814D01*
X151177753Y-42183760D01*
X151144500Y-42393713D01*
X144189074Y-42393713D01*
X144169738Y-42296508D01*
X144169737Y-42296507D01*
X144169737Y-42296503D01*
X144141450Y-42228211D01*
X144109397Y-42150827D01*
X144109390Y-42150814D01*
X144021789Y-42019711D01*
X144021786Y-42019707D01*
X143910292Y-41908213D01*
X143910288Y-41908210D01*
X143779185Y-41820609D01*
X143779172Y-41820602D01*
X143633501Y-41760264D01*
X143633489Y-41760261D01*
X143478845Y-41729500D01*
X143478842Y-41729500D01*
X143321158Y-41729500D01*
X143321155Y-41729500D01*
X143166510Y-41760261D01*
X143166498Y-41760264D01*
X143020827Y-41820602D01*
X143020814Y-41820609D01*
X142889711Y-41908210D01*
X142889707Y-41908213D01*
X142778213Y-42019707D01*
X142778210Y-42019711D01*
X142690609Y-42150814D01*
X142690602Y-42150827D01*
X142630264Y-42296498D01*
X142630261Y-42296510D01*
X142599500Y-42451153D01*
X140397649Y-42451153D01*
X140383482Y-42436105D01*
X140362644Y-42419313D01*
X140359894Y-42411052D01*
X140353928Y-42404715D01*
X140349029Y-42378408D01*
X140340579Y-42353018D01*
X140340500Y-42348593D01*
X140340500Y-42191155D01*
X140340499Y-42191153D01*
X140331619Y-42146510D01*
X140309737Y-42036503D01*
X140286991Y-41981588D01*
X140249397Y-41890827D01*
X140249390Y-41890814D01*
X140161789Y-41759711D01*
X140161786Y-41759707D01*
X140050292Y-41648213D01*
X140050288Y-41648210D01*
X139919185Y-41560609D01*
X139919172Y-41560602D01*
X139773501Y-41500264D01*
X139773489Y-41500261D01*
X139618845Y-41469500D01*
X139618842Y-41469500D01*
X139461158Y-41469500D01*
X139461155Y-41469500D01*
X139306510Y-41500261D01*
X139306498Y-41500264D01*
X139160827Y-41560602D01*
X139160814Y-41560609D01*
X139029711Y-41648210D01*
X139029707Y-41648213D01*
X138918213Y-41759707D01*
X138918210Y-41759711D01*
X138830609Y-41890814D01*
X138830606Y-41890821D01*
X138791474Y-41985292D01*
X138747632Y-42039695D01*
X138701105Y-42059455D01*
X138596508Y-42080261D01*
X138596498Y-42080264D01*
X138450827Y-42140602D01*
X138450814Y-42140609D01*
X138319711Y-42228210D01*
X138319707Y-42228213D01*
X138208213Y-42339707D01*
X138208210Y-42339711D01*
X138120609Y-42470814D01*
X138120602Y-42470827D01*
X138060264Y-42616498D01*
X138060261Y-42616510D01*
X138029500Y-42771153D01*
X133643930Y-42771153D01*
X133709394Y-42673179D01*
X133769737Y-42527497D01*
X133800500Y-42372842D01*
X133800500Y-42215158D01*
X133800500Y-42215155D01*
X133800499Y-42215153D01*
X133795725Y-42191153D01*
X133769737Y-42060503D01*
X133769303Y-42059455D01*
X133709397Y-41914827D01*
X133709390Y-41914814D01*
X133621789Y-41783711D01*
X133621786Y-41783707D01*
X133510292Y-41672213D01*
X133510288Y-41672210D01*
X133379185Y-41584609D01*
X133379172Y-41584602D01*
X133233501Y-41524264D01*
X133233489Y-41524261D01*
X133078845Y-41493500D01*
X133078842Y-41493500D01*
X132921158Y-41493500D01*
X132921155Y-41493500D01*
X132766510Y-41524261D01*
X132766498Y-41524264D01*
X132620827Y-41584602D01*
X132620814Y-41584609D01*
X132489714Y-41672208D01*
X132485007Y-41676072D01*
X132484119Y-41674991D01*
X132428981Y-41705090D01*
X132359290Y-41700096D01*
X132333749Y-41687023D01*
X132309182Y-41670608D01*
X132309181Y-41670607D01*
X132309179Y-41670606D01*
X132309176Y-41670604D01*
X132309171Y-41670602D01*
X132163501Y-41610264D01*
X132163489Y-41610261D01*
X132008845Y-41579500D01*
X132008842Y-41579500D01*
X131851158Y-41579500D01*
X131851155Y-41579500D01*
X131696510Y-41610261D01*
X131696498Y-41610264D01*
X131550827Y-41670602D01*
X131550814Y-41670609D01*
X131419711Y-41758210D01*
X131419707Y-41758213D01*
X131308213Y-41869707D01*
X131308210Y-41869711D01*
X131220609Y-42000814D01*
X131220602Y-42000827D01*
X131160264Y-42146498D01*
X131160261Y-42146510D01*
X131129500Y-42301153D01*
X120750500Y-42301153D01*
X120750500Y-39851153D01*
X142689500Y-39851153D01*
X142689500Y-40008846D01*
X142720261Y-40163489D01*
X142720264Y-40163501D01*
X142780602Y-40309172D01*
X142780609Y-40309185D01*
X142868210Y-40440288D01*
X142868213Y-40440292D01*
X142979707Y-40551786D01*
X142979711Y-40551789D01*
X143110814Y-40639390D01*
X143110827Y-40639397D01*
X143256498Y-40699735D01*
X143256503Y-40699737D01*
X143411153Y-40730499D01*
X143411156Y-40730500D01*
X143411158Y-40730500D01*
X143568844Y-40730500D01*
X143568845Y-40730499D01*
X143723497Y-40699737D01*
X143869179Y-40639394D01*
X144000289Y-40551789D01*
X144111789Y-40440289D01*
X144199394Y-40309179D01*
X144259737Y-40163497D01*
X144290500Y-40008842D01*
X144290500Y-39851158D01*
X144290500Y-39851155D01*
X144290499Y-39851153D01*
X144259738Y-39696510D01*
X144259737Y-39696503D01*
X144259735Y-39696498D01*
X144199397Y-39550827D01*
X144199390Y-39550814D01*
X144111789Y-39419711D01*
X144111786Y-39419707D01*
X144000292Y-39308213D01*
X144000288Y-39308210D01*
X143869185Y-39220609D01*
X143869172Y-39220602D01*
X143723501Y-39160264D01*
X143723489Y-39160261D01*
X143568845Y-39129500D01*
X143568842Y-39129500D01*
X143411158Y-39129500D01*
X143411155Y-39129500D01*
X143256510Y-39160261D01*
X143256498Y-39160264D01*
X143110827Y-39220602D01*
X143110814Y-39220609D01*
X142979711Y-39308210D01*
X142979707Y-39308213D01*
X142868213Y-39419707D01*
X142868210Y-39419711D01*
X142780609Y-39550814D01*
X142780602Y-39550827D01*
X142720264Y-39696498D01*
X142720261Y-39696510D01*
X142689500Y-39851153D01*
X120750500Y-39851153D01*
X120750500Y-36849983D01*
X151144500Y-36849983D01*
X151144500Y-38150001D01*
X151144501Y-38150018D01*
X151155000Y-38252796D01*
X151155001Y-38252799D01*
X151210185Y-38419331D01*
X151210186Y-38419334D01*
X151302288Y-38568656D01*
X151426344Y-38692712D01*
X151575666Y-38784814D01*
X151742203Y-38839999D01*
X151844991Y-38850500D01*
X153395008Y-38850499D01*
X153497797Y-38839999D01*
X153664334Y-38784814D01*
X153813656Y-38692712D01*
X153937712Y-38568656D01*
X154029814Y-38419334D01*
X154084999Y-38252797D01*
X154095500Y-38150009D01*
X154095499Y-36849992D01*
X154084999Y-36747203D01*
X154029814Y-36580666D01*
X153937712Y-36431344D01*
X153813656Y-36307288D01*
X153664334Y-36215186D01*
X153497797Y-36160001D01*
X153497795Y-36160000D01*
X153395010Y-36149500D01*
X151844998Y-36149500D01*
X151844981Y-36149501D01*
X151742203Y-36160000D01*
X151742200Y-36160001D01*
X151575668Y-36215185D01*
X151575663Y-36215187D01*
X151426342Y-36307289D01*
X151302289Y-36431342D01*
X151210187Y-36580663D01*
X151210186Y-36580666D01*
X151155001Y-36747203D01*
X151155001Y-36747204D01*
X151155000Y-36747204D01*
X151144500Y-36849983D01*
X120750500Y-36849983D01*
X120750500Y-29571153D01*
X142939500Y-29571153D01*
X142939500Y-29728846D01*
X142970261Y-29883489D01*
X142970264Y-29883501D01*
X143030602Y-30029172D01*
X143030609Y-30029185D01*
X143118210Y-30160288D01*
X143118213Y-30160292D01*
X143229707Y-30271786D01*
X143229711Y-30271789D01*
X143360814Y-30359390D01*
X143360827Y-30359397D01*
X143506498Y-30419735D01*
X143506503Y-30419737D01*
X143661153Y-30450499D01*
X143661156Y-30450500D01*
X143661158Y-30450500D01*
X143818844Y-30450500D01*
X143818845Y-30450499D01*
X143973497Y-30419737D01*
X144119179Y-30359394D01*
X144250289Y-30271789D01*
X144361789Y-30160289D01*
X144449394Y-30029179D01*
X144509737Y-29883497D01*
X144540500Y-29728842D01*
X144540500Y-29571158D01*
X144540500Y-29571155D01*
X144540499Y-29571153D01*
X144509738Y-29416510D01*
X144509737Y-29416503D01*
X144495276Y-29381592D01*
X144487808Y-29312127D01*
X144495275Y-29286694D01*
X144529737Y-29203497D01*
X144560500Y-29048842D01*
X144560500Y-28891158D01*
X144560500Y-28891155D01*
X144560499Y-28891153D01*
X144529738Y-28736510D01*
X144529737Y-28736503D01*
X144529735Y-28736498D01*
X144469397Y-28590827D01*
X144469390Y-28590814D01*
X144381789Y-28459711D01*
X144381786Y-28459707D01*
X144270292Y-28348213D01*
X144270288Y-28348210D01*
X144139185Y-28260609D01*
X144139172Y-28260602D01*
X143993501Y-28200264D01*
X143993489Y-28200261D01*
X143838845Y-28169500D01*
X143838842Y-28169500D01*
X143681158Y-28169500D01*
X143681155Y-28169500D01*
X143526510Y-28200261D01*
X143526498Y-28200264D01*
X143380827Y-28260602D01*
X143380814Y-28260609D01*
X143249711Y-28348210D01*
X143249707Y-28348213D01*
X143138213Y-28459707D01*
X143138210Y-28459711D01*
X143050609Y-28590814D01*
X143050602Y-28590827D01*
X142990264Y-28736498D01*
X142990261Y-28736510D01*
X142959500Y-28891153D01*
X142959500Y-29048846D01*
X142990260Y-29203488D01*
X142990263Y-29203498D01*
X143004722Y-29238404D01*
X143012191Y-29307873D01*
X143004722Y-29333308D01*
X142970264Y-29416497D01*
X142970261Y-29416505D01*
X142939500Y-29571153D01*
X120750500Y-29571153D01*
X120750500Y-27092000D01*
X120770185Y-27024961D01*
X120822989Y-26979206D01*
X120874500Y-26968000D01*
X155455500Y-26968000D01*
X155522539Y-26987685D01*
G37*
%TD.AperFunction*%
%TD*%
M02*
