M48
; DRILL file {KiCad 9.0.2} date 2026-07-29T15:24:35+0800
; FORMAT={-:-/ absolute / metric / decimal}
; #@! TF.CreationDate,2026-07-29T15:24:35+08:00
; #@! TF.GenerationSoftware,Kicad,Pcbnew,9.0.2
; #@! TF.FileFunction,Plated,1,4,PTH
FMAT,2
METRIC
; #@! TA.AperFunction,Plated,PTH,ViaDrill
T1C0.300
; #@! TA.AperFunction,Plated,PTH,ComponentDrill
T2C0.950
; #@! TA.AperFunction,Plated,PTH,ComponentDrill
T3C1.000
; #@! TA.AperFunction,Plated,PTH,ComponentDrill
T4C1.016
%
G90
G05
T1
X121.25Y-32.5
X121.25Y-34.0
X121.25Y-38.0
X121.25Y-39.5
X122.0Y-32.5
X122.0Y-34.0
X122.0Y-38.0
X122.0Y-39.5
X122.5Y-27.5
X122.5Y-30.0
X122.5Y-42.5
X122.5Y-45.0
X122.5Y-47.5
X122.5Y-50.0
X122.5Y-52.5
X123.0Y-32.5
X123.0Y-34.0
X123.0Y-38.0
X123.0Y-39.5
X124.0Y-34.0
X124.0Y-39.5
X124.06Y-32.5
X124.06Y-38.0
X124.72Y-35.1
X124.74Y-37.06
X125.0Y-27.5
X125.0Y-30.0
X125.0Y-32.5
X125.0Y-40.0
X125.0Y-42.5
X125.0Y-45.0
X125.0Y-47.5
X125.0Y-50.0
X125.0Y-52.5
X125.78Y-37.06
X126.0Y-32.5
X126.75Y-37.06
X126.77Y-35.1
X126.79Y-38.11
X127.0Y-40.0
X127.5Y-27.5
X127.5Y-30.0
X127.5Y-32.5
X127.5Y-34.0
X127.5Y-42.5
X127.5Y-45.0
X127.5Y-47.5
X127.5Y-50.0
X127.5Y-52.5
X127.57Y-35.11
X128.01Y-38.05
X128.5Y-47.66
X128.53Y-48.84
X128.96Y-38.1
X129.07Y-35.27
X129.55Y-47.85
X129.56Y-48.72
X129.96Y-35.25
X130.0Y-27.5
X130.0Y-30.0
X130.0Y-32.5
X130.0Y-50.0
X130.0Y-52.5
X130.31Y-40.88
X130.87Y-35.24
X130.88Y-36.1
X131.51Y-38.32
X131.54Y-36.67
X131.75Y-39.46
X131.93Y-42.38
X132.5Y-27.5
X132.5Y-30.0
X132.5Y-32.5
X132.5Y-38.33
X132.5Y-50.0
X132.5Y-52.5
X132.54Y-36.67
X132.88Y-43.82
X133.0Y-42.294
X133.21Y-38.34
X133.67Y-44.0
X133.745Y-99.866
X133.745Y-122.366
X133.795Y-77.366
X134.99Y-33.86
X134.99Y-34.54
X134.99Y-35.22
X134.99Y-35.87
X135.0Y-27.5
X135.0Y-30.0
X135.0Y-32.5
X135.0Y-50.0
X135.0Y-52.5
X135.5Y-37.362
X136.01Y-33.86
X136.01Y-34.54
X136.01Y-35.22
X136.01Y-35.87
X137.5Y-27.5
X137.5Y-50.0
X137.5Y-52.5
X138.07Y-38.26
X138.52Y-36.64
X138.83Y-42.85
X139.04Y-38.25
X139.29Y-36.64
X139.49Y-43.78
X139.54Y-42.27
X139.58Y-46.94
X139.6Y-34.2
X139.76Y-47.97
X139.76Y-48.69
X139.85Y-38.3
X140.0Y-27.5
X140.0Y-50.0
X140.0Y-52.5
X140.08Y-43.19
X140.37Y-44.97
X141.0Y-46.0
X141.0Y-48.0
X141.5Y-34.97
X141.5Y-36.47
X142.16Y-36.45
X142.5Y-27.5
X142.5Y-50.0
X142.5Y-52.5
X143.4Y-42.53
X143.49Y-39.93
X143.74Y-29.65
X143.76Y-28.97
X143.82Y-36.6
X143.89Y-38.35
X144.305Y-39.5
X144.59Y-28.96
X145.0Y-27.5
X145.0Y-30.0
X145.0Y-32.5
X145.0Y-35.0
X145.0Y-50.0
X145.0Y-52.5
X145.78Y-43.92
X146.2Y-40.84
X147.5Y-27.5
X147.5Y-30.0
X147.5Y-32.5
X147.5Y-34.94
X147.5Y-40.0
X147.5Y-42.5
X147.5Y-50.06
X147.5Y-52.5
X150.0Y-27.5
X150.0Y-30.0
X150.0Y-32.5
X150.0Y-35.0
X150.0Y-50.06
X150.0Y-52.5
X152.5Y-27.5
X152.5Y-30.0
X152.5Y-32.5
X152.5Y-35.0
X152.5Y-50.0
X152.5Y-52.5
X155.0Y-27.5
X155.0Y-30.0
X155.0Y-32.5
X155.0Y-34.95
X155.0Y-50.05
X155.0Y-52.5
X157.5Y-27.5
X157.5Y-30.0
X157.5Y-32.5
X157.5Y-35.0
X157.5Y-50.0
X157.5Y-52.5
X170.245Y-61.366
X170.5Y-117.5
X171.245Y-61.366
X171.5Y-117.5
X172.245Y-61.366
X172.405Y-86.426
X172.5Y-117.5
X173.5Y-117.5
X174.105Y-78.176
X174.5Y-117.5
X174.905Y-73.336
X174.905Y-74.196
X175.0Y-67.0
X175.0Y-68.0
X176.0Y-67.0
X176.0Y-68.0
X177.0Y-67.0
X177.0Y-68.0
X177.4Y-60.6
X178.0Y-67.0
X178.0Y-68.0
X178.3Y-60.6
X179.0Y-67.0
X179.0Y-68.0
X179.05Y-60.6
T2
X130.395Y-62.366
X130.395Y-64.866
X130.395Y-67.366
X130.395Y-69.866
X130.395Y-72.366
X130.395Y-84.866
X130.395Y-87.366
X130.395Y-89.866
X130.395Y-92.366
X130.395Y-94.866
X130.395Y-107.366
X130.395Y-109.866
X130.395Y-112.366
X130.395Y-114.866
X130.395Y-117.366
X142.745Y-62.366
X142.745Y-64.866
X142.745Y-67.366
X142.745Y-69.866
X142.745Y-72.366
X142.745Y-84.866
X142.745Y-87.366
X142.745Y-89.866
X142.745Y-92.366
X142.745Y-94.866
X142.745Y-107.366
X142.745Y-109.866
X142.745Y-112.366
X142.745Y-114.866
X142.745Y-117.366
X152.62Y-37.5
X152.62Y-40.0
X152.62Y-42.5
X152.62Y-45.0
X152.62Y-47.5
T3
X172.5Y-119.5
X172.5Y-124.5
X177.5Y-122.0
T4
X152.745Y-62.326
X152.745Y-64.866
X152.745Y-67.406
X152.745Y-69.946
X152.745Y-72.486
X152.745Y-75.026
X152.745Y-77.566
X152.745Y-80.106
X152.745Y-82.646
X152.745Y-85.186
X152.745Y-87.726
X152.745Y-90.266
X152.745Y-92.806
X152.745Y-95.346
X152.745Y-97.886
X152.745Y-100.426
X152.745Y-102.966
X152.745Y-105.506
X152.745Y-108.046
X152.745Y-110.586
X152.745Y-113.126
X152.745Y-115.666
X152.745Y-118.206
X152.745Y-120.746
X155.285Y-108.046
X157.825Y-108.046
X167.985Y-62.326
X167.985Y-64.866
X167.985Y-67.406
X167.985Y-69.946
X167.985Y-72.486
X167.985Y-75.026
X167.985Y-77.566
X167.985Y-80.106
X167.985Y-82.646
X167.985Y-85.186
X167.985Y-87.726
X167.985Y-90.266
X167.985Y-92.806
X167.985Y-95.346
X167.985Y-97.886
X167.985Y-100.426
X167.985Y-102.966
X167.985Y-105.506
X167.985Y-108.046
X167.985Y-110.586
X167.985Y-113.126
X167.985Y-115.666
X167.985Y-118.206
X167.985Y-120.746
M30
