M48
; DRILL file {KiCad 9.0.2} date 2026-08-16T19:00:04-0700
; FORMAT={-:-/ absolute / metric / decimal}
; #@! TF.CreationDate,2026-08-16T19:00:04-07:00
; #@! TF.GenerationSoftware,Kicad,Pcbnew,9.0.2
; #@! TF.FileFunction,NonPlated,1,4,NPTH
FMAT,2
METRIC
; #@! TA.AperFunction,NonPlated,NPTH,ComponentDrill
T1C0.500
%
G90
G05
T1
X121.775Y-54.555
X121.775Y-56.685
X122.765Y-54.555
X122.775Y-56.685
X123.775Y-54.555
X123.775Y-56.685
X126.55Y-54.555
X126.55Y-56.685
X127.54Y-54.555
X127.55Y-56.685
X128.55Y-54.555
X128.55Y-56.685
X131.325Y-54.555
X131.325Y-56.685
X132.315Y-54.555
X132.325Y-56.685
X133.325Y-54.555
X133.325Y-56.685
X136.125Y-54.55
X136.125Y-56.68
X137.115Y-54.55
X137.125Y-56.68
X138.125Y-54.55
X138.125Y-56.68
X140.925Y-54.55
X140.925Y-56.68
X141.915Y-54.55
X141.925Y-56.68
X142.925Y-54.55
X142.925Y-56.68
X145.725Y-54.55
X145.725Y-56.68
X146.715Y-54.55
X146.725Y-56.68
X147.725Y-54.55
X147.725Y-56.68
X150.525Y-54.55
X150.525Y-56.68
X151.515Y-54.55
X151.525Y-56.68
X152.525Y-54.55
X152.525Y-56.68
X155.325Y-54.55
X155.325Y-56.68
X156.315Y-54.55
X156.325Y-56.68
X157.325Y-54.55
X157.325Y-56.68
M30
