%TF.GenerationSoftware,KiCad,Pcbnew,9.0.2*%
%TF.CreationDate,2026-08-16T19:00:02-07:00*%
%TF.ProjectId,Discriminator,44697363-7269-46d6-996e-61746f722e6b,rev?*%
%TF.SameCoordinates,Original*%
%TF.FileFunction,Soldermask,Top*%
%TF.FilePolarity,Negative*%
%FSLAX46Y46*%
G04 Gerber Fmt 4.6, Leading zero omitted, Abs format (unit mm)*
G04 Created by KiCad (PCBNEW 9.0.2) date 2026-08-16 19:00:02*
%MOMM*%
%LPD*%
G01*
G04 APERTURE LIST*
G04 Aperture macros list*
%AMRoundRect*
0 Rectangle with rounded corners*
0 $1 Rounding radius*
0 $2 $3 $4 $5 $6 $7 $8 $9 X,Y pos of 4 corners*
0 Add a 4 corners polygon primitive as box body*
4,1,4,$2,$3,$4,$5,$6,$7,$8,$9,$2,$3,0*
0 Add four circle primitives for the rounded corners*
1,1,$1+$1,$2,$3*
1,1,$1+$1,$4,$5*
1,1,$1+$1,$6,$7*
1,1,$1+$1,$8,$9*
0 Add four rect primitives between the rounded corners*
20,1,$1+$1,$2,$3,$4,$5,0*
20,1,$1+$1,$4,$5,$6,$7,0*
20,1,$1+$1,$6,$7,$8,$9,0*
20,1,$1+$1,$8,$9,$2,$3,0*%
%AMFreePoly0*
4,1,9,3.862500,-0.866500,0.737500,-0.866500,0.737500,-0.450000,-0.737500,-0.450000,-0.737500,0.450000,0.737500,0.450000,0.737500,0.866500,3.862500,0.866500,3.862500,-0.866500,3.862500,-0.866500,$1*%
G04 Aperture macros list end*
%ADD10C,0.500000*%
%ADD11RoundRect,0.218750X-0.256250X0.218750X-0.256250X-0.218750X0.256250X-0.218750X0.256250X0.218750X0*%
%ADD12RoundRect,0.250000X-0.725000X0.600000X-0.725000X-0.600000X0.725000X-0.600000X0.725000X0.600000X0*%
%ADD13O,1.950000X1.700000*%
%ADD14RoundRect,0.225000X-0.225000X-0.250000X0.225000X-0.250000X0.225000X0.250000X-0.225000X0.250000X0*%
%ADD15R,1.000000X1.000000*%
%ADD16RoundRect,0.225000X0.225000X-0.425000X0.225000X0.425000X-0.225000X0.425000X-0.225000X-0.425000X0*%
%ADD17FreePoly0,90.000000*%
%ADD18RoundRect,0.200000X0.200000X0.275000X-0.200000X0.275000X-0.200000X-0.275000X0.200000X-0.275000X0*%
%ADD19RoundRect,0.140000X0.140000X0.170000X-0.140000X0.170000X-0.140000X-0.170000X0.140000X-0.170000X0*%
%ADD20R,0.279400X1.333500*%
%ADD21R,1.143000X0.457200*%
%ADD22R,1.143000X0.762000*%
%ADD23RoundRect,0.225000X0.225000X0.250000X-0.225000X0.250000X-0.225000X-0.250000X0.225000X-0.250000X0*%
%ADD24RoundRect,0.250000X-0.250000X-0.475000X0.250000X-0.475000X0.250000X0.475000X-0.250000X0.475000X0*%
%ADD25RoundRect,0.200000X-0.200000X-0.275000X0.200000X-0.275000X0.200000X0.275000X-0.200000X0.275000X0*%
%ADD26RoundRect,0.100000X-0.100000X0.225000X-0.100000X-0.225000X0.100000X-0.225000X0.100000X0.225000X0*%
%ADD27RoundRect,0.250000X1.350000X-0.385000X1.350000X0.385000X-1.350000X0.385000X-1.350000X-0.385000X0*%
%ADD28RoundRect,0.250000X1.600000X-0.425000X1.600000X0.425000X-1.600000X0.425000X-1.600000X-0.425000X0*%
%ADD29RoundRect,0.140000X-0.140000X-0.170000X0.140000X-0.170000X0.140000X0.170000X-0.140000X0.170000X0*%
%ADD30RoundRect,0.218750X-0.218750X-0.256250X0.218750X-0.256250X0.218750X0.256250X-0.218750X0.256250X0*%
%ADD31RoundRect,0.225000X-0.250000X0.225000X-0.250000X-0.225000X0.250000X-0.225000X0.250000X0.225000X0*%
%ADD32RoundRect,0.200000X-0.275000X0.200000X-0.275000X-0.200000X0.275000X-0.200000X0.275000X0.200000X0*%
%ADD33RoundRect,0.135000X-0.135000X-0.185000X0.135000X-0.185000X0.135000X0.185000X-0.135000X0.185000X0*%
%ADD34R,0.762000X1.270000*%
%ADD35RoundRect,0.250000X-1.350000X0.385000X-1.350000X-0.385000X1.350000X-0.385000X1.350000X0.385000X0*%
%ADD36RoundRect,0.250000X-1.600000X0.425000X-1.600000X-0.425000X1.600000X-0.425000X1.600000X0.425000X0*%
%ADD37C,1.728000*%
%ADD38C,1.440000*%
%ADD39RoundRect,0.250000X0.250000X0.475000X-0.250000X0.475000X-0.250000X-0.475000X0.250000X-0.475000X0*%
%ADD40RoundRect,0.135000X-0.185000X0.135000X-0.185000X-0.135000X0.185000X-0.135000X0.185000X0.135000X0*%
%ADD41RoundRect,0.200000X0.275000X-0.200000X0.275000X0.200000X-0.275000X0.200000X-0.275000X-0.200000X0*%
G04 APERTURE END LIST*
D10*
%TO.C,mouse-bite-2.54mm-4.66mm*%
X150525000Y-54550000D03*
X150525000Y-56680000D03*
X151515000Y-54550000D03*
X151525000Y-56680000D03*
X152525000Y-54550000D03*
X152525000Y-56680000D03*
%TD*%
D11*
%TO.C,L2*%
X134820000Y-39185000D03*
X134820000Y-40760000D03*
%TD*%
D12*
%TO.C,J5*%
X142744950Y-84865553D03*
D13*
X142744950Y-87365553D03*
X142744950Y-89865553D03*
X142744950Y-92365553D03*
X142744950Y-94865553D03*
%TD*%
D14*
%TO.C,C17*%
X176924950Y-75355553D03*
X178474950Y-75355553D03*
%TD*%
D15*
%TO.C,TP5*%
X141900000Y-31200000D03*
%TD*%
D10*
%TO.C,mouse-bite-2.54mm-4.66mm*%
X131325000Y-54555000D03*
X131325000Y-56685000D03*
X132315000Y-54555000D03*
X132325000Y-56685000D03*
X133325000Y-54555000D03*
X133325000Y-56685000D03*
%TD*%
D16*
%TO.C,U2*%
X134000000Y-37450000D03*
D17*
X135500000Y-37362500D03*
D16*
X137000000Y-37450000D03*
%TD*%
D15*
%TO.C,TP9*%
X157000000Y-36500000D03*
%TD*%
D14*
%TO.C,C19*%
X176114950Y-86235553D03*
X177664950Y-86235553D03*
%TD*%
D15*
%TO.C,TP7*%
X157000000Y-45400000D03*
%TD*%
D18*
%TO.C,R8*%
X141844950Y-99865553D03*
X140194950Y-99865553D03*
%TD*%
D19*
%TO.C,C2*%
X132480000Y-37500000D03*
X131520000Y-37500000D03*
%TD*%
D20*
%TO.C,U5*%
X175414950Y-79735553D03*
X174914948Y-79735553D03*
X174414949Y-79735553D03*
X173914950Y-79735553D03*
X173414948Y-79735553D03*
X173414948Y-84167853D03*
X173914950Y-84167853D03*
X174414949Y-84167853D03*
X174914948Y-84167853D03*
X175414950Y-84167853D03*
%TD*%
D21*
%TO.C,U1*%
X129955800Y-37295400D03*
D22*
X129955800Y-36152400D03*
D21*
X128000000Y-36000000D03*
X128000000Y-37295400D03*
%TD*%
D23*
%TO.C,C10*%
X138800000Y-45400000D03*
X137250000Y-45400000D03*
%TD*%
D10*
%TO.C,mouse-bite-2.54mm-4.66mm*%
X136125000Y-54550000D03*
X136125000Y-56680000D03*
X137115000Y-54550000D03*
X137125000Y-56680000D03*
X138125000Y-54550000D03*
X138125000Y-56680000D03*
%TD*%
D24*
%TO.C,C6*%
X130700000Y-48300000D03*
X132600000Y-48300000D03*
%TD*%
D19*
%TO.C,C9*%
X138800000Y-43750000D03*
X137840000Y-43750000D03*
%TD*%
D18*
%TO.C,R7*%
X141844950Y-77365553D03*
X140194950Y-77365553D03*
%TD*%
%TO.C,R12*%
X129494950Y-122365553D03*
X127844950Y-122365553D03*
%TD*%
D25*
%TO.C,R_b1*%
X138100000Y-29400000D03*
X139750000Y-29400000D03*
%TD*%
D18*
%TO.C,R9*%
X141844950Y-122365553D03*
X140194950Y-122365553D03*
%TD*%
D25*
%TO.C,R_Hyst1*%
X142910000Y-43940000D03*
X144560000Y-43940000D03*
%TD*%
D14*
%TO.C,C12*%
X141300000Y-33800000D03*
X142850000Y-33800000D03*
%TD*%
D26*
%TO.C,U_Comparator1*%
X142800000Y-37500000D03*
X142150000Y-37500000D03*
X141500000Y-37500000D03*
X141500000Y-39400000D03*
X142150000Y-39400000D03*
X142800000Y-39400000D03*
%TD*%
D27*
%TO.C,J_Power1*%
X178144950Y-62295553D03*
D28*
X177894950Y-59470553D03*
X177894950Y-65120553D03*
%TD*%
D15*
%TO.C,TP2*%
X128500000Y-39500000D03*
%TD*%
%TO.C,TP1*%
X126000000Y-34000000D03*
%TD*%
D12*
%TO.C,J8*%
X130394950Y-107365553D03*
D13*
X130394950Y-109865553D03*
X130394950Y-112365553D03*
X130394950Y-114865553D03*
X130394950Y-117365553D03*
%TD*%
D29*
%TO.C,C4*%
X132100000Y-44800000D03*
X133060000Y-44800000D03*
%TD*%
D18*
%TO.C,R6*%
X144550000Y-49000000D03*
X142900000Y-49000000D03*
%TD*%
D30*
%TO.C,D_4*%
X131019950Y-77365553D03*
X132594950Y-77365553D03*
%TD*%
D12*
%TO.C,J4*%
X130394950Y-62365553D03*
D13*
X130394950Y-64865553D03*
X130394950Y-67365553D03*
X130394950Y-69865553D03*
X130394950Y-72365553D03*
%TD*%
D31*
%TO.C,C7*%
X134810000Y-45310000D03*
X134810000Y-46860000D03*
%TD*%
D30*
%TO.C,D_Life3.3*%
X146000000Y-47300000D03*
X147575000Y-47300000D03*
%TD*%
D12*
%TO.C,J1*%
X152620000Y-37500000D03*
D13*
X152620000Y-40000000D03*
X152620000Y-42500000D03*
X152620000Y-45000000D03*
X152620000Y-47500000D03*
%TD*%
D10*
%TO.C,mouse-bite-2.54mm-4.66mm*%
X140925000Y-54550000D03*
X140925000Y-56680000D03*
X141915000Y-54550000D03*
X141925000Y-56680000D03*
X142925000Y-54550000D03*
X142925000Y-56680000D03*
%TD*%
D25*
%TO.C,R_a1*%
X141300000Y-29400000D03*
X142950000Y-29400000D03*
%TD*%
D30*
%TO.C,D_2*%
X143519950Y-99865553D03*
X145094950Y-99865553D03*
%TD*%
D32*
%TO.C,R4*%
X173514950Y-87635553D03*
X173514950Y-89285553D03*
%TD*%
D14*
%TO.C,C14*%
X143530000Y-40850000D03*
X145080000Y-40850000D03*
%TD*%
D12*
%TO.C,J7*%
X130394950Y-84865553D03*
D13*
X130394950Y-87365553D03*
X130394950Y-89865553D03*
X130394950Y-92365553D03*
X130394950Y-94865553D03*
%TD*%
D33*
%TO.C,R_s1*%
X144130000Y-37500000D03*
X145150000Y-37500000D03*
%TD*%
D30*
%TO.C,D_3*%
X143469950Y-122365553D03*
X145044950Y-122365553D03*
%TD*%
D32*
%TO.C,R1*%
X134810000Y-42210000D03*
X134810000Y-43860000D03*
%TD*%
D23*
%TO.C,C13*%
X139575000Y-32300000D03*
X138025000Y-32300000D03*
%TD*%
D15*
%TO.C,TP8*%
X157000000Y-39600000D03*
%TD*%
D34*
%TO.C,L3*%
X137000000Y-39456000D03*
X139540000Y-39456000D03*
X139540000Y-42250000D03*
X137000000Y-42250000D03*
%TD*%
D14*
%TO.C,C16*%
X175294950Y-72325553D03*
X176844950Y-72325553D03*
%TD*%
D30*
%TO.C,D_Life5*%
X146000000Y-49000000D03*
X147575000Y-49000000D03*
%TD*%
%TO.C,D_1*%
X143519950Y-77365553D03*
X145094950Y-77365553D03*
%TD*%
D35*
%TO.C,J3*%
X122350000Y-36000000D03*
D36*
X122600000Y-38825000D03*
X122600000Y-33175000D03*
%TD*%
D37*
%TO.C,A1*%
X167984950Y-67405553D03*
X152744950Y-97885553D03*
X157824950Y-108045553D03*
X167984950Y-64865553D03*
X152744950Y-64865553D03*
X152744950Y-67405553D03*
X152744950Y-69945553D03*
X152744950Y-72485553D03*
X152744950Y-75025553D03*
X152744950Y-77565553D03*
X152744950Y-80105553D03*
X152744950Y-82645553D03*
X152744950Y-85185553D03*
X152744950Y-87725553D03*
X152744950Y-90265553D03*
X152744950Y-92805553D03*
X152744950Y-95345553D03*
X167984950Y-95345553D03*
X167984950Y-92805553D03*
X167984950Y-90265553D03*
X167984950Y-87725553D03*
X167984950Y-85185553D03*
X167984950Y-82645553D03*
X167984950Y-80105553D03*
X167984950Y-77565553D03*
X167984950Y-75025553D03*
X167984950Y-72485553D03*
X167984950Y-69945553D03*
X152744950Y-100425553D03*
X152744950Y-102965553D03*
X152744950Y-105505553D03*
X152744950Y-108045553D03*
X152744950Y-110585553D03*
X152744950Y-113125553D03*
X152744950Y-115665553D03*
X152744950Y-118205553D03*
X152744950Y-120745553D03*
X167984950Y-120745553D03*
X167984950Y-118205553D03*
X167984950Y-115665553D03*
X167984950Y-113125553D03*
X167984950Y-110585553D03*
X167984950Y-108045553D03*
X167984950Y-105505553D03*
X167984950Y-102965553D03*
X167984950Y-100425553D03*
X152744950Y-62325553D03*
X167984950Y-97885553D03*
X155284950Y-108045553D03*
X167984950Y-62325553D03*
%TD*%
D38*
%TO.C,3386F-1-201LF1*%
X172250000Y-124500000D03*
X177330000Y-121960000D03*
X172250000Y-119420000D03*
%TD*%
D10*
%TO.C,mouse-bite-2.54mm-4.66mm*%
X155325000Y-54550000D03*
X155325000Y-56680000D03*
X156315000Y-54550000D03*
X156325000Y-56680000D03*
X157325000Y-54550000D03*
X157325000Y-56680000D03*
%TD*%
D39*
%TO.C,C11*%
X138800000Y-48300000D03*
X136900000Y-48300000D03*
%TD*%
D14*
%TO.C,C15*%
X144550000Y-42390000D03*
X146100000Y-42390000D03*
%TD*%
D32*
%TO.C,R5*%
X125500000Y-116000000D03*
X125500000Y-117650000D03*
%TD*%
D10*
%TO.C,mouse-bite-2.54mm-4.66mm*%
X145725000Y-54550000D03*
X145725000Y-56680000D03*
X146715000Y-54550000D03*
X146725000Y-56680000D03*
X147725000Y-54550000D03*
X147725000Y-56680000D03*
%TD*%
D12*
%TO.C,J6*%
X142744950Y-107365553D03*
D13*
X142744950Y-109865553D03*
X142744950Y-112365553D03*
X142744950Y-114865553D03*
X142744950Y-117365553D03*
%TD*%
D15*
%TO.C,TP3*%
X139075000Y-35475000D03*
%TD*%
D18*
%TO.C,R2*%
X144550000Y-47300000D03*
X142900000Y-47300000D03*
%TD*%
D40*
%TO.C,Rterm1*%
X140600000Y-35290000D03*
X140600000Y-36310000D03*
%TD*%
D30*
%TO.C,D_6*%
X131169950Y-122365553D03*
X132744950Y-122365553D03*
%TD*%
D19*
%TO.C,C1*%
X126460000Y-36000000D03*
X125500000Y-36000000D03*
%TD*%
D10*
%TO.C,mouse-bite-2.54mm-4.66mm*%
X126550000Y-54555000D03*
X126550000Y-56685000D03*
X127540000Y-54555000D03*
X127550000Y-56685000D03*
X128550000Y-54555000D03*
X128550000Y-56685000D03*
%TD*%
D30*
%TO.C,D_5*%
X131019950Y-99865553D03*
X132594950Y-99865553D03*
%TD*%
D19*
%TO.C,C3*%
X132100000Y-43800000D03*
X131140000Y-43800000D03*
%TD*%
D15*
%TO.C,TP6*%
X157000000Y-42500000D03*
%TD*%
D32*
%TO.C,R3*%
X174904950Y-75385553D03*
X174904950Y-77035553D03*
%TD*%
D10*
%TO.C,mouse-bite-2.54mm-4.66mm*%
X121775000Y-54555000D03*
X121775000Y-56685000D03*
X122765000Y-54555000D03*
X122775000Y-56685000D03*
X123775000Y-54555000D03*
X123775000Y-56685000D03*
%TD*%
D14*
%TO.C,C18*%
X176924950Y-77005553D03*
X178474950Y-77005553D03*
%TD*%
D12*
%TO.C,J2*%
X142744950Y-62365553D03*
D13*
X142744950Y-64865553D03*
X142744950Y-67365553D03*
X142744950Y-69865553D03*
X142744950Y-72365553D03*
%TD*%
D23*
%TO.C,C5*%
X130700000Y-46400000D03*
X129150000Y-46400000D03*
%TD*%
D18*
%TO.C,R10*%
X129344950Y-77365553D03*
X127694950Y-77365553D03*
%TD*%
D41*
%TO.C,R14*%
X125500000Y-121150000D03*
X125500000Y-119500000D03*
%TD*%
D32*
%TO.C,R13*%
X125500000Y-112500000D03*
X125500000Y-114150000D03*
%TD*%
D14*
%TO.C,C20*%
X176114950Y-87885553D03*
X177664950Y-87885553D03*
%TD*%
D15*
%TO.C,TP4*%
X157000000Y-48300000D03*
%TD*%
D18*
%TO.C,R11*%
X129344950Y-99865553D03*
X127694950Y-99865553D03*
%TD*%
D34*
%TO.C,L1*%
X130460000Y-39500000D03*
X133000000Y-39500000D03*
X133000000Y-42294000D03*
X130460000Y-42294000D03*
%TD*%
D29*
%TO.C,C8*%
X138540000Y-37500000D03*
X139500000Y-37500000D03*
%TD*%
M02*
