%TF.GenerationSoftware,KiCad,Pcbnew,9.0.2*%
%TF.CreationDate,2026-08-14T16:17:46+08:00*%
%TF.ProjectId,Discriminator,44697363-7269-46d6-996e-61746f722e6b,rev?*%
%TF.SameCoordinates,Original*%
%TF.FileFunction,Legend,Top*%
%TF.FilePolarity,Positive*%
%FSLAX46Y46*%
G04 Gerber Fmt 4.6, Leading zero omitted, Abs format (unit mm)*
G04 Created by KiCad (PCBNEW 9.0.2) date 2026-08-14 16:17:46*
%MOMM*%
%LPD*%
G01*
G04 APERTURE LIST*
%ADD10C,0.150000*%
%ADD11C,0.120000*%
%ADD12C,0.152400*%
%ADD13C,0.254000*%
G04 APERTURE END LIST*
D10*
X132703333Y-41307819D02*
X132227143Y-41307819D01*
X132227143Y-41307819D02*
X132227143Y-40307819D01*
X132989048Y-40403057D02*
X133036667Y-40355438D01*
X133036667Y-40355438D02*
X133131905Y-40307819D01*
X133131905Y-40307819D02*
X133370000Y-40307819D01*
X133370000Y-40307819D02*
X133465238Y-40355438D01*
X133465238Y-40355438D02*
X133512857Y-40403057D01*
X133512857Y-40403057D02*
X133560476Y-40498295D01*
X133560476Y-40498295D02*
X133560476Y-40593533D01*
X133560476Y-40593533D02*
X133512857Y-40736390D01*
X133512857Y-40736390D02*
X132941429Y-41307819D01*
X132941429Y-41307819D02*
X133560476Y-41307819D01*
X142863095Y-30379819D02*
X143434523Y-30379819D01*
X143148809Y-31379819D02*
X143148809Y-30379819D01*
X143767857Y-31379819D02*
X143767857Y-30379819D01*
X143767857Y-30379819D02*
X144148809Y-30379819D01*
X144148809Y-30379819D02*
X144244047Y-30427438D01*
X144244047Y-30427438D02*
X144291666Y-30475057D01*
X144291666Y-30475057D02*
X144339285Y-30570295D01*
X144339285Y-30570295D02*
X144339285Y-30713152D01*
X144339285Y-30713152D02*
X144291666Y-30808390D01*
X144291666Y-30808390D02*
X144244047Y-30856009D01*
X144244047Y-30856009D02*
X144148809Y-30903628D01*
X144148809Y-30903628D02*
X143767857Y-30903628D01*
X145244047Y-30379819D02*
X144767857Y-30379819D01*
X144767857Y-30379819D02*
X144720238Y-30856009D01*
X144720238Y-30856009D02*
X144767857Y-30808390D01*
X144767857Y-30808390D02*
X144863095Y-30760771D01*
X144863095Y-30760771D02*
X145101190Y-30760771D01*
X145101190Y-30760771D02*
X145196428Y-30808390D01*
X145196428Y-30808390D02*
X145244047Y-30856009D01*
X145244047Y-30856009D02*
X145291666Y-30951247D01*
X145291666Y-30951247D02*
X145291666Y-31189342D01*
X145291666Y-31189342D02*
X145244047Y-31284580D01*
X145244047Y-31284580D02*
X145196428Y-31332200D01*
X145196428Y-31332200D02*
X145101190Y-31379819D01*
X145101190Y-31379819D02*
X144863095Y-31379819D01*
X144863095Y-31379819D02*
X144767857Y-31332200D01*
X144767857Y-31332200D02*
X144720238Y-31284580D01*
X131704819Y-34451904D02*
X132514342Y-34451904D01*
X132514342Y-34451904D02*
X132609580Y-34404285D01*
X132609580Y-34404285D02*
X132657200Y-34356666D01*
X132657200Y-34356666D02*
X132704819Y-34261428D01*
X132704819Y-34261428D02*
X132704819Y-34070952D01*
X132704819Y-34070952D02*
X132657200Y-33975714D01*
X132657200Y-33975714D02*
X132609580Y-33928095D01*
X132609580Y-33928095D02*
X132514342Y-33880476D01*
X132514342Y-33880476D02*
X131704819Y-33880476D01*
X131800057Y-33451904D02*
X131752438Y-33404285D01*
X131752438Y-33404285D02*
X131704819Y-33309047D01*
X131704819Y-33309047D02*
X131704819Y-33070952D01*
X131704819Y-33070952D02*
X131752438Y-32975714D01*
X131752438Y-32975714D02*
X131800057Y-32928095D01*
X131800057Y-32928095D02*
X131895295Y-32880476D01*
X131895295Y-32880476D02*
X131990533Y-32880476D01*
X131990533Y-32880476D02*
X132133390Y-32928095D01*
X132133390Y-32928095D02*
X132704819Y-33499523D01*
X132704819Y-33499523D02*
X132704819Y-32880476D01*
X155578095Y-34504819D02*
X156149523Y-34504819D01*
X155863809Y-35504819D02*
X155863809Y-34504819D01*
X156482857Y-35504819D02*
X156482857Y-34504819D01*
X156482857Y-34504819D02*
X156863809Y-34504819D01*
X156863809Y-34504819D02*
X156959047Y-34552438D01*
X156959047Y-34552438D02*
X157006666Y-34600057D01*
X157006666Y-34600057D02*
X157054285Y-34695295D01*
X157054285Y-34695295D02*
X157054285Y-34838152D01*
X157054285Y-34838152D02*
X157006666Y-34933390D01*
X157006666Y-34933390D02*
X156959047Y-34981009D01*
X156959047Y-34981009D02*
X156863809Y-35028628D01*
X156863809Y-35028628D02*
X156482857Y-35028628D01*
X157530476Y-35504819D02*
X157720952Y-35504819D01*
X157720952Y-35504819D02*
X157816190Y-35457200D01*
X157816190Y-35457200D02*
X157863809Y-35409580D01*
X157863809Y-35409580D02*
X157959047Y-35266723D01*
X157959047Y-35266723D02*
X158006666Y-35076247D01*
X158006666Y-35076247D02*
X158006666Y-34695295D01*
X158006666Y-34695295D02*
X157959047Y-34600057D01*
X157959047Y-34600057D02*
X157911428Y-34552438D01*
X157911428Y-34552438D02*
X157816190Y-34504819D01*
X157816190Y-34504819D02*
X157625714Y-34504819D01*
X157625714Y-34504819D02*
X157530476Y-34552438D01*
X157530476Y-34552438D02*
X157482857Y-34600057D01*
X157482857Y-34600057D02*
X157435238Y-34695295D01*
X157435238Y-34695295D02*
X157435238Y-34933390D01*
X157435238Y-34933390D02*
X157482857Y-35028628D01*
X157482857Y-35028628D02*
X157530476Y-35076247D01*
X157530476Y-35076247D02*
X157625714Y-35123866D01*
X157625714Y-35123866D02*
X157816190Y-35123866D01*
X157816190Y-35123866D02*
X157911428Y-35076247D01*
X157911428Y-35076247D02*
X157959047Y-35028628D01*
X157959047Y-35028628D02*
X158006666Y-34933390D01*
X155488095Y-43434819D02*
X156059523Y-43434819D01*
X155773809Y-44434819D02*
X155773809Y-43434819D01*
X156392857Y-44434819D02*
X156392857Y-43434819D01*
X156392857Y-43434819D02*
X156773809Y-43434819D01*
X156773809Y-43434819D02*
X156869047Y-43482438D01*
X156869047Y-43482438D02*
X156916666Y-43530057D01*
X156916666Y-43530057D02*
X156964285Y-43625295D01*
X156964285Y-43625295D02*
X156964285Y-43768152D01*
X156964285Y-43768152D02*
X156916666Y-43863390D01*
X156916666Y-43863390D02*
X156869047Y-43911009D01*
X156869047Y-43911009D02*
X156773809Y-43958628D01*
X156773809Y-43958628D02*
X156392857Y-43958628D01*
X157297619Y-43434819D02*
X157964285Y-43434819D01*
X157964285Y-43434819D02*
X157535714Y-44434819D01*
X131743333Y-36709580D02*
X131695714Y-36757200D01*
X131695714Y-36757200D02*
X131552857Y-36804819D01*
X131552857Y-36804819D02*
X131457619Y-36804819D01*
X131457619Y-36804819D02*
X131314762Y-36757200D01*
X131314762Y-36757200D02*
X131219524Y-36661961D01*
X131219524Y-36661961D02*
X131171905Y-36566723D01*
X131171905Y-36566723D02*
X131124286Y-36376247D01*
X131124286Y-36376247D02*
X131124286Y-36233390D01*
X131124286Y-36233390D02*
X131171905Y-36042914D01*
X131171905Y-36042914D02*
X131219524Y-35947676D01*
X131219524Y-35947676D02*
X131314762Y-35852438D01*
X131314762Y-35852438D02*
X131457619Y-35804819D01*
X131457619Y-35804819D02*
X131552857Y-35804819D01*
X131552857Y-35804819D02*
X131695714Y-35852438D01*
X131695714Y-35852438D02*
X131743333Y-35900057D01*
X132124286Y-35900057D02*
X132171905Y-35852438D01*
X132171905Y-35852438D02*
X132267143Y-35804819D01*
X132267143Y-35804819D02*
X132505238Y-35804819D01*
X132505238Y-35804819D02*
X132600476Y-35852438D01*
X132600476Y-35852438D02*
X132648095Y-35900057D01*
X132648095Y-35900057D02*
X132695714Y-35995295D01*
X132695714Y-35995295D02*
X132695714Y-36090533D01*
X132695714Y-36090533D02*
X132648095Y-36233390D01*
X132648095Y-36233390D02*
X132076667Y-36804819D01*
X132076667Y-36804819D02*
X132695714Y-36804819D01*
X128548095Y-33884819D02*
X128548095Y-34694342D01*
X128548095Y-34694342D02*
X128595714Y-34789580D01*
X128595714Y-34789580D02*
X128643333Y-34837200D01*
X128643333Y-34837200D02*
X128738571Y-34884819D01*
X128738571Y-34884819D02*
X128929047Y-34884819D01*
X128929047Y-34884819D02*
X129024285Y-34837200D01*
X129024285Y-34837200D02*
X129071904Y-34789580D01*
X129071904Y-34789580D02*
X129119523Y-34694342D01*
X129119523Y-34694342D02*
X129119523Y-33884819D01*
X130119523Y-34884819D02*
X129548095Y-34884819D01*
X129833809Y-34884819D02*
X129833809Y-33884819D01*
X129833809Y-33884819D02*
X129738571Y-34027676D01*
X129738571Y-34027676D02*
X129643333Y-34122914D01*
X129643333Y-34122914D02*
X129548095Y-34170533D01*
X136157142Y-47159580D02*
X136109523Y-47207200D01*
X136109523Y-47207200D02*
X135966666Y-47254819D01*
X135966666Y-47254819D02*
X135871428Y-47254819D01*
X135871428Y-47254819D02*
X135728571Y-47207200D01*
X135728571Y-47207200D02*
X135633333Y-47111961D01*
X135633333Y-47111961D02*
X135585714Y-47016723D01*
X135585714Y-47016723D02*
X135538095Y-46826247D01*
X135538095Y-46826247D02*
X135538095Y-46683390D01*
X135538095Y-46683390D02*
X135585714Y-46492914D01*
X135585714Y-46492914D02*
X135633333Y-46397676D01*
X135633333Y-46397676D02*
X135728571Y-46302438D01*
X135728571Y-46302438D02*
X135871428Y-46254819D01*
X135871428Y-46254819D02*
X135966666Y-46254819D01*
X135966666Y-46254819D02*
X136109523Y-46302438D01*
X136109523Y-46302438D02*
X136157142Y-46350057D01*
X137109523Y-47254819D02*
X136538095Y-47254819D01*
X136823809Y-47254819D02*
X136823809Y-46254819D01*
X136823809Y-46254819D02*
X136728571Y-46397676D01*
X136728571Y-46397676D02*
X136633333Y-46492914D01*
X136633333Y-46492914D02*
X136538095Y-46540533D01*
X137728571Y-46254819D02*
X137823809Y-46254819D01*
X137823809Y-46254819D02*
X137919047Y-46302438D01*
X137919047Y-46302438D02*
X137966666Y-46350057D01*
X137966666Y-46350057D02*
X138014285Y-46445295D01*
X138014285Y-46445295D02*
X138061904Y-46635771D01*
X138061904Y-46635771D02*
X138061904Y-46873866D01*
X138061904Y-46873866D02*
X138014285Y-47064342D01*
X138014285Y-47064342D02*
X137966666Y-47159580D01*
X137966666Y-47159580D02*
X137919047Y-47207200D01*
X137919047Y-47207200D02*
X137823809Y-47254819D01*
X137823809Y-47254819D02*
X137728571Y-47254819D01*
X137728571Y-47254819D02*
X137633333Y-47207200D01*
X137633333Y-47207200D02*
X137585714Y-47159580D01*
X137585714Y-47159580D02*
X137538095Y-47064342D01*
X137538095Y-47064342D02*
X137490476Y-46873866D01*
X137490476Y-46873866D02*
X137490476Y-46635771D01*
X137490476Y-46635771D02*
X137538095Y-46445295D01*
X137538095Y-46445295D02*
X137585714Y-46350057D01*
X137585714Y-46350057D02*
X137633333Y-46302438D01*
X137633333Y-46302438D02*
X137728571Y-46254819D01*
X132413333Y-47019580D02*
X132365714Y-47067200D01*
X132365714Y-47067200D02*
X132222857Y-47114819D01*
X132222857Y-47114819D02*
X132127619Y-47114819D01*
X132127619Y-47114819D02*
X131984762Y-47067200D01*
X131984762Y-47067200D02*
X131889524Y-46971961D01*
X131889524Y-46971961D02*
X131841905Y-46876723D01*
X131841905Y-46876723D02*
X131794286Y-46686247D01*
X131794286Y-46686247D02*
X131794286Y-46543390D01*
X131794286Y-46543390D02*
X131841905Y-46352914D01*
X131841905Y-46352914D02*
X131889524Y-46257676D01*
X131889524Y-46257676D02*
X131984762Y-46162438D01*
X131984762Y-46162438D02*
X132127619Y-46114819D01*
X132127619Y-46114819D02*
X132222857Y-46114819D01*
X132222857Y-46114819D02*
X132365714Y-46162438D01*
X132365714Y-46162438D02*
X132413333Y-46210057D01*
X133270476Y-46114819D02*
X133080000Y-46114819D01*
X133080000Y-46114819D02*
X132984762Y-46162438D01*
X132984762Y-46162438D02*
X132937143Y-46210057D01*
X132937143Y-46210057D02*
X132841905Y-46352914D01*
X132841905Y-46352914D02*
X132794286Y-46543390D01*
X132794286Y-46543390D02*
X132794286Y-46924342D01*
X132794286Y-46924342D02*
X132841905Y-47019580D01*
X132841905Y-47019580D02*
X132889524Y-47067200D01*
X132889524Y-47067200D02*
X132984762Y-47114819D01*
X132984762Y-47114819D02*
X133175238Y-47114819D01*
X133175238Y-47114819D02*
X133270476Y-47067200D01*
X133270476Y-47067200D02*
X133318095Y-47019580D01*
X133318095Y-47019580D02*
X133365714Y-46924342D01*
X133365714Y-46924342D02*
X133365714Y-46686247D01*
X133365714Y-46686247D02*
X133318095Y-46591009D01*
X133318095Y-46591009D02*
X133270476Y-46543390D01*
X133270476Y-46543390D02*
X133175238Y-46495771D01*
X133175238Y-46495771D02*
X132984762Y-46495771D01*
X132984762Y-46495771D02*
X132889524Y-46543390D01*
X132889524Y-46543390D02*
X132841905Y-46591009D01*
X132841905Y-46591009D02*
X132794286Y-46686247D01*
X139823333Y-44479580D02*
X139775714Y-44527200D01*
X139775714Y-44527200D02*
X139632857Y-44574819D01*
X139632857Y-44574819D02*
X139537619Y-44574819D01*
X139537619Y-44574819D02*
X139394762Y-44527200D01*
X139394762Y-44527200D02*
X139299524Y-44431961D01*
X139299524Y-44431961D02*
X139251905Y-44336723D01*
X139251905Y-44336723D02*
X139204286Y-44146247D01*
X139204286Y-44146247D02*
X139204286Y-44003390D01*
X139204286Y-44003390D02*
X139251905Y-43812914D01*
X139251905Y-43812914D02*
X139299524Y-43717676D01*
X139299524Y-43717676D02*
X139394762Y-43622438D01*
X139394762Y-43622438D02*
X139537619Y-43574819D01*
X139537619Y-43574819D02*
X139632857Y-43574819D01*
X139632857Y-43574819D02*
X139775714Y-43622438D01*
X139775714Y-43622438D02*
X139823333Y-43670057D01*
X140299524Y-44574819D02*
X140490000Y-44574819D01*
X140490000Y-44574819D02*
X140585238Y-44527200D01*
X140585238Y-44527200D02*
X140632857Y-44479580D01*
X140632857Y-44479580D02*
X140728095Y-44336723D01*
X140728095Y-44336723D02*
X140775714Y-44146247D01*
X140775714Y-44146247D02*
X140775714Y-43765295D01*
X140775714Y-43765295D02*
X140728095Y-43670057D01*
X140728095Y-43670057D02*
X140680476Y-43622438D01*
X140680476Y-43622438D02*
X140585238Y-43574819D01*
X140585238Y-43574819D02*
X140394762Y-43574819D01*
X140394762Y-43574819D02*
X140299524Y-43622438D01*
X140299524Y-43622438D02*
X140251905Y-43670057D01*
X140251905Y-43670057D02*
X140204286Y-43765295D01*
X140204286Y-43765295D02*
X140204286Y-44003390D01*
X140204286Y-44003390D02*
X140251905Y-44098628D01*
X140251905Y-44098628D02*
X140299524Y-44146247D01*
X140299524Y-44146247D02*
X140394762Y-44193866D01*
X140394762Y-44193866D02*
X140585238Y-44193866D01*
X140585238Y-44193866D02*
X140680476Y-44146247D01*
X140680476Y-44146247D02*
X140728095Y-44098628D01*
X140728095Y-44098628D02*
X140775714Y-44003390D01*
X137699999Y-28424819D02*
X137366666Y-27948628D01*
X137128571Y-28424819D02*
X137128571Y-27424819D01*
X137128571Y-27424819D02*
X137509523Y-27424819D01*
X137509523Y-27424819D02*
X137604761Y-27472438D01*
X137604761Y-27472438D02*
X137652380Y-27520057D01*
X137652380Y-27520057D02*
X137699999Y-27615295D01*
X137699999Y-27615295D02*
X137699999Y-27758152D01*
X137699999Y-27758152D02*
X137652380Y-27853390D01*
X137652380Y-27853390D02*
X137604761Y-27901009D01*
X137604761Y-27901009D02*
X137509523Y-27948628D01*
X137509523Y-27948628D02*
X137128571Y-27948628D01*
X137890476Y-28520057D02*
X138652380Y-28520057D01*
X138890476Y-28424819D02*
X138890476Y-27424819D01*
X138890476Y-27805771D02*
X138985714Y-27758152D01*
X138985714Y-27758152D02*
X139176190Y-27758152D01*
X139176190Y-27758152D02*
X139271428Y-27805771D01*
X139271428Y-27805771D02*
X139319047Y-27853390D01*
X139319047Y-27853390D02*
X139366666Y-27948628D01*
X139366666Y-27948628D02*
X139366666Y-28234342D01*
X139366666Y-28234342D02*
X139319047Y-28329580D01*
X139319047Y-28329580D02*
X139271428Y-28377200D01*
X139271428Y-28377200D02*
X139176190Y-28424819D01*
X139176190Y-28424819D02*
X138985714Y-28424819D01*
X138985714Y-28424819D02*
X138890476Y-28377200D01*
X140319047Y-28424819D02*
X139747619Y-28424819D01*
X140033333Y-28424819D02*
X140033333Y-27424819D01*
X140033333Y-27424819D02*
X139938095Y-27567676D01*
X139938095Y-27567676D02*
X139842857Y-27662914D01*
X139842857Y-27662914D02*
X139747619Y-27710533D01*
X143107142Y-44704819D02*
X142773809Y-44228628D01*
X142535714Y-44704819D02*
X142535714Y-43704819D01*
X142535714Y-43704819D02*
X142916666Y-43704819D01*
X142916666Y-43704819D02*
X143011904Y-43752438D01*
X143011904Y-43752438D02*
X143059523Y-43800057D01*
X143059523Y-43800057D02*
X143107142Y-43895295D01*
X143107142Y-43895295D02*
X143107142Y-44038152D01*
X143107142Y-44038152D02*
X143059523Y-44133390D01*
X143059523Y-44133390D02*
X143011904Y-44181009D01*
X143011904Y-44181009D02*
X142916666Y-44228628D01*
X142916666Y-44228628D02*
X142535714Y-44228628D01*
X143297619Y-44800057D02*
X144059523Y-44800057D01*
X144297619Y-44704819D02*
X144297619Y-43704819D01*
X144297619Y-44181009D02*
X144869047Y-44181009D01*
X144869047Y-44704819D02*
X144869047Y-43704819D01*
X145250000Y-44038152D02*
X145488095Y-44704819D01*
X145726190Y-44038152D02*
X145488095Y-44704819D01*
X145488095Y-44704819D02*
X145392857Y-44942914D01*
X145392857Y-44942914D02*
X145345238Y-44990533D01*
X145345238Y-44990533D02*
X145250000Y-45038152D01*
X146059524Y-44657200D02*
X146154762Y-44704819D01*
X146154762Y-44704819D02*
X146345238Y-44704819D01*
X146345238Y-44704819D02*
X146440476Y-44657200D01*
X146440476Y-44657200D02*
X146488095Y-44561961D01*
X146488095Y-44561961D02*
X146488095Y-44514342D01*
X146488095Y-44514342D02*
X146440476Y-44419104D01*
X146440476Y-44419104D02*
X146345238Y-44371485D01*
X146345238Y-44371485D02*
X146202381Y-44371485D01*
X146202381Y-44371485D02*
X146107143Y-44323866D01*
X146107143Y-44323866D02*
X146059524Y-44228628D01*
X146059524Y-44228628D02*
X146059524Y-44181009D01*
X146059524Y-44181009D02*
X146107143Y-44085771D01*
X146107143Y-44085771D02*
X146202381Y-44038152D01*
X146202381Y-44038152D02*
X146345238Y-44038152D01*
X146345238Y-44038152D02*
X146440476Y-44085771D01*
X146773810Y-44038152D02*
X147154762Y-44038152D01*
X146916667Y-43704819D02*
X146916667Y-44561961D01*
X146916667Y-44561961D02*
X146964286Y-44657200D01*
X146964286Y-44657200D02*
X147059524Y-44704819D01*
X147059524Y-44704819D02*
X147154762Y-44704819D01*
X148011905Y-44704819D02*
X147440477Y-44704819D01*
X147726191Y-44704819D02*
X147726191Y-43704819D01*
X147726191Y-43704819D02*
X147630953Y-43847676D01*
X147630953Y-43847676D02*
X147535715Y-43942914D01*
X147535715Y-43942914D02*
X147440477Y-43990533D01*
X144332142Y-34109580D02*
X144284523Y-34157200D01*
X144284523Y-34157200D02*
X144141666Y-34204819D01*
X144141666Y-34204819D02*
X144046428Y-34204819D01*
X144046428Y-34204819D02*
X143903571Y-34157200D01*
X143903571Y-34157200D02*
X143808333Y-34061961D01*
X143808333Y-34061961D02*
X143760714Y-33966723D01*
X143760714Y-33966723D02*
X143713095Y-33776247D01*
X143713095Y-33776247D02*
X143713095Y-33633390D01*
X143713095Y-33633390D02*
X143760714Y-33442914D01*
X143760714Y-33442914D02*
X143808333Y-33347676D01*
X143808333Y-33347676D02*
X143903571Y-33252438D01*
X143903571Y-33252438D02*
X144046428Y-33204819D01*
X144046428Y-33204819D02*
X144141666Y-33204819D01*
X144141666Y-33204819D02*
X144284523Y-33252438D01*
X144284523Y-33252438D02*
X144332142Y-33300057D01*
X145284523Y-34204819D02*
X144713095Y-34204819D01*
X144998809Y-34204819D02*
X144998809Y-33204819D01*
X144998809Y-33204819D02*
X144903571Y-33347676D01*
X144903571Y-33347676D02*
X144808333Y-33442914D01*
X144808333Y-33442914D02*
X144713095Y-33490533D01*
X145665476Y-33300057D02*
X145713095Y-33252438D01*
X145713095Y-33252438D02*
X145808333Y-33204819D01*
X145808333Y-33204819D02*
X146046428Y-33204819D01*
X146046428Y-33204819D02*
X146141666Y-33252438D01*
X146141666Y-33252438D02*
X146189285Y-33300057D01*
X146189285Y-33300057D02*
X146236904Y-33395295D01*
X146236904Y-33395295D02*
X146236904Y-33490533D01*
X146236904Y-33490533D02*
X146189285Y-33633390D01*
X146189285Y-33633390D02*
X145617857Y-34204819D01*
X145617857Y-34204819D02*
X146236904Y-34204819D01*
X140679819Y-51126190D02*
X141489342Y-51126190D01*
X141489342Y-51126190D02*
X141584580Y-51078571D01*
X141584580Y-51078571D02*
X141632200Y-51030952D01*
X141632200Y-51030952D02*
X141679819Y-50935714D01*
X141679819Y-50935714D02*
X141679819Y-50745238D01*
X141679819Y-50745238D02*
X141632200Y-50650000D01*
X141632200Y-50650000D02*
X141584580Y-50602381D01*
X141584580Y-50602381D02*
X141489342Y-50554762D01*
X141489342Y-50554762D02*
X140679819Y-50554762D01*
X141775057Y-50316667D02*
X141775057Y-49554762D01*
X141584580Y-48745238D02*
X141632200Y-48792857D01*
X141632200Y-48792857D02*
X141679819Y-48935714D01*
X141679819Y-48935714D02*
X141679819Y-49030952D01*
X141679819Y-49030952D02*
X141632200Y-49173809D01*
X141632200Y-49173809D02*
X141536961Y-49269047D01*
X141536961Y-49269047D02*
X141441723Y-49316666D01*
X141441723Y-49316666D02*
X141251247Y-49364285D01*
X141251247Y-49364285D02*
X141108390Y-49364285D01*
X141108390Y-49364285D02*
X140917914Y-49316666D01*
X140917914Y-49316666D02*
X140822676Y-49269047D01*
X140822676Y-49269047D02*
X140727438Y-49173809D01*
X140727438Y-49173809D02*
X140679819Y-49030952D01*
X140679819Y-49030952D02*
X140679819Y-48935714D01*
X140679819Y-48935714D02*
X140727438Y-48792857D01*
X140727438Y-48792857D02*
X140775057Y-48745238D01*
X141679819Y-48173809D02*
X141632200Y-48269047D01*
X141632200Y-48269047D02*
X141584580Y-48316666D01*
X141584580Y-48316666D02*
X141489342Y-48364285D01*
X141489342Y-48364285D02*
X141203628Y-48364285D01*
X141203628Y-48364285D02*
X141108390Y-48316666D01*
X141108390Y-48316666D02*
X141060771Y-48269047D01*
X141060771Y-48269047D02*
X141013152Y-48173809D01*
X141013152Y-48173809D02*
X141013152Y-48030952D01*
X141013152Y-48030952D02*
X141060771Y-47935714D01*
X141060771Y-47935714D02*
X141108390Y-47888095D01*
X141108390Y-47888095D02*
X141203628Y-47840476D01*
X141203628Y-47840476D02*
X141489342Y-47840476D01*
X141489342Y-47840476D02*
X141584580Y-47888095D01*
X141584580Y-47888095D02*
X141632200Y-47935714D01*
X141632200Y-47935714D02*
X141679819Y-48030952D01*
X141679819Y-48030952D02*
X141679819Y-48173809D01*
X141679819Y-47411904D02*
X141013152Y-47411904D01*
X141108390Y-47411904D02*
X141060771Y-47364285D01*
X141060771Y-47364285D02*
X141013152Y-47269047D01*
X141013152Y-47269047D02*
X141013152Y-47126190D01*
X141013152Y-47126190D02*
X141060771Y-47030952D01*
X141060771Y-47030952D02*
X141156009Y-46983333D01*
X141156009Y-46983333D02*
X141679819Y-46983333D01*
X141156009Y-46983333D02*
X141060771Y-46935714D01*
X141060771Y-46935714D02*
X141013152Y-46840476D01*
X141013152Y-46840476D02*
X141013152Y-46697619D01*
X141013152Y-46697619D02*
X141060771Y-46602380D01*
X141060771Y-46602380D02*
X141156009Y-46554761D01*
X141156009Y-46554761D02*
X141679819Y-46554761D01*
X141013152Y-46078571D02*
X142013152Y-46078571D01*
X141060771Y-46078571D02*
X141013152Y-45983333D01*
X141013152Y-45983333D02*
X141013152Y-45792857D01*
X141013152Y-45792857D02*
X141060771Y-45697619D01*
X141060771Y-45697619D02*
X141108390Y-45650000D01*
X141108390Y-45650000D02*
X141203628Y-45602381D01*
X141203628Y-45602381D02*
X141489342Y-45602381D01*
X141489342Y-45602381D02*
X141584580Y-45650000D01*
X141584580Y-45650000D02*
X141632200Y-45697619D01*
X141632200Y-45697619D02*
X141679819Y-45792857D01*
X141679819Y-45792857D02*
X141679819Y-45983333D01*
X141679819Y-45983333D02*
X141632200Y-46078571D01*
X141679819Y-44745238D02*
X141156009Y-44745238D01*
X141156009Y-44745238D02*
X141060771Y-44792857D01*
X141060771Y-44792857D02*
X141013152Y-44888095D01*
X141013152Y-44888095D02*
X141013152Y-45078571D01*
X141013152Y-45078571D02*
X141060771Y-45173809D01*
X141632200Y-44745238D02*
X141679819Y-44840476D01*
X141679819Y-44840476D02*
X141679819Y-45078571D01*
X141679819Y-45078571D02*
X141632200Y-45173809D01*
X141632200Y-45173809D02*
X141536961Y-45221428D01*
X141536961Y-45221428D02*
X141441723Y-45221428D01*
X141441723Y-45221428D02*
X141346485Y-45173809D01*
X141346485Y-45173809D02*
X141298866Y-45078571D01*
X141298866Y-45078571D02*
X141298866Y-44840476D01*
X141298866Y-44840476D02*
X141251247Y-44745238D01*
X141679819Y-44269047D02*
X141013152Y-44269047D01*
X141203628Y-44269047D02*
X141108390Y-44221428D01*
X141108390Y-44221428D02*
X141060771Y-44173809D01*
X141060771Y-44173809D02*
X141013152Y-44078571D01*
X141013152Y-44078571D02*
X141013152Y-43983333D01*
X141679819Y-43221428D02*
X141156009Y-43221428D01*
X141156009Y-43221428D02*
X141060771Y-43269047D01*
X141060771Y-43269047D02*
X141013152Y-43364285D01*
X141013152Y-43364285D02*
X141013152Y-43554761D01*
X141013152Y-43554761D02*
X141060771Y-43649999D01*
X141632200Y-43221428D02*
X141679819Y-43316666D01*
X141679819Y-43316666D02*
X141679819Y-43554761D01*
X141679819Y-43554761D02*
X141632200Y-43649999D01*
X141632200Y-43649999D02*
X141536961Y-43697618D01*
X141536961Y-43697618D02*
X141441723Y-43697618D01*
X141441723Y-43697618D02*
X141346485Y-43649999D01*
X141346485Y-43649999D02*
X141298866Y-43554761D01*
X141298866Y-43554761D02*
X141298866Y-43316666D01*
X141298866Y-43316666D02*
X141251247Y-43221428D01*
X141013152Y-42888094D02*
X141013152Y-42507142D01*
X140679819Y-42745237D02*
X141536961Y-42745237D01*
X141536961Y-42745237D02*
X141632200Y-42697618D01*
X141632200Y-42697618D02*
X141679819Y-42602380D01*
X141679819Y-42602380D02*
X141679819Y-42507142D01*
X141679819Y-42030951D02*
X141632200Y-42126189D01*
X141632200Y-42126189D02*
X141584580Y-42173808D01*
X141584580Y-42173808D02*
X141489342Y-42221427D01*
X141489342Y-42221427D02*
X141203628Y-42221427D01*
X141203628Y-42221427D02*
X141108390Y-42173808D01*
X141108390Y-42173808D02*
X141060771Y-42126189D01*
X141060771Y-42126189D02*
X141013152Y-42030951D01*
X141013152Y-42030951D02*
X141013152Y-41888094D01*
X141013152Y-41888094D02*
X141060771Y-41792856D01*
X141060771Y-41792856D02*
X141108390Y-41745237D01*
X141108390Y-41745237D02*
X141203628Y-41697618D01*
X141203628Y-41697618D02*
X141489342Y-41697618D01*
X141489342Y-41697618D02*
X141584580Y-41745237D01*
X141584580Y-41745237D02*
X141632200Y-41792856D01*
X141632200Y-41792856D02*
X141679819Y-41888094D01*
X141679819Y-41888094D02*
X141679819Y-42030951D01*
X141679819Y-41269046D02*
X141013152Y-41269046D01*
X141203628Y-41269046D02*
X141108390Y-41221427D01*
X141108390Y-41221427D02*
X141060771Y-41173808D01*
X141060771Y-41173808D02*
X141013152Y-41078570D01*
X141013152Y-41078570D02*
X141013152Y-40983332D01*
X141679819Y-40126189D02*
X141679819Y-40697617D01*
X141679819Y-40411903D02*
X140679819Y-40411903D01*
X140679819Y-40411903D02*
X140822676Y-40507141D01*
X140822676Y-40507141D02*
X140917914Y-40602379D01*
X140917914Y-40602379D02*
X140965533Y-40697617D01*
X126713095Y-40754819D02*
X127284523Y-40754819D01*
X126998809Y-41754819D02*
X126998809Y-40754819D01*
X127617857Y-41754819D02*
X127617857Y-40754819D01*
X127617857Y-40754819D02*
X127998809Y-40754819D01*
X127998809Y-40754819D02*
X128094047Y-40802438D01*
X128094047Y-40802438D02*
X128141666Y-40850057D01*
X128141666Y-40850057D02*
X128189285Y-40945295D01*
X128189285Y-40945295D02*
X128189285Y-41088152D01*
X128189285Y-41088152D02*
X128141666Y-41183390D01*
X128141666Y-41183390D02*
X128094047Y-41231009D01*
X128094047Y-41231009D02*
X127998809Y-41278628D01*
X127998809Y-41278628D02*
X127617857Y-41278628D01*
X128570238Y-40850057D02*
X128617857Y-40802438D01*
X128617857Y-40802438D02*
X128713095Y-40754819D01*
X128713095Y-40754819D02*
X128951190Y-40754819D01*
X128951190Y-40754819D02*
X129046428Y-40802438D01*
X129046428Y-40802438D02*
X129094047Y-40850057D01*
X129094047Y-40850057D02*
X129141666Y-40945295D01*
X129141666Y-40945295D02*
X129141666Y-41040533D01*
X129141666Y-41040533D02*
X129094047Y-41183390D01*
X129094047Y-41183390D02*
X128522619Y-41754819D01*
X128522619Y-41754819D02*
X129141666Y-41754819D01*
X124738095Y-32006819D02*
X125309523Y-32006819D01*
X125023809Y-33006819D02*
X125023809Y-32006819D01*
X125642857Y-33006819D02*
X125642857Y-32006819D01*
X125642857Y-32006819D02*
X126023809Y-32006819D01*
X126023809Y-32006819D02*
X126119047Y-32054438D01*
X126119047Y-32054438D02*
X126166666Y-32102057D01*
X126166666Y-32102057D02*
X126214285Y-32197295D01*
X126214285Y-32197295D02*
X126214285Y-32340152D01*
X126214285Y-32340152D02*
X126166666Y-32435390D01*
X126166666Y-32435390D02*
X126119047Y-32483009D01*
X126119047Y-32483009D02*
X126023809Y-32530628D01*
X126023809Y-32530628D02*
X125642857Y-32530628D01*
X127166666Y-33006819D02*
X126595238Y-33006819D01*
X126880952Y-33006819D02*
X126880952Y-32006819D01*
X126880952Y-32006819D02*
X126785714Y-32149676D01*
X126785714Y-32149676D02*
X126690476Y-32244914D01*
X126690476Y-32244914D02*
X126595238Y-32292533D01*
X129703333Y-45419580D02*
X129655714Y-45467200D01*
X129655714Y-45467200D02*
X129512857Y-45514819D01*
X129512857Y-45514819D02*
X129417619Y-45514819D01*
X129417619Y-45514819D02*
X129274762Y-45467200D01*
X129274762Y-45467200D02*
X129179524Y-45371961D01*
X129179524Y-45371961D02*
X129131905Y-45276723D01*
X129131905Y-45276723D02*
X129084286Y-45086247D01*
X129084286Y-45086247D02*
X129084286Y-44943390D01*
X129084286Y-44943390D02*
X129131905Y-44752914D01*
X129131905Y-44752914D02*
X129179524Y-44657676D01*
X129179524Y-44657676D02*
X129274762Y-44562438D01*
X129274762Y-44562438D02*
X129417619Y-44514819D01*
X129417619Y-44514819D02*
X129512857Y-44514819D01*
X129512857Y-44514819D02*
X129655714Y-44562438D01*
X129655714Y-44562438D02*
X129703333Y-44610057D01*
X130560476Y-44848152D02*
X130560476Y-45514819D01*
X130322381Y-44467200D02*
X130084286Y-45181485D01*
X130084286Y-45181485D02*
X130703333Y-45181485D01*
X142833333Y-52454819D02*
X142500000Y-51978628D01*
X142261905Y-52454819D02*
X142261905Y-51454819D01*
X142261905Y-51454819D02*
X142642857Y-51454819D01*
X142642857Y-51454819D02*
X142738095Y-51502438D01*
X142738095Y-51502438D02*
X142785714Y-51550057D01*
X142785714Y-51550057D02*
X142833333Y-51645295D01*
X142833333Y-51645295D02*
X142833333Y-51788152D01*
X142833333Y-51788152D02*
X142785714Y-51883390D01*
X142785714Y-51883390D02*
X142738095Y-51931009D01*
X142738095Y-51931009D02*
X142642857Y-51978628D01*
X142642857Y-51978628D02*
X142261905Y-51978628D01*
X143690476Y-51454819D02*
X143500000Y-51454819D01*
X143500000Y-51454819D02*
X143404762Y-51502438D01*
X143404762Y-51502438D02*
X143357143Y-51550057D01*
X143357143Y-51550057D02*
X143261905Y-51692914D01*
X143261905Y-51692914D02*
X143214286Y-51883390D01*
X143214286Y-51883390D02*
X143214286Y-52264342D01*
X143214286Y-52264342D02*
X143261905Y-52359580D01*
X143261905Y-52359580D02*
X143309524Y-52407200D01*
X143309524Y-52407200D02*
X143404762Y-52454819D01*
X143404762Y-52454819D02*
X143595238Y-52454819D01*
X143595238Y-52454819D02*
X143690476Y-52407200D01*
X143690476Y-52407200D02*
X143738095Y-52359580D01*
X143738095Y-52359580D02*
X143785714Y-52264342D01*
X143785714Y-52264342D02*
X143785714Y-52026247D01*
X143785714Y-52026247D02*
X143738095Y-51931009D01*
X143738095Y-51931009D02*
X143690476Y-51883390D01*
X143690476Y-51883390D02*
X143595238Y-51835771D01*
X143595238Y-51835771D02*
X143404762Y-51835771D01*
X143404762Y-51835771D02*
X143309524Y-51883390D01*
X143309524Y-51883390D02*
X143261905Y-51931009D01*
X143261905Y-51931009D02*
X143214286Y-52026247D01*
X134523333Y-48739580D02*
X134475714Y-48787200D01*
X134475714Y-48787200D02*
X134332857Y-48834819D01*
X134332857Y-48834819D02*
X134237619Y-48834819D01*
X134237619Y-48834819D02*
X134094762Y-48787200D01*
X134094762Y-48787200D02*
X133999524Y-48691961D01*
X133999524Y-48691961D02*
X133951905Y-48596723D01*
X133951905Y-48596723D02*
X133904286Y-48406247D01*
X133904286Y-48406247D02*
X133904286Y-48263390D01*
X133904286Y-48263390D02*
X133951905Y-48072914D01*
X133951905Y-48072914D02*
X133999524Y-47977676D01*
X133999524Y-47977676D02*
X134094762Y-47882438D01*
X134094762Y-47882438D02*
X134237619Y-47834819D01*
X134237619Y-47834819D02*
X134332857Y-47834819D01*
X134332857Y-47834819D02*
X134475714Y-47882438D01*
X134475714Y-47882438D02*
X134523333Y-47930057D01*
X134856667Y-47834819D02*
X135523333Y-47834819D01*
X135523333Y-47834819D02*
X135094762Y-48834819D01*
X142459524Y-46344819D02*
X142459524Y-45344819D01*
X142459524Y-45344819D02*
X142697619Y-45344819D01*
X142697619Y-45344819D02*
X142840476Y-45392438D01*
X142840476Y-45392438D02*
X142935714Y-45487676D01*
X142935714Y-45487676D02*
X142983333Y-45582914D01*
X142983333Y-45582914D02*
X143030952Y-45773390D01*
X143030952Y-45773390D02*
X143030952Y-45916247D01*
X143030952Y-45916247D02*
X142983333Y-46106723D01*
X142983333Y-46106723D02*
X142935714Y-46201961D01*
X142935714Y-46201961D02*
X142840476Y-46297200D01*
X142840476Y-46297200D02*
X142697619Y-46344819D01*
X142697619Y-46344819D02*
X142459524Y-46344819D01*
X143221429Y-46440057D02*
X143983333Y-46440057D01*
X144697619Y-46344819D02*
X144221429Y-46344819D01*
X144221429Y-46344819D02*
X144221429Y-45344819D01*
X145030953Y-46344819D02*
X145030953Y-45678152D01*
X145030953Y-45344819D02*
X144983334Y-45392438D01*
X144983334Y-45392438D02*
X145030953Y-45440057D01*
X145030953Y-45440057D02*
X145078572Y-45392438D01*
X145078572Y-45392438D02*
X145030953Y-45344819D01*
X145030953Y-45344819D02*
X145030953Y-45440057D01*
X145364286Y-45678152D02*
X145745238Y-45678152D01*
X145507143Y-46344819D02*
X145507143Y-45487676D01*
X145507143Y-45487676D02*
X145554762Y-45392438D01*
X145554762Y-45392438D02*
X145650000Y-45344819D01*
X145650000Y-45344819D02*
X145745238Y-45344819D01*
X146459524Y-46297200D02*
X146364286Y-46344819D01*
X146364286Y-46344819D02*
X146173810Y-46344819D01*
X146173810Y-46344819D02*
X146078572Y-46297200D01*
X146078572Y-46297200D02*
X146030953Y-46201961D01*
X146030953Y-46201961D02*
X146030953Y-45821009D01*
X146030953Y-45821009D02*
X146078572Y-45725771D01*
X146078572Y-45725771D02*
X146173810Y-45678152D01*
X146173810Y-45678152D02*
X146364286Y-45678152D01*
X146364286Y-45678152D02*
X146459524Y-45725771D01*
X146459524Y-45725771D02*
X146507143Y-45821009D01*
X146507143Y-45821009D02*
X146507143Y-45916247D01*
X146507143Y-45916247D02*
X146030953Y-46011485D01*
X146840477Y-45344819D02*
X147459524Y-45344819D01*
X147459524Y-45344819D02*
X147126191Y-45725771D01*
X147126191Y-45725771D02*
X147269048Y-45725771D01*
X147269048Y-45725771D02*
X147364286Y-45773390D01*
X147364286Y-45773390D02*
X147411905Y-45821009D01*
X147411905Y-45821009D02*
X147459524Y-45916247D01*
X147459524Y-45916247D02*
X147459524Y-46154342D01*
X147459524Y-46154342D02*
X147411905Y-46249580D01*
X147411905Y-46249580D02*
X147364286Y-46297200D01*
X147364286Y-46297200D02*
X147269048Y-46344819D01*
X147269048Y-46344819D02*
X146983334Y-46344819D01*
X146983334Y-46344819D02*
X146888096Y-46297200D01*
X146888096Y-46297200D02*
X146840477Y-46249580D01*
X147888096Y-46249580D02*
X147935715Y-46297200D01*
X147935715Y-46297200D02*
X147888096Y-46344819D01*
X147888096Y-46344819D02*
X147840477Y-46297200D01*
X147840477Y-46297200D02*
X147888096Y-46249580D01*
X147888096Y-46249580D02*
X147888096Y-46344819D01*
X148269048Y-45344819D02*
X148888095Y-45344819D01*
X148888095Y-45344819D02*
X148554762Y-45725771D01*
X148554762Y-45725771D02*
X148697619Y-45725771D01*
X148697619Y-45725771D02*
X148792857Y-45773390D01*
X148792857Y-45773390D02*
X148840476Y-45821009D01*
X148840476Y-45821009D02*
X148888095Y-45916247D01*
X148888095Y-45916247D02*
X148888095Y-46154342D01*
X148888095Y-46154342D02*
X148840476Y-46249580D01*
X148840476Y-46249580D02*
X148792857Y-46297200D01*
X148792857Y-46297200D02*
X148697619Y-46344819D01*
X148697619Y-46344819D02*
X148411905Y-46344819D01*
X148411905Y-46344819D02*
X148316667Y-46297200D01*
X148316667Y-46297200D02*
X148269048Y-46249580D01*
X153994819Y-33923333D02*
X154709104Y-33923333D01*
X154709104Y-33923333D02*
X154851961Y-33970952D01*
X154851961Y-33970952D02*
X154947200Y-34066190D01*
X154947200Y-34066190D02*
X154994819Y-34209047D01*
X154994819Y-34209047D02*
X154994819Y-34304285D01*
X154994819Y-32923333D02*
X154994819Y-33494761D01*
X154994819Y-33209047D02*
X153994819Y-33209047D01*
X153994819Y-33209047D02*
X154137676Y-33304285D01*
X154137676Y-33304285D02*
X154232914Y-33399523D01*
X154232914Y-33399523D02*
X154280533Y-33494761D01*
X141299999Y-28424819D02*
X140966666Y-27948628D01*
X140728571Y-28424819D02*
X140728571Y-27424819D01*
X140728571Y-27424819D02*
X141109523Y-27424819D01*
X141109523Y-27424819D02*
X141204761Y-27472438D01*
X141204761Y-27472438D02*
X141252380Y-27520057D01*
X141252380Y-27520057D02*
X141299999Y-27615295D01*
X141299999Y-27615295D02*
X141299999Y-27758152D01*
X141299999Y-27758152D02*
X141252380Y-27853390D01*
X141252380Y-27853390D02*
X141204761Y-27901009D01*
X141204761Y-27901009D02*
X141109523Y-27948628D01*
X141109523Y-27948628D02*
X140728571Y-27948628D01*
X141490476Y-28520057D02*
X142252380Y-28520057D01*
X142919047Y-28424819D02*
X142919047Y-27901009D01*
X142919047Y-27901009D02*
X142871428Y-27805771D01*
X142871428Y-27805771D02*
X142776190Y-27758152D01*
X142776190Y-27758152D02*
X142585714Y-27758152D01*
X142585714Y-27758152D02*
X142490476Y-27805771D01*
X142919047Y-28377200D02*
X142823809Y-28424819D01*
X142823809Y-28424819D02*
X142585714Y-28424819D01*
X142585714Y-28424819D02*
X142490476Y-28377200D01*
X142490476Y-28377200D02*
X142442857Y-28281961D01*
X142442857Y-28281961D02*
X142442857Y-28186723D01*
X142442857Y-28186723D02*
X142490476Y-28091485D01*
X142490476Y-28091485D02*
X142585714Y-28043866D01*
X142585714Y-28043866D02*
X142823809Y-28043866D01*
X142823809Y-28043866D02*
X142919047Y-27996247D01*
X143919047Y-28424819D02*
X143347619Y-28424819D01*
X143633333Y-28424819D02*
X143633333Y-27424819D01*
X143633333Y-27424819D02*
X143538095Y-27567676D01*
X143538095Y-27567676D02*
X143442857Y-27662914D01*
X143442857Y-27662914D02*
X143347619Y-27710533D01*
X146547142Y-40679580D02*
X146499523Y-40727200D01*
X146499523Y-40727200D02*
X146356666Y-40774819D01*
X146356666Y-40774819D02*
X146261428Y-40774819D01*
X146261428Y-40774819D02*
X146118571Y-40727200D01*
X146118571Y-40727200D02*
X146023333Y-40631961D01*
X146023333Y-40631961D02*
X145975714Y-40536723D01*
X145975714Y-40536723D02*
X145928095Y-40346247D01*
X145928095Y-40346247D02*
X145928095Y-40203390D01*
X145928095Y-40203390D02*
X145975714Y-40012914D01*
X145975714Y-40012914D02*
X146023333Y-39917676D01*
X146023333Y-39917676D02*
X146118571Y-39822438D01*
X146118571Y-39822438D02*
X146261428Y-39774819D01*
X146261428Y-39774819D02*
X146356666Y-39774819D01*
X146356666Y-39774819D02*
X146499523Y-39822438D01*
X146499523Y-39822438D02*
X146547142Y-39870057D01*
X147499523Y-40774819D02*
X146928095Y-40774819D01*
X147213809Y-40774819D02*
X147213809Y-39774819D01*
X147213809Y-39774819D02*
X147118571Y-39917676D01*
X147118571Y-39917676D02*
X147023333Y-40012914D01*
X147023333Y-40012914D02*
X146928095Y-40060533D01*
X148356666Y-40108152D02*
X148356666Y-40774819D01*
X148118571Y-39727200D02*
X147880476Y-40441485D01*
X147880476Y-40441485D02*
X148499523Y-40441485D01*
X144417618Y-39254819D02*
X144084285Y-38778628D01*
X143846190Y-39254819D02*
X143846190Y-38254819D01*
X143846190Y-38254819D02*
X144227142Y-38254819D01*
X144227142Y-38254819D02*
X144322380Y-38302438D01*
X144322380Y-38302438D02*
X144369999Y-38350057D01*
X144369999Y-38350057D02*
X144417618Y-38445295D01*
X144417618Y-38445295D02*
X144417618Y-38588152D01*
X144417618Y-38588152D02*
X144369999Y-38683390D01*
X144369999Y-38683390D02*
X144322380Y-38731009D01*
X144322380Y-38731009D02*
X144227142Y-38778628D01*
X144227142Y-38778628D02*
X143846190Y-38778628D01*
X144608095Y-39350057D02*
X145369999Y-39350057D01*
X145560476Y-39207200D02*
X145655714Y-39254819D01*
X145655714Y-39254819D02*
X145846190Y-39254819D01*
X145846190Y-39254819D02*
X145941428Y-39207200D01*
X145941428Y-39207200D02*
X145989047Y-39111961D01*
X145989047Y-39111961D02*
X145989047Y-39064342D01*
X145989047Y-39064342D02*
X145941428Y-38969104D01*
X145941428Y-38969104D02*
X145846190Y-38921485D01*
X145846190Y-38921485D02*
X145703333Y-38921485D01*
X145703333Y-38921485D02*
X145608095Y-38873866D01*
X145608095Y-38873866D02*
X145560476Y-38778628D01*
X145560476Y-38778628D02*
X145560476Y-38731009D01*
X145560476Y-38731009D02*
X145608095Y-38635771D01*
X145608095Y-38635771D02*
X145703333Y-38588152D01*
X145703333Y-38588152D02*
X145846190Y-38588152D01*
X145846190Y-38588152D02*
X145941428Y-38635771D01*
X146941428Y-39254819D02*
X146370000Y-39254819D01*
X146655714Y-39254819D02*
X146655714Y-38254819D01*
X146655714Y-38254819D02*
X146560476Y-38397676D01*
X146560476Y-38397676D02*
X146465238Y-38492914D01*
X146465238Y-38492914D02*
X146370000Y-38540533D01*
X136714819Y-44186666D02*
X136238628Y-44519999D01*
X136714819Y-44758094D02*
X135714819Y-44758094D01*
X135714819Y-44758094D02*
X135714819Y-44377142D01*
X135714819Y-44377142D02*
X135762438Y-44281904D01*
X135762438Y-44281904D02*
X135810057Y-44234285D01*
X135810057Y-44234285D02*
X135905295Y-44186666D01*
X135905295Y-44186666D02*
X136048152Y-44186666D01*
X136048152Y-44186666D02*
X136143390Y-44234285D01*
X136143390Y-44234285D02*
X136191009Y-44281904D01*
X136191009Y-44281904D02*
X136238628Y-44377142D01*
X136238628Y-44377142D02*
X136238628Y-44758094D01*
X136714819Y-43234285D02*
X136714819Y-43805713D01*
X136714819Y-43519999D02*
X135714819Y-43519999D01*
X135714819Y-43519999D02*
X135857676Y-43615237D01*
X135857676Y-43615237D02*
X135952914Y-43710475D01*
X135952914Y-43710475D02*
X136000533Y-43805713D01*
X138157142Y-31259580D02*
X138109523Y-31307200D01*
X138109523Y-31307200D02*
X137966666Y-31354819D01*
X137966666Y-31354819D02*
X137871428Y-31354819D01*
X137871428Y-31354819D02*
X137728571Y-31307200D01*
X137728571Y-31307200D02*
X137633333Y-31211961D01*
X137633333Y-31211961D02*
X137585714Y-31116723D01*
X137585714Y-31116723D02*
X137538095Y-30926247D01*
X137538095Y-30926247D02*
X137538095Y-30783390D01*
X137538095Y-30783390D02*
X137585714Y-30592914D01*
X137585714Y-30592914D02*
X137633333Y-30497676D01*
X137633333Y-30497676D02*
X137728571Y-30402438D01*
X137728571Y-30402438D02*
X137871428Y-30354819D01*
X137871428Y-30354819D02*
X137966666Y-30354819D01*
X137966666Y-30354819D02*
X138109523Y-30402438D01*
X138109523Y-30402438D02*
X138157142Y-30450057D01*
X139109523Y-31354819D02*
X138538095Y-31354819D01*
X138823809Y-31354819D02*
X138823809Y-30354819D01*
X138823809Y-30354819D02*
X138728571Y-30497676D01*
X138728571Y-30497676D02*
X138633333Y-30592914D01*
X138633333Y-30592914D02*
X138538095Y-30640533D01*
X139442857Y-30354819D02*
X140061904Y-30354819D01*
X140061904Y-30354819D02*
X139728571Y-30735771D01*
X139728571Y-30735771D02*
X139871428Y-30735771D01*
X139871428Y-30735771D02*
X139966666Y-30783390D01*
X139966666Y-30783390D02*
X140014285Y-30831009D01*
X140014285Y-30831009D02*
X140061904Y-30926247D01*
X140061904Y-30926247D02*
X140061904Y-31164342D01*
X140061904Y-31164342D02*
X140014285Y-31259580D01*
X140014285Y-31259580D02*
X139966666Y-31307200D01*
X139966666Y-31307200D02*
X139871428Y-31354819D01*
X139871428Y-31354819D02*
X139585714Y-31354819D01*
X139585714Y-31354819D02*
X139490476Y-31307200D01*
X139490476Y-31307200D02*
X139442857Y-31259580D01*
X155408095Y-37604819D02*
X155979523Y-37604819D01*
X155693809Y-38604819D02*
X155693809Y-37604819D01*
X156312857Y-38604819D02*
X156312857Y-37604819D01*
X156312857Y-37604819D02*
X156693809Y-37604819D01*
X156693809Y-37604819D02*
X156789047Y-37652438D01*
X156789047Y-37652438D02*
X156836666Y-37700057D01*
X156836666Y-37700057D02*
X156884285Y-37795295D01*
X156884285Y-37795295D02*
X156884285Y-37938152D01*
X156884285Y-37938152D02*
X156836666Y-38033390D01*
X156836666Y-38033390D02*
X156789047Y-38081009D01*
X156789047Y-38081009D02*
X156693809Y-38128628D01*
X156693809Y-38128628D02*
X156312857Y-38128628D01*
X157455714Y-38033390D02*
X157360476Y-37985771D01*
X157360476Y-37985771D02*
X157312857Y-37938152D01*
X157312857Y-37938152D02*
X157265238Y-37842914D01*
X157265238Y-37842914D02*
X157265238Y-37795295D01*
X157265238Y-37795295D02*
X157312857Y-37700057D01*
X157312857Y-37700057D02*
X157360476Y-37652438D01*
X157360476Y-37652438D02*
X157455714Y-37604819D01*
X157455714Y-37604819D02*
X157646190Y-37604819D01*
X157646190Y-37604819D02*
X157741428Y-37652438D01*
X157741428Y-37652438D02*
X157789047Y-37700057D01*
X157789047Y-37700057D02*
X157836666Y-37795295D01*
X157836666Y-37795295D02*
X157836666Y-37842914D01*
X157836666Y-37842914D02*
X157789047Y-37938152D01*
X157789047Y-37938152D02*
X157741428Y-37985771D01*
X157741428Y-37985771D02*
X157646190Y-38033390D01*
X157646190Y-38033390D02*
X157455714Y-38033390D01*
X157455714Y-38033390D02*
X157360476Y-38081009D01*
X157360476Y-38081009D02*
X157312857Y-38128628D01*
X157312857Y-38128628D02*
X157265238Y-38223866D01*
X157265238Y-38223866D02*
X157265238Y-38414342D01*
X157265238Y-38414342D02*
X157312857Y-38509580D01*
X157312857Y-38509580D02*
X157360476Y-38557200D01*
X157360476Y-38557200D02*
X157455714Y-38604819D01*
X157455714Y-38604819D02*
X157646190Y-38604819D01*
X157646190Y-38604819D02*
X157741428Y-38557200D01*
X157741428Y-38557200D02*
X157789047Y-38509580D01*
X157789047Y-38509580D02*
X157836666Y-38414342D01*
X157836666Y-38414342D02*
X157836666Y-38223866D01*
X157836666Y-38223866D02*
X157789047Y-38128628D01*
X157789047Y-38128628D02*
X157741428Y-38081009D01*
X157741428Y-38081009D02*
X157646190Y-38033390D01*
X137815180Y-41533333D02*
X137815180Y-41057143D01*
X137815180Y-41057143D02*
X138815180Y-41057143D01*
X138815180Y-41771429D02*
X138815180Y-42390476D01*
X138815180Y-42390476D02*
X138434228Y-42057143D01*
X138434228Y-42057143D02*
X138434228Y-42200000D01*
X138434228Y-42200000D02*
X138386609Y-42295238D01*
X138386609Y-42295238D02*
X138338990Y-42342857D01*
X138338990Y-42342857D02*
X138243752Y-42390476D01*
X138243752Y-42390476D02*
X138005657Y-42390476D01*
X138005657Y-42390476D02*
X137910419Y-42342857D01*
X137910419Y-42342857D02*
X137862800Y-42295238D01*
X137862800Y-42295238D02*
X137815180Y-42200000D01*
X137815180Y-42200000D02*
X137815180Y-41914286D01*
X137815180Y-41914286D02*
X137862800Y-41819048D01*
X137862800Y-41819048D02*
X137910419Y-41771429D01*
X144523809Y-51454819D02*
X144523809Y-50454819D01*
X144523809Y-50454819D02*
X144761904Y-50454819D01*
X144761904Y-50454819D02*
X144904761Y-50502438D01*
X144904761Y-50502438D02*
X144999999Y-50597676D01*
X144999999Y-50597676D02*
X145047618Y-50692914D01*
X145047618Y-50692914D02*
X145095237Y-50883390D01*
X145095237Y-50883390D02*
X145095237Y-51026247D01*
X145095237Y-51026247D02*
X145047618Y-51216723D01*
X145047618Y-51216723D02*
X144999999Y-51311961D01*
X144999999Y-51311961D02*
X144904761Y-51407200D01*
X144904761Y-51407200D02*
X144761904Y-51454819D01*
X144761904Y-51454819D02*
X144523809Y-51454819D01*
X145285714Y-51550057D02*
X146047618Y-51550057D01*
X146761904Y-51454819D02*
X146285714Y-51454819D01*
X146285714Y-51454819D02*
X146285714Y-50454819D01*
X147095238Y-51454819D02*
X147095238Y-50788152D01*
X147095238Y-50454819D02*
X147047619Y-50502438D01*
X147047619Y-50502438D02*
X147095238Y-50550057D01*
X147095238Y-50550057D02*
X147142857Y-50502438D01*
X147142857Y-50502438D02*
X147095238Y-50454819D01*
X147095238Y-50454819D02*
X147095238Y-50550057D01*
X147428571Y-50788152D02*
X147809523Y-50788152D01*
X147571428Y-51454819D02*
X147571428Y-50597676D01*
X147571428Y-50597676D02*
X147619047Y-50502438D01*
X147619047Y-50502438D02*
X147714285Y-50454819D01*
X147714285Y-50454819D02*
X147809523Y-50454819D01*
X148523809Y-51407200D02*
X148428571Y-51454819D01*
X148428571Y-51454819D02*
X148238095Y-51454819D01*
X148238095Y-51454819D02*
X148142857Y-51407200D01*
X148142857Y-51407200D02*
X148095238Y-51311961D01*
X148095238Y-51311961D02*
X148095238Y-50931009D01*
X148095238Y-50931009D02*
X148142857Y-50835771D01*
X148142857Y-50835771D02*
X148238095Y-50788152D01*
X148238095Y-50788152D02*
X148428571Y-50788152D01*
X148428571Y-50788152D02*
X148523809Y-50835771D01*
X148523809Y-50835771D02*
X148571428Y-50931009D01*
X148571428Y-50931009D02*
X148571428Y-51026247D01*
X148571428Y-51026247D02*
X148095238Y-51121485D01*
X149476190Y-50454819D02*
X149000000Y-50454819D01*
X149000000Y-50454819D02*
X148952381Y-50931009D01*
X148952381Y-50931009D02*
X149000000Y-50883390D01*
X149000000Y-50883390D02*
X149095238Y-50835771D01*
X149095238Y-50835771D02*
X149333333Y-50835771D01*
X149333333Y-50835771D02*
X149428571Y-50883390D01*
X149428571Y-50883390D02*
X149476190Y-50931009D01*
X149476190Y-50931009D02*
X149523809Y-51026247D01*
X149523809Y-51026247D02*
X149523809Y-51264342D01*
X149523809Y-51264342D02*
X149476190Y-51359580D01*
X149476190Y-51359580D02*
X149428571Y-51407200D01*
X149428571Y-51407200D02*
X149333333Y-51454819D01*
X149333333Y-51454819D02*
X149095238Y-51454819D01*
X149095238Y-51454819D02*
X149000000Y-51407200D01*
X149000000Y-51407200D02*
X148952381Y-51359580D01*
X122016666Y-40534819D02*
X122016666Y-41249104D01*
X122016666Y-41249104D02*
X121969047Y-41391961D01*
X121969047Y-41391961D02*
X121873809Y-41487200D01*
X121873809Y-41487200D02*
X121730952Y-41534819D01*
X121730952Y-41534819D02*
X121635714Y-41534819D01*
X122397619Y-40534819D02*
X123016666Y-40534819D01*
X123016666Y-40534819D02*
X122683333Y-40915771D01*
X122683333Y-40915771D02*
X122826190Y-40915771D01*
X122826190Y-40915771D02*
X122921428Y-40963390D01*
X122921428Y-40963390D02*
X122969047Y-41011009D01*
X122969047Y-41011009D02*
X123016666Y-41106247D01*
X123016666Y-41106247D02*
X123016666Y-41344342D01*
X123016666Y-41344342D02*
X122969047Y-41439580D01*
X122969047Y-41439580D02*
X122921428Y-41487200D01*
X122921428Y-41487200D02*
X122826190Y-41534819D01*
X122826190Y-41534819D02*
X122540476Y-41534819D01*
X122540476Y-41534819D02*
X122445238Y-41487200D01*
X122445238Y-41487200D02*
X122397619Y-41439580D01*
X137207142Y-50339580D02*
X137159523Y-50387200D01*
X137159523Y-50387200D02*
X137016666Y-50434819D01*
X137016666Y-50434819D02*
X136921428Y-50434819D01*
X136921428Y-50434819D02*
X136778571Y-50387200D01*
X136778571Y-50387200D02*
X136683333Y-50291961D01*
X136683333Y-50291961D02*
X136635714Y-50196723D01*
X136635714Y-50196723D02*
X136588095Y-50006247D01*
X136588095Y-50006247D02*
X136588095Y-49863390D01*
X136588095Y-49863390D02*
X136635714Y-49672914D01*
X136635714Y-49672914D02*
X136683333Y-49577676D01*
X136683333Y-49577676D02*
X136778571Y-49482438D01*
X136778571Y-49482438D02*
X136921428Y-49434819D01*
X136921428Y-49434819D02*
X137016666Y-49434819D01*
X137016666Y-49434819D02*
X137159523Y-49482438D01*
X137159523Y-49482438D02*
X137207142Y-49530057D01*
X138159523Y-50434819D02*
X137588095Y-50434819D01*
X137873809Y-50434819D02*
X137873809Y-49434819D01*
X137873809Y-49434819D02*
X137778571Y-49577676D01*
X137778571Y-49577676D02*
X137683333Y-49672914D01*
X137683333Y-49672914D02*
X137588095Y-49720533D01*
X139111904Y-50434819D02*
X138540476Y-50434819D01*
X138826190Y-50434819D02*
X138826190Y-49434819D01*
X138826190Y-49434819D02*
X138730952Y-49577676D01*
X138730952Y-49577676D02*
X138635714Y-49672914D01*
X138635714Y-49672914D02*
X138540476Y-49720533D01*
X148719580Y-42962857D02*
X148767200Y-43010476D01*
X148767200Y-43010476D02*
X148814819Y-43153333D01*
X148814819Y-43153333D02*
X148814819Y-43248571D01*
X148814819Y-43248571D02*
X148767200Y-43391428D01*
X148767200Y-43391428D02*
X148671961Y-43486666D01*
X148671961Y-43486666D02*
X148576723Y-43534285D01*
X148576723Y-43534285D02*
X148386247Y-43581904D01*
X148386247Y-43581904D02*
X148243390Y-43581904D01*
X148243390Y-43581904D02*
X148052914Y-43534285D01*
X148052914Y-43534285D02*
X147957676Y-43486666D01*
X147957676Y-43486666D02*
X147862438Y-43391428D01*
X147862438Y-43391428D02*
X147814819Y-43248571D01*
X147814819Y-43248571D02*
X147814819Y-43153333D01*
X147814819Y-43153333D02*
X147862438Y-43010476D01*
X147862438Y-43010476D02*
X147910057Y-42962857D01*
X148814819Y-42010476D02*
X148814819Y-42581904D01*
X148814819Y-42296190D02*
X147814819Y-42296190D01*
X147814819Y-42296190D02*
X147957676Y-42391428D01*
X147957676Y-42391428D02*
X148052914Y-42486666D01*
X148052914Y-42486666D02*
X148100533Y-42581904D01*
X147814819Y-41105714D02*
X147814819Y-41581904D01*
X147814819Y-41581904D02*
X148291009Y-41629523D01*
X148291009Y-41629523D02*
X148243390Y-41581904D01*
X148243390Y-41581904D02*
X148195771Y-41486666D01*
X148195771Y-41486666D02*
X148195771Y-41248571D01*
X148195771Y-41248571D02*
X148243390Y-41153333D01*
X148243390Y-41153333D02*
X148291009Y-41105714D01*
X148291009Y-41105714D02*
X148386247Y-41058095D01*
X148386247Y-41058095D02*
X148624342Y-41058095D01*
X148624342Y-41058095D02*
X148719580Y-41105714D01*
X148719580Y-41105714D02*
X148767200Y-41153333D01*
X148767200Y-41153333D02*
X148814819Y-41248571D01*
X148814819Y-41248571D02*
X148814819Y-41486666D01*
X148814819Y-41486666D02*
X148767200Y-41581904D01*
X148767200Y-41581904D02*
X148719580Y-41629523D01*
X137813095Y-33481819D02*
X138384523Y-33481819D01*
X138098809Y-34481819D02*
X138098809Y-33481819D01*
X138717857Y-34481819D02*
X138717857Y-33481819D01*
X138717857Y-33481819D02*
X139098809Y-33481819D01*
X139098809Y-33481819D02*
X139194047Y-33529438D01*
X139194047Y-33529438D02*
X139241666Y-33577057D01*
X139241666Y-33577057D02*
X139289285Y-33672295D01*
X139289285Y-33672295D02*
X139289285Y-33815152D01*
X139289285Y-33815152D02*
X139241666Y-33910390D01*
X139241666Y-33910390D02*
X139194047Y-33958009D01*
X139194047Y-33958009D02*
X139098809Y-34005628D01*
X139098809Y-34005628D02*
X138717857Y-34005628D01*
X139622619Y-33481819D02*
X140241666Y-33481819D01*
X140241666Y-33481819D02*
X139908333Y-33862771D01*
X139908333Y-33862771D02*
X140051190Y-33862771D01*
X140051190Y-33862771D02*
X140146428Y-33910390D01*
X140146428Y-33910390D02*
X140194047Y-33958009D01*
X140194047Y-33958009D02*
X140241666Y-34053247D01*
X140241666Y-34053247D02*
X140241666Y-34291342D01*
X140241666Y-34291342D02*
X140194047Y-34386580D01*
X140194047Y-34386580D02*
X140146428Y-34434200D01*
X140146428Y-34434200D02*
X140051190Y-34481819D01*
X140051190Y-34481819D02*
X139765476Y-34481819D01*
X139765476Y-34481819D02*
X139670238Y-34434200D01*
X139670238Y-34434200D02*
X139622619Y-34386580D01*
X142833333Y-51204819D02*
X142500000Y-50728628D01*
X142261905Y-51204819D02*
X142261905Y-50204819D01*
X142261905Y-50204819D02*
X142642857Y-50204819D01*
X142642857Y-50204819D02*
X142738095Y-50252438D01*
X142738095Y-50252438D02*
X142785714Y-50300057D01*
X142785714Y-50300057D02*
X142833333Y-50395295D01*
X142833333Y-50395295D02*
X142833333Y-50538152D01*
X142833333Y-50538152D02*
X142785714Y-50633390D01*
X142785714Y-50633390D02*
X142738095Y-50681009D01*
X142738095Y-50681009D02*
X142642857Y-50728628D01*
X142642857Y-50728628D02*
X142261905Y-50728628D01*
X143214286Y-50300057D02*
X143261905Y-50252438D01*
X143261905Y-50252438D02*
X143357143Y-50204819D01*
X143357143Y-50204819D02*
X143595238Y-50204819D01*
X143595238Y-50204819D02*
X143690476Y-50252438D01*
X143690476Y-50252438D02*
X143738095Y-50300057D01*
X143738095Y-50300057D02*
X143785714Y-50395295D01*
X143785714Y-50395295D02*
X143785714Y-50490533D01*
X143785714Y-50490533D02*
X143738095Y-50633390D01*
X143738095Y-50633390D02*
X143166667Y-51204819D01*
X143166667Y-51204819D02*
X143785714Y-51204819D01*
X141952856Y-36564819D02*
X141619523Y-36088628D01*
X141381428Y-36564819D02*
X141381428Y-35564819D01*
X141381428Y-35564819D02*
X141762380Y-35564819D01*
X141762380Y-35564819D02*
X141857618Y-35612438D01*
X141857618Y-35612438D02*
X141905237Y-35660057D01*
X141905237Y-35660057D02*
X141952856Y-35755295D01*
X141952856Y-35755295D02*
X141952856Y-35898152D01*
X141952856Y-35898152D02*
X141905237Y-35993390D01*
X141905237Y-35993390D02*
X141857618Y-36041009D01*
X141857618Y-36041009D02*
X141762380Y-36088628D01*
X141762380Y-36088628D02*
X141381428Y-36088628D01*
X142238571Y-35898152D02*
X142619523Y-35898152D01*
X142381428Y-35564819D02*
X142381428Y-36421961D01*
X142381428Y-36421961D02*
X142429047Y-36517200D01*
X142429047Y-36517200D02*
X142524285Y-36564819D01*
X142524285Y-36564819D02*
X142619523Y-36564819D01*
X143333809Y-36517200D02*
X143238571Y-36564819D01*
X143238571Y-36564819D02*
X143048095Y-36564819D01*
X143048095Y-36564819D02*
X142952857Y-36517200D01*
X142952857Y-36517200D02*
X142905238Y-36421961D01*
X142905238Y-36421961D02*
X142905238Y-36041009D01*
X142905238Y-36041009D02*
X142952857Y-35945771D01*
X142952857Y-35945771D02*
X143048095Y-35898152D01*
X143048095Y-35898152D02*
X143238571Y-35898152D01*
X143238571Y-35898152D02*
X143333809Y-35945771D01*
X143333809Y-35945771D02*
X143381428Y-36041009D01*
X143381428Y-36041009D02*
X143381428Y-36136247D01*
X143381428Y-36136247D02*
X142905238Y-36231485D01*
X143810000Y-36564819D02*
X143810000Y-35898152D01*
X143810000Y-36088628D02*
X143857619Y-35993390D01*
X143857619Y-35993390D02*
X143905238Y-35945771D01*
X143905238Y-35945771D02*
X144000476Y-35898152D01*
X144000476Y-35898152D02*
X144095714Y-35898152D01*
X144429048Y-36564819D02*
X144429048Y-35898152D01*
X144429048Y-35993390D02*
X144476667Y-35945771D01*
X144476667Y-35945771D02*
X144571905Y-35898152D01*
X144571905Y-35898152D02*
X144714762Y-35898152D01*
X144714762Y-35898152D02*
X144810000Y-35945771D01*
X144810000Y-35945771D02*
X144857619Y-36041009D01*
X144857619Y-36041009D02*
X144857619Y-36564819D01*
X144857619Y-36041009D02*
X144905238Y-35945771D01*
X144905238Y-35945771D02*
X145000476Y-35898152D01*
X145000476Y-35898152D02*
X145143333Y-35898152D01*
X145143333Y-35898152D02*
X145238572Y-35945771D01*
X145238572Y-35945771D02*
X145286191Y-36041009D01*
X145286191Y-36041009D02*
X145286191Y-36564819D01*
X146286190Y-36564819D02*
X145714762Y-36564819D01*
X146000476Y-36564819D02*
X146000476Y-35564819D01*
X146000476Y-35564819D02*
X145905238Y-35707676D01*
X145905238Y-35707676D02*
X145810000Y-35802914D01*
X145810000Y-35802914D02*
X145714762Y-35850533D01*
X125813333Y-37519580D02*
X125765714Y-37567200D01*
X125765714Y-37567200D02*
X125622857Y-37614819D01*
X125622857Y-37614819D02*
X125527619Y-37614819D01*
X125527619Y-37614819D02*
X125384762Y-37567200D01*
X125384762Y-37567200D02*
X125289524Y-37471961D01*
X125289524Y-37471961D02*
X125241905Y-37376723D01*
X125241905Y-37376723D02*
X125194286Y-37186247D01*
X125194286Y-37186247D02*
X125194286Y-37043390D01*
X125194286Y-37043390D02*
X125241905Y-36852914D01*
X125241905Y-36852914D02*
X125289524Y-36757676D01*
X125289524Y-36757676D02*
X125384762Y-36662438D01*
X125384762Y-36662438D02*
X125527619Y-36614819D01*
X125527619Y-36614819D02*
X125622857Y-36614819D01*
X125622857Y-36614819D02*
X125765714Y-36662438D01*
X125765714Y-36662438D02*
X125813333Y-36710057D01*
X126765714Y-37614819D02*
X126194286Y-37614819D01*
X126480000Y-37614819D02*
X126480000Y-36614819D01*
X126480000Y-36614819D02*
X126384762Y-36757676D01*
X126384762Y-36757676D02*
X126289524Y-36852914D01*
X126289524Y-36852914D02*
X126194286Y-36900533D01*
X129183333Y-44259580D02*
X129135714Y-44307200D01*
X129135714Y-44307200D02*
X128992857Y-44354819D01*
X128992857Y-44354819D02*
X128897619Y-44354819D01*
X128897619Y-44354819D02*
X128754762Y-44307200D01*
X128754762Y-44307200D02*
X128659524Y-44211961D01*
X128659524Y-44211961D02*
X128611905Y-44116723D01*
X128611905Y-44116723D02*
X128564286Y-43926247D01*
X128564286Y-43926247D02*
X128564286Y-43783390D01*
X128564286Y-43783390D02*
X128611905Y-43592914D01*
X128611905Y-43592914D02*
X128659524Y-43497676D01*
X128659524Y-43497676D02*
X128754762Y-43402438D01*
X128754762Y-43402438D02*
X128897619Y-43354819D01*
X128897619Y-43354819D02*
X128992857Y-43354819D01*
X128992857Y-43354819D02*
X129135714Y-43402438D01*
X129135714Y-43402438D02*
X129183333Y-43450057D01*
X129516667Y-43354819D02*
X130135714Y-43354819D01*
X130135714Y-43354819D02*
X129802381Y-43735771D01*
X129802381Y-43735771D02*
X129945238Y-43735771D01*
X129945238Y-43735771D02*
X130040476Y-43783390D01*
X130040476Y-43783390D02*
X130088095Y-43831009D01*
X130088095Y-43831009D02*
X130135714Y-43926247D01*
X130135714Y-43926247D02*
X130135714Y-44164342D01*
X130135714Y-44164342D02*
X130088095Y-44259580D01*
X130088095Y-44259580D02*
X130040476Y-44307200D01*
X130040476Y-44307200D02*
X129945238Y-44354819D01*
X129945238Y-44354819D02*
X129659524Y-44354819D01*
X129659524Y-44354819D02*
X129564286Y-44307200D01*
X129564286Y-44307200D02*
X129516667Y-44259580D01*
X155488095Y-40534819D02*
X156059523Y-40534819D01*
X155773809Y-41534819D02*
X155773809Y-40534819D01*
X156392857Y-41534819D02*
X156392857Y-40534819D01*
X156392857Y-40534819D02*
X156773809Y-40534819D01*
X156773809Y-40534819D02*
X156869047Y-40582438D01*
X156869047Y-40582438D02*
X156916666Y-40630057D01*
X156916666Y-40630057D02*
X156964285Y-40725295D01*
X156964285Y-40725295D02*
X156964285Y-40868152D01*
X156964285Y-40868152D02*
X156916666Y-40963390D01*
X156916666Y-40963390D02*
X156869047Y-41011009D01*
X156869047Y-41011009D02*
X156773809Y-41058628D01*
X156773809Y-41058628D02*
X156392857Y-41058628D01*
X157821428Y-40534819D02*
X157630952Y-40534819D01*
X157630952Y-40534819D02*
X157535714Y-40582438D01*
X157535714Y-40582438D02*
X157488095Y-40630057D01*
X157488095Y-40630057D02*
X157392857Y-40772914D01*
X157392857Y-40772914D02*
X157345238Y-40963390D01*
X157345238Y-40963390D02*
X157345238Y-41344342D01*
X157345238Y-41344342D02*
X157392857Y-41439580D01*
X157392857Y-41439580D02*
X157440476Y-41487200D01*
X157440476Y-41487200D02*
X157535714Y-41534819D01*
X157535714Y-41534819D02*
X157726190Y-41534819D01*
X157726190Y-41534819D02*
X157821428Y-41487200D01*
X157821428Y-41487200D02*
X157869047Y-41439580D01*
X157869047Y-41439580D02*
X157916666Y-41344342D01*
X157916666Y-41344342D02*
X157916666Y-41106247D01*
X157916666Y-41106247D02*
X157869047Y-41011009D01*
X157869047Y-41011009D02*
X157821428Y-40963390D01*
X157821428Y-40963390D02*
X157726190Y-40915771D01*
X157726190Y-40915771D02*
X157535714Y-40915771D01*
X157535714Y-40915771D02*
X157440476Y-40963390D01*
X157440476Y-40963390D02*
X157392857Y-41011009D01*
X157392857Y-41011009D02*
X157345238Y-41106247D01*
X128233333Y-48159580D02*
X128185714Y-48207200D01*
X128185714Y-48207200D02*
X128042857Y-48254819D01*
X128042857Y-48254819D02*
X127947619Y-48254819D01*
X127947619Y-48254819D02*
X127804762Y-48207200D01*
X127804762Y-48207200D02*
X127709524Y-48111961D01*
X127709524Y-48111961D02*
X127661905Y-48016723D01*
X127661905Y-48016723D02*
X127614286Y-47826247D01*
X127614286Y-47826247D02*
X127614286Y-47683390D01*
X127614286Y-47683390D02*
X127661905Y-47492914D01*
X127661905Y-47492914D02*
X127709524Y-47397676D01*
X127709524Y-47397676D02*
X127804762Y-47302438D01*
X127804762Y-47302438D02*
X127947619Y-47254819D01*
X127947619Y-47254819D02*
X128042857Y-47254819D01*
X128042857Y-47254819D02*
X128185714Y-47302438D01*
X128185714Y-47302438D02*
X128233333Y-47350057D01*
X129138095Y-47254819D02*
X128661905Y-47254819D01*
X128661905Y-47254819D02*
X128614286Y-47731009D01*
X128614286Y-47731009D02*
X128661905Y-47683390D01*
X128661905Y-47683390D02*
X128757143Y-47635771D01*
X128757143Y-47635771D02*
X128995238Y-47635771D01*
X128995238Y-47635771D02*
X129090476Y-47683390D01*
X129090476Y-47683390D02*
X129138095Y-47731009D01*
X129138095Y-47731009D02*
X129185714Y-47826247D01*
X129185714Y-47826247D02*
X129185714Y-48064342D01*
X129185714Y-48064342D02*
X129138095Y-48159580D01*
X129138095Y-48159580D02*
X129090476Y-48207200D01*
X129090476Y-48207200D02*
X128995238Y-48254819D01*
X128995238Y-48254819D02*
X128757143Y-48254819D01*
X128757143Y-48254819D02*
X128661905Y-48207200D01*
X128661905Y-48207200D02*
X128614286Y-48159580D01*
X155408095Y-46334819D02*
X155979523Y-46334819D01*
X155693809Y-47334819D02*
X155693809Y-46334819D01*
X156312857Y-47334819D02*
X156312857Y-46334819D01*
X156312857Y-46334819D02*
X156693809Y-46334819D01*
X156693809Y-46334819D02*
X156789047Y-46382438D01*
X156789047Y-46382438D02*
X156836666Y-46430057D01*
X156836666Y-46430057D02*
X156884285Y-46525295D01*
X156884285Y-46525295D02*
X156884285Y-46668152D01*
X156884285Y-46668152D02*
X156836666Y-46763390D01*
X156836666Y-46763390D02*
X156789047Y-46811009D01*
X156789047Y-46811009D02*
X156693809Y-46858628D01*
X156693809Y-46858628D02*
X156312857Y-46858628D01*
X157741428Y-46668152D02*
X157741428Y-47334819D01*
X157503333Y-46287200D02*
X157265238Y-47001485D01*
X157265238Y-47001485D02*
X157884285Y-47001485D01*
X130575180Y-40703333D02*
X130575180Y-40227143D01*
X130575180Y-40227143D02*
X131575180Y-40227143D01*
X130575180Y-41560476D02*
X130575180Y-40989048D01*
X130575180Y-41274762D02*
X131575180Y-41274762D01*
X131575180Y-41274762D02*
X131432323Y-41179524D01*
X131432323Y-41179524D02*
X131337085Y-41084286D01*
X131337085Y-41084286D02*
X131289466Y-40989048D01*
X138684580Y-39941666D02*
X138732200Y-39989285D01*
X138732200Y-39989285D02*
X138779819Y-40132142D01*
X138779819Y-40132142D02*
X138779819Y-40227380D01*
X138779819Y-40227380D02*
X138732200Y-40370237D01*
X138732200Y-40370237D02*
X138636961Y-40465475D01*
X138636961Y-40465475D02*
X138541723Y-40513094D01*
X138541723Y-40513094D02*
X138351247Y-40560713D01*
X138351247Y-40560713D02*
X138208390Y-40560713D01*
X138208390Y-40560713D02*
X138017914Y-40513094D01*
X138017914Y-40513094D02*
X137922676Y-40465475D01*
X137922676Y-40465475D02*
X137827438Y-40370237D01*
X137827438Y-40370237D02*
X137779819Y-40227380D01*
X137779819Y-40227380D02*
X137779819Y-40132142D01*
X137779819Y-40132142D02*
X137827438Y-39989285D01*
X137827438Y-39989285D02*
X137875057Y-39941666D01*
X138208390Y-39370237D02*
X138160771Y-39465475D01*
X138160771Y-39465475D02*
X138113152Y-39513094D01*
X138113152Y-39513094D02*
X138017914Y-39560713D01*
X138017914Y-39560713D02*
X137970295Y-39560713D01*
X137970295Y-39560713D02*
X137875057Y-39513094D01*
X137875057Y-39513094D02*
X137827438Y-39465475D01*
X137827438Y-39465475D02*
X137779819Y-39370237D01*
X137779819Y-39370237D02*
X137779819Y-39179761D01*
X137779819Y-39179761D02*
X137827438Y-39084523D01*
X137827438Y-39084523D02*
X137875057Y-39036904D01*
X137875057Y-39036904D02*
X137970295Y-38989285D01*
X137970295Y-38989285D02*
X138017914Y-38989285D01*
X138017914Y-38989285D02*
X138113152Y-39036904D01*
X138113152Y-39036904D02*
X138160771Y-39084523D01*
X138160771Y-39084523D02*
X138208390Y-39179761D01*
X138208390Y-39179761D02*
X138208390Y-39370237D01*
X138208390Y-39370237D02*
X138256009Y-39465475D01*
X138256009Y-39465475D02*
X138303628Y-39513094D01*
X138303628Y-39513094D02*
X138398866Y-39560713D01*
X138398866Y-39560713D02*
X138589342Y-39560713D01*
X138589342Y-39560713D02*
X138684580Y-39513094D01*
X138684580Y-39513094D02*
X138732200Y-39465475D01*
X138732200Y-39465475D02*
X138779819Y-39370237D01*
X138779819Y-39370237D02*
X138779819Y-39179761D01*
X138779819Y-39179761D02*
X138732200Y-39084523D01*
X138732200Y-39084523D02*
X138684580Y-39036904D01*
X138684580Y-39036904D02*
X138589342Y-38989285D01*
X138589342Y-38989285D02*
X138398866Y-38989285D01*
X138398866Y-38989285D02*
X138303628Y-39036904D01*
X138303628Y-39036904D02*
X138256009Y-39084523D01*
X138256009Y-39084523D02*
X138208390Y-39179761D01*
D11*
%TO.C,L2*%
X134310000Y-39809721D02*
X134310000Y-40135279D01*
X135330000Y-39809721D02*
X135330000Y-40135279D01*
%TO.C,TP5*%
X141200000Y-30500000D02*
X142600000Y-30500000D01*
X141200000Y-31900000D02*
X141200000Y-30500000D01*
X142600000Y-30500000D02*
X142600000Y-31900000D01*
X142600000Y-31900000D02*
X141200000Y-31900000D01*
%TO.C,U2*%
X133140000Y-36720000D02*
X133140000Y-34140000D01*
X134120000Y-34140000D02*
X133140000Y-34140000D01*
X136880000Y-34140000D02*
X137860000Y-34140000D01*
X137860000Y-34140000D02*
X137860000Y-36860000D01*
X133290000Y-37270000D02*
X132960000Y-37510000D01*
X132960000Y-37030000D01*
X133290000Y-37270000D01*
G36*
X133290000Y-37270000D02*
G01*
X132960000Y-37510000D01*
X132960000Y-37030000D01*
X133290000Y-37270000D01*
G37*
%TO.C,TP9*%
X156300000Y-35800000D02*
X157700000Y-35800000D01*
X156300000Y-37200000D02*
X156300000Y-35800000D01*
X157700000Y-35800000D02*
X157700000Y-37200000D01*
X157700000Y-37200000D02*
X156300000Y-37200000D01*
%TO.C,TP7*%
X156300000Y-44700000D02*
X157700000Y-44700000D01*
X156300000Y-46100000D02*
X156300000Y-44700000D01*
X157700000Y-44700000D02*
X157700000Y-46100000D01*
X157700000Y-46100000D02*
X156300000Y-46100000D01*
%TO.C,C2*%
X132107836Y-37140000D02*
X131892164Y-37140000D01*
X132107836Y-37860000D02*
X131892164Y-37860000D01*
D12*
%TO.C,U1*%
X128786442Y-35517400D02*
X129169358Y-35517400D01*
X129169358Y-37778000D02*
X128786442Y-37778000D01*
X130298700Y-39048000D02*
G75*
G02*
X130044700Y-39048000I-127000J0D01*
G01*
X130044700Y-39048000D02*
G75*
G02*
X130298700Y-39048000I127000J0D01*
G01*
D11*
%TO.C,C10*%
X138165580Y-44890000D02*
X137884420Y-44890000D01*
X138165580Y-45910000D02*
X137884420Y-45910000D01*
%TO.C,C6*%
X131388748Y-47565000D02*
X131911252Y-47565000D01*
X131388748Y-49035000D02*
X131911252Y-49035000D01*
%TO.C,C9*%
X138427836Y-43390000D02*
X138212164Y-43390000D01*
X138427836Y-44110000D02*
X138212164Y-44110000D01*
%TO.C,R_b1*%
X138687742Y-28877500D02*
X139162258Y-28877500D01*
X138687742Y-29922500D02*
X139162258Y-29922500D01*
%TO.C,R_Hyst1*%
X143497742Y-43417500D02*
X143972258Y-43417500D01*
X143497742Y-44462500D02*
X143972258Y-44462500D01*
%TO.C,C12*%
X141934420Y-33290000D02*
X142215580Y-33290000D01*
X141934420Y-34310000D02*
X142215580Y-34310000D01*
%TO.C,U_Comparator1*%
X140990000Y-37750000D02*
X140990000Y-39150000D01*
X143310000Y-37740000D02*
X143310000Y-39150000D01*
X143590000Y-37610000D02*
X143260000Y-37370000D01*
X143590000Y-37130000D01*
X143590000Y-37610000D01*
G36*
X143590000Y-37610000D02*
G01*
X143260000Y-37370000D01*
X143590000Y-37130000D01*
X143590000Y-37610000D01*
G37*
%TO.C,TP2*%
X127800000Y-38800000D02*
X129200000Y-38800000D01*
X127800000Y-40200000D02*
X127800000Y-38800000D01*
X129200000Y-38800000D02*
X129200000Y-40200000D01*
X129200000Y-40200000D02*
X127800000Y-40200000D01*
%TO.C,TP1*%
X125300000Y-33300000D02*
X126700000Y-33300000D01*
X125300000Y-34700000D02*
X125300000Y-33300000D01*
X126700000Y-33300000D02*
X126700000Y-34700000D01*
X126700000Y-34700000D02*
X125300000Y-34700000D01*
%TO.C,C4*%
X132472164Y-44440000D02*
X132687836Y-44440000D01*
X132472164Y-45160000D02*
X132687836Y-45160000D01*
%TO.C,R6*%
X143865580Y-48490000D02*
X143584420Y-48490000D01*
X143865580Y-49510000D02*
X143584420Y-49510000D01*
%TO.C,C7*%
X134300000Y-45944420D02*
X134300000Y-46225580D01*
X135320000Y-45944420D02*
X135320000Y-46225580D01*
%TO.C,D_Life3.3*%
X145302500Y-46565000D02*
X145302500Y-48035000D01*
X145302500Y-48035000D02*
X147587500Y-48035000D01*
X147587500Y-46565000D02*
X145302500Y-46565000D01*
%TO.C,J1*%
X149110000Y-34940000D02*
X149110000Y-50060000D01*
X149110000Y-50060000D02*
X155080000Y-50060000D01*
X149870000Y-35700000D02*
X149870000Y-42500000D01*
X149870000Y-49300000D02*
X149870000Y-42500000D01*
X152820000Y-34950000D02*
X152820000Y-35700000D01*
X152820000Y-35700000D02*
X149870000Y-35700000D01*
X152820000Y-49300000D02*
X149870000Y-49300000D01*
X152820000Y-50050000D02*
X152820000Y-49300000D01*
X154320000Y-34950000D02*
X154320000Y-36750000D01*
X154320000Y-36750000D02*
X155070000Y-36750000D01*
X154320000Y-38250000D02*
X154320000Y-46750000D01*
X154320000Y-46750000D02*
X155070000Y-46750000D01*
X154320000Y-48250000D02*
X154320000Y-50050000D01*
X154320000Y-50050000D02*
X155070000Y-50050000D01*
X155070000Y-34950000D02*
X154320000Y-34950000D01*
X155070000Y-36750000D02*
X155070000Y-34950000D01*
X155070000Y-38250000D02*
X154320000Y-38250000D01*
X155070000Y-46750000D02*
X155070000Y-38250000D01*
X155070000Y-48250000D02*
X154320000Y-48250000D01*
X155070000Y-50050000D02*
X155070000Y-48250000D01*
X155080000Y-34940000D02*
X149110000Y-34940000D01*
X155080000Y-50060000D02*
X155080000Y-34940000D01*
X155370000Y-34650000D02*
X154120000Y-34650000D01*
X155370000Y-35900000D02*
X155370000Y-34650000D01*
%TO.C,R_a1*%
X141887742Y-28877500D02*
X142362258Y-28877500D01*
X141887742Y-29922500D02*
X142362258Y-29922500D01*
%TO.C,C14*%
X144164420Y-40340000D02*
X144445580Y-40340000D01*
X144164420Y-41360000D02*
X144445580Y-41360000D01*
%TO.C,R_s1*%
X144486359Y-37120000D02*
X144793641Y-37120000D01*
X144486359Y-37880000D02*
X144793641Y-37880000D01*
%TO.C,R1*%
X134287500Y-42797742D02*
X134287500Y-43272258D01*
X135332500Y-42797742D02*
X135332500Y-43272258D01*
%TO.C,C13*%
X138940580Y-31790000D02*
X138659420Y-31790000D01*
X138940580Y-32810000D02*
X138659420Y-32810000D01*
%TO.C,TP8*%
X156300000Y-38900000D02*
X157700000Y-38900000D01*
X156300000Y-40300000D02*
X156300000Y-38900000D01*
X157700000Y-38900000D02*
X157700000Y-40300000D01*
X157700000Y-40300000D02*
X156300000Y-40300000D01*
D12*
%TO.C,L3*%
X136238000Y-38821000D02*
X136238000Y-42885000D01*
X137713740Y-42885000D02*
X138826260Y-42885000D01*
X138826260Y-38821000D02*
X137713740Y-38821000D01*
X140302000Y-42885000D02*
X140302000Y-38821000D01*
D13*
X137127000Y-38059000D02*
G75*
G02*
X136873000Y-38059000I-127000J0D01*
G01*
X136873000Y-38059000D02*
G75*
G02*
X137127000Y-38059000I127000J0D01*
G01*
D11*
%TO.C,D_Life5*%
X145302500Y-48265000D02*
X145302500Y-49735000D01*
X145302500Y-49735000D02*
X147587500Y-49735000D01*
X147587500Y-48265000D02*
X145302500Y-48265000D01*
%TO.C,J3*%
X120810000Y-34050000D02*
X120810000Y-35160000D01*
X120810000Y-36840000D02*
X120810000Y-37950000D01*
X124060000Y-34050000D02*
X124060000Y-35160000D01*
X124060000Y-36840000D02*
X124060000Y-37950000D01*
X124610000Y-36000000D02*
X125110000Y-36250000D01*
X125110000Y-35750000D02*
X124610000Y-36000000D01*
X125110000Y-36250000D02*
X125110000Y-35750000D01*
%TO.C,C11*%
X138111252Y-47565000D02*
X137588748Y-47565000D01*
X138111252Y-49035000D02*
X137588748Y-49035000D01*
%TO.C,C15*%
X145184420Y-41880000D02*
X145465580Y-41880000D01*
X145184420Y-42900000D02*
X145465580Y-42900000D01*
%TO.C,TP3*%
X138375000Y-34775000D02*
X139775000Y-34775000D01*
X138375000Y-36175000D02*
X138375000Y-34775000D01*
X139775000Y-34775000D02*
X139775000Y-36175000D01*
X139775000Y-36175000D02*
X138375000Y-36175000D01*
%TO.C,R2*%
X143865580Y-46790000D02*
X143584420Y-46790000D01*
X143865580Y-47810000D02*
X143584420Y-47810000D01*
%TO.C,Rterm1*%
X140220000Y-35646359D02*
X140220000Y-35953641D01*
X140980000Y-35646359D02*
X140980000Y-35953641D01*
%TO.C,C1*%
X126087836Y-35640000D02*
X125872164Y-35640000D01*
X126087836Y-36360000D02*
X125872164Y-36360000D01*
%TO.C,C3*%
X131727836Y-43440000D02*
X131512164Y-43440000D01*
X131727836Y-44160000D02*
X131512164Y-44160000D01*
%TO.C,TP6*%
X156300000Y-41800000D02*
X157700000Y-41800000D01*
X156300000Y-43200000D02*
X156300000Y-41800000D01*
X157700000Y-41800000D02*
X157700000Y-43200000D01*
X157700000Y-43200000D02*
X156300000Y-43200000D01*
%TO.C,C5*%
X130065580Y-45890000D02*
X129784420Y-45890000D01*
X130065580Y-46910000D02*
X129784420Y-46910000D01*
%TO.C,TP4*%
X156300000Y-47600000D02*
X157700000Y-47600000D01*
X156300000Y-49000000D02*
X156300000Y-47600000D01*
X157700000Y-47600000D02*
X157700000Y-49000000D01*
X157700000Y-49000000D02*
X156300000Y-49000000D01*
D12*
%TO.C,L1*%
X129698000Y-38865000D02*
X129698000Y-42929000D01*
X131173740Y-42929000D02*
X132286260Y-42929000D01*
X132286260Y-38865000D02*
X131173740Y-38865000D01*
X133762000Y-42929000D02*
X133762000Y-38865000D01*
D13*
X130587000Y-38103000D02*
G75*
G02*
X130333000Y-38103000I-127000J0D01*
G01*
X130333000Y-38103000D02*
G75*
G02*
X130587000Y-38103000I127000J0D01*
G01*
D11*
%TO.C,C8*%
X138912164Y-37140000D02*
X139127836Y-37140000D01*
X138912164Y-37860000D02*
X139127836Y-37860000D01*
%TD*%
M02*
