M48
; DRILL file {KiCad 9.0.2} date 2026-08-16T19:09:05-0700
; FORMAT={-:-/ absolute / metric / decimal}
; #@! TF.CreationDate,2026-08-16T19:09:05-07:00
; #@! TF.GenerationSoftware,Kicad,Pcbnew,9.0.2
; #@! TF.FileFunction,Plated,1,4,PTH
FMAT,2
METRIC
; #@! TA.AperFunction,Plated,PTH,ViaDrill
T1C0.300
; #@! TA.AperFunction,Plated,PTH,ComponentDrill
T2C0.950
%
G90
G05
T1
X121.25Y-32.5
X121.25Y-34.0
X121.25Y-38.0
X121.25Y-39.5
X122.0Y-32.5
X122.0Y-34.0
X122.0Y-38.0
X122.0Y-39.5
X122.5Y-27.5
X122.5Y-30.0
X122.5Y-42.5
X122.5Y-45.0
X122.5Y-47.5
X122.5Y-50.0
X122.5Y-52.5
X123.0Y-32.5
X123.0Y-34.0
X123.0Y-38.0
X123.0Y-39.5
X124.0Y-34.0
X124.0Y-39.5
X124.06Y-32.5
X124.06Y-38.0
X124.72Y-35.1
X124.74Y-37.06
X125.0Y-27.5
X125.0Y-30.0
X125.0Y-32.5
X125.0Y-40.0
X125.0Y-42.5
X125.0Y-45.0
X125.0Y-47.5
X125.0Y-50.0
X125.0Y-52.5
X125.78Y-37.06
X126.0Y-32.5
X126.75Y-37.06
X126.77Y-35.1
X126.79Y-38.11
X127.0Y-40.0
X127.5Y-27.5
X127.5Y-30.0
X127.5Y-32.5
X127.5Y-34.0
X127.5Y-42.5
X127.5Y-45.0
X127.5Y-47.5
X127.5Y-50.0
X127.5Y-52.5
X127.57Y-35.11
X128.01Y-38.05
X128.5Y-47.66
X128.53Y-48.84
X128.96Y-38.1
X129.07Y-35.27
X129.55Y-47.85
X129.56Y-48.72
X129.96Y-35.25
X130.0Y-27.5
X130.0Y-30.0
X130.0Y-32.5
X130.0Y-50.0
X130.0Y-52.5
X130.31Y-40.88
X130.87Y-35.24
X130.88Y-36.1
X131.51Y-38.32
X131.54Y-36.67
X131.75Y-39.46
X131.93Y-42.38
X132.5Y-27.5
X132.5Y-30.0
X132.5Y-32.5
X132.5Y-38.33
X132.5Y-50.0
X132.5Y-52.5
X132.54Y-36.67
X132.88Y-43.82
X133.0Y-42.294
X133.21Y-38.34
X133.67Y-44.0
X134.99Y-33.86
X134.99Y-34.54
X134.99Y-35.22
X134.99Y-35.87
X135.0Y-27.5
X135.0Y-30.0
X135.0Y-32.5
X135.0Y-50.0
X135.0Y-52.5
X135.5Y-37.362
X136.01Y-33.86
X136.01Y-34.54
X136.01Y-35.22
X136.01Y-35.87
X137.5Y-27.5
X137.5Y-50.0
X137.5Y-52.5
X138.07Y-38.26
X138.52Y-36.64
X138.83Y-42.85
X139.04Y-38.25
X139.29Y-36.64
X139.49Y-43.78
X139.54Y-42.27
X139.58Y-46.94
X139.6Y-34.2
X139.76Y-47.97
X139.76Y-48.69
X139.85Y-38.3
X140.0Y-27.5
X140.0Y-50.0
X140.0Y-52.5
X140.08Y-43.19
X140.37Y-44.97
X141.0Y-46.0
X141.0Y-48.0
X141.5Y-34.97
X141.5Y-36.47
X142.16Y-36.45
X142.5Y-27.5
X142.5Y-50.0
X142.5Y-52.5
X143.4Y-42.53
X143.49Y-39.93
X143.74Y-29.65
X143.76Y-28.97
X143.82Y-36.6
X144.25Y-38.5
X144.59Y-28.96
X145.0Y-27.5
X145.0Y-30.0
X145.0Y-32.5
X145.0Y-35.0
X145.0Y-50.0
X145.0Y-52.5
X145.78Y-43.92
X147.5Y-27.5
X147.5Y-30.0
X147.5Y-32.5
X147.5Y-34.94
X147.5Y-39.25
X147.5Y-42.5
X147.5Y-50.06
X147.5Y-52.5
X150.0Y-27.5
X150.0Y-30.0
X150.0Y-32.5
X150.0Y-35.0
X150.0Y-50.06
X150.0Y-52.5
X152.5Y-27.5
X152.5Y-30.0
X152.5Y-32.5
X152.5Y-35.0
X152.5Y-50.0
X152.5Y-52.5
X155.0Y-27.5
X155.0Y-30.0
X155.0Y-32.5
X155.0Y-34.95
X155.0Y-50.05
X155.0Y-52.5
X157.5Y-27.5
X157.5Y-30.0
X157.5Y-32.5
X157.5Y-35.0
X157.5Y-50.0
X157.5Y-52.5
T2
X152.62Y-37.5
X152.62Y-40.0
X152.62Y-42.5
X152.62Y-45.0
X152.62Y-47.5
M30
