%TF.GenerationSoftware,KiCad,Pcbnew,9.0.2*%
%TF.CreationDate,2026-08-16T19:09:04-07:00*%
%TF.ProjectId,Discriminator,44697363-7269-46d6-996e-61746f722e6b,rev?*%
%TF.SameCoordinates,Original*%
%TF.FileFunction,Copper,L3,Inr*%
%TF.FilePolarity,Positive*%
%FSLAX46Y46*%
G04 Gerber Fmt 4.6, Leading zero omitted, Abs format (unit mm)*
G04 Created by KiCad (PCBNEW 9.0.2) date 2026-08-16 19:09:04*
%MOMM*%
%LPD*%
G01*
G04 APERTURE LIST*
G04 Aperture macros list*
%AMRoundRect*
0 Rectangle with rounded corners*
0 $1 Rounding radius*
0 $2 $3 $4 $5 $6 $7 $8 $9 X,Y pos of 4 corners*
0 Add a 4 corners polygon primitive as box body*
4,1,4,$2,$3,$4,$5,$6,$7,$8,$9,$2,$3,0*
0 Add four circle primitives for the rounded corners*
1,1,$1+$1,$2,$3*
1,1,$1+$1,$4,$5*
1,1,$1+$1,$6,$7*
1,1,$1+$1,$8,$9*
0 Add four rect primitives between the rounded corners*
20,1,$1+$1,$2,$3,$4,$5,0*
20,1,$1+$1,$4,$5,$6,$7,0*
20,1,$1+$1,$6,$7,$8,$9,0*
20,1,$1+$1,$8,$9,$2,$3,0*%
G04 Aperture macros list end*
%TA.AperFunction,ComponentPad*%
%ADD10RoundRect,0.250000X-0.725000X0.600000X-0.725000X-0.600000X0.725000X-0.600000X0.725000X0.600000X0*%
%TD*%
%TA.AperFunction,ComponentPad*%
%ADD11O,1.950000X1.700000*%
%TD*%
%TA.AperFunction,ViaPad*%
%ADD12C,0.600000*%
%TD*%
G04 APERTURE END LIST*
D10*
%TO.N,/Pulse*%
%TO.C,J1*%
X152620000Y-37500000D03*
D11*
%TO.N,GND*%
X152620000Y-40000000D03*
%TO.N,/V_threshold*%
X152620000Y-42500000D03*
%TO.N,+3.3V*%
X152620000Y-45000000D03*
%TO.N,+5V*%
X152620000Y-47500000D03*
%TD*%
D12*
%TO.N,GND*%
X139850000Y-38300000D03*
X142500000Y-50000000D03*
X155000000Y-50050000D03*
X128500000Y-47660000D03*
X125000000Y-47500000D03*
X130880000Y-36100000D03*
X155000000Y-34950000D03*
X138520000Y-36640000D03*
X127500000Y-52500000D03*
X157500000Y-27500000D03*
X122500000Y-52500000D03*
X128010000Y-38050000D03*
X157500000Y-30000000D03*
X135000000Y-50000000D03*
X124740000Y-37060000D03*
X125000000Y-27500000D03*
X147500000Y-42500000D03*
X152500000Y-50000000D03*
X147500000Y-27500000D03*
X142500000Y-52500000D03*
X129070000Y-35270000D03*
X122500000Y-42500000D03*
X141500000Y-36470000D03*
X137500000Y-50000000D03*
X132540000Y-36670000D03*
X132500000Y-52500000D03*
X155000000Y-52500000D03*
X124060000Y-32500000D03*
X130000000Y-32500000D03*
X122000000Y-39500000D03*
X142160000Y-36450000D03*
X121250000Y-34000000D03*
X157500000Y-52500000D03*
X124060000Y-38000000D03*
X144250000Y-38500000D03*
X122500000Y-50000000D03*
X122500000Y-27500000D03*
X121250000Y-38000000D03*
X121250000Y-39500000D03*
X125000000Y-50000000D03*
X145000000Y-27500000D03*
X134990000Y-33860000D03*
X140000000Y-52500000D03*
X145000000Y-35000000D03*
X122500000Y-30000000D03*
X126000000Y-32500000D03*
X131510000Y-38320000D03*
X145780000Y-43920000D03*
X127500000Y-45000000D03*
X133670000Y-44000000D03*
X125000000Y-45000000D03*
X130310000Y-40880000D03*
X147500000Y-32500000D03*
X139290000Y-36640000D03*
X136010000Y-35870000D03*
X122500000Y-45000000D03*
X157500000Y-32500000D03*
X152500000Y-35000000D03*
X141000000Y-48000000D03*
X155000000Y-30000000D03*
X127500000Y-27500000D03*
X134990000Y-34540000D03*
X140000000Y-50000000D03*
X125780000Y-37060000D03*
X135500000Y-37362500D03*
X136010000Y-35220000D03*
X126790000Y-38110000D03*
X147500000Y-52500000D03*
X122500000Y-47500000D03*
X132500000Y-30000000D03*
X150000000Y-35000000D03*
X136010000Y-33860000D03*
X145000000Y-52500000D03*
X139040000Y-38250000D03*
X157500000Y-35000000D03*
X127000000Y-40000000D03*
X126750000Y-37060000D03*
X122000000Y-32500000D03*
X140370000Y-44970000D03*
X142500000Y-27500000D03*
X147500000Y-34940000D03*
X138070000Y-38260000D03*
X130000000Y-50000000D03*
X141500000Y-34970000D03*
X123000000Y-39500000D03*
X132500000Y-38330000D03*
X131540000Y-36670000D03*
X152500000Y-52500000D03*
X125000000Y-32500000D03*
X122000000Y-38000000D03*
X155000000Y-32500000D03*
X128960000Y-38100000D03*
X139600000Y-34200000D03*
X131750000Y-39460000D03*
X125000000Y-42500000D03*
X147500000Y-39250000D03*
X150000000Y-50060000D03*
X137500000Y-27500000D03*
X130870000Y-35240000D03*
X140000000Y-27500000D03*
X134990000Y-35220000D03*
X143820000Y-36600000D03*
X124000000Y-34000000D03*
X134990000Y-35870000D03*
X152500000Y-32500000D03*
X130000000Y-30000000D03*
X130000000Y-52500000D03*
X127500000Y-42500000D03*
X150000000Y-30000000D03*
X135000000Y-52500000D03*
X132500000Y-50000000D03*
X132500000Y-32500000D03*
X135000000Y-32500000D03*
X137500000Y-52500000D03*
X135000000Y-30000000D03*
X150000000Y-27500000D03*
X152500000Y-27500000D03*
X157500000Y-50000000D03*
X123000000Y-38000000D03*
X130000000Y-27500000D03*
X125000000Y-52500000D03*
X141000000Y-46000000D03*
X128530000Y-48840000D03*
X145000000Y-30000000D03*
X123000000Y-34000000D03*
X147500000Y-50060000D03*
X133210000Y-38340000D03*
X125000000Y-30000000D03*
X127500000Y-47500000D03*
X132500000Y-27500000D03*
X150000000Y-32500000D03*
X129960000Y-35250000D03*
X127500000Y-32500000D03*
X125000000Y-40000000D03*
X145000000Y-50000000D03*
X150000000Y-52500000D03*
X124000000Y-39500000D03*
X155000000Y-27500000D03*
X127500000Y-50000000D03*
X145000000Y-32500000D03*
X152500000Y-30000000D03*
X147500000Y-30000000D03*
X124720000Y-35100000D03*
X144590000Y-28960000D03*
X135000000Y-27500000D03*
X122000000Y-34000000D03*
X127500000Y-30000000D03*
X127500000Y-34000000D03*
X121250000Y-32500000D03*
X136010000Y-34540000D03*
X126770000Y-35100000D03*
X127570000Y-35110000D03*
X123000000Y-32500000D03*
%TO.N,+5V*%
X138830000Y-42850000D03*
X129560000Y-48720000D03*
X139760000Y-48690000D03*
X139760000Y-47970000D03*
X132880000Y-43820000D03*
X139580000Y-46940000D03*
X129550000Y-47850000D03*
X139540000Y-42270000D03*
X133000000Y-42294000D03*
X131930000Y-42380000D03*
X139490000Y-43780000D03*
X140080000Y-43190000D03*
%TO.N,+3.3V*%
X143490000Y-39930000D03*
X143400000Y-42530000D03*
X143740000Y-29650000D03*
X143760000Y-28970000D03*
%TD*%
%TA.AperFunction,Conductor*%
%TO.N,+3.3V*%
G36*
X139221905Y-27020185D02*
G01*
X139267660Y-27072989D01*
X139277604Y-27142147D01*
X139269427Y-27171953D01*
X139230263Y-27266502D01*
X139230261Y-27266510D01*
X139199500Y-27421153D01*
X139199500Y-27578846D01*
X139230261Y-27733489D01*
X139230264Y-27733501D01*
X139290602Y-27879172D01*
X139290609Y-27879185D01*
X139378210Y-28010288D01*
X139378213Y-28010292D01*
X139489707Y-28121786D01*
X139489711Y-28121789D01*
X139620814Y-28209390D01*
X139620827Y-28209397D01*
X139758946Y-28266607D01*
X139766503Y-28269737D01*
X139921153Y-28300499D01*
X139921156Y-28300500D01*
X139921158Y-28300500D01*
X140078844Y-28300500D01*
X140078845Y-28300499D01*
X140233497Y-28269737D01*
X140358868Y-28217807D01*
X140379172Y-28209397D01*
X140379172Y-28209396D01*
X140379179Y-28209394D01*
X140510289Y-28121789D01*
X140621789Y-28010289D01*
X140709394Y-27879179D01*
X140769737Y-27733497D01*
X140800500Y-27578842D01*
X140800500Y-27421158D01*
X140800500Y-27421155D01*
X140800499Y-27421153D01*
X140769738Y-27266510D01*
X140769737Y-27266503D01*
X140730572Y-27171951D01*
X140723104Y-27102483D01*
X140754379Y-27040004D01*
X140814468Y-27004352D01*
X140845134Y-27000500D01*
X141654866Y-27000500D01*
X141721905Y-27020185D01*
X141767660Y-27072989D01*
X141777604Y-27142147D01*
X141769427Y-27171953D01*
X141730263Y-27266502D01*
X141730261Y-27266510D01*
X141699500Y-27421153D01*
X141699500Y-27578846D01*
X141730261Y-27733489D01*
X141730264Y-27733501D01*
X141790602Y-27879172D01*
X141790609Y-27879185D01*
X141878210Y-28010288D01*
X141878213Y-28010292D01*
X141989707Y-28121786D01*
X141989711Y-28121789D01*
X142120814Y-28209390D01*
X142120827Y-28209397D01*
X142258946Y-28266607D01*
X142266503Y-28269737D01*
X142421153Y-28300499D01*
X142421156Y-28300500D01*
X142421158Y-28300500D01*
X142578844Y-28300500D01*
X142578845Y-28300499D01*
X142733497Y-28269737D01*
X142858868Y-28217807D01*
X142879172Y-28209397D01*
X142879172Y-28209396D01*
X142879179Y-28209394D01*
X143010289Y-28121789D01*
X143121789Y-28010289D01*
X143209394Y-27879179D01*
X143269737Y-27733497D01*
X143300500Y-27578842D01*
X143300500Y-27421158D01*
X143300500Y-27421155D01*
X143300499Y-27421153D01*
X143269738Y-27266510D01*
X143269737Y-27266503D01*
X143230572Y-27171951D01*
X143223104Y-27102483D01*
X143254379Y-27040004D01*
X143314468Y-27004352D01*
X143345134Y-27000500D01*
X144154866Y-27000500D01*
X144221905Y-27020185D01*
X144267660Y-27072989D01*
X144277604Y-27142147D01*
X144269427Y-27171953D01*
X144230263Y-27266502D01*
X144230261Y-27266510D01*
X144199500Y-27421153D01*
X144199500Y-27578846D01*
X144230261Y-27733489D01*
X144230264Y-27733501D01*
X144290602Y-27879172D01*
X144290609Y-27879185D01*
X144381595Y-28015354D01*
X144380131Y-28016332D01*
X144404180Y-28072972D01*
X144392382Y-28141838D01*
X144345225Y-28193394D01*
X144328465Y-28201876D01*
X144210823Y-28250604D01*
X144210814Y-28250609D01*
X144079711Y-28338210D01*
X144079707Y-28338213D01*
X143968213Y-28449707D01*
X143968210Y-28449711D01*
X143880609Y-28580814D01*
X143880602Y-28580827D01*
X143820264Y-28726498D01*
X143820261Y-28726510D01*
X143789500Y-28881153D01*
X143789500Y-29038846D01*
X143820261Y-29193489D01*
X143820264Y-29193501D01*
X143880602Y-29339172D01*
X143880609Y-29339185D01*
X143968210Y-29470288D01*
X143968213Y-29470292D01*
X144079707Y-29581786D01*
X144079711Y-29581789D01*
X144176141Y-29646222D01*
X144220946Y-29699834D01*
X144229653Y-29769159D01*
X144228867Y-29773515D01*
X144199500Y-29921153D01*
X144199500Y-30078846D01*
X144230261Y-30233489D01*
X144230264Y-30233501D01*
X144290602Y-30379172D01*
X144290609Y-30379185D01*
X144378210Y-30510288D01*
X144378213Y-30510292D01*
X144489707Y-30621786D01*
X144489711Y-30621789D01*
X144620814Y-30709390D01*
X144620827Y-30709397D01*
X144766498Y-30769735D01*
X144766503Y-30769737D01*
X144921153Y-30800499D01*
X144921156Y-30800500D01*
X144921158Y-30800500D01*
X145078844Y-30800500D01*
X145078845Y-30800499D01*
X145233497Y-30769737D01*
X145379179Y-30709394D01*
X145510289Y-30621789D01*
X145621789Y-30510289D01*
X145709394Y-30379179D01*
X145769737Y-30233497D01*
X145800500Y-30078842D01*
X145800500Y-29921158D01*
X145800500Y-29921155D01*
X145800499Y-29921153D01*
X146699500Y-29921153D01*
X146699500Y-30078846D01*
X146730261Y-30233489D01*
X146730264Y-30233501D01*
X146790602Y-30379172D01*
X146790609Y-30379185D01*
X146878210Y-30510288D01*
X146878213Y-30510292D01*
X146989707Y-30621786D01*
X146989711Y-30621789D01*
X147120814Y-30709390D01*
X147120827Y-30709397D01*
X147266498Y-30769735D01*
X147266503Y-30769737D01*
X147421153Y-30800499D01*
X147421156Y-30800500D01*
X147421158Y-30800500D01*
X147578844Y-30800500D01*
X147578845Y-30800499D01*
X147733497Y-30769737D01*
X147879179Y-30709394D01*
X148010289Y-30621789D01*
X148121789Y-30510289D01*
X148209394Y-30379179D01*
X148269737Y-30233497D01*
X148300500Y-30078842D01*
X148300500Y-29921158D01*
X148300500Y-29921155D01*
X148300499Y-29921153D01*
X149199500Y-29921153D01*
X149199500Y-30078846D01*
X149230261Y-30233489D01*
X149230264Y-30233501D01*
X149290602Y-30379172D01*
X149290609Y-30379185D01*
X149378210Y-30510288D01*
X149378213Y-30510292D01*
X149489707Y-30621786D01*
X149489711Y-30621789D01*
X149620814Y-30709390D01*
X149620827Y-30709397D01*
X149766498Y-30769735D01*
X149766503Y-30769737D01*
X149921153Y-30800499D01*
X149921156Y-30800500D01*
X149921158Y-30800500D01*
X150078844Y-30800500D01*
X150078845Y-30800499D01*
X150233497Y-30769737D01*
X150379179Y-30709394D01*
X150510289Y-30621789D01*
X150621789Y-30510289D01*
X150709394Y-30379179D01*
X150769737Y-30233497D01*
X150800500Y-30078842D01*
X150800500Y-29921158D01*
X150800500Y-29921155D01*
X150800499Y-29921153D01*
X151699500Y-29921153D01*
X151699500Y-30078846D01*
X151730261Y-30233489D01*
X151730264Y-30233501D01*
X151790602Y-30379172D01*
X151790609Y-30379185D01*
X151878210Y-30510288D01*
X151878213Y-30510292D01*
X151989707Y-30621786D01*
X151989711Y-30621789D01*
X152120814Y-30709390D01*
X152120827Y-30709397D01*
X152266498Y-30769735D01*
X152266503Y-30769737D01*
X152421153Y-30800499D01*
X152421156Y-30800500D01*
X152421158Y-30800500D01*
X152578844Y-30800500D01*
X152578845Y-30800499D01*
X152733497Y-30769737D01*
X152879179Y-30709394D01*
X153010289Y-30621789D01*
X153121789Y-30510289D01*
X153209394Y-30379179D01*
X153269737Y-30233497D01*
X153300500Y-30078842D01*
X153300500Y-29921158D01*
X153300500Y-29921155D01*
X153300499Y-29921153D01*
X154199500Y-29921153D01*
X154199500Y-30078846D01*
X154230261Y-30233489D01*
X154230264Y-30233501D01*
X154290602Y-30379172D01*
X154290609Y-30379185D01*
X154378210Y-30510288D01*
X154378213Y-30510292D01*
X154489707Y-30621786D01*
X154489711Y-30621789D01*
X154620814Y-30709390D01*
X154620827Y-30709397D01*
X154766498Y-30769735D01*
X154766503Y-30769737D01*
X154921153Y-30800499D01*
X154921156Y-30800500D01*
X154921158Y-30800500D01*
X155078844Y-30800500D01*
X155078845Y-30800499D01*
X155233497Y-30769737D01*
X155379179Y-30709394D01*
X155510289Y-30621789D01*
X155621789Y-30510289D01*
X155709394Y-30379179D01*
X155769737Y-30233497D01*
X155800500Y-30078842D01*
X155800500Y-29921158D01*
X155800500Y-29921155D01*
X155800499Y-29921153D01*
X155769737Y-29766503D01*
X155738251Y-29690488D01*
X155709397Y-29620827D01*
X155709390Y-29620814D01*
X155621789Y-29489711D01*
X155621786Y-29489707D01*
X155510292Y-29378213D01*
X155510288Y-29378210D01*
X155379185Y-29290609D01*
X155379172Y-29290602D01*
X155233501Y-29230264D01*
X155233489Y-29230261D01*
X155078845Y-29199500D01*
X155078842Y-29199500D01*
X154921158Y-29199500D01*
X154921155Y-29199500D01*
X154766510Y-29230261D01*
X154766498Y-29230264D01*
X154620827Y-29290602D01*
X154620814Y-29290609D01*
X154489711Y-29378210D01*
X154489707Y-29378213D01*
X154378213Y-29489707D01*
X154378210Y-29489711D01*
X154290609Y-29620814D01*
X154290602Y-29620827D01*
X154230264Y-29766498D01*
X154230261Y-29766510D01*
X154199500Y-29921153D01*
X153300499Y-29921153D01*
X153269737Y-29766503D01*
X153238251Y-29690488D01*
X153209397Y-29620827D01*
X153209390Y-29620814D01*
X153121789Y-29489711D01*
X153121786Y-29489707D01*
X153010292Y-29378213D01*
X153010288Y-29378210D01*
X152879185Y-29290609D01*
X152879172Y-29290602D01*
X152733501Y-29230264D01*
X152733489Y-29230261D01*
X152578845Y-29199500D01*
X152578842Y-29199500D01*
X152421158Y-29199500D01*
X152421155Y-29199500D01*
X152266510Y-29230261D01*
X152266498Y-29230264D01*
X152120827Y-29290602D01*
X152120814Y-29290609D01*
X151989711Y-29378210D01*
X151989707Y-29378213D01*
X151878213Y-29489707D01*
X151878210Y-29489711D01*
X151790609Y-29620814D01*
X151790602Y-29620827D01*
X151730264Y-29766498D01*
X151730261Y-29766510D01*
X151699500Y-29921153D01*
X150800499Y-29921153D01*
X150769737Y-29766503D01*
X150738251Y-29690488D01*
X150709397Y-29620827D01*
X150709390Y-29620814D01*
X150621789Y-29489711D01*
X150621786Y-29489707D01*
X150510292Y-29378213D01*
X150510288Y-29378210D01*
X150379185Y-29290609D01*
X150379172Y-29290602D01*
X150233501Y-29230264D01*
X150233489Y-29230261D01*
X150078845Y-29199500D01*
X150078842Y-29199500D01*
X149921158Y-29199500D01*
X149921155Y-29199500D01*
X149766510Y-29230261D01*
X149766498Y-29230264D01*
X149620827Y-29290602D01*
X149620814Y-29290609D01*
X149489711Y-29378210D01*
X149489707Y-29378213D01*
X149378213Y-29489707D01*
X149378210Y-29489711D01*
X149290609Y-29620814D01*
X149290602Y-29620827D01*
X149230264Y-29766498D01*
X149230261Y-29766510D01*
X149199500Y-29921153D01*
X148300499Y-29921153D01*
X148269737Y-29766503D01*
X148238251Y-29690488D01*
X148209397Y-29620827D01*
X148209390Y-29620814D01*
X148121789Y-29489711D01*
X148121786Y-29489707D01*
X148010292Y-29378213D01*
X148010288Y-29378210D01*
X147879185Y-29290609D01*
X147879172Y-29290602D01*
X147733501Y-29230264D01*
X147733489Y-29230261D01*
X147578845Y-29199500D01*
X147578842Y-29199500D01*
X147421158Y-29199500D01*
X147421155Y-29199500D01*
X147266510Y-29230261D01*
X147266498Y-29230264D01*
X147120827Y-29290602D01*
X147120814Y-29290609D01*
X146989711Y-29378210D01*
X146989707Y-29378213D01*
X146878213Y-29489707D01*
X146878210Y-29489711D01*
X146790609Y-29620814D01*
X146790602Y-29620827D01*
X146730264Y-29766498D01*
X146730261Y-29766510D01*
X146699500Y-29921153D01*
X145800499Y-29921153D01*
X145769737Y-29766503D01*
X145738251Y-29690488D01*
X145709397Y-29620827D01*
X145709390Y-29620814D01*
X145621789Y-29489711D01*
X145621786Y-29489707D01*
X145510292Y-29378213D01*
X145510288Y-29378210D01*
X145413858Y-29313777D01*
X145369053Y-29260165D01*
X145360346Y-29190840D01*
X145361132Y-29186483D01*
X145390500Y-29038844D01*
X145390500Y-28881155D01*
X145390499Y-28881153D01*
X145359738Y-28726510D01*
X145359737Y-28726503D01*
X145359735Y-28726498D01*
X145299397Y-28580827D01*
X145299390Y-28580814D01*
X145208405Y-28444646D01*
X145209869Y-28443667D01*
X145185820Y-28387032D01*
X145197615Y-28318165D01*
X145244771Y-28266607D01*
X145261520Y-28258129D01*
X145379179Y-28209394D01*
X145510289Y-28121789D01*
X145621789Y-28010289D01*
X145709394Y-27879179D01*
X145769737Y-27733497D01*
X145800500Y-27578842D01*
X145800500Y-27421158D01*
X145800500Y-27421155D01*
X145800499Y-27421153D01*
X145769738Y-27266510D01*
X145769737Y-27266503D01*
X145730572Y-27171951D01*
X145723104Y-27102483D01*
X145754379Y-27040004D01*
X145814468Y-27004352D01*
X145845134Y-27000500D01*
X146654866Y-27000500D01*
X146721905Y-27020185D01*
X146767660Y-27072989D01*
X146777604Y-27142147D01*
X146769427Y-27171953D01*
X146730263Y-27266502D01*
X146730261Y-27266510D01*
X146699500Y-27421153D01*
X146699500Y-27578846D01*
X146730261Y-27733489D01*
X146730264Y-27733501D01*
X146790602Y-27879172D01*
X146790609Y-27879185D01*
X146878210Y-28010288D01*
X146878213Y-28010292D01*
X146989707Y-28121786D01*
X146989711Y-28121789D01*
X147120814Y-28209390D01*
X147120827Y-28209397D01*
X147258946Y-28266607D01*
X147266503Y-28269737D01*
X147421153Y-28300499D01*
X147421156Y-28300500D01*
X147421158Y-28300500D01*
X147578844Y-28300500D01*
X147578845Y-28300499D01*
X147733497Y-28269737D01*
X147858868Y-28217807D01*
X147879172Y-28209397D01*
X147879172Y-28209396D01*
X147879179Y-28209394D01*
X148010289Y-28121789D01*
X148121789Y-28010289D01*
X148209394Y-27879179D01*
X148269737Y-27733497D01*
X148300500Y-27578842D01*
X148300500Y-27421158D01*
X148300500Y-27421155D01*
X148300499Y-27421153D01*
X148269738Y-27266510D01*
X148269737Y-27266503D01*
X148230572Y-27171951D01*
X148223104Y-27102483D01*
X148254379Y-27040004D01*
X148314468Y-27004352D01*
X148345134Y-27000500D01*
X149154866Y-27000500D01*
X149221905Y-27020185D01*
X149267660Y-27072989D01*
X149277604Y-27142147D01*
X149269427Y-27171953D01*
X149230263Y-27266502D01*
X149230261Y-27266510D01*
X149199500Y-27421153D01*
X149199500Y-27578846D01*
X149230261Y-27733489D01*
X149230264Y-27733501D01*
X149290602Y-27879172D01*
X149290609Y-27879185D01*
X149378210Y-28010288D01*
X149378213Y-28010292D01*
X149489707Y-28121786D01*
X149489711Y-28121789D01*
X149620814Y-28209390D01*
X149620827Y-28209397D01*
X149758946Y-28266607D01*
X149766503Y-28269737D01*
X149921153Y-28300499D01*
X149921156Y-28300500D01*
X149921158Y-28300500D01*
X150078844Y-28300500D01*
X150078845Y-28300499D01*
X150233497Y-28269737D01*
X150358868Y-28217807D01*
X150379172Y-28209397D01*
X150379172Y-28209396D01*
X150379179Y-28209394D01*
X150510289Y-28121789D01*
X150621789Y-28010289D01*
X150709394Y-27879179D01*
X150769737Y-27733497D01*
X150800500Y-27578842D01*
X150800500Y-27421158D01*
X150800500Y-27421155D01*
X150800499Y-27421153D01*
X150769738Y-27266510D01*
X150769737Y-27266503D01*
X150730572Y-27171951D01*
X150723104Y-27102483D01*
X150754379Y-27040004D01*
X150814468Y-27004352D01*
X150845134Y-27000500D01*
X151654866Y-27000500D01*
X151721905Y-27020185D01*
X151767660Y-27072989D01*
X151777604Y-27142147D01*
X151769427Y-27171953D01*
X151730263Y-27266502D01*
X151730261Y-27266510D01*
X151699500Y-27421153D01*
X151699500Y-27578846D01*
X151730261Y-27733489D01*
X151730264Y-27733501D01*
X151790602Y-27879172D01*
X151790609Y-27879185D01*
X151878210Y-28010288D01*
X151878213Y-28010292D01*
X151989707Y-28121786D01*
X151989711Y-28121789D01*
X152120814Y-28209390D01*
X152120827Y-28209397D01*
X152258946Y-28266607D01*
X152266503Y-28269737D01*
X152421153Y-28300499D01*
X152421156Y-28300500D01*
X152421158Y-28300500D01*
X152578844Y-28300500D01*
X152578845Y-28300499D01*
X152733497Y-28269737D01*
X152858868Y-28217807D01*
X152879172Y-28209397D01*
X152879172Y-28209396D01*
X152879179Y-28209394D01*
X153010289Y-28121789D01*
X153121789Y-28010289D01*
X153209394Y-27879179D01*
X153269737Y-27733497D01*
X153300500Y-27578842D01*
X153300500Y-27421158D01*
X153300500Y-27421155D01*
X153300499Y-27421153D01*
X153269738Y-27266510D01*
X153269737Y-27266503D01*
X153230572Y-27171951D01*
X153223104Y-27102483D01*
X153254379Y-27040004D01*
X153314468Y-27004352D01*
X153345134Y-27000500D01*
X154154866Y-27000500D01*
X154221905Y-27020185D01*
X154267660Y-27072989D01*
X154277604Y-27142147D01*
X154269427Y-27171953D01*
X154230263Y-27266502D01*
X154230261Y-27266510D01*
X154199500Y-27421153D01*
X154199500Y-27578846D01*
X154230261Y-27733489D01*
X154230264Y-27733501D01*
X154290602Y-27879172D01*
X154290609Y-27879185D01*
X154378210Y-28010288D01*
X154378213Y-28010292D01*
X154489707Y-28121786D01*
X154489711Y-28121789D01*
X154620814Y-28209390D01*
X154620827Y-28209397D01*
X154758946Y-28266607D01*
X154766503Y-28269737D01*
X154921153Y-28300499D01*
X154921156Y-28300500D01*
X154921158Y-28300500D01*
X155078844Y-28300500D01*
X155078845Y-28300499D01*
X155233497Y-28269737D01*
X155358868Y-28217807D01*
X155379172Y-28209397D01*
X155379172Y-28209396D01*
X155379179Y-28209394D01*
X155510289Y-28121789D01*
X155621789Y-28010289D01*
X155709394Y-27879179D01*
X155769737Y-27733497D01*
X155800500Y-27578842D01*
X155800500Y-27421158D01*
X155800500Y-27421155D01*
X155800499Y-27421153D01*
X155769738Y-27266510D01*
X155769737Y-27266503D01*
X155730572Y-27171951D01*
X155723104Y-27102483D01*
X155754379Y-27040004D01*
X155814468Y-27004352D01*
X155845134Y-27000500D01*
X156654866Y-27000500D01*
X156721905Y-27020185D01*
X156767660Y-27072989D01*
X156777604Y-27142147D01*
X156769427Y-27171953D01*
X156730263Y-27266502D01*
X156730261Y-27266510D01*
X156699500Y-27421153D01*
X156699500Y-27578846D01*
X156730261Y-27733489D01*
X156730264Y-27733501D01*
X156790602Y-27879172D01*
X156790609Y-27879185D01*
X156878210Y-28010288D01*
X156878213Y-28010292D01*
X156989707Y-28121786D01*
X156989711Y-28121789D01*
X157120814Y-28209390D01*
X157120827Y-28209397D01*
X157258946Y-28266607D01*
X157266503Y-28269737D01*
X157421153Y-28300499D01*
X157421156Y-28300500D01*
X157421158Y-28300500D01*
X157578844Y-28300500D01*
X157578845Y-28300499D01*
X157733497Y-28269737D01*
X157858868Y-28217807D01*
X157879172Y-28209397D01*
X157879172Y-28209396D01*
X157879179Y-28209394D01*
X158010289Y-28121789D01*
X158010292Y-28121786D01*
X158037819Y-28094260D01*
X158099142Y-28060775D01*
X158168834Y-28065759D01*
X158224767Y-28107631D01*
X158249184Y-28173095D01*
X158249500Y-28181941D01*
X158249500Y-29318059D01*
X158229815Y-29385098D01*
X158177011Y-29430853D01*
X158107853Y-29440797D01*
X158044297Y-29411772D01*
X158037819Y-29405740D01*
X158010292Y-29378213D01*
X158010288Y-29378210D01*
X157879185Y-29290609D01*
X157879172Y-29290602D01*
X157733501Y-29230264D01*
X157733489Y-29230261D01*
X157578845Y-29199500D01*
X157578842Y-29199500D01*
X157421158Y-29199500D01*
X157421155Y-29199500D01*
X157266510Y-29230261D01*
X157266498Y-29230264D01*
X157120827Y-29290602D01*
X157120814Y-29290609D01*
X156989711Y-29378210D01*
X156989707Y-29378213D01*
X156878213Y-29489707D01*
X156878210Y-29489711D01*
X156790609Y-29620814D01*
X156790602Y-29620827D01*
X156730264Y-29766498D01*
X156730261Y-29766510D01*
X156699500Y-29921153D01*
X156699500Y-30078846D01*
X156730261Y-30233489D01*
X156730264Y-30233501D01*
X156790602Y-30379172D01*
X156790609Y-30379185D01*
X156878210Y-30510288D01*
X156878213Y-30510292D01*
X156989707Y-30621786D01*
X156989711Y-30621789D01*
X157120814Y-30709390D01*
X157120827Y-30709397D01*
X157266498Y-30769735D01*
X157266503Y-30769737D01*
X157421153Y-30800499D01*
X157421156Y-30800500D01*
X157421158Y-30800500D01*
X157578844Y-30800500D01*
X157578845Y-30800499D01*
X157733497Y-30769737D01*
X157879179Y-30709394D01*
X158010289Y-30621789D01*
X158010292Y-30621786D01*
X158037819Y-30594260D01*
X158099142Y-30560775D01*
X158168834Y-30565759D01*
X158224767Y-30607631D01*
X158249184Y-30673095D01*
X158249500Y-30681941D01*
X158249500Y-31818059D01*
X158229815Y-31885098D01*
X158177011Y-31930853D01*
X158107853Y-31940797D01*
X158044297Y-31911772D01*
X158037819Y-31905740D01*
X158010292Y-31878213D01*
X158010288Y-31878210D01*
X157879185Y-31790609D01*
X157879172Y-31790602D01*
X157733501Y-31730264D01*
X157733489Y-31730261D01*
X157578845Y-31699500D01*
X157578842Y-31699500D01*
X157421158Y-31699500D01*
X157421155Y-31699500D01*
X157266510Y-31730261D01*
X157266498Y-31730264D01*
X157120827Y-31790602D01*
X157120814Y-31790609D01*
X156989711Y-31878210D01*
X156989707Y-31878213D01*
X156878213Y-31989707D01*
X156878210Y-31989711D01*
X156790609Y-32120814D01*
X156790602Y-32120827D01*
X156730264Y-32266498D01*
X156730261Y-32266510D01*
X156699500Y-32421153D01*
X156699500Y-32578846D01*
X156730261Y-32733489D01*
X156730264Y-32733501D01*
X156790602Y-32879172D01*
X156790609Y-32879185D01*
X156878210Y-33010288D01*
X156878213Y-33010292D01*
X156989707Y-33121786D01*
X156989711Y-33121789D01*
X157120814Y-33209390D01*
X157120827Y-33209397D01*
X157266498Y-33269735D01*
X157266503Y-33269737D01*
X157421153Y-33300499D01*
X157421156Y-33300500D01*
X157421158Y-33300500D01*
X157578844Y-33300500D01*
X157578845Y-33300499D01*
X157733497Y-33269737D01*
X157879179Y-33209394D01*
X158010289Y-33121789D01*
X158010292Y-33121786D01*
X158037819Y-33094260D01*
X158099142Y-33060775D01*
X158168834Y-33065759D01*
X158224767Y-33107631D01*
X158249184Y-33173095D01*
X158249500Y-33181941D01*
X158249500Y-34318059D01*
X158229815Y-34385098D01*
X158177011Y-34430853D01*
X158107853Y-34440797D01*
X158044297Y-34411772D01*
X158037819Y-34405740D01*
X158010292Y-34378213D01*
X158010288Y-34378210D01*
X157879185Y-34290609D01*
X157879172Y-34290602D01*
X157733501Y-34230264D01*
X157733489Y-34230261D01*
X157578845Y-34199500D01*
X157578842Y-34199500D01*
X157421158Y-34199500D01*
X157421155Y-34199500D01*
X157266510Y-34230261D01*
X157266498Y-34230264D01*
X157120827Y-34290602D01*
X157120814Y-34290609D01*
X156989711Y-34378210D01*
X156989707Y-34378213D01*
X156878213Y-34489707D01*
X156878210Y-34489711D01*
X156790609Y-34620814D01*
X156790602Y-34620827D01*
X156730264Y-34766498D01*
X156730261Y-34766510D01*
X156699500Y-34921153D01*
X156699500Y-35078846D01*
X156730261Y-35233489D01*
X156730264Y-35233501D01*
X156790602Y-35379172D01*
X156790609Y-35379185D01*
X156878210Y-35510288D01*
X156878213Y-35510292D01*
X156989707Y-35621786D01*
X156989711Y-35621789D01*
X157120814Y-35709390D01*
X157120827Y-35709397D01*
X157266498Y-35769735D01*
X157266503Y-35769737D01*
X157416131Y-35799500D01*
X157421153Y-35800499D01*
X157421156Y-35800500D01*
X157421158Y-35800500D01*
X157578844Y-35800500D01*
X157578845Y-35800499D01*
X157733497Y-35769737D01*
X157879179Y-35709394D01*
X158010289Y-35621789D01*
X158015180Y-35616898D01*
X158037819Y-35594260D01*
X158099142Y-35560775D01*
X158168834Y-35565759D01*
X158224767Y-35607631D01*
X158249184Y-35673095D01*
X158249500Y-35681941D01*
X158249500Y-45456810D01*
X158229815Y-45523849D01*
X158177011Y-45569604D01*
X158126219Y-45580808D01*
X142210904Y-45673041D01*
X142143751Y-45653745D01*
X142097691Y-45601207D01*
X142089818Y-45578841D01*
X141659710Y-43841153D01*
X144979500Y-43841153D01*
X144979500Y-43998846D01*
X145010261Y-44153489D01*
X145010264Y-44153501D01*
X145070602Y-44299172D01*
X145070609Y-44299185D01*
X145158210Y-44430288D01*
X145158213Y-44430292D01*
X145269707Y-44541786D01*
X145269711Y-44541789D01*
X145400814Y-44629390D01*
X145400827Y-44629397D01*
X145546498Y-44689735D01*
X145546503Y-44689737D01*
X145701153Y-44720499D01*
X145701156Y-44720500D01*
X145701158Y-44720500D01*
X145858844Y-44720500D01*
X145858845Y-44720499D01*
X146013497Y-44689737D01*
X146159179Y-44629394D01*
X146290289Y-44541789D01*
X146401789Y-44430289D01*
X146489394Y-44299179D01*
X146549737Y-44153497D01*
X146580500Y-43998842D01*
X146580500Y-43841158D01*
X146580500Y-43841155D01*
X146580499Y-43841153D01*
X146549738Y-43686510D01*
X146549737Y-43686503D01*
X146522082Y-43619737D01*
X146489397Y-43540827D01*
X146489390Y-43540814D01*
X146401789Y-43409711D01*
X146401786Y-43409707D01*
X146290292Y-43298213D01*
X146290288Y-43298210D01*
X146159185Y-43210609D01*
X146159172Y-43210602D01*
X146013501Y-43150264D01*
X146013489Y-43150261D01*
X145858845Y-43119500D01*
X145858842Y-43119500D01*
X145701158Y-43119500D01*
X145701155Y-43119500D01*
X145546510Y-43150261D01*
X145546498Y-43150264D01*
X145400827Y-43210602D01*
X145400814Y-43210609D01*
X145269711Y-43298210D01*
X145269707Y-43298213D01*
X145158213Y-43409707D01*
X145158210Y-43409711D01*
X145070609Y-43540814D01*
X145070602Y-43540827D01*
X145010264Y-43686498D01*
X145010261Y-43686510D01*
X144979500Y-43841153D01*
X141659710Y-43841153D01*
X141308236Y-42421153D01*
X146699500Y-42421153D01*
X146699500Y-42578846D01*
X146730261Y-42733489D01*
X146730264Y-42733501D01*
X146790602Y-42879172D01*
X146790609Y-42879185D01*
X146878210Y-43010288D01*
X146878213Y-43010292D01*
X146989707Y-43121786D01*
X146989711Y-43121789D01*
X147120814Y-43209390D01*
X147120827Y-43209397D01*
X147264342Y-43268842D01*
X147266503Y-43269737D01*
X147409661Y-43298213D01*
X147421153Y-43300499D01*
X147421156Y-43300500D01*
X147421158Y-43300500D01*
X147578844Y-43300500D01*
X147578845Y-43300499D01*
X147733497Y-43269737D01*
X147879179Y-43209394D01*
X148010289Y-43121789D01*
X148121789Y-43010289D01*
X148209394Y-42879179D01*
X148269737Y-42733497D01*
X148300500Y-42578842D01*
X148300500Y-42421158D01*
X148300500Y-42421155D01*
X148300499Y-42421153D01*
X148269738Y-42266510D01*
X148269737Y-42266503D01*
X148253876Y-42228211D01*
X148209397Y-42120827D01*
X148209390Y-42120814D01*
X148121789Y-41989711D01*
X148121786Y-41989707D01*
X148010292Y-41878213D01*
X148010288Y-41878210D01*
X147879185Y-41790609D01*
X147879172Y-41790602D01*
X147733501Y-41730264D01*
X147733489Y-41730261D01*
X147578845Y-41699500D01*
X147578842Y-41699500D01*
X147421158Y-41699500D01*
X147421155Y-41699500D01*
X147266510Y-41730261D01*
X147266498Y-41730264D01*
X147120827Y-41790602D01*
X147120814Y-41790609D01*
X146989711Y-41878210D01*
X146989707Y-41878213D01*
X146878213Y-41989707D01*
X146878210Y-41989711D01*
X146790609Y-42120814D01*
X146790602Y-42120827D01*
X146730264Y-42266498D01*
X146730261Y-42266510D01*
X146699500Y-42421153D01*
X141308236Y-42421153D01*
X140442676Y-38924186D01*
X140445677Y-38854384D01*
X140469444Y-38816247D01*
X140467924Y-38814999D01*
X140471789Y-38810289D01*
X140559390Y-38679185D01*
X140559390Y-38679184D01*
X140559394Y-38679179D01*
X140619737Y-38533497D01*
X140642083Y-38421158D01*
X140642084Y-38421153D01*
X143449500Y-38421153D01*
X143449500Y-38578846D01*
X143480261Y-38733489D01*
X143480264Y-38733501D01*
X143540602Y-38879172D01*
X143540609Y-38879185D01*
X143628210Y-39010288D01*
X143628213Y-39010292D01*
X143739707Y-39121786D01*
X143739711Y-39121789D01*
X143870814Y-39209390D01*
X143870827Y-39209397D01*
X144016498Y-39269735D01*
X144016503Y-39269737D01*
X144129326Y-39292179D01*
X144171153Y-39300499D01*
X144171156Y-39300500D01*
X144171158Y-39300500D01*
X144328844Y-39300500D01*
X144328845Y-39300499D01*
X144483497Y-39269737D01*
X144629179Y-39209394D01*
X144686411Y-39171153D01*
X146699500Y-39171153D01*
X146699500Y-39328846D01*
X146730261Y-39483489D01*
X146730264Y-39483501D01*
X146790602Y-39629172D01*
X146790609Y-39629185D01*
X146878210Y-39760288D01*
X146878213Y-39760292D01*
X146989707Y-39871786D01*
X146989711Y-39871789D01*
X147120814Y-39959390D01*
X147120827Y-39959397D01*
X147266498Y-40019735D01*
X147266503Y-40019737D01*
X147421153Y-40050499D01*
X147421156Y-40050500D01*
X147421158Y-40050500D01*
X147578844Y-40050500D01*
X147578845Y-40050499D01*
X147733497Y-40019737D01*
X147879179Y-39959394D01*
X148010289Y-39871789D01*
X148121789Y-39760289D01*
X148209394Y-39629179D01*
X148269737Y-39483497D01*
X148300500Y-39328842D01*
X148300500Y-39171158D01*
X148300500Y-39171155D01*
X148300499Y-39171153D01*
X148280326Y-39069737D01*
X148269737Y-39016503D01*
X148255196Y-38981398D01*
X148209397Y-38870827D01*
X148209390Y-38870814D01*
X148121789Y-38739711D01*
X148121786Y-38739707D01*
X148010292Y-38628213D01*
X148010288Y-38628210D01*
X147879185Y-38540609D01*
X147879172Y-38540602D01*
X147733501Y-38480264D01*
X147733489Y-38480261D01*
X147578845Y-38449500D01*
X147578842Y-38449500D01*
X147421158Y-38449500D01*
X147421155Y-38449500D01*
X147266510Y-38480261D01*
X147266498Y-38480264D01*
X147120827Y-38540602D01*
X147120814Y-38540609D01*
X146989711Y-38628210D01*
X146989707Y-38628213D01*
X146878213Y-38739707D01*
X146878210Y-38739711D01*
X146790609Y-38870814D01*
X146790602Y-38870827D01*
X146730264Y-39016498D01*
X146730261Y-39016510D01*
X146699500Y-39171153D01*
X144686411Y-39171153D01*
X144760289Y-39121789D01*
X144781578Y-39100500D01*
X144804694Y-39077385D01*
X144871786Y-39010292D01*
X144871789Y-39010289D01*
X144959394Y-38879179D01*
X144962854Y-38870827D01*
X144987929Y-38810289D01*
X145019737Y-38733497D01*
X145050500Y-38578842D01*
X145050500Y-38421158D01*
X145050500Y-38421155D01*
X145050499Y-38421153D01*
X145019738Y-38266510D01*
X145019737Y-38266503D01*
X145014060Y-38252797D01*
X144959397Y-38120827D01*
X144959390Y-38120814D01*
X144871789Y-37989711D01*
X144871786Y-37989707D01*
X144760292Y-37878213D01*
X144760288Y-37878210D01*
X144629185Y-37790609D01*
X144629172Y-37790602D01*
X144483501Y-37730264D01*
X144483489Y-37730261D01*
X144328845Y-37699500D01*
X144328842Y-37699500D01*
X144171158Y-37699500D01*
X144171155Y-37699500D01*
X144016510Y-37730261D01*
X144016498Y-37730264D01*
X143870827Y-37790602D01*
X143870814Y-37790609D01*
X143739711Y-37878210D01*
X143739707Y-37878213D01*
X143628213Y-37989707D01*
X143628210Y-37989711D01*
X143540609Y-38120814D01*
X143540602Y-38120827D01*
X143480264Y-38266498D01*
X143480261Y-38266510D01*
X143449500Y-38421153D01*
X140642084Y-38421153D01*
X140648107Y-38390875D01*
X140648107Y-38390874D01*
X140650500Y-38378844D01*
X140650500Y-38221155D01*
X140650499Y-38221153D01*
X140630543Y-38120827D01*
X140619737Y-38066503D01*
X140587929Y-37989711D01*
X140559397Y-37920827D01*
X140559390Y-37920814D01*
X140471789Y-37789711D01*
X140471786Y-37789707D01*
X140360292Y-37678213D01*
X140360288Y-37678210D01*
X140229185Y-37590609D01*
X140229180Y-37590607D01*
X140229179Y-37590606D01*
X140205911Y-37580968D01*
X140157138Y-37560765D01*
X140102735Y-37516923D01*
X140084224Y-37475997D01*
X140057922Y-37369735D01*
X139991512Y-37101429D01*
X139994513Y-37031627D01*
X139997319Y-37024186D01*
X139999391Y-37019183D01*
X139999394Y-37019179D01*
X140059737Y-36873497D01*
X140090500Y-36718842D01*
X140090500Y-36561158D01*
X140090500Y-36561155D01*
X140090499Y-36561153D01*
X140082542Y-36521153D01*
X140059737Y-36406503D01*
X140045097Y-36371158D01*
X139999397Y-36260827D01*
X139999390Y-36260814D01*
X139911789Y-36129711D01*
X139911786Y-36129707D01*
X139800292Y-36018213D01*
X139800287Y-36018209D01*
X139773279Y-36000163D01*
X139748095Y-35983336D01*
X139703291Y-35929727D01*
X139696623Y-35910044D01*
X139509561Y-35154289D01*
X139512562Y-35084488D01*
X139552826Y-35027386D01*
X139617569Y-35001118D01*
X139629929Y-35000500D01*
X139678844Y-35000500D01*
X139678845Y-35000499D01*
X139833497Y-34969737D01*
X139979179Y-34909394D01*
X140006479Y-34891153D01*
X140699500Y-34891153D01*
X140699500Y-35048846D01*
X140730261Y-35203489D01*
X140730264Y-35203501D01*
X140790602Y-35349172D01*
X140790609Y-35349185D01*
X140878210Y-35480288D01*
X140878213Y-35480292D01*
X140989707Y-35591786D01*
X140989710Y-35591788D01*
X140989711Y-35591789D01*
X141013420Y-35607631D01*
X141027289Y-35616898D01*
X141072093Y-35670511D01*
X141080800Y-35739836D01*
X141050645Y-35802863D01*
X141027289Y-35823102D01*
X140989707Y-35848213D01*
X140878213Y-35959707D01*
X140878210Y-35959711D01*
X140790609Y-36090814D01*
X140790602Y-36090827D01*
X140730264Y-36236498D01*
X140730261Y-36236510D01*
X140699500Y-36391153D01*
X140699500Y-36548846D01*
X140730261Y-36703489D01*
X140730264Y-36703501D01*
X140790602Y-36849172D01*
X140790609Y-36849185D01*
X140878210Y-36980288D01*
X140878213Y-36980292D01*
X140989707Y-37091786D01*
X140989711Y-37091789D01*
X141120814Y-37179390D01*
X141120827Y-37179397D01*
X141223165Y-37221786D01*
X141266503Y-37239737D01*
X141421153Y-37270499D01*
X141421156Y-37270500D01*
X141421158Y-37270500D01*
X141578844Y-37270500D01*
X141578845Y-37270499D01*
X141733497Y-37239737D01*
X141806691Y-37209418D01*
X141876158Y-37201950D01*
X141901592Y-37209418D01*
X141926503Y-37219737D01*
X142081153Y-37250499D01*
X142081156Y-37250500D01*
X142081158Y-37250500D01*
X142238844Y-37250500D01*
X142238845Y-37250499D01*
X142393497Y-37219737D01*
X142539179Y-37159394D01*
X142670289Y-37071789D01*
X142781789Y-36960289D01*
X142851058Y-36856621D01*
X142904670Y-36811816D01*
X142973995Y-36803109D01*
X143037022Y-36833263D01*
X143068721Y-36878060D01*
X143110602Y-36979172D01*
X143110609Y-36979185D01*
X143198210Y-37110288D01*
X143198213Y-37110292D01*
X143309707Y-37221786D01*
X143309711Y-37221789D01*
X143440814Y-37309390D01*
X143440827Y-37309397D01*
X143537390Y-37349394D01*
X143586503Y-37369737D01*
X143741153Y-37400499D01*
X143741156Y-37400500D01*
X143741158Y-37400500D01*
X143898844Y-37400500D01*
X143898845Y-37400499D01*
X144053497Y-37369737D01*
X144199179Y-37309394D01*
X144330289Y-37221789D01*
X144441789Y-37110289D01*
X144529394Y-36979179D01*
X144582908Y-36849983D01*
X151144500Y-36849983D01*
X151144500Y-38150001D01*
X151144501Y-38150018D01*
X151155000Y-38252796D01*
X151155001Y-38252799D01*
X151210185Y-38419331D01*
X151210186Y-38419334D01*
X151302288Y-38568656D01*
X151426344Y-38692712D01*
X151502535Y-38739707D01*
X151581120Y-38788178D01*
X151627845Y-38840126D01*
X151639068Y-38909088D01*
X151611224Y-38973171D01*
X151603706Y-38981398D01*
X151464889Y-39120215D01*
X151339951Y-39292179D01*
X151243444Y-39481585D01*
X151177753Y-39683760D01*
X151144500Y-39893713D01*
X151144500Y-40106286D01*
X151177753Y-40316239D01*
X151243444Y-40518414D01*
X151339951Y-40707820D01*
X151464890Y-40879786D01*
X151615209Y-41030105D01*
X151615214Y-41030109D01*
X151779793Y-41149682D01*
X151822459Y-41205011D01*
X151828438Y-41274625D01*
X151795833Y-41336420D01*
X151779793Y-41350318D01*
X151615214Y-41469890D01*
X151615209Y-41469894D01*
X151464890Y-41620213D01*
X151339951Y-41792179D01*
X151243444Y-41981585D01*
X151177753Y-42183760D01*
X151170713Y-42228211D01*
X151144500Y-42393713D01*
X151144500Y-42606287D01*
X151177754Y-42816243D01*
X151240803Y-43010288D01*
X151243444Y-43018414D01*
X151339951Y-43207820D01*
X151464890Y-43379786D01*
X151615213Y-43530109D01*
X151787179Y-43655048D01*
X151787181Y-43655049D01*
X151787184Y-43655051D01*
X151976588Y-43751557D01*
X152178757Y-43817246D01*
X152388713Y-43850500D01*
X152388714Y-43850500D01*
X152851286Y-43850500D01*
X152851287Y-43850500D01*
X153061243Y-43817246D01*
X153263412Y-43751557D01*
X153452816Y-43655051D01*
X153501422Y-43619737D01*
X153624786Y-43530109D01*
X153624788Y-43530106D01*
X153624792Y-43530104D01*
X153775104Y-43379792D01*
X153775106Y-43379788D01*
X153775109Y-43379786D01*
X153898902Y-43209397D01*
X153900051Y-43207816D01*
X153996557Y-43018412D01*
X154062246Y-42816243D01*
X154095500Y-42606287D01*
X154095500Y-42393713D01*
X154062246Y-42183757D01*
X153996557Y-41981588D01*
X153900051Y-41792184D01*
X153900049Y-41792181D01*
X153900048Y-41792179D01*
X153775109Y-41620213D01*
X153624792Y-41469896D01*
X153624247Y-41469500D01*
X153460204Y-41350316D01*
X153417540Y-41294989D01*
X153411561Y-41225376D01*
X153444166Y-41163580D01*
X153460199Y-41149686D01*
X153624792Y-41030104D01*
X153775104Y-40879792D01*
X153775106Y-40879788D01*
X153775109Y-40879786D01*
X153900048Y-40707820D01*
X153900047Y-40707820D01*
X153900051Y-40707816D01*
X153996557Y-40518412D01*
X154062246Y-40316243D01*
X154095500Y-40106287D01*
X154095500Y-39893713D01*
X154062246Y-39683757D01*
X153996557Y-39481588D01*
X153900051Y-39292184D01*
X153900049Y-39292181D01*
X153900048Y-39292179D01*
X153775109Y-39120213D01*
X153636294Y-38981398D01*
X153602809Y-38920075D01*
X153607793Y-38850383D01*
X153649665Y-38794450D01*
X153658879Y-38788178D01*
X153664331Y-38784814D01*
X153664334Y-38784814D01*
X153813656Y-38692712D01*
X153937712Y-38568656D01*
X154029814Y-38419334D01*
X154084999Y-38252797D01*
X154095500Y-38150009D01*
X154095499Y-36849992D01*
X154093814Y-36833501D01*
X154084999Y-36747203D01*
X154084998Y-36747200D01*
X154075601Y-36718842D01*
X154029814Y-36580666D01*
X153937712Y-36431344D01*
X153813656Y-36307288D01*
X153698895Y-36236503D01*
X153664336Y-36215187D01*
X153664331Y-36215185D01*
X153662862Y-36214698D01*
X153497797Y-36160001D01*
X153497795Y-36160000D01*
X153395010Y-36149500D01*
X151844998Y-36149500D01*
X151844981Y-36149501D01*
X151742203Y-36160000D01*
X151742200Y-36160001D01*
X151575668Y-36215185D01*
X151575663Y-36215187D01*
X151426342Y-36307289D01*
X151302289Y-36431342D01*
X151210187Y-36580663D01*
X151210186Y-36580666D01*
X151155001Y-36747203D01*
X151155001Y-36747204D01*
X151155000Y-36747204D01*
X151144500Y-36849983D01*
X144582908Y-36849983D01*
X144589737Y-36833497D01*
X144591897Y-36822639D01*
X144591898Y-36822636D01*
X144620499Y-36678846D01*
X144620500Y-36678844D01*
X144620500Y-36521155D01*
X144620499Y-36521153D01*
X144597695Y-36406510D01*
X144589737Y-36366503D01*
X144545965Y-36260827D01*
X144529397Y-36220827D01*
X144529390Y-36220814D01*
X144441789Y-36089711D01*
X144441786Y-36089707D01*
X144330292Y-35978213D01*
X144330288Y-35978210D01*
X144199185Y-35890609D01*
X144199172Y-35890602D01*
X144053501Y-35830264D01*
X144053489Y-35830261D01*
X143898845Y-35799500D01*
X143898842Y-35799500D01*
X143741158Y-35799500D01*
X143741155Y-35799500D01*
X143586510Y-35830261D01*
X143586498Y-35830264D01*
X143440827Y-35890602D01*
X143440814Y-35890609D01*
X143309711Y-35978210D01*
X143309707Y-35978213D01*
X143198213Y-36089707D01*
X143128941Y-36193379D01*
X143075328Y-36238183D01*
X143006003Y-36246890D01*
X142942976Y-36216735D01*
X142911278Y-36171939D01*
X142869397Y-36070826D01*
X142869390Y-36070814D01*
X142781789Y-35939711D01*
X142781786Y-35939707D01*
X142670292Y-35828213D01*
X142670288Y-35828210D01*
X142539185Y-35740609D01*
X142539172Y-35740602D01*
X142393501Y-35680264D01*
X142393489Y-35680261D01*
X142238846Y-35649500D01*
X142232782Y-35648903D01*
X142232947Y-35647219D01*
X142173675Y-35629815D01*
X142127920Y-35577011D01*
X142117976Y-35507853D01*
X142137612Y-35456609D01*
X142209390Y-35349185D01*
X142209390Y-35349184D01*
X142209394Y-35349179D01*
X142269737Y-35203497D01*
X142300500Y-35048842D01*
X142300500Y-34921153D01*
X144199500Y-34921153D01*
X144199500Y-35078846D01*
X144230261Y-35233489D01*
X144230264Y-35233501D01*
X144290602Y-35379172D01*
X144290609Y-35379185D01*
X144378210Y-35510288D01*
X144378213Y-35510292D01*
X144489707Y-35621786D01*
X144489711Y-35621789D01*
X144620814Y-35709390D01*
X144620827Y-35709397D01*
X144766498Y-35769735D01*
X144766503Y-35769737D01*
X144916131Y-35799500D01*
X144921153Y-35800499D01*
X144921156Y-35800500D01*
X144921158Y-35800500D01*
X145078844Y-35800500D01*
X145078845Y-35800499D01*
X145233497Y-35769737D01*
X145379179Y-35709394D01*
X145510289Y-35621789D01*
X145621789Y-35510289D01*
X145709394Y-35379179D01*
X145769737Y-35233497D01*
X145800500Y-35078842D01*
X145800500Y-34921158D01*
X145800500Y-34921155D01*
X145800499Y-34921153D01*
X145792166Y-34879257D01*
X145788565Y-34861153D01*
X146699500Y-34861153D01*
X146699500Y-35018846D01*
X146730261Y-35173489D01*
X146730264Y-35173501D01*
X146790602Y-35319172D01*
X146790609Y-35319185D01*
X146878210Y-35450288D01*
X146878213Y-35450292D01*
X146989707Y-35561786D01*
X146989711Y-35561789D01*
X147120814Y-35649390D01*
X147120827Y-35649397D01*
X147265665Y-35709390D01*
X147266503Y-35709737D01*
X147369553Y-35730235D01*
X147421153Y-35740499D01*
X147421156Y-35740500D01*
X147421158Y-35740500D01*
X147578844Y-35740500D01*
X147578845Y-35740499D01*
X147733497Y-35709737D01*
X147846166Y-35663067D01*
X147879172Y-35649397D01*
X147879172Y-35649396D01*
X147879179Y-35649394D01*
X148010289Y-35561789D01*
X148121789Y-35450289D01*
X148209394Y-35319179D01*
X148269737Y-35173497D01*
X148300500Y-35018842D01*
X148300500Y-34921153D01*
X149199500Y-34921153D01*
X149199500Y-35078846D01*
X149230261Y-35233489D01*
X149230264Y-35233501D01*
X149290602Y-35379172D01*
X149290609Y-35379185D01*
X149378210Y-35510288D01*
X149378213Y-35510292D01*
X149489707Y-35621786D01*
X149489711Y-35621789D01*
X149620814Y-35709390D01*
X149620827Y-35709397D01*
X149766498Y-35769735D01*
X149766503Y-35769737D01*
X149916131Y-35799500D01*
X149921153Y-35800499D01*
X149921156Y-35800500D01*
X149921158Y-35800500D01*
X150078844Y-35800500D01*
X150078845Y-35800499D01*
X150233497Y-35769737D01*
X150379179Y-35709394D01*
X150510289Y-35621789D01*
X150621789Y-35510289D01*
X150709394Y-35379179D01*
X150769737Y-35233497D01*
X150800500Y-35078842D01*
X150800500Y-34921158D01*
X150800500Y-34921155D01*
X150800499Y-34921153D01*
X151699500Y-34921153D01*
X151699500Y-35078846D01*
X151730261Y-35233489D01*
X151730264Y-35233501D01*
X151790602Y-35379172D01*
X151790609Y-35379185D01*
X151878210Y-35510288D01*
X151878213Y-35510292D01*
X151989707Y-35621786D01*
X151989711Y-35621789D01*
X152120814Y-35709390D01*
X152120827Y-35709397D01*
X152266498Y-35769735D01*
X152266503Y-35769737D01*
X152416131Y-35799500D01*
X152421153Y-35800499D01*
X152421156Y-35800500D01*
X152421158Y-35800500D01*
X152578844Y-35800500D01*
X152578845Y-35800499D01*
X152733497Y-35769737D01*
X152879179Y-35709394D01*
X153010289Y-35621789D01*
X153121789Y-35510289D01*
X153209394Y-35379179D01*
X153269737Y-35233497D01*
X153300500Y-35078842D01*
X153300500Y-34921158D01*
X153300500Y-34921155D01*
X153294155Y-34889258D01*
X153294155Y-34889257D01*
X153290554Y-34871153D01*
X154199500Y-34871153D01*
X154199500Y-35028846D01*
X154230261Y-35183489D01*
X154230264Y-35183501D01*
X154290602Y-35329172D01*
X154290609Y-35329185D01*
X154378210Y-35460288D01*
X154378213Y-35460292D01*
X154489707Y-35571786D01*
X154489711Y-35571789D01*
X154620814Y-35659390D01*
X154620827Y-35659397D01*
X154742363Y-35709738D01*
X154766503Y-35719737D01*
X154921153Y-35750499D01*
X154921156Y-35750500D01*
X154921158Y-35750500D01*
X155078844Y-35750500D01*
X155078845Y-35750499D01*
X155233497Y-35719737D01*
X155379179Y-35659394D01*
X155510289Y-35571789D01*
X155621789Y-35460289D01*
X155709394Y-35329179D01*
X155769737Y-35183497D01*
X155800500Y-35028842D01*
X155800500Y-34871158D01*
X155800500Y-34871155D01*
X155800499Y-34871153D01*
X155790679Y-34821786D01*
X155769737Y-34716503D01*
X155717681Y-34590827D01*
X155709397Y-34570827D01*
X155709390Y-34570814D01*
X155621789Y-34439711D01*
X155621786Y-34439707D01*
X155510292Y-34328213D01*
X155510288Y-34328210D01*
X155379185Y-34240609D01*
X155379172Y-34240602D01*
X155233501Y-34180264D01*
X155233489Y-34180261D01*
X155078845Y-34149500D01*
X155078842Y-34149500D01*
X154921158Y-34149500D01*
X154921155Y-34149500D01*
X154766510Y-34180261D01*
X154766498Y-34180264D01*
X154620827Y-34240602D01*
X154620814Y-34240609D01*
X154489711Y-34328210D01*
X154489707Y-34328213D01*
X154378213Y-34439707D01*
X154378210Y-34439711D01*
X154290609Y-34570814D01*
X154290602Y-34570827D01*
X154230264Y-34716498D01*
X154230261Y-34716510D01*
X154199500Y-34871153D01*
X153290554Y-34871153D01*
X153269738Y-34766510D01*
X153269738Y-34766508D01*
X153269737Y-34766503D01*
X153249500Y-34717646D01*
X153209397Y-34620827D01*
X153209390Y-34620814D01*
X153121789Y-34489711D01*
X153121786Y-34489707D01*
X153010292Y-34378213D01*
X153010288Y-34378210D01*
X152879185Y-34290609D01*
X152879172Y-34290602D01*
X152733501Y-34230264D01*
X152733489Y-34230261D01*
X152578845Y-34199500D01*
X152578842Y-34199500D01*
X152421158Y-34199500D01*
X152421155Y-34199500D01*
X152266510Y-34230261D01*
X152266498Y-34230264D01*
X152120827Y-34290602D01*
X152120814Y-34290609D01*
X151989711Y-34378210D01*
X151989707Y-34378213D01*
X151878213Y-34489707D01*
X151878210Y-34489711D01*
X151790609Y-34620814D01*
X151790602Y-34620827D01*
X151730264Y-34766498D01*
X151730261Y-34766510D01*
X151699500Y-34921153D01*
X150800499Y-34921153D01*
X150788565Y-34861158D01*
X150769737Y-34766503D01*
X150749500Y-34717646D01*
X150709397Y-34620827D01*
X150709390Y-34620814D01*
X150621789Y-34489711D01*
X150621786Y-34489707D01*
X150510292Y-34378213D01*
X150510288Y-34378210D01*
X150379185Y-34290609D01*
X150379172Y-34290602D01*
X150233501Y-34230264D01*
X150233489Y-34230261D01*
X150078845Y-34199500D01*
X150078842Y-34199500D01*
X149921158Y-34199500D01*
X149921155Y-34199500D01*
X149766510Y-34230261D01*
X149766498Y-34230264D01*
X149620827Y-34290602D01*
X149620814Y-34290609D01*
X149489711Y-34378210D01*
X149489707Y-34378213D01*
X149378213Y-34489707D01*
X149378210Y-34489711D01*
X149290609Y-34620814D01*
X149290602Y-34620827D01*
X149230264Y-34766498D01*
X149230261Y-34766510D01*
X149199500Y-34921153D01*
X148300500Y-34921153D01*
X148300500Y-34861158D01*
X148300500Y-34861155D01*
X148300499Y-34861153D01*
X148281671Y-34766498D01*
X148269737Y-34706503D01*
X148221823Y-34590827D01*
X148209397Y-34560827D01*
X148209390Y-34560814D01*
X148121789Y-34429711D01*
X148121786Y-34429707D01*
X148010292Y-34318213D01*
X148010288Y-34318210D01*
X147879185Y-34230609D01*
X147879172Y-34230602D01*
X147733501Y-34170264D01*
X147733489Y-34170261D01*
X147578845Y-34139500D01*
X147578842Y-34139500D01*
X147421158Y-34139500D01*
X147421155Y-34139500D01*
X147266510Y-34170261D01*
X147266498Y-34170264D01*
X147120827Y-34230602D01*
X147120814Y-34230609D01*
X146989711Y-34318210D01*
X146989707Y-34318213D01*
X146878213Y-34429707D01*
X146878210Y-34429711D01*
X146790609Y-34560814D01*
X146790602Y-34560827D01*
X146730264Y-34706498D01*
X146730261Y-34706510D01*
X146699500Y-34861153D01*
X145788565Y-34861153D01*
X145769738Y-34766508D01*
X145769737Y-34766507D01*
X145769737Y-34766503D01*
X145749500Y-34717646D01*
X145709397Y-34620827D01*
X145709390Y-34620814D01*
X145621789Y-34489711D01*
X145621786Y-34489707D01*
X145510292Y-34378213D01*
X145510288Y-34378210D01*
X145379185Y-34290609D01*
X145379172Y-34290602D01*
X145233501Y-34230264D01*
X145233489Y-34230261D01*
X145078845Y-34199500D01*
X145078842Y-34199500D01*
X144921158Y-34199500D01*
X144921155Y-34199500D01*
X144766510Y-34230261D01*
X144766498Y-34230264D01*
X144620827Y-34290602D01*
X144620814Y-34290609D01*
X144489711Y-34378210D01*
X144489707Y-34378213D01*
X144378213Y-34489707D01*
X144378210Y-34489711D01*
X144290609Y-34620814D01*
X144290602Y-34620827D01*
X144230264Y-34766498D01*
X144230261Y-34766510D01*
X144199500Y-34921153D01*
X142300500Y-34921153D01*
X142300500Y-34891158D01*
X142300500Y-34891155D01*
X142300499Y-34891153D01*
X142300122Y-34889257D01*
X142269737Y-34736503D01*
X142258879Y-34710289D01*
X142209397Y-34590827D01*
X142209390Y-34590814D01*
X142121789Y-34459711D01*
X142121786Y-34459707D01*
X142010292Y-34348213D01*
X142010288Y-34348210D01*
X141879185Y-34260609D01*
X141879172Y-34260602D01*
X141733501Y-34200264D01*
X141733489Y-34200261D01*
X141578845Y-34169500D01*
X141578842Y-34169500D01*
X141421158Y-34169500D01*
X141421155Y-34169500D01*
X141266510Y-34200261D01*
X141266498Y-34200264D01*
X141120827Y-34260602D01*
X141120814Y-34260609D01*
X140989711Y-34348210D01*
X140989707Y-34348213D01*
X140878213Y-34459707D01*
X140878210Y-34459711D01*
X140790609Y-34590814D01*
X140790602Y-34590827D01*
X140730264Y-34736498D01*
X140730261Y-34736510D01*
X140699500Y-34891153D01*
X140006479Y-34891153D01*
X140110289Y-34821789D01*
X140110292Y-34821786D01*
X140134694Y-34797385D01*
X140221786Y-34710292D01*
X140221789Y-34710289D01*
X140309394Y-34579179D01*
X140312854Y-34570827D01*
X140323067Y-34546166D01*
X140369737Y-34433497D01*
X140400500Y-34278842D01*
X140400500Y-34121158D01*
X140400500Y-34121155D01*
X140400499Y-34121153D01*
X140369738Y-33966510D01*
X140369737Y-33966503D01*
X140358280Y-33938842D01*
X140309397Y-33820827D01*
X140309390Y-33820814D01*
X140221789Y-33689711D01*
X140221786Y-33689707D01*
X140110292Y-33578213D01*
X140110288Y-33578210D01*
X139979185Y-33490609D01*
X139979172Y-33490602D01*
X139833501Y-33430264D01*
X139833489Y-33430261D01*
X139678845Y-33399500D01*
X139678842Y-33399500D01*
X139521158Y-33399500D01*
X139521155Y-33399500D01*
X139366510Y-33430261D01*
X139366507Y-33430262D01*
X139366506Y-33430262D01*
X139366503Y-33430263D01*
X139299875Y-33457861D01*
X139242396Y-33481669D01*
X139172926Y-33489137D01*
X139110447Y-33457861D01*
X139074795Y-33397772D01*
X139074619Y-33397073D01*
X138833062Y-32421153D01*
X144199500Y-32421153D01*
X144199500Y-32578846D01*
X144230261Y-32733489D01*
X144230264Y-32733501D01*
X144290602Y-32879172D01*
X144290609Y-32879185D01*
X144378210Y-33010288D01*
X144378213Y-33010292D01*
X144489707Y-33121786D01*
X144489711Y-33121789D01*
X144620814Y-33209390D01*
X144620827Y-33209397D01*
X144766498Y-33269735D01*
X144766503Y-33269737D01*
X144921153Y-33300499D01*
X144921156Y-33300500D01*
X144921158Y-33300500D01*
X145078844Y-33300500D01*
X145078845Y-33300499D01*
X145233497Y-33269737D01*
X145379179Y-33209394D01*
X145510289Y-33121789D01*
X145621789Y-33010289D01*
X145709394Y-32879179D01*
X145769737Y-32733497D01*
X145800500Y-32578842D01*
X145800500Y-32421158D01*
X145800500Y-32421155D01*
X145800499Y-32421153D01*
X146699500Y-32421153D01*
X146699500Y-32578846D01*
X146730261Y-32733489D01*
X146730264Y-32733501D01*
X146790602Y-32879172D01*
X146790609Y-32879185D01*
X146878210Y-33010288D01*
X146878213Y-33010292D01*
X146989707Y-33121786D01*
X146989711Y-33121789D01*
X147120814Y-33209390D01*
X147120827Y-33209397D01*
X147266498Y-33269735D01*
X147266503Y-33269737D01*
X147421153Y-33300499D01*
X147421156Y-33300500D01*
X147421158Y-33300500D01*
X147578844Y-33300500D01*
X147578845Y-33300499D01*
X147733497Y-33269737D01*
X147879179Y-33209394D01*
X148010289Y-33121789D01*
X148121789Y-33010289D01*
X148209394Y-32879179D01*
X148269737Y-32733497D01*
X148300500Y-32578842D01*
X148300500Y-32421158D01*
X148300500Y-32421155D01*
X148300499Y-32421153D01*
X149199500Y-32421153D01*
X149199500Y-32578846D01*
X149230261Y-32733489D01*
X149230264Y-32733501D01*
X149290602Y-32879172D01*
X149290609Y-32879185D01*
X149378210Y-33010288D01*
X149378213Y-33010292D01*
X149489707Y-33121786D01*
X149489711Y-33121789D01*
X149620814Y-33209390D01*
X149620827Y-33209397D01*
X149766498Y-33269735D01*
X149766503Y-33269737D01*
X149921153Y-33300499D01*
X149921156Y-33300500D01*
X149921158Y-33300500D01*
X150078844Y-33300500D01*
X150078845Y-33300499D01*
X150233497Y-33269737D01*
X150379179Y-33209394D01*
X150510289Y-33121789D01*
X150621789Y-33010289D01*
X150709394Y-32879179D01*
X150769737Y-32733497D01*
X150800500Y-32578842D01*
X150800500Y-32421158D01*
X150800500Y-32421155D01*
X150800499Y-32421153D01*
X151699500Y-32421153D01*
X151699500Y-32578846D01*
X151730261Y-32733489D01*
X151730264Y-32733501D01*
X151790602Y-32879172D01*
X151790609Y-32879185D01*
X151878210Y-33010288D01*
X151878213Y-33010292D01*
X151989707Y-33121786D01*
X151989711Y-33121789D01*
X152120814Y-33209390D01*
X152120827Y-33209397D01*
X152266498Y-33269735D01*
X152266503Y-33269737D01*
X152421153Y-33300499D01*
X152421156Y-33300500D01*
X152421158Y-33300500D01*
X152578844Y-33300500D01*
X152578845Y-33300499D01*
X152733497Y-33269737D01*
X152879179Y-33209394D01*
X153010289Y-33121789D01*
X153121789Y-33010289D01*
X153209394Y-32879179D01*
X153269737Y-32733497D01*
X153300500Y-32578842D01*
X153300500Y-32421158D01*
X153300500Y-32421155D01*
X153300499Y-32421153D01*
X154199500Y-32421153D01*
X154199500Y-32578846D01*
X154230261Y-32733489D01*
X154230264Y-32733501D01*
X154290602Y-32879172D01*
X154290609Y-32879185D01*
X154378210Y-33010288D01*
X154378213Y-33010292D01*
X154489707Y-33121786D01*
X154489711Y-33121789D01*
X154620814Y-33209390D01*
X154620827Y-33209397D01*
X154766498Y-33269735D01*
X154766503Y-33269737D01*
X154921153Y-33300499D01*
X154921156Y-33300500D01*
X154921158Y-33300500D01*
X155078844Y-33300500D01*
X155078845Y-33300499D01*
X155233497Y-33269737D01*
X155379179Y-33209394D01*
X155510289Y-33121789D01*
X155621789Y-33010289D01*
X155709394Y-32879179D01*
X155769737Y-32733497D01*
X155800500Y-32578842D01*
X155800500Y-32421158D01*
X155800500Y-32421155D01*
X155800499Y-32421153D01*
X155769738Y-32266510D01*
X155769737Y-32266503D01*
X155749500Y-32217646D01*
X155709397Y-32120827D01*
X155709390Y-32120814D01*
X155621789Y-31989711D01*
X155621786Y-31989707D01*
X155510292Y-31878213D01*
X155510288Y-31878210D01*
X155379185Y-31790609D01*
X155379172Y-31790602D01*
X155233501Y-31730264D01*
X155233489Y-31730261D01*
X155078845Y-31699500D01*
X155078842Y-31699500D01*
X154921158Y-31699500D01*
X154921155Y-31699500D01*
X154766510Y-31730261D01*
X154766498Y-31730264D01*
X154620827Y-31790602D01*
X154620814Y-31790609D01*
X154489711Y-31878210D01*
X154489707Y-31878213D01*
X154378213Y-31989707D01*
X154378210Y-31989711D01*
X154290609Y-32120814D01*
X154290602Y-32120827D01*
X154230264Y-32266498D01*
X154230261Y-32266510D01*
X154199500Y-32421153D01*
X153300499Y-32421153D01*
X153269738Y-32266510D01*
X153269737Y-32266503D01*
X153249500Y-32217646D01*
X153209397Y-32120827D01*
X153209390Y-32120814D01*
X153121789Y-31989711D01*
X153121786Y-31989707D01*
X153010292Y-31878213D01*
X153010288Y-31878210D01*
X152879185Y-31790609D01*
X152879172Y-31790602D01*
X152733501Y-31730264D01*
X152733489Y-31730261D01*
X152578845Y-31699500D01*
X152578842Y-31699500D01*
X152421158Y-31699500D01*
X152421155Y-31699500D01*
X152266510Y-31730261D01*
X152266498Y-31730264D01*
X152120827Y-31790602D01*
X152120814Y-31790609D01*
X151989711Y-31878210D01*
X151989707Y-31878213D01*
X151878213Y-31989707D01*
X151878210Y-31989711D01*
X151790609Y-32120814D01*
X151790602Y-32120827D01*
X151730264Y-32266498D01*
X151730261Y-32266510D01*
X151699500Y-32421153D01*
X150800499Y-32421153D01*
X150769738Y-32266510D01*
X150769737Y-32266503D01*
X150749500Y-32217646D01*
X150709397Y-32120827D01*
X150709390Y-32120814D01*
X150621789Y-31989711D01*
X150621786Y-31989707D01*
X150510292Y-31878213D01*
X150510288Y-31878210D01*
X150379185Y-31790609D01*
X150379172Y-31790602D01*
X150233501Y-31730264D01*
X150233489Y-31730261D01*
X150078845Y-31699500D01*
X150078842Y-31699500D01*
X149921158Y-31699500D01*
X149921155Y-31699500D01*
X149766510Y-31730261D01*
X149766498Y-31730264D01*
X149620827Y-31790602D01*
X149620814Y-31790609D01*
X149489711Y-31878210D01*
X149489707Y-31878213D01*
X149378213Y-31989707D01*
X149378210Y-31989711D01*
X149290609Y-32120814D01*
X149290602Y-32120827D01*
X149230264Y-32266498D01*
X149230261Y-32266510D01*
X149199500Y-32421153D01*
X148300499Y-32421153D01*
X148269738Y-32266510D01*
X148269737Y-32266503D01*
X148249500Y-32217646D01*
X148209397Y-32120827D01*
X148209390Y-32120814D01*
X148121789Y-31989711D01*
X148121786Y-31989707D01*
X148010292Y-31878213D01*
X148010288Y-31878210D01*
X147879185Y-31790609D01*
X147879172Y-31790602D01*
X147733501Y-31730264D01*
X147733489Y-31730261D01*
X147578845Y-31699500D01*
X147578842Y-31699500D01*
X147421158Y-31699500D01*
X147421155Y-31699500D01*
X147266510Y-31730261D01*
X147266498Y-31730264D01*
X147120827Y-31790602D01*
X147120814Y-31790609D01*
X146989711Y-31878210D01*
X146989707Y-31878213D01*
X146878213Y-31989707D01*
X146878210Y-31989711D01*
X146790609Y-32120814D01*
X146790602Y-32120827D01*
X146730264Y-32266498D01*
X146730261Y-32266510D01*
X146699500Y-32421153D01*
X145800499Y-32421153D01*
X145769738Y-32266510D01*
X145769737Y-32266503D01*
X145749500Y-32217646D01*
X145709397Y-32120827D01*
X145709390Y-32120814D01*
X145621789Y-31989711D01*
X145621786Y-31989707D01*
X145510292Y-31878213D01*
X145510288Y-31878210D01*
X145379185Y-31790609D01*
X145379172Y-31790602D01*
X145233501Y-31730264D01*
X145233489Y-31730261D01*
X145078845Y-31699500D01*
X145078842Y-31699500D01*
X144921158Y-31699500D01*
X144921155Y-31699500D01*
X144766510Y-31730261D01*
X144766498Y-31730264D01*
X144620827Y-31790602D01*
X144620814Y-31790609D01*
X144489711Y-31878210D01*
X144489707Y-31878213D01*
X144378213Y-31989707D01*
X144378210Y-31989711D01*
X144290609Y-32120814D01*
X144290602Y-32120827D01*
X144230264Y-32266498D01*
X144230261Y-32266510D01*
X144199500Y-32421153D01*
X138833062Y-32421153D01*
X137824072Y-28344711D01*
X137827073Y-28274909D01*
X137867337Y-28217807D01*
X137875550Y-28211819D01*
X137933504Y-28173095D01*
X138010289Y-28121789D01*
X138121789Y-28010289D01*
X138209394Y-27879179D01*
X138269737Y-27733497D01*
X138300500Y-27578842D01*
X138300500Y-27421158D01*
X138300500Y-27421155D01*
X138300499Y-27421153D01*
X138269738Y-27266510D01*
X138269737Y-27266503D01*
X138230572Y-27171951D01*
X138223104Y-27102483D01*
X138254379Y-27040004D01*
X138314468Y-27004352D01*
X138345134Y-27000500D01*
X139154866Y-27000500D01*
X139221905Y-27020185D01*
G37*
%TD.AperFunction*%
%TD*%
%TA.AperFunction,Conductor*%
%TO.N,+5V*%
G36*
X121721905Y-27020185D02*
G01*
X121767660Y-27072989D01*
X121777604Y-27142147D01*
X121769427Y-27171953D01*
X121730263Y-27266502D01*
X121730261Y-27266510D01*
X121699500Y-27421153D01*
X121699500Y-27578846D01*
X121730261Y-27733489D01*
X121730264Y-27733501D01*
X121790602Y-27879172D01*
X121790609Y-27879185D01*
X121878210Y-28010288D01*
X121878213Y-28010292D01*
X121989707Y-28121786D01*
X121989711Y-28121789D01*
X122120814Y-28209390D01*
X122120827Y-28209397D01*
X122247208Y-28261745D01*
X122266503Y-28269737D01*
X122421153Y-28300499D01*
X122421156Y-28300500D01*
X122421158Y-28300500D01*
X122578844Y-28300500D01*
X122578845Y-28300499D01*
X122733497Y-28269737D01*
X122879179Y-28209394D01*
X123010289Y-28121789D01*
X123121789Y-28010289D01*
X123209394Y-27879179D01*
X123269737Y-27733497D01*
X123300500Y-27578842D01*
X123300500Y-27421158D01*
X123300500Y-27421155D01*
X123300499Y-27421153D01*
X123269738Y-27266510D01*
X123269737Y-27266503D01*
X123230572Y-27171951D01*
X123223104Y-27102483D01*
X123254379Y-27040004D01*
X123314468Y-27004352D01*
X123345134Y-27000500D01*
X124154866Y-27000500D01*
X124221905Y-27020185D01*
X124267660Y-27072989D01*
X124277604Y-27142147D01*
X124269427Y-27171953D01*
X124230263Y-27266502D01*
X124230261Y-27266510D01*
X124199500Y-27421153D01*
X124199500Y-27578846D01*
X124230261Y-27733489D01*
X124230264Y-27733501D01*
X124290602Y-27879172D01*
X124290609Y-27879185D01*
X124378210Y-28010288D01*
X124378213Y-28010292D01*
X124489707Y-28121786D01*
X124489711Y-28121789D01*
X124620814Y-28209390D01*
X124620827Y-28209397D01*
X124747208Y-28261745D01*
X124766503Y-28269737D01*
X124921153Y-28300499D01*
X124921156Y-28300500D01*
X124921158Y-28300500D01*
X125078844Y-28300500D01*
X125078845Y-28300499D01*
X125233497Y-28269737D01*
X125379179Y-28209394D01*
X125510289Y-28121789D01*
X125621789Y-28010289D01*
X125709394Y-27879179D01*
X125769737Y-27733497D01*
X125800500Y-27578842D01*
X125800500Y-27421158D01*
X125800500Y-27421155D01*
X125800499Y-27421153D01*
X125769738Y-27266510D01*
X125769737Y-27266503D01*
X125730572Y-27171951D01*
X125723104Y-27102483D01*
X125754379Y-27040004D01*
X125814468Y-27004352D01*
X125845134Y-27000500D01*
X126654866Y-27000500D01*
X126721905Y-27020185D01*
X126767660Y-27072989D01*
X126777604Y-27142147D01*
X126769427Y-27171953D01*
X126730263Y-27266502D01*
X126730261Y-27266510D01*
X126699500Y-27421153D01*
X126699500Y-27578846D01*
X126730261Y-27733489D01*
X126730264Y-27733501D01*
X126790602Y-27879172D01*
X126790609Y-27879185D01*
X126878210Y-28010288D01*
X126878213Y-28010292D01*
X126989707Y-28121786D01*
X126989711Y-28121789D01*
X127120814Y-28209390D01*
X127120827Y-28209397D01*
X127247208Y-28261745D01*
X127266503Y-28269737D01*
X127421153Y-28300499D01*
X127421156Y-28300500D01*
X127421158Y-28300500D01*
X127578844Y-28300500D01*
X127578845Y-28300499D01*
X127733497Y-28269737D01*
X127879179Y-28209394D01*
X128010289Y-28121789D01*
X128121789Y-28010289D01*
X128209394Y-27879179D01*
X128269737Y-27733497D01*
X128300500Y-27578842D01*
X128300500Y-27421158D01*
X128300500Y-27421155D01*
X128300499Y-27421153D01*
X128269738Y-27266510D01*
X128269737Y-27266503D01*
X128230572Y-27171951D01*
X128223104Y-27102483D01*
X128254379Y-27040004D01*
X128314468Y-27004352D01*
X128345134Y-27000500D01*
X129154866Y-27000500D01*
X129221905Y-27020185D01*
X129267660Y-27072989D01*
X129277604Y-27142147D01*
X129269427Y-27171953D01*
X129230263Y-27266502D01*
X129230261Y-27266510D01*
X129199500Y-27421153D01*
X129199500Y-27578846D01*
X129230261Y-27733489D01*
X129230264Y-27733501D01*
X129290602Y-27879172D01*
X129290609Y-27879185D01*
X129378210Y-28010288D01*
X129378213Y-28010292D01*
X129489707Y-28121786D01*
X129489711Y-28121789D01*
X129620814Y-28209390D01*
X129620827Y-28209397D01*
X129747208Y-28261745D01*
X129766503Y-28269737D01*
X129921153Y-28300499D01*
X129921156Y-28300500D01*
X129921158Y-28300500D01*
X130078844Y-28300500D01*
X130078845Y-28300499D01*
X130233497Y-28269737D01*
X130379179Y-28209394D01*
X130510289Y-28121789D01*
X130621789Y-28010289D01*
X130709394Y-27879179D01*
X130769737Y-27733497D01*
X130800500Y-27578842D01*
X130800500Y-27421158D01*
X130800500Y-27421155D01*
X130800499Y-27421153D01*
X130769738Y-27266510D01*
X130769737Y-27266503D01*
X130730572Y-27171951D01*
X130723104Y-27102483D01*
X130754379Y-27040004D01*
X130814468Y-27004352D01*
X130845134Y-27000500D01*
X131654866Y-27000500D01*
X131721905Y-27020185D01*
X131767660Y-27072989D01*
X131777604Y-27142147D01*
X131769427Y-27171953D01*
X131730263Y-27266502D01*
X131730261Y-27266510D01*
X131699500Y-27421153D01*
X131699500Y-27578846D01*
X131730261Y-27733489D01*
X131730264Y-27733501D01*
X131790602Y-27879172D01*
X131790609Y-27879185D01*
X131878210Y-28010288D01*
X131878213Y-28010292D01*
X131989707Y-28121786D01*
X131989711Y-28121789D01*
X132120814Y-28209390D01*
X132120827Y-28209397D01*
X132247208Y-28261745D01*
X132266503Y-28269737D01*
X132421153Y-28300499D01*
X132421156Y-28300500D01*
X132421158Y-28300500D01*
X132578844Y-28300500D01*
X132578845Y-28300499D01*
X132733497Y-28269737D01*
X132879179Y-28209394D01*
X133010289Y-28121789D01*
X133121789Y-28010289D01*
X133209394Y-27879179D01*
X133269737Y-27733497D01*
X133300500Y-27578842D01*
X133300500Y-27421158D01*
X133300500Y-27421155D01*
X133300499Y-27421153D01*
X133269738Y-27266510D01*
X133269737Y-27266503D01*
X133230572Y-27171951D01*
X133223104Y-27102483D01*
X133254379Y-27040004D01*
X133314468Y-27004352D01*
X133345134Y-27000500D01*
X134154866Y-27000500D01*
X134221905Y-27020185D01*
X134267660Y-27072989D01*
X134277604Y-27142147D01*
X134269427Y-27171953D01*
X134230263Y-27266502D01*
X134230261Y-27266510D01*
X134199500Y-27421153D01*
X134199500Y-27578846D01*
X134230261Y-27733489D01*
X134230264Y-27733501D01*
X134290602Y-27879172D01*
X134290609Y-27879185D01*
X134378210Y-28010288D01*
X134378213Y-28010292D01*
X134489707Y-28121786D01*
X134489711Y-28121789D01*
X134620814Y-28209390D01*
X134620827Y-28209397D01*
X134747208Y-28261745D01*
X134766503Y-28269737D01*
X134921153Y-28300499D01*
X134921156Y-28300500D01*
X134921158Y-28300500D01*
X135078844Y-28300500D01*
X135078845Y-28300499D01*
X135233497Y-28269737D01*
X135379179Y-28209394D01*
X135510289Y-28121789D01*
X135621789Y-28010289D01*
X135709394Y-27879179D01*
X135769737Y-27733497D01*
X135800500Y-27578842D01*
X135800500Y-27421158D01*
X135800500Y-27421155D01*
X135800499Y-27421153D01*
X135769738Y-27266510D01*
X135769737Y-27266503D01*
X135730572Y-27171951D01*
X135723104Y-27102483D01*
X135754379Y-27040004D01*
X135814468Y-27004352D01*
X135845134Y-27000500D01*
X136654866Y-27000500D01*
X136721905Y-27020185D01*
X136767660Y-27072989D01*
X136777604Y-27142147D01*
X136769427Y-27171953D01*
X136730263Y-27266502D01*
X136730261Y-27266510D01*
X136699500Y-27421153D01*
X136699500Y-27578846D01*
X136730261Y-27733489D01*
X136730264Y-27733501D01*
X136790602Y-27879172D01*
X136790609Y-27879185D01*
X136878210Y-28010288D01*
X136878213Y-28010292D01*
X136989707Y-28121786D01*
X136989711Y-28121789D01*
X137120814Y-28209390D01*
X137120826Y-28209397D01*
X137222612Y-28251557D01*
X137247209Y-28261745D01*
X137301613Y-28305585D01*
X137323139Y-28363945D01*
X137333378Y-28466159D01*
X137333380Y-28466165D01*
X137448420Y-28930941D01*
X138324631Y-32470941D01*
X138342370Y-32542608D01*
X138583904Y-33518435D01*
X138584432Y-33520554D01*
X138584520Y-33520903D01*
X138584595Y-33521199D01*
X138584996Y-33522783D01*
X138640056Y-33655711D01*
X138675708Y-33715800D01*
X138675711Y-33715804D01*
X138675712Y-33715805D01*
X138675715Y-33715810D01*
X138689422Y-33732819D01*
X138713387Y-33781440D01*
X138776942Y-34043894D01*
X138785405Y-34078841D01*
X138796017Y-34122661D01*
X138799500Y-34151845D01*
X138799500Y-34278846D01*
X138830261Y-34433489D01*
X138830264Y-34433501D01*
X138890602Y-34579171D01*
X138890604Y-34579175D01*
X138890606Y-34579179D01*
X138890609Y-34579183D01*
X138890611Y-34579187D01*
X138903404Y-34598334D01*
X138920818Y-34638039D01*
X139008311Y-34999343D01*
X139008480Y-35001395D01*
X139008999Y-35002349D01*
X139009084Y-35008720D01*
X139011465Y-35037557D01*
X139010954Y-35044546D01*
X139007529Y-35062775D01*
X139004530Y-35132523D01*
X139004526Y-35132582D01*
X139018867Y-35275737D01*
X139018869Y-35275744D01*
X139130210Y-35725580D01*
X139128725Y-35760114D01*
X139127496Y-35794532D01*
X139127229Y-35794916D01*
X139127209Y-35795385D01*
X139107323Y-35823586D01*
X139087648Y-35851925D01*
X139087120Y-35852237D01*
X139086945Y-35852487D01*
X139057295Y-35869934D01*
X138952453Y-35913361D01*
X138882983Y-35920830D01*
X138857548Y-35913361D01*
X138753501Y-35870264D01*
X138753489Y-35870261D01*
X138598845Y-35839500D01*
X138598842Y-35839500D01*
X138441158Y-35839500D01*
X138441155Y-35839500D01*
X138286510Y-35870261D01*
X138286498Y-35870264D01*
X138140827Y-35930602D01*
X138140814Y-35930609D01*
X138009711Y-36018210D01*
X138009707Y-36018213D01*
X137898213Y-36129707D01*
X137898210Y-36129711D01*
X137810609Y-36260814D01*
X137810602Y-36260827D01*
X137750264Y-36406498D01*
X137750261Y-36406510D01*
X137719500Y-36561153D01*
X137719500Y-36718846D01*
X137750261Y-36873489D01*
X137750264Y-36873501D01*
X137810602Y-37019172D01*
X137810609Y-37019185D01*
X137898210Y-37150288D01*
X137898213Y-37150292D01*
X138007500Y-37259579D01*
X138040985Y-37320902D01*
X138036001Y-37390594D01*
X137994129Y-37446527D01*
X137944011Y-37468877D01*
X137836508Y-37490261D01*
X137836498Y-37490264D01*
X137690827Y-37550602D01*
X137690814Y-37550609D01*
X137559711Y-37638210D01*
X137559707Y-37638213D01*
X137448213Y-37749707D01*
X137448210Y-37749711D01*
X137360609Y-37880814D01*
X137360602Y-37880827D01*
X137300264Y-38026498D01*
X137300261Y-38026510D01*
X137269500Y-38181153D01*
X137269500Y-38338846D01*
X137300261Y-38493489D01*
X137300264Y-38493501D01*
X137360602Y-38639172D01*
X137360609Y-38639185D01*
X137448210Y-38770288D01*
X137448213Y-38770292D01*
X137559707Y-38881786D01*
X137559711Y-38881789D01*
X137690814Y-38969390D01*
X137690827Y-38969397D01*
X137812363Y-39019738D01*
X137836503Y-39029737D01*
X137960537Y-39054409D01*
X137991153Y-39060499D01*
X137991156Y-39060500D01*
X137991158Y-39060500D01*
X138148844Y-39060500D01*
X138148845Y-39060499D01*
X138303497Y-39029737D01*
X138449179Y-38969394D01*
X138493594Y-38939716D01*
X138560266Y-38918839D01*
X138627647Y-38937322D01*
X138631361Y-38939709D01*
X138660821Y-38959394D01*
X138660824Y-38959395D01*
X138660825Y-38959396D01*
X138781540Y-39009397D01*
X138806503Y-39019737D01*
X138955578Y-39049390D01*
X138961153Y-39050499D01*
X138961156Y-39050500D01*
X138961158Y-39050500D01*
X139118844Y-39050500D01*
X139118845Y-39050499D01*
X139273497Y-39019737D01*
X139343630Y-38990686D01*
X139413098Y-38983218D01*
X139459974Y-39002147D01*
X139470812Y-39009389D01*
X139470827Y-39009397D01*
X139608917Y-39066595D01*
X139616503Y-39069737D01*
X139736158Y-39093538D01*
X139771153Y-39100499D01*
X139771156Y-39100500D01*
X139868512Y-39100500D01*
X139896325Y-39108667D01*
X139924818Y-39114021D01*
X139929445Y-39118392D01*
X139935551Y-39120185D01*
X139954533Y-39142091D01*
X139975609Y-39162001D01*
X139978976Y-39170300D01*
X139981306Y-39172989D01*
X139988879Y-39194705D01*
X139995373Y-39220940D01*
X139995374Y-39220942D01*
X140799805Y-42470941D01*
X140817544Y-42542608D01*
X141151279Y-43890941D01*
X141169018Y-43962608D01*
X141298450Y-44485530D01*
X141295449Y-44555335D01*
X141255185Y-44612437D01*
X141190442Y-44638705D01*
X141121774Y-44625801D01*
X141074980Y-44584214D01*
X140991789Y-44459711D01*
X140991786Y-44459707D01*
X140880292Y-44348213D01*
X140880288Y-44348210D01*
X140749185Y-44260609D01*
X140749172Y-44260602D01*
X140603501Y-44200264D01*
X140603489Y-44200261D01*
X140448845Y-44169500D01*
X140448842Y-44169500D01*
X140291158Y-44169500D01*
X140291155Y-44169500D01*
X140136510Y-44200261D01*
X140136498Y-44200264D01*
X139990827Y-44260602D01*
X139990814Y-44260609D01*
X139859711Y-44348210D01*
X139859707Y-44348213D01*
X139748213Y-44459707D01*
X139748210Y-44459711D01*
X139660609Y-44590814D01*
X139660602Y-44590827D01*
X139600264Y-44736498D01*
X139600261Y-44736510D01*
X139569500Y-44891153D01*
X139569500Y-45048846D01*
X139600261Y-45203489D01*
X139600264Y-45203501D01*
X139660602Y-45349172D01*
X139660609Y-45349185D01*
X139748210Y-45480288D01*
X139748213Y-45480292D01*
X139859707Y-45591786D01*
X139859711Y-45591789D01*
X139990814Y-45679390D01*
X139990818Y-45679392D01*
X139990821Y-45679394D01*
X140134029Y-45738712D01*
X140188429Y-45782550D01*
X140210494Y-45848844D01*
X140208191Y-45877460D01*
X140199500Y-45921156D01*
X140199500Y-46078846D01*
X140230261Y-46233489D01*
X140230264Y-46233501D01*
X140290602Y-46379172D01*
X140290609Y-46379185D01*
X140378210Y-46510288D01*
X140378213Y-46510292D01*
X140489707Y-46621786D01*
X140489711Y-46621789D01*
X140620814Y-46709390D01*
X140620827Y-46709397D01*
X140766498Y-46769735D01*
X140766503Y-46769737D01*
X140921153Y-46800499D01*
X140921156Y-46800500D01*
X140921158Y-46800500D01*
X141078844Y-46800500D01*
X141078845Y-46800499D01*
X141233497Y-46769737D01*
X141379179Y-46709394D01*
X141510289Y-46621789D01*
X141621789Y-46510289D01*
X141709394Y-46379179D01*
X141718767Y-46356549D01*
X141762607Y-46302145D01*
X141828901Y-46280079D01*
X141833329Y-46280000D01*
X152044487Y-46280000D01*
X152082804Y-46286068D01*
X152178757Y-46317246D01*
X152388713Y-46350500D01*
X152388714Y-46350500D01*
X152851286Y-46350500D01*
X152851287Y-46350500D01*
X153061243Y-46317246D01*
X153157195Y-46286068D01*
X153195513Y-46280000D01*
X158125500Y-46280000D01*
X158192539Y-46299685D01*
X158238294Y-46352489D01*
X158249500Y-46404000D01*
X158249500Y-49318059D01*
X158229815Y-49385098D01*
X158177011Y-49430853D01*
X158107853Y-49440797D01*
X158044297Y-49411772D01*
X158037819Y-49405740D01*
X158010292Y-49378213D01*
X158010288Y-49378210D01*
X157879185Y-49290609D01*
X157879172Y-49290602D01*
X157733501Y-49230264D01*
X157733489Y-49230261D01*
X157578845Y-49199500D01*
X157578842Y-49199500D01*
X157421158Y-49199500D01*
X157421155Y-49199500D01*
X157266510Y-49230261D01*
X157266498Y-49230264D01*
X157120827Y-49290602D01*
X157120814Y-49290609D01*
X156989711Y-49378210D01*
X156989707Y-49378213D01*
X156878213Y-49489707D01*
X156878210Y-49489711D01*
X156790609Y-49620814D01*
X156790602Y-49620827D01*
X156730264Y-49766498D01*
X156730261Y-49766510D01*
X156699500Y-49921153D01*
X156699500Y-50078846D01*
X156730261Y-50233489D01*
X156730264Y-50233501D01*
X156790602Y-50379172D01*
X156790609Y-50379185D01*
X156878210Y-50510288D01*
X156878213Y-50510292D01*
X156989707Y-50621786D01*
X156989711Y-50621789D01*
X157120814Y-50709390D01*
X157120827Y-50709397D01*
X157265665Y-50769390D01*
X157266503Y-50769737D01*
X157421153Y-50800499D01*
X157421156Y-50800500D01*
X157421158Y-50800500D01*
X157578844Y-50800500D01*
X157578845Y-50800499D01*
X157733497Y-50769737D01*
X157879179Y-50709394D01*
X158010289Y-50621789D01*
X158010292Y-50621786D01*
X158037819Y-50594260D01*
X158099142Y-50560775D01*
X158168834Y-50565759D01*
X158224767Y-50607631D01*
X158249184Y-50673095D01*
X158249500Y-50681941D01*
X158249500Y-51818059D01*
X158229815Y-51885098D01*
X158177011Y-51930853D01*
X158107853Y-51940797D01*
X158044297Y-51911772D01*
X158037819Y-51905740D01*
X158010292Y-51878213D01*
X158010288Y-51878210D01*
X157879185Y-51790609D01*
X157879172Y-51790602D01*
X157733501Y-51730264D01*
X157733489Y-51730261D01*
X157578845Y-51699500D01*
X157578842Y-51699500D01*
X157421158Y-51699500D01*
X157421155Y-51699500D01*
X157266510Y-51730261D01*
X157266498Y-51730264D01*
X157120827Y-51790602D01*
X157120814Y-51790609D01*
X156989711Y-51878210D01*
X156989707Y-51878213D01*
X156878213Y-51989707D01*
X156878210Y-51989711D01*
X156790609Y-52120814D01*
X156790602Y-52120827D01*
X156730264Y-52266498D01*
X156730261Y-52266510D01*
X156699500Y-52421153D01*
X156699500Y-52578846D01*
X156730261Y-52733489D01*
X156730264Y-52733501D01*
X156790602Y-52879172D01*
X156790609Y-52879185D01*
X156878210Y-53010288D01*
X156878213Y-53010292D01*
X156989707Y-53121786D01*
X156989711Y-53121789D01*
X157120814Y-53209390D01*
X157120827Y-53209397D01*
X157266498Y-53269735D01*
X157266503Y-53269737D01*
X157421153Y-53300499D01*
X157421156Y-53300500D01*
X157421158Y-53300500D01*
X157578844Y-53300500D01*
X157578845Y-53300499D01*
X157733497Y-53269737D01*
X157879179Y-53209394D01*
X158010289Y-53121789D01*
X158010292Y-53121786D01*
X158037819Y-53094260D01*
X158099142Y-53060775D01*
X158168834Y-53065759D01*
X158224767Y-53107631D01*
X158249184Y-53173095D01*
X158249500Y-53181941D01*
X158249500Y-53790680D01*
X158229815Y-53857719D01*
X158177011Y-53903474D01*
X158125780Y-53914680D01*
X120874780Y-53998792D01*
X120807696Y-53979259D01*
X120761822Y-53926558D01*
X120750500Y-53874792D01*
X120750500Y-52421153D01*
X121699500Y-52421153D01*
X121699500Y-52578846D01*
X121730261Y-52733489D01*
X121730264Y-52733501D01*
X121790602Y-52879172D01*
X121790609Y-52879185D01*
X121878210Y-53010288D01*
X121878213Y-53010292D01*
X121989707Y-53121786D01*
X121989711Y-53121789D01*
X122120814Y-53209390D01*
X122120827Y-53209397D01*
X122266498Y-53269735D01*
X122266503Y-53269737D01*
X122421153Y-53300499D01*
X122421156Y-53300500D01*
X122421158Y-53300500D01*
X122578844Y-53300500D01*
X122578845Y-53300499D01*
X122733497Y-53269737D01*
X122879179Y-53209394D01*
X123010289Y-53121789D01*
X123121789Y-53010289D01*
X123209394Y-52879179D01*
X123269737Y-52733497D01*
X123300500Y-52578842D01*
X123300500Y-52421158D01*
X123300500Y-52421155D01*
X123300499Y-52421153D01*
X124199500Y-52421153D01*
X124199500Y-52578846D01*
X124230261Y-52733489D01*
X124230264Y-52733501D01*
X124290602Y-52879172D01*
X124290609Y-52879185D01*
X124378210Y-53010288D01*
X124378213Y-53010292D01*
X124489707Y-53121786D01*
X124489711Y-53121789D01*
X124620814Y-53209390D01*
X124620827Y-53209397D01*
X124766498Y-53269735D01*
X124766503Y-53269737D01*
X124921153Y-53300499D01*
X124921156Y-53300500D01*
X124921158Y-53300500D01*
X125078844Y-53300500D01*
X125078845Y-53300499D01*
X125233497Y-53269737D01*
X125379179Y-53209394D01*
X125510289Y-53121789D01*
X125621789Y-53010289D01*
X125709394Y-52879179D01*
X125769737Y-52733497D01*
X125800500Y-52578842D01*
X125800500Y-52421158D01*
X125800500Y-52421155D01*
X125800499Y-52421153D01*
X126699500Y-52421153D01*
X126699500Y-52578846D01*
X126730261Y-52733489D01*
X126730264Y-52733501D01*
X126790602Y-52879172D01*
X126790609Y-52879185D01*
X126878210Y-53010288D01*
X126878213Y-53010292D01*
X126989707Y-53121786D01*
X126989711Y-53121789D01*
X127120814Y-53209390D01*
X127120827Y-53209397D01*
X127266498Y-53269735D01*
X127266503Y-53269737D01*
X127421153Y-53300499D01*
X127421156Y-53300500D01*
X127421158Y-53300500D01*
X127578844Y-53300500D01*
X127578845Y-53300499D01*
X127733497Y-53269737D01*
X127879179Y-53209394D01*
X128010289Y-53121789D01*
X128121789Y-53010289D01*
X128209394Y-52879179D01*
X128269737Y-52733497D01*
X128300500Y-52578842D01*
X128300500Y-52421158D01*
X128300500Y-52421155D01*
X128300499Y-52421153D01*
X129199500Y-52421153D01*
X129199500Y-52578846D01*
X129230261Y-52733489D01*
X129230264Y-52733501D01*
X129290602Y-52879172D01*
X129290609Y-52879185D01*
X129378210Y-53010288D01*
X129378213Y-53010292D01*
X129489707Y-53121786D01*
X129489711Y-53121789D01*
X129620814Y-53209390D01*
X129620827Y-53209397D01*
X129766498Y-53269735D01*
X129766503Y-53269737D01*
X129921153Y-53300499D01*
X129921156Y-53300500D01*
X129921158Y-53300500D01*
X130078844Y-53300500D01*
X130078845Y-53300499D01*
X130233497Y-53269737D01*
X130379179Y-53209394D01*
X130510289Y-53121789D01*
X130621789Y-53010289D01*
X130709394Y-52879179D01*
X130769737Y-52733497D01*
X130800500Y-52578842D01*
X130800500Y-52421158D01*
X130800500Y-52421155D01*
X130800499Y-52421153D01*
X131699500Y-52421153D01*
X131699500Y-52578846D01*
X131730261Y-52733489D01*
X131730264Y-52733501D01*
X131790602Y-52879172D01*
X131790609Y-52879185D01*
X131878210Y-53010288D01*
X131878213Y-53010292D01*
X131989707Y-53121786D01*
X131989711Y-53121789D01*
X132120814Y-53209390D01*
X132120827Y-53209397D01*
X132266498Y-53269735D01*
X132266503Y-53269737D01*
X132421153Y-53300499D01*
X132421156Y-53300500D01*
X132421158Y-53300500D01*
X132578844Y-53300500D01*
X132578845Y-53300499D01*
X132733497Y-53269737D01*
X132879179Y-53209394D01*
X133010289Y-53121789D01*
X133121789Y-53010289D01*
X133209394Y-52879179D01*
X133269737Y-52733497D01*
X133300500Y-52578842D01*
X133300500Y-52421158D01*
X133300500Y-52421155D01*
X133300499Y-52421153D01*
X134199500Y-52421153D01*
X134199500Y-52578846D01*
X134230261Y-52733489D01*
X134230264Y-52733501D01*
X134290602Y-52879172D01*
X134290609Y-52879185D01*
X134378210Y-53010288D01*
X134378213Y-53010292D01*
X134489707Y-53121786D01*
X134489711Y-53121789D01*
X134620814Y-53209390D01*
X134620827Y-53209397D01*
X134766498Y-53269735D01*
X134766503Y-53269737D01*
X134921153Y-53300499D01*
X134921156Y-53300500D01*
X134921158Y-53300500D01*
X135078844Y-53300500D01*
X135078845Y-53300499D01*
X135233497Y-53269737D01*
X135379179Y-53209394D01*
X135510289Y-53121789D01*
X135621789Y-53010289D01*
X135709394Y-52879179D01*
X135769737Y-52733497D01*
X135800500Y-52578842D01*
X135800500Y-52421158D01*
X135800500Y-52421155D01*
X135800499Y-52421153D01*
X136699500Y-52421153D01*
X136699500Y-52578846D01*
X136730261Y-52733489D01*
X136730264Y-52733501D01*
X136790602Y-52879172D01*
X136790609Y-52879185D01*
X136878210Y-53010288D01*
X136878213Y-53010292D01*
X136989707Y-53121786D01*
X136989711Y-53121789D01*
X137120814Y-53209390D01*
X137120827Y-53209397D01*
X137266498Y-53269735D01*
X137266503Y-53269737D01*
X137421153Y-53300499D01*
X137421156Y-53300500D01*
X137421158Y-53300500D01*
X137578844Y-53300500D01*
X137578845Y-53300499D01*
X137733497Y-53269737D01*
X137879179Y-53209394D01*
X138010289Y-53121789D01*
X138121789Y-53010289D01*
X138209394Y-52879179D01*
X138269737Y-52733497D01*
X138300500Y-52578842D01*
X138300500Y-52421158D01*
X138300500Y-52421155D01*
X138300499Y-52421153D01*
X139199500Y-52421153D01*
X139199500Y-52578846D01*
X139230261Y-52733489D01*
X139230264Y-52733501D01*
X139290602Y-52879172D01*
X139290609Y-52879185D01*
X139378210Y-53010288D01*
X139378213Y-53010292D01*
X139489707Y-53121786D01*
X139489711Y-53121789D01*
X139620814Y-53209390D01*
X139620827Y-53209397D01*
X139766498Y-53269735D01*
X139766503Y-53269737D01*
X139921153Y-53300499D01*
X139921156Y-53300500D01*
X139921158Y-53300500D01*
X140078844Y-53300500D01*
X140078845Y-53300499D01*
X140233497Y-53269737D01*
X140379179Y-53209394D01*
X140510289Y-53121789D01*
X140621789Y-53010289D01*
X140709394Y-52879179D01*
X140769737Y-52733497D01*
X140800500Y-52578842D01*
X140800500Y-52421158D01*
X140800500Y-52421155D01*
X140800499Y-52421153D01*
X141699500Y-52421153D01*
X141699500Y-52578846D01*
X141730261Y-52733489D01*
X141730264Y-52733501D01*
X141790602Y-52879172D01*
X141790609Y-52879185D01*
X141878210Y-53010288D01*
X141878213Y-53010292D01*
X141989707Y-53121786D01*
X141989711Y-53121789D01*
X142120814Y-53209390D01*
X142120827Y-53209397D01*
X142266498Y-53269735D01*
X142266503Y-53269737D01*
X142421153Y-53300499D01*
X142421156Y-53300500D01*
X142421158Y-53300500D01*
X142578844Y-53300500D01*
X142578845Y-53300499D01*
X142733497Y-53269737D01*
X142879179Y-53209394D01*
X143010289Y-53121789D01*
X143121789Y-53010289D01*
X143209394Y-52879179D01*
X143269737Y-52733497D01*
X143300500Y-52578842D01*
X143300500Y-52421158D01*
X143300500Y-52421155D01*
X143300499Y-52421153D01*
X144199500Y-52421153D01*
X144199500Y-52578846D01*
X144230261Y-52733489D01*
X144230264Y-52733501D01*
X144290602Y-52879172D01*
X144290609Y-52879185D01*
X144378210Y-53010288D01*
X144378213Y-53010292D01*
X144489707Y-53121786D01*
X144489711Y-53121789D01*
X144620814Y-53209390D01*
X144620827Y-53209397D01*
X144766498Y-53269735D01*
X144766503Y-53269737D01*
X144921153Y-53300499D01*
X144921156Y-53300500D01*
X144921158Y-53300500D01*
X145078844Y-53300500D01*
X145078845Y-53300499D01*
X145233497Y-53269737D01*
X145379179Y-53209394D01*
X145510289Y-53121789D01*
X145621789Y-53010289D01*
X145709394Y-52879179D01*
X145769737Y-52733497D01*
X145800500Y-52578842D01*
X145800500Y-52421158D01*
X145800500Y-52421155D01*
X145800499Y-52421153D01*
X146699500Y-52421153D01*
X146699500Y-52578846D01*
X146730261Y-52733489D01*
X146730264Y-52733501D01*
X146790602Y-52879172D01*
X146790609Y-52879185D01*
X146878210Y-53010288D01*
X146878213Y-53010292D01*
X146989707Y-53121786D01*
X146989711Y-53121789D01*
X147120814Y-53209390D01*
X147120827Y-53209397D01*
X147266498Y-53269735D01*
X147266503Y-53269737D01*
X147421153Y-53300499D01*
X147421156Y-53300500D01*
X147421158Y-53300500D01*
X147578844Y-53300500D01*
X147578845Y-53300499D01*
X147733497Y-53269737D01*
X147879179Y-53209394D01*
X148010289Y-53121789D01*
X148121789Y-53010289D01*
X148209394Y-52879179D01*
X148269737Y-52733497D01*
X148300500Y-52578842D01*
X148300500Y-52421158D01*
X148300500Y-52421155D01*
X148300499Y-52421153D01*
X149199500Y-52421153D01*
X149199500Y-52578846D01*
X149230261Y-52733489D01*
X149230264Y-52733501D01*
X149290602Y-52879172D01*
X149290609Y-52879185D01*
X149378210Y-53010288D01*
X149378213Y-53010292D01*
X149489707Y-53121786D01*
X149489711Y-53121789D01*
X149620814Y-53209390D01*
X149620827Y-53209397D01*
X149766498Y-53269735D01*
X149766503Y-53269737D01*
X149921153Y-53300499D01*
X149921156Y-53300500D01*
X149921158Y-53300500D01*
X150078844Y-53300500D01*
X150078845Y-53300499D01*
X150233497Y-53269737D01*
X150379179Y-53209394D01*
X150510289Y-53121789D01*
X150621789Y-53010289D01*
X150709394Y-52879179D01*
X150769737Y-52733497D01*
X150800500Y-52578842D01*
X150800500Y-52421158D01*
X150800500Y-52421155D01*
X150800499Y-52421153D01*
X151699500Y-52421153D01*
X151699500Y-52578846D01*
X151730261Y-52733489D01*
X151730264Y-52733501D01*
X151790602Y-52879172D01*
X151790609Y-52879185D01*
X151878210Y-53010288D01*
X151878213Y-53010292D01*
X151989707Y-53121786D01*
X151989711Y-53121789D01*
X152120814Y-53209390D01*
X152120827Y-53209397D01*
X152266498Y-53269735D01*
X152266503Y-53269737D01*
X152421153Y-53300499D01*
X152421156Y-53300500D01*
X152421158Y-53300500D01*
X152578844Y-53300500D01*
X152578845Y-53300499D01*
X152733497Y-53269737D01*
X152879179Y-53209394D01*
X153010289Y-53121789D01*
X153121789Y-53010289D01*
X153209394Y-52879179D01*
X153269737Y-52733497D01*
X153300500Y-52578842D01*
X153300500Y-52421158D01*
X153300500Y-52421155D01*
X153300499Y-52421153D01*
X154199500Y-52421153D01*
X154199500Y-52578846D01*
X154230261Y-52733489D01*
X154230264Y-52733501D01*
X154290602Y-52879172D01*
X154290609Y-52879185D01*
X154378210Y-53010288D01*
X154378213Y-53010292D01*
X154489707Y-53121786D01*
X154489711Y-53121789D01*
X154620814Y-53209390D01*
X154620827Y-53209397D01*
X154766498Y-53269735D01*
X154766503Y-53269737D01*
X154921153Y-53300499D01*
X154921156Y-53300500D01*
X154921158Y-53300500D01*
X155078844Y-53300500D01*
X155078845Y-53300499D01*
X155233497Y-53269737D01*
X155379179Y-53209394D01*
X155510289Y-53121789D01*
X155621789Y-53010289D01*
X155709394Y-52879179D01*
X155769737Y-52733497D01*
X155800500Y-52578842D01*
X155800500Y-52421158D01*
X155800500Y-52421155D01*
X155800499Y-52421153D01*
X155769738Y-52266510D01*
X155769737Y-52266503D01*
X155749500Y-52217646D01*
X155709397Y-52120827D01*
X155709390Y-52120814D01*
X155621789Y-51989711D01*
X155621786Y-51989707D01*
X155510292Y-51878213D01*
X155510288Y-51878210D01*
X155379185Y-51790609D01*
X155379172Y-51790602D01*
X155233501Y-51730264D01*
X155233489Y-51730261D01*
X155078845Y-51699500D01*
X155078842Y-51699500D01*
X154921158Y-51699500D01*
X154921155Y-51699500D01*
X154766510Y-51730261D01*
X154766498Y-51730264D01*
X154620827Y-51790602D01*
X154620814Y-51790609D01*
X154489711Y-51878210D01*
X154489707Y-51878213D01*
X154378213Y-51989707D01*
X154378210Y-51989711D01*
X154290609Y-52120814D01*
X154290602Y-52120827D01*
X154230264Y-52266498D01*
X154230261Y-52266510D01*
X154199500Y-52421153D01*
X153300499Y-52421153D01*
X153269738Y-52266510D01*
X153269737Y-52266503D01*
X153249500Y-52217646D01*
X153209397Y-52120827D01*
X153209390Y-52120814D01*
X153121789Y-51989711D01*
X153121786Y-51989707D01*
X153010292Y-51878213D01*
X153010288Y-51878210D01*
X152879185Y-51790609D01*
X152879172Y-51790602D01*
X152733501Y-51730264D01*
X152733489Y-51730261D01*
X152578845Y-51699500D01*
X152578842Y-51699500D01*
X152421158Y-51699500D01*
X152421155Y-51699500D01*
X152266510Y-51730261D01*
X152266498Y-51730264D01*
X152120827Y-51790602D01*
X152120814Y-51790609D01*
X151989711Y-51878210D01*
X151989707Y-51878213D01*
X151878213Y-51989707D01*
X151878210Y-51989711D01*
X151790609Y-52120814D01*
X151790602Y-52120827D01*
X151730264Y-52266498D01*
X151730261Y-52266510D01*
X151699500Y-52421153D01*
X150800499Y-52421153D01*
X150769738Y-52266510D01*
X150769737Y-52266503D01*
X150749500Y-52217646D01*
X150709397Y-52120827D01*
X150709390Y-52120814D01*
X150621789Y-51989711D01*
X150621786Y-51989707D01*
X150510292Y-51878213D01*
X150510288Y-51878210D01*
X150379185Y-51790609D01*
X150379172Y-51790602D01*
X150233501Y-51730264D01*
X150233489Y-51730261D01*
X150078845Y-51699500D01*
X150078842Y-51699500D01*
X149921158Y-51699500D01*
X149921155Y-51699500D01*
X149766510Y-51730261D01*
X149766498Y-51730264D01*
X149620827Y-51790602D01*
X149620814Y-51790609D01*
X149489711Y-51878210D01*
X149489707Y-51878213D01*
X149378213Y-51989707D01*
X149378210Y-51989711D01*
X149290609Y-52120814D01*
X149290602Y-52120827D01*
X149230264Y-52266498D01*
X149230261Y-52266510D01*
X149199500Y-52421153D01*
X148300499Y-52421153D01*
X148269738Y-52266510D01*
X148269737Y-52266503D01*
X148249500Y-52217646D01*
X148209397Y-52120827D01*
X148209390Y-52120814D01*
X148121789Y-51989711D01*
X148121786Y-51989707D01*
X148010292Y-51878213D01*
X148010288Y-51878210D01*
X147879185Y-51790609D01*
X147879172Y-51790602D01*
X147733501Y-51730264D01*
X147733489Y-51730261D01*
X147578845Y-51699500D01*
X147578842Y-51699500D01*
X147421158Y-51699500D01*
X147421155Y-51699500D01*
X147266510Y-51730261D01*
X147266498Y-51730264D01*
X147120827Y-51790602D01*
X147120814Y-51790609D01*
X146989711Y-51878210D01*
X146989707Y-51878213D01*
X146878213Y-51989707D01*
X146878210Y-51989711D01*
X146790609Y-52120814D01*
X146790602Y-52120827D01*
X146730264Y-52266498D01*
X146730261Y-52266510D01*
X146699500Y-52421153D01*
X145800499Y-52421153D01*
X145769738Y-52266510D01*
X145769737Y-52266503D01*
X145749500Y-52217646D01*
X145709397Y-52120827D01*
X145709390Y-52120814D01*
X145621789Y-51989711D01*
X145621786Y-51989707D01*
X145510292Y-51878213D01*
X145510288Y-51878210D01*
X145379185Y-51790609D01*
X145379172Y-51790602D01*
X145233501Y-51730264D01*
X145233489Y-51730261D01*
X145078845Y-51699500D01*
X145078842Y-51699500D01*
X144921158Y-51699500D01*
X144921155Y-51699500D01*
X144766510Y-51730261D01*
X144766498Y-51730264D01*
X144620827Y-51790602D01*
X144620814Y-51790609D01*
X144489711Y-51878210D01*
X144489707Y-51878213D01*
X144378213Y-51989707D01*
X144378210Y-51989711D01*
X144290609Y-52120814D01*
X144290602Y-52120827D01*
X144230264Y-52266498D01*
X144230261Y-52266510D01*
X144199500Y-52421153D01*
X143300499Y-52421153D01*
X143269738Y-52266510D01*
X143269737Y-52266503D01*
X143249500Y-52217646D01*
X143209397Y-52120827D01*
X143209390Y-52120814D01*
X143121789Y-51989711D01*
X143121786Y-51989707D01*
X143010292Y-51878213D01*
X143010288Y-51878210D01*
X142879185Y-51790609D01*
X142879172Y-51790602D01*
X142733501Y-51730264D01*
X142733489Y-51730261D01*
X142578845Y-51699500D01*
X142578842Y-51699500D01*
X142421158Y-51699500D01*
X142421155Y-51699500D01*
X142266510Y-51730261D01*
X142266498Y-51730264D01*
X142120827Y-51790602D01*
X142120814Y-51790609D01*
X141989711Y-51878210D01*
X141989707Y-51878213D01*
X141878213Y-51989707D01*
X141878210Y-51989711D01*
X141790609Y-52120814D01*
X141790602Y-52120827D01*
X141730264Y-52266498D01*
X141730261Y-52266510D01*
X141699500Y-52421153D01*
X140800499Y-52421153D01*
X140769738Y-52266510D01*
X140769737Y-52266503D01*
X140749500Y-52217646D01*
X140709397Y-52120827D01*
X140709390Y-52120814D01*
X140621789Y-51989711D01*
X140621786Y-51989707D01*
X140510292Y-51878213D01*
X140510288Y-51878210D01*
X140379185Y-51790609D01*
X140379172Y-51790602D01*
X140233501Y-51730264D01*
X140233489Y-51730261D01*
X140078845Y-51699500D01*
X140078842Y-51699500D01*
X139921158Y-51699500D01*
X139921155Y-51699500D01*
X139766510Y-51730261D01*
X139766498Y-51730264D01*
X139620827Y-51790602D01*
X139620814Y-51790609D01*
X139489711Y-51878210D01*
X139489707Y-51878213D01*
X139378213Y-51989707D01*
X139378210Y-51989711D01*
X139290609Y-52120814D01*
X139290602Y-52120827D01*
X139230264Y-52266498D01*
X139230261Y-52266510D01*
X139199500Y-52421153D01*
X138300499Y-52421153D01*
X138269738Y-52266510D01*
X138269737Y-52266503D01*
X138249500Y-52217646D01*
X138209397Y-52120827D01*
X138209390Y-52120814D01*
X138121789Y-51989711D01*
X138121786Y-51989707D01*
X138010292Y-51878213D01*
X138010288Y-51878210D01*
X137879185Y-51790609D01*
X137879172Y-51790602D01*
X137733501Y-51730264D01*
X137733489Y-51730261D01*
X137578845Y-51699500D01*
X137578842Y-51699500D01*
X137421158Y-51699500D01*
X137421155Y-51699500D01*
X137266510Y-51730261D01*
X137266498Y-51730264D01*
X137120827Y-51790602D01*
X137120814Y-51790609D01*
X136989711Y-51878210D01*
X136989707Y-51878213D01*
X136878213Y-51989707D01*
X136878210Y-51989711D01*
X136790609Y-52120814D01*
X136790602Y-52120827D01*
X136730264Y-52266498D01*
X136730261Y-52266510D01*
X136699500Y-52421153D01*
X135800499Y-52421153D01*
X135769738Y-52266510D01*
X135769737Y-52266503D01*
X135749500Y-52217646D01*
X135709397Y-52120827D01*
X135709390Y-52120814D01*
X135621789Y-51989711D01*
X135621786Y-51989707D01*
X135510292Y-51878213D01*
X135510288Y-51878210D01*
X135379185Y-51790609D01*
X135379172Y-51790602D01*
X135233501Y-51730264D01*
X135233489Y-51730261D01*
X135078845Y-51699500D01*
X135078842Y-51699500D01*
X134921158Y-51699500D01*
X134921155Y-51699500D01*
X134766510Y-51730261D01*
X134766498Y-51730264D01*
X134620827Y-51790602D01*
X134620814Y-51790609D01*
X134489711Y-51878210D01*
X134489707Y-51878213D01*
X134378213Y-51989707D01*
X134378210Y-51989711D01*
X134290609Y-52120814D01*
X134290602Y-52120827D01*
X134230264Y-52266498D01*
X134230261Y-52266510D01*
X134199500Y-52421153D01*
X133300499Y-52421153D01*
X133269738Y-52266510D01*
X133269737Y-52266503D01*
X133249500Y-52217646D01*
X133209397Y-52120827D01*
X133209390Y-52120814D01*
X133121789Y-51989711D01*
X133121786Y-51989707D01*
X133010292Y-51878213D01*
X133010288Y-51878210D01*
X132879185Y-51790609D01*
X132879172Y-51790602D01*
X132733501Y-51730264D01*
X132733489Y-51730261D01*
X132578845Y-51699500D01*
X132578842Y-51699500D01*
X132421158Y-51699500D01*
X132421155Y-51699500D01*
X132266510Y-51730261D01*
X132266498Y-51730264D01*
X132120827Y-51790602D01*
X132120814Y-51790609D01*
X131989711Y-51878210D01*
X131989707Y-51878213D01*
X131878213Y-51989707D01*
X131878210Y-51989711D01*
X131790609Y-52120814D01*
X131790602Y-52120827D01*
X131730264Y-52266498D01*
X131730261Y-52266510D01*
X131699500Y-52421153D01*
X130800499Y-52421153D01*
X130769738Y-52266510D01*
X130769737Y-52266503D01*
X130749500Y-52217646D01*
X130709397Y-52120827D01*
X130709390Y-52120814D01*
X130621789Y-51989711D01*
X130621786Y-51989707D01*
X130510292Y-51878213D01*
X130510288Y-51878210D01*
X130379185Y-51790609D01*
X130379172Y-51790602D01*
X130233501Y-51730264D01*
X130233489Y-51730261D01*
X130078845Y-51699500D01*
X130078842Y-51699500D01*
X129921158Y-51699500D01*
X129921155Y-51699500D01*
X129766510Y-51730261D01*
X129766498Y-51730264D01*
X129620827Y-51790602D01*
X129620814Y-51790609D01*
X129489711Y-51878210D01*
X129489707Y-51878213D01*
X129378213Y-51989707D01*
X129378210Y-51989711D01*
X129290609Y-52120814D01*
X129290602Y-52120827D01*
X129230264Y-52266498D01*
X129230261Y-52266510D01*
X129199500Y-52421153D01*
X128300499Y-52421153D01*
X128269738Y-52266510D01*
X128269737Y-52266503D01*
X128249500Y-52217646D01*
X128209397Y-52120827D01*
X128209390Y-52120814D01*
X128121789Y-51989711D01*
X128121786Y-51989707D01*
X128010292Y-51878213D01*
X128010288Y-51878210D01*
X127879185Y-51790609D01*
X127879172Y-51790602D01*
X127733501Y-51730264D01*
X127733489Y-51730261D01*
X127578845Y-51699500D01*
X127578842Y-51699500D01*
X127421158Y-51699500D01*
X127421155Y-51699500D01*
X127266510Y-51730261D01*
X127266498Y-51730264D01*
X127120827Y-51790602D01*
X127120814Y-51790609D01*
X126989711Y-51878210D01*
X126989707Y-51878213D01*
X126878213Y-51989707D01*
X126878210Y-51989711D01*
X126790609Y-52120814D01*
X126790602Y-52120827D01*
X126730264Y-52266498D01*
X126730261Y-52266510D01*
X126699500Y-52421153D01*
X125800499Y-52421153D01*
X125769738Y-52266510D01*
X125769737Y-52266503D01*
X125749500Y-52217646D01*
X125709397Y-52120827D01*
X125709390Y-52120814D01*
X125621789Y-51989711D01*
X125621786Y-51989707D01*
X125510292Y-51878213D01*
X125510288Y-51878210D01*
X125379185Y-51790609D01*
X125379172Y-51790602D01*
X125233501Y-51730264D01*
X125233489Y-51730261D01*
X125078845Y-51699500D01*
X125078842Y-51699500D01*
X124921158Y-51699500D01*
X124921155Y-51699500D01*
X124766510Y-51730261D01*
X124766498Y-51730264D01*
X124620827Y-51790602D01*
X124620814Y-51790609D01*
X124489711Y-51878210D01*
X124489707Y-51878213D01*
X124378213Y-51989707D01*
X124378210Y-51989711D01*
X124290609Y-52120814D01*
X124290602Y-52120827D01*
X124230264Y-52266498D01*
X124230261Y-52266510D01*
X124199500Y-52421153D01*
X123300499Y-52421153D01*
X123269738Y-52266510D01*
X123269737Y-52266503D01*
X123249500Y-52217646D01*
X123209397Y-52120827D01*
X123209390Y-52120814D01*
X123121789Y-51989711D01*
X123121786Y-51989707D01*
X123010292Y-51878213D01*
X123010288Y-51878210D01*
X122879185Y-51790609D01*
X122879172Y-51790602D01*
X122733501Y-51730264D01*
X122733489Y-51730261D01*
X122578845Y-51699500D01*
X122578842Y-51699500D01*
X122421158Y-51699500D01*
X122421155Y-51699500D01*
X122266510Y-51730261D01*
X122266498Y-51730264D01*
X122120827Y-51790602D01*
X122120814Y-51790609D01*
X121989711Y-51878210D01*
X121989707Y-51878213D01*
X121878213Y-51989707D01*
X121878210Y-51989711D01*
X121790609Y-52120814D01*
X121790602Y-52120827D01*
X121730264Y-52266498D01*
X121730261Y-52266510D01*
X121699500Y-52421153D01*
X120750500Y-52421153D01*
X120750500Y-49921153D01*
X121699500Y-49921153D01*
X121699500Y-50078846D01*
X121730261Y-50233489D01*
X121730264Y-50233501D01*
X121790602Y-50379172D01*
X121790609Y-50379185D01*
X121878210Y-50510288D01*
X121878213Y-50510292D01*
X121989707Y-50621786D01*
X121989711Y-50621789D01*
X122120814Y-50709390D01*
X122120827Y-50709397D01*
X122265665Y-50769390D01*
X122266503Y-50769737D01*
X122421153Y-50800499D01*
X122421156Y-50800500D01*
X122421158Y-50800500D01*
X122578844Y-50800500D01*
X122578845Y-50800499D01*
X122733497Y-50769737D01*
X122879179Y-50709394D01*
X123010289Y-50621789D01*
X123121789Y-50510289D01*
X123209394Y-50379179D01*
X123269737Y-50233497D01*
X123300500Y-50078842D01*
X123300500Y-49921158D01*
X123300500Y-49921155D01*
X123300499Y-49921153D01*
X124199500Y-49921153D01*
X124199500Y-50078846D01*
X124230261Y-50233489D01*
X124230264Y-50233501D01*
X124290602Y-50379172D01*
X124290609Y-50379185D01*
X124378210Y-50510288D01*
X124378213Y-50510292D01*
X124489707Y-50621786D01*
X124489711Y-50621789D01*
X124620814Y-50709390D01*
X124620827Y-50709397D01*
X124765665Y-50769390D01*
X124766503Y-50769737D01*
X124921153Y-50800499D01*
X124921156Y-50800500D01*
X124921158Y-50800500D01*
X125078844Y-50800500D01*
X125078845Y-50800499D01*
X125233497Y-50769737D01*
X125379179Y-50709394D01*
X125510289Y-50621789D01*
X125621789Y-50510289D01*
X125709394Y-50379179D01*
X125769737Y-50233497D01*
X125800500Y-50078842D01*
X125800500Y-49921158D01*
X125800500Y-49921155D01*
X125800499Y-49921153D01*
X125779684Y-49816510D01*
X125769737Y-49766503D01*
X125723323Y-49654449D01*
X125709397Y-49620827D01*
X125709390Y-49620814D01*
X125621789Y-49489711D01*
X125621786Y-49489707D01*
X125510292Y-49378213D01*
X125510288Y-49378210D01*
X125379185Y-49290609D01*
X125379172Y-49290602D01*
X125233501Y-49230264D01*
X125233489Y-49230261D01*
X125078845Y-49199500D01*
X125078842Y-49199500D01*
X124921158Y-49199500D01*
X124921155Y-49199500D01*
X124766510Y-49230261D01*
X124766498Y-49230264D01*
X124620827Y-49290602D01*
X124620814Y-49290609D01*
X124489711Y-49378210D01*
X124489707Y-49378213D01*
X124378213Y-49489707D01*
X124378210Y-49489711D01*
X124290609Y-49620814D01*
X124290602Y-49620827D01*
X124230264Y-49766498D01*
X124230261Y-49766510D01*
X124199500Y-49921153D01*
X123300499Y-49921153D01*
X123279684Y-49816510D01*
X123269737Y-49766503D01*
X123223323Y-49654449D01*
X123209397Y-49620827D01*
X123209390Y-49620814D01*
X123121789Y-49489711D01*
X123121786Y-49489707D01*
X123010292Y-49378213D01*
X123010288Y-49378210D01*
X122879185Y-49290609D01*
X122879172Y-49290602D01*
X122733501Y-49230264D01*
X122733489Y-49230261D01*
X122578845Y-49199500D01*
X122578842Y-49199500D01*
X122421158Y-49199500D01*
X122421155Y-49199500D01*
X122266510Y-49230261D01*
X122266498Y-49230264D01*
X122120827Y-49290602D01*
X122120814Y-49290609D01*
X121989711Y-49378210D01*
X121989707Y-49378213D01*
X121878213Y-49489707D01*
X121878210Y-49489711D01*
X121790609Y-49620814D01*
X121790602Y-49620827D01*
X121730264Y-49766498D01*
X121730261Y-49766510D01*
X121699500Y-49921153D01*
X120750500Y-49921153D01*
X120750500Y-47421153D01*
X121699500Y-47421153D01*
X121699500Y-47578846D01*
X121730261Y-47733489D01*
X121730264Y-47733501D01*
X121790602Y-47879172D01*
X121790609Y-47879185D01*
X121878210Y-48010288D01*
X121878213Y-48010292D01*
X121989707Y-48121786D01*
X121989711Y-48121789D01*
X122120814Y-48209390D01*
X122120827Y-48209397D01*
X122255067Y-48265000D01*
X122266503Y-48269737D01*
X122421153Y-48300499D01*
X122421156Y-48300500D01*
X122421158Y-48300500D01*
X122578844Y-48300500D01*
X122578845Y-48300499D01*
X122733497Y-48269737D01*
X122879179Y-48209394D01*
X123010289Y-48121789D01*
X123121789Y-48010289D01*
X123209394Y-47879179D01*
X123269737Y-47733497D01*
X123300500Y-47578842D01*
X123300500Y-47421158D01*
X123300500Y-47421155D01*
X123300499Y-47421153D01*
X124199500Y-47421153D01*
X124199500Y-47578846D01*
X124230261Y-47733489D01*
X124230264Y-47733501D01*
X124290602Y-47879172D01*
X124290609Y-47879185D01*
X124378210Y-48010288D01*
X124378213Y-48010292D01*
X124489707Y-48121786D01*
X124489711Y-48121789D01*
X124620814Y-48209390D01*
X124620827Y-48209397D01*
X124755067Y-48265000D01*
X124766503Y-48269737D01*
X124921153Y-48300499D01*
X124921156Y-48300500D01*
X124921158Y-48300500D01*
X125078844Y-48300500D01*
X125078845Y-48300499D01*
X125233497Y-48269737D01*
X125379179Y-48209394D01*
X125510289Y-48121789D01*
X125621789Y-48010289D01*
X125709394Y-47879179D01*
X125769737Y-47733497D01*
X125800500Y-47578842D01*
X125800500Y-47421158D01*
X125800500Y-47421155D01*
X125800499Y-47421153D01*
X126699500Y-47421153D01*
X126699500Y-47578846D01*
X126730261Y-47733489D01*
X126730264Y-47733501D01*
X126790602Y-47879172D01*
X126790609Y-47879185D01*
X126878210Y-48010288D01*
X126878213Y-48010292D01*
X126989707Y-48121786D01*
X126989711Y-48121789D01*
X127120814Y-48209390D01*
X127120827Y-48209397D01*
X127255067Y-48265000D01*
X127266503Y-48269737D01*
X127421153Y-48300499D01*
X127421156Y-48300500D01*
X127421158Y-48300500D01*
X127578844Y-48300500D01*
X127688117Y-48278764D01*
X127757709Y-48284991D01*
X127812886Y-48327854D01*
X127836131Y-48393744D01*
X127822516Y-48455017D01*
X127822937Y-48455192D01*
X127821947Y-48457581D01*
X127821670Y-48458829D01*
X127820605Y-48460820D01*
X127760264Y-48606498D01*
X127760261Y-48606510D01*
X127729500Y-48761153D01*
X127729500Y-48918846D01*
X127757627Y-49060251D01*
X127751400Y-49129843D01*
X127708537Y-49185020D01*
X127642647Y-49208264D01*
X127611818Y-49206059D01*
X127578844Y-49199500D01*
X127578842Y-49199500D01*
X127421158Y-49199500D01*
X127421155Y-49199500D01*
X127266510Y-49230261D01*
X127266498Y-49230264D01*
X127120827Y-49290602D01*
X127120814Y-49290609D01*
X126989711Y-49378210D01*
X126989707Y-49378213D01*
X126878213Y-49489707D01*
X126878210Y-49489711D01*
X126790609Y-49620814D01*
X126790602Y-49620827D01*
X126730264Y-49766498D01*
X126730261Y-49766510D01*
X126699500Y-49921153D01*
X126699500Y-50078846D01*
X126730261Y-50233489D01*
X126730264Y-50233501D01*
X126790602Y-50379172D01*
X126790609Y-50379185D01*
X126878210Y-50510288D01*
X126878213Y-50510292D01*
X126989707Y-50621786D01*
X126989711Y-50621789D01*
X127120814Y-50709390D01*
X127120827Y-50709397D01*
X127265665Y-50769390D01*
X127266503Y-50769737D01*
X127421153Y-50800499D01*
X127421156Y-50800500D01*
X127421158Y-50800500D01*
X127578844Y-50800500D01*
X127578845Y-50800499D01*
X127733497Y-50769737D01*
X127879179Y-50709394D01*
X128010289Y-50621789D01*
X128121789Y-50510289D01*
X128209394Y-50379179D01*
X128269737Y-50233497D01*
X128300500Y-50078842D01*
X128300500Y-49921158D01*
X128300499Y-49921153D01*
X129199500Y-49921153D01*
X129199500Y-50078846D01*
X129230261Y-50233489D01*
X129230264Y-50233501D01*
X129290602Y-50379172D01*
X129290609Y-50379185D01*
X129378210Y-50510288D01*
X129378213Y-50510292D01*
X129489707Y-50621786D01*
X129489711Y-50621789D01*
X129620814Y-50709390D01*
X129620827Y-50709397D01*
X129765665Y-50769390D01*
X129766503Y-50769737D01*
X129921153Y-50800499D01*
X129921156Y-50800500D01*
X129921158Y-50800500D01*
X130078844Y-50800500D01*
X130078845Y-50800499D01*
X130233497Y-50769737D01*
X130379179Y-50709394D01*
X130510289Y-50621789D01*
X130621789Y-50510289D01*
X130709394Y-50379179D01*
X130769737Y-50233497D01*
X130800500Y-50078842D01*
X130800500Y-49921158D01*
X130800500Y-49921155D01*
X130800499Y-49921153D01*
X131699500Y-49921153D01*
X131699500Y-50078846D01*
X131730261Y-50233489D01*
X131730264Y-50233501D01*
X131790602Y-50379172D01*
X131790609Y-50379185D01*
X131878210Y-50510288D01*
X131878213Y-50510292D01*
X131989707Y-50621786D01*
X131989711Y-50621789D01*
X132120814Y-50709390D01*
X132120827Y-50709397D01*
X132265665Y-50769390D01*
X132266503Y-50769737D01*
X132421153Y-50800499D01*
X132421156Y-50800500D01*
X132421158Y-50800500D01*
X132578844Y-50800500D01*
X132578845Y-50800499D01*
X132733497Y-50769737D01*
X132879179Y-50709394D01*
X133010289Y-50621789D01*
X133121789Y-50510289D01*
X133209394Y-50379179D01*
X133269737Y-50233497D01*
X133300500Y-50078842D01*
X133300500Y-49921158D01*
X133300500Y-49921155D01*
X133300499Y-49921153D01*
X134199500Y-49921153D01*
X134199500Y-50078846D01*
X134230261Y-50233489D01*
X134230264Y-50233501D01*
X134290602Y-50379172D01*
X134290609Y-50379185D01*
X134378210Y-50510288D01*
X134378213Y-50510292D01*
X134489707Y-50621786D01*
X134489711Y-50621789D01*
X134620814Y-50709390D01*
X134620827Y-50709397D01*
X134765665Y-50769390D01*
X134766503Y-50769737D01*
X134921153Y-50800499D01*
X134921156Y-50800500D01*
X134921158Y-50800500D01*
X135078844Y-50800500D01*
X135078845Y-50800499D01*
X135233497Y-50769737D01*
X135379179Y-50709394D01*
X135510289Y-50621789D01*
X135621789Y-50510289D01*
X135709394Y-50379179D01*
X135769737Y-50233497D01*
X135800500Y-50078842D01*
X135800500Y-49921158D01*
X135800500Y-49921155D01*
X135800499Y-49921153D01*
X136699500Y-49921153D01*
X136699500Y-50078846D01*
X136730261Y-50233489D01*
X136730264Y-50233501D01*
X136790602Y-50379172D01*
X136790609Y-50379185D01*
X136878210Y-50510288D01*
X136878213Y-50510292D01*
X136989707Y-50621786D01*
X136989711Y-50621789D01*
X137120814Y-50709390D01*
X137120827Y-50709397D01*
X137265665Y-50769390D01*
X137266503Y-50769737D01*
X137421153Y-50800499D01*
X137421156Y-50800500D01*
X137421158Y-50800500D01*
X137578844Y-50800500D01*
X137578845Y-50800499D01*
X137733497Y-50769737D01*
X137879179Y-50709394D01*
X138010289Y-50621789D01*
X138121789Y-50510289D01*
X138209394Y-50379179D01*
X138269737Y-50233497D01*
X138300500Y-50078842D01*
X138300500Y-49921158D01*
X138300500Y-49921155D01*
X138300499Y-49921153D01*
X139199500Y-49921153D01*
X139199500Y-50078846D01*
X139230261Y-50233489D01*
X139230264Y-50233501D01*
X139290602Y-50379172D01*
X139290609Y-50379185D01*
X139378210Y-50510288D01*
X139378213Y-50510292D01*
X139489707Y-50621786D01*
X139489711Y-50621789D01*
X139620814Y-50709390D01*
X139620827Y-50709397D01*
X139765665Y-50769390D01*
X139766503Y-50769737D01*
X139921153Y-50800499D01*
X139921156Y-50800500D01*
X139921158Y-50800500D01*
X140078844Y-50800500D01*
X140078845Y-50800499D01*
X140233497Y-50769737D01*
X140379179Y-50709394D01*
X140510289Y-50621789D01*
X140621789Y-50510289D01*
X140709394Y-50379179D01*
X140769737Y-50233497D01*
X140800500Y-50078842D01*
X140800500Y-49921158D01*
X140800500Y-49921155D01*
X140800499Y-49921153D01*
X141699500Y-49921153D01*
X141699500Y-50078846D01*
X141730261Y-50233489D01*
X141730264Y-50233501D01*
X141790602Y-50379172D01*
X141790609Y-50379185D01*
X141878210Y-50510288D01*
X141878213Y-50510292D01*
X141989707Y-50621786D01*
X141989711Y-50621789D01*
X142120814Y-50709390D01*
X142120827Y-50709397D01*
X142265665Y-50769390D01*
X142266503Y-50769737D01*
X142421153Y-50800499D01*
X142421156Y-50800500D01*
X142421158Y-50800500D01*
X142578844Y-50800500D01*
X142578845Y-50800499D01*
X142733497Y-50769737D01*
X142879179Y-50709394D01*
X143010289Y-50621789D01*
X143121789Y-50510289D01*
X143209394Y-50379179D01*
X143269737Y-50233497D01*
X143300500Y-50078842D01*
X143300500Y-49921158D01*
X143300500Y-49921155D01*
X143300499Y-49921153D01*
X144199500Y-49921153D01*
X144199500Y-50078846D01*
X144230261Y-50233489D01*
X144230264Y-50233501D01*
X144290602Y-50379172D01*
X144290609Y-50379185D01*
X144378210Y-50510288D01*
X144378213Y-50510292D01*
X144489707Y-50621786D01*
X144489711Y-50621789D01*
X144620814Y-50709390D01*
X144620827Y-50709397D01*
X144765665Y-50769390D01*
X144766503Y-50769737D01*
X144921153Y-50800499D01*
X144921156Y-50800500D01*
X144921158Y-50800500D01*
X145078844Y-50800500D01*
X145078845Y-50800499D01*
X145233497Y-50769737D01*
X145379179Y-50709394D01*
X145510289Y-50621789D01*
X145621789Y-50510289D01*
X145709394Y-50379179D01*
X145769737Y-50233497D01*
X145800500Y-50078842D01*
X145800500Y-49981153D01*
X146699500Y-49981153D01*
X146699500Y-50138846D01*
X146730261Y-50293489D01*
X146730264Y-50293501D01*
X146790602Y-50439172D01*
X146790609Y-50439185D01*
X146878210Y-50570288D01*
X146878213Y-50570292D01*
X146989707Y-50681786D01*
X146989711Y-50681789D01*
X147120814Y-50769390D01*
X147120827Y-50769397D01*
X147242363Y-50819738D01*
X147266503Y-50829737D01*
X147421153Y-50860499D01*
X147421156Y-50860500D01*
X147421158Y-50860500D01*
X147578844Y-50860500D01*
X147578845Y-50860499D01*
X147733497Y-50829737D01*
X147879179Y-50769394D01*
X148010289Y-50681789D01*
X148121789Y-50570289D01*
X148209394Y-50439179D01*
X148269737Y-50293497D01*
X148300500Y-50138842D01*
X148300500Y-49981158D01*
X148300500Y-49981155D01*
X148300499Y-49981153D01*
X149199500Y-49981153D01*
X149199500Y-50138846D01*
X149230261Y-50293489D01*
X149230264Y-50293501D01*
X149290602Y-50439172D01*
X149290609Y-50439185D01*
X149378210Y-50570288D01*
X149378213Y-50570292D01*
X149489707Y-50681786D01*
X149489711Y-50681789D01*
X149620814Y-50769390D01*
X149620827Y-50769397D01*
X149742363Y-50819738D01*
X149766503Y-50829737D01*
X149921153Y-50860499D01*
X149921156Y-50860500D01*
X149921158Y-50860500D01*
X150078844Y-50860500D01*
X150078845Y-50860499D01*
X150233497Y-50829737D01*
X150379179Y-50769394D01*
X150510289Y-50681789D01*
X150621789Y-50570289D01*
X150709394Y-50439179D01*
X150769737Y-50293497D01*
X150800500Y-50138842D01*
X150800500Y-49981158D01*
X150800500Y-49981155D01*
X150800499Y-49981153D01*
X150792166Y-49939257D01*
X150788565Y-49921153D01*
X151699500Y-49921153D01*
X151699500Y-50078846D01*
X151730261Y-50233489D01*
X151730264Y-50233501D01*
X151790602Y-50379172D01*
X151790609Y-50379185D01*
X151878210Y-50510288D01*
X151878213Y-50510292D01*
X151989707Y-50621786D01*
X151989711Y-50621789D01*
X152120814Y-50709390D01*
X152120827Y-50709397D01*
X152265665Y-50769390D01*
X152266503Y-50769737D01*
X152421153Y-50800499D01*
X152421156Y-50800500D01*
X152421158Y-50800500D01*
X152578844Y-50800500D01*
X152578845Y-50800499D01*
X152733497Y-50769737D01*
X152879179Y-50709394D01*
X153010289Y-50621789D01*
X153121789Y-50510289D01*
X153209394Y-50379179D01*
X153269737Y-50233497D01*
X153300500Y-50078842D01*
X153300500Y-49971153D01*
X154199500Y-49971153D01*
X154199500Y-50128846D01*
X154230261Y-50283489D01*
X154230264Y-50283501D01*
X154290602Y-50429172D01*
X154290609Y-50429185D01*
X154378210Y-50560288D01*
X154378213Y-50560292D01*
X154489707Y-50671786D01*
X154489711Y-50671789D01*
X154620814Y-50759390D01*
X154620827Y-50759397D01*
X154720060Y-50800500D01*
X154766503Y-50819737D01*
X154921153Y-50850499D01*
X154921156Y-50850500D01*
X154921158Y-50850500D01*
X155078844Y-50850500D01*
X155078845Y-50850499D01*
X155233497Y-50819737D01*
X155354213Y-50769735D01*
X155379172Y-50759397D01*
X155379172Y-50759396D01*
X155379179Y-50759394D01*
X155510289Y-50671789D01*
X155621789Y-50560289D01*
X155709394Y-50429179D01*
X155769737Y-50283497D01*
X155800500Y-50128842D01*
X155800500Y-49971158D01*
X155800500Y-49971155D01*
X155800499Y-49971153D01*
X155790553Y-49921153D01*
X155769737Y-49816503D01*
X155754142Y-49778853D01*
X155709397Y-49670827D01*
X155709390Y-49670814D01*
X155621789Y-49539711D01*
X155621786Y-49539707D01*
X155510292Y-49428213D01*
X155510288Y-49428210D01*
X155379185Y-49340609D01*
X155379172Y-49340602D01*
X155233501Y-49280264D01*
X155233489Y-49280261D01*
X155078845Y-49249500D01*
X155078842Y-49249500D01*
X154921158Y-49249500D01*
X154921155Y-49249500D01*
X154766510Y-49280261D01*
X154766498Y-49280264D01*
X154620827Y-49340602D01*
X154620814Y-49340609D01*
X154489711Y-49428210D01*
X154489707Y-49428213D01*
X154378213Y-49539707D01*
X154378210Y-49539711D01*
X154290609Y-49670814D01*
X154290602Y-49670827D01*
X154230264Y-49816498D01*
X154230261Y-49816510D01*
X154199500Y-49971153D01*
X153300500Y-49971153D01*
X153300500Y-49921158D01*
X153300500Y-49921155D01*
X153300499Y-49921153D01*
X153279684Y-49816510D01*
X153269737Y-49766503D01*
X153223323Y-49654449D01*
X153209397Y-49620827D01*
X153209390Y-49620814D01*
X153121789Y-49489711D01*
X153121786Y-49489707D01*
X153010292Y-49378213D01*
X153010288Y-49378210D01*
X152879185Y-49290609D01*
X152879172Y-49290602D01*
X152733501Y-49230264D01*
X152733489Y-49230261D01*
X152578845Y-49199500D01*
X152578842Y-49199500D01*
X152421158Y-49199500D01*
X152421155Y-49199500D01*
X152266510Y-49230261D01*
X152266498Y-49230264D01*
X152120827Y-49290602D01*
X152120814Y-49290609D01*
X151989711Y-49378210D01*
X151989707Y-49378213D01*
X151878213Y-49489707D01*
X151878210Y-49489711D01*
X151790609Y-49620814D01*
X151790602Y-49620827D01*
X151730264Y-49766498D01*
X151730261Y-49766510D01*
X151699500Y-49921153D01*
X150788565Y-49921153D01*
X150769738Y-49826508D01*
X150769737Y-49826507D01*
X150769737Y-49826503D01*
X150750000Y-49778853D01*
X150709397Y-49680827D01*
X150709390Y-49680814D01*
X150621789Y-49549711D01*
X150621786Y-49549707D01*
X150510292Y-49438213D01*
X150510288Y-49438210D01*
X150379185Y-49350609D01*
X150379172Y-49350602D01*
X150233501Y-49290264D01*
X150233489Y-49290261D01*
X150078845Y-49259500D01*
X150078842Y-49259500D01*
X149921158Y-49259500D01*
X149921155Y-49259500D01*
X149766510Y-49290261D01*
X149766498Y-49290264D01*
X149620827Y-49350602D01*
X149620814Y-49350609D01*
X149489711Y-49438210D01*
X149489707Y-49438213D01*
X149378213Y-49549707D01*
X149378210Y-49549711D01*
X149290609Y-49680814D01*
X149290602Y-49680827D01*
X149230264Y-49826498D01*
X149230261Y-49826510D01*
X149199500Y-49981153D01*
X148300499Y-49981153D01*
X148288565Y-49921158D01*
X148269737Y-49826503D01*
X148250000Y-49778853D01*
X148209397Y-49680827D01*
X148209390Y-49680814D01*
X148121789Y-49549711D01*
X148121786Y-49549707D01*
X148010292Y-49438213D01*
X148010288Y-49438210D01*
X147879185Y-49350609D01*
X147879172Y-49350602D01*
X147733501Y-49290264D01*
X147733489Y-49290261D01*
X147578845Y-49259500D01*
X147578842Y-49259500D01*
X147421158Y-49259500D01*
X147421155Y-49259500D01*
X147266510Y-49290261D01*
X147266498Y-49290264D01*
X147120827Y-49350602D01*
X147120814Y-49350609D01*
X146989711Y-49438210D01*
X146989707Y-49438213D01*
X146878213Y-49549707D01*
X146878210Y-49549711D01*
X146790609Y-49680814D01*
X146790602Y-49680827D01*
X146730264Y-49826498D01*
X146730261Y-49826510D01*
X146699500Y-49981153D01*
X145800500Y-49981153D01*
X145800500Y-49921158D01*
X145800500Y-49921155D01*
X145800499Y-49921153D01*
X145779684Y-49816510D01*
X145769737Y-49766503D01*
X145723323Y-49654449D01*
X145709397Y-49620827D01*
X145709390Y-49620814D01*
X145621789Y-49489711D01*
X145621786Y-49489707D01*
X145510292Y-49378213D01*
X145510288Y-49378210D01*
X145379185Y-49290609D01*
X145379172Y-49290602D01*
X145233501Y-49230264D01*
X145233489Y-49230261D01*
X145078845Y-49199500D01*
X145078842Y-49199500D01*
X144921158Y-49199500D01*
X144921155Y-49199500D01*
X144766510Y-49230261D01*
X144766498Y-49230264D01*
X144620827Y-49290602D01*
X144620814Y-49290609D01*
X144489711Y-49378210D01*
X144489707Y-49378213D01*
X144378213Y-49489707D01*
X144378210Y-49489711D01*
X144290609Y-49620814D01*
X144290602Y-49620827D01*
X144230264Y-49766498D01*
X144230261Y-49766510D01*
X144199500Y-49921153D01*
X143300499Y-49921153D01*
X143279684Y-49816510D01*
X143269737Y-49766503D01*
X143223323Y-49654449D01*
X143209397Y-49620827D01*
X143209390Y-49620814D01*
X143121789Y-49489711D01*
X143121786Y-49489707D01*
X143010292Y-49378213D01*
X143010288Y-49378210D01*
X142879185Y-49290609D01*
X142879172Y-49290602D01*
X142733501Y-49230264D01*
X142733489Y-49230261D01*
X142578845Y-49199500D01*
X142578842Y-49199500D01*
X142421158Y-49199500D01*
X142421155Y-49199500D01*
X142266510Y-49230261D01*
X142266498Y-49230264D01*
X142120827Y-49290602D01*
X142120814Y-49290609D01*
X141989711Y-49378210D01*
X141989707Y-49378213D01*
X141878213Y-49489707D01*
X141878210Y-49489711D01*
X141790609Y-49620814D01*
X141790602Y-49620827D01*
X141730264Y-49766498D01*
X141730261Y-49766510D01*
X141699500Y-49921153D01*
X140800499Y-49921153D01*
X140779684Y-49816510D01*
X140769737Y-49766503D01*
X140723323Y-49654449D01*
X140709397Y-49620827D01*
X140709390Y-49620814D01*
X140621789Y-49489711D01*
X140621786Y-49489707D01*
X140510292Y-49378213D01*
X140510288Y-49378210D01*
X140379185Y-49290609D01*
X140379172Y-49290602D01*
X140233501Y-49230264D01*
X140233489Y-49230261D01*
X140078845Y-49199500D01*
X140078842Y-49199500D01*
X139921158Y-49199500D01*
X139921155Y-49199500D01*
X139766510Y-49230261D01*
X139766498Y-49230264D01*
X139620827Y-49290602D01*
X139620814Y-49290609D01*
X139489711Y-49378210D01*
X139489707Y-49378213D01*
X139378213Y-49489707D01*
X139378210Y-49489711D01*
X139290609Y-49620814D01*
X139290602Y-49620827D01*
X139230264Y-49766498D01*
X139230261Y-49766510D01*
X139199500Y-49921153D01*
X138300499Y-49921153D01*
X138279684Y-49816510D01*
X138269737Y-49766503D01*
X138223323Y-49654449D01*
X138209397Y-49620827D01*
X138209390Y-49620814D01*
X138121789Y-49489711D01*
X138121786Y-49489707D01*
X138010292Y-49378213D01*
X138010288Y-49378210D01*
X137879185Y-49290609D01*
X137879172Y-49290602D01*
X137733501Y-49230264D01*
X137733489Y-49230261D01*
X137578845Y-49199500D01*
X137578842Y-49199500D01*
X137421158Y-49199500D01*
X137421155Y-49199500D01*
X137266510Y-49230261D01*
X137266498Y-49230264D01*
X137120827Y-49290602D01*
X137120814Y-49290609D01*
X136989711Y-49378210D01*
X136989707Y-49378213D01*
X136878213Y-49489707D01*
X136878210Y-49489711D01*
X136790609Y-49620814D01*
X136790602Y-49620827D01*
X136730264Y-49766498D01*
X136730261Y-49766510D01*
X136699500Y-49921153D01*
X135800499Y-49921153D01*
X135779684Y-49816510D01*
X135769737Y-49766503D01*
X135723323Y-49654449D01*
X135709397Y-49620827D01*
X135709390Y-49620814D01*
X135621789Y-49489711D01*
X135621786Y-49489707D01*
X135510292Y-49378213D01*
X135510288Y-49378210D01*
X135379185Y-49290609D01*
X135379172Y-49290602D01*
X135233501Y-49230264D01*
X135233489Y-49230261D01*
X135078845Y-49199500D01*
X135078842Y-49199500D01*
X134921158Y-49199500D01*
X134921155Y-49199500D01*
X134766510Y-49230261D01*
X134766498Y-49230264D01*
X134620827Y-49290602D01*
X134620814Y-49290609D01*
X134489711Y-49378210D01*
X134489707Y-49378213D01*
X134378213Y-49489707D01*
X134378210Y-49489711D01*
X134290609Y-49620814D01*
X134290602Y-49620827D01*
X134230264Y-49766498D01*
X134230261Y-49766510D01*
X134199500Y-49921153D01*
X133300499Y-49921153D01*
X133279684Y-49816510D01*
X133269737Y-49766503D01*
X133223323Y-49654449D01*
X133209397Y-49620827D01*
X133209390Y-49620814D01*
X133121789Y-49489711D01*
X133121786Y-49489707D01*
X133010292Y-49378213D01*
X133010288Y-49378210D01*
X132879185Y-49290609D01*
X132879172Y-49290602D01*
X132733501Y-49230264D01*
X132733489Y-49230261D01*
X132578845Y-49199500D01*
X132578842Y-49199500D01*
X132421158Y-49199500D01*
X132421155Y-49199500D01*
X132266510Y-49230261D01*
X132266498Y-49230264D01*
X132120827Y-49290602D01*
X132120814Y-49290609D01*
X131989711Y-49378210D01*
X131989707Y-49378213D01*
X131878213Y-49489707D01*
X131878210Y-49489711D01*
X131790609Y-49620814D01*
X131790602Y-49620827D01*
X131730264Y-49766498D01*
X131730261Y-49766510D01*
X131699500Y-49921153D01*
X130800499Y-49921153D01*
X130779684Y-49816510D01*
X130769737Y-49766503D01*
X130723323Y-49654449D01*
X130709397Y-49620827D01*
X130709390Y-49620814D01*
X130621789Y-49489711D01*
X130621786Y-49489707D01*
X130510292Y-49378213D01*
X130510288Y-49378210D01*
X130379185Y-49290609D01*
X130379172Y-49290602D01*
X130233501Y-49230264D01*
X130233489Y-49230261D01*
X130078845Y-49199500D01*
X130078842Y-49199500D01*
X129921158Y-49199500D01*
X129921155Y-49199500D01*
X129766510Y-49230261D01*
X129766498Y-49230264D01*
X129620827Y-49290602D01*
X129620814Y-49290609D01*
X129489711Y-49378210D01*
X129489707Y-49378213D01*
X129378213Y-49489707D01*
X129378210Y-49489711D01*
X129290609Y-49620814D01*
X129290602Y-49620827D01*
X129230264Y-49766498D01*
X129230261Y-49766510D01*
X129199500Y-49921153D01*
X128300499Y-49921153D01*
X128272282Y-49779300D01*
X128272197Y-49778853D01*
X128275527Y-49744488D01*
X128278599Y-49710157D01*
X128278890Y-49709782D01*
X128278936Y-49709310D01*
X128300286Y-49682239D01*
X128321462Y-49654980D01*
X128321909Y-49654822D01*
X128322204Y-49654449D01*
X128354880Y-49643190D01*
X128387352Y-49631735D01*
X128387995Y-49631780D01*
X128388262Y-49631689D01*
X128388905Y-49631846D01*
X128418176Y-49633939D01*
X128451158Y-49640500D01*
X128608844Y-49640500D01*
X128608845Y-49640499D01*
X128763497Y-49609737D01*
X128908414Y-49549711D01*
X128909172Y-49549397D01*
X128909172Y-49549396D01*
X128909179Y-49549394D01*
X129040289Y-49461789D01*
X129151789Y-49350289D01*
X129239394Y-49219179D01*
X129244829Y-49206059D01*
X129299735Y-49073501D01*
X129299737Y-49073497D01*
X129330500Y-48918842D01*
X129330500Y-48761158D01*
X129330500Y-48761155D01*
X129330499Y-48761153D01*
X129320203Y-48709390D01*
X129299737Y-48606503D01*
X129299735Y-48606498D01*
X129239397Y-48460827D01*
X129239390Y-48460814D01*
X129151789Y-48329711D01*
X129151786Y-48329707D01*
X129141908Y-48319829D01*
X129108423Y-48258506D01*
X129113407Y-48188814D01*
X129126484Y-48163261D01*
X129209394Y-48039179D01*
X129258282Y-47921153D01*
X140199500Y-47921153D01*
X140199500Y-48078846D01*
X140230261Y-48233489D01*
X140230264Y-48233501D01*
X140290602Y-48379172D01*
X140290609Y-48379185D01*
X140378210Y-48510288D01*
X140378213Y-48510292D01*
X140489707Y-48621786D01*
X140489711Y-48621789D01*
X140620814Y-48709390D01*
X140620827Y-48709397D01*
X140745779Y-48761153D01*
X140766503Y-48769737D01*
X140921153Y-48800499D01*
X140921156Y-48800500D01*
X140921158Y-48800500D01*
X141078844Y-48800500D01*
X141078845Y-48800499D01*
X141233497Y-48769737D01*
X141379179Y-48709394D01*
X141510289Y-48621789D01*
X141621789Y-48510289D01*
X141709394Y-48379179D01*
X141769737Y-48233497D01*
X141800500Y-48078842D01*
X141800500Y-47921158D01*
X141800500Y-47921155D01*
X141800499Y-47921153D01*
X141769738Y-47766510D01*
X141769737Y-47766503D01*
X141769735Y-47766498D01*
X141709397Y-47620827D01*
X141709390Y-47620814D01*
X141621789Y-47489711D01*
X141621786Y-47489707D01*
X141510292Y-47378213D01*
X141510288Y-47378210D01*
X141379185Y-47290609D01*
X141379172Y-47290602D01*
X141233501Y-47230264D01*
X141233489Y-47230261D01*
X141078845Y-47199500D01*
X141078842Y-47199500D01*
X140921158Y-47199500D01*
X140921155Y-47199500D01*
X140766510Y-47230261D01*
X140766498Y-47230264D01*
X140620827Y-47290602D01*
X140620814Y-47290609D01*
X140489711Y-47378210D01*
X140489707Y-47378213D01*
X140378213Y-47489707D01*
X140378210Y-47489711D01*
X140290609Y-47620814D01*
X140290602Y-47620827D01*
X140230264Y-47766498D01*
X140230261Y-47766510D01*
X140199500Y-47921153D01*
X129258282Y-47921153D01*
X129269737Y-47893497D01*
X129278478Y-47849550D01*
X129300500Y-47738844D01*
X129300500Y-47581155D01*
X129300499Y-47581153D01*
X129269738Y-47426510D01*
X129269737Y-47426503D01*
X129249734Y-47378210D01*
X129209397Y-47280827D01*
X129209390Y-47280814D01*
X129121789Y-47149711D01*
X129121786Y-47149707D01*
X129010292Y-47038213D01*
X129010288Y-47038210D01*
X128879185Y-46950609D01*
X128879172Y-46950602D01*
X128733501Y-46890264D01*
X128733489Y-46890261D01*
X128578845Y-46859500D01*
X128578842Y-46859500D01*
X128421158Y-46859500D01*
X128421155Y-46859500D01*
X128266510Y-46890261D01*
X128266498Y-46890264D01*
X128170400Y-46930069D01*
X128100930Y-46937538D01*
X128038451Y-46906262D01*
X128035293Y-46903215D01*
X128010289Y-46878211D01*
X128010288Y-46878210D01*
X128010287Y-46878209D01*
X127879185Y-46790609D01*
X127879172Y-46790602D01*
X127733501Y-46730264D01*
X127733489Y-46730261D01*
X127578845Y-46699500D01*
X127578842Y-46699500D01*
X127421158Y-46699500D01*
X127421155Y-46699500D01*
X127266510Y-46730261D01*
X127266498Y-46730264D01*
X127120827Y-46790602D01*
X127120814Y-46790609D01*
X126989711Y-46878210D01*
X126989707Y-46878213D01*
X126878213Y-46989707D01*
X126878210Y-46989711D01*
X126790609Y-47120814D01*
X126790602Y-47120827D01*
X126730264Y-47266498D01*
X126730261Y-47266510D01*
X126699500Y-47421153D01*
X125800499Y-47421153D01*
X125774531Y-47290606D01*
X125769737Y-47266503D01*
X125769735Y-47266498D01*
X125709397Y-47120827D01*
X125709390Y-47120814D01*
X125621789Y-46989711D01*
X125621786Y-46989707D01*
X125510292Y-46878213D01*
X125510288Y-46878210D01*
X125379185Y-46790609D01*
X125379172Y-46790602D01*
X125233501Y-46730264D01*
X125233489Y-46730261D01*
X125078845Y-46699500D01*
X125078842Y-46699500D01*
X124921158Y-46699500D01*
X124921155Y-46699500D01*
X124766510Y-46730261D01*
X124766498Y-46730264D01*
X124620827Y-46790602D01*
X124620814Y-46790609D01*
X124489711Y-46878210D01*
X124489707Y-46878213D01*
X124378213Y-46989707D01*
X124378210Y-46989711D01*
X124290609Y-47120814D01*
X124290602Y-47120827D01*
X124230264Y-47266498D01*
X124230261Y-47266510D01*
X124199500Y-47421153D01*
X123300499Y-47421153D01*
X123274531Y-47290606D01*
X123269737Y-47266503D01*
X123269735Y-47266498D01*
X123209397Y-47120827D01*
X123209390Y-47120814D01*
X123121789Y-46989711D01*
X123121786Y-46989707D01*
X123010292Y-46878213D01*
X123010288Y-46878210D01*
X122879185Y-46790609D01*
X122879172Y-46790602D01*
X122733501Y-46730264D01*
X122733489Y-46730261D01*
X122578845Y-46699500D01*
X122578842Y-46699500D01*
X122421158Y-46699500D01*
X122421155Y-46699500D01*
X122266510Y-46730261D01*
X122266498Y-46730264D01*
X122120827Y-46790602D01*
X122120814Y-46790609D01*
X121989711Y-46878210D01*
X121989707Y-46878213D01*
X121878213Y-46989707D01*
X121878210Y-46989711D01*
X121790609Y-47120814D01*
X121790602Y-47120827D01*
X121730264Y-47266498D01*
X121730261Y-47266510D01*
X121699500Y-47421153D01*
X120750500Y-47421153D01*
X120750500Y-44921153D01*
X121699500Y-44921153D01*
X121699500Y-45078846D01*
X121730261Y-45233489D01*
X121730264Y-45233501D01*
X121790602Y-45379172D01*
X121790609Y-45379185D01*
X121878210Y-45510288D01*
X121878213Y-45510292D01*
X121989707Y-45621786D01*
X121989711Y-45621789D01*
X122120814Y-45709390D01*
X122120827Y-45709397D01*
X122240591Y-45759004D01*
X122266503Y-45769737D01*
X122421153Y-45800499D01*
X122421156Y-45800500D01*
X122421158Y-45800500D01*
X122578844Y-45800500D01*
X122578845Y-45800499D01*
X122733497Y-45769737D01*
X122879179Y-45709394D01*
X123010289Y-45621789D01*
X123121789Y-45510289D01*
X123209394Y-45379179D01*
X123269737Y-45233497D01*
X123300500Y-45078842D01*
X123300500Y-44921158D01*
X123300500Y-44921155D01*
X123300499Y-44921153D01*
X124199500Y-44921153D01*
X124199500Y-45078846D01*
X124230261Y-45233489D01*
X124230264Y-45233501D01*
X124290602Y-45379172D01*
X124290609Y-45379185D01*
X124378210Y-45510288D01*
X124378213Y-45510292D01*
X124489707Y-45621786D01*
X124489711Y-45621789D01*
X124620814Y-45709390D01*
X124620827Y-45709397D01*
X124740591Y-45759004D01*
X124766503Y-45769737D01*
X124921153Y-45800499D01*
X124921156Y-45800500D01*
X124921158Y-45800500D01*
X125078844Y-45800500D01*
X125078845Y-45800499D01*
X125233497Y-45769737D01*
X125379179Y-45709394D01*
X125510289Y-45621789D01*
X125621789Y-45510289D01*
X125709394Y-45379179D01*
X125769737Y-45233497D01*
X125800500Y-45078842D01*
X125800500Y-44921158D01*
X125800500Y-44921155D01*
X125800499Y-44921153D01*
X126699500Y-44921153D01*
X126699500Y-45078846D01*
X126730261Y-45233489D01*
X126730264Y-45233501D01*
X126790602Y-45379172D01*
X126790609Y-45379185D01*
X126878210Y-45510288D01*
X126878213Y-45510292D01*
X126989707Y-45621786D01*
X126989711Y-45621789D01*
X127120814Y-45709390D01*
X127120827Y-45709397D01*
X127240591Y-45759004D01*
X127266503Y-45769737D01*
X127421153Y-45800499D01*
X127421156Y-45800500D01*
X127421158Y-45800500D01*
X127578844Y-45800500D01*
X127578845Y-45800499D01*
X127733497Y-45769737D01*
X127879179Y-45709394D01*
X128010289Y-45621789D01*
X128121789Y-45510289D01*
X128209394Y-45379179D01*
X128269737Y-45233497D01*
X128300500Y-45078842D01*
X128300500Y-44921158D01*
X128300500Y-44921155D01*
X128300499Y-44921153D01*
X128269738Y-44766510D01*
X128269737Y-44766503D01*
X128209794Y-44621786D01*
X128209397Y-44620827D01*
X128209390Y-44620814D01*
X128121789Y-44489711D01*
X128121786Y-44489707D01*
X128010292Y-44378213D01*
X128010288Y-44378210D01*
X127879185Y-44290609D01*
X127879172Y-44290602D01*
X127733501Y-44230264D01*
X127733489Y-44230261D01*
X127578845Y-44199500D01*
X127578842Y-44199500D01*
X127421158Y-44199500D01*
X127421155Y-44199500D01*
X127266510Y-44230261D01*
X127266498Y-44230264D01*
X127120827Y-44290602D01*
X127120814Y-44290609D01*
X126989711Y-44378210D01*
X126989707Y-44378213D01*
X126878213Y-44489707D01*
X126878210Y-44489711D01*
X126790609Y-44620814D01*
X126790602Y-44620827D01*
X126730264Y-44766498D01*
X126730261Y-44766510D01*
X126699500Y-44921153D01*
X125800499Y-44921153D01*
X125769738Y-44766510D01*
X125769737Y-44766503D01*
X125709794Y-44621786D01*
X125709397Y-44620827D01*
X125709390Y-44620814D01*
X125621789Y-44489711D01*
X125621786Y-44489707D01*
X125510292Y-44378213D01*
X125510288Y-44378210D01*
X125379185Y-44290609D01*
X125379172Y-44290602D01*
X125233501Y-44230264D01*
X125233489Y-44230261D01*
X125078845Y-44199500D01*
X125078842Y-44199500D01*
X124921158Y-44199500D01*
X124921155Y-44199500D01*
X124766510Y-44230261D01*
X124766498Y-44230264D01*
X124620827Y-44290602D01*
X124620814Y-44290609D01*
X124489711Y-44378210D01*
X124489707Y-44378213D01*
X124378213Y-44489707D01*
X124378210Y-44489711D01*
X124290609Y-44620814D01*
X124290602Y-44620827D01*
X124230264Y-44766498D01*
X124230261Y-44766510D01*
X124199500Y-44921153D01*
X123300499Y-44921153D01*
X123269738Y-44766510D01*
X123269737Y-44766503D01*
X123209794Y-44621786D01*
X123209397Y-44620827D01*
X123209390Y-44620814D01*
X123121789Y-44489711D01*
X123121786Y-44489707D01*
X123010292Y-44378213D01*
X123010288Y-44378210D01*
X122879185Y-44290609D01*
X122879172Y-44290602D01*
X122733501Y-44230264D01*
X122733489Y-44230261D01*
X122578845Y-44199500D01*
X122578842Y-44199500D01*
X122421158Y-44199500D01*
X122421155Y-44199500D01*
X122266510Y-44230261D01*
X122266498Y-44230264D01*
X122120827Y-44290602D01*
X122120814Y-44290609D01*
X121989711Y-44378210D01*
X121989707Y-44378213D01*
X121878213Y-44489707D01*
X121878210Y-44489711D01*
X121790609Y-44620814D01*
X121790602Y-44620827D01*
X121730264Y-44766498D01*
X121730261Y-44766510D01*
X121699500Y-44921153D01*
X120750500Y-44921153D01*
X120750500Y-43921153D01*
X132869500Y-43921153D01*
X132869500Y-44078846D01*
X132900261Y-44233489D01*
X132900264Y-44233501D01*
X132960602Y-44379172D01*
X132960609Y-44379185D01*
X133048210Y-44510288D01*
X133048213Y-44510292D01*
X133159707Y-44621786D01*
X133159711Y-44621789D01*
X133290814Y-44709390D01*
X133290827Y-44709397D01*
X133356256Y-44736498D01*
X133436503Y-44769737D01*
X133591153Y-44800499D01*
X133591156Y-44800500D01*
X133591158Y-44800500D01*
X133748844Y-44800500D01*
X133748845Y-44800499D01*
X133903497Y-44769737D01*
X134049179Y-44709394D01*
X134180289Y-44621789D01*
X134291789Y-44510289D01*
X134379394Y-44379179D01*
X134439737Y-44233497D01*
X134470500Y-44078842D01*
X134470500Y-43921158D01*
X134470500Y-43921155D01*
X134470499Y-43921153D01*
X134439738Y-43766510D01*
X134439737Y-43766503D01*
X134439735Y-43766498D01*
X134379397Y-43620827D01*
X134379390Y-43620814D01*
X134291789Y-43489711D01*
X134291786Y-43489707D01*
X134180292Y-43378213D01*
X134180288Y-43378210D01*
X134049185Y-43290609D01*
X134049172Y-43290602D01*
X133903501Y-43230264D01*
X133903489Y-43230261D01*
X133748845Y-43199500D01*
X133748842Y-43199500D01*
X133591158Y-43199500D01*
X133591155Y-43199500D01*
X133436510Y-43230261D01*
X133436498Y-43230264D01*
X133290827Y-43290602D01*
X133290814Y-43290609D01*
X133159711Y-43378210D01*
X133159707Y-43378213D01*
X133048213Y-43489707D01*
X133048210Y-43489711D01*
X132960609Y-43620814D01*
X132960602Y-43620827D01*
X132900264Y-43766498D01*
X132900261Y-43766510D01*
X132869500Y-43921153D01*
X120750500Y-43921153D01*
X120750500Y-42421153D01*
X121699500Y-42421153D01*
X121699500Y-42578846D01*
X121730261Y-42733489D01*
X121730264Y-42733501D01*
X121790602Y-42879172D01*
X121790609Y-42879185D01*
X121878210Y-43010288D01*
X121878213Y-43010292D01*
X121989707Y-43121786D01*
X121989711Y-43121789D01*
X122120814Y-43209390D01*
X122120827Y-43209397D01*
X122266498Y-43269735D01*
X122266503Y-43269737D01*
X122421153Y-43300499D01*
X122421156Y-43300500D01*
X122421158Y-43300500D01*
X122578844Y-43300500D01*
X122578845Y-43300499D01*
X122733497Y-43269737D01*
X122879179Y-43209394D01*
X123010289Y-43121789D01*
X123121789Y-43010289D01*
X123209394Y-42879179D01*
X123269737Y-42733497D01*
X123300500Y-42578842D01*
X123300500Y-42421158D01*
X123300500Y-42421155D01*
X123300499Y-42421153D01*
X124199500Y-42421153D01*
X124199500Y-42578846D01*
X124230261Y-42733489D01*
X124230264Y-42733501D01*
X124290602Y-42879172D01*
X124290609Y-42879185D01*
X124378210Y-43010288D01*
X124378213Y-43010292D01*
X124489707Y-43121786D01*
X124489711Y-43121789D01*
X124620814Y-43209390D01*
X124620827Y-43209397D01*
X124766498Y-43269735D01*
X124766503Y-43269737D01*
X124921153Y-43300499D01*
X124921156Y-43300500D01*
X124921158Y-43300500D01*
X125078844Y-43300500D01*
X125078845Y-43300499D01*
X125233497Y-43269737D01*
X125379179Y-43209394D01*
X125510289Y-43121789D01*
X125621789Y-43010289D01*
X125709394Y-42879179D01*
X125769737Y-42733497D01*
X125800500Y-42578842D01*
X125800500Y-42421158D01*
X125800500Y-42421155D01*
X125800499Y-42421153D01*
X126699500Y-42421153D01*
X126699500Y-42578846D01*
X126730261Y-42733489D01*
X126730264Y-42733501D01*
X126790602Y-42879172D01*
X126790609Y-42879185D01*
X126878210Y-43010288D01*
X126878213Y-43010292D01*
X126989707Y-43121786D01*
X126989711Y-43121789D01*
X127120814Y-43209390D01*
X127120827Y-43209397D01*
X127266498Y-43269735D01*
X127266503Y-43269737D01*
X127421153Y-43300499D01*
X127421156Y-43300500D01*
X127421158Y-43300500D01*
X127578844Y-43300500D01*
X127578845Y-43300499D01*
X127733497Y-43269737D01*
X127879179Y-43209394D01*
X128010289Y-43121789D01*
X128121789Y-43010289D01*
X128209394Y-42879179D01*
X128269737Y-42733497D01*
X128300500Y-42578842D01*
X128300500Y-42421158D01*
X128300500Y-42421155D01*
X128300499Y-42421153D01*
X128269738Y-42266510D01*
X128269737Y-42266503D01*
X128269735Y-42266498D01*
X128209397Y-42120827D01*
X128209390Y-42120814D01*
X128121789Y-41989711D01*
X128121786Y-41989707D01*
X128010292Y-41878213D01*
X128010288Y-41878210D01*
X127879185Y-41790609D01*
X127879172Y-41790602D01*
X127733501Y-41730264D01*
X127733489Y-41730261D01*
X127578845Y-41699500D01*
X127578842Y-41699500D01*
X127421158Y-41699500D01*
X127421155Y-41699500D01*
X127266510Y-41730261D01*
X127266498Y-41730264D01*
X127120827Y-41790602D01*
X127120814Y-41790609D01*
X126989711Y-41878210D01*
X126989707Y-41878213D01*
X126878213Y-41989707D01*
X126878210Y-41989711D01*
X126790609Y-42120814D01*
X126790602Y-42120827D01*
X126730264Y-42266498D01*
X126730261Y-42266510D01*
X126699500Y-42421153D01*
X125800499Y-42421153D01*
X125769738Y-42266510D01*
X125769737Y-42266503D01*
X125769735Y-42266498D01*
X125709397Y-42120827D01*
X125709390Y-42120814D01*
X125621789Y-41989711D01*
X125621786Y-41989707D01*
X125510292Y-41878213D01*
X125510288Y-41878210D01*
X125379185Y-41790609D01*
X125379172Y-41790602D01*
X125233501Y-41730264D01*
X125233489Y-41730261D01*
X125078845Y-41699500D01*
X125078842Y-41699500D01*
X124921158Y-41699500D01*
X124921155Y-41699500D01*
X124766510Y-41730261D01*
X124766498Y-41730264D01*
X124620827Y-41790602D01*
X124620814Y-41790609D01*
X124489711Y-41878210D01*
X124489707Y-41878213D01*
X124378213Y-41989707D01*
X124378210Y-41989711D01*
X124290609Y-42120814D01*
X124290602Y-42120827D01*
X124230264Y-42266498D01*
X124230261Y-42266510D01*
X124199500Y-42421153D01*
X123300499Y-42421153D01*
X123269738Y-42266510D01*
X123269737Y-42266503D01*
X123269735Y-42266498D01*
X123209397Y-42120827D01*
X123209390Y-42120814D01*
X123121789Y-41989711D01*
X123121786Y-41989707D01*
X123010292Y-41878213D01*
X123010288Y-41878210D01*
X122879185Y-41790609D01*
X122879172Y-41790602D01*
X122733501Y-41730264D01*
X122733489Y-41730261D01*
X122578845Y-41699500D01*
X122578842Y-41699500D01*
X122421158Y-41699500D01*
X122421155Y-41699500D01*
X122266510Y-41730261D01*
X122266498Y-41730264D01*
X122120827Y-41790602D01*
X122120814Y-41790609D01*
X121989711Y-41878210D01*
X121989707Y-41878213D01*
X121878213Y-41989707D01*
X121878210Y-41989711D01*
X121790609Y-42120814D01*
X121790602Y-42120827D01*
X121730264Y-42266498D01*
X121730261Y-42266510D01*
X121699500Y-42421153D01*
X120750500Y-42421153D01*
X120750500Y-40801153D01*
X129509500Y-40801153D01*
X129509500Y-40958846D01*
X129540261Y-41113489D01*
X129540264Y-41113501D01*
X129600602Y-41259172D01*
X129600609Y-41259185D01*
X129688210Y-41390288D01*
X129688213Y-41390292D01*
X129799707Y-41501786D01*
X129799711Y-41501789D01*
X129930814Y-41589390D01*
X129930827Y-41589397D01*
X130076498Y-41649735D01*
X130076503Y-41649737D01*
X130231153Y-41680499D01*
X130231156Y-41680500D01*
X130231158Y-41680500D01*
X130388844Y-41680500D01*
X130388845Y-41680499D01*
X130543497Y-41649737D01*
X130689179Y-41589394D01*
X130820289Y-41501789D01*
X130931789Y-41390289D01*
X131019394Y-41259179D01*
X131079737Y-41113497D01*
X131110500Y-40958842D01*
X131110500Y-40801158D01*
X131110500Y-40801155D01*
X131110499Y-40801153D01*
X131104250Y-40769737D01*
X131079737Y-40646503D01*
X131023316Y-40510289D01*
X131019397Y-40500827D01*
X131019390Y-40500814D01*
X130931789Y-40369711D01*
X130931786Y-40369707D01*
X130820292Y-40258213D01*
X130820288Y-40258210D01*
X130689185Y-40170609D01*
X130689172Y-40170602D01*
X130543501Y-40110264D01*
X130543489Y-40110261D01*
X130388845Y-40079500D01*
X130388842Y-40079500D01*
X130231158Y-40079500D01*
X130231155Y-40079500D01*
X130076510Y-40110261D01*
X130076498Y-40110264D01*
X129930827Y-40170602D01*
X129930814Y-40170609D01*
X129799711Y-40258210D01*
X129799707Y-40258213D01*
X129688213Y-40369707D01*
X129688210Y-40369711D01*
X129600609Y-40500814D01*
X129600602Y-40500827D01*
X129540264Y-40646498D01*
X129540261Y-40646510D01*
X129509500Y-40801153D01*
X120750500Y-40801153D01*
X120750500Y-40345134D01*
X120770185Y-40278095D01*
X120822989Y-40232340D01*
X120892147Y-40222396D01*
X120921950Y-40230572D01*
X121016503Y-40269737D01*
X121136736Y-40293653D01*
X121171153Y-40300499D01*
X121171156Y-40300500D01*
X121171158Y-40300500D01*
X121328844Y-40300500D01*
X121328845Y-40300499D01*
X121483497Y-40269737D01*
X121577550Y-40230778D01*
X121647016Y-40223310D01*
X121672443Y-40230775D01*
X121766503Y-40269737D01*
X121886736Y-40293653D01*
X121921153Y-40300499D01*
X121921156Y-40300500D01*
X121921158Y-40300500D01*
X122078844Y-40300500D01*
X122078845Y-40300499D01*
X122233497Y-40269737D01*
X122379179Y-40209394D01*
X122431110Y-40174694D01*
X122497785Y-40153816D01*
X122565165Y-40172300D01*
X122568863Y-40174676D01*
X122620821Y-40209394D01*
X122620823Y-40209395D01*
X122620825Y-40209396D01*
X122756450Y-40265573D01*
X122766503Y-40269737D01*
X122886736Y-40293653D01*
X122921153Y-40300499D01*
X122921156Y-40300500D01*
X122921158Y-40300500D01*
X123078844Y-40300500D01*
X123078845Y-40300499D01*
X123233497Y-40269737D01*
X123379179Y-40209394D01*
X123431110Y-40174694D01*
X123497785Y-40153816D01*
X123565165Y-40172300D01*
X123568863Y-40174676D01*
X123620821Y-40209394D01*
X123620823Y-40209395D01*
X123620825Y-40209396D01*
X123756450Y-40265573D01*
X123766503Y-40269737D01*
X123886736Y-40293653D01*
X123921153Y-40300499D01*
X123921156Y-40300500D01*
X123921158Y-40300500D01*
X124078843Y-40300500D01*
X124095304Y-40297225D01*
X124144568Y-40287426D01*
X124214158Y-40293653D01*
X124269336Y-40336515D01*
X124283320Y-40361589D01*
X124290606Y-40379179D01*
X124290609Y-40379185D01*
X124378210Y-40510288D01*
X124378213Y-40510292D01*
X124489707Y-40621786D01*
X124489711Y-40621789D01*
X124620814Y-40709390D01*
X124620827Y-40709397D01*
X124766498Y-40769735D01*
X124766503Y-40769737D01*
X124921153Y-40800499D01*
X124921156Y-40800500D01*
X124921158Y-40800500D01*
X125078844Y-40800500D01*
X125078845Y-40800499D01*
X125233497Y-40769737D01*
X125379179Y-40709394D01*
X125510289Y-40621789D01*
X125621789Y-40510289D01*
X125709394Y-40379179D01*
X125769737Y-40233497D01*
X125800500Y-40078842D01*
X125800500Y-39921158D01*
X125800500Y-39921155D01*
X125800499Y-39921153D01*
X126199500Y-39921153D01*
X126199500Y-40078846D01*
X126230261Y-40233489D01*
X126230264Y-40233501D01*
X126290602Y-40379172D01*
X126290609Y-40379185D01*
X126378210Y-40510288D01*
X126378213Y-40510292D01*
X126489707Y-40621786D01*
X126489711Y-40621789D01*
X126620814Y-40709390D01*
X126620827Y-40709397D01*
X126766498Y-40769735D01*
X126766503Y-40769737D01*
X126921153Y-40800499D01*
X126921156Y-40800500D01*
X126921158Y-40800500D01*
X127078844Y-40800500D01*
X127078845Y-40800499D01*
X127233497Y-40769737D01*
X127379179Y-40709394D01*
X127379186Y-40709388D01*
X127379190Y-40709387D01*
X127405262Y-40691966D01*
X127405266Y-40691964D01*
X127473309Y-40646498D01*
X127510289Y-40621789D01*
X127621789Y-40510289D01*
X127709394Y-40379179D01*
X127769737Y-40233497D01*
X127800500Y-40078842D01*
X127800500Y-39921158D01*
X127800500Y-39921155D01*
X127800499Y-39921153D01*
X127769738Y-39766510D01*
X127769737Y-39766503D01*
X127739494Y-39693489D01*
X127709397Y-39620827D01*
X127709390Y-39620814D01*
X127621789Y-39489711D01*
X127621786Y-39489707D01*
X127510292Y-39378213D01*
X127510288Y-39378210D01*
X127379185Y-39290609D01*
X127379172Y-39290602D01*
X127233501Y-39230264D01*
X127233489Y-39230261D01*
X127078845Y-39199500D01*
X127078842Y-39199500D01*
X126921158Y-39199500D01*
X126921155Y-39199500D01*
X126766510Y-39230261D01*
X126766498Y-39230264D01*
X126620827Y-39290602D01*
X126620814Y-39290609D01*
X126489711Y-39378210D01*
X126489707Y-39378213D01*
X126378213Y-39489707D01*
X126378210Y-39489711D01*
X126290609Y-39620814D01*
X126290602Y-39620827D01*
X126230264Y-39766498D01*
X126230261Y-39766510D01*
X126199500Y-39921153D01*
X125800499Y-39921153D01*
X125769738Y-39766510D01*
X125769737Y-39766503D01*
X125739494Y-39693489D01*
X125709397Y-39620827D01*
X125709390Y-39620814D01*
X125621789Y-39489711D01*
X125621786Y-39489707D01*
X125510292Y-39378213D01*
X125510288Y-39378210D01*
X125379185Y-39290609D01*
X125379172Y-39290602D01*
X125233501Y-39230264D01*
X125233489Y-39230261D01*
X125078845Y-39199500D01*
X125078842Y-39199500D01*
X124921158Y-39199500D01*
X124921153Y-39199500D01*
X124855431Y-39212573D01*
X124785839Y-39206346D01*
X124730662Y-39163482D01*
X124716679Y-39138409D01*
X124713403Y-39130500D01*
X124709394Y-39120821D01*
X124709393Y-39120819D01*
X124709392Y-39120817D01*
X124621789Y-38989711D01*
X124621786Y-38989707D01*
X124510292Y-38878213D01*
X124510286Y-38878208D01*
X124502710Y-38873146D01*
X124457906Y-38819534D01*
X124449199Y-38750209D01*
X124479354Y-38687181D01*
X124502709Y-38666944D01*
X124570289Y-38621789D01*
X124681789Y-38510289D01*
X124769394Y-38379179D01*
X124829737Y-38233497D01*
X124860500Y-38078842D01*
X124860500Y-37953977D01*
X124880185Y-37886938D01*
X124932989Y-37841183D01*
X124960307Y-37832360D01*
X124973497Y-37829737D01*
X125119179Y-37769394D01*
X125191109Y-37721332D01*
X125257786Y-37700454D01*
X125325166Y-37718938D01*
X125328891Y-37721332D01*
X125371357Y-37749707D01*
X125400821Y-37769394D01*
X125400823Y-37769395D01*
X125400827Y-37769397D01*
X125546440Y-37829711D01*
X125546503Y-37829737D01*
X125700419Y-37860353D01*
X125701153Y-37860499D01*
X125701156Y-37860500D01*
X125701158Y-37860500D01*
X125858839Y-37860500D01*
X125858842Y-37860500D01*
X125858844Y-37860499D01*
X125860330Y-37860353D01*
X125861106Y-37860500D01*
X125864934Y-37860500D01*
X125864934Y-37861225D01*
X125928978Y-37873363D01*
X125979694Y-37921422D01*
X125996376Y-37989271D01*
X125994117Y-38007943D01*
X125989500Y-38031156D01*
X125989500Y-38188846D01*
X126020261Y-38343489D01*
X126020264Y-38343501D01*
X126080602Y-38489172D01*
X126080609Y-38489185D01*
X126168210Y-38620288D01*
X126168213Y-38620292D01*
X126279707Y-38731786D01*
X126279711Y-38731789D01*
X126410814Y-38819390D01*
X126410827Y-38819397D01*
X126552819Y-38878211D01*
X126556503Y-38879737D01*
X126711153Y-38910499D01*
X126711156Y-38910500D01*
X126711158Y-38910500D01*
X126868844Y-38910500D01*
X126868845Y-38910499D01*
X127023497Y-38879737D01*
X127169179Y-38819394D01*
X127300289Y-38731789D01*
X127344175Y-38687902D01*
X127405495Y-38654417D01*
X127475187Y-38659400D01*
X127500745Y-38672480D01*
X127630821Y-38759394D01*
X127630823Y-38759395D01*
X127630827Y-38759397D01*
X127775665Y-38819390D01*
X127776503Y-38819737D01*
X127930092Y-38850288D01*
X127931153Y-38850499D01*
X127931156Y-38850500D01*
X127931158Y-38850500D01*
X128088844Y-38850500D01*
X128088845Y-38850499D01*
X128243497Y-38819737D01*
X128318005Y-38788875D01*
X128394808Y-38757063D01*
X128395332Y-38758329D01*
X128456910Y-38745497D01*
X128515871Y-38765996D01*
X128580821Y-38809394D01*
X128580823Y-38809395D01*
X128580827Y-38809397D01*
X128680060Y-38850500D01*
X128726503Y-38869737D01*
X128846902Y-38893686D01*
X128881153Y-38900499D01*
X128881156Y-38900500D01*
X128881158Y-38900500D01*
X129038844Y-38900500D01*
X129038845Y-38900499D01*
X129193497Y-38869737D01*
X129314699Y-38819534D01*
X129339172Y-38809397D01*
X129339172Y-38809396D01*
X129339179Y-38809394D01*
X129470289Y-38721789D01*
X129581789Y-38610289D01*
X129669394Y-38479179D01*
X129729737Y-38333497D01*
X129760500Y-38178842D01*
X129760500Y-38021158D01*
X129760500Y-38021155D01*
X129760499Y-38021153D01*
X129740661Y-37921422D01*
X129729737Y-37866503D01*
X129727551Y-37861225D01*
X129669397Y-37720827D01*
X129669390Y-37720814D01*
X129581789Y-37589711D01*
X129581786Y-37589707D01*
X129470292Y-37478213D01*
X129470288Y-37478210D01*
X129339185Y-37390609D01*
X129339172Y-37390602D01*
X129193501Y-37330264D01*
X129193489Y-37330261D01*
X129038845Y-37299500D01*
X129038842Y-37299500D01*
X128881158Y-37299500D01*
X128881155Y-37299500D01*
X128726510Y-37330261D01*
X128726498Y-37330264D01*
X128575193Y-37392937D01*
X128574671Y-37391678D01*
X128513046Y-37404498D01*
X128454126Y-37384002D01*
X128389185Y-37340609D01*
X128389172Y-37340602D01*
X128243501Y-37280264D01*
X128243489Y-37280261D01*
X128088845Y-37249500D01*
X128088842Y-37249500D01*
X127931158Y-37249500D01*
X127931155Y-37249500D01*
X127776510Y-37280261D01*
X127776498Y-37280264D01*
X127713879Y-37306202D01*
X127644410Y-37313671D01*
X127581931Y-37282395D01*
X127546279Y-37222306D01*
X127544810Y-37167449D01*
X127550500Y-37138844D01*
X127550500Y-36981155D01*
X127550499Y-36981153D01*
X127535052Y-36903497D01*
X127519737Y-36826503D01*
X127512649Y-36809390D01*
X127459397Y-36680827D01*
X127459390Y-36680814D01*
X127371789Y-36549711D01*
X127371786Y-36549707D01*
X127260292Y-36438213D01*
X127260288Y-36438210D01*
X127129185Y-36350609D01*
X127129172Y-36350602D01*
X126983501Y-36290264D01*
X126983489Y-36290261D01*
X126828845Y-36259500D01*
X126828842Y-36259500D01*
X126671158Y-36259500D01*
X126671155Y-36259500D01*
X126516510Y-36290261D01*
X126516498Y-36290264D01*
X126370828Y-36350602D01*
X126370812Y-36350611D01*
X126333889Y-36375282D01*
X126267212Y-36396159D01*
X126199832Y-36377674D01*
X126196111Y-36375282D01*
X126159187Y-36350611D01*
X126159183Y-36350609D01*
X126159179Y-36350606D01*
X126159175Y-36350604D01*
X126159171Y-36350602D01*
X126013501Y-36290264D01*
X126013489Y-36290261D01*
X125858845Y-36259500D01*
X125858842Y-36259500D01*
X125701158Y-36259500D01*
X125701155Y-36259500D01*
X125546510Y-36290261D01*
X125546498Y-36290264D01*
X125400827Y-36350602D01*
X125400809Y-36350612D01*
X125328890Y-36398667D01*
X125262213Y-36419545D01*
X125194833Y-36401060D01*
X125191110Y-36398667D01*
X125119190Y-36350612D01*
X125119172Y-36350602D01*
X124973501Y-36290264D01*
X124973489Y-36290261D01*
X124818845Y-36259500D01*
X124818842Y-36259500D01*
X124661158Y-36259500D01*
X124661155Y-36259500D01*
X124506510Y-36290261D01*
X124506498Y-36290264D01*
X124360827Y-36350602D01*
X124360814Y-36350609D01*
X124229711Y-36438210D01*
X124229707Y-36438213D01*
X124118213Y-36549707D01*
X124118210Y-36549711D01*
X124030609Y-36680814D01*
X124030602Y-36680827D01*
X123970264Y-36826498D01*
X123970261Y-36826510D01*
X123939500Y-36981153D01*
X123939500Y-37106022D01*
X123919815Y-37173061D01*
X123867011Y-37218816D01*
X123839693Y-37227639D01*
X123826507Y-37230261D01*
X123826498Y-37230264D01*
X123680827Y-37290602D01*
X123680814Y-37290609D01*
X123598891Y-37345349D01*
X123532213Y-37366227D01*
X123464833Y-37347742D01*
X123461109Y-37345349D01*
X123379185Y-37290609D01*
X123379172Y-37290602D01*
X123233501Y-37230264D01*
X123233489Y-37230261D01*
X123078845Y-37199500D01*
X123078842Y-37199500D01*
X122921158Y-37199500D01*
X122921155Y-37199500D01*
X122766510Y-37230261D01*
X122766498Y-37230264D01*
X122620827Y-37290602D01*
X122620814Y-37290609D01*
X122568891Y-37325304D01*
X122502214Y-37346182D01*
X122434833Y-37327698D01*
X122431109Y-37325304D01*
X122379185Y-37290609D01*
X122379172Y-37290602D01*
X122233501Y-37230264D01*
X122233489Y-37230261D01*
X122078845Y-37199500D01*
X122078842Y-37199500D01*
X121921158Y-37199500D01*
X121921155Y-37199500D01*
X121766510Y-37230261D01*
X121766498Y-37230264D01*
X121672452Y-37269219D01*
X121602982Y-37276688D01*
X121577548Y-37269219D01*
X121483501Y-37230264D01*
X121483489Y-37230261D01*
X121328845Y-37199500D01*
X121328842Y-37199500D01*
X121171158Y-37199500D01*
X121171155Y-37199500D01*
X121016510Y-37230261D01*
X121016507Y-37230261D01*
X120921952Y-37269427D01*
X120852482Y-37276895D01*
X120790003Y-37245619D01*
X120754351Y-37185530D01*
X120750500Y-37154865D01*
X120750500Y-34845134D01*
X120770185Y-34778095D01*
X120822989Y-34732340D01*
X120892147Y-34722396D01*
X120921950Y-34730572D01*
X121016503Y-34769737D01*
X121171153Y-34800499D01*
X121171156Y-34800500D01*
X121171158Y-34800500D01*
X121328844Y-34800500D01*
X121328845Y-34800499D01*
X121483497Y-34769737D01*
X121577550Y-34730778D01*
X121647016Y-34723310D01*
X121672443Y-34730775D01*
X121766503Y-34769737D01*
X121921153Y-34800499D01*
X121921156Y-34800500D01*
X121921158Y-34800500D01*
X122078844Y-34800500D01*
X122078845Y-34800499D01*
X122233497Y-34769737D01*
X122379179Y-34709394D01*
X122431110Y-34674694D01*
X122497785Y-34653816D01*
X122565165Y-34672300D01*
X122568863Y-34674676D01*
X122620821Y-34709394D01*
X122620823Y-34709395D01*
X122620825Y-34709396D01*
X122763171Y-34768357D01*
X122766503Y-34769737D01*
X122921153Y-34800499D01*
X122921156Y-34800500D01*
X122921158Y-34800500D01*
X123078844Y-34800500D01*
X123078845Y-34800499D01*
X123233497Y-34769737D01*
X123379179Y-34709394D01*
X123431110Y-34674694D01*
X123497785Y-34653816D01*
X123565165Y-34672300D01*
X123568863Y-34674676D01*
X123620821Y-34709394D01*
X123620823Y-34709395D01*
X123620825Y-34709396D01*
X123763171Y-34768357D01*
X123766503Y-34769737D01*
X123802117Y-34776821D01*
X123840166Y-34784390D01*
X123902077Y-34816775D01*
X123936651Y-34877490D01*
X123937592Y-34930198D01*
X123919500Y-35021153D01*
X123919500Y-35178846D01*
X123950261Y-35333489D01*
X123950264Y-35333501D01*
X124010602Y-35479172D01*
X124010609Y-35479185D01*
X124098210Y-35610288D01*
X124098213Y-35610292D01*
X124209707Y-35721786D01*
X124209711Y-35721789D01*
X124340814Y-35809390D01*
X124340827Y-35809397D01*
X124444857Y-35852487D01*
X124486503Y-35869737D01*
X124639967Y-35900263D01*
X124641153Y-35900499D01*
X124641156Y-35900500D01*
X124641158Y-35900500D01*
X124798844Y-35900500D01*
X124798845Y-35900499D01*
X124953497Y-35869737D01*
X125066166Y-35823067D01*
X125099172Y-35809397D01*
X125099172Y-35809396D01*
X125099179Y-35809394D01*
X125230289Y-35721789D01*
X125341789Y-35610289D01*
X125429394Y-35479179D01*
X125440036Y-35453488D01*
X125489735Y-35333501D01*
X125489737Y-35333497D01*
X125520500Y-35178842D01*
X125520500Y-35021158D01*
X125520500Y-35021155D01*
X125520499Y-35021153D01*
X125500651Y-34921370D01*
X125489737Y-34866503D01*
X125487386Y-34860827D01*
X125429397Y-34720827D01*
X125429390Y-34720814D01*
X125341789Y-34589711D01*
X125341786Y-34589707D01*
X125230292Y-34478213D01*
X125230288Y-34478210D01*
X125099185Y-34390609D01*
X125099172Y-34390602D01*
X124953501Y-34330264D01*
X124953491Y-34330261D01*
X124879832Y-34315609D01*
X124817921Y-34283223D01*
X124783347Y-34222507D01*
X124782407Y-34169800D01*
X124800500Y-34078844D01*
X124800500Y-33921155D01*
X124800499Y-33921153D01*
X124769738Y-33766510D01*
X124769738Y-33766508D01*
X124769737Y-33766503D01*
X124755785Y-33732819D01*
X124709397Y-33620827D01*
X124709390Y-33620814D01*
X124621789Y-33489711D01*
X124621786Y-33489707D01*
X124584746Y-33452667D01*
X124551261Y-33391344D01*
X124556245Y-33321652D01*
X124598117Y-33265719D01*
X124663581Y-33241302D01*
X124719878Y-33250424D01*
X124766503Y-33269737D01*
X124921153Y-33300499D01*
X124921156Y-33300500D01*
X124921158Y-33300500D01*
X125078844Y-33300500D01*
X125078845Y-33300499D01*
X125233497Y-33269737D01*
X125379179Y-33209394D01*
X125431110Y-33174694D01*
X125497785Y-33153816D01*
X125565165Y-33172300D01*
X125568863Y-33174676D01*
X125620821Y-33209394D01*
X125620823Y-33209395D01*
X125620825Y-33209396D01*
X125766498Y-33269735D01*
X125766503Y-33269737D01*
X125921153Y-33300499D01*
X125921156Y-33300500D01*
X125921158Y-33300500D01*
X126078844Y-33300500D01*
X126078845Y-33300499D01*
X126233497Y-33269737D01*
X126357596Y-33218334D01*
X126379172Y-33209397D01*
X126379172Y-33209396D01*
X126379179Y-33209394D01*
X126510289Y-33121789D01*
X126621789Y-33010289D01*
X126629145Y-32999279D01*
X126646898Y-32972712D01*
X126700510Y-32927906D01*
X126769835Y-32919199D01*
X126832862Y-32949353D01*
X126853102Y-32972712D01*
X126878207Y-33010284D01*
X126878213Y-33010292D01*
X126989707Y-33121786D01*
X126989710Y-33121788D01*
X126989711Y-33121789D01*
X126999999Y-33128663D01*
X127027289Y-33146898D01*
X127072093Y-33200511D01*
X127080800Y-33269836D01*
X127050645Y-33332863D01*
X127027289Y-33353102D01*
X126989707Y-33378213D01*
X126878213Y-33489707D01*
X126878210Y-33489711D01*
X126790609Y-33620814D01*
X126790602Y-33620827D01*
X126730264Y-33766498D01*
X126730261Y-33766510D01*
X126699500Y-33921153D01*
X126699500Y-33921158D01*
X126699500Y-34078842D01*
X126702414Y-34093493D01*
X126717212Y-34167889D01*
X126710983Y-34237480D01*
X126668120Y-34292657D01*
X126619786Y-34313696D01*
X126536508Y-34330261D01*
X126536498Y-34330264D01*
X126390827Y-34390602D01*
X126390814Y-34390609D01*
X126259711Y-34478210D01*
X126259707Y-34478213D01*
X126148213Y-34589707D01*
X126148210Y-34589711D01*
X126060609Y-34720814D01*
X126060602Y-34720827D01*
X126000264Y-34866498D01*
X126000261Y-34866510D01*
X125969500Y-35021153D01*
X125969500Y-35178846D01*
X126000261Y-35333489D01*
X126000264Y-35333501D01*
X126060602Y-35479172D01*
X126060609Y-35479185D01*
X126148210Y-35610288D01*
X126148213Y-35610292D01*
X126259707Y-35721786D01*
X126259711Y-35721789D01*
X126390814Y-35809390D01*
X126390827Y-35809397D01*
X126494857Y-35852487D01*
X126536503Y-35869737D01*
X126689967Y-35900263D01*
X126691153Y-35900499D01*
X126691156Y-35900500D01*
X126691158Y-35900500D01*
X126848844Y-35900500D01*
X126848845Y-35900499D01*
X127003497Y-35869737D01*
X127110476Y-35825424D01*
X127179945Y-35817956D01*
X127205380Y-35825425D01*
X127313633Y-35870264D01*
X127336503Y-35879737D01*
X127491153Y-35910499D01*
X127491156Y-35910500D01*
X127491158Y-35910500D01*
X127648844Y-35910500D01*
X127648845Y-35910499D01*
X127803497Y-35879737D01*
X127949179Y-35819394D01*
X128080289Y-35731789D01*
X128174576Y-35637501D01*
X128235897Y-35604018D01*
X128305589Y-35609002D01*
X128361523Y-35650873D01*
X128365358Y-35656293D01*
X128448210Y-35780288D01*
X128448213Y-35780292D01*
X128559707Y-35891786D01*
X128559711Y-35891789D01*
X128690814Y-35979390D01*
X128690827Y-35979397D01*
X128836498Y-36039735D01*
X128836503Y-36039737D01*
X128989574Y-36070185D01*
X128991153Y-36070499D01*
X128991156Y-36070500D01*
X128991158Y-36070500D01*
X129148844Y-36070500D01*
X129148845Y-36070499D01*
X129303497Y-36039737D01*
X129449179Y-35979394D01*
X129462922Y-35970211D01*
X129529595Y-35949331D01*
X129579267Y-35958750D01*
X129580819Y-35959393D01*
X129580821Y-35959394D01*
X129726503Y-36019737D01*
X129869661Y-36048213D01*
X129881153Y-36050499D01*
X129881156Y-36050500D01*
X129955500Y-36050500D01*
X130022539Y-36070185D01*
X130068294Y-36122989D01*
X130079500Y-36174500D01*
X130079500Y-36178846D01*
X130110261Y-36333489D01*
X130110264Y-36333501D01*
X130170602Y-36479172D01*
X130170609Y-36479185D01*
X130258210Y-36610288D01*
X130258213Y-36610292D01*
X130369707Y-36721786D01*
X130369711Y-36721789D01*
X130500814Y-36809390D01*
X130500827Y-36809397D01*
X130588230Y-36845599D01*
X130646503Y-36869737D01*
X130701130Y-36880602D01*
X130763039Y-36912985D01*
X130791499Y-36954767D01*
X130830602Y-37049172D01*
X130830609Y-37049185D01*
X130918210Y-37180288D01*
X130918213Y-37180292D01*
X131029707Y-37291786D01*
X131029711Y-37291789D01*
X131165886Y-37382779D01*
X131165134Y-37383904D01*
X131210057Y-37428033D01*
X131225516Y-37496171D01*
X131201683Y-37561851D01*
X131149212Y-37602987D01*
X131130829Y-37610601D01*
X131130814Y-37610609D01*
X130999711Y-37698210D01*
X130999707Y-37698213D01*
X130888213Y-37809707D01*
X130888210Y-37809711D01*
X130800609Y-37940814D01*
X130800602Y-37940827D01*
X130740264Y-38086498D01*
X130740261Y-38086510D01*
X130709500Y-38241153D01*
X130709500Y-38398846D01*
X130740261Y-38553489D01*
X130740264Y-38553501D01*
X130800602Y-38699172D01*
X130800609Y-38699185D01*
X130888210Y-38830288D01*
X130888213Y-38830292D01*
X130999707Y-38941786D01*
X131002115Y-38943762D01*
X131003038Y-38945117D01*
X131004018Y-38946097D01*
X131003832Y-38946282D01*
X131041452Y-39001506D01*
X131043326Y-39071350D01*
X131038016Y-39087071D01*
X130980264Y-39226498D01*
X130980261Y-39226510D01*
X130949500Y-39381153D01*
X130949500Y-39538846D01*
X130980261Y-39693489D01*
X130980264Y-39693501D01*
X131040602Y-39839172D01*
X131040609Y-39839185D01*
X131128210Y-39970288D01*
X131128213Y-39970292D01*
X131239707Y-40081786D01*
X131239711Y-40081789D01*
X131370814Y-40169390D01*
X131370827Y-40169397D01*
X131516498Y-40229735D01*
X131516503Y-40229737D01*
X131659661Y-40258213D01*
X131671153Y-40260499D01*
X131671156Y-40260500D01*
X131671158Y-40260500D01*
X131828844Y-40260500D01*
X131828845Y-40260499D01*
X131983497Y-40229737D01*
X132129179Y-40169394D01*
X132260289Y-40081789D01*
X132371789Y-39970289D01*
X132459394Y-39839179D01*
X132519737Y-39693497D01*
X132550500Y-39538842D01*
X132550500Y-39381158D01*
X132550500Y-39381155D01*
X132538380Y-39320229D01*
X132527808Y-39267079D01*
X132528183Y-39262888D01*
X132526481Y-39259038D01*
X132531270Y-39228383D01*
X132534035Y-39197490D01*
X132536617Y-39194166D01*
X132537267Y-39190006D01*
X132557868Y-39166808D01*
X132576897Y-39142312D01*
X132581662Y-39140015D01*
X132583662Y-39137764D01*
X132598775Y-39131768D01*
X132615943Y-39123495D01*
X132620542Y-39122205D01*
X132733497Y-39099737D01*
X132802320Y-39071229D01*
X132809446Y-39069231D01*
X132837270Y-39069570D01*
X132864944Y-39066595D01*
X132876714Y-39070051D01*
X132879311Y-39070083D01*
X132881305Y-39071399D01*
X132890379Y-39074063D01*
X132976503Y-39109737D01*
X132976506Y-39109737D01*
X132976511Y-39109739D01*
X133131153Y-39140499D01*
X133131156Y-39140500D01*
X133131158Y-39140500D01*
X133288844Y-39140500D01*
X133288845Y-39140499D01*
X133443497Y-39109737D01*
X133589179Y-39049394D01*
X133720289Y-38961789D01*
X133831789Y-38850289D01*
X133919394Y-38719179D01*
X133922731Y-38711124D01*
X133956748Y-38628997D01*
X133979737Y-38573497D01*
X134010500Y-38418842D01*
X134010500Y-38261158D01*
X134010500Y-38261155D01*
X134010499Y-38261153D01*
X133994127Y-38178846D01*
X133979737Y-38106503D01*
X133968281Y-38078846D01*
X133919397Y-37960827D01*
X133919390Y-37960814D01*
X133831789Y-37829711D01*
X133831786Y-37829707D01*
X133720292Y-37718213D01*
X133720288Y-37718210D01*
X133589185Y-37630609D01*
X133589172Y-37630602D01*
X133443501Y-37570264D01*
X133443489Y-37570261D01*
X133288845Y-37539500D01*
X133288842Y-37539500D01*
X133131158Y-37539500D01*
X133131157Y-37539500D01*
X133099552Y-37545786D01*
X133029960Y-37539557D01*
X132974784Y-37496693D01*
X132951541Y-37430803D01*
X132967610Y-37362806D01*
X133006474Y-37321065D01*
X133028718Y-37306202D01*
X133050289Y-37291789D01*
X133161789Y-37180289D01*
X133249394Y-37049179D01*
X133309737Y-36903497D01*
X133340500Y-36748842D01*
X133340500Y-36591158D01*
X133340500Y-36591155D01*
X133340499Y-36591153D01*
X133332255Y-36549707D01*
X133309737Y-36436503D01*
X133286452Y-36380288D01*
X133249397Y-36290827D01*
X133249390Y-36290814D01*
X133161789Y-36159711D01*
X133161786Y-36159707D01*
X133050292Y-36048213D01*
X133050288Y-36048210D01*
X132919185Y-35960609D01*
X132919172Y-35960602D01*
X132773501Y-35900264D01*
X132773489Y-35900261D01*
X132618845Y-35869500D01*
X132618842Y-35869500D01*
X132461158Y-35869500D01*
X132461155Y-35869500D01*
X132306510Y-35900261D01*
X132306498Y-35900264D01*
X132160827Y-35960602D01*
X132160814Y-35960609D01*
X132108891Y-35995304D01*
X132042214Y-36016182D01*
X131974833Y-35997698D01*
X131971109Y-35995304D01*
X131919185Y-35960609D01*
X131919172Y-35960602D01*
X131773501Y-35900264D01*
X131773491Y-35900261D01*
X131718869Y-35889396D01*
X131712283Y-35885951D01*
X131704853Y-35885746D01*
X131681746Y-35869977D01*
X131656958Y-35857011D01*
X131651848Y-35849574D01*
X131647141Y-35846362D01*
X131630176Y-35818032D01*
X131628887Y-35816155D01*
X131628678Y-35815663D01*
X131589394Y-35720821D01*
X131586932Y-35717137D01*
X131582870Y-35707549D01*
X131579471Y-35678173D01*
X131573444Y-35649227D01*
X131575253Y-35641717D01*
X131574840Y-35638142D01*
X131577347Y-35633030D01*
X131582482Y-35611723D01*
X131639737Y-35473497D01*
X131670500Y-35318842D01*
X131670500Y-35161158D01*
X131670500Y-35161155D01*
X131670499Y-35161153D01*
X131639738Y-35006510D01*
X131639737Y-35006503D01*
X131631453Y-34986503D01*
X131579397Y-34860827D01*
X131579390Y-34860814D01*
X131491789Y-34729711D01*
X131491786Y-34729707D01*
X131380292Y-34618213D01*
X131380288Y-34618210D01*
X131249185Y-34530609D01*
X131249172Y-34530602D01*
X131103501Y-34470264D01*
X131103489Y-34470261D01*
X130948845Y-34439500D01*
X130948842Y-34439500D01*
X130791158Y-34439500D01*
X130791155Y-34439500D01*
X130636510Y-34470261D01*
X130636498Y-34470264D01*
X130490828Y-34530602D01*
X130490815Y-34530609D01*
X130476403Y-34540239D01*
X130409724Y-34561114D01*
X130344659Y-34543262D01*
X130344546Y-34543475D01*
X130343607Y-34542973D01*
X130342345Y-34542627D01*
X130339306Y-34540674D01*
X130339174Y-34540603D01*
X130193501Y-34480264D01*
X130193489Y-34480261D01*
X130038845Y-34449500D01*
X130038842Y-34449500D01*
X129881158Y-34449500D01*
X129881155Y-34449500D01*
X129726510Y-34480261D01*
X129726498Y-34480264D01*
X129580828Y-34540602D01*
X129580814Y-34540610D01*
X129567072Y-34549792D01*
X129500394Y-34570668D01*
X129450732Y-34561249D01*
X129303501Y-34500264D01*
X129303489Y-34500261D01*
X129148845Y-34469500D01*
X129148842Y-34469500D01*
X128991158Y-34469500D01*
X128991155Y-34469500D01*
X128836510Y-34500261D01*
X128836498Y-34500264D01*
X128690827Y-34560602D01*
X128690814Y-34560609D01*
X128559711Y-34648210D01*
X128465424Y-34742497D01*
X128448097Y-34751957D01*
X128433706Y-34765468D01*
X128418062Y-34768357D01*
X128404100Y-34775981D01*
X128384409Y-34774572D01*
X128364998Y-34778158D01*
X128350277Y-34772131D01*
X128334409Y-34770997D01*
X128318605Y-34759166D01*
X128300337Y-34751688D01*
X128282127Y-34731858D01*
X128278476Y-34729125D01*
X128276180Y-34725956D01*
X128275383Y-34724819D01*
X128191789Y-34599711D01*
X128178304Y-34586226D01*
X128172086Y-34577349D01*
X128164240Y-34554097D01*
X128152483Y-34532566D01*
X128153268Y-34521582D01*
X128149747Y-34511147D01*
X128155716Y-34487346D01*
X128157467Y-34462874D01*
X128166072Y-34446059D01*
X128166746Y-34443376D01*
X128168094Y-34442110D01*
X128170548Y-34437316D01*
X128209389Y-34379187D01*
X128209390Y-34379184D01*
X128209394Y-34379179D01*
X128269737Y-34233497D01*
X128300500Y-34078842D01*
X128300500Y-33921158D01*
X128300500Y-33921155D01*
X128300499Y-33921153D01*
X128276253Y-33799257D01*
X128272651Y-33781153D01*
X134189500Y-33781153D01*
X134189500Y-33938846D01*
X134220260Y-34093488D01*
X134220262Y-34093493D01*
X134220263Y-34093497D01*
X134232343Y-34122661D01*
X134244723Y-34152549D01*
X134252191Y-34222018D01*
X134244723Y-34247447D01*
X134220263Y-34306503D01*
X134220262Y-34306506D01*
X134220260Y-34306511D01*
X134189500Y-34461153D01*
X134189500Y-34618846D01*
X134220260Y-34773488D01*
X134220262Y-34773493D01*
X134220263Y-34773497D01*
X134244722Y-34832547D01*
X134244723Y-34832549D01*
X134252191Y-34902018D01*
X134244723Y-34927447D01*
X134220263Y-34986503D01*
X134220262Y-34986506D01*
X134220260Y-34986511D01*
X134189500Y-35141153D01*
X134189500Y-35298846D01*
X134220260Y-35453488D01*
X134220262Y-35453493D01*
X134220263Y-35453497D01*
X134238510Y-35497549D01*
X134245978Y-35567018D01*
X134238511Y-35592447D01*
X134220263Y-35636503D01*
X134220262Y-35636506D01*
X134220260Y-35636511D01*
X134189500Y-35791153D01*
X134189500Y-35948846D01*
X134220261Y-36103489D01*
X134220264Y-36103501D01*
X134280602Y-36249172D01*
X134280609Y-36249185D01*
X134368210Y-36380288D01*
X134368213Y-36380292D01*
X134479707Y-36491786D01*
X134479711Y-36491789D01*
X134610814Y-36579390D01*
X134610827Y-36579397D01*
X134756498Y-36639735D01*
X134756503Y-36639737D01*
X134779793Y-36644369D01*
X134808126Y-36650006D01*
X134870037Y-36682391D01*
X134904611Y-36743106D01*
X134900872Y-36812876D01*
X134881570Y-36847129D01*
X134881595Y-36847146D01*
X134881375Y-36847474D01*
X134879794Y-36850281D01*
X134878212Y-36852208D01*
X134790609Y-36983314D01*
X134790602Y-36983327D01*
X134730264Y-37128998D01*
X134730261Y-37129010D01*
X134699500Y-37283653D01*
X134699500Y-37441346D01*
X134730261Y-37595989D01*
X134730264Y-37596001D01*
X134790602Y-37741672D01*
X134790609Y-37741685D01*
X134878210Y-37872788D01*
X134878213Y-37872792D01*
X134989707Y-37984286D01*
X134989711Y-37984289D01*
X135120814Y-38071890D01*
X135120827Y-38071897D01*
X135266498Y-38132235D01*
X135266503Y-38132237D01*
X135421153Y-38162999D01*
X135421156Y-38163000D01*
X135421158Y-38163000D01*
X135578844Y-38163000D01*
X135578845Y-38162999D01*
X135733497Y-38132237D01*
X135879179Y-38071894D01*
X136010289Y-37984289D01*
X136121789Y-37872789D01*
X136209394Y-37741679D01*
X136269737Y-37595997D01*
X136300500Y-37441342D01*
X136300500Y-37283658D01*
X136300500Y-37283655D01*
X136300499Y-37283653D01*
X136295710Y-37259579D01*
X136269737Y-37129003D01*
X136236670Y-37049172D01*
X136209397Y-36983327D01*
X136209390Y-36983314D01*
X136121788Y-36852209D01*
X136120213Y-36850290D01*
X136119702Y-36849087D01*
X136118405Y-36847146D01*
X136118773Y-36846900D01*
X136092898Y-36785981D01*
X136104688Y-36717113D01*
X136151839Y-36665552D01*
X136191873Y-36650006D01*
X136208402Y-36646717D01*
X136243497Y-36639737D01*
X136389179Y-36579394D01*
X136520289Y-36491789D01*
X136631789Y-36380289D01*
X136719394Y-36249179D01*
X136779737Y-36103497D01*
X136810500Y-35948842D01*
X136810500Y-35791158D01*
X136810500Y-35791155D01*
X136810499Y-35791153D01*
X136798691Y-35731789D01*
X136779737Y-35636503D01*
X136778298Y-35633030D01*
X136761491Y-35592454D01*
X136754021Y-35522985D01*
X136761491Y-35497546D01*
X136779735Y-35453502D01*
X136779735Y-35453501D01*
X136779737Y-35453497D01*
X136810500Y-35298842D01*
X136810500Y-35141158D01*
X136810500Y-35141155D01*
X136810499Y-35141153D01*
X136808793Y-35132576D01*
X136779737Y-34986503D01*
X136755276Y-34927450D01*
X136747808Y-34857984D01*
X136755275Y-34832552D01*
X136779737Y-34773497D01*
X136810500Y-34618842D01*
X136810500Y-34461158D01*
X136810500Y-34461155D01*
X136810499Y-34461153D01*
X136784463Y-34330263D01*
X136779737Y-34306503D01*
X136755276Y-34247450D01*
X136747808Y-34177984D01*
X136755275Y-34152552D01*
X136779737Y-34093497D01*
X136810500Y-33938842D01*
X136810500Y-33781158D01*
X136810500Y-33781155D01*
X136810499Y-33781153D01*
X136785547Y-33655711D01*
X136779737Y-33626503D01*
X136777386Y-33620827D01*
X136719397Y-33480827D01*
X136719390Y-33480814D01*
X136631789Y-33349711D01*
X136631786Y-33349707D01*
X136520292Y-33238213D01*
X136520288Y-33238210D01*
X136389185Y-33150609D01*
X136389172Y-33150602D01*
X136243501Y-33090264D01*
X136243489Y-33090261D01*
X136088845Y-33059500D01*
X136088842Y-33059500D01*
X135931158Y-33059500D01*
X135931153Y-33059500D01*
X135830057Y-33079609D01*
X135760465Y-33073382D01*
X135705288Y-33030518D01*
X135682044Y-32964628D01*
X135698112Y-32896632D01*
X135702767Y-32889097D01*
X135709390Y-32879185D01*
X135709390Y-32879184D01*
X135709394Y-32879179D01*
X135769737Y-32733497D01*
X135800500Y-32578842D01*
X135800500Y-32421158D01*
X135800500Y-32421155D01*
X135800499Y-32421153D01*
X135769738Y-32266510D01*
X135769737Y-32266503D01*
X135750000Y-32218853D01*
X135709397Y-32120827D01*
X135709390Y-32120814D01*
X135621789Y-31989711D01*
X135621786Y-31989707D01*
X135510292Y-31878213D01*
X135510288Y-31878210D01*
X135379185Y-31790609D01*
X135379172Y-31790602D01*
X135233501Y-31730264D01*
X135233489Y-31730261D01*
X135078845Y-31699500D01*
X135078842Y-31699500D01*
X134921158Y-31699500D01*
X134921155Y-31699500D01*
X134766510Y-31730261D01*
X134766498Y-31730264D01*
X134620827Y-31790602D01*
X134620814Y-31790609D01*
X134489711Y-31878210D01*
X134489707Y-31878213D01*
X134378213Y-31989707D01*
X134378210Y-31989711D01*
X134290609Y-32120814D01*
X134290602Y-32120827D01*
X134230264Y-32266498D01*
X134230261Y-32266510D01*
X134199500Y-32421153D01*
X134199500Y-32578846D01*
X134230261Y-32733489D01*
X134230264Y-32733501D01*
X134290602Y-32879172D01*
X134290609Y-32879185D01*
X134378210Y-33010288D01*
X134378213Y-33010292D01*
X134455240Y-33087319D01*
X134488725Y-33148642D01*
X134483741Y-33218334D01*
X134455240Y-33262681D01*
X134368213Y-33349707D01*
X134368210Y-33349711D01*
X134280609Y-33480814D01*
X134280602Y-33480827D01*
X134220264Y-33626498D01*
X134220261Y-33626510D01*
X134189500Y-33781153D01*
X128272651Y-33781153D01*
X128269738Y-33766508D01*
X128269737Y-33766507D01*
X128269737Y-33766503D01*
X128255785Y-33732819D01*
X128209397Y-33620827D01*
X128209390Y-33620814D01*
X128121789Y-33489711D01*
X128121786Y-33489707D01*
X128010292Y-33378213D01*
X128010284Y-33378207D01*
X127972712Y-33353102D01*
X127927906Y-33299490D01*
X127919199Y-33230165D01*
X127949353Y-33167138D01*
X127972712Y-33146898D01*
X128000001Y-33128663D01*
X128010289Y-33121789D01*
X128121789Y-33010289D01*
X128209394Y-32879179D01*
X128269737Y-32733497D01*
X128300500Y-32578842D01*
X128300500Y-32421158D01*
X128300500Y-32421155D01*
X128300499Y-32421153D01*
X129199500Y-32421153D01*
X129199500Y-32578846D01*
X129230261Y-32733489D01*
X129230264Y-32733501D01*
X129290602Y-32879172D01*
X129290609Y-32879185D01*
X129378210Y-33010288D01*
X129378213Y-33010292D01*
X129489707Y-33121786D01*
X129489711Y-33121789D01*
X129620814Y-33209390D01*
X129620827Y-33209397D01*
X129766498Y-33269735D01*
X129766503Y-33269737D01*
X129921153Y-33300499D01*
X129921156Y-33300500D01*
X129921158Y-33300500D01*
X130078844Y-33300500D01*
X130078845Y-33300499D01*
X130233497Y-33269737D01*
X130357596Y-33218334D01*
X130379172Y-33209397D01*
X130379172Y-33209396D01*
X130379179Y-33209394D01*
X130510289Y-33121789D01*
X130621789Y-33010289D01*
X130709394Y-32879179D01*
X130769737Y-32733497D01*
X130800500Y-32578842D01*
X130800500Y-32421158D01*
X130800500Y-32421155D01*
X130800499Y-32421153D01*
X131699500Y-32421153D01*
X131699500Y-32578846D01*
X131730261Y-32733489D01*
X131730264Y-32733501D01*
X131790602Y-32879172D01*
X131790609Y-32879185D01*
X131878210Y-33010288D01*
X131878213Y-33010292D01*
X131989707Y-33121786D01*
X131989711Y-33121789D01*
X132120814Y-33209390D01*
X132120827Y-33209397D01*
X132266498Y-33269735D01*
X132266503Y-33269737D01*
X132421153Y-33300499D01*
X132421156Y-33300500D01*
X132421158Y-33300500D01*
X132578844Y-33300500D01*
X132578845Y-33300499D01*
X132733497Y-33269737D01*
X132857596Y-33218334D01*
X132879172Y-33209397D01*
X132879172Y-33209396D01*
X132879179Y-33209394D01*
X133010289Y-33121789D01*
X133121789Y-33010289D01*
X133209394Y-32879179D01*
X133269737Y-32733497D01*
X133300500Y-32578842D01*
X133300500Y-32421158D01*
X133300500Y-32421155D01*
X133300499Y-32421153D01*
X133269738Y-32266510D01*
X133269737Y-32266503D01*
X133250000Y-32218853D01*
X133209397Y-32120827D01*
X133209390Y-32120814D01*
X133121789Y-31989711D01*
X133121786Y-31989707D01*
X133010292Y-31878213D01*
X133010288Y-31878210D01*
X132879185Y-31790609D01*
X132879172Y-31790602D01*
X132733501Y-31730264D01*
X132733489Y-31730261D01*
X132578845Y-31699500D01*
X132578842Y-31699500D01*
X132421158Y-31699500D01*
X132421155Y-31699500D01*
X132266510Y-31730261D01*
X132266498Y-31730264D01*
X132120827Y-31790602D01*
X132120814Y-31790609D01*
X131989711Y-31878210D01*
X131989707Y-31878213D01*
X131878213Y-31989707D01*
X131878210Y-31989711D01*
X131790609Y-32120814D01*
X131790602Y-32120827D01*
X131730264Y-32266498D01*
X131730261Y-32266510D01*
X131699500Y-32421153D01*
X130800499Y-32421153D01*
X130769738Y-32266510D01*
X130769737Y-32266503D01*
X130750000Y-32218853D01*
X130709397Y-32120827D01*
X130709390Y-32120814D01*
X130621789Y-31989711D01*
X130621786Y-31989707D01*
X130510292Y-31878213D01*
X130510288Y-31878210D01*
X130379185Y-31790609D01*
X130379172Y-31790602D01*
X130233501Y-31730264D01*
X130233489Y-31730261D01*
X130078845Y-31699500D01*
X130078842Y-31699500D01*
X129921158Y-31699500D01*
X129921155Y-31699500D01*
X129766510Y-31730261D01*
X129766498Y-31730264D01*
X129620827Y-31790602D01*
X129620814Y-31790609D01*
X129489711Y-31878210D01*
X129489707Y-31878213D01*
X129378213Y-31989707D01*
X129378210Y-31989711D01*
X129290609Y-32120814D01*
X129290602Y-32120827D01*
X129230264Y-32266498D01*
X129230261Y-32266510D01*
X129199500Y-32421153D01*
X128300499Y-32421153D01*
X128269738Y-32266510D01*
X128269737Y-32266503D01*
X128250000Y-32218853D01*
X128209397Y-32120827D01*
X128209390Y-32120814D01*
X128121789Y-31989711D01*
X128121786Y-31989707D01*
X128010292Y-31878213D01*
X128010288Y-31878210D01*
X127879185Y-31790609D01*
X127879172Y-31790602D01*
X127733501Y-31730264D01*
X127733489Y-31730261D01*
X127578845Y-31699500D01*
X127578842Y-31699500D01*
X127421158Y-31699500D01*
X127421155Y-31699500D01*
X127266510Y-31730261D01*
X127266498Y-31730264D01*
X127120827Y-31790602D01*
X127120814Y-31790609D01*
X126989711Y-31878210D01*
X126989707Y-31878213D01*
X126878213Y-31989707D01*
X126853102Y-32027289D01*
X126799489Y-32072093D01*
X126730164Y-32080800D01*
X126667137Y-32050645D01*
X126646898Y-32027289D01*
X126621786Y-31989707D01*
X126510292Y-31878213D01*
X126510288Y-31878210D01*
X126379185Y-31790609D01*
X126379172Y-31790602D01*
X126233501Y-31730264D01*
X126233489Y-31730261D01*
X126078845Y-31699500D01*
X126078842Y-31699500D01*
X125921158Y-31699500D01*
X125921155Y-31699500D01*
X125766510Y-31730261D01*
X125766498Y-31730264D01*
X125620827Y-31790602D01*
X125620814Y-31790609D01*
X125568891Y-31825304D01*
X125502214Y-31846182D01*
X125434833Y-31827698D01*
X125431109Y-31825304D01*
X125379185Y-31790609D01*
X125379172Y-31790602D01*
X125233501Y-31730264D01*
X125233489Y-31730261D01*
X125078845Y-31699500D01*
X125078842Y-31699500D01*
X124921158Y-31699500D01*
X124921155Y-31699500D01*
X124766510Y-31730261D01*
X124766498Y-31730264D01*
X124620828Y-31790602D01*
X124620814Y-31790610D01*
X124598888Y-31805260D01*
X124532210Y-31826136D01*
X124464830Y-31807649D01*
X124461112Y-31805260D01*
X124439185Y-31790610D01*
X124439184Y-31790609D01*
X124439179Y-31790606D01*
X124439175Y-31790604D01*
X124439171Y-31790602D01*
X124293501Y-31730264D01*
X124293489Y-31730261D01*
X124138845Y-31699500D01*
X124138842Y-31699500D01*
X123981158Y-31699500D01*
X123981155Y-31699500D01*
X123826510Y-31730261D01*
X123826498Y-31730264D01*
X123680827Y-31790602D01*
X123680814Y-31790609D01*
X123598891Y-31845349D01*
X123532213Y-31866227D01*
X123464833Y-31847742D01*
X123461109Y-31845349D01*
X123379185Y-31790609D01*
X123379172Y-31790602D01*
X123233501Y-31730264D01*
X123233489Y-31730261D01*
X123078845Y-31699500D01*
X123078842Y-31699500D01*
X122921158Y-31699500D01*
X122921155Y-31699500D01*
X122766510Y-31730261D01*
X122766498Y-31730264D01*
X122620827Y-31790602D01*
X122620814Y-31790609D01*
X122568891Y-31825304D01*
X122502214Y-31846182D01*
X122434833Y-31827698D01*
X122431109Y-31825304D01*
X122379185Y-31790609D01*
X122379172Y-31790602D01*
X122233501Y-31730264D01*
X122233489Y-31730261D01*
X122078845Y-31699500D01*
X122078842Y-31699500D01*
X121921158Y-31699500D01*
X121921155Y-31699500D01*
X121766510Y-31730261D01*
X121766498Y-31730264D01*
X121672452Y-31769219D01*
X121602982Y-31776688D01*
X121577548Y-31769219D01*
X121483501Y-31730264D01*
X121483489Y-31730261D01*
X121328845Y-31699500D01*
X121328842Y-31699500D01*
X121171158Y-31699500D01*
X121171155Y-31699500D01*
X121016510Y-31730261D01*
X121016507Y-31730261D01*
X120921952Y-31769427D01*
X120852482Y-31776895D01*
X120790003Y-31745619D01*
X120754351Y-31685530D01*
X120750500Y-31654865D01*
X120750500Y-29921153D01*
X121699500Y-29921153D01*
X121699500Y-30078846D01*
X121730261Y-30233489D01*
X121730264Y-30233501D01*
X121790602Y-30379172D01*
X121790609Y-30379185D01*
X121878210Y-30510288D01*
X121878213Y-30510292D01*
X121989707Y-30621786D01*
X121989711Y-30621789D01*
X122120814Y-30709390D01*
X122120827Y-30709397D01*
X122266498Y-30769735D01*
X122266503Y-30769737D01*
X122421153Y-30800499D01*
X122421156Y-30800500D01*
X122421158Y-30800500D01*
X122578844Y-30800500D01*
X122578845Y-30800499D01*
X122733497Y-30769737D01*
X122879179Y-30709394D01*
X123010289Y-30621789D01*
X123121789Y-30510289D01*
X123209394Y-30379179D01*
X123269737Y-30233497D01*
X123300500Y-30078842D01*
X123300500Y-29921158D01*
X123300500Y-29921155D01*
X123300499Y-29921153D01*
X124199500Y-29921153D01*
X124199500Y-30078846D01*
X124230261Y-30233489D01*
X124230264Y-30233501D01*
X124290602Y-30379172D01*
X124290609Y-30379185D01*
X124378210Y-30510288D01*
X124378213Y-30510292D01*
X124489707Y-30621786D01*
X124489711Y-30621789D01*
X124620814Y-30709390D01*
X124620827Y-30709397D01*
X124766498Y-30769735D01*
X124766503Y-30769737D01*
X124921153Y-30800499D01*
X124921156Y-30800500D01*
X124921158Y-30800500D01*
X125078844Y-30800500D01*
X125078845Y-30800499D01*
X125233497Y-30769737D01*
X125379179Y-30709394D01*
X125510289Y-30621789D01*
X125621789Y-30510289D01*
X125709394Y-30379179D01*
X125769737Y-30233497D01*
X125800500Y-30078842D01*
X125800500Y-29921158D01*
X125800500Y-29921155D01*
X125800499Y-29921153D01*
X126699500Y-29921153D01*
X126699500Y-30078846D01*
X126730261Y-30233489D01*
X126730264Y-30233501D01*
X126790602Y-30379172D01*
X126790609Y-30379185D01*
X126878210Y-30510288D01*
X126878213Y-30510292D01*
X126989707Y-30621786D01*
X126989711Y-30621789D01*
X127120814Y-30709390D01*
X127120827Y-30709397D01*
X127266498Y-30769735D01*
X127266503Y-30769737D01*
X127421153Y-30800499D01*
X127421156Y-30800500D01*
X127421158Y-30800500D01*
X127578844Y-30800500D01*
X127578845Y-30800499D01*
X127733497Y-30769737D01*
X127879179Y-30709394D01*
X128010289Y-30621789D01*
X128121789Y-30510289D01*
X128209394Y-30379179D01*
X128269737Y-30233497D01*
X128300500Y-30078842D01*
X128300500Y-29921158D01*
X128300500Y-29921155D01*
X128300499Y-29921153D01*
X129199500Y-29921153D01*
X129199500Y-30078846D01*
X129230261Y-30233489D01*
X129230264Y-30233501D01*
X129290602Y-30379172D01*
X129290609Y-30379185D01*
X129378210Y-30510288D01*
X129378213Y-30510292D01*
X129489707Y-30621786D01*
X129489711Y-30621789D01*
X129620814Y-30709390D01*
X129620827Y-30709397D01*
X129766498Y-30769735D01*
X129766503Y-30769737D01*
X129921153Y-30800499D01*
X129921156Y-30800500D01*
X129921158Y-30800500D01*
X130078844Y-30800500D01*
X130078845Y-30800499D01*
X130233497Y-30769737D01*
X130379179Y-30709394D01*
X130510289Y-30621789D01*
X130621789Y-30510289D01*
X130709394Y-30379179D01*
X130769737Y-30233497D01*
X130800500Y-30078842D01*
X130800500Y-29921158D01*
X130800500Y-29921155D01*
X130800499Y-29921153D01*
X131699500Y-29921153D01*
X131699500Y-30078846D01*
X131730261Y-30233489D01*
X131730264Y-30233501D01*
X131790602Y-30379172D01*
X131790609Y-30379185D01*
X131878210Y-30510288D01*
X131878213Y-30510292D01*
X131989707Y-30621786D01*
X131989711Y-30621789D01*
X132120814Y-30709390D01*
X132120827Y-30709397D01*
X132266498Y-30769735D01*
X132266503Y-30769737D01*
X132421153Y-30800499D01*
X132421156Y-30800500D01*
X132421158Y-30800500D01*
X132578844Y-30800500D01*
X132578845Y-30800499D01*
X132733497Y-30769737D01*
X132879179Y-30709394D01*
X133010289Y-30621789D01*
X133121789Y-30510289D01*
X133209394Y-30379179D01*
X133269737Y-30233497D01*
X133300500Y-30078842D01*
X133300500Y-29921158D01*
X133300500Y-29921155D01*
X133300499Y-29921153D01*
X134199500Y-29921153D01*
X134199500Y-30078846D01*
X134230261Y-30233489D01*
X134230264Y-30233501D01*
X134290602Y-30379172D01*
X134290609Y-30379185D01*
X134378210Y-30510288D01*
X134378213Y-30510292D01*
X134489707Y-30621786D01*
X134489711Y-30621789D01*
X134620814Y-30709390D01*
X134620827Y-30709397D01*
X134766498Y-30769735D01*
X134766503Y-30769737D01*
X134921153Y-30800499D01*
X134921156Y-30800500D01*
X134921158Y-30800500D01*
X135078844Y-30800500D01*
X135078845Y-30800499D01*
X135233497Y-30769737D01*
X135379179Y-30709394D01*
X135510289Y-30621789D01*
X135621789Y-30510289D01*
X135709394Y-30379179D01*
X135769737Y-30233497D01*
X135800500Y-30078842D01*
X135800500Y-29921158D01*
X135800500Y-29921155D01*
X135800499Y-29921153D01*
X135769738Y-29766510D01*
X135769737Y-29766503D01*
X135769735Y-29766498D01*
X135709397Y-29620827D01*
X135709390Y-29620814D01*
X135621789Y-29489711D01*
X135621786Y-29489707D01*
X135510292Y-29378213D01*
X135510288Y-29378210D01*
X135379185Y-29290609D01*
X135379172Y-29290602D01*
X135233501Y-29230264D01*
X135233489Y-29230261D01*
X135078845Y-29199500D01*
X135078842Y-29199500D01*
X134921158Y-29199500D01*
X134921155Y-29199500D01*
X134766510Y-29230261D01*
X134766498Y-29230264D01*
X134620827Y-29290602D01*
X134620814Y-29290609D01*
X134489711Y-29378210D01*
X134489707Y-29378213D01*
X134378213Y-29489707D01*
X134378210Y-29489711D01*
X134290609Y-29620814D01*
X134290602Y-29620827D01*
X134230264Y-29766498D01*
X134230261Y-29766510D01*
X134199500Y-29921153D01*
X133300499Y-29921153D01*
X133269738Y-29766510D01*
X133269737Y-29766503D01*
X133269735Y-29766498D01*
X133209397Y-29620827D01*
X133209390Y-29620814D01*
X133121789Y-29489711D01*
X133121786Y-29489707D01*
X133010292Y-29378213D01*
X133010288Y-29378210D01*
X132879185Y-29290609D01*
X132879172Y-29290602D01*
X132733501Y-29230264D01*
X132733489Y-29230261D01*
X132578845Y-29199500D01*
X132578842Y-29199500D01*
X132421158Y-29199500D01*
X132421155Y-29199500D01*
X132266510Y-29230261D01*
X132266498Y-29230264D01*
X132120827Y-29290602D01*
X132120814Y-29290609D01*
X131989711Y-29378210D01*
X131989707Y-29378213D01*
X131878213Y-29489707D01*
X131878210Y-29489711D01*
X131790609Y-29620814D01*
X131790602Y-29620827D01*
X131730264Y-29766498D01*
X131730261Y-29766510D01*
X131699500Y-29921153D01*
X130800499Y-29921153D01*
X130769738Y-29766510D01*
X130769737Y-29766503D01*
X130769735Y-29766498D01*
X130709397Y-29620827D01*
X130709390Y-29620814D01*
X130621789Y-29489711D01*
X130621786Y-29489707D01*
X130510292Y-29378213D01*
X130510288Y-29378210D01*
X130379185Y-29290609D01*
X130379172Y-29290602D01*
X130233501Y-29230264D01*
X130233489Y-29230261D01*
X130078845Y-29199500D01*
X130078842Y-29199500D01*
X129921158Y-29199500D01*
X129921155Y-29199500D01*
X129766510Y-29230261D01*
X129766498Y-29230264D01*
X129620827Y-29290602D01*
X129620814Y-29290609D01*
X129489711Y-29378210D01*
X129489707Y-29378213D01*
X129378213Y-29489707D01*
X129378210Y-29489711D01*
X129290609Y-29620814D01*
X129290602Y-29620827D01*
X129230264Y-29766498D01*
X129230261Y-29766510D01*
X129199500Y-29921153D01*
X128300499Y-29921153D01*
X128269738Y-29766510D01*
X128269737Y-29766503D01*
X128269735Y-29766498D01*
X128209397Y-29620827D01*
X128209390Y-29620814D01*
X128121789Y-29489711D01*
X128121786Y-29489707D01*
X128010292Y-29378213D01*
X128010288Y-29378210D01*
X127879185Y-29290609D01*
X127879172Y-29290602D01*
X127733501Y-29230264D01*
X127733489Y-29230261D01*
X127578845Y-29199500D01*
X127578842Y-29199500D01*
X127421158Y-29199500D01*
X127421155Y-29199500D01*
X127266510Y-29230261D01*
X127266498Y-29230264D01*
X127120827Y-29290602D01*
X127120814Y-29290609D01*
X126989711Y-29378210D01*
X126989707Y-29378213D01*
X126878213Y-29489707D01*
X126878210Y-29489711D01*
X126790609Y-29620814D01*
X126790602Y-29620827D01*
X126730264Y-29766498D01*
X126730261Y-29766510D01*
X126699500Y-29921153D01*
X125800499Y-29921153D01*
X125769738Y-29766510D01*
X125769737Y-29766503D01*
X125769735Y-29766498D01*
X125709397Y-29620827D01*
X125709390Y-29620814D01*
X125621789Y-29489711D01*
X125621786Y-29489707D01*
X125510292Y-29378213D01*
X125510288Y-29378210D01*
X125379185Y-29290609D01*
X125379172Y-29290602D01*
X125233501Y-29230264D01*
X125233489Y-29230261D01*
X125078845Y-29199500D01*
X125078842Y-29199500D01*
X124921158Y-29199500D01*
X124921155Y-29199500D01*
X124766510Y-29230261D01*
X124766498Y-29230264D01*
X124620827Y-29290602D01*
X124620814Y-29290609D01*
X124489711Y-29378210D01*
X124489707Y-29378213D01*
X124378213Y-29489707D01*
X124378210Y-29489711D01*
X124290609Y-29620814D01*
X124290602Y-29620827D01*
X124230264Y-29766498D01*
X124230261Y-29766510D01*
X124199500Y-29921153D01*
X123300499Y-29921153D01*
X123269738Y-29766510D01*
X123269737Y-29766503D01*
X123269735Y-29766498D01*
X123209397Y-29620827D01*
X123209390Y-29620814D01*
X123121789Y-29489711D01*
X123121786Y-29489707D01*
X123010292Y-29378213D01*
X123010288Y-29378210D01*
X122879185Y-29290609D01*
X122879172Y-29290602D01*
X122733501Y-29230264D01*
X122733489Y-29230261D01*
X122578845Y-29199500D01*
X122578842Y-29199500D01*
X122421158Y-29199500D01*
X122421155Y-29199500D01*
X122266510Y-29230261D01*
X122266498Y-29230264D01*
X122120827Y-29290602D01*
X122120814Y-29290609D01*
X121989711Y-29378210D01*
X121989707Y-29378213D01*
X121878213Y-29489707D01*
X121878210Y-29489711D01*
X121790609Y-29620814D01*
X121790602Y-29620827D01*
X121730264Y-29766498D01*
X121730261Y-29766510D01*
X121699500Y-29921153D01*
X120750500Y-29921153D01*
X120750500Y-27124500D01*
X120770185Y-27057461D01*
X120822989Y-27011706D01*
X120874500Y-27000500D01*
X121654866Y-27000500D01*
X121721905Y-27020185D01*
G37*
%TD.AperFunction*%
%TD*%
M02*
