%TF.GenerationSoftware,KiCad,Pcbnew,9.0.2*%
%TF.CreationDate,2026-08-14T16:17:46+08:00*%
%TF.ProjectId,Discriminator,44697363-7269-46d6-996e-61746f722e6b,rev?*%
%TF.SameCoordinates,Original*%
%TF.FileFunction,Copper,L1,Top*%
%TF.FilePolarity,Positive*%
%FSLAX46Y46*%
G04 Gerber Fmt 4.6, Leading zero omitted, Abs format (unit mm)*
G04 Created by KiCad (PCBNEW 9.0.2) date 2026-08-14 16:17:46*
%MOMM*%
%LPD*%
G01*
G04 APERTURE LIST*
G04 Aperture macros list*
%AMRoundRect*
0 Rectangle with rounded corners*
0 $1 Rounding radius*
0 $2 $3 $4 $5 $6 $7 $8 $9 X,Y pos of 4 corners*
0 Add a 4 corners polygon primitive as box body*
4,1,4,$2,$3,$4,$5,$6,$7,$8,$9,$2,$3,0*
0 Add four circle primitives for the rounded corners*
1,1,$1+$1,$2,$3*
1,1,$1+$1,$4,$5*
1,1,$1+$1,$6,$7*
1,1,$1+$1,$8,$9*
0 Add four rect primitives between the rounded corners*
20,1,$1+$1,$2,$3,$4,$5,0*
20,1,$1+$1,$4,$5,$6,$7,0*
20,1,$1+$1,$6,$7,$8,$9,0*
20,1,$1+$1,$8,$9,$2,$3,0*%
%AMFreePoly0*
4,1,9,3.862500,-0.866500,0.737500,-0.866500,0.737500,-0.450000,-0.737500,-0.450000,-0.737500,0.450000,0.737500,0.450000,0.737500,0.866500,3.862500,0.866500,3.862500,-0.866500,3.862500,-0.866500,$1*%
G04 Aperture macros list end*
%TA.AperFunction,SMDPad,CuDef*%
%ADD10RoundRect,0.218750X-0.256250X0.218750X-0.256250X-0.218750X0.256250X-0.218750X0.256250X0.218750X0*%
%TD*%
%TA.AperFunction,SMDPad,CuDef*%
%ADD11R,1.000000X1.000000*%
%TD*%
%TA.AperFunction,SMDPad,CuDef*%
%ADD12RoundRect,0.225000X0.225000X-0.425000X0.225000X0.425000X-0.225000X0.425000X-0.225000X-0.425000X0*%
%TD*%
%TA.AperFunction,SMDPad,CuDef*%
%ADD13FreePoly0,90.000000*%
%TD*%
%TA.AperFunction,SMDPad,CuDef*%
%ADD14RoundRect,0.140000X0.140000X0.170000X-0.140000X0.170000X-0.140000X-0.170000X0.140000X-0.170000X0*%
%TD*%
%TA.AperFunction,SMDPad,CuDef*%
%ADD15R,1.143000X0.457200*%
%TD*%
%TA.AperFunction,SMDPad,CuDef*%
%ADD16R,1.143000X0.762000*%
%TD*%
%TA.AperFunction,SMDPad,CuDef*%
%ADD17RoundRect,0.225000X0.225000X0.250000X-0.225000X0.250000X-0.225000X-0.250000X0.225000X-0.250000X0*%
%TD*%
%TA.AperFunction,SMDPad,CuDef*%
%ADD18RoundRect,0.250000X-0.250000X-0.475000X0.250000X-0.475000X0.250000X0.475000X-0.250000X0.475000X0*%
%TD*%
%TA.AperFunction,SMDPad,CuDef*%
%ADD19RoundRect,0.200000X-0.200000X-0.275000X0.200000X-0.275000X0.200000X0.275000X-0.200000X0.275000X0*%
%TD*%
%TA.AperFunction,SMDPad,CuDef*%
%ADD20RoundRect,0.225000X-0.225000X-0.250000X0.225000X-0.250000X0.225000X0.250000X-0.225000X0.250000X0*%
%TD*%
%TA.AperFunction,SMDPad,CuDef*%
%ADD21RoundRect,0.100000X-0.100000X0.225000X-0.100000X-0.225000X0.100000X-0.225000X0.100000X0.225000X0*%
%TD*%
%TA.AperFunction,SMDPad,CuDef*%
%ADD22RoundRect,0.140000X-0.140000X-0.170000X0.140000X-0.170000X0.140000X0.170000X-0.140000X0.170000X0*%
%TD*%
%TA.AperFunction,SMDPad,CuDef*%
%ADD23RoundRect,0.225000X-0.250000X0.225000X-0.250000X-0.225000X0.250000X-0.225000X0.250000X0.225000X0*%
%TD*%
%TA.AperFunction,SMDPad,CuDef*%
%ADD24RoundRect,0.218750X-0.218750X-0.256250X0.218750X-0.256250X0.218750X0.256250X-0.218750X0.256250X0*%
%TD*%
%TA.AperFunction,ComponentPad*%
%ADD25RoundRect,0.250000X-0.725000X0.600000X-0.725000X-0.600000X0.725000X-0.600000X0.725000X0.600000X0*%
%TD*%
%TA.AperFunction,ComponentPad*%
%ADD26O,1.950000X1.700000*%
%TD*%
%TA.AperFunction,SMDPad,CuDef*%
%ADD27RoundRect,0.135000X-0.135000X-0.185000X0.135000X-0.185000X0.135000X0.185000X-0.135000X0.185000X0*%
%TD*%
%TA.AperFunction,SMDPad,CuDef*%
%ADD28RoundRect,0.200000X-0.275000X0.200000X-0.275000X-0.200000X0.275000X-0.200000X0.275000X0.200000X0*%
%TD*%
%TA.AperFunction,SMDPad,CuDef*%
%ADD29R,0.762000X1.270000*%
%TD*%
%TA.AperFunction,SMDPad,CuDef*%
%ADD30RoundRect,0.250000X-1.350000X0.385000X-1.350000X-0.385000X1.350000X-0.385000X1.350000X0.385000X0*%
%TD*%
%TA.AperFunction,SMDPad,CuDef*%
%ADD31RoundRect,0.250000X-1.600000X0.425000X-1.600000X-0.425000X1.600000X-0.425000X1.600000X0.425000X0*%
%TD*%
%TA.AperFunction,SMDPad,CuDef*%
%ADD32RoundRect,0.250000X0.250000X0.475000X-0.250000X0.475000X-0.250000X-0.475000X0.250000X-0.475000X0*%
%TD*%
%TA.AperFunction,SMDPad,CuDef*%
%ADD33RoundRect,0.135000X-0.185000X0.135000X-0.185000X-0.135000X0.185000X-0.135000X0.185000X0.135000X0*%
%TD*%
%TA.AperFunction,ViaPad*%
%ADD34C,0.600000*%
%TD*%
%TA.AperFunction,Conductor*%
%ADD35C,0.355542*%
%TD*%
%TA.AperFunction,Conductor*%
%ADD36C,0.500000*%
%TD*%
G04 APERTURE END LIST*
D10*
%TO.P,L2,1,1*%
%TO.N,Net-(C2-Pad1)*%
X134820000Y-39185000D03*
%TO.P,L2,2,2*%
%TO.N,Net-(L2-Pad2)*%
X134820000Y-40760000D03*
%TD*%
D11*
%TO.P,TP5,1,1*%
%TO.N,Net-(C12-Pad1)*%
X141900000Y-31200000D03*
%TD*%
D12*
%TO.P,U2,1*%
%TO.N,Net-(C2-Pad1)*%
X134000000Y-37450000D03*
D13*
%TO.P,U2,2,GND*%
%TO.N,GND*%
X135500000Y-37362500D03*
D12*
%TO.P,U2,3*%
%TO.N,Net-(C8-Pad1)*%
X137000000Y-37450000D03*
%TD*%
D11*
%TO.P,TP9,1,1*%
%TO.N,/Pulse*%
X157000000Y-36500000D03*
%TD*%
%TO.P,TP7,1,1*%
%TO.N,+3.3V*%
X157000000Y-45400000D03*
%TD*%
D14*
%TO.P,C2,1*%
%TO.N,Net-(C2-Pad1)*%
X132480000Y-37500000D03*
%TO.P,C2,2*%
%TO.N,Net-(C2-Pad2)*%
X131520000Y-37500000D03*
%TD*%
D15*
%TO.P,U1,1*%
%TO.N,Net-(C2-Pad2)*%
X129955800Y-37295400D03*
D16*
%TO.P,U1,2,GND*%
%TO.N,GND*%
X129955800Y-36152400D03*
D15*
%TO.P,U1,3*%
%TO.N,Net-(C1-Pad1)*%
X128000000Y-36000000D03*
%TO.P,U1,4,GND*%
%TO.N,GND*%
X128000000Y-37295400D03*
%TD*%
D17*
%TO.P,C10,1*%
%TO.N,+5V*%
X138800000Y-45400000D03*
%TO.P,C10,2*%
%TO.N,GND*%
X137250000Y-45400000D03*
%TD*%
D18*
%TO.P,C6,1*%
%TO.N,+5V*%
X130700000Y-48300000D03*
%TO.P,C6,2*%
%TO.N,GND*%
X132600000Y-48300000D03*
%TD*%
D14*
%TO.P,C9,1*%
%TO.N,+5V*%
X138800000Y-43750000D03*
%TO.P,C9,2*%
%TO.N,GND*%
X137840000Y-43750000D03*
%TD*%
D19*
%TO.P,R_b1,1*%
%TO.N,GND*%
X138100000Y-29400000D03*
%TO.P,R_b1,2*%
%TO.N,Net-(C12-Pad1)*%
X139750000Y-29400000D03*
%TD*%
%TO.P,R_Hyst1,1*%
%TO.N,Net-(U_Comparator1-~{LE})*%
X142910000Y-43940000D03*
%TO.P,R_Hyst1,2*%
%TO.N,GND*%
X144560000Y-43940000D03*
%TD*%
D20*
%TO.P,C12,1*%
%TO.N,Net-(C12-Pad1)*%
X141300000Y-33800000D03*
%TO.P,C12,2*%
%TO.N,GND*%
X142850000Y-33800000D03*
%TD*%
D21*
%TO.P,U_Comparator1,1*%
%TO.N,Net-(R_s1-Pad1)*%
X142800000Y-37500000D03*
%TO.P,U_Comparator1,2,VEE*%
%TO.N,GND*%
X142150000Y-37500000D03*
%TO.P,U_Comparator1,3,+*%
%TO.N,Net-(U_Comparator1-+)*%
X141500000Y-37500000D03*
%TO.P,U_Comparator1,4,-*%
%TO.N,/V_threshold*%
X141500000Y-39400000D03*
%TO.P,U_Comparator1,5,~{LE}*%
%TO.N,Net-(U_Comparator1-~{LE})*%
X142150000Y-39400000D03*
%TO.P,U_Comparator1,6,VCC*%
%TO.N,+3.3V*%
X142800000Y-39400000D03*
%TD*%
D11*
%TO.P,TP2,1,1*%
%TO.N,Net-(C2-Pad2)*%
X128500000Y-39500000D03*
%TD*%
%TO.P,TP1,1,1*%
%TO.N,Net-(J3-In)*%
X126000000Y-34000000D03*
%TD*%
D22*
%TO.P,C4,1*%
%TO.N,+5V*%
X132100000Y-44800000D03*
%TO.P,C4,2*%
%TO.N,GND*%
X133060000Y-44800000D03*
%TD*%
D17*
%TO.P,R6,1*%
%TO.N,Net-(D_Life5-K)*%
X144500000Y-49000000D03*
%TO.P,R6,2*%
%TO.N,GND*%
X142950000Y-49000000D03*
%TD*%
D23*
%TO.P,C7,1*%
%TO.N,Net-(C7-Pad1)*%
X134810000Y-45310000D03*
%TO.P,C7,2*%
%TO.N,GND*%
X134810000Y-46860000D03*
%TD*%
D24*
%TO.P,D_Life3.3,1,K*%
%TO.N,Net-(D_Life3.3-K)*%
X146000000Y-47300000D03*
%TO.P,D_Life3.3,2,A*%
%TO.N,+3.3V*%
X147575000Y-47300000D03*
%TD*%
D25*
%TO.P,J1,1,Pin_1*%
%TO.N,/Pulse*%
X152620000Y-37500000D03*
D26*
%TO.P,J1,2,Pin_2*%
%TO.N,GND*%
X152620000Y-40000000D03*
%TO.P,J1,3,Pin_3*%
%TO.N,/V_threshold*%
X152620000Y-42500000D03*
%TO.P,J1,4,Pin_4*%
%TO.N,+3.3V*%
X152620000Y-45000000D03*
%TO.P,J1,5,Pin_5*%
%TO.N,+5V*%
X152620000Y-47500000D03*
%TD*%
D19*
%TO.P,R_a1,1*%
%TO.N,Net-(C12-Pad1)*%
X141300000Y-29400000D03*
%TO.P,R_a1,2*%
%TO.N,+3.3V*%
X142950000Y-29400000D03*
%TD*%
D20*
%TO.P,C14,1*%
%TO.N,+3.3V*%
X143530000Y-40850000D03*
%TO.P,C14,2*%
%TO.N,GND*%
X145080000Y-40850000D03*
%TD*%
D27*
%TO.P,R_s1,1*%
%TO.N,Net-(R_s1-Pad1)*%
X144130000Y-37500000D03*
%TO.P,R_s1,2*%
%TO.N,/Pulse*%
X145150000Y-37500000D03*
%TD*%
D28*
%TO.P,R1,1*%
%TO.N,Net-(L2-Pad2)*%
X134810000Y-42210000D03*
%TO.P,R1,2*%
%TO.N,Net-(C7-Pad1)*%
X134810000Y-43860000D03*
%TD*%
D17*
%TO.P,C13,1*%
%TO.N,Net-(C12-Pad1)*%
X139575000Y-32300000D03*
%TO.P,C13,2*%
%TO.N,GND*%
X138025000Y-32300000D03*
%TD*%
D11*
%TO.P,TP8,1,1*%
%TO.N,GND*%
X157000000Y-39600000D03*
%TD*%
D29*
%TO.P,L3,1,1*%
%TO.N,Net-(C8-Pad1)*%
X137000000Y-39456000D03*
%TO.P,L3,2*%
%TO.N,N/C*%
X139540000Y-39456000D03*
%TO.P,L3,3,3*%
%TO.N,+5V*%
X139540000Y-42250000D03*
%TO.P,L3,4*%
%TO.N,N/C*%
X137000000Y-42250000D03*
%TD*%
D24*
%TO.P,D_Life5,1,K*%
%TO.N,Net-(D_Life5-K)*%
X146000000Y-49000000D03*
%TO.P,D_Life5,2,A*%
%TO.N,+5V*%
X147575000Y-49000000D03*
%TD*%
D30*
%TO.P,J3,1,In*%
%TO.N,Net-(J3-In)*%
X122350000Y-36000000D03*
D31*
%TO.P,J3,2,Ext*%
%TO.N,GND*%
X122600000Y-38825000D03*
X122600000Y-33175000D03*
%TD*%
D32*
%TO.P,C11,1*%
%TO.N,+5V*%
X138800000Y-48300000D03*
%TO.P,C11,2*%
%TO.N,GND*%
X136900000Y-48300000D03*
%TD*%
D20*
%TO.P,C15,1*%
%TO.N,+3.3V*%
X144550000Y-42390000D03*
%TO.P,C15,2*%
%TO.N,GND*%
X146100000Y-42390000D03*
%TD*%
D11*
%TO.P,TP3,1,1*%
%TO.N,Net-(U_Comparator1-+)*%
X139075000Y-35475000D03*
%TD*%
D17*
%TO.P,R2,1*%
%TO.N,Net-(D_Life3.3-K)*%
X144500000Y-47300000D03*
%TO.P,R2,2*%
%TO.N,GND*%
X142950000Y-47300000D03*
%TD*%
D33*
%TO.P,Rterm1,1*%
%TO.N,Net-(C12-Pad1)*%
X140600000Y-35290000D03*
%TO.P,Rterm1,2*%
%TO.N,Net-(U_Comparator1-+)*%
X140600000Y-36310000D03*
%TD*%
D14*
%TO.P,C1,1*%
%TO.N,Net-(C1-Pad1)*%
X126460000Y-36000000D03*
%TO.P,C1,2*%
%TO.N,Net-(J3-In)*%
X125500000Y-36000000D03*
%TD*%
%TO.P,C3,1*%
%TO.N,+5V*%
X132100000Y-43800000D03*
%TO.P,C3,2*%
%TO.N,GND*%
X131140000Y-43800000D03*
%TD*%
D11*
%TO.P,TP6,1,1*%
%TO.N,/V_threshold*%
X157000000Y-42500000D03*
%TD*%
D17*
%TO.P,C5,1*%
%TO.N,+5V*%
X130700000Y-46400000D03*
%TO.P,C5,2*%
%TO.N,GND*%
X129150000Y-46400000D03*
%TD*%
D11*
%TO.P,TP4,1,1*%
%TO.N,+5V*%
X157000000Y-48300000D03*
%TD*%
D29*
%TO.P,L1,1,1*%
%TO.N,Net-(C2-Pad2)*%
X130460000Y-39500000D03*
%TO.P,L1,2*%
%TO.N,N/C*%
X133000000Y-39500000D03*
%TO.P,L1,3,3*%
%TO.N,+5V*%
X133000000Y-42294000D03*
%TO.P,L1,4*%
%TO.N,N/C*%
X130460000Y-42294000D03*
%TD*%
D22*
%TO.P,C8,1*%
%TO.N,Net-(C8-Pad1)*%
X138540000Y-37500000D03*
%TO.P,C8,2*%
%TO.N,Net-(U_Comparator1-+)*%
X139500000Y-37500000D03*
%TD*%
D34*
%TO.N,GND*%
X139850000Y-38300000D03*
X142500000Y-50000000D03*
X155000000Y-50050000D03*
X128500000Y-47660000D03*
X125000000Y-47500000D03*
X130880000Y-36100000D03*
X155000000Y-34950000D03*
X138520000Y-36640000D03*
X127500000Y-52500000D03*
X157500000Y-27500000D03*
X122500000Y-52500000D03*
X128010000Y-38050000D03*
X157500000Y-30000000D03*
X135000000Y-50000000D03*
X124740000Y-37060000D03*
X125000000Y-27500000D03*
X147500000Y-42500000D03*
X152500000Y-50000000D03*
X147500000Y-27500000D03*
X142500000Y-52500000D03*
X129070000Y-35270000D03*
X122500000Y-42500000D03*
X141500000Y-36470000D03*
X137500000Y-50000000D03*
X132540000Y-36670000D03*
X132500000Y-52500000D03*
X155000000Y-52500000D03*
X124060000Y-32500000D03*
X130000000Y-32500000D03*
X122000000Y-39500000D03*
X142160000Y-36450000D03*
X121250000Y-34000000D03*
X157500000Y-52500000D03*
X124060000Y-38000000D03*
X144250000Y-38500000D03*
X122500000Y-50000000D03*
X122500000Y-27500000D03*
X121250000Y-38000000D03*
X121250000Y-39500000D03*
X125000000Y-50000000D03*
X145000000Y-27500000D03*
X134990000Y-33860000D03*
X140000000Y-52500000D03*
X145000000Y-35000000D03*
X122500000Y-30000000D03*
X126000000Y-32500000D03*
X131510000Y-38320000D03*
X145780000Y-43920000D03*
X127500000Y-45000000D03*
X133670000Y-44000000D03*
X125000000Y-45000000D03*
X130310000Y-40880000D03*
X147500000Y-32500000D03*
X139290000Y-36640000D03*
X136010000Y-35870000D03*
X122500000Y-45000000D03*
X157500000Y-32500000D03*
X152500000Y-35000000D03*
X141000000Y-48000000D03*
X155000000Y-30000000D03*
X127500000Y-27500000D03*
X134990000Y-34540000D03*
X140000000Y-50000000D03*
X125780000Y-37060000D03*
X135500000Y-37362500D03*
X136010000Y-35220000D03*
X126790000Y-38110000D03*
X147500000Y-52500000D03*
X122500000Y-47500000D03*
X132500000Y-30000000D03*
X150000000Y-35000000D03*
X136010000Y-33860000D03*
X145000000Y-52500000D03*
X139040000Y-38250000D03*
X157500000Y-35000000D03*
X127000000Y-40000000D03*
X126750000Y-37060000D03*
X122000000Y-32500000D03*
X140370000Y-44970000D03*
X142500000Y-27500000D03*
X147500000Y-34940000D03*
X138070000Y-38260000D03*
X130000000Y-50000000D03*
X141500000Y-34970000D03*
X123000000Y-39500000D03*
X132500000Y-38330000D03*
X131540000Y-36670000D03*
X152500000Y-52500000D03*
X125000000Y-32500000D03*
X122000000Y-38000000D03*
X155000000Y-32500000D03*
X128960000Y-38100000D03*
X139600000Y-34200000D03*
X131750000Y-39460000D03*
X125000000Y-42500000D03*
X147500000Y-39250000D03*
X150000000Y-50060000D03*
X137500000Y-27500000D03*
X130870000Y-35240000D03*
X140000000Y-27500000D03*
X134990000Y-35220000D03*
X143820000Y-36600000D03*
X124000000Y-34000000D03*
X134990000Y-35870000D03*
X152500000Y-32500000D03*
X130000000Y-30000000D03*
X130000000Y-52500000D03*
X127500000Y-42500000D03*
X150000000Y-30000000D03*
X135000000Y-52500000D03*
X132500000Y-50000000D03*
X132500000Y-32500000D03*
X135000000Y-32500000D03*
X137500000Y-52500000D03*
X135000000Y-30000000D03*
X150000000Y-27500000D03*
X152500000Y-27500000D03*
X157500000Y-50000000D03*
X123000000Y-38000000D03*
X130000000Y-27500000D03*
X125000000Y-52500000D03*
X141000000Y-46000000D03*
X128530000Y-48840000D03*
X145000000Y-30000000D03*
X123000000Y-34000000D03*
X147500000Y-50060000D03*
X133210000Y-38340000D03*
X125000000Y-30000000D03*
X127500000Y-47500000D03*
X132500000Y-27500000D03*
X150000000Y-32500000D03*
X129960000Y-35250000D03*
X127500000Y-32500000D03*
X125000000Y-40000000D03*
X145000000Y-50000000D03*
X150000000Y-52500000D03*
X124000000Y-39500000D03*
X155000000Y-27500000D03*
X127500000Y-50000000D03*
X145000000Y-32500000D03*
X152500000Y-30000000D03*
X147500000Y-30000000D03*
X124720000Y-35100000D03*
X144590000Y-28960000D03*
X135000000Y-27500000D03*
X122000000Y-34000000D03*
X127500000Y-30000000D03*
X127500000Y-34000000D03*
X121250000Y-32500000D03*
X136010000Y-34540000D03*
X126770000Y-35100000D03*
X127570000Y-35110000D03*
X123000000Y-32500000D03*
%TO.N,+5V*%
X138830000Y-42850000D03*
X129560000Y-48720000D03*
X139760000Y-48690000D03*
X139760000Y-47970000D03*
X132880000Y-43820000D03*
X139580000Y-46940000D03*
X129550000Y-47850000D03*
X139540000Y-42270000D03*
X133000000Y-42294000D03*
X131930000Y-42380000D03*
X139490000Y-43780000D03*
X140080000Y-43190000D03*
%TO.N,+3.3V*%
X143490000Y-39930000D03*
X143400000Y-42530000D03*
X143740000Y-29650000D03*
X143760000Y-28970000D03*
%TD*%
D35*
%TO.N,Net-(C1-Pad1)*%
X126460000Y-36000000D02*
X128000000Y-36000000D01*
%TO.N,Net-(C2-Pad2)*%
X130460000Y-39500000D02*
X128500000Y-39500000D01*
X130460000Y-39500000D02*
X130460000Y-37799600D01*
X131520000Y-37500000D02*
X130160400Y-37500000D01*
X130460000Y-37799600D02*
X129955800Y-37295400D01*
X130160400Y-37500000D02*
X129955800Y-37295400D01*
%TO.N,Net-(C2-Pad1)*%
X132480000Y-37500000D02*
X133950000Y-37500000D01*
X134000000Y-37450000D02*
X134000000Y-38365000D01*
X134000000Y-38365000D02*
X134820000Y-39185000D01*
X133950000Y-37500000D02*
X134000000Y-37450000D01*
%TO.N,GND*%
X142150000Y-37500000D02*
X142150000Y-36460000D01*
X142150000Y-36460000D02*
X142160000Y-36450000D01*
X152620000Y-40000000D02*
X156600000Y-40000000D01*
X156600000Y-40000000D02*
X157000000Y-39600000D01*
%TO.N,+5V*%
X138800000Y-48300000D02*
X139370000Y-48300000D01*
X138800000Y-45400000D02*
X138800000Y-46160000D01*
X139430000Y-48300000D02*
X139760000Y-47970000D01*
X151120000Y-49000000D02*
X152620000Y-47500000D01*
X139370000Y-48300000D02*
X139760000Y-48690000D01*
X132100000Y-42550000D02*
X131930000Y-42380000D01*
X152620000Y-47500000D02*
X156200000Y-47500000D01*
X133000000Y-42294000D02*
X132100000Y-43194000D01*
X130700000Y-48300000D02*
X130700000Y-46200000D01*
X138800000Y-42880000D02*
X138830000Y-42850000D01*
X138800000Y-43750000D02*
X139460000Y-43750000D01*
X138800000Y-48300000D02*
X138800000Y-43750000D01*
X138800000Y-43750000D02*
X138800000Y-42880000D01*
X139520000Y-43750000D02*
X140080000Y-43190000D01*
X138800000Y-48300000D02*
X139430000Y-48300000D01*
X130700000Y-46200000D02*
X132100000Y-44800000D01*
X130700000Y-48300000D02*
X129980000Y-48300000D01*
X129980000Y-48300000D02*
X129560000Y-48720000D01*
X139540000Y-42250000D02*
X139540000Y-42270000D01*
X132100000Y-43194000D02*
X132100000Y-42550000D01*
X130000000Y-48300000D02*
X129550000Y-47850000D01*
X130700000Y-48300000D02*
X130000000Y-48300000D01*
X147575000Y-49000000D02*
X151120000Y-49000000D01*
X139540000Y-43010000D02*
X138800000Y-43750000D01*
X138800000Y-46160000D02*
X139580000Y-46940000D01*
X132860000Y-43800000D02*
X132880000Y-43820000D01*
X132100000Y-43800000D02*
X132860000Y-43800000D01*
X132100000Y-43194000D02*
X132100000Y-43800000D01*
X139460000Y-43750000D02*
X139490000Y-43780000D01*
X156200000Y-47500000D02*
X157000000Y-48300000D01*
X132100000Y-44800000D02*
X132100000Y-43800000D01*
X138800000Y-43750000D02*
X139520000Y-43750000D01*
X139540000Y-42270000D02*
X139540000Y-43010000D01*
%TO.N,Net-(C7-Pad1)*%
X134810000Y-43860000D02*
X134810000Y-45310000D01*
%TO.N,Net-(U_Comparator1-+)*%
X139500000Y-37500000D02*
X141500000Y-37500000D01*
X140600000Y-36310000D02*
X140251229Y-35961229D01*
X139561229Y-35961229D02*
X139075000Y-35475000D01*
X139700000Y-37500000D02*
X140600000Y-36600000D01*
X140251229Y-35961229D02*
X139561229Y-35961229D01*
X139500000Y-37500000D02*
X139700000Y-37500000D01*
X140600000Y-36600000D02*
X140600000Y-36310000D01*
%TO.N,Net-(C8-Pad1)*%
X137000000Y-39456000D02*
X137000000Y-37450000D01*
X138540000Y-37500000D02*
X137050000Y-37500000D01*
X137050000Y-37500000D02*
X137000000Y-37450000D01*
%TO.N,Net-(C12-Pad1)*%
X141075000Y-33800000D02*
X139575000Y-32300000D01*
X141300000Y-29400000D02*
X139750000Y-29400000D01*
X139575000Y-32300000D02*
X139575000Y-31125000D01*
X141300000Y-30600000D02*
X141900000Y-31200000D01*
X141300000Y-29400000D02*
X141300000Y-30600000D01*
X141300000Y-33800000D02*
X140600000Y-34500000D01*
X139575000Y-31125000D02*
X141300000Y-29400000D01*
X140600000Y-34500000D02*
X140600000Y-35290000D01*
X141300000Y-33800000D02*
X141075000Y-33800000D01*
%TO.N,+3.3V*%
X142800000Y-39400000D02*
X142800000Y-40120000D01*
X142950000Y-29400000D02*
X143490000Y-29400000D01*
X143530000Y-41350000D02*
X144570000Y-42390000D01*
X152620000Y-45000000D02*
X156600000Y-45000000D01*
X143490000Y-29400000D02*
X143740000Y-29650000D01*
X144550000Y-42390000D02*
X143540000Y-42390000D01*
X143330000Y-29400000D02*
X143760000Y-28970000D01*
X143530000Y-39970000D02*
X143490000Y-39930000D01*
X147575000Y-47300000D02*
X150320000Y-47300000D01*
X150320000Y-47300000D02*
X152620000Y-45000000D01*
X143530000Y-40850000D02*
X143530000Y-39970000D01*
X142950000Y-29400000D02*
X143330000Y-29400000D01*
X156600000Y-45000000D02*
X157000000Y-45400000D01*
X142800000Y-40120000D02*
X143530000Y-40850000D01*
X143530000Y-40850000D02*
X143530000Y-41350000D01*
X143540000Y-42390000D02*
X143400000Y-42530000D01*
%TO.N,Net-(L2-Pad2)*%
X134820000Y-40760000D02*
X134820000Y-42200000D01*
X134820000Y-42200000D02*
X134810000Y-42210000D01*
%TO.N,Net-(U_Comparator1-~{LE})*%
X142470000Y-42810000D02*
X142910000Y-43250000D01*
X142910000Y-43250000D02*
X142910000Y-43940000D01*
X142470000Y-40790000D02*
X142470000Y-42810000D01*
X142150000Y-40470000D02*
X142470000Y-40790000D01*
X142150000Y-39400000D02*
X142150000Y-40470000D01*
%TO.N,Net-(R_s1-Pad1)*%
X142800000Y-37500000D02*
X144130000Y-37500000D01*
%TO.N,/Pulse*%
X145150000Y-37500000D02*
X152620000Y-37500000D01*
X152620000Y-37500000D02*
X156000000Y-37500000D01*
X156000000Y-37500000D02*
X157000000Y-36500000D01*
%TO.N,/V_threshold*%
X141500000Y-39400000D02*
X141500000Y-44240000D01*
X141500000Y-44240000D02*
X142540000Y-45280000D01*
X142540000Y-45280000D02*
X149840000Y-45280000D01*
X149840000Y-45280000D02*
X152620000Y-42500000D01*
X152620000Y-42500000D02*
X157000000Y-42500000D01*
D36*
%TO.N,Net-(J3-In)*%
X125500000Y-34500000D02*
X126000000Y-34000000D01*
X122890000Y-36000000D02*
X125500000Y-36000000D01*
X125500000Y-36000000D02*
X125500000Y-34500000D01*
D35*
%TO.N,Net-(D_Life3.3-K)*%
X146000000Y-47300000D02*
X144500000Y-47300000D01*
%TO.N,Net-(D_Life5-K)*%
X144500000Y-49000000D02*
X146000000Y-49000000D01*
%TD*%
%TA.AperFunction,Conductor*%
%TO.N,Net-(J3-In)*%
G36*
X124941837Y-35747412D02*
G01*
X124948687Y-35753178D01*
X124950000Y-35758564D01*
X124950000Y-36241435D01*
X124946573Y-36249708D01*
X124941836Y-36252588D01*
X123799802Y-36614660D01*
X123791683Y-36614272D01*
X122374281Y-36010764D01*
X122368012Y-36004371D01*
X122368100Y-35995417D01*
X122374279Y-35989236D01*
X123791685Y-35385726D01*
X123799800Y-35385339D01*
X124941837Y-35747412D01*
G37*
%TD.AperFunction*%
%TD*%
%TA.AperFunction,Conductor*%
%TO.N,Net-(J3-In)*%
G36*
X125279927Y-35723311D02*
G01*
X125281206Y-35724674D01*
X125301424Y-35750000D01*
X125495173Y-35992701D01*
X125497656Y-36001304D01*
X125495173Y-36007299D01*
X125281209Y-36275322D01*
X125273369Y-36279650D01*
X125271497Y-36279709D01*
X124671132Y-36250540D01*
X124663035Y-36246716D01*
X124660000Y-36238854D01*
X124660000Y-35761145D01*
X124663427Y-35752872D01*
X124671131Y-35749459D01*
X125271498Y-35720290D01*
X125279927Y-35723311D01*
G37*
%TD.AperFunction*%
%TD*%
%TA.AperFunction,Conductor*%
%TO.N,Net-(J3-In)*%
G36*
X125747064Y-35133427D02*
G01*
X125750480Y-35141199D01*
X125779704Y-35823108D01*
X125776635Y-35831520D01*
X125774113Y-35833594D01*
X125506098Y-35997275D01*
X125497251Y-35998663D01*
X125493902Y-35997275D01*
X125225886Y-35833594D01*
X125220611Y-35826358D01*
X125220295Y-35823108D01*
X125249520Y-35141199D01*
X125253298Y-35133080D01*
X125261209Y-35130000D01*
X125738791Y-35130000D01*
X125747064Y-35133427D01*
G37*
%TD.AperFunction*%
%TD*%
%TA.AperFunction,Conductor*%
%TO.N,GND*%
G36*
X158192539Y-27020185D02*
G01*
X158238294Y-27072989D01*
X158249500Y-27124500D01*
X158249500Y-53801880D01*
X158229815Y-53868919D01*
X158177011Y-53914674D01*
X158125743Y-53925880D01*
X120874743Y-53998970D01*
X120807665Y-53979417D01*
X120761807Y-53926703D01*
X120750500Y-53874970D01*
X120750500Y-37252433D01*
X120770185Y-37185394D01*
X120822989Y-37139639D01*
X120887102Y-37129075D01*
X120949991Y-37135500D01*
X123750008Y-37135499D01*
X123852797Y-37124999D01*
X123915710Y-37104150D01*
X123934428Y-37099529D01*
X123952572Y-37096523D01*
X124956420Y-36778260D01*
X124961985Y-36777537D01*
X124964774Y-36775931D01*
X124999909Y-36772609D01*
X125151667Y-36779982D01*
X125180245Y-36784759D01*
X125259007Y-36807643D01*
X125295310Y-36810500D01*
X125295318Y-36810500D01*
X125704682Y-36810500D01*
X125704690Y-36810500D01*
X125740993Y-36807643D01*
X125740995Y-36807642D01*
X125740997Y-36807642D01*
X125800849Y-36790253D01*
X125896395Y-36762494D01*
X125916879Y-36750379D01*
X125984601Y-36733196D01*
X126043119Y-36750379D01*
X126063605Y-36762494D01*
X126063607Y-36762494D01*
X126063608Y-36762495D01*
X126219002Y-36807642D01*
X126219005Y-36807642D01*
X126219007Y-36807643D01*
X126255310Y-36810500D01*
X126255318Y-36810500D01*
X126664682Y-36810500D01*
X126664690Y-36810500D01*
X126700993Y-36807643D01*
X126700995Y-36807642D01*
X126700997Y-36807642D01*
X126760849Y-36790253D01*
X126856395Y-36762494D01*
X126969610Y-36695539D01*
X126985511Y-36691188D01*
X126997796Y-36683294D01*
X127032731Y-36678271D01*
X127179549Y-36678271D01*
X127222882Y-36686089D01*
X127321017Y-36722691D01*
X127321016Y-36722691D01*
X127327944Y-36723435D01*
X127380627Y-36729100D01*
X128619372Y-36729099D01*
X128678983Y-36722691D01*
X128772458Y-36687826D01*
X128842148Y-36682843D01*
X128903471Y-36716328D01*
X128936956Y-36777651D01*
X128931972Y-36847341D01*
X128890210Y-36959311D01*
X128890209Y-36959315D01*
X128890209Y-36959317D01*
X128883800Y-37018927D01*
X128883800Y-37018934D01*
X128883800Y-37018935D01*
X128883800Y-37571870D01*
X128883801Y-37571876D01*
X128890208Y-37631483D01*
X128940502Y-37766328D01*
X128940506Y-37766335D01*
X129026752Y-37881544D01*
X129026755Y-37881547D01*
X129141964Y-37967793D01*
X129141971Y-37967797D01*
X129186918Y-37984561D01*
X129276817Y-38018091D01*
X129336427Y-38024500D01*
X129657729Y-38024499D01*
X129724768Y-38044183D01*
X129770523Y-38096987D01*
X129781729Y-38148499D01*
X129781729Y-38400262D01*
X129762044Y-38467301D01*
X129732041Y-38499528D01*
X129721457Y-38507450D01*
X129721451Y-38507457D01*
X129635206Y-38622664D01*
X129635201Y-38622674D01*
X129617301Y-38670665D01*
X129575429Y-38726598D01*
X129509965Y-38751014D01*
X129441692Y-38736162D01*
X129401854Y-38701641D01*
X129357547Y-38642455D01*
X129357544Y-38642452D01*
X129242335Y-38556206D01*
X129242328Y-38556202D01*
X129107482Y-38505908D01*
X129107483Y-38505908D01*
X129047883Y-38499501D01*
X129047881Y-38499500D01*
X129047873Y-38499500D01*
X129047864Y-38499500D01*
X127952129Y-38499500D01*
X127952123Y-38499501D01*
X127892516Y-38505908D01*
X127757671Y-38556202D01*
X127757664Y-38556206D01*
X127642455Y-38642452D01*
X127642452Y-38642455D01*
X127556206Y-38757664D01*
X127556202Y-38757671D01*
X127505908Y-38892517D01*
X127499501Y-38952116D01*
X127499500Y-38952135D01*
X127499500Y-40047870D01*
X127499501Y-40047876D01*
X127505908Y-40107483D01*
X127556202Y-40242328D01*
X127556206Y-40242335D01*
X127642452Y-40357544D01*
X127642455Y-40357547D01*
X127757664Y-40443793D01*
X127757671Y-40443797D01*
X127892517Y-40494091D01*
X127892516Y-40494091D01*
X127899444Y-40494835D01*
X127952127Y-40500500D01*
X129047872Y-40500499D01*
X129107483Y-40494091D01*
X129242331Y-40443796D01*
X129357546Y-40357546D01*
X129401855Y-40298356D01*
X129457787Y-40256487D01*
X129527478Y-40251503D01*
X129588801Y-40284988D01*
X129617302Y-40329335D01*
X129635203Y-40377329D01*
X129635206Y-40377335D01*
X129721452Y-40492544D01*
X129721455Y-40492547D01*
X129836664Y-40578793D01*
X129836671Y-40578797D01*
X129971517Y-40629091D01*
X129971516Y-40629091D01*
X129978444Y-40629835D01*
X130031127Y-40635500D01*
X130888872Y-40635499D01*
X130948483Y-40629091D01*
X131083331Y-40578796D01*
X131198546Y-40492546D01*
X131284796Y-40377331D01*
X131335091Y-40242483D01*
X131341500Y-40182873D01*
X131341499Y-38817128D01*
X131335091Y-38757517D01*
X131331063Y-38746718D01*
X131284797Y-38622671D01*
X131284795Y-38622668D01*
X131266752Y-38598566D01*
X131198834Y-38507839D01*
X131174417Y-38442376D01*
X131189268Y-38374103D01*
X131238673Y-38324697D01*
X131306946Y-38309845D01*
X131307700Y-38309901D01*
X131315310Y-38310500D01*
X131315318Y-38310500D01*
X131724682Y-38310500D01*
X131724690Y-38310500D01*
X131760993Y-38307643D01*
X131760995Y-38307642D01*
X131760997Y-38307642D01*
X131870210Y-38275912D01*
X131916395Y-38262494D01*
X131936879Y-38250379D01*
X132004601Y-38233196D01*
X132040842Y-38240030D01*
X132052492Y-38244094D01*
X132083605Y-38262494D01*
X132213029Y-38300095D01*
X132216129Y-38301177D01*
X132241979Y-38319680D01*
X132268768Y-38336788D01*
X132270186Y-38339869D01*
X132272944Y-38341844D01*
X132284686Y-38371382D01*
X132297974Y-38400261D01*
X132297500Y-38403619D01*
X132298754Y-38406772D01*
X132292661Y-38437972D01*
X132288228Y-38469448D01*
X132285843Y-38472893D01*
X132285364Y-38475347D01*
X132280973Y-38479929D01*
X132262974Y-38505934D01*
X132261452Y-38507456D01*
X132175206Y-38622664D01*
X132175202Y-38622671D01*
X132124908Y-38757517D01*
X132121974Y-38784812D01*
X132118501Y-38817123D01*
X132118500Y-38817135D01*
X132118500Y-40182870D01*
X132118501Y-40182876D01*
X132124908Y-40242483D01*
X132175202Y-40377328D01*
X132175206Y-40377335D01*
X132261452Y-40492544D01*
X132261455Y-40492547D01*
X132376664Y-40578793D01*
X132376671Y-40578797D01*
X132511517Y-40629091D01*
X132511516Y-40629091D01*
X132518444Y-40629835D01*
X132571127Y-40635500D01*
X133428872Y-40635499D01*
X133488483Y-40629091D01*
X133623331Y-40578796D01*
X133646188Y-40561684D01*
X133711652Y-40537267D01*
X133779925Y-40552118D01*
X133829331Y-40601522D01*
X133844500Y-40660951D01*
X133844500Y-41026683D01*
X133854926Y-41128732D01*
X133842157Y-41197425D01*
X133794276Y-41248309D01*
X133726486Y-41265230D01*
X133660310Y-41242814D01*
X133657257Y-41240601D01*
X133656433Y-41239984D01*
X133623331Y-41215204D01*
X133623329Y-41215203D01*
X133623328Y-41215202D01*
X133488482Y-41164908D01*
X133488483Y-41164908D01*
X133428883Y-41158501D01*
X133428881Y-41158500D01*
X133428873Y-41158500D01*
X133428864Y-41158500D01*
X132571129Y-41158500D01*
X132571123Y-41158501D01*
X132511516Y-41164908D01*
X132376671Y-41215202D01*
X132376664Y-41215206D01*
X132261455Y-41301452D01*
X132261452Y-41301455D01*
X132175206Y-41416664D01*
X132175203Y-41416670D01*
X132144052Y-41500189D01*
X132102180Y-41556123D01*
X132036715Y-41580539D01*
X132014994Y-41579186D01*
X132014905Y-41580097D01*
X132008843Y-41579500D01*
X132008842Y-41579500D01*
X131851158Y-41579500D01*
X131851155Y-41579500D01*
X131696510Y-41610261D01*
X131696498Y-41610264D01*
X131550827Y-41670602D01*
X131550813Y-41670610D01*
X131531779Y-41683328D01*
X131465102Y-41704204D01*
X131397722Y-41685718D01*
X131351033Y-41633738D01*
X131339601Y-41593476D01*
X131338210Y-41580539D01*
X131335091Y-41551517D01*
X131321563Y-41515247D01*
X131284797Y-41416671D01*
X131284793Y-41416664D01*
X131198547Y-41301455D01*
X131198544Y-41301452D01*
X131083335Y-41215206D01*
X131083328Y-41215202D01*
X130948482Y-41164908D01*
X130948483Y-41164908D01*
X130888883Y-41158501D01*
X130888881Y-41158500D01*
X130888873Y-41158500D01*
X130888864Y-41158500D01*
X130031129Y-41158500D01*
X130031123Y-41158501D01*
X129971516Y-41164908D01*
X129836671Y-41215202D01*
X129836664Y-41215206D01*
X129721455Y-41301452D01*
X129721452Y-41301455D01*
X129635206Y-41416664D01*
X129635202Y-41416671D01*
X129584908Y-41551517D01*
X129578501Y-41611116D01*
X129578500Y-41611135D01*
X129578500Y-42976870D01*
X129578501Y-42976876D01*
X129584908Y-43036483D01*
X129635202Y-43171328D01*
X129635206Y-43171335D01*
X129721452Y-43286544D01*
X129721455Y-43286547D01*
X129836664Y-43372793D01*
X129836671Y-43372797D01*
X129971517Y-43423091D01*
X129971516Y-43423091D01*
X129978444Y-43423835D01*
X130031127Y-43429500D01*
X130888872Y-43429499D01*
X130948483Y-43423091D01*
X131083331Y-43372796D01*
X131149954Y-43322921D01*
X131215415Y-43298505D01*
X131283688Y-43313356D01*
X131333094Y-43362760D01*
X131347947Y-43431033D01*
X131343340Y-43456783D01*
X131322356Y-43529008D01*
X131319500Y-43565302D01*
X131319500Y-44034697D01*
X131322356Y-44070991D01*
X131322357Y-44070997D01*
X131367505Y-44226394D01*
X131373708Y-44236884D01*
X131390887Y-44304608D01*
X131373708Y-44363116D01*
X131367505Y-44373605D01*
X131322357Y-44529002D01*
X131322356Y-44529008D01*
X131319500Y-44565302D01*
X131319500Y-44569917D01*
X131299815Y-44636956D01*
X131283181Y-44657598D01*
X130552597Y-45388181D01*
X130491274Y-45421666D01*
X130464919Y-45424500D01*
X130426664Y-45424500D01*
X130426644Y-45424501D01*
X130327292Y-45434650D01*
X130327289Y-45434651D01*
X130166305Y-45487996D01*
X130166294Y-45488001D01*
X130021959Y-45577029D01*
X130021955Y-45577032D01*
X129902032Y-45696955D01*
X129902029Y-45696959D01*
X129813001Y-45841294D01*
X129812996Y-45841305D01*
X129759651Y-46002290D01*
X129749500Y-46101647D01*
X129749500Y-46698337D01*
X129749501Y-46698355D01*
X129759650Y-46797707D01*
X129759651Y-46797710D01*
X129791211Y-46892950D01*
X129793613Y-46962778D01*
X129757881Y-47022820D01*
X129695361Y-47054013D01*
X129649316Y-47053572D01*
X129628843Y-47049500D01*
X129628842Y-47049500D01*
X129471158Y-47049500D01*
X129471155Y-47049500D01*
X129316510Y-47080261D01*
X129316498Y-47080264D01*
X129170827Y-47140602D01*
X129170814Y-47140609D01*
X129039711Y-47228210D01*
X129039707Y-47228213D01*
X128928213Y-47339707D01*
X128928210Y-47339711D01*
X128840609Y-47470814D01*
X128840602Y-47470827D01*
X128780264Y-47616498D01*
X128780261Y-47616510D01*
X128749500Y-47771153D01*
X128749500Y-47928846D01*
X128780261Y-48083489D01*
X128780264Y-48083501D01*
X128840602Y-48229171D01*
X128843479Y-48234553D01*
X128841498Y-48235611D01*
X128859381Y-48292689D01*
X128849962Y-48342374D01*
X128790264Y-48486498D01*
X128790261Y-48486510D01*
X128759500Y-48641153D01*
X128759500Y-48798846D01*
X128790261Y-48953489D01*
X128790264Y-48953501D01*
X128850602Y-49099172D01*
X128850609Y-49099185D01*
X128938210Y-49230288D01*
X128938213Y-49230292D01*
X129049707Y-49341786D01*
X129049711Y-49341789D01*
X129180814Y-49429390D01*
X129180827Y-49429397D01*
X129326498Y-49489735D01*
X129326503Y-49489737D01*
X129453498Y-49514998D01*
X129481153Y-49520499D01*
X129481156Y-49520500D01*
X129481158Y-49520500D01*
X129638844Y-49520500D01*
X129638845Y-49520499D01*
X129793497Y-49489737D01*
X129939179Y-49429394D01*
X129941207Y-49428039D01*
X129942430Y-49427655D01*
X129944546Y-49426525D01*
X129944760Y-49426926D01*
X130007883Y-49407159D01*
X130075194Y-49425599D01*
X130130666Y-49459814D01*
X130297203Y-49514999D01*
X130399991Y-49525500D01*
X131000008Y-49525499D01*
X131000016Y-49525498D01*
X131000019Y-49525498D01*
X131056302Y-49519748D01*
X131102797Y-49514999D01*
X131269334Y-49459814D01*
X131418656Y-49367712D01*
X131542712Y-49243656D01*
X131634814Y-49094334D01*
X131689999Y-48927797D01*
X131700500Y-48825009D01*
X131700499Y-47774992D01*
X131700107Y-47771158D01*
X131689999Y-47672203D01*
X131689998Y-47672200D01*
X131671540Y-47616498D01*
X131634814Y-47505666D01*
X131542712Y-47356344D01*
X131481371Y-47295003D01*
X131447886Y-47233680D01*
X131452870Y-47163988D01*
X131481373Y-47119639D01*
X131497967Y-47103045D01*
X131497967Y-47103044D01*
X131497968Y-47103044D01*
X131587003Y-46958697D01*
X131640349Y-46797708D01*
X131650500Y-46698345D01*
X131650499Y-46260080D01*
X131670183Y-46193042D01*
X131686813Y-46172405D01*
X132212401Y-45646819D01*
X132273724Y-45613334D01*
X132300082Y-45610500D01*
X132304682Y-45610500D01*
X132304690Y-45610500D01*
X132340993Y-45607643D01*
X132340995Y-45607642D01*
X132340997Y-45607642D01*
X132381975Y-45595736D01*
X132496395Y-45562494D01*
X132635687Y-45480117D01*
X132750117Y-45365687D01*
X132832494Y-45226395D01*
X132868733Y-45101662D01*
X132877642Y-45070997D01*
X132877643Y-45070991D01*
X132880500Y-45034690D01*
X132880500Y-44737847D01*
X132900185Y-44670808D01*
X132952989Y-44625053D01*
X132980309Y-44616230D01*
X133032200Y-44605908D01*
X133113497Y-44589737D01*
X133259179Y-44529394D01*
X133390289Y-44441789D01*
X133501789Y-44330289D01*
X133589394Y-44199179D01*
X133604494Y-44162723D01*
X133648333Y-44108321D01*
X133714626Y-44086254D01*
X133782326Y-44103532D01*
X133829938Y-44154668D01*
X133838944Y-44180937D01*
X133838963Y-44180932D01*
X133839165Y-44181581D01*
X133840670Y-44185970D01*
X133840912Y-44187188D01*
X133840913Y-44187193D01*
X133840914Y-44187196D01*
X133891522Y-44349606D01*
X133979528Y-44495185D01*
X133979529Y-44495186D01*
X133983409Y-44501604D01*
X133981593Y-44502701D01*
X134003485Y-44557700D01*
X133990125Y-44626280D01*
X133985562Y-44634338D01*
X133897998Y-44776300D01*
X133897996Y-44776305D01*
X133844651Y-44937290D01*
X133834500Y-45036647D01*
X133834500Y-45583337D01*
X133834501Y-45583355D01*
X133844650Y-45682707D01*
X133844651Y-45682710D01*
X133897996Y-45843694D01*
X133898001Y-45843705D01*
X133987029Y-45988040D01*
X133987032Y-45988044D01*
X134106955Y-46107967D01*
X134106959Y-46107970D01*
X134251294Y-46196998D01*
X134251297Y-46196999D01*
X134251303Y-46197003D01*
X134412292Y-46250349D01*
X134511655Y-46260500D01*
X135108344Y-46260499D01*
X135108352Y-46260498D01*
X135108355Y-46260498D01*
X135162760Y-46254940D01*
X135207708Y-46250349D01*
X135368697Y-46197003D01*
X135513044Y-46107968D01*
X135632968Y-45988044D01*
X135722003Y-45843697D01*
X135775349Y-45682708D01*
X135785500Y-45583345D01*
X135785499Y-45036656D01*
X135785297Y-45034682D01*
X135775349Y-44937292D01*
X135775348Y-44937289D01*
X135747129Y-44852129D01*
X135722003Y-44776303D01*
X135721999Y-44776297D01*
X135721998Y-44776294D01*
X135634438Y-44634338D01*
X135615997Y-44566946D01*
X135636919Y-44500282D01*
X135639757Y-44496366D01*
X135640469Y-44495187D01*
X135640472Y-44495185D01*
X135728478Y-44349606D01*
X135779086Y-44187196D01*
X135785500Y-44116616D01*
X135785500Y-43603384D01*
X135779086Y-43532804D01*
X135728478Y-43370394D01*
X135640472Y-43224815D01*
X135640470Y-43224813D01*
X135640469Y-43224811D01*
X135538339Y-43122681D01*
X135504854Y-43061358D01*
X135509838Y-42991666D01*
X135538339Y-42947319D01*
X135640468Y-42845189D01*
X135640469Y-42845188D01*
X135640472Y-42845185D01*
X135728478Y-42699606D01*
X135779086Y-42537196D01*
X135785500Y-42466616D01*
X135785500Y-41953384D01*
X135779086Y-41882804D01*
X135728478Y-41720394D01*
X135640472Y-41574815D01*
X135640288Y-41574631D01*
X135636296Y-41568042D01*
X135636056Y-41567135D01*
X136118500Y-41567135D01*
X136118500Y-42932870D01*
X136118501Y-42932876D01*
X136124908Y-42992483D01*
X136175202Y-43127328D01*
X136175206Y-43127335D01*
X136261452Y-43242544D01*
X136261455Y-43242547D01*
X136376664Y-43328793D01*
X136376671Y-43328797D01*
X136511517Y-43379091D01*
X136511516Y-43379091D01*
X136518037Y-43379792D01*
X136571127Y-43385500D01*
X137428872Y-43385499D01*
X137488483Y-43379091D01*
X137623331Y-43328796D01*
X137738546Y-43242546D01*
X137824796Y-43127331D01*
X137834828Y-43100433D01*
X137849383Y-43080988D01*
X137860255Y-43059271D01*
X137869944Y-43053522D01*
X137876697Y-43044501D01*
X137899456Y-43036011D01*
X137920344Y-43023618D01*
X137931603Y-43024020D01*
X137942161Y-43020082D01*
X137965894Y-43025244D01*
X137990169Y-43026111D01*
X137999424Y-43032537D01*
X138010434Y-43034932D01*
X138027608Y-43052105D01*
X138047561Y-43065959D01*
X138056458Y-43080954D01*
X138059841Y-43084337D01*
X138065571Y-43096313D01*
X138098025Y-43174663D01*
X138105494Y-43244132D01*
X138090197Y-43285235D01*
X138067506Y-43323604D01*
X138067504Y-43323609D01*
X138022357Y-43479002D01*
X138022356Y-43479008D01*
X138019500Y-43515302D01*
X138019500Y-43984697D01*
X138022356Y-44020991D01*
X138022357Y-44020997D01*
X138067504Y-44176390D01*
X138067505Y-44176393D01*
X138067506Y-44176395D01*
X138097075Y-44226394D01*
X138104461Y-44238882D01*
X138108811Y-44254783D01*
X138116706Y-44267068D01*
X138121729Y-44302003D01*
X138121729Y-44525897D01*
X138102044Y-44592936D01*
X138085410Y-44613578D01*
X138002032Y-44696955D01*
X138002029Y-44696959D01*
X137913001Y-44841294D01*
X137912996Y-44841305D01*
X137859651Y-45002290D01*
X137849500Y-45101647D01*
X137849500Y-45698337D01*
X137849501Y-45698355D01*
X137859650Y-45797707D01*
X137859651Y-45797710D01*
X137912996Y-45958694D01*
X137913001Y-45958705D01*
X138002029Y-46103040D01*
X138002032Y-46103044D01*
X138085410Y-46186422D01*
X138118895Y-46247745D01*
X138121729Y-46274103D01*
X138121729Y-47140541D01*
X138102044Y-47207580D01*
X138085410Y-47228222D01*
X137957289Y-47356342D01*
X137865187Y-47505663D01*
X137865185Y-47505668D01*
X137847954Y-47557669D01*
X137810001Y-47672203D01*
X137810001Y-47672204D01*
X137810000Y-47672204D01*
X137799500Y-47774983D01*
X137799500Y-48825001D01*
X137799501Y-48825019D01*
X137810000Y-48927796D01*
X137810001Y-48927799D01*
X137818517Y-48953497D01*
X137865186Y-49094334D01*
X137957288Y-49243656D01*
X138081344Y-49367712D01*
X138230666Y-49459814D01*
X138397203Y-49514999D01*
X138499991Y-49525500D01*
X139100008Y-49525499D01*
X139100016Y-49525498D01*
X139100019Y-49525498D01*
X139156302Y-49519748D01*
X139202797Y-49514999D01*
X139369334Y-49459814D01*
X139378582Y-49454109D01*
X139445972Y-49435668D01*
X139491131Y-49445085D01*
X139526503Y-49459737D01*
X139677312Y-49489735D01*
X139681153Y-49490499D01*
X139681156Y-49490500D01*
X139681158Y-49490500D01*
X139838844Y-49490500D01*
X139838845Y-49490499D01*
X139993497Y-49459737D01*
X140106166Y-49413067D01*
X140139172Y-49399397D01*
X140139172Y-49399396D01*
X140139179Y-49399394D01*
X140270289Y-49311789D01*
X140381789Y-49200289D01*
X140469394Y-49069179D01*
X140529737Y-48923497D01*
X140560500Y-48768842D01*
X140560500Y-48611158D01*
X140560500Y-48611155D01*
X140560499Y-48611153D01*
X140544377Y-48530104D01*
X140529737Y-48456503D01*
X140496992Y-48377451D01*
X140489524Y-48307984D01*
X140496991Y-48282551D01*
X140529737Y-48203497D01*
X140560500Y-48048842D01*
X140560500Y-47891158D01*
X140560500Y-47891155D01*
X140560499Y-47891153D01*
X140537393Y-47774992D01*
X140529737Y-47736503D01*
X140503104Y-47672204D01*
X140469397Y-47590827D01*
X140469390Y-47590814D01*
X140381789Y-47459711D01*
X140381786Y-47459707D01*
X140333882Y-47411803D01*
X140300397Y-47350480D01*
X140305381Y-47280788D01*
X140307002Y-47276670D01*
X140349735Y-47173501D01*
X140349737Y-47173497D01*
X140380500Y-47018842D01*
X140380500Y-46861158D01*
X140380500Y-46861155D01*
X140380499Y-46861153D01*
X140366780Y-46792184D01*
X140349737Y-46706503D01*
X140346358Y-46698345D01*
X140289397Y-46560827D01*
X140289390Y-46560814D01*
X140201789Y-46429711D01*
X140201786Y-46429707D01*
X140090292Y-46318213D01*
X140090288Y-46318210D01*
X139959185Y-46230609D01*
X139959172Y-46230602D01*
X139813501Y-46170264D01*
X139813495Y-46170262D01*
X139795441Y-46166671D01*
X139778684Y-46157905D01*
X139760209Y-46153886D01*
X139735168Y-46135140D01*
X139733531Y-46134284D01*
X139731955Y-46132735D01*
X139707086Y-46107866D01*
X139673601Y-46046543D01*
X139678585Y-45976851D01*
X139684206Y-45965357D01*
X139683952Y-45965239D01*
X139686998Y-45958703D01*
X139687003Y-45958697D01*
X139740349Y-45797708D01*
X139750500Y-45698345D01*
X139750499Y-45101656D01*
X139743658Y-45034690D01*
X139740349Y-45002292D01*
X139740348Y-45002289D01*
X139718810Y-44937292D01*
X139687003Y-44841303D01*
X139686997Y-44841294D01*
X139656911Y-44792517D01*
X139624494Y-44739961D01*
X139606054Y-44672572D01*
X139626976Y-44605908D01*
X139680617Y-44561138D01*
X139705837Y-44553249D01*
X139723497Y-44549737D01*
X139869179Y-44489394D01*
X140000289Y-44401789D01*
X140111789Y-44290289D01*
X140199394Y-44159179D01*
X140199395Y-44159176D01*
X140199397Y-44159173D01*
X140236505Y-44069582D01*
X140255827Y-44022935D01*
X140299667Y-43968532D01*
X140322933Y-43955828D01*
X140369582Y-43936505D01*
X140459173Y-43899397D01*
X140459176Y-43899395D01*
X140459179Y-43899394D01*
X140590289Y-43811789D01*
X140596676Y-43805402D01*
X140610048Y-43792031D01*
X140671371Y-43758546D01*
X140741063Y-43763530D01*
X140796996Y-43805402D01*
X140821413Y-43870866D01*
X140821729Y-43879712D01*
X140821729Y-44168060D01*
X140821728Y-44168086D01*
X140821728Y-44173196D01*
X140821728Y-44306804D01*
X140821728Y-44306806D01*
X140821727Y-44306806D01*
X140841441Y-44405906D01*
X140841441Y-44405907D01*
X140847792Y-44437837D01*
X140847795Y-44437846D01*
X140891125Y-44542455D01*
X140898924Y-44561282D01*
X140973152Y-44672373D01*
X141067627Y-44766848D01*
X141067628Y-44766848D01*
X141074695Y-44773915D01*
X141074694Y-44773915D01*
X141074698Y-44773918D01*
X142107623Y-45806845D01*
X142107627Y-45806848D01*
X142218710Y-45881072D01*
X142218723Y-45881079D01*
X142342151Y-45932204D01*
X142342156Y-45932206D01*
X142342160Y-45932206D01*
X142342161Y-45932207D01*
X142473193Y-45958272D01*
X142473196Y-45958272D01*
X142612918Y-45958272D01*
X142612938Y-45958271D01*
X149767062Y-45958271D01*
X149767082Y-45958272D01*
X149773196Y-45958272D01*
X149906806Y-45958272D01*
X149994961Y-45940736D01*
X150037844Y-45932206D01*
X150161282Y-45881076D01*
X150217224Y-45843697D01*
X150272373Y-45806848D01*
X150366848Y-45712373D01*
X150366850Y-45712369D01*
X150948959Y-45130260D01*
X151010281Y-45096776D01*
X151079973Y-45101760D01*
X151135906Y-45143632D01*
X151159112Y-45198544D01*
X151177754Y-45316246D01*
X151195173Y-45369857D01*
X151197168Y-45439698D01*
X151164923Y-45495855D01*
X150075370Y-46585410D01*
X150014047Y-46618895D01*
X149987689Y-46621729D01*
X148440263Y-46621729D01*
X148373224Y-46602044D01*
X148352582Y-46585410D01*
X148242891Y-46475719D01*
X148242887Y-46475716D01*
X148099795Y-46387455D01*
X148099789Y-46387452D01*
X148099787Y-46387451D01*
X147940185Y-46334564D01*
X147940183Y-46334563D01*
X147841681Y-46324500D01*
X147841674Y-46324500D01*
X147308326Y-46324500D01*
X147308318Y-46324500D01*
X147209816Y-46334563D01*
X147209815Y-46334564D01*
X147162270Y-46350319D01*
X147050215Y-46387450D01*
X147050204Y-46387455D01*
X146907112Y-46475716D01*
X146907108Y-46475719D01*
X146875181Y-46507647D01*
X146813858Y-46541132D01*
X146744166Y-46536148D01*
X146699819Y-46507647D01*
X146667891Y-46475719D01*
X146667887Y-46475716D01*
X146524795Y-46387455D01*
X146524789Y-46387452D01*
X146524787Y-46387451D01*
X146365185Y-46334564D01*
X146365183Y-46334563D01*
X146266681Y-46324500D01*
X146266674Y-46324500D01*
X145733326Y-46324500D01*
X145733318Y-46324500D01*
X145634816Y-46334563D01*
X145634815Y-46334564D01*
X145587270Y-46350319D01*
X145475215Y-46387450D01*
X145475204Y-46387455D01*
X145332110Y-46475717D01*
X145331150Y-46476477D01*
X145330367Y-46476792D01*
X145325962Y-46479510D01*
X145325497Y-46478756D01*
X145266352Y-46502613D01*
X145197711Y-46489567D01*
X145182062Y-46479510D01*
X145033705Y-46388001D01*
X145033699Y-46387998D01*
X145033697Y-46387997D01*
X145032046Y-46387450D01*
X144872709Y-46334651D01*
X144773346Y-46324500D01*
X144226662Y-46324500D01*
X144226644Y-46324501D01*
X144127292Y-46334650D01*
X144127289Y-46334651D01*
X143966305Y-46387996D01*
X143966294Y-46388001D01*
X143821959Y-46477029D01*
X143821955Y-46477032D01*
X143702032Y-46596955D01*
X143702029Y-46596959D01*
X143613001Y-46741294D01*
X143612996Y-46741305D01*
X143559651Y-46902290D01*
X143549500Y-47001647D01*
X143549500Y-47598337D01*
X143549501Y-47598355D01*
X143559650Y-47697707D01*
X143559651Y-47697710D01*
X143612996Y-47858694D01*
X143613001Y-47858705D01*
X143702029Y-48003040D01*
X143702030Y-48003041D01*
X143702032Y-48003044D01*
X143745580Y-48046592D01*
X143761307Y-48062319D01*
X143794791Y-48123643D01*
X143789806Y-48193334D01*
X143761307Y-48237681D01*
X143702029Y-48296959D01*
X143613001Y-48441294D01*
X143612996Y-48441305D01*
X143559651Y-48602290D01*
X143549500Y-48701647D01*
X143549500Y-49298337D01*
X143549501Y-49298355D01*
X143559650Y-49397707D01*
X143559651Y-49397710D01*
X143612996Y-49558694D01*
X143613001Y-49558705D01*
X143702029Y-49703040D01*
X143702032Y-49703044D01*
X143821955Y-49822967D01*
X143821959Y-49822970D01*
X143966294Y-49911998D01*
X143966297Y-49911999D01*
X143966303Y-49912003D01*
X144127292Y-49965349D01*
X144226655Y-49975500D01*
X144773344Y-49975499D01*
X144773352Y-49975498D01*
X144773355Y-49975498D01*
X144827760Y-49969940D01*
X144872708Y-49965349D01*
X145033697Y-49912003D01*
X145049851Y-49902038D01*
X145184191Y-49819177D01*
X145184974Y-49820447D01*
X145242122Y-49797388D01*
X145310765Y-49810423D01*
X145331159Y-49823529D01*
X145332106Y-49824278D01*
X145332109Y-49824281D01*
X145332112Y-49824282D01*
X145332116Y-49824286D01*
X145475204Y-49912544D01*
X145475207Y-49912545D01*
X145475213Y-49912549D01*
X145634815Y-49965436D01*
X145733326Y-49975500D01*
X145733331Y-49975500D01*
X146266669Y-49975500D01*
X146266674Y-49975500D01*
X146365185Y-49965436D01*
X146524787Y-49912549D01*
X146667891Y-49824281D01*
X146699819Y-49792353D01*
X146761142Y-49758868D01*
X146830834Y-49763852D01*
X146875181Y-49792353D01*
X146907108Y-49824280D01*
X146907112Y-49824283D01*
X147050204Y-49912544D01*
X147050207Y-49912545D01*
X147050213Y-49912549D01*
X147209815Y-49965436D01*
X147308326Y-49975500D01*
X147308331Y-49975500D01*
X147841669Y-49975500D01*
X147841674Y-49975500D01*
X147940185Y-49965436D01*
X148099787Y-49912549D01*
X148242891Y-49824281D01*
X148352582Y-49714590D01*
X148413905Y-49681105D01*
X148440263Y-49678271D01*
X151047062Y-49678271D01*
X151047082Y-49678272D01*
X151053196Y-49678272D01*
X151186806Y-49678272D01*
X151274961Y-49660736D01*
X151317844Y-49652206D01*
X151441282Y-49601076D01*
X151504707Y-49558697D01*
X151552373Y-49526848D01*
X151646848Y-49432373D01*
X151646850Y-49432369D01*
X152205921Y-48873297D01*
X152267242Y-48839814D01*
X152312993Y-48838507D01*
X152388713Y-48850500D01*
X152388715Y-48850500D01*
X152851286Y-48850500D01*
X152851287Y-48850500D01*
X153061243Y-48817246D01*
X153263412Y-48751557D01*
X153452816Y-48655051D01*
X153525436Y-48602290D01*
X153624786Y-48530109D01*
X153624788Y-48530106D01*
X153624792Y-48530104D01*
X153775104Y-48379792D01*
X153884380Y-48229384D01*
X153939709Y-48186720D01*
X153984698Y-48178271D01*
X155867689Y-48178271D01*
X155897129Y-48186915D01*
X155927116Y-48193439D01*
X155932131Y-48197193D01*
X155934728Y-48197956D01*
X155955370Y-48214590D01*
X155963181Y-48222401D01*
X155996666Y-48283724D01*
X155999500Y-48310082D01*
X155999500Y-48847870D01*
X155999501Y-48847876D01*
X156005908Y-48907483D01*
X156056202Y-49042328D01*
X156056206Y-49042335D01*
X156142452Y-49157544D01*
X156142455Y-49157547D01*
X156257664Y-49243793D01*
X156257671Y-49243797D01*
X156392517Y-49294091D01*
X156392516Y-49294091D01*
X156399444Y-49294835D01*
X156452127Y-49300500D01*
X157547872Y-49300499D01*
X157607483Y-49294091D01*
X157742331Y-49243796D01*
X157857546Y-49157546D01*
X157943796Y-49042331D01*
X157994091Y-48907483D01*
X158000500Y-48847873D01*
X158000499Y-47752128D01*
X157994091Y-47692517D01*
X157986514Y-47672203D01*
X157943797Y-47557671D01*
X157943793Y-47557664D01*
X157857547Y-47442455D01*
X157857544Y-47442452D01*
X157742335Y-47356206D01*
X157742328Y-47356202D01*
X157607482Y-47305908D01*
X157607483Y-47305908D01*
X157547883Y-47299501D01*
X157547881Y-47299500D01*
X157547873Y-47299500D01*
X157547865Y-47299500D01*
X157010082Y-47299500D01*
X156943043Y-47279815D01*
X156922401Y-47263181D01*
X156731188Y-47071968D01*
X156731168Y-47071946D01*
X156632375Y-46973153D01*
X156576827Y-46936038D01*
X156521282Y-46898924D01*
X156397844Y-46847794D01*
X156397838Y-46847792D01*
X156266806Y-46821728D01*
X156266804Y-46821728D01*
X156133196Y-46821728D01*
X156127082Y-46821728D01*
X156127062Y-46821729D01*
X153984698Y-46821729D01*
X153917659Y-46802044D01*
X153884380Y-46770615D01*
X153775104Y-46620208D01*
X153624792Y-46469896D01*
X153460204Y-46350316D01*
X153417540Y-46294989D01*
X153411561Y-46225376D01*
X153444166Y-46163580D01*
X153460199Y-46149686D01*
X153624792Y-46030104D01*
X153775104Y-45879792D01*
X153884380Y-45729384D01*
X153939709Y-45686720D01*
X153984698Y-45678271D01*
X155875501Y-45678271D01*
X155942540Y-45697956D01*
X155988295Y-45750760D01*
X155999501Y-45802271D01*
X155999501Y-45947876D01*
X156005908Y-46007483D01*
X156056202Y-46142328D01*
X156056206Y-46142335D01*
X156142452Y-46257544D01*
X156142455Y-46257547D01*
X156257664Y-46343793D01*
X156257671Y-46343797D01*
X156392517Y-46394091D01*
X156392516Y-46394091D01*
X156399444Y-46394835D01*
X156452127Y-46400500D01*
X157547872Y-46400499D01*
X157607483Y-46394091D01*
X157742331Y-46343796D01*
X157857546Y-46257546D01*
X157943796Y-46142331D01*
X157994091Y-46007483D01*
X158000500Y-45947873D01*
X158000499Y-44852128D01*
X157994091Y-44792517D01*
X157988044Y-44776305D01*
X157943797Y-44657671D01*
X157943793Y-44657664D01*
X157857547Y-44542455D01*
X157857544Y-44542452D01*
X157742335Y-44456206D01*
X157742328Y-44456202D01*
X157607482Y-44405908D01*
X157607483Y-44405908D01*
X157547883Y-44399501D01*
X157547881Y-44399500D01*
X157547873Y-44399500D01*
X157547865Y-44399500D01*
X156947337Y-44399500D01*
X156940842Y-44398288D01*
X156937030Y-44399071D01*
X156910366Y-44392603D01*
X156902633Y-44391161D01*
X156901251Y-44390626D01*
X156797844Y-44347794D01*
X156793083Y-44346847D01*
X156782570Y-44344755D01*
X156782568Y-44344755D01*
X156666806Y-44321728D01*
X156666804Y-44321728D01*
X156533196Y-44321728D01*
X156527082Y-44321728D01*
X156527062Y-44321729D01*
X153984698Y-44321729D01*
X153917659Y-44302044D01*
X153884380Y-44270615D01*
X153775104Y-44120208D01*
X153624792Y-43969896D01*
X153460204Y-43850316D01*
X153417540Y-43794989D01*
X153411561Y-43725376D01*
X153444166Y-43663580D01*
X153460199Y-43649686D01*
X153624792Y-43530104D01*
X153775104Y-43379792D01*
X153884380Y-43229384D01*
X153939709Y-43186720D01*
X153984698Y-43178271D01*
X155947652Y-43178271D01*
X156014691Y-43197956D01*
X156050008Y-43235889D01*
X156050888Y-43235231D01*
X156142452Y-43357544D01*
X156142455Y-43357547D01*
X156257664Y-43443793D01*
X156257671Y-43443797D01*
X156392517Y-43494091D01*
X156392516Y-43494091D01*
X156399444Y-43494835D01*
X156452127Y-43500500D01*
X157547872Y-43500499D01*
X157607483Y-43494091D01*
X157742331Y-43443796D01*
X157857546Y-43357546D01*
X157943796Y-43242331D01*
X157994091Y-43107483D01*
X158000500Y-43047873D01*
X158000499Y-41952128D01*
X157994091Y-41892517D01*
X157990469Y-41882807D01*
X157943797Y-41757671D01*
X157943793Y-41757664D01*
X157857547Y-41642455D01*
X157857544Y-41642452D01*
X157742335Y-41556206D01*
X157742328Y-41556202D01*
X157607482Y-41505908D01*
X157607483Y-41505908D01*
X157547883Y-41499501D01*
X157547881Y-41499500D01*
X157547873Y-41499500D01*
X157547864Y-41499500D01*
X156452129Y-41499500D01*
X156452123Y-41499501D01*
X156392516Y-41505908D01*
X156257671Y-41556202D01*
X156257664Y-41556206D01*
X156142455Y-41642452D01*
X156142452Y-41642455D01*
X156050888Y-41764769D01*
X156049734Y-41763905D01*
X156007082Y-41806560D01*
X155947652Y-41821729D01*
X153984698Y-41821729D01*
X153917659Y-41802044D01*
X153884380Y-41770615D01*
X153775104Y-41620208D01*
X153624792Y-41469896D01*
X153624786Y-41469890D01*
X153452820Y-41344951D01*
X153263414Y-41248444D01*
X153263413Y-41248443D01*
X153263412Y-41248443D01*
X153061243Y-41182754D01*
X153061241Y-41182753D01*
X153061240Y-41182753D01*
X152899957Y-41157208D01*
X152851287Y-41149500D01*
X152388713Y-41149500D01*
X152340042Y-41157208D01*
X152178760Y-41182753D01*
X151976585Y-41248444D01*
X151787179Y-41344951D01*
X151615213Y-41469890D01*
X151464890Y-41620213D01*
X151339951Y-41792179D01*
X151243444Y-41981585D01*
X151177753Y-42183760D01*
X151144500Y-42393713D01*
X151144500Y-42606286D01*
X151177754Y-42816246D01*
X151195173Y-42869857D01*
X151197168Y-42939698D01*
X151164923Y-42995855D01*
X149595370Y-44565410D01*
X149534047Y-44598895D01*
X149507689Y-44601729D01*
X143891733Y-44601729D01*
X143824694Y-44582044D01*
X143778939Y-44529240D01*
X143768995Y-44460082D01*
X143773348Y-44440839D01*
X143774281Y-44437844D01*
X143804086Y-44342196D01*
X143810500Y-44271616D01*
X143810500Y-43608384D01*
X143804086Y-43537804D01*
X143761229Y-43400271D01*
X143760080Y-43330412D01*
X143796881Y-43271020D01*
X143859950Y-43240952D01*
X143929263Y-43249756D01*
X143944702Y-43257839D01*
X144016303Y-43302003D01*
X144177292Y-43355349D01*
X144276655Y-43365500D01*
X144823344Y-43365499D01*
X144823352Y-43365498D01*
X144823355Y-43365498D01*
X144877760Y-43359940D01*
X144922708Y-43355349D01*
X145083697Y-43302003D01*
X145228044Y-43212968D01*
X145347968Y-43093044D01*
X145437003Y-42948697D01*
X145490349Y-42787708D01*
X145500500Y-42688345D01*
X145500499Y-42091656D01*
X145498075Y-42067930D01*
X145490349Y-41992292D01*
X145490348Y-41992289D01*
X145457287Y-41892517D01*
X145437003Y-41831303D01*
X145436999Y-41831297D01*
X145436998Y-41831294D01*
X145347970Y-41686959D01*
X145347967Y-41686955D01*
X145228044Y-41567032D01*
X145228040Y-41567029D01*
X145083705Y-41478001D01*
X145083699Y-41477998D01*
X145083697Y-41477997D01*
X145059250Y-41469896D01*
X144922709Y-41424651D01*
X144823352Y-41414500D01*
X144823345Y-41414500D01*
X144605083Y-41414500D01*
X144575642Y-41405855D01*
X144545656Y-41399332D01*
X144540640Y-41395577D01*
X144538044Y-41394815D01*
X144517402Y-41378181D01*
X144503329Y-41364108D01*
X144469844Y-41302785D01*
X144469765Y-41254454D01*
X144469661Y-41254444D01*
X144469763Y-41253437D01*
X144469759Y-41250460D01*
X144470344Y-41247722D01*
X144470349Y-41247708D01*
X144480500Y-41148345D01*
X144480499Y-40551656D01*
X144478776Y-40534793D01*
X144470349Y-40452292D01*
X144470348Y-40452289D01*
X144467533Y-40443793D01*
X144417003Y-40291303D01*
X144416999Y-40291297D01*
X144416998Y-40291294D01*
X144327970Y-40146959D01*
X144327967Y-40146955D01*
X144320668Y-40139656D01*
X144287183Y-40078333D01*
X144286732Y-40027783D01*
X144290500Y-40008842D01*
X144290500Y-39851158D01*
X144290500Y-39851155D01*
X144290499Y-39851153D01*
X144284855Y-39822778D01*
X144259737Y-39696503D01*
X144259735Y-39696498D01*
X144199397Y-39550827D01*
X144199390Y-39550814D01*
X144111789Y-39419711D01*
X144111786Y-39419707D01*
X144000292Y-39308213D01*
X144000288Y-39308210D01*
X143869185Y-39220609D01*
X143869172Y-39220602D01*
X143723501Y-39160264D01*
X143723491Y-39160261D01*
X143584980Y-39132709D01*
X143523069Y-39100324D01*
X143488495Y-39039608D01*
X143486236Y-39027296D01*
X143485044Y-39018238D01*
X143424536Y-38872159D01*
X143328282Y-38746718D01*
X143202841Y-38650464D01*
X143183503Y-38642454D01*
X143056762Y-38589956D01*
X143056760Y-38589955D01*
X142939361Y-38574500D01*
X142660636Y-38574500D01*
X142543246Y-38589953D01*
X142543234Y-38589957D01*
X142522450Y-38598566D01*
X142452981Y-38606033D01*
X142427550Y-38598566D01*
X142406765Y-38589957D01*
X142406760Y-38589955D01*
X142289361Y-38574500D01*
X142010636Y-38574500D01*
X141893246Y-38589953D01*
X141893234Y-38589957D01*
X141872450Y-38598566D01*
X141802981Y-38606033D01*
X141777550Y-38598566D01*
X141756765Y-38589957D01*
X141756760Y-38589955D01*
X141639361Y-38574500D01*
X141360636Y-38574500D01*
X141243246Y-38589953D01*
X141243237Y-38589956D01*
X141097160Y-38650463D01*
X140971718Y-38746718D01*
X140875463Y-38872160D01*
X140814956Y-39018237D01*
X140814955Y-39018239D01*
X140799500Y-39135638D01*
X140799500Y-39664361D01*
X140814956Y-39781761D01*
X140817061Y-39789618D01*
X140815225Y-39790109D01*
X140821729Y-39822778D01*
X140821729Y-42500288D01*
X140802044Y-42567327D01*
X140749240Y-42613082D01*
X140680082Y-42623026D01*
X140624612Y-42600438D01*
X140616846Y-42594768D01*
X140590289Y-42568211D01*
X140474465Y-42490820D01*
X140472382Y-42489299D01*
X140452616Y-42463544D01*
X140431803Y-42438639D01*
X140431169Y-42435597D01*
X140429844Y-42433870D01*
X140429196Y-42426119D01*
X140421499Y-42389149D01*
X140421499Y-41567129D01*
X140421498Y-41567123D01*
X140421497Y-41567116D01*
X140415091Y-41507517D01*
X140414491Y-41505909D01*
X140364797Y-41372671D01*
X140364793Y-41372664D01*
X140278547Y-41257455D01*
X140278544Y-41257452D01*
X140163335Y-41171206D01*
X140163328Y-41171202D01*
X140028482Y-41120908D01*
X140028483Y-41120908D01*
X139968883Y-41114501D01*
X139968881Y-41114500D01*
X139968873Y-41114500D01*
X139968864Y-41114500D01*
X139111129Y-41114500D01*
X139111123Y-41114501D01*
X139051516Y-41120908D01*
X138916671Y-41171202D01*
X138916664Y-41171206D01*
X138801455Y-41257452D01*
X138801452Y-41257455D01*
X138715206Y-41372664D01*
X138715202Y-41372671D01*
X138664908Y-41507517D01*
X138658510Y-41567032D01*
X138658501Y-41567123D01*
X138658500Y-41567135D01*
X138658500Y-41971728D01*
X138638815Y-42038767D01*
X138586011Y-42084522D01*
X138581953Y-42086289D01*
X138450824Y-42140604D01*
X138450814Y-42140609D01*
X138319711Y-42228210D01*
X138319707Y-42228213D01*
X138208213Y-42339707D01*
X138208210Y-42339711D01*
X138120609Y-42470814D01*
X138120602Y-42470827D01*
X138120056Y-42472147D01*
X138119585Y-42472730D01*
X138117736Y-42476191D01*
X138117079Y-42475840D01*
X138076210Y-42526546D01*
X138009914Y-42548605D01*
X137942216Y-42531320D01*
X137894610Y-42480179D01*
X137881499Y-42424686D01*
X137881499Y-41567128D01*
X137875091Y-41507517D01*
X137874491Y-41505909D01*
X137824797Y-41372671D01*
X137824793Y-41372664D01*
X137738547Y-41257455D01*
X137738544Y-41257452D01*
X137623335Y-41171206D01*
X137623328Y-41171202D01*
X137488482Y-41120908D01*
X137488483Y-41120908D01*
X137428883Y-41114501D01*
X137428881Y-41114500D01*
X137428873Y-41114500D01*
X137428864Y-41114500D01*
X136571129Y-41114500D01*
X136571123Y-41114501D01*
X136511516Y-41120908D01*
X136376671Y-41171202D01*
X136376664Y-41171206D01*
X136261455Y-41257452D01*
X136261452Y-41257455D01*
X136175206Y-41372664D01*
X136175202Y-41372671D01*
X136124908Y-41507517D01*
X136118510Y-41567032D01*
X136118501Y-41567123D01*
X136118500Y-41567135D01*
X135636056Y-41567135D01*
X135629160Y-41541124D01*
X135618880Y-41515247D01*
X135620331Y-41507821D01*
X135618392Y-41500505D01*
X135626942Y-41474000D01*
X135632284Y-41446675D01*
X135639218Y-41435947D01*
X135639844Y-41434010D01*
X135641181Y-41432911D01*
X135641250Y-41432805D01*
X135732544Y-41284795D01*
X135732543Y-41284795D01*
X135732549Y-41284787D01*
X135785436Y-41125185D01*
X135795500Y-41026674D01*
X135795500Y-40493326D01*
X135785436Y-40394815D01*
X135732549Y-40235213D01*
X135732545Y-40235207D01*
X135732544Y-40235204D01*
X135644283Y-40092112D01*
X135644280Y-40092108D01*
X135612353Y-40060181D01*
X135578868Y-39998858D01*
X135583852Y-39929166D01*
X135612353Y-39884819D01*
X135644281Y-39852891D01*
X135732549Y-39709787D01*
X135785436Y-39550185D01*
X135795500Y-39451674D01*
X135795500Y-38918326D01*
X135785436Y-38819815D01*
X135732549Y-38660213D01*
X135732545Y-38660207D01*
X135732544Y-38660204D01*
X135644283Y-38517112D01*
X135644280Y-38517108D01*
X135525391Y-38398219D01*
X135525387Y-38398216D01*
X135382295Y-38309955D01*
X135382289Y-38309952D01*
X135382287Y-38309951D01*
X135222685Y-38257064D01*
X135222683Y-38257063D01*
X135124181Y-38247000D01*
X135124174Y-38247000D01*
X135037746Y-38247000D01*
X134970707Y-38227315D01*
X134924952Y-38174511D01*
X134915008Y-38105353D01*
X134920038Y-38084002D01*
X134940349Y-38022708D01*
X134950500Y-37923345D01*
X134950499Y-36976656D01*
X134950498Y-36976647D01*
X136049500Y-36976647D01*
X136049500Y-37923337D01*
X136049501Y-37923355D01*
X136059650Y-38022707D01*
X136059651Y-38022710D01*
X136112996Y-38183694D01*
X136113001Y-38183705D01*
X136202029Y-38328040D01*
X136202032Y-38328044D01*
X136218008Y-38344020D01*
X136251493Y-38405343D01*
X136246509Y-38475035D01*
X136229594Y-38506011D01*
X136175206Y-38578664D01*
X136175202Y-38578671D01*
X136124908Y-38713517D01*
X136118501Y-38773116D01*
X136118501Y-38773123D01*
X136118500Y-38773135D01*
X136118500Y-40138870D01*
X136118501Y-40138876D01*
X136124908Y-40198483D01*
X136175202Y-40333328D01*
X136175206Y-40333335D01*
X136261452Y-40448544D01*
X136261455Y-40448547D01*
X136376664Y-40534793D01*
X136376671Y-40534797D01*
X136511517Y-40585091D01*
X136511516Y-40585091D01*
X136518444Y-40585835D01*
X136571127Y-40591500D01*
X137428872Y-40591499D01*
X137488483Y-40585091D01*
X137623331Y-40534796D01*
X137738546Y-40448546D01*
X137824796Y-40333331D01*
X137875091Y-40198483D01*
X137881500Y-40138873D01*
X137881499Y-38773128D01*
X137875091Y-38713517D01*
X137867331Y-38692712D01*
X137824797Y-38578671D01*
X137824795Y-38578668D01*
X137807980Y-38556206D01*
X137770405Y-38506012D01*
X137745988Y-38440549D01*
X137760839Y-38372276D01*
X137767823Y-38360972D01*
X137774148Y-38351862D01*
X137797968Y-38328044D01*
X137855786Y-38234307D01*
X137857707Y-38231541D01*
X137882398Y-38211646D01*
X137905966Y-38190449D01*
X137909785Y-38189581D01*
X137912114Y-38187705D01*
X137923354Y-38186497D01*
X137959556Y-38178271D01*
X137967269Y-38178271D01*
X137976481Y-38180791D01*
X137981584Y-38180243D01*
X137990144Y-38184529D01*
X138030390Y-38195539D01*
X138143605Y-38262494D01*
X138184587Y-38274400D01*
X138299002Y-38307642D01*
X138299005Y-38307642D01*
X138299007Y-38307643D01*
X138335310Y-38310500D01*
X138335318Y-38310500D01*
X138668233Y-38310500D01*
X138735272Y-38330185D01*
X138781027Y-38382989D01*
X138790971Y-38452147D01*
X138767500Y-38508811D01*
X138715203Y-38578669D01*
X138715202Y-38578671D01*
X138664908Y-38713517D01*
X138658501Y-38773116D01*
X138658501Y-38773123D01*
X138658500Y-38773135D01*
X138658500Y-40138870D01*
X138658501Y-40138876D01*
X138664908Y-40198483D01*
X138715202Y-40333328D01*
X138715206Y-40333335D01*
X138801452Y-40448544D01*
X138801455Y-40448547D01*
X138916664Y-40534793D01*
X138916671Y-40534797D01*
X139051517Y-40585091D01*
X139051516Y-40585091D01*
X139058444Y-40585835D01*
X139111127Y-40591500D01*
X139968872Y-40591499D01*
X140028483Y-40585091D01*
X140163331Y-40534796D01*
X140278546Y-40448546D01*
X140364796Y-40333331D01*
X140415091Y-40198483D01*
X140421500Y-40138873D01*
X140421499Y-38773128D01*
X140415091Y-38713517D01*
X140407331Y-38692712D01*
X140364797Y-38578671D01*
X140364793Y-38578664D01*
X140278547Y-38463455D01*
X140195836Y-38401537D01*
X140153966Y-38345603D01*
X140148982Y-38275912D01*
X140182468Y-38214589D01*
X140243791Y-38181104D01*
X140270148Y-38178271D01*
X140962192Y-38178271D01*
X141029231Y-38197956D01*
X141037678Y-38203895D01*
X141097157Y-38249535D01*
X141097158Y-38249535D01*
X141097159Y-38249536D01*
X141243238Y-38310044D01*
X141360639Y-38325500D01*
X141639360Y-38325499D01*
X141639363Y-38325499D01*
X141756753Y-38310046D01*
X141756757Y-38310044D01*
X141756762Y-38310044D01*
X141902841Y-38249536D01*
X142028282Y-38153282D01*
X142051625Y-38122860D01*
X142108051Y-38081658D01*
X142177797Y-38077503D01*
X142238718Y-38111714D01*
X142248368Y-38122851D01*
X142271718Y-38153282D01*
X142397159Y-38249536D01*
X142543238Y-38310044D01*
X142660639Y-38325500D01*
X142939360Y-38325499D01*
X142939363Y-38325499D01*
X143056753Y-38310046D01*
X143056757Y-38310044D01*
X143056762Y-38310044D01*
X143202841Y-38249536D01*
X143262322Y-38203895D01*
X143283642Y-38195652D01*
X143302873Y-38183294D01*
X143323152Y-38180378D01*
X143327491Y-38178701D01*
X143337808Y-38178271D01*
X143546727Y-38178271D01*
X143609848Y-38195539D01*
X143730267Y-38266754D01*
X143740607Y-38272869D01*
X143740614Y-38272871D01*
X143894791Y-38317664D01*
X143894794Y-38317664D01*
X143894796Y-38317665D01*
X143930819Y-38320500D01*
X144329180Y-38320499D01*
X144365204Y-38317665D01*
X144519393Y-38272869D01*
X144576882Y-38238869D01*
X144644602Y-38221688D01*
X144703117Y-38238869D01*
X144760607Y-38272869D01*
X144760610Y-38272869D01*
X144760612Y-38272871D01*
X144914791Y-38317664D01*
X144914794Y-38317664D01*
X144914796Y-38317665D01*
X144950819Y-38320500D01*
X145349180Y-38320499D01*
X145385204Y-38317665D01*
X145539393Y-38272869D01*
X145625936Y-38221688D01*
X145670152Y-38195539D01*
X145733273Y-38178271D01*
X151040764Y-38178271D01*
X151107803Y-38197956D01*
X151153558Y-38250760D01*
X151158470Y-38263266D01*
X151161653Y-38272871D01*
X151210186Y-38419334D01*
X151302288Y-38568656D01*
X151426344Y-38692712D01*
X151575666Y-38784814D01*
X151742203Y-38839999D01*
X151844991Y-38850500D01*
X153395008Y-38850499D01*
X153497797Y-38839999D01*
X153664334Y-38784814D01*
X153813656Y-38692712D01*
X153937712Y-38568656D01*
X154029814Y-38419334D01*
X154081530Y-38263265D01*
X154121302Y-38205822D01*
X154185817Y-38178999D01*
X154199235Y-38178271D01*
X155927062Y-38178271D01*
X155927082Y-38178272D01*
X155933196Y-38178272D01*
X156066806Y-38178272D01*
X156154961Y-38160736D01*
X156197844Y-38152206D01*
X156321282Y-38101076D01*
X156432373Y-38026848D01*
X156526848Y-37932373D01*
X156526849Y-37932371D01*
X156533915Y-37925305D01*
X156533918Y-37925301D01*
X156922401Y-37536818D01*
X156983724Y-37503333D01*
X157010082Y-37500499D01*
X157547871Y-37500499D01*
X157547872Y-37500499D01*
X157607483Y-37494091D01*
X157742331Y-37443796D01*
X157857546Y-37357546D01*
X157943796Y-37242331D01*
X157994091Y-37107483D01*
X158000500Y-37047873D01*
X158000499Y-35952128D01*
X157994091Y-35892517D01*
X157983127Y-35863122D01*
X157943797Y-35757671D01*
X157943793Y-35757664D01*
X157857547Y-35642455D01*
X157857544Y-35642452D01*
X157742335Y-35556206D01*
X157742328Y-35556202D01*
X157607482Y-35505908D01*
X157607483Y-35505908D01*
X157547883Y-35499501D01*
X157547881Y-35499500D01*
X157547873Y-35499500D01*
X157547864Y-35499500D01*
X156452129Y-35499500D01*
X156452123Y-35499501D01*
X156392516Y-35505908D01*
X156257671Y-35556202D01*
X156257664Y-35556206D01*
X156142455Y-35642452D01*
X156142452Y-35642455D01*
X156056206Y-35757664D01*
X156056202Y-35757671D01*
X156005908Y-35892517D01*
X155999501Y-35952116D01*
X155999501Y-35952123D01*
X155999500Y-35952135D01*
X155999500Y-36489917D01*
X155979815Y-36556956D01*
X155963181Y-36577598D01*
X155755370Y-36785410D01*
X155694047Y-36818895D01*
X155667689Y-36821729D01*
X154199236Y-36821729D01*
X154132197Y-36802044D01*
X154086442Y-36749240D01*
X154081530Y-36736734D01*
X154065878Y-36689500D01*
X154029814Y-36580666D01*
X153937712Y-36431344D01*
X153813656Y-36307288D01*
X153664334Y-36215186D01*
X153497797Y-36160001D01*
X153497795Y-36160000D01*
X153395010Y-36149500D01*
X151844998Y-36149500D01*
X151844981Y-36149501D01*
X151742203Y-36160000D01*
X151742200Y-36160001D01*
X151575668Y-36215185D01*
X151575663Y-36215187D01*
X151426342Y-36307289D01*
X151302289Y-36431342D01*
X151210187Y-36580663D01*
X151210185Y-36580668D01*
X151196156Y-36623006D01*
X151158469Y-36736734D01*
X151118698Y-36794178D01*
X151054183Y-36821001D01*
X151040765Y-36821729D01*
X145733273Y-36821729D01*
X145670152Y-36804461D01*
X145539394Y-36727131D01*
X145539388Y-36727129D01*
X145385208Y-36682335D01*
X145385202Y-36682334D01*
X145349181Y-36679500D01*
X144950830Y-36679500D01*
X144950808Y-36679501D01*
X144914794Y-36682335D01*
X144760611Y-36727129D01*
X144760604Y-36727132D01*
X144703119Y-36761128D01*
X144635395Y-36778309D01*
X144576881Y-36761128D01*
X144519395Y-36727132D01*
X144519388Y-36727129D01*
X144365208Y-36682335D01*
X144365202Y-36682334D01*
X144329181Y-36679500D01*
X143930830Y-36679500D01*
X143930808Y-36679501D01*
X143894794Y-36682335D01*
X143740611Y-36727129D01*
X143740605Y-36727131D01*
X143609848Y-36804461D01*
X143593946Y-36808811D01*
X143581662Y-36816706D01*
X143546727Y-36821729D01*
X143337808Y-36821729D01*
X143270769Y-36802044D01*
X143262322Y-36796105D01*
X143202842Y-36750464D01*
X143056762Y-36689956D01*
X143056760Y-36689955D01*
X142939361Y-36674500D01*
X142660636Y-36674500D01*
X142543246Y-36689953D01*
X142543237Y-36689956D01*
X142397160Y-36750463D01*
X142271718Y-36846718D01*
X142248374Y-36877140D01*
X142191948Y-36918341D01*
X142122202Y-36922496D01*
X142061281Y-36888283D01*
X142051630Y-36877146D01*
X142028282Y-36846718D01*
X141902841Y-36750464D01*
X141902638Y-36750380D01*
X141756762Y-36689956D01*
X141756760Y-36689955D01*
X141639370Y-36674501D01*
X141639367Y-36674500D01*
X141639361Y-36674500D01*
X141639354Y-36674500D01*
X141541632Y-36674500D01*
X141474593Y-36654815D01*
X141428838Y-36602011D01*
X141418014Y-36540772D01*
X141420499Y-36509188D01*
X141420500Y-36509181D01*
X141420499Y-36110820D01*
X141417665Y-36074796D01*
X141372869Y-35920607D01*
X141338869Y-35863117D01*
X141321688Y-35795398D01*
X141338869Y-35736882D01*
X141372869Y-35679393D01*
X141377366Y-35663916D01*
X141417664Y-35525208D01*
X141417665Y-35525202D01*
X141420500Y-35489181D01*
X141420499Y-35090820D01*
X141417665Y-35054796D01*
X141382598Y-34934094D01*
X141382797Y-34864224D01*
X141420739Y-34805555D01*
X141484378Y-34776711D01*
X141501674Y-34775499D01*
X141573338Y-34775499D01*
X141573344Y-34775499D01*
X141573352Y-34775498D01*
X141573355Y-34775498D01*
X141627760Y-34769940D01*
X141672708Y-34765349D01*
X141833697Y-34712003D01*
X141978044Y-34622968D01*
X142097968Y-34503044D01*
X142187003Y-34358697D01*
X142240349Y-34197708D01*
X142250500Y-34098345D01*
X142250499Y-33501656D01*
X142245440Y-33452135D01*
X142240349Y-33402292D01*
X142240348Y-33402289D01*
X142210369Y-33311818D01*
X142187003Y-33241303D01*
X142186999Y-33241297D01*
X142186998Y-33241294D01*
X142097970Y-33096959D01*
X142097967Y-33096955D01*
X141978044Y-32977032D01*
X141978040Y-32977029D01*
X141833705Y-32888001D01*
X141833699Y-32887998D01*
X141833697Y-32887997D01*
X141745266Y-32858694D01*
X141672709Y-32834651D01*
X141573352Y-32824500D01*
X141573345Y-32824500D01*
X141110082Y-32824500D01*
X141043043Y-32804815D01*
X141022401Y-32788181D01*
X140561818Y-32327598D01*
X140528333Y-32266275D01*
X140525499Y-32239917D01*
X140525499Y-32001662D01*
X140525498Y-32001644D01*
X140515349Y-31902292D01*
X140515348Y-31902289D01*
X140462003Y-31741303D01*
X140461999Y-31741297D01*
X140461998Y-31741294D01*
X140372970Y-31596959D01*
X140372967Y-31596955D01*
X140305296Y-31529284D01*
X140271811Y-31467961D01*
X140276795Y-31398269D01*
X140305292Y-31353927D01*
X140612319Y-31046899D01*
X140620262Y-31042562D01*
X140625688Y-31035315D01*
X140650447Y-31026080D01*
X140673640Y-31013416D01*
X140682669Y-31014061D01*
X140691152Y-31010898D01*
X140716972Y-31016514D01*
X140743332Y-31018400D01*
X140752385Y-31024218D01*
X140759425Y-31025750D01*
X140787679Y-31046901D01*
X140863181Y-31122403D01*
X140896666Y-31183726D01*
X140899500Y-31210084D01*
X140899500Y-31747870D01*
X140899501Y-31747876D01*
X140905908Y-31807483D01*
X140956202Y-31942328D01*
X140956206Y-31942335D01*
X141042452Y-32057544D01*
X141042455Y-32057547D01*
X141157664Y-32143793D01*
X141157671Y-32143797D01*
X141292517Y-32194091D01*
X141292516Y-32194091D01*
X141299444Y-32194835D01*
X141352127Y-32200500D01*
X142447872Y-32200499D01*
X142507483Y-32194091D01*
X142642331Y-32143796D01*
X142757546Y-32057546D01*
X142843796Y-31942331D01*
X142894091Y-31807483D01*
X142900500Y-31747873D01*
X142900499Y-30652128D01*
X142894091Y-30592517D01*
X142875559Y-30542832D01*
X142870576Y-30473142D01*
X142904061Y-30411819D01*
X142965384Y-30378334D01*
X142991742Y-30375500D01*
X143206613Y-30375500D01*
X143206616Y-30375500D01*
X143277196Y-30369086D01*
X143295407Y-30363410D01*
X143365264Y-30362259D01*
X143379749Y-30367235D01*
X143487387Y-30411819D01*
X143506503Y-30419737D01*
X143661153Y-30450499D01*
X143661156Y-30450500D01*
X143661158Y-30450500D01*
X143818844Y-30450500D01*
X143818845Y-30450499D01*
X143973497Y-30419737D01*
X144119179Y-30359394D01*
X144250289Y-30271789D01*
X144361789Y-30160289D01*
X144449394Y-30029179D01*
X144509737Y-29883497D01*
X144540500Y-29728842D01*
X144540500Y-29571158D01*
X144540500Y-29571155D01*
X144540499Y-29571153D01*
X144509738Y-29416510D01*
X144509737Y-29416503D01*
X144495276Y-29381592D01*
X144487808Y-29312127D01*
X144495275Y-29286694D01*
X144529737Y-29203497D01*
X144560500Y-29048842D01*
X144560500Y-28891158D01*
X144560500Y-28891155D01*
X144560499Y-28891153D01*
X144549408Y-28835394D01*
X144529737Y-28736503D01*
X144529735Y-28736498D01*
X144469397Y-28590827D01*
X144469390Y-28590814D01*
X144381789Y-28459711D01*
X144381786Y-28459707D01*
X144270292Y-28348213D01*
X144270288Y-28348210D01*
X144139185Y-28260609D01*
X144139172Y-28260602D01*
X143993501Y-28200264D01*
X143993489Y-28200261D01*
X143838845Y-28169500D01*
X143838842Y-28169500D01*
X143681158Y-28169500D01*
X143681155Y-28169500D01*
X143526510Y-28200261D01*
X143526498Y-28200264D01*
X143380827Y-28260602D01*
X143380814Y-28260609D01*
X143249711Y-28348210D01*
X143249707Y-28348213D01*
X143209742Y-28388180D01*
X143148419Y-28421666D01*
X143122060Y-28424500D01*
X142693384Y-28424500D01*
X142674145Y-28426248D01*
X142622807Y-28430913D01*
X142460393Y-28481522D01*
X142314811Y-28569530D01*
X142314810Y-28569531D01*
X142212681Y-28671661D01*
X142151358Y-28705146D01*
X142081666Y-28700162D01*
X142037319Y-28671661D01*
X141935188Y-28569530D01*
X141789606Y-28481522D01*
X141627196Y-28430914D01*
X141627194Y-28430913D01*
X141627192Y-28430913D01*
X141577778Y-28426423D01*
X141556616Y-28424500D01*
X141043384Y-28424500D01*
X141024145Y-28426248D01*
X140972807Y-28430913D01*
X140810393Y-28481522D01*
X140664811Y-28569530D01*
X140664810Y-28569531D01*
X140612681Y-28621661D01*
X140551358Y-28655146D01*
X140481666Y-28650162D01*
X140437319Y-28621661D01*
X140385188Y-28569530D01*
X140239606Y-28481522D01*
X140077196Y-28430914D01*
X140077194Y-28430913D01*
X140077192Y-28430913D01*
X140027778Y-28426423D01*
X140006616Y-28424500D01*
X139493384Y-28424500D01*
X139474145Y-28426248D01*
X139422807Y-28430913D01*
X139260393Y-28481522D01*
X139114811Y-28569530D01*
X138994530Y-28689811D01*
X138906522Y-28835393D01*
X138855913Y-28997807D01*
X138849500Y-29068386D01*
X138849500Y-29731613D01*
X138855913Y-29802192D01*
X138855913Y-29802194D01*
X138855914Y-29802196D01*
X138881248Y-29883497D01*
X138906522Y-29964606D01*
X138994530Y-30110188D01*
X139114811Y-30230469D01*
X139114813Y-30230470D01*
X139114815Y-30230472D01*
X139225855Y-30297598D01*
X139241921Y-30315142D01*
X139260970Y-30329402D01*
X139265086Y-30340438D01*
X139273040Y-30349124D01*
X139277071Y-30372570D01*
X139285387Y-30394866D01*
X139282883Y-30406375D01*
X139284879Y-30417983D01*
X139275592Y-30439890D01*
X139270535Y-30463139D01*
X139259472Y-30477917D01*
X139257610Y-30482312D01*
X139249385Y-30491394D01*
X139142630Y-30598149D01*
X139142629Y-30598149D01*
X139142628Y-30598150D01*
X139142627Y-30598152D01*
X139088656Y-30652123D01*
X139048150Y-30692629D01*
X139048148Y-30692631D01*
X138998038Y-30767626D01*
X138998039Y-30767627D01*
X138973923Y-30803719D01*
X138922794Y-30927155D01*
X138922792Y-30927161D01*
X138896728Y-31058193D01*
X138896728Y-31197917D01*
X138896729Y-31197938D01*
X138896729Y-31425897D01*
X138877044Y-31492936D01*
X138860410Y-31513578D01*
X138777032Y-31596955D01*
X138777029Y-31596959D01*
X138688001Y-31741294D01*
X138687996Y-31741305D01*
X138634651Y-31902290D01*
X138624500Y-32001647D01*
X138624500Y-32598337D01*
X138624501Y-32598355D01*
X138634650Y-32697707D01*
X138634651Y-32697710D01*
X138687996Y-32858694D01*
X138688001Y-32858705D01*
X138777029Y-33003040D01*
X138777032Y-33003044D01*
X138896955Y-33122967D01*
X138896959Y-33122970D01*
X139041294Y-33211998D01*
X139041297Y-33211999D01*
X139041303Y-33212003D01*
X139202292Y-33265349D01*
X139301655Y-33275500D01*
X139539916Y-33275499D01*
X139606956Y-33295183D01*
X139627598Y-33311818D01*
X140140598Y-33824818D01*
X140142473Y-33828253D01*
X140145789Y-33830336D01*
X140159086Y-33858676D01*
X140174083Y-33886141D01*
X140173803Y-33890044D01*
X140175467Y-33893589D01*
X140171331Y-33924616D01*
X140169099Y-33955833D01*
X140166603Y-33960088D01*
X140166236Y-33962846D01*
X140157681Y-33975302D01*
X140147461Y-33992732D01*
X140144175Y-33996603D01*
X140073152Y-34067627D01*
X140037301Y-34121283D01*
X140033353Y-34127190D01*
X140033349Y-34127196D01*
X139998922Y-34178719D01*
X139947794Y-34302155D01*
X139947792Y-34302161D01*
X139924795Y-34417772D01*
X139892409Y-34479683D01*
X139831693Y-34514257D01*
X139761924Y-34510516D01*
X139759846Y-34509762D01*
X139682485Y-34480909D01*
X139682483Y-34480908D01*
X139622883Y-34474501D01*
X139622881Y-34474500D01*
X139622873Y-34474500D01*
X139622864Y-34474500D01*
X138527129Y-34474500D01*
X138527123Y-34474501D01*
X138467516Y-34480908D01*
X138332671Y-34531202D01*
X138332664Y-34531206D01*
X138217455Y-34617452D01*
X138217452Y-34617455D01*
X138131206Y-34732664D01*
X138131202Y-34732671D01*
X138080908Y-34867517D01*
X138074501Y-34927116D01*
X138074500Y-34927135D01*
X138074500Y-36022870D01*
X138074501Y-36022876D01*
X138080908Y-36082483D01*
X138131202Y-36217328D01*
X138131206Y-36217335D01*
X138217452Y-36332544D01*
X138217455Y-36332547D01*
X138332664Y-36418793D01*
X138332671Y-36418797D01*
X138414502Y-36449318D01*
X138470436Y-36491189D01*
X138494853Y-36556653D01*
X138480002Y-36624926D01*
X138430597Y-36674332D01*
X138371169Y-36689500D01*
X138335302Y-36689500D01*
X138299008Y-36692356D01*
X138299002Y-36692357D01*
X138143609Y-36737504D01*
X138143608Y-36737504D01*
X138067354Y-36782600D01*
X137999630Y-36799781D01*
X137933367Y-36777621D01*
X137889605Y-36723155D01*
X137887286Y-36716911D01*
X137887004Y-36716308D01*
X137887003Y-36716303D01*
X137886999Y-36716297D01*
X137886998Y-36716294D01*
X137797970Y-36571959D01*
X137797967Y-36571955D01*
X137678044Y-36452032D01*
X137678040Y-36452029D01*
X137533705Y-36363001D01*
X137533699Y-36362998D01*
X137533697Y-36362997D01*
X137533694Y-36362996D01*
X137372709Y-36309651D01*
X137273346Y-36299500D01*
X136726662Y-36299500D01*
X136726644Y-36299501D01*
X136627292Y-36309650D01*
X136627289Y-36309651D01*
X136466305Y-36362996D01*
X136466294Y-36363001D01*
X136321959Y-36452029D01*
X136321955Y-36452032D01*
X136202032Y-36571955D01*
X136202029Y-36571959D01*
X136113001Y-36716294D01*
X136112996Y-36716305D01*
X136059651Y-36877290D01*
X136049500Y-36976647D01*
X134950498Y-36976647D01*
X134940349Y-36877292D01*
X134887003Y-36716303D01*
X134886999Y-36716297D01*
X134886998Y-36716294D01*
X134797970Y-36571959D01*
X134797967Y-36571955D01*
X134678044Y-36452032D01*
X134678040Y-36452029D01*
X134533705Y-36363001D01*
X134533699Y-36362998D01*
X134533697Y-36362997D01*
X134533694Y-36362996D01*
X134372709Y-36309651D01*
X134273346Y-36299500D01*
X133726662Y-36299500D01*
X133726644Y-36299501D01*
X133627292Y-36309650D01*
X133627289Y-36309651D01*
X133466305Y-36362996D01*
X133466294Y-36363001D01*
X133321959Y-36452029D01*
X133321955Y-36452032D01*
X133202032Y-36571955D01*
X133202029Y-36571959D01*
X133112998Y-36716299D01*
X133111897Y-36718662D01*
X133110709Y-36720010D01*
X133109205Y-36722450D01*
X133108788Y-36722192D01*
X133065725Y-36771101D01*
X132998531Y-36790253D01*
X132936395Y-36772989D01*
X132876397Y-36737507D01*
X132876390Y-36737504D01*
X132720997Y-36692357D01*
X132720991Y-36692356D01*
X132684697Y-36689500D01*
X132684690Y-36689500D01*
X132275310Y-36689500D01*
X132275302Y-36689500D01*
X132239008Y-36692356D01*
X132239002Y-36692357D01*
X132083608Y-36737504D01*
X132083602Y-36737506D01*
X132063120Y-36749620D01*
X131995396Y-36766801D01*
X131936880Y-36749620D01*
X131916397Y-36737506D01*
X131916391Y-36737504D01*
X131760997Y-36692357D01*
X131760991Y-36692356D01*
X131724697Y-36689500D01*
X131724690Y-36689500D01*
X131315310Y-36689500D01*
X131315302Y-36689500D01*
X131279008Y-36692356D01*
X131279002Y-36692357D01*
X131123609Y-36737504D01*
X131123608Y-36737504D01*
X131068505Y-36770092D01*
X131000781Y-36787274D01*
X130934519Y-36765113D01*
X130906119Y-36737671D01*
X130905996Y-36737507D01*
X130884846Y-36709254D01*
X130884844Y-36709253D01*
X130884844Y-36709252D01*
X130769635Y-36623006D01*
X130769628Y-36623002D01*
X130634782Y-36572708D01*
X130634783Y-36572708D01*
X130575183Y-36566301D01*
X130575181Y-36566300D01*
X130575173Y-36566300D01*
X130575164Y-36566300D01*
X129336429Y-36566300D01*
X129336423Y-36566301D01*
X129276815Y-36572709D01*
X129183341Y-36607572D01*
X129113650Y-36612556D01*
X129052327Y-36579070D01*
X129018843Y-36517747D01*
X129023826Y-36448058D01*
X129065591Y-36336083D01*
X129072000Y-36276473D01*
X129071999Y-35723528D01*
X129065591Y-35663917D01*
X129057586Y-35642455D01*
X129015297Y-35529071D01*
X129015293Y-35529064D01*
X128929047Y-35413855D01*
X128929044Y-35413852D01*
X128813835Y-35327606D01*
X128813828Y-35327602D01*
X128678982Y-35277308D01*
X128678983Y-35277308D01*
X128619383Y-35270901D01*
X128619381Y-35270900D01*
X128619373Y-35270900D01*
X128619364Y-35270900D01*
X127380629Y-35270900D01*
X127380623Y-35270901D01*
X127321016Y-35277308D01*
X127222882Y-35313911D01*
X127217252Y-35314926D01*
X127214484Y-35316706D01*
X127179549Y-35321729D01*
X127032731Y-35321729D01*
X126969610Y-35304461D01*
X126856393Y-35237505D01*
X126856390Y-35237504D01*
X126709093Y-35194710D01*
X126650207Y-35157104D01*
X126621001Y-35093631D01*
X126630747Y-35024445D01*
X126676351Y-34971510D01*
X126700356Y-34959452D01*
X126742326Y-34943798D01*
X126742326Y-34943797D01*
X126742331Y-34943796D01*
X126857546Y-34857546D01*
X126943796Y-34742331D01*
X126994091Y-34607483D01*
X127000500Y-34547873D01*
X127000499Y-33452128D01*
X126994091Y-33392517D01*
X126963992Y-33311818D01*
X126943797Y-33257671D01*
X126943793Y-33257664D01*
X126857547Y-33142455D01*
X126857544Y-33142452D01*
X126742335Y-33056206D01*
X126742328Y-33056202D01*
X126607482Y-33005908D01*
X126607483Y-33005908D01*
X126547883Y-32999501D01*
X126547881Y-32999500D01*
X126547873Y-32999500D01*
X126547864Y-32999500D01*
X125452129Y-32999500D01*
X125452123Y-32999501D01*
X125392516Y-33005908D01*
X125257671Y-33056202D01*
X125257664Y-33056206D01*
X125142455Y-33142452D01*
X125142452Y-33142455D01*
X125056206Y-33257664D01*
X125056202Y-33257671D01*
X125005908Y-33392517D01*
X124999501Y-33452116D01*
X124999501Y-33452123D01*
X124999500Y-33452135D01*
X124999500Y-33887768D01*
X124992393Y-33911969D01*
X124989306Y-33937003D01*
X124981798Y-33948051D01*
X124979815Y-33954807D01*
X124970825Y-33967072D01*
X124967189Y-33971441D01*
X124917048Y-34021584D01*
X124886284Y-34067627D01*
X124882669Y-34073038D01*
X124834914Y-34144507D01*
X124778343Y-34281082D01*
X124778340Y-34281092D01*
X124749500Y-34426079D01*
X124749500Y-34986740D01*
X124729815Y-35053779D01*
X124677011Y-35099534D01*
X124607853Y-35109478D01*
X124588025Y-35104942D01*
X123952562Y-34903474D01*
X123918950Y-34894082D01*
X123913543Y-34893077D01*
X123913605Y-34892739D01*
X123893626Y-34888530D01*
X123852799Y-34875001D01*
X123852795Y-34875000D01*
X123750010Y-34864500D01*
X120949998Y-34864500D01*
X120949980Y-34864501D01*
X120887101Y-34870925D01*
X120818408Y-34858155D01*
X120767524Y-34810274D01*
X120750500Y-34747567D01*
X120750500Y-27124500D01*
X120770185Y-27057461D01*
X120822989Y-27011706D01*
X120874500Y-27000500D01*
X158125500Y-27000500D01*
X158192539Y-27020185D01*
G37*
%TD.AperFunction*%
%TD*%
M02*
