%TF.GenerationSoftware,KiCad,Pcbnew,9.0.2*%
%TF.CreationDate,2026-08-14T16:17:46+08:00*%
%TF.ProjectId,Discriminator,44697363-7269-46d6-996e-61746f722e6b,rev?*%
%TF.SameCoordinates,Original*%
%TF.FileFunction,Paste,Top*%
%TF.FilePolarity,Positive*%
%FSLAX46Y46*%
G04 Gerber Fmt 4.6, Leading zero omitted, Abs format (unit mm)*
G04 Created by KiCad (PCBNEW 9.0.2) date 2026-08-14 16:17:46*
%MOMM*%
%LPD*%
G01*
G04 APERTURE LIST*
G04 Aperture macros list*
%AMRoundRect*
0 Rectangle with rounded corners*
0 $1 Rounding radius*
0 $2 $3 $4 $5 $6 $7 $8 $9 X,Y pos of 4 corners*
0 Add a 4 corners polygon primitive as box body*
4,1,4,$2,$3,$4,$5,$6,$7,$8,$9,$2,$3,0*
0 Add four circle primitives for the rounded corners*
1,1,$1+$1,$2,$3*
1,1,$1+$1,$4,$5*
1,1,$1+$1,$6,$7*
1,1,$1+$1,$8,$9*
0 Add four rect primitives between the rounded corners*
20,1,$1+$1,$2,$3,$4,$5,0*
20,1,$1+$1,$4,$5,$6,$7,0*
20,1,$1+$1,$6,$7,$8,$9,0*
20,1,$1+$1,$8,$9,$2,$3,0*%
%AMFreePoly0*
4,1,9,3.862500,-0.866500,0.737500,-0.866500,0.737500,-0.450000,-0.737500,-0.450000,-0.737500,0.450000,0.737500,0.450000,0.737500,0.866500,3.862500,0.866500,3.862500,-0.866500,3.862500,-0.866500,$1*%
G04 Aperture macros list end*
%ADD10RoundRect,0.218750X-0.256250X0.218750X-0.256250X-0.218750X0.256250X-0.218750X0.256250X0.218750X0*%
%ADD11RoundRect,0.225000X0.225000X-0.425000X0.225000X0.425000X-0.225000X0.425000X-0.225000X-0.425000X0*%
%ADD12FreePoly0,90.000000*%
%ADD13RoundRect,0.140000X0.140000X0.170000X-0.140000X0.170000X-0.140000X-0.170000X0.140000X-0.170000X0*%
%ADD14R,1.143000X0.457200*%
%ADD15R,1.143000X0.762000*%
%ADD16RoundRect,0.225000X0.225000X0.250000X-0.225000X0.250000X-0.225000X-0.250000X0.225000X-0.250000X0*%
%ADD17RoundRect,0.250000X-0.250000X-0.475000X0.250000X-0.475000X0.250000X0.475000X-0.250000X0.475000X0*%
%ADD18RoundRect,0.200000X-0.200000X-0.275000X0.200000X-0.275000X0.200000X0.275000X-0.200000X0.275000X0*%
%ADD19RoundRect,0.225000X-0.225000X-0.250000X0.225000X-0.250000X0.225000X0.250000X-0.225000X0.250000X0*%
%ADD20RoundRect,0.100000X-0.100000X0.225000X-0.100000X-0.225000X0.100000X-0.225000X0.100000X0.225000X0*%
%ADD21RoundRect,0.140000X-0.140000X-0.170000X0.140000X-0.170000X0.140000X0.170000X-0.140000X0.170000X0*%
%ADD22RoundRect,0.225000X-0.250000X0.225000X-0.250000X-0.225000X0.250000X-0.225000X0.250000X0.225000X0*%
%ADD23RoundRect,0.218750X-0.218750X-0.256250X0.218750X-0.256250X0.218750X0.256250X-0.218750X0.256250X0*%
%ADD24RoundRect,0.135000X-0.135000X-0.185000X0.135000X-0.185000X0.135000X0.185000X-0.135000X0.185000X0*%
%ADD25RoundRect,0.200000X-0.275000X0.200000X-0.275000X-0.200000X0.275000X-0.200000X0.275000X0.200000X0*%
%ADD26R,0.762000X1.270000*%
%ADD27RoundRect,0.250000X0.250000X0.475000X-0.250000X0.475000X-0.250000X-0.475000X0.250000X-0.475000X0*%
%ADD28RoundRect,0.135000X-0.185000X0.135000X-0.185000X-0.135000X0.185000X-0.135000X0.185000X0.135000X0*%
G04 APERTURE END LIST*
D10*
%TO.C,L2*%
X134820000Y-39185000D03*
X134820000Y-40760000D03*
%TD*%
D11*
%TO.C,U2*%
X134000000Y-37450000D03*
D12*
X135500000Y-37362500D03*
D11*
X137000000Y-37450000D03*
%TD*%
D13*
%TO.C,C2*%
X132480000Y-37500000D03*
X131520000Y-37500000D03*
%TD*%
D14*
%TO.C,U1*%
X129955800Y-37295400D03*
D15*
X129955800Y-36152400D03*
D14*
X128000000Y-36000000D03*
X128000000Y-37295400D03*
%TD*%
D16*
%TO.C,C10*%
X138800000Y-45400000D03*
X137250000Y-45400000D03*
%TD*%
D17*
%TO.C,C6*%
X130700000Y-48300000D03*
X132600000Y-48300000D03*
%TD*%
D13*
%TO.C,C9*%
X138800000Y-43750000D03*
X137840000Y-43750000D03*
%TD*%
D18*
%TO.C,R_b1*%
X138100000Y-29400000D03*
X139750000Y-29400000D03*
%TD*%
%TO.C,R_Hyst1*%
X142910000Y-43940000D03*
X144560000Y-43940000D03*
%TD*%
D19*
%TO.C,C12*%
X141300000Y-33800000D03*
X142850000Y-33800000D03*
%TD*%
D20*
%TO.C,U_Comparator1*%
X142800000Y-37500000D03*
X142150000Y-37500000D03*
X141500000Y-37500000D03*
X141500000Y-39400000D03*
X142150000Y-39400000D03*
X142800000Y-39400000D03*
%TD*%
D21*
%TO.C,C4*%
X132100000Y-44800000D03*
X133060000Y-44800000D03*
%TD*%
D16*
%TO.C,R6*%
X144500000Y-49000000D03*
X142950000Y-49000000D03*
%TD*%
D22*
%TO.C,C7*%
X134810000Y-45310000D03*
X134810000Y-46860000D03*
%TD*%
D23*
%TO.C,D_Life3.3*%
X146000000Y-47300000D03*
X147575000Y-47300000D03*
%TD*%
D18*
%TO.C,R_a1*%
X141300000Y-29400000D03*
X142950000Y-29400000D03*
%TD*%
D19*
%TO.C,C14*%
X143530000Y-40850000D03*
X145080000Y-40850000D03*
%TD*%
D24*
%TO.C,R_s1*%
X144130000Y-37500000D03*
X145150000Y-37500000D03*
%TD*%
D25*
%TO.C,R1*%
X134810000Y-42210000D03*
X134810000Y-43860000D03*
%TD*%
D16*
%TO.C,C13*%
X139575000Y-32300000D03*
X138025000Y-32300000D03*
%TD*%
D26*
%TO.C,L3*%
X137000000Y-39456000D03*
X139540000Y-39456000D03*
X139540000Y-42250000D03*
X137000000Y-42250000D03*
%TD*%
D23*
%TO.C,D_Life5*%
X146000000Y-49000000D03*
X147575000Y-49000000D03*
%TD*%
D27*
%TO.C,C11*%
X138800000Y-48300000D03*
X136900000Y-48300000D03*
%TD*%
D19*
%TO.C,C15*%
X144550000Y-42390000D03*
X146100000Y-42390000D03*
%TD*%
D16*
%TO.C,R2*%
X144500000Y-47300000D03*
X142950000Y-47300000D03*
%TD*%
D28*
%TO.C,Rterm1*%
X140600000Y-35290000D03*
X140600000Y-36310000D03*
%TD*%
D13*
%TO.C,C1*%
X126460000Y-36000000D03*
X125500000Y-36000000D03*
%TD*%
%TO.C,C3*%
X132100000Y-43800000D03*
X131140000Y-43800000D03*
%TD*%
D16*
%TO.C,C5*%
X130700000Y-46400000D03*
X129150000Y-46400000D03*
%TD*%
D26*
%TO.C,L1*%
X130460000Y-39500000D03*
X133000000Y-39500000D03*
X133000000Y-42294000D03*
X130460000Y-42294000D03*
%TD*%
D21*
%TO.C,C8*%
X138540000Y-37500000D03*
X139500000Y-37500000D03*
%TD*%
M02*
