%TF.GenerationSoftware,KiCad,Pcbnew,9.0.2*%
%TF.CreationDate,2026-08-16T19:09:34-07:00*%
%TF.ProjectId,Discriminator,44697363-7269-46d6-996e-61746f722e6b,rev?*%
%TF.SameCoordinates,Original*%
%TF.FileFunction,Legend,Top*%
%TF.FilePolarity,Positive*%
%FSLAX46Y46*%
G04 Gerber Fmt 4.6, Leading zero omitted, Abs format (unit mm)*
G04 Created by KiCad (PCBNEW 9.0.2) date 2026-08-16 19:09:34*
%MOMM*%
%LPD*%
G01*
G04 APERTURE LIST*
%ADD10C,0.100000*%
%ADD11C,0.150000*%
%ADD12C,0.120000*%
%ADD13C,0.152400*%
%ADD14C,0.000000*%
%ADD15C,0.127000*%
G04 APERTURE END LIST*
D10*
X174372419Y-115660401D02*
X175086704Y-115660401D01*
X175086704Y-115660401D02*
X175229561Y-115708020D01*
X175229561Y-115708020D02*
X175324800Y-115803258D01*
X175324800Y-115803258D02*
X175372419Y-115946115D01*
X175372419Y-115946115D02*
X175372419Y-116041353D01*
X174800990Y-115041353D02*
X174753371Y-115136591D01*
X174753371Y-115136591D02*
X174705752Y-115184210D01*
X174705752Y-115184210D02*
X174610514Y-115231829D01*
X174610514Y-115231829D02*
X174562895Y-115231829D01*
X174562895Y-115231829D02*
X174467657Y-115184210D01*
X174467657Y-115184210D02*
X174420038Y-115136591D01*
X174420038Y-115136591D02*
X174372419Y-115041353D01*
X174372419Y-115041353D02*
X174372419Y-114850877D01*
X174372419Y-114850877D02*
X174420038Y-114755639D01*
X174420038Y-114755639D02*
X174467657Y-114708020D01*
X174467657Y-114708020D02*
X174562895Y-114660401D01*
X174562895Y-114660401D02*
X174610514Y-114660401D01*
X174610514Y-114660401D02*
X174705752Y-114708020D01*
X174705752Y-114708020D02*
X174753371Y-114755639D01*
X174753371Y-114755639D02*
X174800990Y-114850877D01*
X174800990Y-114850877D02*
X174800990Y-115041353D01*
X174800990Y-115041353D02*
X174848609Y-115136591D01*
X174848609Y-115136591D02*
X174896228Y-115184210D01*
X174896228Y-115184210D02*
X174991466Y-115231829D01*
X174991466Y-115231829D02*
X175181942Y-115231829D01*
X175181942Y-115231829D02*
X175277180Y-115184210D01*
X175277180Y-115184210D02*
X175324800Y-115136591D01*
X175324800Y-115136591D02*
X175372419Y-115041353D01*
X175372419Y-115041353D02*
X175372419Y-114850877D01*
X175372419Y-114850877D02*
X175324800Y-114755639D01*
X175324800Y-114755639D02*
X175277180Y-114708020D01*
X175277180Y-114708020D02*
X175181942Y-114660401D01*
X175181942Y-114660401D02*
X174991466Y-114660401D01*
X174991466Y-114660401D02*
X174896228Y-114708020D01*
X174896228Y-114708020D02*
X174848609Y-114755639D01*
X174848609Y-114755639D02*
X174800990Y-114850877D01*
X174372419Y-113612781D02*
X175372419Y-113279448D01*
X175372419Y-113279448D02*
X174372419Y-112946115D01*
X175467657Y-112850877D02*
X175467657Y-112088972D01*
X174705752Y-111993733D02*
X174705752Y-111612781D01*
X174372419Y-111850876D02*
X175229561Y-111850876D01*
X175229561Y-111850876D02*
X175324800Y-111803257D01*
X175324800Y-111803257D02*
X175372419Y-111708019D01*
X175372419Y-111708019D02*
X175372419Y-111612781D01*
X175372419Y-111279447D02*
X174372419Y-111279447D01*
X175372419Y-110850876D02*
X174848609Y-110850876D01*
X174848609Y-110850876D02*
X174753371Y-110898495D01*
X174753371Y-110898495D02*
X174705752Y-110993733D01*
X174705752Y-110993733D02*
X174705752Y-111136590D01*
X174705752Y-111136590D02*
X174753371Y-111231828D01*
X174753371Y-111231828D02*
X174800990Y-111279447D01*
D11*
X145749769Y-90198886D02*
X146464054Y-90198886D01*
X146464054Y-90198886D02*
X146606911Y-90246505D01*
X146606911Y-90246505D02*
X146702150Y-90341743D01*
X146702150Y-90341743D02*
X146749769Y-90484600D01*
X146749769Y-90484600D02*
X146749769Y-90579838D01*
X145749769Y-89246505D02*
X145749769Y-89722695D01*
X145749769Y-89722695D02*
X146225959Y-89770314D01*
X146225959Y-89770314D02*
X146178340Y-89722695D01*
X146178340Y-89722695D02*
X146130721Y-89627457D01*
X146130721Y-89627457D02*
X146130721Y-89389362D01*
X146130721Y-89389362D02*
X146178340Y-89294124D01*
X146178340Y-89294124D02*
X146225959Y-89246505D01*
X146225959Y-89246505D02*
X146321197Y-89198886D01*
X146321197Y-89198886D02*
X146559292Y-89198886D01*
X146559292Y-89198886D02*
X146654530Y-89246505D01*
X146654530Y-89246505D02*
X146702150Y-89294124D01*
X146702150Y-89294124D02*
X146749769Y-89389362D01*
X146749769Y-89389362D02*
X146749769Y-89627457D01*
X146749769Y-89627457D02*
X146702150Y-89722695D01*
X146702150Y-89722695D02*
X146654530Y-89770314D01*
X177057092Y-74285133D02*
X177009473Y-74332753D01*
X177009473Y-74332753D02*
X176866616Y-74380372D01*
X176866616Y-74380372D02*
X176771378Y-74380372D01*
X176771378Y-74380372D02*
X176628521Y-74332753D01*
X176628521Y-74332753D02*
X176533283Y-74237514D01*
X176533283Y-74237514D02*
X176485664Y-74142276D01*
X176485664Y-74142276D02*
X176438045Y-73951800D01*
X176438045Y-73951800D02*
X176438045Y-73808943D01*
X176438045Y-73808943D02*
X176485664Y-73618467D01*
X176485664Y-73618467D02*
X176533283Y-73523229D01*
X176533283Y-73523229D02*
X176628521Y-73427991D01*
X176628521Y-73427991D02*
X176771378Y-73380372D01*
X176771378Y-73380372D02*
X176866616Y-73380372D01*
X176866616Y-73380372D02*
X177009473Y-73427991D01*
X177009473Y-73427991D02*
X177057092Y-73475610D01*
X178009473Y-74380372D02*
X177438045Y-74380372D01*
X177723759Y-74380372D02*
X177723759Y-73380372D01*
X177723759Y-73380372D02*
X177628521Y-73523229D01*
X177628521Y-73523229D02*
X177533283Y-73618467D01*
X177533283Y-73618467D02*
X177438045Y-73666086D01*
X178342807Y-73380372D02*
X179009473Y-73380372D01*
X179009473Y-73380372D02*
X178580902Y-74380372D01*
X177322092Y-85195133D02*
X177274473Y-85242753D01*
X177274473Y-85242753D02*
X177131616Y-85290372D01*
X177131616Y-85290372D02*
X177036378Y-85290372D01*
X177036378Y-85290372D02*
X176893521Y-85242753D01*
X176893521Y-85242753D02*
X176798283Y-85147514D01*
X176798283Y-85147514D02*
X176750664Y-85052276D01*
X176750664Y-85052276D02*
X176703045Y-84861800D01*
X176703045Y-84861800D02*
X176703045Y-84718943D01*
X176703045Y-84718943D02*
X176750664Y-84528467D01*
X176750664Y-84528467D02*
X176798283Y-84433229D01*
X176798283Y-84433229D02*
X176893521Y-84337991D01*
X176893521Y-84337991D02*
X177036378Y-84290372D01*
X177036378Y-84290372D02*
X177131616Y-84290372D01*
X177131616Y-84290372D02*
X177274473Y-84337991D01*
X177274473Y-84337991D02*
X177322092Y-84385610D01*
X178274473Y-85290372D02*
X177703045Y-85290372D01*
X177988759Y-85290372D02*
X177988759Y-84290372D01*
X177988759Y-84290372D02*
X177893521Y-84433229D01*
X177893521Y-84433229D02*
X177798283Y-84528467D01*
X177798283Y-84528467D02*
X177703045Y-84576086D01*
X178750664Y-85290372D02*
X178941140Y-85290372D01*
X178941140Y-85290372D02*
X179036378Y-85242753D01*
X179036378Y-85242753D02*
X179083997Y-85195133D01*
X179083997Y-85195133D02*
X179179235Y-85052276D01*
X179179235Y-85052276D02*
X179226854Y-84861800D01*
X179226854Y-84861800D02*
X179226854Y-84480848D01*
X179226854Y-84480848D02*
X179179235Y-84385610D01*
X179179235Y-84385610D02*
X179131616Y-84337991D01*
X179131616Y-84337991D02*
X179036378Y-84290372D01*
X179036378Y-84290372D02*
X178845902Y-84290372D01*
X178845902Y-84290372D02*
X178750664Y-84337991D01*
X178750664Y-84337991D02*
X178703045Y-84385610D01*
X178703045Y-84385610D02*
X178655426Y-84480848D01*
X178655426Y-84480848D02*
X178655426Y-84718943D01*
X178655426Y-84718943D02*
X178703045Y-84814181D01*
X178703045Y-84814181D02*
X178750664Y-84861800D01*
X178750664Y-84861800D02*
X178845902Y-84909419D01*
X178845902Y-84909419D02*
X179036378Y-84909419D01*
X179036378Y-84909419D02*
X179131616Y-84861800D01*
X179131616Y-84861800D02*
X179179235Y-84814181D01*
X179179235Y-84814181D02*
X179226854Y-84718943D01*
X140853283Y-101750372D02*
X140519950Y-101274181D01*
X140281855Y-101750372D02*
X140281855Y-100750372D01*
X140281855Y-100750372D02*
X140662807Y-100750372D01*
X140662807Y-100750372D02*
X140758045Y-100797991D01*
X140758045Y-100797991D02*
X140805664Y-100845610D01*
X140805664Y-100845610D02*
X140853283Y-100940848D01*
X140853283Y-100940848D02*
X140853283Y-101083705D01*
X140853283Y-101083705D02*
X140805664Y-101178943D01*
X140805664Y-101178943D02*
X140758045Y-101226562D01*
X140758045Y-101226562D02*
X140662807Y-101274181D01*
X140662807Y-101274181D02*
X140281855Y-101274181D01*
X141424712Y-101178943D02*
X141329474Y-101131324D01*
X141329474Y-101131324D02*
X141281855Y-101083705D01*
X141281855Y-101083705D02*
X141234236Y-100988467D01*
X141234236Y-100988467D02*
X141234236Y-100940848D01*
X141234236Y-100940848D02*
X141281855Y-100845610D01*
X141281855Y-100845610D02*
X141329474Y-100797991D01*
X141329474Y-100797991D02*
X141424712Y-100750372D01*
X141424712Y-100750372D02*
X141615188Y-100750372D01*
X141615188Y-100750372D02*
X141710426Y-100797991D01*
X141710426Y-100797991D02*
X141758045Y-100845610D01*
X141758045Y-100845610D02*
X141805664Y-100940848D01*
X141805664Y-100940848D02*
X141805664Y-100988467D01*
X141805664Y-100988467D02*
X141758045Y-101083705D01*
X141758045Y-101083705D02*
X141710426Y-101131324D01*
X141710426Y-101131324D02*
X141615188Y-101178943D01*
X141615188Y-101178943D02*
X141424712Y-101178943D01*
X141424712Y-101178943D02*
X141329474Y-101226562D01*
X141329474Y-101226562D02*
X141281855Y-101274181D01*
X141281855Y-101274181D02*
X141234236Y-101369419D01*
X141234236Y-101369419D02*
X141234236Y-101559895D01*
X141234236Y-101559895D02*
X141281855Y-101655133D01*
X141281855Y-101655133D02*
X141329474Y-101702753D01*
X141329474Y-101702753D02*
X141424712Y-101750372D01*
X141424712Y-101750372D02*
X141615188Y-101750372D01*
X141615188Y-101750372D02*
X141710426Y-101702753D01*
X141710426Y-101702753D02*
X141758045Y-101655133D01*
X141758045Y-101655133D02*
X141805664Y-101559895D01*
X141805664Y-101559895D02*
X141805664Y-101369419D01*
X141805664Y-101369419D02*
X141758045Y-101274181D01*
X141758045Y-101274181D02*
X141710426Y-101226562D01*
X141710426Y-101226562D02*
X141615188Y-101178943D01*
X174960129Y-81189798D02*
X174150606Y-81189798D01*
X174150606Y-81189798D02*
X174055368Y-81237417D01*
X174055368Y-81237417D02*
X174007749Y-81285036D01*
X174007749Y-81285036D02*
X173960129Y-81380274D01*
X173960129Y-81380274D02*
X173960129Y-81570750D01*
X173960129Y-81570750D02*
X174007749Y-81665988D01*
X174007749Y-81665988D02*
X174055368Y-81713607D01*
X174055368Y-81713607D02*
X174150606Y-81761226D01*
X174150606Y-81761226D02*
X174960129Y-81761226D01*
X174960129Y-82713607D02*
X174960129Y-82237417D01*
X174960129Y-82237417D02*
X174483939Y-82189798D01*
X174483939Y-82189798D02*
X174531558Y-82237417D01*
X174531558Y-82237417D02*
X174579177Y-82332655D01*
X174579177Y-82332655D02*
X174579177Y-82570750D01*
X174579177Y-82570750D02*
X174531558Y-82665988D01*
X174531558Y-82665988D02*
X174483939Y-82713607D01*
X174483939Y-82713607D02*
X174388701Y-82761226D01*
X174388701Y-82761226D02*
X174150606Y-82761226D01*
X174150606Y-82761226D02*
X174055368Y-82713607D01*
X174055368Y-82713607D02*
X174007749Y-82665988D01*
X174007749Y-82665988D02*
X173960129Y-82570750D01*
X173960129Y-82570750D02*
X173960129Y-82332655D01*
X173960129Y-82332655D02*
X174007749Y-82237417D01*
X174007749Y-82237417D02*
X174055368Y-82189798D01*
X178545180Y-81250000D02*
X178307085Y-81250000D01*
X178402323Y-81011905D02*
X178307085Y-81250000D01*
X178307085Y-81250000D02*
X178402323Y-81488095D01*
X178116609Y-81107143D02*
X178307085Y-81250000D01*
X178307085Y-81250000D02*
X178116609Y-81392857D01*
X177545180Y-81250000D02*
X177307085Y-81250000D01*
X177402323Y-81011905D02*
X177307085Y-81250000D01*
X177307085Y-81250000D02*
X177402323Y-81488095D01*
X177116609Y-81107143D02*
X177307085Y-81250000D01*
X177307085Y-81250000D02*
X177116609Y-81392857D01*
X140853283Y-79250372D02*
X140519950Y-78774181D01*
X140281855Y-79250372D02*
X140281855Y-78250372D01*
X140281855Y-78250372D02*
X140662807Y-78250372D01*
X140662807Y-78250372D02*
X140758045Y-78297991D01*
X140758045Y-78297991D02*
X140805664Y-78345610D01*
X140805664Y-78345610D02*
X140853283Y-78440848D01*
X140853283Y-78440848D02*
X140853283Y-78583705D01*
X140853283Y-78583705D02*
X140805664Y-78678943D01*
X140805664Y-78678943D02*
X140758045Y-78726562D01*
X140758045Y-78726562D02*
X140662807Y-78774181D01*
X140662807Y-78774181D02*
X140281855Y-78774181D01*
X141186617Y-78250372D02*
X141853283Y-78250372D01*
X141853283Y-78250372D02*
X141424712Y-79250372D01*
X128027092Y-124250372D02*
X127693759Y-123774181D01*
X127455664Y-124250372D02*
X127455664Y-123250372D01*
X127455664Y-123250372D02*
X127836616Y-123250372D01*
X127836616Y-123250372D02*
X127931854Y-123297991D01*
X127931854Y-123297991D02*
X127979473Y-123345610D01*
X127979473Y-123345610D02*
X128027092Y-123440848D01*
X128027092Y-123440848D02*
X128027092Y-123583705D01*
X128027092Y-123583705D02*
X127979473Y-123678943D01*
X127979473Y-123678943D02*
X127931854Y-123726562D01*
X127931854Y-123726562D02*
X127836616Y-123774181D01*
X127836616Y-123774181D02*
X127455664Y-123774181D01*
X128979473Y-124250372D02*
X128408045Y-124250372D01*
X128693759Y-124250372D02*
X128693759Y-123250372D01*
X128693759Y-123250372D02*
X128598521Y-123393229D01*
X128598521Y-123393229D02*
X128503283Y-123488467D01*
X128503283Y-123488467D02*
X128408045Y-123536086D01*
X129360426Y-123345610D02*
X129408045Y-123297991D01*
X129408045Y-123297991D02*
X129503283Y-123250372D01*
X129503283Y-123250372D02*
X129741378Y-123250372D01*
X129741378Y-123250372D02*
X129836616Y-123297991D01*
X129836616Y-123297991D02*
X129884235Y-123345610D01*
X129884235Y-123345610D02*
X129931854Y-123440848D01*
X129931854Y-123440848D02*
X129931854Y-123536086D01*
X129931854Y-123536086D02*
X129884235Y-123678943D01*
X129884235Y-123678943D02*
X129312807Y-124250372D01*
X129312807Y-124250372D02*
X129931854Y-124250372D01*
X140853283Y-124250372D02*
X140519950Y-123774181D01*
X140281855Y-124250372D02*
X140281855Y-123250372D01*
X140281855Y-123250372D02*
X140662807Y-123250372D01*
X140662807Y-123250372D02*
X140758045Y-123297991D01*
X140758045Y-123297991D02*
X140805664Y-123345610D01*
X140805664Y-123345610D02*
X140853283Y-123440848D01*
X140853283Y-123440848D02*
X140853283Y-123583705D01*
X140853283Y-123583705D02*
X140805664Y-123678943D01*
X140805664Y-123678943D02*
X140758045Y-123726562D01*
X140758045Y-123726562D02*
X140662807Y-123774181D01*
X140662807Y-123774181D02*
X140281855Y-123774181D01*
X141329474Y-124250372D02*
X141519950Y-124250372D01*
X141519950Y-124250372D02*
X141615188Y-124202753D01*
X141615188Y-124202753D02*
X141662807Y-124155133D01*
X141662807Y-124155133D02*
X141758045Y-124012276D01*
X141758045Y-124012276D02*
X141805664Y-123821800D01*
X141805664Y-123821800D02*
X141805664Y-123440848D01*
X141805664Y-123440848D02*
X141758045Y-123345610D01*
X141758045Y-123345610D02*
X141710426Y-123297991D01*
X141710426Y-123297991D02*
X141615188Y-123250372D01*
X141615188Y-123250372D02*
X141424712Y-123250372D01*
X141424712Y-123250372D02*
X141329474Y-123297991D01*
X141329474Y-123297991D02*
X141281855Y-123345610D01*
X141281855Y-123345610D02*
X141234236Y-123440848D01*
X141234236Y-123440848D02*
X141234236Y-123678943D01*
X141234236Y-123678943D02*
X141281855Y-123774181D01*
X141281855Y-123774181D02*
X141329474Y-123821800D01*
X141329474Y-123821800D02*
X141424712Y-123869419D01*
X141424712Y-123869419D02*
X141615188Y-123869419D01*
X141615188Y-123869419D02*
X141710426Y-123821800D01*
X141710426Y-123821800D02*
X141758045Y-123774181D01*
X141758045Y-123774181D02*
X141805664Y-123678943D01*
X173919769Y-65484124D02*
X174634054Y-65484124D01*
X174634054Y-65484124D02*
X174776911Y-65531743D01*
X174776911Y-65531743D02*
X174872150Y-65626981D01*
X174872150Y-65626981D02*
X174919769Y-65769838D01*
X174919769Y-65769838D02*
X174919769Y-65865076D01*
X175015007Y-65246029D02*
X175015007Y-64484124D01*
X174919769Y-64246028D02*
X173919769Y-64246028D01*
X173919769Y-64246028D02*
X173919769Y-63865076D01*
X173919769Y-63865076D02*
X173967388Y-63769838D01*
X173967388Y-63769838D02*
X174015007Y-63722219D01*
X174015007Y-63722219D02*
X174110245Y-63674600D01*
X174110245Y-63674600D02*
X174253102Y-63674600D01*
X174253102Y-63674600D02*
X174348340Y-63722219D01*
X174348340Y-63722219D02*
X174395959Y-63769838D01*
X174395959Y-63769838D02*
X174443578Y-63865076D01*
X174443578Y-63865076D02*
X174443578Y-64246028D01*
X174919769Y-63103171D02*
X174872150Y-63198409D01*
X174872150Y-63198409D02*
X174824530Y-63246028D01*
X174824530Y-63246028D02*
X174729292Y-63293647D01*
X174729292Y-63293647D02*
X174443578Y-63293647D01*
X174443578Y-63293647D02*
X174348340Y-63246028D01*
X174348340Y-63246028D02*
X174300721Y-63198409D01*
X174300721Y-63198409D02*
X174253102Y-63103171D01*
X174253102Y-63103171D02*
X174253102Y-62960314D01*
X174253102Y-62960314D02*
X174300721Y-62865076D01*
X174300721Y-62865076D02*
X174348340Y-62817457D01*
X174348340Y-62817457D02*
X174443578Y-62769838D01*
X174443578Y-62769838D02*
X174729292Y-62769838D01*
X174729292Y-62769838D02*
X174824530Y-62817457D01*
X174824530Y-62817457D02*
X174872150Y-62865076D01*
X174872150Y-62865076D02*
X174919769Y-62960314D01*
X174919769Y-62960314D02*
X174919769Y-63103171D01*
X174253102Y-62436504D02*
X174919769Y-62246028D01*
X174919769Y-62246028D02*
X174443578Y-62055552D01*
X174443578Y-62055552D02*
X174919769Y-61865076D01*
X174919769Y-61865076D02*
X174253102Y-61674600D01*
X174872150Y-60912695D02*
X174919769Y-61007933D01*
X174919769Y-61007933D02*
X174919769Y-61198409D01*
X174919769Y-61198409D02*
X174872150Y-61293647D01*
X174872150Y-61293647D02*
X174776911Y-61341266D01*
X174776911Y-61341266D02*
X174395959Y-61341266D01*
X174395959Y-61341266D02*
X174300721Y-61293647D01*
X174300721Y-61293647D02*
X174253102Y-61198409D01*
X174253102Y-61198409D02*
X174253102Y-61007933D01*
X174253102Y-61007933D02*
X174300721Y-60912695D01*
X174300721Y-60912695D02*
X174395959Y-60865076D01*
X174395959Y-60865076D02*
X174491197Y-60865076D01*
X174491197Y-60865076D02*
X174586435Y-61341266D01*
X174919769Y-60436504D02*
X174253102Y-60436504D01*
X174443578Y-60436504D02*
X174348340Y-60388885D01*
X174348340Y-60388885D02*
X174300721Y-60341266D01*
X174300721Y-60341266D02*
X174253102Y-60246028D01*
X174253102Y-60246028D02*
X174253102Y-60150790D01*
X174919769Y-59293647D02*
X174919769Y-59865075D01*
X174919769Y-59579361D02*
X173919769Y-59579361D01*
X173919769Y-59579361D02*
X174062626Y-59674599D01*
X174062626Y-59674599D02*
X174157864Y-59769837D01*
X174157864Y-59769837D02*
X174205483Y-59865075D01*
X133454819Y-113073333D02*
X134169104Y-113073333D01*
X134169104Y-113073333D02*
X134311961Y-113120952D01*
X134311961Y-113120952D02*
X134407200Y-113216190D01*
X134407200Y-113216190D02*
X134454819Y-113359047D01*
X134454819Y-113359047D02*
X134454819Y-113454285D01*
X133883390Y-112454285D02*
X133835771Y-112549523D01*
X133835771Y-112549523D02*
X133788152Y-112597142D01*
X133788152Y-112597142D02*
X133692914Y-112644761D01*
X133692914Y-112644761D02*
X133645295Y-112644761D01*
X133645295Y-112644761D02*
X133550057Y-112597142D01*
X133550057Y-112597142D02*
X133502438Y-112549523D01*
X133502438Y-112549523D02*
X133454819Y-112454285D01*
X133454819Y-112454285D02*
X133454819Y-112263809D01*
X133454819Y-112263809D02*
X133502438Y-112168571D01*
X133502438Y-112168571D02*
X133550057Y-112120952D01*
X133550057Y-112120952D02*
X133645295Y-112073333D01*
X133645295Y-112073333D02*
X133692914Y-112073333D01*
X133692914Y-112073333D02*
X133788152Y-112120952D01*
X133788152Y-112120952D02*
X133835771Y-112168571D01*
X133835771Y-112168571D02*
X133883390Y-112263809D01*
X133883390Y-112263809D02*
X133883390Y-112454285D01*
X133883390Y-112454285D02*
X133931009Y-112549523D01*
X133931009Y-112549523D02*
X133978628Y-112597142D01*
X133978628Y-112597142D02*
X134073866Y-112644761D01*
X134073866Y-112644761D02*
X134264342Y-112644761D01*
X134264342Y-112644761D02*
X134359580Y-112597142D01*
X134359580Y-112597142D02*
X134407200Y-112549523D01*
X134407200Y-112549523D02*
X134454819Y-112454285D01*
X134454819Y-112454285D02*
X134454819Y-112263809D01*
X134454819Y-112263809D02*
X134407200Y-112168571D01*
X134407200Y-112168571D02*
X134359580Y-112120952D01*
X134359580Y-112120952D02*
X134264342Y-112073333D01*
X134264342Y-112073333D02*
X134073866Y-112073333D01*
X134073866Y-112073333D02*
X133978628Y-112120952D01*
X133978628Y-112120952D02*
X133931009Y-112168571D01*
X133931009Y-112168571D02*
X133883390Y-112263809D01*
X130688402Y-76390372D02*
X130688402Y-75390372D01*
X130688402Y-75390372D02*
X130926497Y-75390372D01*
X130926497Y-75390372D02*
X131069354Y-75437991D01*
X131069354Y-75437991D02*
X131164592Y-75533229D01*
X131164592Y-75533229D02*
X131212211Y-75628467D01*
X131212211Y-75628467D02*
X131259830Y-75818943D01*
X131259830Y-75818943D02*
X131259830Y-75961800D01*
X131259830Y-75961800D02*
X131212211Y-76152276D01*
X131212211Y-76152276D02*
X131164592Y-76247514D01*
X131164592Y-76247514D02*
X131069354Y-76342753D01*
X131069354Y-76342753D02*
X130926497Y-76390372D01*
X130926497Y-76390372D02*
X130688402Y-76390372D01*
X131450307Y-76485610D02*
X132212211Y-76485610D01*
X132878878Y-75723705D02*
X132878878Y-76390372D01*
X132640783Y-75342753D02*
X132402688Y-76057038D01*
X132402688Y-76057038D02*
X133021735Y-76057038D01*
X143188402Y-98890372D02*
X143188402Y-97890372D01*
X143188402Y-97890372D02*
X143426497Y-97890372D01*
X143426497Y-97890372D02*
X143569354Y-97937991D01*
X143569354Y-97937991D02*
X143664592Y-98033229D01*
X143664592Y-98033229D02*
X143712211Y-98128467D01*
X143712211Y-98128467D02*
X143759830Y-98318943D01*
X143759830Y-98318943D02*
X143759830Y-98461800D01*
X143759830Y-98461800D02*
X143712211Y-98652276D01*
X143712211Y-98652276D02*
X143664592Y-98747514D01*
X143664592Y-98747514D02*
X143569354Y-98842753D01*
X143569354Y-98842753D02*
X143426497Y-98890372D01*
X143426497Y-98890372D02*
X143188402Y-98890372D01*
X143950307Y-98985610D02*
X144712211Y-98985610D01*
X144902688Y-97985610D02*
X144950307Y-97937991D01*
X144950307Y-97937991D02*
X145045545Y-97890372D01*
X145045545Y-97890372D02*
X145283640Y-97890372D01*
X145283640Y-97890372D02*
X145378878Y-97937991D01*
X145378878Y-97937991D02*
X145426497Y-97985610D01*
X145426497Y-97985610D02*
X145474116Y-98080848D01*
X145474116Y-98080848D02*
X145474116Y-98176086D01*
X145474116Y-98176086D02*
X145426497Y-98318943D01*
X145426497Y-98318943D02*
X144855069Y-98890372D01*
X144855069Y-98890372D02*
X145474116Y-98890372D01*
X175399769Y-88627219D02*
X174923578Y-88960552D01*
X175399769Y-89198647D02*
X174399769Y-89198647D01*
X174399769Y-89198647D02*
X174399769Y-88817695D01*
X174399769Y-88817695D02*
X174447388Y-88722457D01*
X174447388Y-88722457D02*
X174495007Y-88674838D01*
X174495007Y-88674838D02*
X174590245Y-88627219D01*
X174590245Y-88627219D02*
X174733102Y-88627219D01*
X174733102Y-88627219D02*
X174828340Y-88674838D01*
X174828340Y-88674838D02*
X174875959Y-88722457D01*
X174875959Y-88722457D02*
X174923578Y-88817695D01*
X174923578Y-88817695D02*
X174923578Y-89198647D01*
X174733102Y-87770076D02*
X175399769Y-87770076D01*
X174352150Y-88008171D02*
X175066435Y-88246266D01*
X175066435Y-88246266D02*
X175066435Y-87627219D01*
X133399769Y-90198886D02*
X134114054Y-90198886D01*
X134114054Y-90198886D02*
X134256911Y-90246505D01*
X134256911Y-90246505D02*
X134352150Y-90341743D01*
X134352150Y-90341743D02*
X134399769Y-90484600D01*
X134399769Y-90484600D02*
X134399769Y-90579838D01*
X133399769Y-89817933D02*
X133399769Y-89151267D01*
X133399769Y-89151267D02*
X134399769Y-89579838D01*
X143138402Y-121390372D02*
X143138402Y-120390372D01*
X143138402Y-120390372D02*
X143376497Y-120390372D01*
X143376497Y-120390372D02*
X143519354Y-120437991D01*
X143519354Y-120437991D02*
X143614592Y-120533229D01*
X143614592Y-120533229D02*
X143662211Y-120628467D01*
X143662211Y-120628467D02*
X143709830Y-120818943D01*
X143709830Y-120818943D02*
X143709830Y-120961800D01*
X143709830Y-120961800D02*
X143662211Y-121152276D01*
X143662211Y-121152276D02*
X143614592Y-121247514D01*
X143614592Y-121247514D02*
X143519354Y-121342753D01*
X143519354Y-121342753D02*
X143376497Y-121390372D01*
X143376497Y-121390372D02*
X143138402Y-121390372D01*
X143900307Y-121485610D02*
X144662211Y-121485610D01*
X144805069Y-120390372D02*
X145424116Y-120390372D01*
X145424116Y-120390372D02*
X145090783Y-120771324D01*
X145090783Y-120771324D02*
X145233640Y-120771324D01*
X145233640Y-120771324D02*
X145328878Y-120818943D01*
X145328878Y-120818943D02*
X145376497Y-120866562D01*
X145376497Y-120866562D02*
X145424116Y-120961800D01*
X145424116Y-120961800D02*
X145424116Y-121199895D01*
X145424116Y-121199895D02*
X145376497Y-121295133D01*
X145376497Y-121295133D02*
X145328878Y-121342753D01*
X145328878Y-121342753D02*
X145233640Y-121390372D01*
X145233640Y-121390372D02*
X144947926Y-121390372D01*
X144947926Y-121390372D02*
X144852688Y-121342753D01*
X144852688Y-121342753D02*
X144805069Y-121295133D01*
X175427092Y-71255133D02*
X175379473Y-71302753D01*
X175379473Y-71302753D02*
X175236616Y-71350372D01*
X175236616Y-71350372D02*
X175141378Y-71350372D01*
X175141378Y-71350372D02*
X174998521Y-71302753D01*
X174998521Y-71302753D02*
X174903283Y-71207514D01*
X174903283Y-71207514D02*
X174855664Y-71112276D01*
X174855664Y-71112276D02*
X174808045Y-70921800D01*
X174808045Y-70921800D02*
X174808045Y-70778943D01*
X174808045Y-70778943D02*
X174855664Y-70588467D01*
X174855664Y-70588467D02*
X174903283Y-70493229D01*
X174903283Y-70493229D02*
X174998521Y-70397991D01*
X174998521Y-70397991D02*
X175141378Y-70350372D01*
X175141378Y-70350372D02*
X175236616Y-70350372D01*
X175236616Y-70350372D02*
X175379473Y-70397991D01*
X175379473Y-70397991D02*
X175427092Y-70445610D01*
X176379473Y-71350372D02*
X175808045Y-71350372D01*
X176093759Y-71350372D02*
X176093759Y-70350372D01*
X176093759Y-70350372D02*
X175998521Y-70493229D01*
X175998521Y-70493229D02*
X175903283Y-70588467D01*
X175903283Y-70588467D02*
X175808045Y-70636086D01*
X177236616Y-70350372D02*
X177046140Y-70350372D01*
X177046140Y-70350372D02*
X176950902Y-70397991D01*
X176950902Y-70397991D02*
X176903283Y-70445610D01*
X176903283Y-70445610D02*
X176808045Y-70588467D01*
X176808045Y-70588467D02*
X176760426Y-70778943D01*
X176760426Y-70778943D02*
X176760426Y-71159895D01*
X176760426Y-71159895D02*
X176808045Y-71255133D01*
X176808045Y-71255133D02*
X176855664Y-71302753D01*
X176855664Y-71302753D02*
X176950902Y-71350372D01*
X176950902Y-71350372D02*
X177141378Y-71350372D01*
X177141378Y-71350372D02*
X177236616Y-71302753D01*
X177236616Y-71302753D02*
X177284235Y-71255133D01*
X177284235Y-71255133D02*
X177331854Y-71159895D01*
X177331854Y-71159895D02*
X177331854Y-70921800D01*
X177331854Y-70921800D02*
X177284235Y-70826562D01*
X177284235Y-70826562D02*
X177236616Y-70778943D01*
X177236616Y-70778943D02*
X177141378Y-70731324D01*
X177141378Y-70731324D02*
X176950902Y-70731324D01*
X176950902Y-70731324D02*
X176855664Y-70778943D01*
X176855664Y-70778943D02*
X176808045Y-70826562D01*
X176808045Y-70826562D02*
X176760426Y-70921800D01*
X143188402Y-76390372D02*
X143188402Y-75390372D01*
X143188402Y-75390372D02*
X143426497Y-75390372D01*
X143426497Y-75390372D02*
X143569354Y-75437991D01*
X143569354Y-75437991D02*
X143664592Y-75533229D01*
X143664592Y-75533229D02*
X143712211Y-75628467D01*
X143712211Y-75628467D02*
X143759830Y-75818943D01*
X143759830Y-75818943D02*
X143759830Y-75961800D01*
X143759830Y-75961800D02*
X143712211Y-76152276D01*
X143712211Y-76152276D02*
X143664592Y-76247514D01*
X143664592Y-76247514D02*
X143569354Y-76342753D01*
X143569354Y-76342753D02*
X143426497Y-76390372D01*
X143426497Y-76390372D02*
X143188402Y-76390372D01*
X143950307Y-76485610D02*
X144712211Y-76485610D01*
X145474116Y-76390372D02*
X144902688Y-76390372D01*
X145188402Y-76390372D02*
X145188402Y-75390372D01*
X145188402Y-75390372D02*
X145093164Y-75533229D01*
X145093164Y-75533229D02*
X144997926Y-75628467D01*
X144997926Y-75628467D02*
X144902688Y-75676086D01*
X167422520Y-62457048D02*
X167797473Y-62457048D01*
X167347529Y-62682020D02*
X167609997Y-61894618D01*
X167609997Y-61894618D02*
X167872464Y-62682020D01*
X168547380Y-62682020D02*
X168097436Y-62682020D01*
X168322408Y-62682020D02*
X168322408Y-61894618D01*
X168322408Y-61894618D02*
X168247417Y-62007104D01*
X168247417Y-62007104D02*
X168172427Y-62082095D01*
X168172427Y-62082095D02*
X168097436Y-62119590D01*
X155412569Y-62880276D02*
X156631617Y-63337419D01*
X156631617Y-63337419D02*
X155412569Y-63794562D01*
X157164949Y-62346943D02*
X158079235Y-62346943D01*
X157622092Y-63946943D02*
X157622092Y-62346943D01*
X158612569Y-63108848D02*
X159145902Y-63108848D01*
X159374474Y-63946943D02*
X158612569Y-63946943D01*
X158612569Y-63946943D02*
X158612569Y-62346943D01*
X158612569Y-62346943D02*
X159374474Y-62346943D01*
X160060188Y-63108848D02*
X160593521Y-63108848D01*
X160822093Y-63946943D02*
X160060188Y-63946943D01*
X160060188Y-63946943D02*
X160060188Y-62346943D01*
X160060188Y-62346943D02*
X160822093Y-62346943D01*
X161507807Y-63946943D02*
X161507807Y-62346943D01*
X161507807Y-62346943D02*
X162422093Y-63946943D01*
X162422093Y-63946943D02*
X162422093Y-62346943D01*
X163107806Y-63870753D02*
X163336378Y-63946943D01*
X163336378Y-63946943D02*
X163717330Y-63946943D01*
X163717330Y-63946943D02*
X163869711Y-63870753D01*
X163869711Y-63870753D02*
X163945902Y-63794562D01*
X163945902Y-63794562D02*
X164022092Y-63642181D01*
X164022092Y-63642181D02*
X164022092Y-63489800D01*
X164022092Y-63489800D02*
X163945902Y-63337419D01*
X163945902Y-63337419D02*
X163869711Y-63261229D01*
X163869711Y-63261229D02*
X163717330Y-63185038D01*
X163717330Y-63185038D02*
X163412568Y-63108848D01*
X163412568Y-63108848D02*
X163260187Y-63032657D01*
X163260187Y-63032657D02*
X163183997Y-62956467D01*
X163183997Y-62956467D02*
X163107806Y-62804086D01*
X163107806Y-62804086D02*
X163107806Y-62651705D01*
X163107806Y-62651705D02*
X163183997Y-62499324D01*
X163183997Y-62499324D02*
X163260187Y-62423133D01*
X163260187Y-62423133D02*
X163412568Y-62346943D01*
X163412568Y-62346943D02*
X163793521Y-62346943D01*
X163793521Y-62346943D02*
X164022092Y-62423133D01*
X165012569Y-63185038D02*
X165012569Y-63946943D01*
X164479235Y-62346943D02*
X165012569Y-63185038D01*
X165012569Y-63185038D02*
X165545902Y-62346943D01*
X176204819Y-115892856D02*
X176204819Y-115273809D01*
X176204819Y-115273809D02*
X176585771Y-115607142D01*
X176585771Y-115607142D02*
X176585771Y-115464285D01*
X176585771Y-115464285D02*
X176633390Y-115369047D01*
X176633390Y-115369047D02*
X176681009Y-115321428D01*
X176681009Y-115321428D02*
X176776247Y-115273809D01*
X176776247Y-115273809D02*
X177014342Y-115273809D01*
X177014342Y-115273809D02*
X177109580Y-115321428D01*
X177109580Y-115321428D02*
X177157200Y-115369047D01*
X177157200Y-115369047D02*
X177204819Y-115464285D01*
X177204819Y-115464285D02*
X177204819Y-115749999D01*
X177204819Y-115749999D02*
X177157200Y-115845237D01*
X177157200Y-115845237D02*
X177109580Y-115892856D01*
X176204819Y-114940475D02*
X176204819Y-114321428D01*
X176204819Y-114321428D02*
X176585771Y-114654761D01*
X176585771Y-114654761D02*
X176585771Y-114511904D01*
X176585771Y-114511904D02*
X176633390Y-114416666D01*
X176633390Y-114416666D02*
X176681009Y-114369047D01*
X176681009Y-114369047D02*
X176776247Y-114321428D01*
X176776247Y-114321428D02*
X177014342Y-114321428D01*
X177014342Y-114321428D02*
X177109580Y-114369047D01*
X177109580Y-114369047D02*
X177157200Y-114416666D01*
X177157200Y-114416666D02*
X177204819Y-114511904D01*
X177204819Y-114511904D02*
X177204819Y-114797618D01*
X177204819Y-114797618D02*
X177157200Y-114892856D01*
X177157200Y-114892856D02*
X177109580Y-114940475D01*
X176633390Y-113749999D02*
X176585771Y-113845237D01*
X176585771Y-113845237D02*
X176538152Y-113892856D01*
X176538152Y-113892856D02*
X176442914Y-113940475D01*
X176442914Y-113940475D02*
X176395295Y-113940475D01*
X176395295Y-113940475D02*
X176300057Y-113892856D01*
X176300057Y-113892856D02*
X176252438Y-113845237D01*
X176252438Y-113845237D02*
X176204819Y-113749999D01*
X176204819Y-113749999D02*
X176204819Y-113559523D01*
X176204819Y-113559523D02*
X176252438Y-113464285D01*
X176252438Y-113464285D02*
X176300057Y-113416666D01*
X176300057Y-113416666D02*
X176395295Y-113369047D01*
X176395295Y-113369047D02*
X176442914Y-113369047D01*
X176442914Y-113369047D02*
X176538152Y-113416666D01*
X176538152Y-113416666D02*
X176585771Y-113464285D01*
X176585771Y-113464285D02*
X176633390Y-113559523D01*
X176633390Y-113559523D02*
X176633390Y-113749999D01*
X176633390Y-113749999D02*
X176681009Y-113845237D01*
X176681009Y-113845237D02*
X176728628Y-113892856D01*
X176728628Y-113892856D02*
X176823866Y-113940475D01*
X176823866Y-113940475D02*
X177014342Y-113940475D01*
X177014342Y-113940475D02*
X177109580Y-113892856D01*
X177109580Y-113892856D02*
X177157200Y-113845237D01*
X177157200Y-113845237D02*
X177204819Y-113749999D01*
X177204819Y-113749999D02*
X177204819Y-113559523D01*
X177204819Y-113559523D02*
X177157200Y-113464285D01*
X177157200Y-113464285D02*
X177109580Y-113416666D01*
X177109580Y-113416666D02*
X177014342Y-113369047D01*
X177014342Y-113369047D02*
X176823866Y-113369047D01*
X176823866Y-113369047D02*
X176728628Y-113416666D01*
X176728628Y-113416666D02*
X176681009Y-113464285D01*
X176681009Y-113464285D02*
X176633390Y-113559523D01*
X176204819Y-112511904D02*
X176204819Y-112702380D01*
X176204819Y-112702380D02*
X176252438Y-112797618D01*
X176252438Y-112797618D02*
X176300057Y-112845237D01*
X176300057Y-112845237D02*
X176442914Y-112940475D01*
X176442914Y-112940475D02*
X176633390Y-112988094D01*
X176633390Y-112988094D02*
X177014342Y-112988094D01*
X177014342Y-112988094D02*
X177109580Y-112940475D01*
X177109580Y-112940475D02*
X177157200Y-112892856D01*
X177157200Y-112892856D02*
X177204819Y-112797618D01*
X177204819Y-112797618D02*
X177204819Y-112607142D01*
X177204819Y-112607142D02*
X177157200Y-112511904D01*
X177157200Y-112511904D02*
X177109580Y-112464285D01*
X177109580Y-112464285D02*
X177014342Y-112416666D01*
X177014342Y-112416666D02*
X176776247Y-112416666D01*
X176776247Y-112416666D02*
X176681009Y-112464285D01*
X176681009Y-112464285D02*
X176633390Y-112511904D01*
X176633390Y-112511904D02*
X176585771Y-112607142D01*
X176585771Y-112607142D02*
X176585771Y-112797618D01*
X176585771Y-112797618D02*
X176633390Y-112892856D01*
X176633390Y-112892856D02*
X176681009Y-112940475D01*
X176681009Y-112940475D02*
X176776247Y-112988094D01*
X176681009Y-111654761D02*
X176681009Y-111988094D01*
X177204819Y-111988094D02*
X176204819Y-111988094D01*
X176204819Y-111988094D02*
X176204819Y-111511904D01*
X176823866Y-111130951D02*
X176823866Y-110369047D01*
X177204819Y-109369047D02*
X177204819Y-109940475D01*
X177204819Y-109654761D02*
X176204819Y-109654761D01*
X176204819Y-109654761D02*
X176347676Y-109749999D01*
X176347676Y-109749999D02*
X176442914Y-109845237D01*
X176442914Y-109845237D02*
X176490533Y-109940475D01*
X176823866Y-108940475D02*
X176823866Y-108178571D01*
X176300057Y-107749999D02*
X176252438Y-107702380D01*
X176252438Y-107702380D02*
X176204819Y-107607142D01*
X176204819Y-107607142D02*
X176204819Y-107369047D01*
X176204819Y-107369047D02*
X176252438Y-107273809D01*
X176252438Y-107273809D02*
X176300057Y-107226190D01*
X176300057Y-107226190D02*
X176395295Y-107178571D01*
X176395295Y-107178571D02*
X176490533Y-107178571D01*
X176490533Y-107178571D02*
X176633390Y-107226190D01*
X176633390Y-107226190D02*
X177204819Y-107797618D01*
X177204819Y-107797618D02*
X177204819Y-107178571D01*
X176204819Y-106559523D02*
X176204819Y-106464285D01*
X176204819Y-106464285D02*
X176252438Y-106369047D01*
X176252438Y-106369047D02*
X176300057Y-106321428D01*
X176300057Y-106321428D02*
X176395295Y-106273809D01*
X176395295Y-106273809D02*
X176585771Y-106226190D01*
X176585771Y-106226190D02*
X176823866Y-106226190D01*
X176823866Y-106226190D02*
X177014342Y-106273809D01*
X177014342Y-106273809D02*
X177109580Y-106321428D01*
X177109580Y-106321428D02*
X177157200Y-106369047D01*
X177157200Y-106369047D02*
X177204819Y-106464285D01*
X177204819Y-106464285D02*
X177204819Y-106559523D01*
X177204819Y-106559523D02*
X177157200Y-106654761D01*
X177157200Y-106654761D02*
X177109580Y-106702380D01*
X177109580Y-106702380D02*
X177014342Y-106749999D01*
X177014342Y-106749999D02*
X176823866Y-106797618D01*
X176823866Y-106797618D02*
X176585771Y-106797618D01*
X176585771Y-106797618D02*
X176395295Y-106749999D01*
X176395295Y-106749999D02*
X176300057Y-106702380D01*
X176300057Y-106702380D02*
X176252438Y-106654761D01*
X176252438Y-106654761D02*
X176204819Y-106559523D01*
X177204819Y-105273809D02*
X177204819Y-105845237D01*
X177204819Y-105559523D02*
X176204819Y-105559523D01*
X176204819Y-105559523D02*
X176347676Y-105654761D01*
X176347676Y-105654761D02*
X176442914Y-105749999D01*
X176442914Y-105749999D02*
X176490533Y-105845237D01*
X177204819Y-104369047D02*
X177204819Y-104845237D01*
X177204819Y-104845237D02*
X176204819Y-104845237D01*
X176681009Y-103702380D02*
X176681009Y-104035713D01*
X177204819Y-104035713D02*
X176204819Y-104035713D01*
X176204819Y-104035713D02*
X176204819Y-103559523D01*
X177204819Y-102654761D02*
X177204819Y-103226189D01*
X177204819Y-102940475D02*
X176204819Y-102940475D01*
X176204819Y-102940475D02*
X176347676Y-103035713D01*
X176347676Y-103035713D02*
X176442914Y-103130951D01*
X176442914Y-103130951D02*
X176490533Y-103226189D01*
X123954819Y-116991666D02*
X123478628Y-117324999D01*
X123954819Y-117563094D02*
X122954819Y-117563094D01*
X122954819Y-117563094D02*
X122954819Y-117182142D01*
X122954819Y-117182142D02*
X123002438Y-117086904D01*
X123002438Y-117086904D02*
X123050057Y-117039285D01*
X123050057Y-117039285D02*
X123145295Y-116991666D01*
X123145295Y-116991666D02*
X123288152Y-116991666D01*
X123288152Y-116991666D02*
X123383390Y-117039285D01*
X123383390Y-117039285D02*
X123431009Y-117086904D01*
X123431009Y-117086904D02*
X123478628Y-117182142D01*
X123478628Y-117182142D02*
X123478628Y-117563094D01*
X122954819Y-116086904D02*
X122954819Y-116563094D01*
X122954819Y-116563094D02*
X123431009Y-116610713D01*
X123431009Y-116610713D02*
X123383390Y-116563094D01*
X123383390Y-116563094D02*
X123335771Y-116467856D01*
X123335771Y-116467856D02*
X123335771Y-116229761D01*
X123335771Y-116229761D02*
X123383390Y-116134523D01*
X123383390Y-116134523D02*
X123431009Y-116086904D01*
X123431009Y-116086904D02*
X123526247Y-116039285D01*
X123526247Y-116039285D02*
X123764342Y-116039285D01*
X123764342Y-116039285D02*
X123859580Y-116086904D01*
X123859580Y-116086904D02*
X123907200Y-116134523D01*
X123907200Y-116134523D02*
X123954819Y-116229761D01*
X123954819Y-116229761D02*
X123954819Y-116467856D01*
X123954819Y-116467856D02*
X123907200Y-116563094D01*
X123907200Y-116563094D02*
X123859580Y-116610713D01*
X145749769Y-112698886D02*
X146464054Y-112698886D01*
X146464054Y-112698886D02*
X146606911Y-112746505D01*
X146606911Y-112746505D02*
X146702150Y-112841743D01*
X146702150Y-112841743D02*
X146749769Y-112984600D01*
X146749769Y-112984600D02*
X146749769Y-113079838D01*
X145749769Y-111794124D02*
X145749769Y-111984600D01*
X145749769Y-111984600D02*
X145797388Y-112079838D01*
X145797388Y-112079838D02*
X145845007Y-112127457D01*
X145845007Y-112127457D02*
X145987864Y-112222695D01*
X145987864Y-112222695D02*
X146178340Y-112270314D01*
X146178340Y-112270314D02*
X146559292Y-112270314D01*
X146559292Y-112270314D02*
X146654530Y-112222695D01*
X146654530Y-112222695D02*
X146702150Y-112175076D01*
X146702150Y-112175076D02*
X146749769Y-112079838D01*
X146749769Y-112079838D02*
X146749769Y-111889362D01*
X146749769Y-111889362D02*
X146702150Y-111794124D01*
X146702150Y-111794124D02*
X146654530Y-111746505D01*
X146654530Y-111746505D02*
X146559292Y-111698886D01*
X146559292Y-111698886D02*
X146321197Y-111698886D01*
X146321197Y-111698886D02*
X146225959Y-111746505D01*
X146225959Y-111746505D02*
X146178340Y-111794124D01*
X146178340Y-111794124D02*
X146130721Y-111889362D01*
X146130721Y-111889362D02*
X146130721Y-112079838D01*
X146130721Y-112079838D02*
X146178340Y-112175076D01*
X146178340Y-112175076D02*
X146225959Y-112222695D01*
X146225959Y-112222695D02*
X146321197Y-112270314D01*
X130838402Y-121390372D02*
X130838402Y-120390372D01*
X130838402Y-120390372D02*
X131076497Y-120390372D01*
X131076497Y-120390372D02*
X131219354Y-120437991D01*
X131219354Y-120437991D02*
X131314592Y-120533229D01*
X131314592Y-120533229D02*
X131362211Y-120628467D01*
X131362211Y-120628467D02*
X131409830Y-120818943D01*
X131409830Y-120818943D02*
X131409830Y-120961800D01*
X131409830Y-120961800D02*
X131362211Y-121152276D01*
X131362211Y-121152276D02*
X131314592Y-121247514D01*
X131314592Y-121247514D02*
X131219354Y-121342753D01*
X131219354Y-121342753D02*
X131076497Y-121390372D01*
X131076497Y-121390372D02*
X130838402Y-121390372D01*
X131600307Y-121485610D02*
X132362211Y-121485610D01*
X133028878Y-120390372D02*
X132838402Y-120390372D01*
X132838402Y-120390372D02*
X132743164Y-120437991D01*
X132743164Y-120437991D02*
X132695545Y-120485610D01*
X132695545Y-120485610D02*
X132600307Y-120628467D01*
X132600307Y-120628467D02*
X132552688Y-120818943D01*
X132552688Y-120818943D02*
X132552688Y-121199895D01*
X132552688Y-121199895D02*
X132600307Y-121295133D01*
X132600307Y-121295133D02*
X132647926Y-121342753D01*
X132647926Y-121342753D02*
X132743164Y-121390372D01*
X132743164Y-121390372D02*
X132933640Y-121390372D01*
X132933640Y-121390372D02*
X133028878Y-121342753D01*
X133028878Y-121342753D02*
X133076497Y-121295133D01*
X133076497Y-121295133D02*
X133124116Y-121199895D01*
X133124116Y-121199895D02*
X133124116Y-120961800D01*
X133124116Y-120961800D02*
X133076497Y-120866562D01*
X133076497Y-120866562D02*
X133028878Y-120818943D01*
X133028878Y-120818943D02*
X132933640Y-120771324D01*
X132933640Y-120771324D02*
X132743164Y-120771324D01*
X132743164Y-120771324D02*
X132647926Y-120818943D01*
X132647926Y-120818943D02*
X132600307Y-120866562D01*
X132600307Y-120866562D02*
X132552688Y-120961800D01*
X130688402Y-98890372D02*
X130688402Y-97890372D01*
X130688402Y-97890372D02*
X130926497Y-97890372D01*
X130926497Y-97890372D02*
X131069354Y-97937991D01*
X131069354Y-97937991D02*
X131164592Y-98033229D01*
X131164592Y-98033229D02*
X131212211Y-98128467D01*
X131212211Y-98128467D02*
X131259830Y-98318943D01*
X131259830Y-98318943D02*
X131259830Y-98461800D01*
X131259830Y-98461800D02*
X131212211Y-98652276D01*
X131212211Y-98652276D02*
X131164592Y-98747514D01*
X131164592Y-98747514D02*
X131069354Y-98842753D01*
X131069354Y-98842753D02*
X130926497Y-98890372D01*
X130926497Y-98890372D02*
X130688402Y-98890372D01*
X131450307Y-98985610D02*
X132212211Y-98985610D01*
X132926497Y-97890372D02*
X132450307Y-97890372D01*
X132450307Y-97890372D02*
X132402688Y-98366562D01*
X132402688Y-98366562D02*
X132450307Y-98318943D01*
X132450307Y-98318943D02*
X132545545Y-98271324D01*
X132545545Y-98271324D02*
X132783640Y-98271324D01*
X132783640Y-98271324D02*
X132878878Y-98318943D01*
X132878878Y-98318943D02*
X132926497Y-98366562D01*
X132926497Y-98366562D02*
X132974116Y-98461800D01*
X132974116Y-98461800D02*
X132974116Y-98699895D01*
X132974116Y-98699895D02*
X132926497Y-98795133D01*
X132926497Y-98795133D02*
X132878878Y-98842753D01*
X132878878Y-98842753D02*
X132783640Y-98890372D01*
X132783640Y-98890372D02*
X132545545Y-98890372D01*
X132545545Y-98890372D02*
X132450307Y-98842753D01*
X132450307Y-98842753D02*
X132402688Y-98795133D01*
X173739769Y-75522219D02*
X173263578Y-75855552D01*
X173739769Y-76093647D02*
X172739769Y-76093647D01*
X172739769Y-76093647D02*
X172739769Y-75712695D01*
X172739769Y-75712695D02*
X172787388Y-75617457D01*
X172787388Y-75617457D02*
X172835007Y-75569838D01*
X172835007Y-75569838D02*
X172930245Y-75522219D01*
X172930245Y-75522219D02*
X173073102Y-75522219D01*
X173073102Y-75522219D02*
X173168340Y-75569838D01*
X173168340Y-75569838D02*
X173215959Y-75617457D01*
X173215959Y-75617457D02*
X173263578Y-75712695D01*
X173263578Y-75712695D02*
X173263578Y-76093647D01*
X172739769Y-75188885D02*
X172739769Y-74569838D01*
X172739769Y-74569838D02*
X173120721Y-74903171D01*
X173120721Y-74903171D02*
X173120721Y-74760314D01*
X173120721Y-74760314D02*
X173168340Y-74665076D01*
X173168340Y-74665076D02*
X173215959Y-74617457D01*
X173215959Y-74617457D02*
X173311197Y-74569838D01*
X173311197Y-74569838D02*
X173549292Y-74569838D01*
X173549292Y-74569838D02*
X173644530Y-74617457D01*
X173644530Y-74617457D02*
X173692150Y-74665076D01*
X173692150Y-74665076D02*
X173739769Y-74760314D01*
X173739769Y-74760314D02*
X173739769Y-75046028D01*
X173739769Y-75046028D02*
X173692150Y-75141266D01*
X173692150Y-75141266D02*
X173644530Y-75188885D01*
X176982092Y-78865133D02*
X176934473Y-78912753D01*
X176934473Y-78912753D02*
X176791616Y-78960372D01*
X176791616Y-78960372D02*
X176696378Y-78960372D01*
X176696378Y-78960372D02*
X176553521Y-78912753D01*
X176553521Y-78912753D02*
X176458283Y-78817514D01*
X176458283Y-78817514D02*
X176410664Y-78722276D01*
X176410664Y-78722276D02*
X176363045Y-78531800D01*
X176363045Y-78531800D02*
X176363045Y-78388943D01*
X176363045Y-78388943D02*
X176410664Y-78198467D01*
X176410664Y-78198467D02*
X176458283Y-78103229D01*
X176458283Y-78103229D02*
X176553521Y-78007991D01*
X176553521Y-78007991D02*
X176696378Y-77960372D01*
X176696378Y-77960372D02*
X176791616Y-77960372D01*
X176791616Y-77960372D02*
X176934473Y-78007991D01*
X176934473Y-78007991D02*
X176982092Y-78055610D01*
X177934473Y-78960372D02*
X177363045Y-78960372D01*
X177648759Y-78960372D02*
X177648759Y-77960372D01*
X177648759Y-77960372D02*
X177553521Y-78103229D01*
X177553521Y-78103229D02*
X177458283Y-78198467D01*
X177458283Y-78198467D02*
X177363045Y-78246086D01*
X178505902Y-78388943D02*
X178410664Y-78341324D01*
X178410664Y-78341324D02*
X178363045Y-78293705D01*
X178363045Y-78293705D02*
X178315426Y-78198467D01*
X178315426Y-78198467D02*
X178315426Y-78150848D01*
X178315426Y-78150848D02*
X178363045Y-78055610D01*
X178363045Y-78055610D02*
X178410664Y-78007991D01*
X178410664Y-78007991D02*
X178505902Y-77960372D01*
X178505902Y-77960372D02*
X178696378Y-77960372D01*
X178696378Y-77960372D02*
X178791616Y-78007991D01*
X178791616Y-78007991D02*
X178839235Y-78055610D01*
X178839235Y-78055610D02*
X178886854Y-78150848D01*
X178886854Y-78150848D02*
X178886854Y-78198467D01*
X178886854Y-78198467D02*
X178839235Y-78293705D01*
X178839235Y-78293705D02*
X178791616Y-78341324D01*
X178791616Y-78341324D02*
X178696378Y-78388943D01*
X178696378Y-78388943D02*
X178505902Y-78388943D01*
X178505902Y-78388943D02*
X178410664Y-78436562D01*
X178410664Y-78436562D02*
X178363045Y-78484181D01*
X178363045Y-78484181D02*
X178315426Y-78579419D01*
X178315426Y-78579419D02*
X178315426Y-78769895D01*
X178315426Y-78769895D02*
X178363045Y-78865133D01*
X178363045Y-78865133D02*
X178410664Y-78912753D01*
X178410664Y-78912753D02*
X178505902Y-78960372D01*
X178505902Y-78960372D02*
X178696378Y-78960372D01*
X178696378Y-78960372D02*
X178791616Y-78912753D01*
X178791616Y-78912753D02*
X178839235Y-78865133D01*
X178839235Y-78865133D02*
X178886854Y-78769895D01*
X178886854Y-78769895D02*
X178886854Y-78579419D01*
X178886854Y-78579419D02*
X178839235Y-78484181D01*
X178839235Y-78484181D02*
X178791616Y-78436562D01*
X178791616Y-78436562D02*
X178696378Y-78388943D01*
X127877092Y-79250372D02*
X127543759Y-78774181D01*
X127305664Y-79250372D02*
X127305664Y-78250372D01*
X127305664Y-78250372D02*
X127686616Y-78250372D01*
X127686616Y-78250372D02*
X127781854Y-78297991D01*
X127781854Y-78297991D02*
X127829473Y-78345610D01*
X127829473Y-78345610D02*
X127877092Y-78440848D01*
X127877092Y-78440848D02*
X127877092Y-78583705D01*
X127877092Y-78583705D02*
X127829473Y-78678943D01*
X127829473Y-78678943D02*
X127781854Y-78726562D01*
X127781854Y-78726562D02*
X127686616Y-78774181D01*
X127686616Y-78774181D02*
X127305664Y-78774181D01*
X128829473Y-79250372D02*
X128258045Y-79250372D01*
X128543759Y-79250372D02*
X128543759Y-78250372D01*
X128543759Y-78250372D02*
X128448521Y-78393229D01*
X128448521Y-78393229D02*
X128353283Y-78488467D01*
X128353283Y-78488467D02*
X128258045Y-78536086D01*
X129448521Y-78250372D02*
X129543759Y-78250372D01*
X129543759Y-78250372D02*
X129638997Y-78297991D01*
X129638997Y-78297991D02*
X129686616Y-78345610D01*
X129686616Y-78345610D02*
X129734235Y-78440848D01*
X129734235Y-78440848D02*
X129781854Y-78631324D01*
X129781854Y-78631324D02*
X129781854Y-78869419D01*
X129781854Y-78869419D02*
X129734235Y-79059895D01*
X129734235Y-79059895D02*
X129686616Y-79155133D01*
X129686616Y-79155133D02*
X129638997Y-79202753D01*
X129638997Y-79202753D02*
X129543759Y-79250372D01*
X129543759Y-79250372D02*
X129448521Y-79250372D01*
X129448521Y-79250372D02*
X129353283Y-79202753D01*
X129353283Y-79202753D02*
X129305664Y-79155133D01*
X129305664Y-79155133D02*
X129258045Y-79059895D01*
X129258045Y-79059895D02*
X129210426Y-78869419D01*
X129210426Y-78869419D02*
X129210426Y-78631324D01*
X129210426Y-78631324D02*
X129258045Y-78440848D01*
X129258045Y-78440848D02*
X129305664Y-78345610D01*
X129305664Y-78345610D02*
X129353283Y-78297991D01*
X129353283Y-78297991D02*
X129448521Y-78250372D01*
X124204819Y-120967857D02*
X123728628Y-121301190D01*
X124204819Y-121539285D02*
X123204819Y-121539285D01*
X123204819Y-121539285D02*
X123204819Y-121158333D01*
X123204819Y-121158333D02*
X123252438Y-121063095D01*
X123252438Y-121063095D02*
X123300057Y-121015476D01*
X123300057Y-121015476D02*
X123395295Y-120967857D01*
X123395295Y-120967857D02*
X123538152Y-120967857D01*
X123538152Y-120967857D02*
X123633390Y-121015476D01*
X123633390Y-121015476D02*
X123681009Y-121063095D01*
X123681009Y-121063095D02*
X123728628Y-121158333D01*
X123728628Y-121158333D02*
X123728628Y-121539285D01*
X124204819Y-120015476D02*
X124204819Y-120586904D01*
X124204819Y-120301190D02*
X123204819Y-120301190D01*
X123204819Y-120301190D02*
X123347676Y-120396428D01*
X123347676Y-120396428D02*
X123442914Y-120491666D01*
X123442914Y-120491666D02*
X123490533Y-120586904D01*
X123538152Y-119158333D02*
X124204819Y-119158333D01*
X123157200Y-119396428D02*
X123871485Y-119634523D01*
X123871485Y-119634523D02*
X123871485Y-119015476D01*
X124454819Y-113967857D02*
X123978628Y-114301190D01*
X124454819Y-114539285D02*
X123454819Y-114539285D01*
X123454819Y-114539285D02*
X123454819Y-114158333D01*
X123454819Y-114158333D02*
X123502438Y-114063095D01*
X123502438Y-114063095D02*
X123550057Y-114015476D01*
X123550057Y-114015476D02*
X123645295Y-113967857D01*
X123645295Y-113967857D02*
X123788152Y-113967857D01*
X123788152Y-113967857D02*
X123883390Y-114015476D01*
X123883390Y-114015476D02*
X123931009Y-114063095D01*
X123931009Y-114063095D02*
X123978628Y-114158333D01*
X123978628Y-114158333D02*
X123978628Y-114539285D01*
X124454819Y-113015476D02*
X124454819Y-113586904D01*
X124454819Y-113301190D02*
X123454819Y-113301190D01*
X123454819Y-113301190D02*
X123597676Y-113396428D01*
X123597676Y-113396428D02*
X123692914Y-113491666D01*
X123692914Y-113491666D02*
X123740533Y-113586904D01*
X123454819Y-112682142D02*
X123454819Y-112063095D01*
X123454819Y-112063095D02*
X123835771Y-112396428D01*
X123835771Y-112396428D02*
X123835771Y-112253571D01*
X123835771Y-112253571D02*
X123883390Y-112158333D01*
X123883390Y-112158333D02*
X123931009Y-112110714D01*
X123931009Y-112110714D02*
X124026247Y-112063095D01*
X124026247Y-112063095D02*
X124264342Y-112063095D01*
X124264342Y-112063095D02*
X124359580Y-112110714D01*
X124359580Y-112110714D02*
X124407200Y-112158333D01*
X124407200Y-112158333D02*
X124454819Y-112253571D01*
X124454819Y-112253571D02*
X124454819Y-112539285D01*
X124454819Y-112539285D02*
X124407200Y-112634523D01*
X124407200Y-112634523D02*
X124359580Y-112682142D01*
X176247092Y-89695133D02*
X176199473Y-89742753D01*
X176199473Y-89742753D02*
X176056616Y-89790372D01*
X176056616Y-89790372D02*
X175961378Y-89790372D01*
X175961378Y-89790372D02*
X175818521Y-89742753D01*
X175818521Y-89742753D02*
X175723283Y-89647514D01*
X175723283Y-89647514D02*
X175675664Y-89552276D01*
X175675664Y-89552276D02*
X175628045Y-89361800D01*
X175628045Y-89361800D02*
X175628045Y-89218943D01*
X175628045Y-89218943D02*
X175675664Y-89028467D01*
X175675664Y-89028467D02*
X175723283Y-88933229D01*
X175723283Y-88933229D02*
X175818521Y-88837991D01*
X175818521Y-88837991D02*
X175961378Y-88790372D01*
X175961378Y-88790372D02*
X176056616Y-88790372D01*
X176056616Y-88790372D02*
X176199473Y-88837991D01*
X176199473Y-88837991D02*
X176247092Y-88885610D01*
X176628045Y-88885610D02*
X176675664Y-88837991D01*
X176675664Y-88837991D02*
X176770902Y-88790372D01*
X176770902Y-88790372D02*
X177008997Y-88790372D01*
X177008997Y-88790372D02*
X177104235Y-88837991D01*
X177104235Y-88837991D02*
X177151854Y-88885610D01*
X177151854Y-88885610D02*
X177199473Y-88980848D01*
X177199473Y-88980848D02*
X177199473Y-89076086D01*
X177199473Y-89076086D02*
X177151854Y-89218943D01*
X177151854Y-89218943D02*
X176580426Y-89790372D01*
X176580426Y-89790372D02*
X177199473Y-89790372D01*
X177818521Y-88790372D02*
X177913759Y-88790372D01*
X177913759Y-88790372D02*
X178008997Y-88837991D01*
X178008997Y-88837991D02*
X178056616Y-88885610D01*
X178056616Y-88885610D02*
X178104235Y-88980848D01*
X178104235Y-88980848D02*
X178151854Y-89171324D01*
X178151854Y-89171324D02*
X178151854Y-89409419D01*
X178151854Y-89409419D02*
X178104235Y-89599895D01*
X178104235Y-89599895D02*
X178056616Y-89695133D01*
X178056616Y-89695133D02*
X178008997Y-89742753D01*
X178008997Y-89742753D02*
X177913759Y-89790372D01*
X177913759Y-89790372D02*
X177818521Y-89790372D01*
X177818521Y-89790372D02*
X177723283Y-89742753D01*
X177723283Y-89742753D02*
X177675664Y-89695133D01*
X177675664Y-89695133D02*
X177628045Y-89599895D01*
X177628045Y-89599895D02*
X177580426Y-89409419D01*
X177580426Y-89409419D02*
X177580426Y-89171324D01*
X177580426Y-89171324D02*
X177628045Y-88980848D01*
X177628045Y-88980848D02*
X177675664Y-88885610D01*
X177675664Y-88885610D02*
X177723283Y-88837991D01*
X177723283Y-88837991D02*
X177818521Y-88790372D01*
X127877092Y-101750372D02*
X127543759Y-101274181D01*
X127305664Y-101750372D02*
X127305664Y-100750372D01*
X127305664Y-100750372D02*
X127686616Y-100750372D01*
X127686616Y-100750372D02*
X127781854Y-100797991D01*
X127781854Y-100797991D02*
X127829473Y-100845610D01*
X127829473Y-100845610D02*
X127877092Y-100940848D01*
X127877092Y-100940848D02*
X127877092Y-101083705D01*
X127877092Y-101083705D02*
X127829473Y-101178943D01*
X127829473Y-101178943D02*
X127781854Y-101226562D01*
X127781854Y-101226562D02*
X127686616Y-101274181D01*
X127686616Y-101274181D02*
X127305664Y-101274181D01*
X128829473Y-101750372D02*
X128258045Y-101750372D01*
X128543759Y-101750372D02*
X128543759Y-100750372D01*
X128543759Y-100750372D02*
X128448521Y-100893229D01*
X128448521Y-100893229D02*
X128353283Y-100988467D01*
X128353283Y-100988467D02*
X128258045Y-101036086D01*
X129781854Y-101750372D02*
X129210426Y-101750372D01*
X129496140Y-101750372D02*
X129496140Y-100750372D01*
X129496140Y-100750372D02*
X129400902Y-100893229D01*
X129400902Y-100893229D02*
X129305664Y-100988467D01*
X129305664Y-100988467D02*
X129210426Y-101036086D01*
D12*
%TO.C,J5*%
X139234950Y-82305553D02*
X139234950Y-97425553D01*
X139234950Y-97425553D02*
X145204950Y-97425553D01*
X139994950Y-83065553D02*
X139994950Y-89865553D01*
X139994950Y-96665553D02*
X139994950Y-89865553D01*
X142944950Y-82315553D02*
X142944950Y-83065553D01*
X142944950Y-83065553D02*
X139994950Y-83065553D01*
X142944950Y-96665553D02*
X139994950Y-96665553D01*
X142944950Y-97415553D02*
X142944950Y-96665553D01*
X144444950Y-82315553D02*
X144444950Y-84115553D01*
X144444950Y-84115553D02*
X145194950Y-84115553D01*
X144444950Y-85615553D02*
X144444950Y-94115553D01*
X144444950Y-94115553D02*
X145194950Y-94115553D01*
X144444950Y-95615553D02*
X144444950Y-97415553D01*
X144444950Y-97415553D02*
X145194950Y-97415553D01*
X145194950Y-82315553D02*
X144444950Y-82315553D01*
X145194950Y-84115553D02*
X145194950Y-82315553D01*
X145194950Y-85615553D02*
X144444950Y-85615553D01*
X145194950Y-94115553D02*
X145194950Y-85615553D01*
X145194950Y-95615553D02*
X144444950Y-95615553D01*
X145194950Y-97415553D02*
X145194950Y-95615553D01*
X145204950Y-82305553D02*
X139234950Y-82305553D01*
X145204950Y-97425553D02*
X145204950Y-82305553D01*
X145494950Y-82015553D02*
X144244950Y-82015553D01*
X145494950Y-83265553D02*
X145494950Y-82015553D01*
%TO.C,C17*%
X177559370Y-74845553D02*
X177840530Y-74845553D01*
X177559370Y-75865553D02*
X177840530Y-75865553D01*
%TO.C,C19*%
X176749370Y-85725553D02*
X177030530Y-85725553D01*
X176749370Y-86745553D02*
X177030530Y-86745553D01*
%TO.C,R8*%
X141257208Y-99343053D02*
X140782692Y-99343053D01*
X141257208Y-100388053D02*
X140782692Y-100388053D01*
D13*
%TO.C,U5*%
X172738549Y-80275303D02*
X172738549Y-83628103D01*
X176091349Y-83628103D02*
X176091349Y-80275303D01*
D14*
G36*
X175605450Y-85342603D02*
G01*
X175224450Y-85342603D01*
X175224450Y-85088603D01*
X175605450Y-85088603D01*
X175605450Y-85342603D01*
G37*
D12*
%TO.C,R7*%
X141257208Y-76843053D02*
X140782692Y-76843053D01*
X141257208Y-77888053D02*
X140782692Y-77888053D01*
%TO.C,R12*%
X128907208Y-121843053D02*
X128432692Y-121843053D01*
X128907208Y-122888053D02*
X128432692Y-122888053D01*
%TO.C,R9*%
X141257208Y-121843053D02*
X140782692Y-121843053D01*
X141257208Y-122888053D02*
X140782692Y-122888053D01*
%TO.C,J_Power1*%
X175384950Y-62045553D02*
X175384950Y-62545553D01*
X175384950Y-62545553D02*
X175884950Y-62295553D01*
X175884950Y-62295553D02*
X175384950Y-62045553D01*
X176434950Y-61455553D02*
X176434950Y-60345553D01*
X176434950Y-64245553D02*
X176434950Y-63135553D01*
X179684950Y-61455553D02*
X179684950Y-60345553D01*
X179684950Y-64245553D02*
X179684950Y-63135553D01*
%TO.C,J8*%
X126884950Y-104805553D02*
X126884950Y-119925553D01*
X126884950Y-119925553D02*
X132854950Y-119925553D01*
X127644950Y-105565553D02*
X127644950Y-112365553D01*
X127644950Y-119165553D02*
X127644950Y-112365553D01*
X130594950Y-104815553D02*
X130594950Y-105565553D01*
X130594950Y-105565553D02*
X127644950Y-105565553D01*
X130594950Y-119165553D02*
X127644950Y-119165553D01*
X130594950Y-119915553D02*
X130594950Y-119165553D01*
X132094950Y-104815553D02*
X132094950Y-106615553D01*
X132094950Y-106615553D02*
X132844950Y-106615553D01*
X132094950Y-108115553D02*
X132094950Y-116615553D01*
X132094950Y-116615553D02*
X132844950Y-116615553D01*
X132094950Y-118115553D02*
X132094950Y-119915553D01*
X132094950Y-119915553D02*
X132844950Y-119915553D01*
X132844950Y-104815553D02*
X132094950Y-104815553D01*
X132844950Y-106615553D02*
X132844950Y-104815553D01*
X132844950Y-108115553D02*
X132094950Y-108115553D01*
X132844950Y-116615553D02*
X132844950Y-108115553D01*
X132844950Y-118115553D02*
X132094950Y-118115553D01*
X132844950Y-119915553D02*
X132844950Y-118115553D01*
X132854950Y-104805553D02*
X126884950Y-104805553D01*
X132854950Y-119925553D02*
X132854950Y-104805553D01*
X133144950Y-104515553D02*
X131894950Y-104515553D01*
X133144950Y-105765553D02*
X133144950Y-104515553D01*
%TO.C,D_4*%
X130322450Y-76630553D02*
X130322450Y-78100553D01*
X130322450Y-78100553D02*
X132607450Y-78100553D01*
X132607450Y-76630553D02*
X130322450Y-76630553D01*
%TO.C,J4*%
X126884950Y-59805553D02*
X126884950Y-74925553D01*
X126884950Y-74925553D02*
X132854950Y-74925553D01*
X127644950Y-60565553D02*
X127644950Y-67365553D01*
X127644950Y-74165553D02*
X127644950Y-67365553D01*
X130594950Y-59815553D02*
X130594950Y-60565553D01*
X130594950Y-60565553D02*
X127644950Y-60565553D01*
X130594950Y-74165553D02*
X127644950Y-74165553D01*
X130594950Y-74915553D02*
X130594950Y-74165553D01*
X132094950Y-59815553D02*
X132094950Y-61615553D01*
X132094950Y-61615553D02*
X132844950Y-61615553D01*
X132094950Y-63115553D02*
X132094950Y-71615553D01*
X132094950Y-71615553D02*
X132844950Y-71615553D01*
X132094950Y-73115553D02*
X132094950Y-74915553D01*
X132094950Y-74915553D02*
X132844950Y-74915553D01*
X132844950Y-59815553D02*
X132094950Y-59815553D01*
X132844950Y-61615553D02*
X132844950Y-59815553D01*
X132844950Y-63115553D02*
X132094950Y-63115553D01*
X132844950Y-71615553D02*
X132844950Y-63115553D01*
X132844950Y-73115553D02*
X132094950Y-73115553D01*
X132844950Y-74915553D02*
X132844950Y-73115553D01*
X132854950Y-59805553D02*
X126884950Y-59805553D01*
X132854950Y-74925553D02*
X132854950Y-59805553D01*
X133144950Y-59515553D02*
X131894950Y-59515553D01*
X133144950Y-60765553D02*
X133144950Y-59515553D01*
%TO.C,D_2*%
X142822450Y-99130553D02*
X142822450Y-100600553D01*
X142822450Y-100600553D02*
X145107450Y-100600553D01*
X145107450Y-99130553D02*
X142822450Y-99130553D01*
%TO.C,R4*%
X172992450Y-88223295D02*
X172992450Y-88697811D01*
X174037450Y-88223295D02*
X174037450Y-88697811D01*
%TO.C,J7*%
X126884950Y-82305553D02*
X126884950Y-97425553D01*
X126884950Y-97425553D02*
X132854950Y-97425553D01*
X127644950Y-83065553D02*
X127644950Y-89865553D01*
X127644950Y-96665553D02*
X127644950Y-89865553D01*
X130594950Y-82315553D02*
X130594950Y-83065553D01*
X130594950Y-83065553D02*
X127644950Y-83065553D01*
X130594950Y-96665553D02*
X127644950Y-96665553D01*
X130594950Y-97415553D02*
X130594950Y-96665553D01*
X132094950Y-82315553D02*
X132094950Y-84115553D01*
X132094950Y-84115553D02*
X132844950Y-84115553D01*
X132094950Y-85615553D02*
X132094950Y-94115553D01*
X132094950Y-94115553D02*
X132844950Y-94115553D01*
X132094950Y-95615553D02*
X132094950Y-97415553D01*
X132094950Y-97415553D02*
X132844950Y-97415553D01*
X132844950Y-82315553D02*
X132094950Y-82315553D01*
X132844950Y-84115553D02*
X132844950Y-82315553D01*
X132844950Y-85615553D02*
X132094950Y-85615553D01*
X132844950Y-94115553D02*
X132844950Y-85615553D01*
X132844950Y-95615553D02*
X132094950Y-95615553D01*
X132844950Y-97415553D02*
X132844950Y-95615553D01*
X132854950Y-82305553D02*
X126884950Y-82305553D01*
X132854950Y-97425553D02*
X132854950Y-82305553D01*
X133144950Y-82015553D02*
X131894950Y-82015553D01*
X133144950Y-83265553D02*
X133144950Y-82015553D01*
%TO.C,D_3*%
X142772450Y-121630553D02*
X142772450Y-123100553D01*
X142772450Y-123100553D02*
X145057450Y-123100553D01*
X145057450Y-121630553D02*
X142772450Y-121630553D01*
%TO.C,C16*%
X175929370Y-71815553D02*
X176210530Y-71815553D01*
X175929370Y-72835553D02*
X176210530Y-72835553D01*
%TO.C,D_1*%
X142822450Y-76630553D02*
X142822450Y-78100553D01*
X142822450Y-78100553D02*
X145107450Y-78100553D01*
X145107450Y-76630553D02*
X142822450Y-76630553D01*
D15*
%TO.C,A1*%
X151474950Y-61055553D02*
X154014950Y-61055553D01*
X151474950Y-122015553D02*
X151474950Y-61055553D01*
X151474950Y-122015553D02*
X154014950Y-122015553D01*
X154014950Y-61055553D02*
X156554950Y-61055553D01*
X154014950Y-106775553D02*
X154014950Y-61055553D01*
X154014950Y-109315553D02*
X154014950Y-106775553D01*
X154014950Y-109315553D02*
X159094950Y-109315553D01*
X154014950Y-122015553D02*
X154014950Y-109315553D01*
X156554950Y-60293553D02*
X164174950Y-60293553D01*
X156554950Y-61055553D02*
X156554950Y-60293553D01*
X156554950Y-61055553D02*
X156554950Y-66135553D01*
X156554950Y-66135553D02*
X164174950Y-66135553D01*
X159094950Y-106775553D02*
X154014950Y-106775553D01*
X159094950Y-109315553D02*
X159094950Y-106775553D01*
X164174950Y-60293553D02*
X164174950Y-61055553D01*
X164174950Y-61055553D02*
X166714950Y-61055553D01*
X164174950Y-66135553D02*
X164174950Y-61055553D01*
X166714950Y-61055553D02*
X166714950Y-122015553D01*
X166714950Y-122015553D02*
X154014950Y-122015553D01*
X169254950Y-61055553D02*
X166714950Y-61055553D01*
X169254950Y-61055553D02*
X169254950Y-122015553D01*
X169254950Y-122015553D02*
X166714950Y-122015553D01*
D12*
%TO.C,3386F-1-201LF1*%
X170030000Y-117085000D02*
X170030000Y-126835000D01*
X170030000Y-117085000D02*
X179780000Y-117085000D01*
X170030000Y-126835000D02*
X179780000Y-126835000D01*
X179780000Y-117085000D02*
X179780000Y-126835000D01*
%TO.C,R5*%
X124977500Y-116587742D02*
X124977500Y-117062258D01*
X126022500Y-116587742D02*
X126022500Y-117062258D01*
%TO.C,J6*%
X139234950Y-104805553D02*
X139234950Y-119925553D01*
X139234950Y-119925553D02*
X145204950Y-119925553D01*
X139994950Y-105565553D02*
X139994950Y-112365553D01*
X139994950Y-119165553D02*
X139994950Y-112365553D01*
X142944950Y-104815553D02*
X142944950Y-105565553D01*
X142944950Y-105565553D02*
X139994950Y-105565553D01*
X142944950Y-119165553D02*
X139994950Y-119165553D01*
X142944950Y-119915553D02*
X142944950Y-119165553D01*
X144444950Y-104815553D02*
X144444950Y-106615553D01*
X144444950Y-106615553D02*
X145194950Y-106615553D01*
X144444950Y-108115553D02*
X144444950Y-116615553D01*
X144444950Y-116615553D02*
X145194950Y-116615553D01*
X144444950Y-118115553D02*
X144444950Y-119915553D01*
X144444950Y-119915553D02*
X145194950Y-119915553D01*
X145194950Y-104815553D02*
X144444950Y-104815553D01*
X145194950Y-106615553D02*
X145194950Y-104815553D01*
X145194950Y-108115553D02*
X144444950Y-108115553D01*
X145194950Y-116615553D02*
X145194950Y-108115553D01*
X145194950Y-118115553D02*
X144444950Y-118115553D01*
X145194950Y-119915553D02*
X145194950Y-118115553D01*
X145204950Y-104805553D02*
X139234950Y-104805553D01*
X145204950Y-119925553D02*
X145204950Y-104805553D01*
X145494950Y-104515553D02*
X144244950Y-104515553D01*
X145494950Y-105765553D02*
X145494950Y-104515553D01*
%TO.C,D_6*%
X130472450Y-121630553D02*
X130472450Y-123100553D01*
X130472450Y-123100553D02*
X132757450Y-123100553D01*
X132757450Y-121630553D02*
X130472450Y-121630553D01*
%TO.C,D_5*%
X130322450Y-99130553D02*
X130322450Y-100600553D01*
X130322450Y-100600553D02*
X132607450Y-100600553D01*
X132607450Y-99130553D02*
X130322450Y-99130553D01*
%TO.C,R3*%
X174382450Y-75973295D02*
X174382450Y-76447811D01*
X175427450Y-75973295D02*
X175427450Y-76447811D01*
%TO.C,C18*%
X177559370Y-76495553D02*
X177840530Y-76495553D01*
X177559370Y-77515553D02*
X177840530Y-77515553D01*
%TO.C,J2*%
X139234950Y-59805553D02*
X139234950Y-74925553D01*
X139234950Y-74925553D02*
X145204950Y-74925553D01*
X139994950Y-60565553D02*
X139994950Y-67365553D01*
X139994950Y-74165553D02*
X139994950Y-67365553D01*
X142944950Y-59815553D02*
X142944950Y-60565553D01*
X142944950Y-60565553D02*
X139994950Y-60565553D01*
X142944950Y-74165553D02*
X139994950Y-74165553D01*
X142944950Y-74915553D02*
X142944950Y-74165553D01*
X144444950Y-59815553D02*
X144444950Y-61615553D01*
X144444950Y-61615553D02*
X145194950Y-61615553D01*
X144444950Y-63115553D02*
X144444950Y-71615553D01*
X144444950Y-71615553D02*
X145194950Y-71615553D01*
X144444950Y-73115553D02*
X144444950Y-74915553D01*
X144444950Y-74915553D02*
X145194950Y-74915553D01*
X145194950Y-59815553D02*
X144444950Y-59815553D01*
X145194950Y-61615553D02*
X145194950Y-59815553D01*
X145194950Y-63115553D02*
X144444950Y-63115553D01*
X145194950Y-71615553D02*
X145194950Y-63115553D01*
X145194950Y-73115553D02*
X144444950Y-73115553D01*
X145194950Y-74915553D02*
X145194950Y-73115553D01*
X145204950Y-59805553D02*
X139234950Y-59805553D01*
X145204950Y-74925553D02*
X145204950Y-59805553D01*
X145494950Y-59515553D02*
X144244950Y-59515553D01*
X145494950Y-60765553D02*
X145494950Y-59515553D01*
%TO.C,R10*%
X128757208Y-76843053D02*
X128282692Y-76843053D01*
X128757208Y-77888053D02*
X128282692Y-77888053D01*
%TO.C,R14*%
X124977500Y-120562258D02*
X124977500Y-120087742D01*
X126022500Y-120562258D02*
X126022500Y-120087742D01*
%TO.C,R13*%
X124977500Y-113087742D02*
X124977500Y-113562258D01*
X126022500Y-113087742D02*
X126022500Y-113562258D01*
%TO.C,C20*%
X176749370Y-87375553D02*
X177030530Y-87375553D01*
X176749370Y-88395553D02*
X177030530Y-88395553D01*
%TO.C,R11*%
X128757208Y-99343053D02*
X128282692Y-99343053D01*
X128757208Y-100388053D02*
X128282692Y-100388053D01*
%TD*%
M02*
