M48
; DRILL file {KiCad 9.0.2} date 2026-08-16T19:09:46-0700
; FORMAT={-:-/ absolute / metric / decimal}
; #@! TF.CreationDate,2026-08-16T19:09:46-07:00
; #@! TF.GenerationSoftware,Kicad,Pcbnew,9.0.2
; #@! TF.FileFunction,Plated,1,4,PTH
FMAT,2
METRIC
; #@! TA.AperFunction,Plated,PTH,ViaDrill
T1C0.300
; #@! TA.AperFunction,Plated,PTH,ComponentDrill
T2C0.800
; #@! TA.AperFunction,Plated,PTH,ComponentDrill
T3C0.950
; #@! TA.AperFunction,Plated,PTH,ComponentDrill
T4C1.016
%
G90
G05
T1
X133.745Y-99.866
X133.745Y-122.366
X133.795Y-77.366
X170.245Y-61.366
X170.5Y-117.5
X171.245Y-61.366
X171.5Y-117.5
X172.245Y-61.366
X172.405Y-86.426
X172.5Y-117.5
X173.5Y-117.5
X174.105Y-78.176
X174.5Y-117.5
X174.905Y-73.336
X174.905Y-74.196
X175.0Y-67.0
X175.0Y-68.0
X176.0Y-67.0
X176.0Y-68.0
X177.0Y-67.0
X177.0Y-68.0
X177.4Y-60.6
X178.0Y-67.0
X178.0Y-68.0
X178.3Y-60.6
X179.0Y-67.0
X179.0Y-68.0
X179.05Y-60.6
T2
X172.25Y-119.42
X172.25Y-124.5
X177.33Y-121.96
T3
X130.395Y-62.366
X130.395Y-64.866
X130.395Y-67.366
X130.395Y-69.866
X130.395Y-72.366
X130.395Y-84.866
X130.395Y-87.366
X130.395Y-89.866
X130.395Y-92.366
X130.395Y-94.866
X130.395Y-107.366
X130.395Y-109.866
X130.395Y-112.366
X130.395Y-114.866
X130.395Y-117.366
X142.745Y-62.366
X142.745Y-64.866
X142.745Y-67.366
X142.745Y-69.866
X142.745Y-72.366
X142.745Y-84.866
X142.745Y-87.366
X142.745Y-89.866
X142.745Y-92.366
X142.745Y-94.866
X142.745Y-107.366
X142.745Y-109.866
X142.745Y-112.366
X142.745Y-114.866
X142.745Y-117.366
T4
X152.745Y-62.326
X152.745Y-64.866
X152.745Y-67.406
X152.745Y-69.946
X152.745Y-72.486
X152.745Y-75.026
X152.745Y-77.566
X152.745Y-80.106
X152.745Y-82.646
X152.745Y-85.186
X152.745Y-87.726
X152.745Y-90.266
X152.745Y-92.806
X152.745Y-95.346
X152.745Y-97.886
X152.745Y-100.426
X152.745Y-102.966
X152.745Y-105.506
X152.745Y-108.046
X152.745Y-110.586
X152.745Y-113.126
X152.745Y-115.666
X152.745Y-118.206
X152.745Y-120.746
X155.285Y-108.046
X157.825Y-108.046
X167.985Y-62.326
X167.985Y-64.866
X167.985Y-67.406
X167.985Y-69.946
X167.985Y-72.486
X167.985Y-75.026
X167.985Y-77.566
X167.985Y-80.106
X167.985Y-82.646
X167.985Y-85.186
X167.985Y-87.726
X167.985Y-90.266
X167.985Y-92.806
X167.985Y-95.346
X167.985Y-97.886
X167.985Y-100.426
X167.985Y-102.966
X167.985Y-105.506
X167.985Y-108.046
X167.985Y-110.586
X167.985Y-113.126
X167.985Y-115.666
X167.985Y-118.206
X167.985Y-120.746
M30
