%TF.GenerationSoftware,KiCad,Pcbnew,9.0.2*%
%TF.CreationDate,2026-08-16T19:09:34-07:00*%
%TF.ProjectId,Discriminator,44697363-7269-46d6-996e-61746f722e6b,rev?*%
%TF.SameCoordinates,Original*%
%TF.FileFunction,Soldermask,Top*%
%TF.FilePolarity,Negative*%
%FSLAX46Y46*%
G04 Gerber Fmt 4.6, Leading zero omitted, Abs format (unit mm)*
G04 Created by KiCad (PCBNEW 9.0.2) date 2026-08-16 19:09:34*
%MOMM*%
%LPD*%
G01*
G04 APERTURE LIST*
G04 Aperture macros list*
%AMRoundRect*
0 Rectangle with rounded corners*
0 $1 Rounding radius*
0 $2 $3 $4 $5 $6 $7 $8 $9 X,Y pos of 4 corners*
0 Add a 4 corners polygon primitive as box body*
4,1,4,$2,$3,$4,$5,$6,$7,$8,$9,$2,$3,0*
0 Add four circle primitives for the rounded corners*
1,1,$1+$1,$2,$3*
1,1,$1+$1,$4,$5*
1,1,$1+$1,$6,$7*
1,1,$1+$1,$8,$9*
0 Add four rect primitives between the rounded corners*
20,1,$1+$1,$2,$3,$4,$5,0*
20,1,$1+$1,$4,$5,$6,$7,0*
20,1,$1+$1,$6,$7,$8,$9,0*
20,1,$1+$1,$8,$9,$2,$3,0*%
G04 Aperture macros list end*
%ADD10RoundRect,0.250000X-0.725000X0.600000X-0.725000X-0.600000X0.725000X-0.600000X0.725000X0.600000X0*%
%ADD11O,1.950000X1.700000*%
%ADD12RoundRect,0.225000X-0.225000X-0.250000X0.225000X-0.250000X0.225000X0.250000X-0.225000X0.250000X0*%
%ADD13RoundRect,0.200000X0.200000X0.275000X-0.200000X0.275000X-0.200000X-0.275000X0.200000X-0.275000X0*%
%ADD14R,0.279400X1.333500*%
%ADD15RoundRect,0.250000X1.350000X-0.385000X1.350000X0.385000X-1.350000X0.385000X-1.350000X-0.385000X0*%
%ADD16RoundRect,0.250000X1.600000X-0.425000X1.600000X0.425000X-1.600000X0.425000X-1.600000X-0.425000X0*%
%ADD17RoundRect,0.218750X-0.218750X-0.256250X0.218750X-0.256250X0.218750X0.256250X-0.218750X0.256250X0*%
%ADD18RoundRect,0.200000X-0.275000X0.200000X-0.275000X-0.200000X0.275000X-0.200000X0.275000X0.200000X0*%
%ADD19C,1.728000*%
%ADD20C,1.440000*%
%ADD21RoundRect,0.200000X0.275000X-0.200000X0.275000X0.200000X-0.275000X0.200000X-0.275000X-0.200000X0*%
G04 APERTURE END LIST*
D10*
%TO.C,J5*%
X142744950Y-84865553D03*
D11*
X142744950Y-87365553D03*
X142744950Y-89865553D03*
X142744950Y-92365553D03*
X142744950Y-94865553D03*
%TD*%
D12*
%TO.C,C17*%
X176924950Y-75355553D03*
X178474950Y-75355553D03*
%TD*%
%TO.C,C19*%
X176114950Y-86235553D03*
X177664950Y-86235553D03*
%TD*%
D13*
%TO.C,R8*%
X141844950Y-99865553D03*
X140194950Y-99865553D03*
%TD*%
D14*
%TO.C,U5*%
X175414950Y-79735553D03*
X174914948Y-79735553D03*
X174414949Y-79735553D03*
X173914950Y-79735553D03*
X173414948Y-79735553D03*
X173414948Y-84167853D03*
X173914950Y-84167853D03*
X174414949Y-84167853D03*
X174914948Y-84167853D03*
X175414950Y-84167853D03*
%TD*%
D13*
%TO.C,R7*%
X141844950Y-77365553D03*
X140194950Y-77365553D03*
%TD*%
%TO.C,R12*%
X129494950Y-122365553D03*
X127844950Y-122365553D03*
%TD*%
%TO.C,R9*%
X141844950Y-122365553D03*
X140194950Y-122365553D03*
%TD*%
D15*
%TO.C,J_Power1*%
X178144950Y-62295553D03*
D16*
X177894950Y-59470553D03*
X177894950Y-65120553D03*
%TD*%
D10*
%TO.C,J8*%
X130394950Y-107365553D03*
D11*
X130394950Y-109865553D03*
X130394950Y-112365553D03*
X130394950Y-114865553D03*
X130394950Y-117365553D03*
%TD*%
D17*
%TO.C,D_4*%
X131019950Y-77365553D03*
X132594950Y-77365553D03*
%TD*%
D10*
%TO.C,J4*%
X130394950Y-62365553D03*
D11*
X130394950Y-64865553D03*
X130394950Y-67365553D03*
X130394950Y-69865553D03*
X130394950Y-72365553D03*
%TD*%
D17*
%TO.C,D_2*%
X143519950Y-99865553D03*
X145094950Y-99865553D03*
%TD*%
D18*
%TO.C,R4*%
X173514950Y-87635553D03*
X173514950Y-89285553D03*
%TD*%
D10*
%TO.C,J7*%
X130394950Y-84865553D03*
D11*
X130394950Y-87365553D03*
X130394950Y-89865553D03*
X130394950Y-92365553D03*
X130394950Y-94865553D03*
%TD*%
D17*
%TO.C,D_3*%
X143469950Y-122365553D03*
X145044950Y-122365553D03*
%TD*%
D12*
%TO.C,C16*%
X175294950Y-72325553D03*
X176844950Y-72325553D03*
%TD*%
D17*
%TO.C,D_1*%
X143519950Y-77365553D03*
X145094950Y-77365553D03*
%TD*%
D19*
%TO.C,A1*%
X167984950Y-67405553D03*
X152744950Y-97885553D03*
X157824950Y-108045553D03*
X167984950Y-64865553D03*
X152744950Y-64865553D03*
X152744950Y-67405553D03*
X152744950Y-69945553D03*
X152744950Y-72485553D03*
X152744950Y-75025553D03*
X152744950Y-77565553D03*
X152744950Y-80105553D03*
X152744950Y-82645553D03*
X152744950Y-85185553D03*
X152744950Y-87725553D03*
X152744950Y-90265553D03*
X152744950Y-92805553D03*
X152744950Y-95345553D03*
X167984950Y-95345553D03*
X167984950Y-92805553D03*
X167984950Y-90265553D03*
X167984950Y-87725553D03*
X167984950Y-85185553D03*
X167984950Y-82645553D03*
X167984950Y-80105553D03*
X167984950Y-77565553D03*
X167984950Y-75025553D03*
X167984950Y-72485553D03*
X167984950Y-69945553D03*
X152744950Y-100425553D03*
X152744950Y-102965553D03*
X152744950Y-105505553D03*
X152744950Y-108045553D03*
X152744950Y-110585553D03*
X152744950Y-113125553D03*
X152744950Y-115665553D03*
X152744950Y-118205553D03*
X152744950Y-120745553D03*
X167984950Y-120745553D03*
X167984950Y-118205553D03*
X167984950Y-115665553D03*
X167984950Y-113125553D03*
X167984950Y-110585553D03*
X167984950Y-108045553D03*
X167984950Y-105505553D03*
X167984950Y-102965553D03*
X167984950Y-100425553D03*
X152744950Y-62325553D03*
X167984950Y-97885553D03*
X155284950Y-108045553D03*
X167984950Y-62325553D03*
%TD*%
D20*
%TO.C,3386F-1-201LF1*%
X172250000Y-124500000D03*
X177330000Y-121960000D03*
X172250000Y-119420000D03*
%TD*%
D18*
%TO.C,R5*%
X125500000Y-116000000D03*
X125500000Y-117650000D03*
%TD*%
D10*
%TO.C,J6*%
X142744950Y-107365553D03*
D11*
X142744950Y-109865553D03*
X142744950Y-112365553D03*
X142744950Y-114865553D03*
X142744950Y-117365553D03*
%TD*%
D17*
%TO.C,D_6*%
X131169950Y-122365553D03*
X132744950Y-122365553D03*
%TD*%
%TO.C,D_5*%
X131019950Y-99865553D03*
X132594950Y-99865553D03*
%TD*%
D18*
%TO.C,R3*%
X174904950Y-75385553D03*
X174904950Y-77035553D03*
%TD*%
D12*
%TO.C,C18*%
X176924950Y-77005553D03*
X178474950Y-77005553D03*
%TD*%
D10*
%TO.C,J2*%
X142744950Y-62365553D03*
D11*
X142744950Y-64865553D03*
X142744950Y-67365553D03*
X142744950Y-69865553D03*
X142744950Y-72365553D03*
%TD*%
D13*
%TO.C,R10*%
X129344950Y-77365553D03*
X127694950Y-77365553D03*
%TD*%
D21*
%TO.C,R14*%
X125500000Y-121150000D03*
X125500000Y-119500000D03*
%TD*%
D18*
%TO.C,R13*%
X125500000Y-112500000D03*
X125500000Y-114150000D03*
%TD*%
D12*
%TO.C,C20*%
X176114950Y-87885553D03*
X177664950Y-87885553D03*
%TD*%
D13*
%TO.C,R11*%
X129344950Y-99865553D03*
X127694950Y-99865553D03*
%TD*%
M02*
