%TF.GenerationSoftware,KiCad,Pcbnew,9.0.2*%
%TF.CreationDate,2026-08-16T19:09:34-07:00*%
%TF.ProjectId,Discriminator,44697363-7269-46d6-996e-61746f722e6b,rev?*%
%TF.SameCoordinates,Original*%
%TF.FileFunction,Copper,L1,Top*%
%TF.FilePolarity,Positive*%
%FSLAX46Y46*%
G04 Gerber Fmt 4.6, Leading zero omitted, Abs format (unit mm)*
G04 Created by KiCad (PCBNEW 9.0.2) date 2026-08-16 19:09:34*
%MOMM*%
%LPD*%
G01*
G04 APERTURE LIST*
G04 Aperture macros list*
%AMRoundRect*
0 Rectangle with rounded corners*
0 $1 Rounding radius*
0 $2 $3 $4 $5 $6 $7 $8 $9 X,Y pos of 4 corners*
0 Add a 4 corners polygon primitive as box body*
4,1,4,$2,$3,$4,$5,$6,$7,$8,$9,$2,$3,0*
0 Add four circle primitives for the rounded corners*
1,1,$1+$1,$2,$3*
1,1,$1+$1,$4,$5*
1,1,$1+$1,$6,$7*
1,1,$1+$1,$8,$9*
0 Add four rect primitives between the rounded corners*
20,1,$1+$1,$2,$3,$4,$5,0*
20,1,$1+$1,$4,$5,$6,$7,0*
20,1,$1+$1,$6,$7,$8,$9,0*
20,1,$1+$1,$8,$9,$2,$3,0*%
G04 Aperture macros list end*
%TA.AperFunction,ComponentPad*%
%ADD10RoundRect,0.250000X-0.725000X0.600000X-0.725000X-0.600000X0.725000X-0.600000X0.725000X0.600000X0*%
%TD*%
%TA.AperFunction,ComponentPad*%
%ADD11O,1.950000X1.700000*%
%TD*%
%TA.AperFunction,SMDPad,CuDef*%
%ADD12RoundRect,0.225000X-0.225000X-0.250000X0.225000X-0.250000X0.225000X0.250000X-0.225000X0.250000X0*%
%TD*%
%TA.AperFunction,SMDPad,CuDef*%
%ADD13RoundRect,0.200000X0.200000X0.275000X-0.200000X0.275000X-0.200000X-0.275000X0.200000X-0.275000X0*%
%TD*%
%TA.AperFunction,SMDPad,CuDef*%
%ADD14R,0.279400X1.333500*%
%TD*%
%TA.AperFunction,SMDPad,CuDef*%
%ADD15RoundRect,0.250000X1.350000X-0.385000X1.350000X0.385000X-1.350000X0.385000X-1.350000X-0.385000X0*%
%TD*%
%TA.AperFunction,SMDPad,CuDef*%
%ADD16RoundRect,0.250000X1.600000X-0.425000X1.600000X0.425000X-1.600000X0.425000X-1.600000X-0.425000X0*%
%TD*%
%TA.AperFunction,SMDPad,CuDef*%
%ADD17RoundRect,0.218750X-0.218750X-0.256250X0.218750X-0.256250X0.218750X0.256250X-0.218750X0.256250X0*%
%TD*%
%TA.AperFunction,SMDPad,CuDef*%
%ADD18RoundRect,0.200000X-0.275000X0.200000X-0.275000X-0.200000X0.275000X-0.200000X0.275000X0.200000X0*%
%TD*%
%TA.AperFunction,ComponentPad*%
%ADD19C,1.524000*%
%TD*%
%TA.AperFunction,ComponentPad*%
%ADD20C,1.440000*%
%TD*%
%TA.AperFunction,SMDPad,CuDef*%
%ADD21RoundRect,0.200000X0.275000X-0.200000X0.275000X0.200000X-0.275000X0.200000X-0.275000X-0.200000X0*%
%TD*%
%TA.AperFunction,ViaPad*%
%ADD22C,0.600000*%
%TD*%
%TA.AperFunction,Conductor*%
%ADD23C,0.200000*%
%TD*%
%TA.AperFunction,Conductor*%
%ADD24C,0.355542*%
%TD*%
%TA.AperFunction,Conductor*%
%ADD25C,0.800000*%
%TD*%
G04 APERTURE END LIST*
D10*
%TO.P,J5,1,Pin_1*%
%TO.N,/2*%
X142744950Y-84865553D03*
D11*
%TO.P,J5,2,Pin_2*%
%TO.N,GNDA*%
X142744950Y-87365553D03*
%TO.P,J5,3,Pin_3*%
%TO.N,/V_r*%
X142744950Y-89865553D03*
%TO.P,J5,4,Pin_4*%
%TO.N,+3.3VA*%
X142744950Y-92365553D03*
%TO.P,J5,5,Pin_5*%
%TO.N,+5VA*%
X142744950Y-94865553D03*
%TD*%
D12*
%TO.P,C17,1*%
%TO.N,+3.3VA*%
X176924950Y-75355553D03*
%TO.P,C17,2*%
%TO.N,GNDA*%
X178474950Y-75355553D03*
%TD*%
%TO.P,C19,1*%
%TO.N,Net-(U5-VREFIO)*%
X176114950Y-86235553D03*
%TO.P,C19,2*%
%TO.N,GNDA*%
X177664950Y-86235553D03*
%TD*%
D13*
%TO.P,R8,1*%
%TO.N,Net-(D_2-K)*%
X141844950Y-99865553D03*
%TO.P,R8,2*%
%TO.N,GNDA*%
X140194950Y-99865553D03*
%TD*%
D14*
%TO.P,U5,1,VDD*%
%TO.N,+3.3VA*%
X175414950Y-79735553D03*
%TO.P,U5,2,VOUT*%
%TO.N,Net-(U5-VOUT)*%
X174914948Y-79735553D03*
%TO.P,U5,3,NC*%
%TO.N,unconnected-(U5-NC-Pad3)*%
X174414949Y-79735553D03*
%TO.P,U5,4,AGND*%
%TO.N,GNDA*%
X173914950Y-79735553D03*
%TO.P,U5,5,SPI2C*%
%TO.N,+3.3VA*%
X173414948Y-79735553D03*
%TO.P,U5,6,SCLK/SCL*%
%TO.N,/SCL*%
X173414948Y-84167853D03*
%TO.P,U5,7,\u002ASYNC/A0*%
%TO.N,/A0*%
X173914950Y-84167853D03*
%TO.P,U5,8,SDIN/SDA*%
%TO.N,/SDA*%
X174414949Y-84167853D03*
%TO.P,U5,9,NC*%
%TO.N,unconnected-(U5-NC-Pad9)*%
X174914948Y-84167853D03*
%TO.P,U5,10,VREFIO*%
%TO.N,Net-(U5-VREFIO)*%
X175414950Y-84167853D03*
%TD*%
D13*
%TO.P,R7,1*%
%TO.N,Net-(D_1-K)*%
X141844950Y-77365553D03*
%TO.P,R7,2*%
%TO.N,GNDA*%
X140194950Y-77365553D03*
%TD*%
%TO.P,R12,1*%
%TO.N,Net-(D_6-K)*%
X129494950Y-122365553D03*
%TO.P,R12,2*%
%TO.N,GNDA*%
X127844950Y-122365553D03*
%TD*%
%TO.P,R9,1*%
%TO.N,Net-(D_3-K)*%
X141844950Y-122365553D03*
%TO.P,R9,2*%
%TO.N,GNDA*%
X140194950Y-122365553D03*
%TD*%
D15*
%TO.P,J_Power1,1,In*%
%TO.N,+5VA*%
X178144950Y-62295553D03*
D16*
%TO.P,J_Power1,2,Ext*%
%TO.N,GNDA*%
X177894950Y-59470553D03*
X177894950Y-65120553D03*
%TD*%
D10*
%TO.P,J8,1,Pin_1*%
%TO.N,/6*%
X130394950Y-107365553D03*
D11*
%TO.P,J8,2,Pin_2*%
%TO.N,GNDA*%
X130394950Y-109865553D03*
%TO.P,J8,3,Pin_3*%
%TO.N,Net-(J8-Pin_3)*%
X130394950Y-112365553D03*
%TO.P,J8,4,Pin_4*%
%TO.N,+3.3VA*%
X130394950Y-114865553D03*
%TO.P,J8,5,Pin_5*%
%TO.N,+5VA*%
X130394950Y-117365553D03*
%TD*%
D17*
%TO.P,D_4,1,K*%
%TO.N,Net-(D_4-K)*%
X131019950Y-77365553D03*
%TO.P,D_4,2,A*%
%TO.N,Net-(D_4-A)*%
X132594950Y-77365553D03*
%TD*%
D10*
%TO.P,J4,1,Pin_1*%
%TO.N,/4*%
X130394950Y-62365553D03*
D11*
%TO.P,J4,2,Pin_2*%
%TO.N,GNDA*%
X130394950Y-64865553D03*
%TO.P,J4,3,Pin_3*%
%TO.N,/V_r*%
X130394950Y-67365553D03*
%TO.P,J4,4,Pin_4*%
%TO.N,+3.3VA*%
X130394950Y-69865553D03*
%TO.P,J4,5,Pin_5*%
%TO.N,+5VA*%
X130394950Y-72365553D03*
%TD*%
D17*
%TO.P,D_2,1,K*%
%TO.N,Net-(D_2-K)*%
X143519950Y-99865553D03*
%TO.P,D_2,2,A*%
%TO.N,Net-(D_2-A)*%
X145094950Y-99865553D03*
%TD*%
D18*
%TO.P,R4,1*%
%TO.N,/A0*%
X173514950Y-87635553D03*
%TO.P,R4,2*%
%TO.N,+3.3VA*%
X173514950Y-89285553D03*
%TD*%
D10*
%TO.P,J7,1,Pin_1*%
%TO.N,/5*%
X130394950Y-84865553D03*
D11*
%TO.P,J7,2,Pin_2*%
%TO.N,GNDA*%
X130394950Y-87365553D03*
%TO.P,J7,3,Pin_3*%
%TO.N,/V_r*%
X130394950Y-89865553D03*
%TO.P,J7,4,Pin_4*%
%TO.N,+3.3VA*%
X130394950Y-92365553D03*
%TO.P,J7,5,Pin_5*%
%TO.N,+5VA*%
X130394950Y-94865553D03*
%TD*%
D17*
%TO.P,D_3,1,K*%
%TO.N,Net-(D_3-K)*%
X143469950Y-122365553D03*
%TO.P,D_3,2,A*%
%TO.N,Net-(D_3-A)*%
X145044950Y-122365553D03*
%TD*%
D12*
%TO.P,C16,1*%
%TO.N,/V_r*%
X175294950Y-72325553D03*
%TO.P,C16,2*%
%TO.N,GNDA*%
X176844950Y-72325553D03*
%TD*%
D17*
%TO.P,D_1,1,K*%
%TO.N,Net-(D_1-K)*%
X143519950Y-77365553D03*
%TO.P,D_1,2,A*%
%TO.N,Net-(D_1-A)*%
X145094950Y-77365553D03*
%TD*%
D19*
%TO.P,A1,3V3,3.3V*%
%TO.N,+3.3VA*%
X167984950Y-67405553D03*
%TO.P,A1,3V3@2,3.3V*%
X152744950Y-97885553D03*
%TO.P,A1,3V3@3,3.3V*%
X157824950Y-108045553D03*
%TO.P,A1,AGND/GND,GND*%
%TO.N,GNDA*%
X167984950Y-64865553D03*
%TO.P,A1,D0,(CRX1)D0*%
%TO.N,unconnected-(A1-(CRX1)D0-PadD0)*%
X152744950Y-64865553D03*
%TO.P,A1,D1,(CTX1)D1*%
%TO.N,unconnected-(A1-(CTX1)D1-PadD1)*%
X152744950Y-67405553D03*
%TO.P,A1,D2,D2*%
%TO.N,/1*%
X152744950Y-69945553D03*
%TO.P,A1,D3,D3*%
%TO.N,Net-(D_1-A)*%
X152744950Y-72485553D03*
%TO.P,A1,D4,D4*%
%TO.N,/2*%
X152744950Y-75025553D03*
%TO.P,A1,D5,D5*%
%TO.N,Net-(D_2-A)*%
X152744950Y-77565553D03*
%TO.P,A1,D6,D6*%
%TO.N,/3*%
X152744950Y-80105553D03*
%TO.P,A1,D7,D7*%
%TO.N,Net-(D_3-A)*%
X152744950Y-82645553D03*
%TO.P,A1,D8,D8*%
%TO.N,/4*%
X152744950Y-85185553D03*
%TO.P,A1,D9,D9*%
%TO.N,Net-(D_4-A)*%
X152744950Y-87725553D03*
%TO.P,A1,D10,(CS)D10*%
%TO.N,/5*%
X152744950Y-90265553D03*
%TO.P,A1,D11,(SDO)D11*%
%TO.N,Net-(A1-(SDO)D11)*%
X152744950Y-92805553D03*
%TO.P,A1,D12,(SDI)D12*%
%TO.N,/6*%
X152744950Y-95345553D03*
%TO.P,A1,D13,(CLK)D13*%
%TO.N,unconnected-(A1-(CLK)D13-PadD13)*%
X167984950Y-95345553D03*
%TO.P,A1,D14,A0*%
%TO.N,/A0*%
X167984950Y-92805553D03*
%TO.P,A1,D15,A1*%
%TO.N,unconnected-(A1-A1-PadD15)*%
X167984950Y-90265553D03*
%TO.P,A1,D16,A2*%
%TO.N,unconnected-(A1-A2-PadD16)*%
X167984950Y-87725553D03*
%TO.P,A1,D17,A3*%
%TO.N,unconnected-(A1-A3-PadD17)*%
X167984950Y-85185553D03*
%TO.P,A1,D18,A4*%
%TO.N,/SDA*%
X167984950Y-82645553D03*
%TO.P,A1,D19,A5*%
%TO.N,/SCL*%
X167984950Y-80105553D03*
%TO.P,A1,D20,A6*%
%TO.N,unconnected-(A1-A6-PadD20)*%
X167984950Y-77565553D03*
%TO.P,A1,D21,A7*%
%TO.N,unconnected-(A1-A7-PadD21)*%
X167984950Y-75025553D03*
%TO.P,A1,D22,A8*%
%TO.N,unconnected-(A1-A8-PadD22)*%
X167984950Y-72485553D03*
%TO.P,A1,D23,A9*%
%TO.N,unconnected-(A1-A9-PadD23)*%
X167984950Y-69945553D03*
%TO.P,A1,D24,A10*%
%TO.N,Net-(A1-A10)*%
X152744950Y-100425553D03*
%TO.P,A1,D25,A11*%
%TO.N,unconnected-(A1-A11-PadD25)*%
X152744950Y-102965553D03*
%TO.P,A1,D26,A12*%
%TO.N,unconnected-(A1-A12-PadD26)*%
X152744950Y-105505553D03*
%TO.P,A1,D27,A13*%
%TO.N,unconnected-(A1-A13-PadD27)*%
X152744950Y-108045553D03*
%TO.P,A1,D28,D28*%
%TO.N,unconnected-(A1-PadD28)*%
X152744950Y-110585553D03*
%TO.P,A1,D29,D29*%
%TO.N,unconnected-(A1-PadD29)*%
X152744950Y-113125553D03*
%TO.P,A1,D30,D30*%
%TO.N,unconnected-(A1-PadD30)*%
X152744950Y-115665553D03*
%TO.P,A1,D31,D31*%
%TO.N,unconnected-(A1-PadD31)*%
X152744950Y-118205553D03*
%TO.P,A1,D32,D32*%
%TO.N,unconnected-(A1-PadD32)*%
X152744950Y-120745553D03*
%TO.P,A1,D33,D33*%
%TO.N,unconnected-(A1-PadD33)*%
X167984950Y-120745553D03*
%TO.P,A1,D34,D34*%
%TO.N,unconnected-(A1-PadD34)*%
X167984950Y-118205553D03*
%TO.P,A1,D35,D35*%
%TO.N,unconnected-(A1-PadD35)*%
X167984950Y-115665553D03*
%TO.P,A1,D36,D36*%
%TO.N,unconnected-(A1-PadD36)*%
X167984950Y-113125553D03*
%TO.P,A1,D37,D37*%
%TO.N,unconnected-(A1-PadD37)*%
X167984950Y-110585553D03*
%TO.P,A1,D38,A14*%
%TO.N,unconnected-(A1-A14-PadD38)*%
X167984950Y-108045553D03*
%TO.P,A1,D39,A15*%
%TO.N,unconnected-(A1-A15-PadD39)*%
X167984950Y-105505553D03*
%TO.P,A1,D40,A16*%
%TO.N,unconnected-(A1-A16-PadD40)*%
X167984950Y-102965553D03*
%TO.P,A1,D41,A17*%
%TO.N,unconnected-(A1-A17-PadD41)*%
X167984950Y-100425553D03*
%TO.P,A1,GND,GND*%
%TO.N,GNDA*%
X152744950Y-62325553D03*
%TO.P,A1,GND@2,GND*%
X167984950Y-97885553D03*
%TO.P,A1,VBAT,VBAT*%
%TO.N,unconnected-(A1-PadVBAT)*%
X155284950Y-108045553D03*
%TO.P,A1,VIN,VIN*%
%TO.N,+5VA*%
X167984950Y-62325553D03*
%TD*%
D20*
%TO.P,3386F-1-201LF1,1,1*%
%TO.N,Net-(3386F-1-201LF1-Pad1)*%
X172250000Y-124500000D03*
%TO.P,3386F-1-201LF1,2,2*%
%TO.N,GNDA*%
X177330000Y-121960000D03*
%TO.P,3386F-1-201LF1,3,3*%
X172250000Y-119420000D03*
%TD*%
D18*
%TO.P,R5,1*%
%TO.N,+3.3VA*%
X125500000Y-116000000D03*
%TO.P,R5,2*%
%TO.N,Net-(R13-Pad2)*%
X125500000Y-117650000D03*
%TD*%
D10*
%TO.P,J6,1,Pin_1*%
%TO.N,/3*%
X142744950Y-107365553D03*
D11*
%TO.P,J6,2,Pin_2*%
%TO.N,GNDA*%
X142744950Y-109865553D03*
%TO.P,J6,3,Pin_3*%
%TO.N,/V_r*%
X142744950Y-112365553D03*
%TO.P,J6,4,Pin_4*%
%TO.N,+3.3VA*%
X142744950Y-114865553D03*
%TO.P,J6,5,Pin_5*%
%TO.N,+5VA*%
X142744950Y-117365553D03*
%TD*%
D17*
%TO.P,D_6,1,K*%
%TO.N,Net-(D_6-K)*%
X131169950Y-122365553D03*
%TO.P,D_6,2,A*%
%TO.N,Net-(A1-A10)*%
X132744950Y-122365553D03*
%TD*%
%TO.P,D_5,1,K*%
%TO.N,Net-(D_5-K)*%
X131019950Y-99865553D03*
%TO.P,D_5,2,A*%
%TO.N,Net-(A1-(SDO)D11)*%
X132594950Y-99865553D03*
%TD*%
D18*
%TO.P,R3,1*%
%TO.N,/V_r*%
X174904950Y-75385553D03*
%TO.P,R3,2*%
%TO.N,Net-(U5-VOUT)*%
X174904950Y-77035553D03*
%TD*%
D12*
%TO.P,C18,1*%
%TO.N,+3.3VA*%
X176924950Y-77005553D03*
%TO.P,C18,2*%
%TO.N,GNDA*%
X178474950Y-77005553D03*
%TD*%
D10*
%TO.P,J2,1,Pin_1*%
%TO.N,/1*%
X142744950Y-62365553D03*
D11*
%TO.P,J2,2,Pin_2*%
%TO.N,GNDA*%
X142744950Y-64865553D03*
%TO.P,J2,3,Pin_3*%
%TO.N,/V_r*%
X142744950Y-67365553D03*
%TO.P,J2,4,Pin_4*%
%TO.N,+3.3VA*%
X142744950Y-69865553D03*
%TO.P,J2,5,Pin_5*%
%TO.N,+5VA*%
X142744950Y-72365553D03*
%TD*%
D13*
%TO.P,R10,1*%
%TO.N,Net-(D_4-K)*%
X129344950Y-77365553D03*
%TO.P,R10,2*%
%TO.N,GNDA*%
X127694950Y-77365553D03*
%TD*%
D21*
%TO.P,R14,1*%
%TO.N,Net-(3386F-1-201LF1-Pad1)*%
X125500000Y-121150000D03*
%TO.P,R14,2*%
%TO.N,Net-(R13-Pad2)*%
X125500000Y-119500000D03*
%TD*%
D18*
%TO.P,R13,1*%
%TO.N,Net-(J8-Pin_3)*%
X125500000Y-112500000D03*
%TO.P,R13,2*%
%TO.N,Net-(R13-Pad2)*%
X125500000Y-114150000D03*
%TD*%
D12*
%TO.P,C20,1*%
%TO.N,Net-(U5-VREFIO)*%
X176114950Y-87885553D03*
%TO.P,C20,2*%
%TO.N,GNDA*%
X177664950Y-87885553D03*
%TD*%
D13*
%TO.P,R11,1*%
%TO.N,Net-(D_5-K)*%
X129344950Y-99865553D03*
%TO.P,R11,2*%
%TO.N,GNDA*%
X127694950Y-99865553D03*
%TD*%
D22*
%TO.N,GNDA*%
X178000000Y-67000000D03*
X178300000Y-60600000D03*
X174104950Y-78175553D03*
X171500000Y-117500000D03*
X179050000Y-60600000D03*
X177400000Y-60600000D03*
X176000000Y-68000000D03*
X179000000Y-67000000D03*
X174500000Y-117500000D03*
X179000000Y-68000000D03*
X175000000Y-67000000D03*
X178000000Y-68000000D03*
X172500000Y-117500000D03*
X173500000Y-117500000D03*
X177000000Y-67000000D03*
X176000000Y-67000000D03*
X175000000Y-68000000D03*
X170500000Y-117500000D03*
X177000000Y-68000000D03*
%TO.N,/V_r*%
X174904950Y-73335553D03*
X174904950Y-74195553D03*
%TO.N,+5VA*%
X170244950Y-61365553D03*
X171244950Y-61365553D03*
X172244950Y-61365553D03*
%TO.N,Net-(D_4-A)*%
X133794950Y-77365553D03*
%TO.N,Net-(A1-(SDO)D11)*%
X133744950Y-99865553D03*
%TO.N,/A0*%
X172404950Y-86425553D03*
%TO.N,Net-(A1-A10)*%
X133744950Y-122365553D03*
%TD*%
D23*
%TO.N,Net-(U5-VREFIO)*%
X175414950Y-85535553D02*
X176114950Y-86235553D01*
X176114950Y-86235553D02*
X176114950Y-87885553D01*
X175414950Y-84167853D02*
X175414950Y-85535553D01*
D24*
%TO.N,GNDA*%
X174104950Y-78175553D02*
X174094950Y-78175553D01*
D23*
X174104950Y-78175553D02*
X173914950Y-78365553D01*
D24*
X170500000Y-117500000D02*
X174500000Y-117500000D01*
D25*
X172250000Y-117750000D02*
X172500000Y-117500000D01*
D24*
X174790000Y-119420000D02*
X177330000Y-121960000D01*
D23*
X173914950Y-78365553D02*
X173914950Y-79735553D01*
D25*
X172250000Y-119420000D02*
X172250000Y-117750000D01*
D24*
X172250000Y-119420000D02*
X174790000Y-119420000D01*
X172250000Y-119420000D02*
X172330000Y-119500000D01*
%TO.N,/V_r*%
X142744950Y-67365553D02*
X130394950Y-67365553D01*
X174904950Y-73335553D02*
X174904950Y-72715553D01*
X174904950Y-72715553D02*
X175294950Y-72325553D01*
X130394950Y-89865553D02*
X142744950Y-89865553D01*
X174904950Y-75385553D02*
X174904950Y-74195553D01*
%TO.N,+3.3VA*%
X130394950Y-69865553D02*
X142744950Y-69865553D01*
X161764179Y-88866324D02*
X173095721Y-88866324D01*
D23*
X173414948Y-69220441D02*
X173414948Y-79735553D01*
D24*
X152744950Y-97885553D02*
X157824950Y-102965553D01*
D23*
X176924950Y-78244022D02*
X175433419Y-79735553D01*
D24*
X161764179Y-88866324D02*
X161764179Y-73626324D01*
X130394950Y-114865553D02*
X142744950Y-114865553D01*
X129634447Y-114865553D02*
X128500000Y-116000000D01*
D23*
X171600060Y-67405553D02*
X173392505Y-69197998D01*
D24*
X161764179Y-73626324D02*
X167984950Y-67405553D01*
D23*
X176045950Y-74476553D02*
X176924950Y-75355553D01*
X167984950Y-67405553D02*
X171600060Y-67405553D01*
D24*
X130394950Y-114865553D02*
X129634447Y-114865553D01*
X157824950Y-102965553D02*
X157824950Y-108045553D01*
D23*
X176924950Y-75355553D02*
X176924950Y-78244022D01*
X173392505Y-69197998D02*
X173414948Y-69220441D01*
D24*
X142744950Y-92365553D02*
X130394950Y-92365553D01*
X128500000Y-116000000D02*
X125500000Y-116000000D01*
X173095721Y-88866324D02*
X173514950Y-89285553D01*
X152744950Y-97885553D02*
X161764179Y-88866324D01*
D23*
X176045950Y-71851443D02*
X176045950Y-74476553D01*
X173392505Y-69197998D02*
X176045950Y-71851443D01*
D24*
%TO.N,+5VA*%
X171244950Y-61365553D02*
X170744950Y-61365553D01*
X173204950Y-62325553D02*
X172244950Y-61365553D01*
X175304950Y-62325553D02*
X173204950Y-62325553D01*
X175582450Y-62325553D02*
X175304950Y-62325553D01*
X130394950Y-94865553D02*
X142744950Y-94865553D01*
X168014950Y-62295553D02*
X167984950Y-62325553D01*
X170744950Y-61365553D02*
X170244950Y-61365553D01*
X175304950Y-62325553D02*
X175334950Y-62295553D01*
X175334950Y-62295553D02*
X178144950Y-62295553D01*
X175582450Y-62325553D02*
X167984950Y-62325553D01*
X130394950Y-72365553D02*
X142744950Y-72365553D01*
X172244950Y-61365553D02*
X171244950Y-61365553D01*
X178144950Y-62295553D02*
X168014950Y-62295553D01*
X130394950Y-117365553D02*
X142744950Y-117365553D01*
D23*
%TO.N,Net-(U5-VOUT)*%
X174914948Y-78905551D02*
X174904950Y-78895553D01*
X174914948Y-79735553D02*
X174914948Y-78905551D01*
X174904950Y-78895553D02*
X174904950Y-77035553D01*
%TO.N,/SDA*%
X174414949Y-84167853D02*
X174414949Y-87924618D01*
X167984950Y-83294617D02*
X167984950Y-82645553D01*
X174003014Y-88336553D02*
X173026886Y-88336553D01*
X174414949Y-87924618D02*
X174003014Y-88336553D01*
X173026886Y-88336553D02*
X167984950Y-83294617D01*
%TO.N,/SCL*%
X173414948Y-84167853D02*
X172047250Y-84167853D01*
X172047250Y-84167853D02*
X167984950Y-80105553D01*
D24*
%TO.N,Net-(D_2-A)*%
X145094950Y-85215553D02*
X152744950Y-77565553D01*
X145094950Y-99865553D02*
X145094950Y-85215553D01*
D23*
%TO.N,/3*%
X152744950Y-80105553D02*
X152504950Y-80105553D01*
D24*
X147744950Y-102365553D02*
X142744950Y-107365553D01*
X147744950Y-84865553D02*
X147744950Y-102365553D01*
X152504950Y-80105553D02*
X147744950Y-84865553D01*
%TO.N,Net-(D_1-A)*%
X147864950Y-77365553D02*
X145094950Y-77365553D01*
X152744950Y-72485553D02*
X147864950Y-77365553D01*
%TO.N,Net-(D_3-A)*%
X149444950Y-117965553D02*
X149444950Y-85945553D01*
X149444950Y-85945553D02*
X152744950Y-82645553D01*
X145044950Y-122365553D02*
X149444950Y-117965553D01*
%TO.N,Net-(D_4-A)*%
X132594950Y-77365553D02*
X133794950Y-77365553D01*
%TO.N,Net-(A1-(SDO)D11)*%
X132594950Y-99865553D02*
X133744950Y-99865553D01*
%TO.N,/2*%
X142904950Y-84865553D02*
X152744950Y-75025553D01*
D23*
X142744950Y-84865553D02*
X142904950Y-84865553D01*
D24*
%TO.N,/1*%
X145164950Y-62365553D02*
X152744950Y-69945553D01*
X142744950Y-62365553D02*
X145164950Y-62365553D01*
%TO.N,Net-(D_1-K)*%
X143519950Y-77365553D02*
X141794950Y-77365553D01*
%TO.N,Net-(D_2-K)*%
X141794950Y-99865553D02*
X143519950Y-99865553D01*
%TO.N,Net-(D_3-K)*%
X141794950Y-122365553D02*
X143469950Y-122365553D01*
%TO.N,Net-(D_4-K)*%
X129294950Y-77365553D02*
X131019950Y-77365553D01*
%TO.N,Net-(D_5-K)*%
X129294950Y-99865553D02*
X131019950Y-99865553D01*
%TO.N,Net-(D_6-K)*%
X129444950Y-122365553D02*
X131169950Y-122365553D01*
D23*
%TO.N,/A0*%
X173514950Y-87535553D02*
X172404950Y-86425553D01*
X173914950Y-87235553D02*
X173514950Y-87635553D01*
X173514950Y-87635553D02*
X173514950Y-87535553D01*
X173914950Y-84167853D02*
X173914950Y-87235553D01*
D24*
%TO.N,Net-(A1-A10)*%
X132744950Y-122365553D02*
X133744950Y-122365553D01*
%TO.N,Net-(J8-Pin_3)*%
X125500000Y-112500000D02*
X126000000Y-112500000D01*
X126134447Y-112365553D02*
X130394950Y-112365553D01*
X126000000Y-112500000D02*
X126134447Y-112365553D01*
%TO.N,Net-(R13-Pad2)*%
X125500000Y-118500000D02*
X125500000Y-117650000D01*
X125500000Y-119500000D02*
X125500000Y-118500000D01*
X125000000Y-118500000D02*
X124500000Y-118000000D01*
X124500000Y-115150000D02*
X125500000Y-114150000D01*
X125500000Y-118500000D02*
X125000000Y-118500000D01*
X124500000Y-118000000D02*
X124500000Y-115150000D01*
%TO.N,Net-(3386F-1-201LF1-Pad1)*%
X125500000Y-122750000D02*
X127250000Y-124500000D01*
X127250000Y-124500000D02*
X172250000Y-124500000D01*
X125500000Y-121150000D02*
X125500000Y-122750000D01*
%TD*%
%TA.AperFunction,Conductor*%
%TO.N,GNDA*%
G36*
X174203597Y-77796364D02*
G01*
X174206181Y-77797926D01*
X174244601Y-77821152D01*
X174291788Y-77872680D01*
X174304450Y-77927268D01*
X174304450Y-78448633D01*
X174304215Y-78449432D01*
X174304440Y-78450236D01*
X174294379Y-78482928D01*
X174284765Y-78515672D01*
X174284135Y-78516217D01*
X174283890Y-78517016D01*
X174257730Y-78539097D01*
X174231961Y-78561427D01*
X174230925Y-78561723D01*
X174230499Y-78562084D01*
X174218135Y-78565389D01*
X174196508Y-78571589D01*
X174195065Y-78571777D01*
X174167766Y-78574712D01*
X174165163Y-78575682D01*
X174155506Y-78576944D01*
X174127001Y-78572468D01*
X174098190Y-78570923D01*
X174092911Y-78567116D01*
X174086482Y-78566107D01*
X174064918Y-78546928D01*
X174041520Y-78530054D01*
X174039137Y-78523998D01*
X174034274Y-78519673D01*
X174026502Y-78491880D01*
X174015941Y-78465035D01*
X174015448Y-78453988D01*
X174015448Y-77902481D01*
X174035133Y-77835442D01*
X174087937Y-77789687D01*
X174157095Y-77779743D01*
X174203597Y-77796364D01*
G37*
%TD.AperFunction*%
%TA.AperFunction,Conductor*%
G36*
X179687489Y-57885738D02*
G01*
X179733244Y-57938542D01*
X179744450Y-57990053D01*
X179744450Y-61043119D01*
X179724765Y-61110158D01*
X179671961Y-61155913D01*
X179607849Y-61166477D01*
X179544962Y-61160053D01*
X176744948Y-61160053D01*
X176744931Y-61160054D01*
X176642153Y-61170553D01*
X176642150Y-61170554D01*
X176475618Y-61225738D01*
X176475613Y-61225740D01*
X176326292Y-61317842D01*
X176202237Y-61441897D01*
X176164495Y-61503089D01*
X176130391Y-61558379D01*
X176078446Y-61605103D01*
X176024854Y-61617282D01*
X173507261Y-61617282D01*
X173440222Y-61597597D01*
X173419580Y-61580963D01*
X173052213Y-61213596D01*
X173018728Y-61152273D01*
X173018288Y-61150162D01*
X173014687Y-61132056D01*
X172986105Y-61063053D01*
X172954347Y-60986380D01*
X172954340Y-60986367D01*
X172866739Y-60855264D01*
X172866736Y-60855260D01*
X172755242Y-60743766D01*
X172755238Y-60743763D01*
X172624135Y-60656162D01*
X172624122Y-60656155D01*
X172478451Y-60595817D01*
X172478439Y-60595814D01*
X172323795Y-60565053D01*
X172323792Y-60565053D01*
X172166108Y-60565053D01*
X172166105Y-60565053D01*
X172011460Y-60595814D01*
X172011448Y-60595817D01*
X171865774Y-60656157D01*
X171850467Y-60666385D01*
X171832420Y-60672035D01*
X171816512Y-60682259D01*
X171785551Y-60686710D01*
X171783790Y-60687262D01*
X171781577Y-60687282D01*
X171708323Y-60687282D01*
X171641284Y-60667597D01*
X171639433Y-60666385D01*
X171624129Y-60656159D01*
X171624126Y-60656157D01*
X171624125Y-60656157D01*
X171478451Y-60595817D01*
X171478439Y-60595814D01*
X171323795Y-60565053D01*
X171323792Y-60565053D01*
X171166108Y-60565053D01*
X171166105Y-60565053D01*
X171011460Y-60595814D01*
X171011448Y-60595817D01*
X170865774Y-60656157D01*
X170850467Y-60666385D01*
X170832420Y-60672035D01*
X170816512Y-60682259D01*
X170785551Y-60686710D01*
X170783790Y-60687262D01*
X170781577Y-60687282D01*
X170708323Y-60687282D01*
X170641284Y-60667597D01*
X170639433Y-60666385D01*
X170624129Y-60656159D01*
X170624126Y-60656157D01*
X170624125Y-60656157D01*
X170478451Y-60595817D01*
X170478439Y-60595814D01*
X170323795Y-60565053D01*
X170323792Y-60565053D01*
X170166108Y-60565053D01*
X170166105Y-60565053D01*
X170011460Y-60595814D01*
X170011448Y-60595817D01*
X169865777Y-60656155D01*
X169865764Y-60656162D01*
X169734661Y-60743763D01*
X169734657Y-60743766D01*
X169623163Y-60855260D01*
X169623160Y-60855264D01*
X169535559Y-60986367D01*
X169535552Y-60986380D01*
X169475214Y-61132051D01*
X169475211Y-61132063D01*
X169444450Y-61286706D01*
X169444450Y-61444396D01*
X169449362Y-61469089D01*
X169447484Y-61490073D01*
X169450483Y-61510929D01*
X169444432Y-61524177D01*
X169443135Y-61538681D01*
X169430210Y-61555318D01*
X169421458Y-61574485D01*
X169409206Y-61582358D01*
X169400273Y-61593859D01*
X169380404Y-61600868D01*
X169362680Y-61612259D01*
X169338097Y-61615793D01*
X169334383Y-61617104D01*
X169327745Y-61617282D01*
X169094078Y-61617282D01*
X169027039Y-61597597D01*
X168993760Y-61566167D01*
X168947933Y-61503092D01*
X168947928Y-61503086D01*
X168807416Y-61362574D01*
X168807414Y-61362572D01*
X168646644Y-61245766D01*
X168607337Y-61225738D01*
X168469582Y-61155547D01*
X168469579Y-61155546D01*
X168280587Y-61094140D01*
X168182448Y-61078596D01*
X168084311Y-61063053D01*
X167885589Y-61063053D01*
X167820164Y-61073415D01*
X167689312Y-61094140D01*
X167500320Y-61155546D01*
X167500317Y-61155547D01*
X167323255Y-61245766D01*
X167162483Y-61362574D01*
X167021971Y-61503086D01*
X166905163Y-61663858D01*
X166814944Y-61840920D01*
X166814943Y-61840923D01*
X166753537Y-62029915D01*
X166722450Y-62226192D01*
X166722450Y-62424913D01*
X166753537Y-62621190D01*
X166814943Y-62810182D01*
X166814944Y-62810185D01*
X166898324Y-62973824D01*
X166905163Y-62987247D01*
X167021969Y-63148017D01*
X167162486Y-63288534D01*
X167323256Y-63405340D01*
X167386169Y-63437396D01*
X167500317Y-63495558D01*
X167500320Y-63495559D01*
X167594816Y-63526262D01*
X167689314Y-63556966D01*
X167885589Y-63588053D01*
X167885590Y-63588053D01*
X168084310Y-63588053D01*
X168084311Y-63588053D01*
X168280586Y-63556966D01*
X168469582Y-63495558D01*
X168646644Y-63405340D01*
X168807414Y-63288534D01*
X168947931Y-63148017D01*
X169015557Y-63054937D01*
X169070885Y-63012273D01*
X169115874Y-63003824D01*
X173138141Y-63003824D01*
X173138146Y-63003825D01*
X173271754Y-63003825D01*
X173271759Y-63003824D01*
X175232012Y-63003824D01*
X175232032Y-63003825D01*
X175238146Y-63003825D01*
X175377868Y-63003825D01*
X175377888Y-63003824D01*
X175649255Y-63003824D01*
X175649256Y-63003823D01*
X175732594Y-62987247D01*
X175786268Y-62976571D01*
X175786442Y-62977449D01*
X175811659Y-62973824D01*
X176024854Y-62973824D01*
X176091893Y-62993509D01*
X176130391Y-63032726D01*
X176149378Y-63063509D01*
X176201502Y-63148017D01*
X176202238Y-63149209D01*
X176326294Y-63273265D01*
X176475616Y-63365367D01*
X176642153Y-63420552D01*
X176744941Y-63431053D01*
X179544958Y-63431052D01*
X179607849Y-63424627D01*
X179676540Y-63437396D01*
X179727425Y-63485276D01*
X179744450Y-63547985D01*
X179744450Y-117876000D01*
X179724765Y-117943039D01*
X179671961Y-117988794D01*
X179620450Y-118000000D01*
X170000000Y-118000000D01*
X170000000Y-123697729D01*
X169980315Y-123764768D01*
X169927511Y-123810523D01*
X169876000Y-123821729D01*
X127582311Y-123821729D01*
X127515272Y-123802044D01*
X127494630Y-123785410D01*
X126214590Y-122505370D01*
X126181105Y-122444047D01*
X126178271Y-122417689D01*
X126178271Y-122033939D01*
X128594450Y-122033939D01*
X128594450Y-122697166D01*
X128600863Y-122767745D01*
X128600863Y-122767747D01*
X128600864Y-122767749D01*
X128651472Y-122930159D01*
X128738997Y-123074943D01*
X128739480Y-123075741D01*
X128859761Y-123196022D01*
X128859763Y-123196023D01*
X128859765Y-123196025D01*
X129005344Y-123284031D01*
X129167754Y-123334639D01*
X129238334Y-123341053D01*
X129238337Y-123341053D01*
X129751563Y-123341053D01*
X129751566Y-123341053D01*
X129822146Y-123334639D01*
X129984556Y-123284031D01*
X130130135Y-123196025D01*
X130168254Y-123157906D01*
X130231512Y-123094649D01*
X130292835Y-123061164D01*
X130362527Y-123066148D01*
X130406874Y-123094649D01*
X130502058Y-123189833D01*
X130502062Y-123189836D01*
X130645154Y-123278097D01*
X130645157Y-123278098D01*
X130645163Y-123278102D01*
X130804765Y-123330989D01*
X130903276Y-123341053D01*
X130903281Y-123341053D01*
X131436619Y-123341053D01*
X131436624Y-123341053D01*
X131535135Y-123330989D01*
X131694737Y-123278102D01*
X131837841Y-123189834D01*
X131869769Y-123157906D01*
X131931092Y-123124421D01*
X132000784Y-123129405D01*
X132045131Y-123157906D01*
X132077058Y-123189833D01*
X132077062Y-123189836D01*
X132220154Y-123278097D01*
X132220157Y-123278098D01*
X132220163Y-123278102D01*
X132379765Y-123330989D01*
X132478276Y-123341053D01*
X132478281Y-123341053D01*
X133011619Y-123341053D01*
X133011624Y-123341053D01*
X133110135Y-123330989D01*
X133269737Y-123278102D01*
X133402809Y-123196022D01*
X133412838Y-123189836D01*
X133412838Y-123189835D01*
X133412841Y-123189834D01*
X133427827Y-123174846D01*
X133489146Y-123141361D01*
X133539701Y-123140909D01*
X133541974Y-123141361D01*
X133666105Y-123166053D01*
X133666108Y-123166053D01*
X133823794Y-123166053D01*
X133823795Y-123166052D01*
X133978447Y-123135290D01*
X134122212Y-123075741D01*
X134124122Y-123074950D01*
X134124122Y-123074949D01*
X134124129Y-123074947D01*
X134255239Y-122987342D01*
X134366739Y-122875842D01*
X134454344Y-122744732D01*
X134514687Y-122599050D01*
X134545450Y-122444395D01*
X134545450Y-122286711D01*
X134545450Y-122286708D01*
X134545449Y-122286706D01*
X134514688Y-122132063D01*
X134514687Y-122132056D01*
X134463324Y-122008053D01*
X134454347Y-121986380D01*
X134454340Y-121986367D01*
X134366739Y-121855264D01*
X134366736Y-121855260D01*
X134255242Y-121743766D01*
X134255238Y-121743763D01*
X134124135Y-121656162D01*
X134124122Y-121656155D01*
X133978451Y-121595817D01*
X133978439Y-121595814D01*
X133823795Y-121565053D01*
X133823792Y-121565053D01*
X133666108Y-121565053D01*
X133666103Y-121565053D01*
X133539701Y-121590196D01*
X133470109Y-121583969D01*
X133427829Y-121556260D01*
X133412841Y-121541272D01*
X133412837Y-121541269D01*
X133269745Y-121453008D01*
X133269739Y-121453005D01*
X133269737Y-121453004D01*
X133110135Y-121400117D01*
X133110133Y-121400116D01*
X133011631Y-121390053D01*
X133011624Y-121390053D01*
X132478276Y-121390053D01*
X132478268Y-121390053D01*
X132379766Y-121400116D01*
X132379765Y-121400117D01*
X132300669Y-121426326D01*
X132220165Y-121453003D01*
X132220154Y-121453008D01*
X132077062Y-121541269D01*
X132077058Y-121541272D01*
X132045131Y-121573200D01*
X131983808Y-121606685D01*
X131914116Y-121601701D01*
X131869769Y-121573200D01*
X131837841Y-121541272D01*
X131837837Y-121541269D01*
X131694745Y-121453008D01*
X131694739Y-121453005D01*
X131694737Y-121453004D01*
X131535135Y-121400117D01*
X131535133Y-121400116D01*
X131436631Y-121390053D01*
X131436624Y-121390053D01*
X130903276Y-121390053D01*
X130903268Y-121390053D01*
X130804766Y-121400116D01*
X130804765Y-121400117D01*
X130725669Y-121426326D01*
X130645165Y-121453003D01*
X130645154Y-121453008D01*
X130502062Y-121541269D01*
X130502058Y-121541272D01*
X130406874Y-121636457D01*
X130345551Y-121669942D01*
X130275859Y-121664958D01*
X130231512Y-121636457D01*
X130130138Y-121535083D01*
X129984556Y-121447075D01*
X129822146Y-121396467D01*
X129822144Y-121396466D01*
X129822142Y-121396466D01*
X129772728Y-121391976D01*
X129751566Y-121390053D01*
X129238334Y-121390053D01*
X129219095Y-121391801D01*
X129167757Y-121396466D01*
X129005343Y-121447075D01*
X128859761Y-121535083D01*
X128739480Y-121655364D01*
X128651472Y-121800946D01*
X128600863Y-121963360D01*
X128594450Y-122033939D01*
X126178271Y-122033939D01*
X126178271Y-121988748D01*
X126197956Y-121921709D01*
X126214585Y-121901071D01*
X126330472Y-121785185D01*
X126418478Y-121639606D01*
X126469086Y-121477196D01*
X126475500Y-121406616D01*
X126475500Y-120893384D01*
X126469086Y-120822804D01*
X126418478Y-120660394D01*
X126330472Y-120514815D01*
X126330470Y-120514813D01*
X126330469Y-120514811D01*
X126228339Y-120412681D01*
X126194854Y-120351358D01*
X126199838Y-120281666D01*
X126228339Y-120237319D01*
X126330468Y-120135189D01*
X126330469Y-120135188D01*
X126330472Y-120135185D01*
X126418478Y-119989606D01*
X126469086Y-119827196D01*
X126475500Y-119756616D01*
X126475500Y-119243384D01*
X126469086Y-119172804D01*
X126418478Y-119010394D01*
X126330472Y-118864815D01*
X126330470Y-118864813D01*
X126330469Y-118864811D01*
X126214590Y-118748932D01*
X126199886Y-118722004D01*
X126183294Y-118696186D01*
X126182402Y-118689985D01*
X126181105Y-118687609D01*
X126178271Y-118661251D01*
X126178271Y-118488748D01*
X126197956Y-118421709D01*
X126214585Y-118401071D01*
X126330472Y-118285185D01*
X126418478Y-118139606D01*
X126469086Y-117977196D01*
X126475500Y-117906616D01*
X126475500Y-117393384D01*
X126469086Y-117322804D01*
X126418478Y-117160394D01*
X126330472Y-117014815D01*
X126330470Y-117014813D01*
X126330469Y-117014811D01*
X126228338Y-116912680D01*
X126223999Y-116904733D01*
X126216750Y-116899307D01*
X126207516Y-116874547D01*
X126194853Y-116851357D01*
X126195498Y-116842325D01*
X126192335Y-116833842D01*
X126197951Y-116808023D01*
X126199837Y-116781665D01*
X126205656Y-116772610D01*
X126207188Y-116765570D01*
X126228337Y-116737319D01*
X126251069Y-116714588D01*
X126312393Y-116681104D01*
X126338748Y-116678271D01*
X128427062Y-116678271D01*
X128427082Y-116678272D01*
X128433196Y-116678272D01*
X128566806Y-116678272D01*
X128674110Y-116656927D01*
X128697844Y-116652206D01*
X128821282Y-116601076D01*
X128915126Y-116538371D01*
X128981803Y-116517494D01*
X129049183Y-116535979D01*
X129095873Y-116587957D01*
X129107049Y-116656927D01*
X129094501Y-116697768D01*
X129018395Y-116847135D01*
X128952703Y-117049313D01*
X128940594Y-117125766D01*
X128919450Y-117259266D01*
X128919450Y-117471840D01*
X128952704Y-117681796D01*
X128965417Y-117720923D01*
X129018394Y-117883967D01*
X129114901Y-118073373D01*
X129239840Y-118245339D01*
X129390163Y-118395662D01*
X129562129Y-118520601D01*
X129562131Y-118520602D01*
X129562134Y-118520604D01*
X129751538Y-118617110D01*
X129953707Y-118682799D01*
X130163663Y-118716053D01*
X130163664Y-118716053D01*
X130626236Y-118716053D01*
X130626237Y-118716053D01*
X130836193Y-118682799D01*
X131038362Y-118617110D01*
X131227766Y-118520604D01*
X131349204Y-118432375D01*
X131399736Y-118395662D01*
X131399738Y-118395659D01*
X131399742Y-118395657D01*
X131550054Y-118245345D01*
X131659330Y-118094937D01*
X131714659Y-118052273D01*
X131759648Y-118043824D01*
X141380252Y-118043824D01*
X141447291Y-118063509D01*
X141480569Y-118094937D01*
X141501158Y-118123275D01*
X141589846Y-118245345D01*
X141740163Y-118395662D01*
X141912129Y-118520601D01*
X141912131Y-118520602D01*
X141912134Y-118520604D01*
X142101538Y-118617110D01*
X142303707Y-118682799D01*
X142513663Y-118716053D01*
X142513664Y-118716053D01*
X142976236Y-118716053D01*
X142976237Y-118716053D01*
X143186193Y-118682799D01*
X143388362Y-118617110D01*
X143577766Y-118520604D01*
X143699204Y-118432375D01*
X143749736Y-118395662D01*
X143749738Y-118395659D01*
X143749742Y-118395657D01*
X143900054Y-118245345D01*
X143900056Y-118245341D01*
X143900059Y-118245339D01*
X144024998Y-118073373D01*
X144024997Y-118073373D01*
X144025001Y-118073369D01*
X144121507Y-117883965D01*
X144187196Y-117681796D01*
X144220450Y-117471840D01*
X144220450Y-117259266D01*
X144187196Y-117049310D01*
X144121507Y-116847141D01*
X144025001Y-116657737D01*
X144024999Y-116657734D01*
X144024998Y-116657732D01*
X143900059Y-116485766D01*
X143749742Y-116335449D01*
X143738453Y-116327247D01*
X143585154Y-116215869D01*
X143542490Y-116160542D01*
X143536511Y-116090929D01*
X143569116Y-116029133D01*
X143585149Y-116015239D01*
X143749742Y-115895657D01*
X143900054Y-115745345D01*
X143900056Y-115745341D01*
X143900059Y-115745339D01*
X144024998Y-115573373D01*
X144024997Y-115573373D01*
X144025001Y-115573369D01*
X144121507Y-115383965D01*
X144187196Y-115181796D01*
X144220450Y-114971840D01*
X144220450Y-114759266D01*
X144187196Y-114549310D01*
X144121507Y-114347141D01*
X144025001Y-114157737D01*
X144024999Y-114157734D01*
X144024998Y-114157732D01*
X143900059Y-113985766D01*
X143749742Y-113835449D01*
X143732342Y-113822807D01*
X143585154Y-113715869D01*
X143542490Y-113660542D01*
X143536511Y-113590929D01*
X143569116Y-113529133D01*
X143585149Y-113515239D01*
X143749742Y-113395657D01*
X143900054Y-113245345D01*
X143900056Y-113245341D01*
X143900059Y-113245339D01*
X144024998Y-113073373D01*
X144024997Y-113073373D01*
X144025001Y-113073369D01*
X144121507Y-112883965D01*
X144187196Y-112681796D01*
X144220450Y-112471840D01*
X144220450Y-112259266D01*
X144187196Y-112049310D01*
X144121507Y-111847141D01*
X144025001Y-111657737D01*
X144024999Y-111657734D01*
X144024998Y-111657732D01*
X143900059Y-111485766D01*
X143749736Y-111335443D01*
X143577770Y-111210504D01*
X143388364Y-111113997D01*
X143388363Y-111113996D01*
X143388362Y-111113996D01*
X143186193Y-111048307D01*
X143186191Y-111048306D01*
X143186190Y-111048306D01*
X143024907Y-111022761D01*
X142976237Y-111015053D01*
X142513663Y-111015053D01*
X142464992Y-111022761D01*
X142303710Y-111048306D01*
X142101535Y-111113997D01*
X141912129Y-111210504D01*
X141740163Y-111335443D01*
X141589840Y-111485766D01*
X141464901Y-111657732D01*
X141368394Y-111847138D01*
X141302703Y-112049313D01*
X141283144Y-112172804D01*
X141269450Y-112259266D01*
X141269450Y-112471840D01*
X141302704Y-112681796D01*
X141349946Y-112827192D01*
X141368394Y-112883967D01*
X141464901Y-113073373D01*
X141589840Y-113245339D01*
X141740159Y-113395658D01*
X141740164Y-113395662D01*
X141904743Y-113515235D01*
X141947409Y-113570564D01*
X141953388Y-113640178D01*
X141920783Y-113701973D01*
X141904743Y-113715871D01*
X141740164Y-113835443D01*
X141740159Y-113835447D01*
X141589846Y-113985760D01*
X141589842Y-113985766D01*
X141480569Y-114136168D01*
X141425241Y-114178833D01*
X141380252Y-114187282D01*
X131759648Y-114187282D01*
X131692609Y-114167597D01*
X131659330Y-114136168D01*
X131550054Y-113985761D01*
X131399742Y-113835449D01*
X131235154Y-113715869D01*
X131192490Y-113660542D01*
X131186511Y-113590929D01*
X131219116Y-113529133D01*
X131235149Y-113515239D01*
X131399742Y-113395657D01*
X131550054Y-113245345D01*
X131550056Y-113245341D01*
X131550059Y-113245339D01*
X131674998Y-113073373D01*
X131674997Y-113073373D01*
X131675001Y-113073369D01*
X131771507Y-112883965D01*
X131837196Y-112681796D01*
X131870450Y-112471840D01*
X131870450Y-112259266D01*
X131837196Y-112049310D01*
X131771507Y-111847141D01*
X131675001Y-111657737D01*
X131674999Y-111657734D01*
X131674998Y-111657732D01*
X131550059Y-111485766D01*
X131399736Y-111335443D01*
X131227770Y-111210504D01*
X131038364Y-111113997D01*
X131038363Y-111113996D01*
X131038362Y-111113996D01*
X130836193Y-111048307D01*
X130836191Y-111048306D01*
X130836190Y-111048306D01*
X130674907Y-111022761D01*
X130626237Y-111015053D01*
X130163663Y-111015053D01*
X130114992Y-111022761D01*
X129953710Y-111048306D01*
X129751535Y-111113997D01*
X129562129Y-111210504D01*
X129390163Y-111335443D01*
X129239846Y-111485760D01*
X129239842Y-111485766D01*
X129130569Y-111636168D01*
X129075241Y-111678833D01*
X129030252Y-111687282D01*
X126207383Y-111687282D01*
X126201255Y-111687281D01*
X126201251Y-111687281D01*
X126150053Y-111687281D01*
X126150015Y-111687269D01*
X126085905Y-111669398D01*
X126079192Y-111665340D01*
X126064606Y-111656522D01*
X125902196Y-111605914D01*
X125902194Y-111605913D01*
X125902192Y-111605913D01*
X125852778Y-111601423D01*
X125831616Y-111599500D01*
X125168384Y-111599500D01*
X125149145Y-111601248D01*
X125097807Y-111605913D01*
X124935393Y-111656522D01*
X124789811Y-111744530D01*
X124669530Y-111864811D01*
X124581522Y-112010393D01*
X124530913Y-112172807D01*
X124524500Y-112243386D01*
X124524500Y-112756613D01*
X124530913Y-112827192D01*
X124530913Y-112827194D01*
X124530914Y-112827196D01*
X124531762Y-112829917D01*
X124581522Y-112989606D01*
X124669530Y-113135188D01*
X124771661Y-113237319D01*
X124805146Y-113298642D01*
X124800162Y-113368334D01*
X124771661Y-113412681D01*
X124669531Y-113514810D01*
X124669530Y-113514811D01*
X124581522Y-113660393D01*
X124530913Y-113822807D01*
X124524500Y-113893386D01*
X124524500Y-114114917D01*
X124504815Y-114181956D01*
X124488181Y-114202598D01*
X124289915Y-114400864D01*
X124067630Y-114623149D01*
X124067627Y-114623152D01*
X124020389Y-114670389D01*
X123973152Y-114717626D01*
X123898923Y-114828719D01*
X123847794Y-114952155D01*
X123847792Y-114952161D01*
X123821728Y-115083193D01*
X123821728Y-115222917D01*
X123821729Y-115222938D01*
X123821729Y-117933190D01*
X123821728Y-117933196D01*
X123821728Y-118066804D01*
X123832961Y-118123273D01*
X123834588Y-118131456D01*
X123834589Y-118131461D01*
X123847792Y-118197837D01*
X123847794Y-118197844D01*
X123898923Y-118321280D01*
X123973153Y-118432375D01*
X124071946Y-118531168D01*
X124071968Y-118531188D01*
X124473149Y-118932369D01*
X124473152Y-118932373D01*
X124521307Y-118980528D01*
X124533880Y-119003555D01*
X124554791Y-119041849D01*
X124552011Y-119105096D01*
X124530915Y-119172797D01*
X124530914Y-119172803D01*
X124524500Y-119243386D01*
X124524500Y-119756613D01*
X124530913Y-119827192D01*
X124581522Y-119989606D01*
X124669530Y-120135188D01*
X124771661Y-120237319D01*
X124805146Y-120298642D01*
X124800162Y-120368334D01*
X124771661Y-120412681D01*
X124669531Y-120514810D01*
X124669530Y-120514811D01*
X124581522Y-120660393D01*
X124530913Y-120822807D01*
X124525782Y-120879275D01*
X124524500Y-120893384D01*
X124524500Y-121406616D01*
X124526423Y-121427778D01*
X124530913Y-121477192D01*
X124530913Y-121477194D01*
X124530914Y-121477196D01*
X124581522Y-121639606D01*
X124669528Y-121785185D01*
X124785411Y-121901068D01*
X124818895Y-121962389D01*
X124821729Y-121988748D01*
X124821729Y-122678060D01*
X124821728Y-122678086D01*
X124821728Y-122683196D01*
X124821728Y-122816804D01*
X124843815Y-122927840D01*
X124847794Y-122947844D01*
X124898924Y-123071282D01*
X124908868Y-123086164D01*
X124973153Y-123182375D01*
X125071946Y-123281168D01*
X125071968Y-123281188D01*
X126723149Y-124932369D01*
X126723152Y-124932373D01*
X126817627Y-125026848D01*
X126888248Y-125074035D01*
X126928718Y-125101076D01*
X127052156Y-125152206D01*
X127052160Y-125152206D01*
X127052161Y-125152207D01*
X127183193Y-125178272D01*
X127183196Y-125178272D01*
X127322918Y-125178272D01*
X127322938Y-125178271D01*
X169876000Y-125178271D01*
X169943039Y-125197956D01*
X169988794Y-125250760D01*
X170000000Y-125302271D01*
X170000000Y-126741053D01*
X169980315Y-126808092D01*
X169927511Y-126853847D01*
X169876000Y-126865053D01*
X120869495Y-126865053D01*
X120802456Y-126845368D01*
X120756701Y-126792564D01*
X120745495Y-126741044D01*
X120746940Y-106715536D01*
X128919450Y-106715536D01*
X128919450Y-108015554D01*
X128919451Y-108015571D01*
X128929950Y-108118349D01*
X128929951Y-108118352D01*
X128938753Y-108144913D01*
X128985136Y-108284887D01*
X129077238Y-108434209D01*
X129201294Y-108558265D01*
X129350616Y-108650367D01*
X129517153Y-108705552D01*
X129619941Y-108716053D01*
X131169958Y-108716052D01*
X131272747Y-108705552D01*
X131439284Y-108650367D01*
X131588606Y-108558265D01*
X131712662Y-108434209D01*
X131804764Y-108284887D01*
X131859949Y-108118350D01*
X131870450Y-108015562D01*
X131870449Y-106715545D01*
X131870193Y-106713043D01*
X131859949Y-106612756D01*
X131859948Y-106612753D01*
X131812157Y-106468531D01*
X131804764Y-106446219D01*
X131712662Y-106296897D01*
X131588606Y-106172841D01*
X131439284Y-106080739D01*
X131272747Y-106025554D01*
X131272745Y-106025553D01*
X131169960Y-106015053D01*
X129619948Y-106015053D01*
X129619931Y-106015054D01*
X129517153Y-106025553D01*
X129517150Y-106025554D01*
X129350618Y-106080738D01*
X129350613Y-106080740D01*
X129201292Y-106172842D01*
X129077239Y-106296895D01*
X128985137Y-106446216D01*
X128985135Y-106446221D01*
X128957299Y-106530223D01*
X128929951Y-106612756D01*
X128929951Y-106612757D01*
X128929950Y-106612757D01*
X128919450Y-106715536D01*
X120746940Y-106715536D01*
X120746940Y-106712378D01*
X120747458Y-99533939D01*
X128444450Y-99533939D01*
X128444450Y-100197166D01*
X128450863Y-100267745D01*
X128450863Y-100267747D01*
X128450864Y-100267749D01*
X128501472Y-100430159D01*
X128588997Y-100574943D01*
X128589480Y-100575741D01*
X128709761Y-100696022D01*
X128709763Y-100696023D01*
X128709765Y-100696025D01*
X128855344Y-100784031D01*
X129017754Y-100834639D01*
X129088334Y-100841053D01*
X129088337Y-100841053D01*
X129601563Y-100841053D01*
X129601566Y-100841053D01*
X129672146Y-100834639D01*
X129834556Y-100784031D01*
X129980135Y-100696025D01*
X130018254Y-100657906D01*
X130081512Y-100594649D01*
X130142835Y-100561164D01*
X130212527Y-100566148D01*
X130256874Y-100594649D01*
X130352058Y-100689833D01*
X130352062Y-100689836D01*
X130495154Y-100778097D01*
X130495157Y-100778098D01*
X130495163Y-100778102D01*
X130654765Y-100830989D01*
X130753276Y-100841053D01*
X130753281Y-100841053D01*
X131286619Y-100841053D01*
X131286624Y-100841053D01*
X131385135Y-100830989D01*
X131544737Y-100778102D01*
X131687841Y-100689834D01*
X131719769Y-100657906D01*
X131781092Y-100624421D01*
X131850784Y-100629405D01*
X131895131Y-100657906D01*
X131927058Y-100689833D01*
X131927062Y-100689836D01*
X132070154Y-100778097D01*
X132070157Y-100778098D01*
X132070163Y-100778102D01*
X132229765Y-100830989D01*
X132328276Y-100841053D01*
X132328281Y-100841053D01*
X132861619Y-100841053D01*
X132861624Y-100841053D01*
X132960135Y-100830989D01*
X133119737Y-100778102D01*
X133262841Y-100689834D01*
X133315640Y-100637034D01*
X133376960Y-100603550D01*
X133446652Y-100608533D01*
X133450732Y-100610139D01*
X133511453Y-100635290D01*
X133511457Y-100635290D01*
X133511461Y-100635292D01*
X133666103Y-100666052D01*
X133666106Y-100666053D01*
X133666108Y-100666053D01*
X133823794Y-100666053D01*
X133823795Y-100666052D01*
X133978447Y-100635290D01*
X134091116Y-100588620D01*
X134124122Y-100574950D01*
X134124122Y-100574949D01*
X134124129Y-100574947D01*
X134255239Y-100487342D01*
X134366739Y-100375842D01*
X134454344Y-100244732D01*
X134514687Y-100099050D01*
X134545450Y-99944395D01*
X134545450Y-99786711D01*
X134545450Y-99786708D01*
X134545449Y-99786706D01*
X134514688Y-99632063D01*
X134514687Y-99632056D01*
X134474045Y-99533937D01*
X134454347Y-99486380D01*
X134454340Y-99486367D01*
X134366739Y-99355264D01*
X134366736Y-99355260D01*
X134255242Y-99243766D01*
X134255238Y-99243763D01*
X134124135Y-99156162D01*
X134124122Y-99156155D01*
X133978451Y-99095817D01*
X133978439Y-99095814D01*
X133823795Y-99065053D01*
X133823792Y-99065053D01*
X133666108Y-99065053D01*
X133666105Y-99065053D01*
X133511455Y-99095814D01*
X133511451Y-99095816D01*
X133450770Y-99120950D01*
X133381300Y-99128417D01*
X133318821Y-99097141D01*
X133315638Y-99094069D01*
X133262841Y-99041272D01*
X133262837Y-99041269D01*
X133119745Y-98953008D01*
X133119739Y-98953005D01*
X133119737Y-98953004D01*
X132960135Y-98900117D01*
X132960133Y-98900116D01*
X132861631Y-98890053D01*
X132861624Y-98890053D01*
X132328276Y-98890053D01*
X132328268Y-98890053D01*
X132229766Y-98900116D01*
X132229765Y-98900117D01*
X132150669Y-98926326D01*
X132070165Y-98953003D01*
X132070154Y-98953008D01*
X131927062Y-99041269D01*
X131927058Y-99041272D01*
X131895131Y-99073200D01*
X131833808Y-99106685D01*
X131764116Y-99101701D01*
X131719769Y-99073200D01*
X131687841Y-99041272D01*
X131687837Y-99041269D01*
X131544745Y-98953008D01*
X131544739Y-98953005D01*
X131544737Y-98953004D01*
X131385135Y-98900117D01*
X131385133Y-98900116D01*
X131286631Y-98890053D01*
X131286624Y-98890053D01*
X130753276Y-98890053D01*
X130753268Y-98890053D01*
X130654766Y-98900116D01*
X130654765Y-98900117D01*
X130575669Y-98926326D01*
X130495165Y-98953003D01*
X130495154Y-98953008D01*
X130352062Y-99041269D01*
X130352058Y-99041272D01*
X130256874Y-99136457D01*
X130195551Y-99169942D01*
X130125859Y-99164958D01*
X130081512Y-99136457D01*
X129980138Y-99035083D01*
X129834556Y-98947075D01*
X129683856Y-98900116D01*
X129672146Y-98896467D01*
X129672144Y-98896466D01*
X129672142Y-98896466D01*
X129622728Y-98891976D01*
X129601566Y-98890053D01*
X129088334Y-98890053D01*
X129069095Y-98891801D01*
X129017757Y-98896466D01*
X128855343Y-98947075D01*
X128709761Y-99035083D01*
X128589480Y-99155364D01*
X128501472Y-99300946D01*
X128450863Y-99463360D01*
X128444450Y-99533939D01*
X120747458Y-99533939D01*
X120747458Y-99531118D01*
X120747486Y-99148053D01*
X120748163Y-89759266D01*
X128919450Y-89759266D01*
X128919450Y-89971839D01*
X128950232Y-90166192D01*
X128952704Y-90181796D01*
X128965151Y-90220105D01*
X129018394Y-90383967D01*
X129114901Y-90573373D01*
X129239840Y-90745339D01*
X129390159Y-90895658D01*
X129390164Y-90895662D01*
X129554743Y-91015235D01*
X129597409Y-91070564D01*
X129603388Y-91140178D01*
X129570783Y-91201973D01*
X129554743Y-91215871D01*
X129390164Y-91335443D01*
X129390159Y-91335447D01*
X129239840Y-91485766D01*
X129114901Y-91657732D01*
X129018394Y-91847138D01*
X128952703Y-92049313D01*
X128919450Y-92259266D01*
X128919450Y-92471839D01*
X128949636Y-92662429D01*
X128952704Y-92681796D01*
X128965151Y-92720105D01*
X129018394Y-92883967D01*
X129114901Y-93073373D01*
X129239840Y-93245339D01*
X129390159Y-93395658D01*
X129390164Y-93395662D01*
X129554743Y-93515235D01*
X129597409Y-93570564D01*
X129603388Y-93640178D01*
X129570783Y-93701973D01*
X129554743Y-93715871D01*
X129390164Y-93835443D01*
X129390159Y-93835447D01*
X129239840Y-93985766D01*
X129114901Y-94157732D01*
X129018394Y-94347138D01*
X128952703Y-94549313D01*
X128919450Y-94759266D01*
X128919450Y-94971839D01*
X128949636Y-95162429D01*
X128952704Y-95181796D01*
X128965151Y-95220105D01*
X129018394Y-95383967D01*
X129114901Y-95573373D01*
X129239840Y-95745339D01*
X129390163Y-95895662D01*
X129562129Y-96020601D01*
X129562131Y-96020602D01*
X129562134Y-96020604D01*
X129751538Y-96117110D01*
X129953707Y-96182799D01*
X130163663Y-96216053D01*
X130163664Y-96216053D01*
X130626236Y-96216053D01*
X130626237Y-96216053D01*
X130836193Y-96182799D01*
X131038362Y-96117110D01*
X131227766Y-96020604D01*
X131249739Y-96004639D01*
X131399736Y-95895662D01*
X131399738Y-95895659D01*
X131399742Y-95895657D01*
X131550054Y-95745345D01*
X131659330Y-95594937D01*
X131714659Y-95552273D01*
X131759648Y-95543824D01*
X141380252Y-95543824D01*
X141447291Y-95563509D01*
X141480569Y-95594937D01*
X141571999Y-95720780D01*
X141589846Y-95745345D01*
X141740163Y-95895662D01*
X141912129Y-96020601D01*
X141912131Y-96020602D01*
X141912134Y-96020604D01*
X142101538Y-96117110D01*
X142303707Y-96182799D01*
X142513663Y-96216053D01*
X142513664Y-96216053D01*
X142976236Y-96216053D01*
X142976237Y-96216053D01*
X143186193Y-96182799D01*
X143388362Y-96117110D01*
X143577766Y-96020604D01*
X143599739Y-96004639D01*
X143749736Y-95895662D01*
X143749738Y-95895659D01*
X143749742Y-95895657D01*
X143900054Y-95745345D01*
X143900056Y-95745341D01*
X143900059Y-95745339D01*
X144024998Y-95573373D01*
X144024997Y-95573373D01*
X144025001Y-95573369D01*
X144121507Y-95383965D01*
X144174749Y-95220103D01*
X144214185Y-95162429D01*
X144278544Y-95135231D01*
X144347390Y-95147146D01*
X144398866Y-95194390D01*
X144416679Y-95258423D01*
X144416679Y-98970748D01*
X144396994Y-99037787D01*
X144344190Y-99083542D01*
X144275032Y-99093486D01*
X144211476Y-99064461D01*
X144204998Y-99058429D01*
X144187841Y-99041272D01*
X144187837Y-99041269D01*
X144044745Y-98953008D01*
X144044739Y-98953005D01*
X144044737Y-98953004D01*
X143885135Y-98900117D01*
X143885133Y-98900116D01*
X143786631Y-98890053D01*
X143786624Y-98890053D01*
X143253276Y-98890053D01*
X143253268Y-98890053D01*
X143154766Y-98900116D01*
X143154765Y-98900117D01*
X143075669Y-98926326D01*
X142995165Y-98953003D01*
X142995154Y-98953008D01*
X142852062Y-99041269D01*
X142852058Y-99041272D01*
X142756874Y-99136457D01*
X142695551Y-99169942D01*
X142625859Y-99164958D01*
X142581512Y-99136457D01*
X142480138Y-99035083D01*
X142334556Y-98947075D01*
X142183856Y-98900116D01*
X142172146Y-98896467D01*
X142172144Y-98896466D01*
X142172142Y-98896466D01*
X142122728Y-98891976D01*
X142101566Y-98890053D01*
X141588334Y-98890053D01*
X141569095Y-98891801D01*
X141517757Y-98896466D01*
X141355343Y-98947075D01*
X141209761Y-99035083D01*
X141089480Y-99155364D01*
X141001472Y-99300946D01*
X140950863Y-99463360D01*
X140944450Y-99533939D01*
X140944450Y-100197166D01*
X140950863Y-100267745D01*
X140950863Y-100267747D01*
X140950864Y-100267749D01*
X141001472Y-100430159D01*
X141088997Y-100574943D01*
X141089480Y-100575741D01*
X141209761Y-100696022D01*
X141209763Y-100696023D01*
X141209765Y-100696025D01*
X141355344Y-100784031D01*
X141517754Y-100834639D01*
X141588334Y-100841053D01*
X141588337Y-100841053D01*
X142101563Y-100841053D01*
X142101566Y-100841053D01*
X142172146Y-100834639D01*
X142334556Y-100784031D01*
X142480135Y-100696025D01*
X142518254Y-100657906D01*
X142581512Y-100594649D01*
X142642835Y-100561164D01*
X142712527Y-100566148D01*
X142756874Y-100594649D01*
X142852058Y-100689833D01*
X142852062Y-100689836D01*
X142995154Y-100778097D01*
X142995157Y-100778098D01*
X142995163Y-100778102D01*
X143154765Y-100830989D01*
X143253276Y-100841053D01*
X143253281Y-100841053D01*
X143786619Y-100841053D01*
X143786624Y-100841053D01*
X143885135Y-100830989D01*
X144044737Y-100778102D01*
X144187841Y-100689834D01*
X144219769Y-100657906D01*
X144281092Y-100624421D01*
X144350784Y-100629405D01*
X144395131Y-100657906D01*
X144427058Y-100689833D01*
X144427062Y-100689836D01*
X144570154Y-100778097D01*
X144570157Y-100778098D01*
X144570163Y-100778102D01*
X144729765Y-100830989D01*
X144828276Y-100841053D01*
X144828281Y-100841053D01*
X145361619Y-100841053D01*
X145361624Y-100841053D01*
X145460135Y-100830989D01*
X145619737Y-100778102D01*
X145762841Y-100689834D01*
X145881731Y-100570944D01*
X145969999Y-100427840D01*
X146022886Y-100268238D01*
X146032950Y-100169727D01*
X146032950Y-99561379D01*
X146022886Y-99462868D01*
X145969999Y-99303266D01*
X145969995Y-99303260D01*
X145969994Y-99303257D01*
X145881733Y-99160165D01*
X145881730Y-99160161D01*
X145809540Y-99087971D01*
X145776055Y-99026648D01*
X145773221Y-99000290D01*
X145773221Y-85547863D01*
X145792906Y-85480824D01*
X145809535Y-85460187D01*
X151270769Y-79998952D01*
X151290205Y-79988340D01*
X151306939Y-79973840D01*
X151320270Y-79971923D01*
X151332092Y-79965468D01*
X151354178Y-79967047D01*
X151376097Y-79963896D01*
X151388348Y-79969491D01*
X151401784Y-79970452D01*
X151419510Y-79983722D01*
X151439653Y-79992921D01*
X151446935Y-80004252D01*
X151457717Y-80012324D01*
X151465454Y-80033069D01*
X151477427Y-80051699D01*
X151480578Y-80073617D01*
X151482134Y-80077788D01*
X151482450Y-80086634D01*
X151482450Y-80117470D01*
X151462765Y-80184509D01*
X151446131Y-80205151D01*
X149380520Y-82270762D01*
X147312580Y-84338702D01*
X147312577Y-84338705D01*
X147218102Y-84433180D01*
X147218100Y-84433182D01*
X147218098Y-84433184D01*
X147175567Y-84496836D01*
X147175568Y-84496837D01*
X147143873Y-84544272D01*
X147092744Y-84667708D01*
X147092742Y-84667714D01*
X147066678Y-84798746D01*
X147066678Y-84938470D01*
X147066679Y-84938491D01*
X147066679Y-102033241D01*
X147046994Y-102100280D01*
X147030360Y-102120922D01*
X143172547Y-105978734D01*
X143111224Y-106012219D01*
X143084866Y-106015053D01*
X141969948Y-106015053D01*
X141969931Y-106015054D01*
X141867153Y-106025553D01*
X141867150Y-106025554D01*
X141700618Y-106080738D01*
X141700613Y-106080740D01*
X141551292Y-106172842D01*
X141427239Y-106296895D01*
X141335137Y-106446216D01*
X141335135Y-106446221D01*
X141307299Y-106530223D01*
X141279951Y-106612756D01*
X141279951Y-106612757D01*
X141279950Y-106612757D01*
X141269450Y-106715536D01*
X141269450Y-108015554D01*
X141269451Y-108015571D01*
X141279950Y-108118349D01*
X141279951Y-108118352D01*
X141288753Y-108144913D01*
X141335136Y-108284887D01*
X141427238Y-108434209D01*
X141551294Y-108558265D01*
X141700616Y-108650367D01*
X141867153Y-108705552D01*
X141969941Y-108716053D01*
X143519958Y-108716052D01*
X143622747Y-108705552D01*
X143789284Y-108650367D01*
X143938606Y-108558265D01*
X144062662Y-108434209D01*
X144154764Y-108284887D01*
X144209949Y-108118350D01*
X144220450Y-108015562D01*
X144220449Y-106900633D01*
X144240134Y-106833595D01*
X144256763Y-106812958D01*
X148177319Y-102892403D01*
X148177323Y-102892401D01*
X148271798Y-102797926D01*
X148346026Y-102686835D01*
X148397156Y-102563397D01*
X148403166Y-102533181D01*
X148423222Y-102432357D01*
X148423222Y-102298749D01*
X148423222Y-102293639D01*
X148423221Y-102293613D01*
X148423221Y-85197863D01*
X148442906Y-85130824D01*
X148459535Y-85110187D01*
X151298960Y-82270761D01*
X151360283Y-82237277D01*
X151429975Y-82242261D01*
X151485908Y-82284133D01*
X151510325Y-82349597D01*
X151509114Y-82377841D01*
X151482450Y-82546192D01*
X151482450Y-82744919D01*
X151500447Y-82858547D01*
X151491492Y-82927840D01*
X151465655Y-82965626D01*
X150218904Y-84212378D01*
X149012580Y-85418702D01*
X149012577Y-85418705D01*
X148975435Y-85455847D01*
X148918102Y-85513179D01*
X148897625Y-85543824D01*
X148897626Y-85543825D01*
X148843873Y-85624272D01*
X148792744Y-85747708D01*
X148792742Y-85747714D01*
X148766678Y-85878746D01*
X148766678Y-86018470D01*
X148766679Y-86018491D01*
X148766679Y-117633242D01*
X148746994Y-117700281D01*
X148730360Y-117720923D01*
X145097549Y-121353734D01*
X145036226Y-121387219D01*
X145009868Y-121390053D01*
X144778268Y-121390053D01*
X144679766Y-121400116D01*
X144679765Y-121400117D01*
X144600669Y-121426326D01*
X144520165Y-121453003D01*
X144520154Y-121453008D01*
X144377062Y-121541269D01*
X144377058Y-121541272D01*
X144345131Y-121573200D01*
X144283808Y-121606685D01*
X144214116Y-121601701D01*
X144169769Y-121573200D01*
X144137841Y-121541272D01*
X144137837Y-121541269D01*
X143994745Y-121453008D01*
X143994739Y-121453005D01*
X143994737Y-121453004D01*
X143835135Y-121400117D01*
X143835133Y-121400116D01*
X143736631Y-121390053D01*
X143736624Y-121390053D01*
X143203276Y-121390053D01*
X143203268Y-121390053D01*
X143104766Y-121400116D01*
X143104765Y-121400117D01*
X143025669Y-121426326D01*
X142945165Y-121453003D01*
X142945154Y-121453008D01*
X142802062Y-121541269D01*
X142802058Y-121541272D01*
X142731874Y-121611457D01*
X142670551Y-121644942D01*
X142600859Y-121639958D01*
X142556512Y-121611457D01*
X142480138Y-121535083D01*
X142334556Y-121447075D01*
X142172146Y-121396467D01*
X142172144Y-121396466D01*
X142172142Y-121396466D01*
X142122728Y-121391976D01*
X142101566Y-121390053D01*
X141588334Y-121390053D01*
X141569095Y-121391801D01*
X141517757Y-121396466D01*
X141355343Y-121447075D01*
X141209761Y-121535083D01*
X141089480Y-121655364D01*
X141001472Y-121800946D01*
X140950863Y-121963360D01*
X140944450Y-122033939D01*
X140944450Y-122697166D01*
X140950863Y-122767745D01*
X140950863Y-122767747D01*
X140950864Y-122767749D01*
X141001472Y-122930159D01*
X141088997Y-123074943D01*
X141089480Y-123075741D01*
X141209761Y-123196022D01*
X141209763Y-123196023D01*
X141209765Y-123196025D01*
X141355344Y-123284031D01*
X141517754Y-123334639D01*
X141588334Y-123341053D01*
X141588337Y-123341053D01*
X142101563Y-123341053D01*
X142101566Y-123341053D01*
X142172146Y-123334639D01*
X142334556Y-123284031D01*
X142480135Y-123196025D01*
X142518254Y-123157906D01*
X142556512Y-123119649D01*
X142617835Y-123086164D01*
X142687527Y-123091148D01*
X142731874Y-123119649D01*
X142802058Y-123189833D01*
X142802062Y-123189836D01*
X142945154Y-123278097D01*
X142945157Y-123278098D01*
X142945163Y-123278102D01*
X143104765Y-123330989D01*
X143203276Y-123341053D01*
X143203281Y-123341053D01*
X143736619Y-123341053D01*
X143736624Y-123341053D01*
X143835135Y-123330989D01*
X143994737Y-123278102D01*
X144137841Y-123189834D01*
X144169769Y-123157906D01*
X144231092Y-123124421D01*
X144300784Y-123129405D01*
X144345131Y-123157906D01*
X144377058Y-123189833D01*
X144377062Y-123189836D01*
X144520154Y-123278097D01*
X144520157Y-123278098D01*
X144520163Y-123278102D01*
X144679765Y-123330989D01*
X144778276Y-123341053D01*
X144778281Y-123341053D01*
X145311619Y-123341053D01*
X145311624Y-123341053D01*
X145410135Y-123330989D01*
X145569737Y-123278102D01*
X145712841Y-123189834D01*
X145831731Y-123070944D01*
X145919999Y-122927840D01*
X145972886Y-122768238D01*
X145982950Y-122669727D01*
X145982950Y-122438134D01*
X146002635Y-122371095D01*
X146019264Y-122350458D01*
X149877319Y-118492403D01*
X149877323Y-118492401D01*
X149971798Y-118397926D01*
X150046026Y-118286835D01*
X150097156Y-118163397D01*
X150105137Y-118123273D01*
X150123222Y-118032357D01*
X150123222Y-117898749D01*
X150123222Y-117893639D01*
X150123221Y-117893613D01*
X150123221Y-86277863D01*
X150142906Y-86210824D01*
X150159535Y-86190187D01*
X151270769Y-85078952D01*
X151332092Y-85045468D01*
X151401784Y-85050452D01*
X151457717Y-85092324D01*
X151482134Y-85157788D01*
X151482450Y-85166634D01*
X151482450Y-85284913D01*
X151513537Y-85481190D01*
X151574943Y-85670182D01*
X151574944Y-85670185D01*
X151643007Y-85803764D01*
X151665163Y-85847247D01*
X151781969Y-86008017D01*
X151922486Y-86148534D01*
X152083256Y-86265340D01*
X152107834Y-86277863D01*
X152239730Y-86345068D01*
X152290526Y-86393043D01*
X152307321Y-86460864D01*
X152284783Y-86526999D01*
X152239730Y-86566038D01*
X152083255Y-86645766D01*
X151922483Y-86762574D01*
X151781971Y-86903086D01*
X151665163Y-87063858D01*
X151574944Y-87240920D01*
X151574943Y-87240923D01*
X151513537Y-87429915D01*
X151482450Y-87626192D01*
X151482450Y-87824913D01*
X151513537Y-88021190D01*
X151574943Y-88210182D01*
X151574944Y-88210185D01*
X151665163Y-88387247D01*
X151781969Y-88548017D01*
X151922486Y-88688534D01*
X152083256Y-88805340D01*
X152201782Y-88865732D01*
X152239730Y-88885068D01*
X152290526Y-88933043D01*
X152307321Y-89000864D01*
X152284783Y-89066999D01*
X152239730Y-89106038D01*
X152083255Y-89185766D01*
X151922483Y-89302574D01*
X151781971Y-89443086D01*
X151665163Y-89603858D01*
X151574944Y-89780920D01*
X151574943Y-89780923D01*
X151513537Y-89969915D01*
X151488336Y-90129030D01*
X151482450Y-90166192D01*
X151482450Y-90364914D01*
X151485468Y-90383967D01*
X151513537Y-90561190D01*
X151574943Y-90750182D01*
X151574944Y-90750185D01*
X151665163Y-90927247D01*
X151781969Y-91088017D01*
X151922486Y-91228534D01*
X152083256Y-91345340D01*
X152201782Y-91405732D01*
X152239730Y-91425068D01*
X152290526Y-91473043D01*
X152307321Y-91540864D01*
X152284783Y-91606999D01*
X152239730Y-91646038D01*
X152083255Y-91725766D01*
X151922483Y-91842574D01*
X151781971Y-91983086D01*
X151665163Y-92143858D01*
X151574944Y-92320920D01*
X151574943Y-92320923D01*
X151513537Y-92509915D01*
X151482450Y-92706192D01*
X151482450Y-92904913D01*
X151513537Y-93101190D01*
X151574943Y-93290182D01*
X151574944Y-93290185D01*
X151628685Y-93395656D01*
X151665163Y-93467247D01*
X151781969Y-93628017D01*
X151922486Y-93768534D01*
X152083256Y-93885340D01*
X152201782Y-93945732D01*
X152239730Y-93965068D01*
X152290526Y-94013043D01*
X152307321Y-94080864D01*
X152284783Y-94146999D01*
X152239730Y-94186038D01*
X152083255Y-94265766D01*
X151922483Y-94382574D01*
X151781971Y-94523086D01*
X151665163Y-94683858D01*
X151574944Y-94860920D01*
X151574943Y-94860923D01*
X151513537Y-95049915D01*
X151482450Y-95246192D01*
X151482450Y-95444913D01*
X151513537Y-95641190D01*
X151574943Y-95830182D01*
X151574944Y-95830185D01*
X151608307Y-95895662D01*
X151665163Y-96007247D01*
X151781969Y-96168017D01*
X151922486Y-96308534D01*
X152083256Y-96425340D01*
X152201782Y-96485732D01*
X152239730Y-96505068D01*
X152290526Y-96553043D01*
X152307321Y-96620864D01*
X152284783Y-96686999D01*
X152239730Y-96726038D01*
X152083255Y-96805766D01*
X151922483Y-96922574D01*
X151781971Y-97063086D01*
X151665163Y-97223858D01*
X151574944Y-97400920D01*
X151574943Y-97400923D01*
X151513537Y-97589915D01*
X151482450Y-97786192D01*
X151482450Y-97984913D01*
X151513537Y-98181190D01*
X151574943Y-98370182D01*
X151574944Y-98370185D01*
X151665163Y-98547247D01*
X151781969Y-98708017D01*
X151922486Y-98848534D01*
X152083256Y-98965340D01*
X152151849Y-99000290D01*
X152239730Y-99045068D01*
X152290526Y-99093043D01*
X152307321Y-99160864D01*
X152284783Y-99226999D01*
X152239730Y-99266038D01*
X152083255Y-99345766D01*
X151922483Y-99462574D01*
X151781971Y-99603086D01*
X151665163Y-99763858D01*
X151574944Y-99940920D01*
X151574943Y-99940923D01*
X151513537Y-100129915D01*
X151502886Y-100197166D01*
X151482450Y-100326192D01*
X151482450Y-100524914D01*
X151490375Y-100574950D01*
X151513537Y-100721190D01*
X151574943Y-100910182D01*
X151574944Y-100910185D01*
X151665163Y-101087247D01*
X151781969Y-101248017D01*
X151922486Y-101388534D01*
X152083256Y-101505340D01*
X152201782Y-101565732D01*
X152239730Y-101585068D01*
X152290526Y-101633043D01*
X152307321Y-101700864D01*
X152284783Y-101766999D01*
X152239730Y-101806038D01*
X152083255Y-101885766D01*
X151922483Y-102002574D01*
X151781971Y-102143086D01*
X151665163Y-102303858D01*
X151574944Y-102480920D01*
X151574943Y-102480923D01*
X151513537Y-102669915D01*
X151482450Y-102866192D01*
X151482450Y-103064913D01*
X151513537Y-103261190D01*
X151574943Y-103450182D01*
X151574944Y-103450185D01*
X151665163Y-103627247D01*
X151781969Y-103788017D01*
X151922486Y-103928534D01*
X152083256Y-104045340D01*
X152201782Y-104105732D01*
X152239730Y-104125068D01*
X152290526Y-104173043D01*
X152307321Y-104240864D01*
X152284783Y-104306999D01*
X152239730Y-104346038D01*
X152083255Y-104425766D01*
X151922483Y-104542574D01*
X151781971Y-104683086D01*
X151665163Y-104843858D01*
X151574944Y-105020920D01*
X151574943Y-105020923D01*
X151513537Y-105209915D01*
X151482450Y-105406192D01*
X151482450Y-105604913D01*
X151513537Y-105801190D01*
X151574943Y-105990182D01*
X151574944Y-105990185D01*
X151621085Y-106080740D01*
X151665163Y-106167247D01*
X151781969Y-106328017D01*
X151922486Y-106468534D01*
X152083256Y-106585340D01*
X152137057Y-106612753D01*
X152239730Y-106665068D01*
X152290526Y-106713043D01*
X152307321Y-106780864D01*
X152284783Y-106846999D01*
X152239730Y-106886038D01*
X152083255Y-106965766D01*
X151922483Y-107082574D01*
X151781971Y-107223086D01*
X151665163Y-107383858D01*
X151574944Y-107560920D01*
X151574943Y-107560923D01*
X151513537Y-107749915D01*
X151482450Y-107946192D01*
X151482450Y-108144913D01*
X151513537Y-108341190D01*
X151574943Y-108530182D01*
X151574944Y-108530185D01*
X151636180Y-108650365D01*
X151665163Y-108707247D01*
X151781969Y-108868017D01*
X151922486Y-109008534D01*
X152083256Y-109125340D01*
X152201782Y-109185732D01*
X152239730Y-109205068D01*
X152290526Y-109253043D01*
X152307321Y-109320864D01*
X152284783Y-109386999D01*
X152239730Y-109426038D01*
X152083255Y-109505766D01*
X151922483Y-109622574D01*
X151781971Y-109763086D01*
X151665163Y-109923858D01*
X151574944Y-110100920D01*
X151574943Y-110100923D01*
X151513537Y-110289915D01*
X151482450Y-110486192D01*
X151482450Y-110684913D01*
X151513537Y-110881190D01*
X151574943Y-111070182D01*
X151574944Y-111070185D01*
X151597268Y-111113997D01*
X151665163Y-111247247D01*
X151781969Y-111408017D01*
X151922486Y-111548534D01*
X152083256Y-111665340D01*
X152201782Y-111725732D01*
X152239730Y-111745068D01*
X152290526Y-111793043D01*
X152307321Y-111860864D01*
X152284783Y-111926999D01*
X152239730Y-111966038D01*
X152083255Y-112045766D01*
X151922483Y-112162574D01*
X151781971Y-112303086D01*
X151665163Y-112463858D01*
X151574944Y-112640920D01*
X151574943Y-112640923D01*
X151513537Y-112829915D01*
X151482450Y-113026192D01*
X151482450Y-113224913D01*
X151513537Y-113421190D01*
X151574943Y-113610182D01*
X151574944Y-113610185D01*
X151626059Y-113710502D01*
X151665163Y-113787247D01*
X151781969Y-113948017D01*
X151922486Y-114088534D01*
X152083256Y-114205340D01*
X152201782Y-114265732D01*
X152239730Y-114285068D01*
X152290526Y-114333043D01*
X152307321Y-114400864D01*
X152284783Y-114466999D01*
X152239730Y-114506038D01*
X152083255Y-114585766D01*
X151922483Y-114702574D01*
X151781971Y-114843086D01*
X151665163Y-115003858D01*
X151574944Y-115180920D01*
X151574943Y-115180923D01*
X151513537Y-115369915D01*
X151482450Y-115566192D01*
X151482450Y-115764913D01*
X151513537Y-115961190D01*
X151574943Y-116150182D01*
X151574944Y-116150185D01*
X151608414Y-116215872D01*
X151665163Y-116327247D01*
X151781969Y-116488017D01*
X151922486Y-116628534D01*
X152083256Y-116745340D01*
X152154548Y-116781665D01*
X152239730Y-116825068D01*
X152290526Y-116873043D01*
X152307321Y-116940864D01*
X152284783Y-117006999D01*
X152239730Y-117046038D01*
X152083255Y-117125766D01*
X151922483Y-117242574D01*
X151781971Y-117383086D01*
X151665163Y-117543858D01*
X151574944Y-117720920D01*
X151574943Y-117720923D01*
X151513537Y-117909915D01*
X151502881Y-117977196D01*
X151482450Y-118106192D01*
X151482450Y-118304914D01*
X151496822Y-118395657D01*
X151513537Y-118501190D01*
X151574943Y-118690182D01*
X151574944Y-118690185D01*
X151602634Y-118744528D01*
X151665163Y-118867247D01*
X151781969Y-119028017D01*
X151922486Y-119168534D01*
X152083256Y-119285340D01*
X152201782Y-119345732D01*
X152239730Y-119365068D01*
X152290526Y-119413043D01*
X152307321Y-119480864D01*
X152284783Y-119546999D01*
X152239730Y-119586038D01*
X152083255Y-119665766D01*
X151922483Y-119782574D01*
X151781971Y-119923086D01*
X151665163Y-120083858D01*
X151574944Y-120260920D01*
X151574943Y-120260923D01*
X151513537Y-120449915D01*
X151482450Y-120646192D01*
X151482450Y-120844913D01*
X151513537Y-121041190D01*
X151574943Y-121230182D01*
X151574944Y-121230185D01*
X151654958Y-121387219D01*
X151665163Y-121407247D01*
X151781969Y-121568017D01*
X151922486Y-121708534D01*
X152083256Y-121825340D01*
X152141977Y-121855260D01*
X152260317Y-121915558D01*
X152260320Y-121915559D01*
X152288651Y-121924764D01*
X152449314Y-121976966D01*
X152645589Y-122008053D01*
X152645590Y-122008053D01*
X152844310Y-122008053D01*
X152844311Y-122008053D01*
X153040586Y-121976966D01*
X153229582Y-121915558D01*
X153406644Y-121825340D01*
X153567414Y-121708534D01*
X153707931Y-121568017D01*
X153824737Y-121407247D01*
X153914955Y-121230185D01*
X153976363Y-121041189D01*
X154007450Y-120844914D01*
X154007450Y-120646192D01*
X153976363Y-120449917D01*
X153927211Y-120298642D01*
X153914956Y-120260923D01*
X153914955Y-120260920D01*
X153850891Y-120135189D01*
X153824737Y-120083859D01*
X153707931Y-119923089D01*
X153567414Y-119782572D01*
X153406644Y-119665766D01*
X153250168Y-119586037D01*
X153199373Y-119538063D01*
X153182578Y-119470242D01*
X153205115Y-119404107D01*
X153250168Y-119365068D01*
X153406644Y-119285340D01*
X153567414Y-119168534D01*
X153707931Y-119028017D01*
X153824737Y-118867247D01*
X153914955Y-118690185D01*
X153976363Y-118501189D01*
X154007450Y-118304914D01*
X154007450Y-118106192D01*
X153976363Y-117909917D01*
X153914955Y-117720921D01*
X153914955Y-117720920D01*
X153824736Y-117543858D01*
X153772412Y-117471840D01*
X153707931Y-117383089D01*
X153567414Y-117242572D01*
X153406644Y-117125766D01*
X153250168Y-117046037D01*
X153199373Y-116998063D01*
X153182578Y-116930242D01*
X153205115Y-116864107D01*
X153250168Y-116825068D01*
X153406644Y-116745340D01*
X153567414Y-116628534D01*
X153707931Y-116488017D01*
X153824737Y-116327247D01*
X153914955Y-116150185D01*
X153976363Y-115961189D01*
X154007450Y-115764914D01*
X154007450Y-115566192D01*
X153976363Y-115369917D01*
X153926614Y-115216804D01*
X153914956Y-115180923D01*
X153914955Y-115180920D01*
X153824736Y-115003858D01*
X153819318Y-114996401D01*
X153707931Y-114843089D01*
X153567414Y-114702572D01*
X153406644Y-114585766D01*
X153250168Y-114506037D01*
X153199373Y-114458063D01*
X153182578Y-114390242D01*
X153205115Y-114324107D01*
X153250168Y-114285068D01*
X153406644Y-114205340D01*
X153567414Y-114088534D01*
X153707931Y-113948017D01*
X153824737Y-113787247D01*
X153914955Y-113610185D01*
X153976363Y-113421189D01*
X154007450Y-113224914D01*
X154007450Y-113026192D01*
X153976363Y-112829917D01*
X153914955Y-112640921D01*
X153914955Y-112640920D01*
X153868985Y-112550702D01*
X153824737Y-112463859D01*
X153707931Y-112303089D01*
X153567414Y-112162572D01*
X153406644Y-112045766D01*
X153250168Y-111966037D01*
X153199373Y-111918063D01*
X153182578Y-111850242D01*
X153205115Y-111784107D01*
X153250168Y-111745068D01*
X153406644Y-111665340D01*
X153567414Y-111548534D01*
X153707931Y-111408017D01*
X153824737Y-111247247D01*
X153914955Y-111070185D01*
X153976363Y-110881189D01*
X154007450Y-110684914D01*
X154007450Y-110486192D01*
X153976363Y-110289917D01*
X153914955Y-110100921D01*
X153914955Y-110100920D01*
X153824736Y-109923858D01*
X153707931Y-109763089D01*
X153567414Y-109622572D01*
X153406644Y-109505766D01*
X153250168Y-109426037D01*
X153199373Y-109378063D01*
X153182578Y-109310242D01*
X153205115Y-109244107D01*
X153250168Y-109205068D01*
X153406644Y-109125340D01*
X153567414Y-109008534D01*
X153707931Y-108868017D01*
X153824737Y-108707247D01*
X153904465Y-108550771D01*
X153952440Y-108499976D01*
X154020261Y-108483181D01*
X154086396Y-108505718D01*
X154125434Y-108550771D01*
X154205163Y-108707247D01*
X154321969Y-108868017D01*
X154462486Y-109008534D01*
X154623256Y-109125340D01*
X154710099Y-109169588D01*
X154800317Y-109215558D01*
X154800320Y-109215559D01*
X154894816Y-109246262D01*
X154989314Y-109276966D01*
X155185589Y-109308053D01*
X155185590Y-109308053D01*
X155384310Y-109308053D01*
X155384311Y-109308053D01*
X155580586Y-109276966D01*
X155769582Y-109215558D01*
X155946644Y-109125340D01*
X156107414Y-109008534D01*
X156247931Y-108868017D01*
X156364737Y-108707247D01*
X156444465Y-108550771D01*
X156492440Y-108499976D01*
X156560261Y-108483181D01*
X156626396Y-108505718D01*
X156665434Y-108550771D01*
X156745163Y-108707247D01*
X156861969Y-108868017D01*
X157002486Y-109008534D01*
X157163256Y-109125340D01*
X157250099Y-109169588D01*
X157340317Y-109215558D01*
X157340320Y-109215559D01*
X157434816Y-109246262D01*
X157529314Y-109276966D01*
X157725589Y-109308053D01*
X157725590Y-109308053D01*
X157924310Y-109308053D01*
X157924311Y-109308053D01*
X158120586Y-109276966D01*
X158309582Y-109215558D01*
X158486644Y-109125340D01*
X158647414Y-109008534D01*
X158787931Y-108868017D01*
X158904737Y-108707247D01*
X158994955Y-108530185D01*
X159056363Y-108341189D01*
X159087450Y-108144914D01*
X159087450Y-107946192D01*
X159056363Y-107749917D01*
X158994955Y-107560921D01*
X158994955Y-107560920D01*
X158904736Y-107383858D01*
X158787931Y-107223089D01*
X158647414Y-107082572D01*
X158647413Y-107082571D01*
X158554334Y-107014944D01*
X158511669Y-106959614D01*
X158503221Y-106914627D01*
X158503221Y-103038491D01*
X158503222Y-103038470D01*
X158503222Y-102898746D01*
X158477157Y-102767714D01*
X158477156Y-102767713D01*
X158477156Y-102767709D01*
X158426026Y-102644271D01*
X158371988Y-102563397D01*
X158351798Y-102533180D01*
X158257323Y-102438705D01*
X158257319Y-102438702D01*
X156144809Y-100326192D01*
X166722450Y-100326192D01*
X166722450Y-100524914D01*
X166730375Y-100574950D01*
X166753537Y-100721190D01*
X166814943Y-100910182D01*
X166814944Y-100910185D01*
X166905163Y-101087247D01*
X167021969Y-101248017D01*
X167162486Y-101388534D01*
X167323256Y-101505340D01*
X167441782Y-101565732D01*
X167479730Y-101585068D01*
X167530526Y-101633043D01*
X167547321Y-101700864D01*
X167524783Y-101766999D01*
X167479730Y-101806038D01*
X167323255Y-101885766D01*
X167162483Y-102002574D01*
X167021971Y-102143086D01*
X166905163Y-102303858D01*
X166814944Y-102480920D01*
X166814943Y-102480923D01*
X166753537Y-102669915D01*
X166722450Y-102866192D01*
X166722450Y-103064913D01*
X166753537Y-103261190D01*
X166814943Y-103450182D01*
X166814944Y-103450185D01*
X166905163Y-103627247D01*
X167021969Y-103788017D01*
X167162486Y-103928534D01*
X167323256Y-104045340D01*
X167441782Y-104105732D01*
X167479730Y-104125068D01*
X167530526Y-104173043D01*
X167547321Y-104240864D01*
X167524783Y-104306999D01*
X167479730Y-104346038D01*
X167323255Y-104425766D01*
X167162483Y-104542574D01*
X167021971Y-104683086D01*
X166905163Y-104843858D01*
X166814944Y-105020920D01*
X166814943Y-105020923D01*
X166753537Y-105209915D01*
X166722450Y-105406192D01*
X166722450Y-105604913D01*
X166753537Y-105801190D01*
X166814943Y-105990182D01*
X166814944Y-105990185D01*
X166861085Y-106080740D01*
X166905163Y-106167247D01*
X167021969Y-106328017D01*
X167162486Y-106468534D01*
X167323256Y-106585340D01*
X167377057Y-106612753D01*
X167479730Y-106665068D01*
X167530526Y-106713043D01*
X167547321Y-106780864D01*
X167524783Y-106846999D01*
X167479730Y-106886038D01*
X167323255Y-106965766D01*
X167162483Y-107082574D01*
X167021971Y-107223086D01*
X166905163Y-107383858D01*
X166814944Y-107560920D01*
X166814943Y-107560923D01*
X166753537Y-107749915D01*
X166722450Y-107946192D01*
X166722450Y-108144913D01*
X166753537Y-108341190D01*
X166814943Y-108530182D01*
X166814944Y-108530185D01*
X166876180Y-108650365D01*
X166905163Y-108707247D01*
X167021969Y-108868017D01*
X167162486Y-109008534D01*
X167323256Y-109125340D01*
X167441782Y-109185732D01*
X167479730Y-109205068D01*
X167530526Y-109253043D01*
X167547321Y-109320864D01*
X167524783Y-109386999D01*
X167479730Y-109426038D01*
X167323255Y-109505766D01*
X167162483Y-109622574D01*
X167021971Y-109763086D01*
X166905163Y-109923858D01*
X166814944Y-110100920D01*
X166814943Y-110100923D01*
X166753537Y-110289915D01*
X166722450Y-110486192D01*
X166722450Y-110684913D01*
X166753537Y-110881190D01*
X166814943Y-111070182D01*
X166814944Y-111070185D01*
X166837268Y-111113997D01*
X166905163Y-111247247D01*
X167021969Y-111408017D01*
X167162486Y-111548534D01*
X167323256Y-111665340D01*
X167441782Y-111725732D01*
X167479730Y-111745068D01*
X167530526Y-111793043D01*
X167547321Y-111860864D01*
X167524783Y-111926999D01*
X167479730Y-111966038D01*
X167323255Y-112045766D01*
X167162483Y-112162574D01*
X167021971Y-112303086D01*
X166905163Y-112463858D01*
X166814944Y-112640920D01*
X166814943Y-112640923D01*
X166753537Y-112829915D01*
X166722450Y-113026192D01*
X166722450Y-113224913D01*
X166753537Y-113421190D01*
X166814943Y-113610182D01*
X166814944Y-113610185D01*
X166866059Y-113710502D01*
X166905163Y-113787247D01*
X167021969Y-113948017D01*
X167162486Y-114088534D01*
X167323256Y-114205340D01*
X167441782Y-114265732D01*
X167479730Y-114285068D01*
X167530526Y-114333043D01*
X167547321Y-114400864D01*
X167524783Y-114466999D01*
X167479730Y-114506038D01*
X167323255Y-114585766D01*
X167162483Y-114702574D01*
X167021971Y-114843086D01*
X166905163Y-115003858D01*
X166814944Y-115180920D01*
X166814943Y-115180923D01*
X166753537Y-115369915D01*
X166722450Y-115566192D01*
X166722450Y-115764913D01*
X166753537Y-115961190D01*
X166814943Y-116150182D01*
X166814944Y-116150185D01*
X166848414Y-116215872D01*
X166905163Y-116327247D01*
X167021969Y-116488017D01*
X167162486Y-116628534D01*
X167323256Y-116745340D01*
X167394548Y-116781665D01*
X167479730Y-116825068D01*
X167530526Y-116873043D01*
X167547321Y-116940864D01*
X167524783Y-117006999D01*
X167479730Y-117046038D01*
X167323255Y-117125766D01*
X167162483Y-117242574D01*
X167021971Y-117383086D01*
X166905163Y-117543858D01*
X166814944Y-117720920D01*
X166814943Y-117720923D01*
X166753537Y-117909915D01*
X166742881Y-117977196D01*
X166722450Y-118106192D01*
X166722450Y-118304914D01*
X166736822Y-118395657D01*
X166753537Y-118501190D01*
X166814943Y-118690182D01*
X166814944Y-118690185D01*
X166842634Y-118744528D01*
X166905163Y-118867247D01*
X167021969Y-119028017D01*
X167162486Y-119168534D01*
X167323256Y-119285340D01*
X167441782Y-119345732D01*
X167479730Y-119365068D01*
X167530526Y-119413043D01*
X167547321Y-119480864D01*
X167524783Y-119546999D01*
X167479730Y-119586038D01*
X167323255Y-119665766D01*
X167162483Y-119782574D01*
X167021971Y-119923086D01*
X166905163Y-120083858D01*
X166814944Y-120260920D01*
X166814943Y-120260923D01*
X166753537Y-120449915D01*
X166722450Y-120646192D01*
X166722450Y-120844913D01*
X166753537Y-121041190D01*
X166814943Y-121230182D01*
X166814944Y-121230185D01*
X166894958Y-121387219D01*
X166905163Y-121407247D01*
X167021969Y-121568017D01*
X167162486Y-121708534D01*
X167323256Y-121825340D01*
X167381977Y-121855260D01*
X167500317Y-121915558D01*
X167500320Y-121915559D01*
X167528651Y-121924764D01*
X167689314Y-121976966D01*
X167885589Y-122008053D01*
X167885590Y-122008053D01*
X168084310Y-122008053D01*
X168084311Y-122008053D01*
X168280586Y-121976966D01*
X168469582Y-121915558D01*
X168646644Y-121825340D01*
X168807414Y-121708534D01*
X168947931Y-121568017D01*
X169064737Y-121407247D01*
X169154955Y-121230185D01*
X169216363Y-121041189D01*
X169247450Y-120844914D01*
X169247450Y-120646192D01*
X169216363Y-120449917D01*
X169167211Y-120298642D01*
X169154956Y-120260923D01*
X169154955Y-120260920D01*
X169090891Y-120135189D01*
X169064737Y-120083859D01*
X168947931Y-119923089D01*
X168807414Y-119782572D01*
X168646644Y-119665766D01*
X168490168Y-119586037D01*
X168439373Y-119538063D01*
X168422578Y-119470242D01*
X168445115Y-119404107D01*
X168490168Y-119365068D01*
X168646644Y-119285340D01*
X168807414Y-119168534D01*
X168947931Y-119028017D01*
X169064737Y-118867247D01*
X169154955Y-118690185D01*
X169216363Y-118501189D01*
X169247450Y-118304914D01*
X169247450Y-118106192D01*
X169216363Y-117909917D01*
X169154955Y-117720921D01*
X169154955Y-117720920D01*
X169064736Y-117543858D01*
X169012412Y-117471840D01*
X168947931Y-117383089D01*
X168807414Y-117242572D01*
X168646644Y-117125766D01*
X168490168Y-117046037D01*
X168439373Y-116998063D01*
X168422578Y-116930242D01*
X168445115Y-116864107D01*
X168490168Y-116825068D01*
X168646644Y-116745340D01*
X168807414Y-116628534D01*
X168947931Y-116488017D01*
X169064737Y-116327247D01*
X169154955Y-116150185D01*
X169216363Y-115961189D01*
X169247450Y-115764914D01*
X169247450Y-115566192D01*
X169216363Y-115369917D01*
X169166614Y-115216804D01*
X169154956Y-115180923D01*
X169154955Y-115180920D01*
X169064736Y-115003858D01*
X169059318Y-114996401D01*
X168947931Y-114843089D01*
X168807414Y-114702572D01*
X168646644Y-114585766D01*
X168490168Y-114506037D01*
X168439373Y-114458063D01*
X168422578Y-114390242D01*
X168445115Y-114324107D01*
X168490168Y-114285068D01*
X168646644Y-114205340D01*
X168807414Y-114088534D01*
X168947931Y-113948017D01*
X169064737Y-113787247D01*
X169154955Y-113610185D01*
X169216363Y-113421189D01*
X169247450Y-113224914D01*
X169247450Y-113026192D01*
X169216363Y-112829917D01*
X169154955Y-112640921D01*
X169154955Y-112640920D01*
X169108985Y-112550702D01*
X169064737Y-112463859D01*
X168947931Y-112303089D01*
X168807414Y-112162572D01*
X168646644Y-112045766D01*
X168490168Y-111966037D01*
X168439373Y-111918063D01*
X168422578Y-111850242D01*
X168445115Y-111784107D01*
X168490168Y-111745068D01*
X168646644Y-111665340D01*
X168807414Y-111548534D01*
X168947931Y-111408017D01*
X169064737Y-111247247D01*
X169154955Y-111070185D01*
X169216363Y-110881189D01*
X169247450Y-110684914D01*
X169247450Y-110486192D01*
X169216363Y-110289917D01*
X169154955Y-110100921D01*
X169154955Y-110100920D01*
X169064736Y-109923858D01*
X168947931Y-109763089D01*
X168807414Y-109622572D01*
X168646644Y-109505766D01*
X168490168Y-109426037D01*
X168439373Y-109378063D01*
X168422578Y-109310242D01*
X168445115Y-109244107D01*
X168490168Y-109205068D01*
X168646644Y-109125340D01*
X168807414Y-109008534D01*
X168947931Y-108868017D01*
X169064737Y-108707247D01*
X169154955Y-108530185D01*
X169216363Y-108341189D01*
X169247450Y-108144914D01*
X169247450Y-107946192D01*
X169216363Y-107749917D01*
X169154955Y-107560921D01*
X169154955Y-107560920D01*
X169064736Y-107383858D01*
X168947931Y-107223089D01*
X168807414Y-107082572D01*
X168646644Y-106965766D01*
X168490168Y-106886037D01*
X168439373Y-106838063D01*
X168422578Y-106770242D01*
X168445115Y-106704107D01*
X168490168Y-106665068D01*
X168646644Y-106585340D01*
X168807414Y-106468534D01*
X168947931Y-106328017D01*
X169064737Y-106167247D01*
X169154955Y-105990185D01*
X169216363Y-105801189D01*
X169247450Y-105604914D01*
X169247450Y-105406192D01*
X169216363Y-105209917D01*
X169154955Y-105020921D01*
X169154955Y-105020920D01*
X169064736Y-104843858D01*
X168947931Y-104683089D01*
X168807414Y-104542572D01*
X168646644Y-104425766D01*
X168490168Y-104346037D01*
X168439373Y-104298063D01*
X168422578Y-104230242D01*
X168445115Y-104164107D01*
X168490168Y-104125068D01*
X168646644Y-104045340D01*
X168807414Y-103928534D01*
X168947931Y-103788017D01*
X169064737Y-103627247D01*
X169154955Y-103450185D01*
X169216363Y-103261189D01*
X169247450Y-103064914D01*
X169247450Y-102866192D01*
X169216363Y-102669917D01*
X169154955Y-102480921D01*
X169154955Y-102480920D01*
X169064736Y-102303858D01*
X169061020Y-102298743D01*
X168947931Y-102143089D01*
X168807414Y-102002572D01*
X168646644Y-101885766D01*
X168490168Y-101806037D01*
X168439373Y-101758063D01*
X168422578Y-101690242D01*
X168445115Y-101624107D01*
X168490168Y-101585068D01*
X168646644Y-101505340D01*
X168807414Y-101388534D01*
X168947931Y-101248017D01*
X169064737Y-101087247D01*
X169154955Y-100910185D01*
X169216363Y-100721189D01*
X169247450Y-100524914D01*
X169247450Y-100326192D01*
X169216363Y-100129917D01*
X169156085Y-99944399D01*
X169154956Y-99940923D01*
X169154955Y-99940920D01*
X169108985Y-99850702D01*
X169064737Y-99763859D01*
X168947931Y-99603089D01*
X168807414Y-99462572D01*
X168646644Y-99345766D01*
X168469582Y-99255547D01*
X168469579Y-99255546D01*
X168280587Y-99194140D01*
X168127806Y-99169942D01*
X168084311Y-99163053D01*
X167885589Y-99163053D01*
X167842094Y-99169942D01*
X167689312Y-99194140D01*
X167500320Y-99255546D01*
X167500317Y-99255547D01*
X167323255Y-99345766D01*
X167162483Y-99462574D01*
X167021971Y-99603086D01*
X166905163Y-99763858D01*
X166814944Y-99940920D01*
X166814943Y-99940923D01*
X166753537Y-100129915D01*
X166742886Y-100197166D01*
X166722450Y-100326192D01*
X156144809Y-100326192D01*
X154024243Y-98205626D01*
X153990758Y-98144303D01*
X153989451Y-98098552D01*
X154007450Y-97984914D01*
X154007450Y-97786192D01*
X153989451Y-97672554D01*
X153998405Y-97603264D01*
X154024240Y-97565481D01*
X162008809Y-89580914D01*
X162070132Y-89547429D01*
X162096490Y-89544595D01*
X166733009Y-89544595D01*
X166800048Y-89564280D01*
X166845803Y-89617084D01*
X166855747Y-89686242D01*
X166843494Y-89724890D01*
X166814945Y-89780920D01*
X166814943Y-89780923D01*
X166753537Y-89969915D01*
X166728336Y-90129030D01*
X166722450Y-90166192D01*
X166722450Y-90364914D01*
X166725468Y-90383967D01*
X166753537Y-90561190D01*
X166814943Y-90750182D01*
X166814944Y-90750185D01*
X166905163Y-90927247D01*
X167021969Y-91088017D01*
X167162486Y-91228534D01*
X167323256Y-91345340D01*
X167441782Y-91405732D01*
X167479730Y-91425068D01*
X167530526Y-91473043D01*
X167547321Y-91540864D01*
X167524783Y-91606999D01*
X167479730Y-91646038D01*
X167323255Y-91725766D01*
X167162483Y-91842574D01*
X167021971Y-91983086D01*
X166905163Y-92143858D01*
X166814944Y-92320920D01*
X166814943Y-92320923D01*
X166753537Y-92509915D01*
X166722450Y-92706192D01*
X166722450Y-92904913D01*
X166753537Y-93101190D01*
X166814943Y-93290182D01*
X166814944Y-93290185D01*
X166868685Y-93395656D01*
X166905163Y-93467247D01*
X167021969Y-93628017D01*
X167162486Y-93768534D01*
X167323256Y-93885340D01*
X167441782Y-93945732D01*
X167479730Y-93965068D01*
X167530526Y-94013043D01*
X167547321Y-94080864D01*
X167524783Y-94146999D01*
X167479730Y-94186038D01*
X167323255Y-94265766D01*
X167162483Y-94382574D01*
X167021971Y-94523086D01*
X166905163Y-94683858D01*
X166814944Y-94860920D01*
X166814943Y-94860923D01*
X166753537Y-95049915D01*
X166722450Y-95246192D01*
X166722450Y-95444913D01*
X166753537Y-95641190D01*
X166814943Y-95830182D01*
X166814944Y-95830185D01*
X166848307Y-95895662D01*
X166905163Y-96007247D01*
X167021969Y-96168017D01*
X167162486Y-96308534D01*
X167323256Y-96425340D01*
X167410099Y-96469588D01*
X167500317Y-96515558D01*
X167500320Y-96515559D01*
X167594816Y-96546262D01*
X167689314Y-96576966D01*
X167885589Y-96608053D01*
X167885590Y-96608053D01*
X168084310Y-96608053D01*
X168084311Y-96608053D01*
X168280586Y-96576966D01*
X168469582Y-96515558D01*
X168646644Y-96425340D01*
X168807414Y-96308534D01*
X168947931Y-96168017D01*
X169064737Y-96007247D01*
X169154955Y-95830185D01*
X169216363Y-95641189D01*
X169247450Y-95444914D01*
X169247450Y-95246192D01*
X169216363Y-95049917D01*
X169154955Y-94860921D01*
X169154955Y-94860920D01*
X169064736Y-94683858D01*
X169000482Y-94595420D01*
X168947931Y-94523089D01*
X168807414Y-94382572D01*
X168646644Y-94265766D01*
X168490168Y-94186037D01*
X168439373Y-94138063D01*
X168422578Y-94070242D01*
X168445115Y-94004107D01*
X168490168Y-93965068D01*
X168646644Y-93885340D01*
X168807414Y-93768534D01*
X168947931Y-93628017D01*
X169064737Y-93467247D01*
X169154955Y-93290185D01*
X169216363Y-93101189D01*
X169247450Y-92904914D01*
X169247450Y-92706192D01*
X169216363Y-92509917D01*
X169154955Y-92320921D01*
X169154955Y-92320920D01*
X169064736Y-92143858D01*
X168968209Y-92011000D01*
X168947931Y-91983089D01*
X168807414Y-91842572D01*
X168646644Y-91725766D01*
X168490168Y-91646037D01*
X168439373Y-91598063D01*
X168422578Y-91530242D01*
X168445115Y-91464107D01*
X168490168Y-91425068D01*
X168646644Y-91345340D01*
X168807414Y-91228534D01*
X168947931Y-91088017D01*
X169064737Y-90927247D01*
X169154955Y-90750185D01*
X169216363Y-90561189D01*
X169247450Y-90364914D01*
X169247450Y-90166192D01*
X169216363Y-89969917D01*
X169154955Y-89780921D01*
X169126406Y-89724890D01*
X169113510Y-89656221D01*
X169139786Y-89591480D01*
X169196893Y-89551223D01*
X169236891Y-89544595D01*
X172433386Y-89544595D01*
X172500425Y-89564280D01*
X172546180Y-89617084D01*
X172551767Y-89631693D01*
X172596472Y-89775159D01*
X172684478Y-89920738D01*
X172684480Y-89920741D01*
X172804761Y-90041022D01*
X172804763Y-90041023D01*
X172804765Y-90041025D01*
X172950344Y-90129031D01*
X173112754Y-90179639D01*
X173183334Y-90186053D01*
X173183337Y-90186053D01*
X173846563Y-90186053D01*
X173846566Y-90186053D01*
X173917146Y-90179639D01*
X174079556Y-90129031D01*
X174225135Y-90041025D01*
X174345422Y-89920738D01*
X174433428Y-89775159D01*
X174484036Y-89612749D01*
X174490450Y-89542169D01*
X174490450Y-89028937D01*
X174484036Y-88958357D01*
X174446088Y-88836578D01*
X174445850Y-88822107D01*
X174440790Y-88808543D01*
X174445285Y-88787870D01*
X174444937Y-88766720D01*
X174452836Y-88753152D01*
X174455638Y-88740270D01*
X174476779Y-88712029D01*
X174476786Y-88712016D01*
X174483534Y-88705269D01*
X174483535Y-88705266D01*
X174773455Y-88415346D01*
X174773460Y-88415342D01*
X174783663Y-88405138D01*
X174783665Y-88405138D01*
X174895469Y-88293334D01*
X174941744Y-88213182D01*
X174992309Y-88164968D01*
X175060916Y-88151744D01*
X175125781Y-88177712D01*
X175166310Y-88234626D01*
X175172488Y-88262579D01*
X175174601Y-88283262D01*
X175174601Y-88283263D01*
X175227946Y-88444247D01*
X175227951Y-88444258D01*
X175316979Y-88588593D01*
X175316982Y-88588597D01*
X175436905Y-88708520D01*
X175436909Y-88708523D01*
X175581244Y-88797551D01*
X175581247Y-88797552D01*
X175581253Y-88797556D01*
X175742242Y-88850902D01*
X175841605Y-88861053D01*
X176388294Y-88861052D01*
X176388302Y-88861051D01*
X176388305Y-88861051D01*
X176442710Y-88855493D01*
X176487658Y-88850902D01*
X176648647Y-88797556D01*
X176792994Y-88708521D01*
X176912918Y-88588597D01*
X177001953Y-88444250D01*
X177055299Y-88283261D01*
X177065450Y-88183898D01*
X177065449Y-87587209D01*
X177055299Y-87487845D01*
X177001953Y-87326856D01*
X177001949Y-87326850D01*
X177001948Y-87326847D01*
X176912920Y-87182512D01*
X176912917Y-87182508D01*
X176878643Y-87148234D01*
X176845158Y-87086911D01*
X176850142Y-87017219D01*
X176878643Y-86972872D01*
X176912918Y-86938597D01*
X177001953Y-86794250D01*
X177055299Y-86633261D01*
X177065450Y-86533898D01*
X177065449Y-85937209D01*
X177063207Y-85915264D01*
X177055299Y-85837845D01*
X177055298Y-85837842D01*
X177037751Y-85784889D01*
X177001953Y-85676856D01*
X177001949Y-85676850D01*
X177001948Y-85676847D01*
X176912920Y-85532512D01*
X176912917Y-85532508D01*
X176792994Y-85412585D01*
X176792990Y-85412582D01*
X176648655Y-85323554D01*
X176648649Y-85323551D01*
X176648647Y-85323550D01*
X176648644Y-85323549D01*
X176487659Y-85270204D01*
X176388302Y-85260053D01*
X176388295Y-85260053D01*
X176139450Y-85260053D01*
X176130764Y-85257502D01*
X176121803Y-85258791D01*
X176097762Y-85247812D01*
X176072411Y-85240368D01*
X176066483Y-85233527D01*
X176058247Y-85229766D01*
X176043957Y-85207531D01*
X176026656Y-85187564D01*
X176024368Y-85177049D01*
X176020473Y-85170988D01*
X176015450Y-85136053D01*
X176015450Y-85053715D01*
X176023268Y-85010381D01*
X176048741Y-84942086D01*
X176055150Y-84882476D01*
X176055149Y-83453231D01*
X176048741Y-83393620D01*
X176016525Y-83307245D01*
X175998447Y-83258774D01*
X175998443Y-83258767D01*
X175912197Y-83143558D01*
X175912194Y-83143555D01*
X175796985Y-83057309D01*
X175796978Y-83057305D01*
X175662136Y-83007013D01*
X175662135Y-83007012D01*
X175662133Y-83007012D01*
X175602523Y-83000603D01*
X175602513Y-83000603D01*
X175227380Y-83000603D01*
X175227370Y-83000604D01*
X175178198Y-83005890D01*
X175151695Y-83005890D01*
X175102521Y-83000603D01*
X175102512Y-83000603D01*
X174727378Y-83000603D01*
X174727373Y-83000604D01*
X174694545Y-83004133D01*
X174678203Y-83005890D01*
X174651697Y-83005890D01*
X174647208Y-83005407D01*
X174602522Y-83000603D01*
X174602515Y-83000603D01*
X174227379Y-83000603D01*
X174227374Y-83000604D01*
X174194546Y-83004133D01*
X174178204Y-83005890D01*
X174151698Y-83005890D01*
X174147209Y-83005407D01*
X174102523Y-83000603D01*
X174102516Y-83000603D01*
X173727380Y-83000603D01*
X173727370Y-83000604D01*
X173678198Y-83005890D01*
X173651695Y-83005890D01*
X173602521Y-83000603D01*
X173602512Y-83000603D01*
X173227378Y-83000603D01*
X173227371Y-83000604D01*
X173167764Y-83007011D01*
X173032919Y-83057305D01*
X173032912Y-83057309D01*
X172917703Y-83143555D01*
X172917700Y-83143558D01*
X172831454Y-83258767D01*
X172831450Y-83258774D01*
X172781156Y-83393620D01*
X172774393Y-83456531D01*
X172772632Y-83456341D01*
X172751797Y-83515714D01*
X172696691Y-83558668D01*
X172651100Y-83567353D01*
X172347348Y-83567353D01*
X172280309Y-83547668D01*
X172259667Y-83531034D01*
X169248712Y-80520080D01*
X169215227Y-80458757D01*
X169215793Y-80406031D01*
X169215601Y-80406001D01*
X169215807Y-80404696D01*
X169215821Y-80403444D01*
X169216359Y-80401199D01*
X169216363Y-80401189D01*
X169247450Y-80204914D01*
X169247450Y-80006192D01*
X169216363Y-79809917D01*
X169154955Y-79620921D01*
X169154955Y-79620920D01*
X169064736Y-79443858D01*
X168947931Y-79283089D01*
X168807414Y-79142572D01*
X168646644Y-79025766D01*
X168490168Y-78946037D01*
X168439373Y-78898063D01*
X168422578Y-78830242D01*
X168445115Y-78764107D01*
X168490168Y-78725068D01*
X168646644Y-78645340D01*
X168807414Y-78528534D01*
X168947931Y-78388017D01*
X169064737Y-78227247D01*
X169154955Y-78050185D01*
X169216363Y-77861189D01*
X169247450Y-77664914D01*
X169247450Y-77466192D01*
X169216363Y-77269917D01*
X169154955Y-77080921D01*
X169154955Y-77080920D01*
X169064736Y-76903858D01*
X168947931Y-76743089D01*
X168807414Y-76602572D01*
X168646644Y-76485766D01*
X168490168Y-76406037D01*
X168439373Y-76358063D01*
X168422578Y-76290242D01*
X168445115Y-76224107D01*
X168490168Y-76185068D01*
X168646644Y-76105340D01*
X168807414Y-75988534D01*
X168947931Y-75848017D01*
X169064737Y-75687247D01*
X169154955Y-75510185D01*
X169216363Y-75321189D01*
X169247450Y-75124914D01*
X169247450Y-74926192D01*
X169216363Y-74729917D01*
X169183925Y-74630081D01*
X169154956Y-74540923D01*
X169154955Y-74540920D01*
X169097954Y-74429050D01*
X169064737Y-74363859D01*
X168947931Y-74203089D01*
X168807414Y-74062572D01*
X168646644Y-73945766D01*
X168490168Y-73866037D01*
X168439373Y-73818063D01*
X168422578Y-73750242D01*
X168445115Y-73684107D01*
X168490168Y-73645068D01*
X168646644Y-73565340D01*
X168807414Y-73448534D01*
X168947931Y-73308017D01*
X169064737Y-73147247D01*
X169154955Y-72970185D01*
X169216363Y-72781189D01*
X169247450Y-72584914D01*
X169247450Y-72386192D01*
X169216363Y-72189917D01*
X169185659Y-72095419D01*
X169154956Y-72000923D01*
X169154955Y-72000920D01*
X169108985Y-71910702D01*
X169064737Y-71823859D01*
X168947931Y-71663089D01*
X168807414Y-71522572D01*
X168646644Y-71405766D01*
X168490168Y-71326037D01*
X168439373Y-71278063D01*
X168422578Y-71210242D01*
X168445115Y-71144107D01*
X168490168Y-71105068D01*
X168646644Y-71025340D01*
X168807414Y-70908534D01*
X168947931Y-70768017D01*
X169064737Y-70607247D01*
X169154955Y-70430185D01*
X169216363Y-70241189D01*
X169247450Y-70044914D01*
X169247450Y-69846192D01*
X169216363Y-69649917D01*
X169174326Y-69520538D01*
X169154956Y-69460923D01*
X169154955Y-69460920D01*
X169064736Y-69283858D01*
X168947931Y-69123089D01*
X168807414Y-68982572D01*
X168646644Y-68865766D01*
X168490168Y-68786037D01*
X168439373Y-68738063D01*
X168422578Y-68670242D01*
X168445115Y-68604107D01*
X168490168Y-68565068D01*
X168646644Y-68485340D01*
X168807414Y-68368534D01*
X168947931Y-68228017D01*
X169064737Y-68067247D01*
X169064739Y-68067242D01*
X169065950Y-68065268D01*
X169066606Y-68064674D01*
X169067601Y-68063305D01*
X169067888Y-68063513D01*
X169117760Y-68018390D01*
X169171680Y-68006053D01*
X171299963Y-68006053D01*
X171367002Y-68025738D01*
X171387644Y-68042372D01*
X172778129Y-69432857D01*
X172811614Y-69494180D01*
X172814448Y-69520538D01*
X172814448Y-78849690D01*
X172806630Y-78893023D01*
X172781156Y-78961320D01*
X172774749Y-79020919D01*
X172774748Y-79020938D01*
X172774748Y-80450173D01*
X172774749Y-80450179D01*
X172781156Y-80509786D01*
X172831450Y-80644631D01*
X172831454Y-80644638D01*
X172917700Y-80759847D01*
X172917703Y-80759850D01*
X173032912Y-80846096D01*
X173032919Y-80846100D01*
X173077866Y-80862864D01*
X173167765Y-80896394D01*
X173227375Y-80902803D01*
X173602520Y-80902802D01*
X173662131Y-80896394D01*
X173796979Y-80846099D01*
X173840636Y-80813416D01*
X173906100Y-80788999D01*
X173974373Y-80803850D01*
X173989259Y-80813416D01*
X174032917Y-80846098D01*
X174032920Y-80846100D01*
X174077867Y-80862864D01*
X174167766Y-80896394D01*
X174227376Y-80902803D01*
X174602521Y-80902802D01*
X174602524Y-80902801D01*
X174602536Y-80902801D01*
X174636728Y-80899124D01*
X174651694Y-80897516D01*
X174678201Y-80897516D01*
X174727375Y-80902803D01*
X175102520Y-80902802D01*
X175151702Y-80897515D01*
X175178202Y-80897515D01*
X175227377Y-80902803D01*
X175602522Y-80902802D01*
X175662133Y-80896394D01*
X175796981Y-80846099D01*
X175912196Y-80759849D01*
X175998446Y-80644634D01*
X176048741Y-80509786D01*
X176055150Y-80450176D01*
X176055149Y-80014417D01*
X176074833Y-79947379D01*
X176091463Y-79926742D01*
X177283456Y-78734750D01*
X177283461Y-78734746D01*
X177293664Y-78724542D01*
X177293666Y-78724542D01*
X177405470Y-78612738D01*
X177484527Y-78475806D01*
X177525450Y-78323079D01*
X177525450Y-77945557D01*
X177545135Y-77878518D01*
X177584353Y-77840018D01*
X177602994Y-77828521D01*
X177722918Y-77708597D01*
X177811953Y-77564250D01*
X177865299Y-77403261D01*
X177875450Y-77303898D01*
X177875449Y-76707209D01*
X177873413Y-76687282D01*
X177865299Y-76607845D01*
X177865298Y-76607842D01*
X177853819Y-76573200D01*
X177811953Y-76446856D01*
X177811949Y-76446850D01*
X177811948Y-76446847D01*
X177722920Y-76302512D01*
X177722917Y-76302508D01*
X177688643Y-76268234D01*
X177655158Y-76206911D01*
X177660142Y-76137219D01*
X177688643Y-76092872D01*
X177722918Y-76058597D01*
X177811953Y-75914250D01*
X177865299Y-75753261D01*
X177875450Y-75653898D01*
X177875449Y-75057209D01*
X177865299Y-74957845D01*
X177811953Y-74796856D01*
X177811949Y-74796850D01*
X177811948Y-74796847D01*
X177722920Y-74652512D01*
X177722917Y-74652508D01*
X177602994Y-74532585D01*
X177602990Y-74532582D01*
X177458655Y-74443554D01*
X177458649Y-74443551D01*
X177458647Y-74443550D01*
X177414889Y-74429050D01*
X177297659Y-74390204D01*
X177198302Y-74380053D01*
X177198295Y-74380053D01*
X176850048Y-74380053D01*
X176820607Y-74371408D01*
X176790621Y-74364885D01*
X176785605Y-74361130D01*
X176783009Y-74360368D01*
X176762367Y-74343734D01*
X176682769Y-74264136D01*
X176649284Y-74202813D01*
X176646450Y-74176455D01*
X176646450Y-71940502D01*
X176646451Y-71940489D01*
X176646451Y-71772388D01*
X176646451Y-71772386D01*
X176605527Y-71619658D01*
X176549474Y-71522572D01*
X176526470Y-71482727D01*
X176414666Y-71370923D01*
X176414663Y-71370921D01*
X173902538Y-68858796D01*
X173902535Y-68858792D01*
X173902535Y-68858793D01*
X173895468Y-68851726D01*
X173895468Y-68851725D01*
X173783664Y-68739921D01*
X173783663Y-68739920D01*
X173779333Y-68735590D01*
X173779322Y-68735580D01*
X172087650Y-67043908D01*
X172087648Y-67043905D01*
X171968777Y-66925034D01*
X171968776Y-66925033D01*
X171881964Y-66874913D01*
X171881964Y-66874912D01*
X171881960Y-66874911D01*
X171831845Y-66845976D01*
X171679117Y-66805052D01*
X171521003Y-66805052D01*
X171513407Y-66805052D01*
X171513391Y-66805053D01*
X169171680Y-66805053D01*
X169104641Y-66785368D01*
X169067758Y-66747686D01*
X169067601Y-66747801D01*
X169066822Y-66746729D01*
X169065950Y-66745838D01*
X169064739Y-66743862D01*
X169017493Y-66678833D01*
X168947931Y-66583089D01*
X168807414Y-66442572D01*
X168646644Y-66325766D01*
X168469582Y-66235547D01*
X168469579Y-66235546D01*
X168280587Y-66174140D01*
X168182448Y-66158596D01*
X168084311Y-66143053D01*
X167885589Y-66143053D01*
X167820164Y-66153415D01*
X167689312Y-66174140D01*
X167500320Y-66235546D01*
X167500317Y-66235547D01*
X167323255Y-66325766D01*
X167162483Y-66442574D01*
X167021971Y-66583086D01*
X166905163Y-66743858D01*
X166814944Y-66920920D01*
X166814943Y-66920923D01*
X166753537Y-67109915D01*
X166722450Y-67306192D01*
X166722450Y-67504919D01*
X166740447Y-67618547D01*
X166731492Y-67687840D01*
X166705655Y-67725626D01*
X164001100Y-70430182D01*
X161331809Y-73099473D01*
X161331806Y-73099476D01*
X161284035Y-73147247D01*
X161237329Y-73193953D01*
X161237327Y-73193955D01*
X161187247Y-73268905D01*
X161187248Y-73268906D01*
X161163102Y-73305043D01*
X161111973Y-73428479D01*
X161111971Y-73428485D01*
X161085907Y-73559517D01*
X161085907Y-73699241D01*
X161085908Y-73699262D01*
X161085908Y-88534012D01*
X161066223Y-88601051D01*
X161049589Y-88621693D01*
X154219131Y-95452151D01*
X154157808Y-95485636D01*
X154088116Y-95480652D01*
X154032183Y-95438780D01*
X154007766Y-95373316D01*
X154007450Y-95364470D01*
X154007450Y-95246192D01*
X153999245Y-95194390D01*
X153976363Y-95049917D01*
X153914955Y-94860921D01*
X153914955Y-94860920D01*
X153824736Y-94683858D01*
X153760482Y-94595420D01*
X153707931Y-94523089D01*
X153567414Y-94382572D01*
X153406644Y-94265766D01*
X153250168Y-94186037D01*
X153199373Y-94138063D01*
X153182578Y-94070242D01*
X153205115Y-94004107D01*
X153250168Y-93965068D01*
X153406644Y-93885340D01*
X153567414Y-93768534D01*
X153707931Y-93628017D01*
X153824737Y-93467247D01*
X153914955Y-93290185D01*
X153976363Y-93101189D01*
X154007450Y-92904914D01*
X154007450Y-92706192D01*
X153976363Y-92509917D01*
X153914955Y-92320921D01*
X153914955Y-92320920D01*
X153824736Y-92143858D01*
X153728209Y-92011000D01*
X153707931Y-91983089D01*
X153567414Y-91842572D01*
X153406644Y-91725766D01*
X153250168Y-91646037D01*
X153199373Y-91598063D01*
X153182578Y-91530242D01*
X153205115Y-91464107D01*
X153250168Y-91425068D01*
X153406644Y-91345340D01*
X153567414Y-91228534D01*
X153707931Y-91088017D01*
X153824737Y-90927247D01*
X153914955Y-90750185D01*
X153976363Y-90561189D01*
X154007450Y-90364914D01*
X154007450Y-90166192D01*
X153976363Y-89969917D01*
X153914955Y-89780921D01*
X153914955Y-89780920D01*
X153851417Y-89656221D01*
X153824737Y-89603859D01*
X153707931Y-89443089D01*
X153567414Y-89302572D01*
X153406644Y-89185766D01*
X153250168Y-89106037D01*
X153199373Y-89058063D01*
X153182578Y-88990242D01*
X153205115Y-88924107D01*
X153250168Y-88885068D01*
X153406644Y-88805340D01*
X153567414Y-88688534D01*
X153707931Y-88548017D01*
X153824737Y-88387247D01*
X153914955Y-88210185D01*
X153976363Y-88021189D01*
X154007450Y-87824914D01*
X154007450Y-87626192D01*
X153976363Y-87429917D01*
X153914955Y-87240921D01*
X153914955Y-87240920D01*
X153867728Y-87148233D01*
X153824737Y-87063859D01*
X153707931Y-86903089D01*
X153567414Y-86762572D01*
X153406644Y-86645766D01*
X153250168Y-86566037D01*
X153199373Y-86518063D01*
X153182578Y-86450242D01*
X153205115Y-86384107D01*
X153250168Y-86345068D01*
X153406644Y-86265340D01*
X153567414Y-86148534D01*
X153707931Y-86008017D01*
X153824737Y-85847247D01*
X153914955Y-85670185D01*
X153976363Y-85481189D01*
X154007450Y-85284914D01*
X154007450Y-85086192D01*
X153976363Y-84889917D01*
X153914955Y-84700921D01*
X153914955Y-84700920D01*
X153824736Y-84523858D01*
X153707931Y-84363089D01*
X153567414Y-84222572D01*
X153406644Y-84105766D01*
X153250168Y-84026037D01*
X153199373Y-83978063D01*
X153182578Y-83910242D01*
X153205115Y-83844107D01*
X153250168Y-83805068D01*
X153406644Y-83725340D01*
X153567414Y-83608534D01*
X153707931Y-83468017D01*
X153824737Y-83307247D01*
X153914955Y-83130185D01*
X153976363Y-82941189D01*
X154007450Y-82744914D01*
X154007450Y-82546192D01*
X153976363Y-82349917D01*
X153914955Y-82160921D01*
X153914955Y-82160920D01*
X153824736Y-81983858D01*
X153707931Y-81823089D01*
X153567414Y-81682572D01*
X153406644Y-81565766D01*
X153250168Y-81486037D01*
X153199373Y-81438063D01*
X153182578Y-81370242D01*
X153205115Y-81304107D01*
X153250168Y-81265068D01*
X153406644Y-81185340D01*
X153567414Y-81068534D01*
X153707931Y-80928017D01*
X153824737Y-80767247D01*
X153914955Y-80590185D01*
X153976363Y-80401189D01*
X154007450Y-80204914D01*
X154007450Y-80006192D01*
X153976363Y-79809917D01*
X153914955Y-79620921D01*
X153914955Y-79620920D01*
X153824736Y-79443858D01*
X153707931Y-79283089D01*
X153567414Y-79142572D01*
X153406644Y-79025766D01*
X153250168Y-78946037D01*
X153199373Y-78898063D01*
X153182578Y-78830242D01*
X153205115Y-78764107D01*
X153250168Y-78725068D01*
X153406644Y-78645340D01*
X153567414Y-78528534D01*
X153707931Y-78388017D01*
X153824737Y-78227247D01*
X153914955Y-78050185D01*
X153976363Y-77861189D01*
X154007450Y-77664914D01*
X154007450Y-77466192D01*
X153976363Y-77269917D01*
X153914955Y-77080921D01*
X153914955Y-77080920D01*
X153824736Y-76903858D01*
X153707931Y-76743089D01*
X153567414Y-76602572D01*
X153406644Y-76485766D01*
X153250168Y-76406037D01*
X153199373Y-76358063D01*
X153182578Y-76290242D01*
X153205115Y-76224107D01*
X153250168Y-76185068D01*
X153406644Y-76105340D01*
X153567414Y-75988534D01*
X153707931Y-75848017D01*
X153824737Y-75687247D01*
X153914955Y-75510185D01*
X153976363Y-75321189D01*
X154007450Y-75124914D01*
X154007450Y-74926192D01*
X153976363Y-74729917D01*
X153943925Y-74630081D01*
X153914956Y-74540923D01*
X153914955Y-74540920D01*
X153857954Y-74429050D01*
X153824737Y-74363859D01*
X153707931Y-74203089D01*
X153567414Y-74062572D01*
X153406644Y-73945766D01*
X153250168Y-73866037D01*
X153199373Y-73818063D01*
X153182578Y-73750242D01*
X153205115Y-73684107D01*
X153250168Y-73645068D01*
X153406644Y-73565340D01*
X153567414Y-73448534D01*
X153707931Y-73308017D01*
X153824737Y-73147247D01*
X153914955Y-72970185D01*
X153976363Y-72781189D01*
X154007450Y-72584914D01*
X154007450Y-72386192D01*
X153976363Y-72189917D01*
X153945659Y-72095419D01*
X153914956Y-72000923D01*
X153914955Y-72000920D01*
X153868985Y-71910702D01*
X153824737Y-71823859D01*
X153707931Y-71663089D01*
X153567414Y-71522572D01*
X153406644Y-71405766D01*
X153250168Y-71326037D01*
X153199373Y-71278063D01*
X153182578Y-71210242D01*
X153205115Y-71144107D01*
X153250168Y-71105068D01*
X153406644Y-71025340D01*
X153567414Y-70908534D01*
X153707931Y-70768017D01*
X153824737Y-70607247D01*
X153914955Y-70430185D01*
X153976363Y-70241189D01*
X154007450Y-70044914D01*
X154007450Y-69846192D01*
X153976363Y-69649917D01*
X153934326Y-69520538D01*
X153914956Y-69460923D01*
X153914955Y-69460920D01*
X153824736Y-69283858D01*
X153707931Y-69123089D01*
X153567414Y-68982572D01*
X153406644Y-68865766D01*
X153250168Y-68786037D01*
X153199373Y-68738063D01*
X153182578Y-68670242D01*
X153205115Y-68604107D01*
X153250168Y-68565068D01*
X153406644Y-68485340D01*
X153567414Y-68368534D01*
X153707931Y-68228017D01*
X153824737Y-68067247D01*
X153914955Y-67890185D01*
X153976363Y-67701189D01*
X154007450Y-67504914D01*
X154007450Y-67306192D01*
X153976363Y-67109917D01*
X153945659Y-67015419D01*
X153914956Y-66920923D01*
X153914955Y-66920920D01*
X153855917Y-66805053D01*
X153824737Y-66743859D01*
X153707931Y-66583089D01*
X153567414Y-66442572D01*
X153406644Y-66325766D01*
X153250168Y-66246037D01*
X153199373Y-66198063D01*
X153182578Y-66130242D01*
X153205115Y-66064107D01*
X153250168Y-66025068D01*
X153406644Y-65945340D01*
X153567414Y-65828534D01*
X153707931Y-65688017D01*
X153824737Y-65527247D01*
X153914955Y-65350185D01*
X153976363Y-65161189D01*
X154007450Y-64964914D01*
X154007450Y-64766192D01*
X153976363Y-64569917D01*
X153914955Y-64380921D01*
X153914955Y-64380920D01*
X153824736Y-64203858D01*
X153707931Y-64043089D01*
X153567414Y-63902572D01*
X153406644Y-63785766D01*
X153229582Y-63695547D01*
X153229579Y-63695546D01*
X153040587Y-63634140D01*
X152942448Y-63618596D01*
X152844311Y-63603053D01*
X152645589Y-63603053D01*
X152580164Y-63613415D01*
X152449312Y-63634140D01*
X152260320Y-63695546D01*
X152260317Y-63695547D01*
X152083255Y-63785766D01*
X151922483Y-63902574D01*
X151781971Y-64043086D01*
X151665163Y-64203858D01*
X151574944Y-64380920D01*
X151574943Y-64380923D01*
X151513537Y-64569915D01*
X151482450Y-64766192D01*
X151482450Y-64964913D01*
X151513537Y-65161190D01*
X151574943Y-65350182D01*
X151574944Y-65350185D01*
X151665163Y-65527247D01*
X151781969Y-65688017D01*
X151922486Y-65828534D01*
X152083256Y-65945340D01*
X152201782Y-66005732D01*
X152239730Y-66025068D01*
X152290526Y-66073043D01*
X152307321Y-66140864D01*
X152284783Y-66206999D01*
X152239730Y-66246038D01*
X152083255Y-66325766D01*
X151922483Y-66442574D01*
X151781971Y-66583086D01*
X151665163Y-66743858D01*
X151574944Y-66920920D01*
X151574943Y-66920923D01*
X151513537Y-67109915D01*
X151482450Y-67306192D01*
X151482450Y-67424471D01*
X151462765Y-67491510D01*
X151409961Y-67537265D01*
X151340803Y-67547209D01*
X151277247Y-67518184D01*
X151270769Y-67512152D01*
X145696138Y-61937521D01*
X145696118Y-61937499D01*
X145597325Y-61838706D01*
X145541777Y-61801591D01*
X145486232Y-61764477D01*
X145362794Y-61713347D01*
X145362788Y-61713345D01*
X145231756Y-61687281D01*
X145231754Y-61687281D01*
X145098146Y-61687281D01*
X145092032Y-61687281D01*
X145092012Y-61687282D01*
X144324186Y-61687282D01*
X144257147Y-61667597D01*
X144211392Y-61614793D01*
X144206480Y-61602287D01*
X144185403Y-61538681D01*
X144154764Y-61446219D01*
X144062662Y-61296897D01*
X143938606Y-61172841D01*
X143789284Y-61080739D01*
X143622747Y-61025554D01*
X143622745Y-61025553D01*
X143519960Y-61015053D01*
X141969948Y-61015053D01*
X141969931Y-61015054D01*
X141867153Y-61025553D01*
X141867150Y-61025554D01*
X141700618Y-61080738D01*
X141700613Y-61080740D01*
X141551292Y-61172842D01*
X141427239Y-61296895D01*
X141335137Y-61446216D01*
X141335135Y-61446221D01*
X141320604Y-61490073D01*
X141279951Y-61612756D01*
X141279951Y-61612757D01*
X141279950Y-61612757D01*
X141269450Y-61715536D01*
X141269450Y-63015554D01*
X141269451Y-63015571D01*
X141279950Y-63118349D01*
X141279951Y-63118352D01*
X141335135Y-63284884D01*
X141335137Y-63284889D01*
X141337385Y-63288534D01*
X141427238Y-63434209D01*
X141551294Y-63558265D01*
X141700616Y-63650367D01*
X141867153Y-63705552D01*
X141969941Y-63716053D01*
X143519958Y-63716052D01*
X143622747Y-63705552D01*
X143789284Y-63650367D01*
X143938606Y-63558265D01*
X144062662Y-63434209D01*
X144154764Y-63284887D01*
X144206480Y-63128818D01*
X144246252Y-63071375D01*
X144310767Y-63044552D01*
X144324185Y-63043824D01*
X144832639Y-63043824D01*
X144899678Y-63063509D01*
X144920320Y-63080143D01*
X151465655Y-69625478D01*
X151499140Y-69686801D01*
X151500447Y-69732557D01*
X151482450Y-69846186D01*
X151482450Y-70044913D01*
X151513537Y-70241190D01*
X151574943Y-70430182D01*
X151574944Y-70430185D01*
X151632847Y-70543824D01*
X151665163Y-70607247D01*
X151781969Y-70768017D01*
X151922486Y-70908534D01*
X152083256Y-71025340D01*
X152172013Y-71070564D01*
X152239730Y-71105068D01*
X152290526Y-71153043D01*
X152307321Y-71220864D01*
X152284783Y-71286999D01*
X152239730Y-71326038D01*
X152083255Y-71405766D01*
X151922483Y-71522574D01*
X151781971Y-71663086D01*
X151665163Y-71823858D01*
X151574944Y-72000920D01*
X151574943Y-72000923D01*
X151513537Y-72189915D01*
X151482450Y-72386191D01*
X151482450Y-72584919D01*
X151500447Y-72698547D01*
X151491492Y-72767840D01*
X151465655Y-72805626D01*
X147620320Y-76650963D01*
X147558997Y-76684448D01*
X147532639Y-76687282D01*
X145960213Y-76687282D01*
X145893174Y-76667597D01*
X145872532Y-76650963D01*
X145762841Y-76541272D01*
X145762837Y-76541269D01*
X145619745Y-76453008D01*
X145619739Y-76453005D01*
X145619737Y-76453004D01*
X145460135Y-76400117D01*
X145460133Y-76400116D01*
X145361631Y-76390053D01*
X145361624Y-76390053D01*
X144828276Y-76390053D01*
X144828268Y-76390053D01*
X144729766Y-76400116D01*
X144729765Y-76400117D01*
X144711897Y-76406038D01*
X144570165Y-76453003D01*
X144570154Y-76453008D01*
X144427062Y-76541269D01*
X144427058Y-76541272D01*
X144395131Y-76573200D01*
X144333808Y-76606685D01*
X144264116Y-76601701D01*
X144219769Y-76573200D01*
X144187841Y-76541272D01*
X144187837Y-76541269D01*
X144044745Y-76453008D01*
X144044739Y-76453005D01*
X144044737Y-76453004D01*
X143885135Y-76400117D01*
X143885133Y-76400116D01*
X143786631Y-76390053D01*
X143786624Y-76390053D01*
X143253276Y-76390053D01*
X143253268Y-76390053D01*
X143154766Y-76400116D01*
X143154765Y-76400117D01*
X143136897Y-76406038D01*
X142995165Y-76453003D01*
X142995154Y-76453008D01*
X142852062Y-76541269D01*
X142852058Y-76541272D01*
X142756874Y-76636457D01*
X142695551Y-76669942D01*
X142625859Y-76664958D01*
X142581512Y-76636457D01*
X142480138Y-76535083D01*
X142438356Y-76509825D01*
X142334556Y-76447075D01*
X142172146Y-76396467D01*
X142172144Y-76396466D01*
X142172142Y-76396466D01*
X142122728Y-76391976D01*
X142101566Y-76390053D01*
X141588334Y-76390053D01*
X141569095Y-76391801D01*
X141517757Y-76396466D01*
X141355343Y-76447075D01*
X141209761Y-76535083D01*
X141089480Y-76655364D01*
X141001472Y-76800946D01*
X140950863Y-76963360D01*
X140944450Y-77033939D01*
X140944450Y-77697166D01*
X140950863Y-77767745D01*
X140950863Y-77767747D01*
X140950864Y-77767749D01*
X141001472Y-77930159D01*
X141088997Y-78074943D01*
X141089480Y-78075741D01*
X141209761Y-78196022D01*
X141209763Y-78196023D01*
X141209765Y-78196025D01*
X141355344Y-78284031D01*
X141517754Y-78334639D01*
X141588334Y-78341053D01*
X141588337Y-78341053D01*
X142101563Y-78341053D01*
X142101566Y-78341053D01*
X142172146Y-78334639D01*
X142334556Y-78284031D01*
X142480135Y-78196025D01*
X142518254Y-78157906D01*
X142581512Y-78094649D01*
X142642835Y-78061164D01*
X142712527Y-78066148D01*
X142756874Y-78094649D01*
X142852058Y-78189833D01*
X142852062Y-78189836D01*
X142995154Y-78278097D01*
X142995157Y-78278098D01*
X142995163Y-78278102D01*
X143154765Y-78330989D01*
X143253276Y-78341053D01*
X143253281Y-78341053D01*
X143786619Y-78341053D01*
X143786624Y-78341053D01*
X143885135Y-78330989D01*
X144044737Y-78278102D01*
X144187841Y-78189834D01*
X144219769Y-78157906D01*
X144281092Y-78124421D01*
X144350784Y-78129405D01*
X144395131Y-78157906D01*
X144427058Y-78189833D01*
X144427062Y-78189836D01*
X144570154Y-78278097D01*
X144570157Y-78278098D01*
X144570163Y-78278102D01*
X144729765Y-78330989D01*
X144828276Y-78341053D01*
X144828281Y-78341053D01*
X145361619Y-78341053D01*
X145361624Y-78341053D01*
X145460135Y-78330989D01*
X145619737Y-78278102D01*
X145762841Y-78189834D01*
X145872532Y-78080143D01*
X145933855Y-78046658D01*
X145960213Y-78043824D01*
X147792012Y-78043824D01*
X147792032Y-78043825D01*
X147798146Y-78043825D01*
X147931756Y-78043825D01*
X148029473Y-78024387D01*
X148062794Y-78017759D01*
X148186232Y-77966629D01*
X148223065Y-77942018D01*
X148297323Y-77892401D01*
X148391798Y-77797926D01*
X148391799Y-77797924D01*
X148398865Y-77790858D01*
X148398868Y-77790854D01*
X151270769Y-74918953D01*
X151332092Y-74885468D01*
X151401784Y-74890452D01*
X151457717Y-74932324D01*
X151482134Y-74997788D01*
X151482450Y-75006634D01*
X151482450Y-75124919D01*
X151500447Y-75238547D01*
X151491492Y-75307840D01*
X151465655Y-75345626D01*
X143332547Y-83478734D01*
X143271224Y-83512219D01*
X143244866Y-83515053D01*
X141969948Y-83515053D01*
X141969931Y-83515054D01*
X141867153Y-83525553D01*
X141867150Y-83525554D01*
X141700618Y-83580738D01*
X141700613Y-83580740D01*
X141551292Y-83672842D01*
X141427239Y-83796895D01*
X141335137Y-83946216D01*
X141335136Y-83946219D01*
X141279951Y-84112756D01*
X141279951Y-84112757D01*
X141279950Y-84112757D01*
X141269450Y-84215536D01*
X141269450Y-85515554D01*
X141269451Y-85515571D01*
X141279950Y-85618349D01*
X141279951Y-85618352D01*
X141335135Y-85784884D01*
X141335137Y-85784889D01*
X141367799Y-85837842D01*
X141427238Y-85934209D01*
X141551294Y-86058265D01*
X141700616Y-86150367D01*
X141867153Y-86205552D01*
X141969941Y-86216053D01*
X143519958Y-86216052D01*
X143622747Y-86205552D01*
X143789284Y-86150367D01*
X143938606Y-86058265D01*
X144062662Y-85934209D01*
X144154764Y-85784887D01*
X144174973Y-85723897D01*
X144214746Y-85666454D01*
X144279261Y-85639631D01*
X144348037Y-85651946D01*
X144399237Y-85699489D01*
X144416679Y-85762903D01*
X144416679Y-89472682D01*
X144396994Y-89539721D01*
X144344190Y-89585476D01*
X144275032Y-89595420D01*
X144211476Y-89566395D01*
X144174748Y-89511000D01*
X144121507Y-89347141D01*
X144025001Y-89157737D01*
X144024999Y-89157734D01*
X144024998Y-89157732D01*
X143900059Y-88985766D01*
X143749736Y-88835443D01*
X143577770Y-88710504D01*
X143388364Y-88613997D01*
X143388363Y-88613996D01*
X143388362Y-88613996D01*
X143186193Y-88548307D01*
X143186191Y-88548306D01*
X143186190Y-88548306D01*
X143024907Y-88522761D01*
X142976237Y-88515053D01*
X142513663Y-88515053D01*
X142464992Y-88522761D01*
X142303710Y-88548306D01*
X142101535Y-88613997D01*
X141912129Y-88710504D01*
X141740163Y-88835443D01*
X141589846Y-88985760D01*
X141554697Y-89034140D01*
X141480569Y-89136168D01*
X141425241Y-89178833D01*
X141380252Y-89187282D01*
X131759648Y-89187282D01*
X131692609Y-89167597D01*
X131659330Y-89136168D01*
X131550054Y-88985761D01*
X131399742Y-88835449D01*
X131399736Y-88835443D01*
X131227770Y-88710504D01*
X131038364Y-88613997D01*
X131038363Y-88613996D01*
X131038362Y-88613996D01*
X130836193Y-88548307D01*
X130836191Y-88548306D01*
X130836190Y-88548306D01*
X130674907Y-88522761D01*
X130626237Y-88515053D01*
X130163663Y-88515053D01*
X130114992Y-88522761D01*
X129953710Y-88548306D01*
X129751535Y-88613997D01*
X129562129Y-88710504D01*
X129390163Y-88835443D01*
X129239840Y-88985766D01*
X129114901Y-89157732D01*
X129018394Y-89347138D01*
X128952703Y-89549313D01*
X128919450Y-89759266D01*
X120748163Y-89759266D01*
X120748563Y-84215536D01*
X128919450Y-84215536D01*
X128919450Y-85515554D01*
X128919451Y-85515571D01*
X128929950Y-85618349D01*
X128929951Y-85618352D01*
X128985135Y-85784884D01*
X128985137Y-85784889D01*
X129017799Y-85837842D01*
X129077238Y-85934209D01*
X129201294Y-86058265D01*
X129350616Y-86150367D01*
X129517153Y-86205552D01*
X129619941Y-86216053D01*
X131169958Y-86216052D01*
X131272747Y-86205552D01*
X131439284Y-86150367D01*
X131588606Y-86058265D01*
X131712662Y-85934209D01*
X131804764Y-85784887D01*
X131859949Y-85618350D01*
X131870450Y-85515562D01*
X131870449Y-84215545D01*
X131870125Y-84212378D01*
X131859949Y-84112756D01*
X131859948Y-84112753D01*
X131818277Y-83986999D01*
X131804764Y-83946219D01*
X131712662Y-83796897D01*
X131588606Y-83672841D01*
X131439284Y-83580739D01*
X131272747Y-83525554D01*
X131272745Y-83525553D01*
X131169960Y-83515053D01*
X129619948Y-83515053D01*
X129619931Y-83515054D01*
X129517153Y-83525553D01*
X129517150Y-83525554D01*
X129350618Y-83580738D01*
X129350613Y-83580740D01*
X129201292Y-83672842D01*
X129077239Y-83796895D01*
X128985137Y-83946216D01*
X128985136Y-83946219D01*
X128929951Y-84112756D01*
X128929951Y-84112757D01*
X128929950Y-84112757D01*
X128919450Y-84215536D01*
X120748563Y-84215536D01*
X120749081Y-77033939D01*
X128444450Y-77033939D01*
X128444450Y-77697166D01*
X128450863Y-77767745D01*
X128450863Y-77767747D01*
X128450864Y-77767749D01*
X128501472Y-77930159D01*
X128588997Y-78074943D01*
X128589480Y-78075741D01*
X128709761Y-78196022D01*
X128709763Y-78196023D01*
X128709765Y-78196025D01*
X128855344Y-78284031D01*
X129017754Y-78334639D01*
X129088334Y-78341053D01*
X129088337Y-78341053D01*
X129601563Y-78341053D01*
X129601566Y-78341053D01*
X129672146Y-78334639D01*
X129834556Y-78284031D01*
X129980135Y-78196025D01*
X130018254Y-78157906D01*
X130081512Y-78094649D01*
X130142835Y-78061164D01*
X130212527Y-78066148D01*
X130256874Y-78094649D01*
X130352058Y-78189833D01*
X130352062Y-78189836D01*
X130495154Y-78278097D01*
X130495157Y-78278098D01*
X130495163Y-78278102D01*
X130654765Y-78330989D01*
X130753276Y-78341053D01*
X130753281Y-78341053D01*
X131286619Y-78341053D01*
X131286624Y-78341053D01*
X131385135Y-78330989D01*
X131544737Y-78278102D01*
X131687841Y-78189834D01*
X131719769Y-78157906D01*
X131781092Y-78124421D01*
X131850784Y-78129405D01*
X131895131Y-78157906D01*
X131927058Y-78189833D01*
X131927062Y-78189836D01*
X132070154Y-78278097D01*
X132070157Y-78278098D01*
X132070163Y-78278102D01*
X132229765Y-78330989D01*
X132328276Y-78341053D01*
X132328281Y-78341053D01*
X132861619Y-78341053D01*
X132861624Y-78341053D01*
X132960135Y-78330989D01*
X133119737Y-78278102D01*
X133262841Y-78189834D01*
X133330286Y-78122388D01*
X133391605Y-78088906D01*
X133461297Y-78093890D01*
X133465416Y-78095511D01*
X133547245Y-78129405D01*
X133561453Y-78135290D01*
X133675151Y-78157906D01*
X133716103Y-78166052D01*
X133716106Y-78166053D01*
X133716108Y-78166053D01*
X133873794Y-78166053D01*
X133873795Y-78166052D01*
X134028447Y-78135290D01*
X134172212Y-78075741D01*
X134174122Y-78074950D01*
X134174122Y-78074949D01*
X134174129Y-78074947D01*
X134305239Y-77987342D01*
X134416739Y-77875842D01*
X134504344Y-77744732D01*
X134564687Y-77599050D01*
X134595450Y-77444395D01*
X134595450Y-77286711D01*
X134595450Y-77286708D01*
X134595449Y-77286706D01*
X134592109Y-77269915D01*
X134564687Y-77132056D01*
X134543507Y-77080923D01*
X134504347Y-76986380D01*
X134504340Y-76986367D01*
X134416739Y-76855264D01*
X134416736Y-76855260D01*
X134305242Y-76743766D01*
X134305238Y-76743763D01*
X134174135Y-76656162D01*
X134174122Y-76656155D01*
X134028451Y-76595817D01*
X134028439Y-76595814D01*
X133873795Y-76565053D01*
X133873792Y-76565053D01*
X133716108Y-76565053D01*
X133716105Y-76565053D01*
X133561460Y-76595814D01*
X133561457Y-76595815D01*
X133561456Y-76595815D01*
X133561453Y-76595816D01*
X133479226Y-76629875D01*
X133465417Y-76635595D01*
X133395947Y-76643063D01*
X133333468Y-76611787D01*
X133330284Y-76608715D01*
X133317383Y-76595814D01*
X133262841Y-76541272D01*
X133262838Y-76541270D01*
X133262837Y-76541269D01*
X133119745Y-76453008D01*
X133119739Y-76453005D01*
X133119737Y-76453004D01*
X132960135Y-76400117D01*
X132960133Y-76400116D01*
X132861631Y-76390053D01*
X132861624Y-76390053D01*
X132328276Y-76390053D01*
X132328268Y-76390053D01*
X132229766Y-76400116D01*
X132229765Y-76400117D01*
X132211897Y-76406038D01*
X132070165Y-76453003D01*
X132070154Y-76453008D01*
X131927062Y-76541269D01*
X131927058Y-76541272D01*
X131895131Y-76573200D01*
X131833808Y-76606685D01*
X131764116Y-76601701D01*
X131719769Y-76573200D01*
X131687841Y-76541272D01*
X131687837Y-76541269D01*
X131544745Y-76453008D01*
X131544739Y-76453005D01*
X131544737Y-76453004D01*
X131385135Y-76400117D01*
X131385133Y-76400116D01*
X131286631Y-76390053D01*
X131286624Y-76390053D01*
X130753276Y-76390053D01*
X130753268Y-76390053D01*
X130654766Y-76400116D01*
X130654765Y-76400117D01*
X130636897Y-76406038D01*
X130495165Y-76453003D01*
X130495154Y-76453008D01*
X130352062Y-76541269D01*
X130352058Y-76541272D01*
X130256874Y-76636457D01*
X130195551Y-76669942D01*
X130125859Y-76664958D01*
X130081512Y-76636457D01*
X129980138Y-76535083D01*
X129938356Y-76509825D01*
X129834556Y-76447075D01*
X129672146Y-76396467D01*
X129672144Y-76396466D01*
X129672142Y-76396466D01*
X129622728Y-76391976D01*
X129601566Y-76390053D01*
X129088334Y-76390053D01*
X129069095Y-76391801D01*
X129017757Y-76396466D01*
X128855343Y-76447075D01*
X128709761Y-76535083D01*
X128589480Y-76655364D01*
X128501472Y-76800946D01*
X128450863Y-76963360D01*
X128444450Y-77033939D01*
X120749081Y-77033939D01*
X120749786Y-67259266D01*
X128919450Y-67259266D01*
X128919450Y-67471840D01*
X128952704Y-67681796D01*
X128966945Y-67725626D01*
X129018394Y-67883967D01*
X129114901Y-68073373D01*
X129239840Y-68245339D01*
X129390159Y-68395658D01*
X129390164Y-68395662D01*
X129554743Y-68515235D01*
X129597409Y-68570564D01*
X129603388Y-68640178D01*
X129570783Y-68701973D01*
X129554743Y-68715871D01*
X129390164Y-68835443D01*
X129390159Y-68835447D01*
X129239840Y-68985766D01*
X129114901Y-69157732D01*
X129018394Y-69347138D01*
X128952703Y-69549313D01*
X128936769Y-69649917D01*
X128919450Y-69759266D01*
X128919450Y-69971840D01*
X128952704Y-70181796D01*
X128972002Y-70241190D01*
X129018394Y-70383967D01*
X129114901Y-70573373D01*
X129239840Y-70745339D01*
X129390159Y-70895658D01*
X129390164Y-70895662D01*
X129554743Y-71015235D01*
X129597409Y-71070564D01*
X129603388Y-71140178D01*
X129570783Y-71201973D01*
X129554743Y-71215871D01*
X129390164Y-71335443D01*
X129390159Y-71335447D01*
X129239840Y-71485766D01*
X129114901Y-71657732D01*
X129018394Y-71847138D01*
X128952703Y-72049313D01*
X128930434Y-72189915D01*
X128919450Y-72259266D01*
X128919450Y-72471840D01*
X128952704Y-72681796D01*
X128985378Y-72782357D01*
X129018394Y-72883967D01*
X129114901Y-73073373D01*
X129239840Y-73245339D01*
X129390163Y-73395662D01*
X129562129Y-73520601D01*
X129562131Y-73520602D01*
X129562134Y-73520604D01*
X129751538Y-73617110D01*
X129953707Y-73682799D01*
X130163663Y-73716053D01*
X130163664Y-73716053D01*
X130626236Y-73716053D01*
X130626237Y-73716053D01*
X130836193Y-73682799D01*
X131038362Y-73617110D01*
X131227766Y-73520604D01*
X131354565Y-73428480D01*
X131399736Y-73395662D01*
X131399738Y-73395659D01*
X131399742Y-73395657D01*
X131550054Y-73245345D01*
X131659330Y-73094937D01*
X131714659Y-73052273D01*
X131759648Y-73043824D01*
X141380252Y-73043824D01*
X141447291Y-73063509D01*
X141480569Y-73094937D01*
X141552508Y-73193953D01*
X141589846Y-73245345D01*
X141740163Y-73395662D01*
X141912129Y-73520601D01*
X141912131Y-73520602D01*
X141912134Y-73520604D01*
X142101538Y-73617110D01*
X142303707Y-73682799D01*
X142513663Y-73716053D01*
X142513664Y-73716053D01*
X142976236Y-73716053D01*
X142976237Y-73716053D01*
X143186193Y-73682799D01*
X143388362Y-73617110D01*
X143577766Y-73520604D01*
X143704565Y-73428480D01*
X143749736Y-73395662D01*
X143749738Y-73395659D01*
X143749742Y-73395657D01*
X143900054Y-73245345D01*
X143900056Y-73245341D01*
X143900059Y-73245339D01*
X144024998Y-73073373D01*
X144024997Y-73073373D01*
X144025001Y-73073369D01*
X144121507Y-72883965D01*
X144187196Y-72681796D01*
X144220450Y-72471840D01*
X144220450Y-72259266D01*
X144187196Y-72049310D01*
X144121507Y-71847141D01*
X144025001Y-71657737D01*
X144024999Y-71657734D01*
X144024998Y-71657732D01*
X143900059Y-71485766D01*
X143749742Y-71335449D01*
X143705886Y-71303586D01*
X143585154Y-71215869D01*
X143542490Y-71160542D01*
X143536511Y-71090929D01*
X143569116Y-71029133D01*
X143585149Y-71015239D01*
X143749742Y-70895657D01*
X143900054Y-70745345D01*
X143900056Y-70745341D01*
X143900059Y-70745339D01*
X144024998Y-70573373D01*
X144024997Y-70573373D01*
X144025001Y-70573369D01*
X144121507Y-70383965D01*
X144187196Y-70181796D01*
X144220450Y-69971840D01*
X144220450Y-69759266D01*
X144187196Y-69549310D01*
X144121507Y-69347141D01*
X144025001Y-69157737D01*
X144024999Y-69157734D01*
X144024998Y-69157732D01*
X143900059Y-68985766D01*
X143749742Y-68835449D01*
X143681733Y-68786038D01*
X143585154Y-68715869D01*
X143542490Y-68660542D01*
X143536511Y-68590929D01*
X143569116Y-68529133D01*
X143585149Y-68515239D01*
X143749742Y-68395657D01*
X143900054Y-68245345D01*
X143900056Y-68245341D01*
X143900059Y-68245339D01*
X144024998Y-68073373D01*
X144024997Y-68073373D01*
X144025001Y-68073369D01*
X144121507Y-67883965D01*
X144187196Y-67681796D01*
X144220450Y-67471840D01*
X144220450Y-67259266D01*
X144187196Y-67049310D01*
X144121507Y-66847141D01*
X144025001Y-66657737D01*
X144024999Y-66657734D01*
X144024998Y-66657732D01*
X143900059Y-66485766D01*
X143749736Y-66335443D01*
X143577770Y-66210504D01*
X143388364Y-66113997D01*
X143388363Y-66113996D01*
X143388362Y-66113996D01*
X143186193Y-66048307D01*
X143186191Y-66048306D01*
X143186190Y-66048306D01*
X143024907Y-66022761D01*
X142976237Y-66015053D01*
X142513663Y-66015053D01*
X142464992Y-66022761D01*
X142303710Y-66048306D01*
X142101535Y-66113997D01*
X141912129Y-66210504D01*
X141740163Y-66335443D01*
X141589846Y-66485760D01*
X141589842Y-66485766D01*
X141480569Y-66636168D01*
X141425241Y-66678833D01*
X141380252Y-66687282D01*
X131759648Y-66687282D01*
X131692609Y-66667597D01*
X131659330Y-66636168D01*
X131550054Y-66485761D01*
X131399742Y-66335449D01*
X131399736Y-66335443D01*
X131227770Y-66210504D01*
X131038364Y-66113997D01*
X131038363Y-66113996D01*
X131038362Y-66113996D01*
X130836193Y-66048307D01*
X130836191Y-66048306D01*
X130836190Y-66048306D01*
X130674907Y-66022761D01*
X130626237Y-66015053D01*
X130163663Y-66015053D01*
X130114992Y-66022761D01*
X129953710Y-66048306D01*
X129751535Y-66113997D01*
X129562129Y-66210504D01*
X129390163Y-66335443D01*
X129239840Y-66485766D01*
X129114901Y-66657732D01*
X129018394Y-66847138D01*
X128952703Y-67049313D01*
X128920223Y-67254385D01*
X128919450Y-67259266D01*
X120749786Y-67259266D01*
X120750186Y-61715536D01*
X128919450Y-61715536D01*
X128919450Y-63015554D01*
X128919451Y-63015571D01*
X128929950Y-63118349D01*
X128929951Y-63118352D01*
X128985135Y-63284884D01*
X128985137Y-63284889D01*
X128987385Y-63288534D01*
X129077238Y-63434209D01*
X129201294Y-63558265D01*
X129350616Y-63650367D01*
X129517153Y-63705552D01*
X129619941Y-63716053D01*
X131169958Y-63716052D01*
X131272747Y-63705552D01*
X131439284Y-63650367D01*
X131588606Y-63558265D01*
X131712662Y-63434209D01*
X131804764Y-63284887D01*
X131859949Y-63118350D01*
X131870450Y-63015562D01*
X131870449Y-61715545D01*
X131870224Y-61713347D01*
X131859949Y-61612756D01*
X131859948Y-61612753D01*
X131835403Y-61538681D01*
X131804764Y-61446219D01*
X131712662Y-61296897D01*
X131588606Y-61172841D01*
X131439284Y-61080739D01*
X131272747Y-61025554D01*
X131272745Y-61025553D01*
X131169960Y-61015053D01*
X129619948Y-61015053D01*
X129619931Y-61015054D01*
X129517153Y-61025553D01*
X129517150Y-61025554D01*
X129350618Y-61080738D01*
X129350613Y-61080740D01*
X129201292Y-61172842D01*
X129077239Y-61296895D01*
X128985137Y-61446216D01*
X128985135Y-61446221D01*
X128970604Y-61490073D01*
X128929951Y-61612756D01*
X128929951Y-61612757D01*
X128929950Y-61612757D01*
X128919450Y-61715536D01*
X120750186Y-61715536D01*
X120750455Y-57990043D01*
X120770144Y-57923006D01*
X120822952Y-57877255D01*
X120874455Y-57866053D01*
X158734108Y-57866053D01*
X179620450Y-57866053D01*
X179687489Y-57885738D01*
G37*
%TD.AperFunction*%
%TD*%
M02*
