%TF.GenerationSoftware,KiCad,Pcbnew,9.0.2*%
%TF.CreationDate,2026-08-16T19:09:34-07:00*%
%TF.ProjectId,Discriminator,44697363-7269-46d6-996e-61746f722e6b,rev?*%
%TF.SameCoordinates,Original*%
%TF.FileFunction,Soldermask,Bot*%
%TF.FilePolarity,Negative*%
%FSLAX46Y46*%
G04 Gerber Fmt 4.6, Leading zero omitted, Abs format (unit mm)*
G04 Created by KiCad (PCBNEW 9.0.2) date 2026-08-16 19:09:34*
%MOMM*%
%LPD*%
G01*
G04 APERTURE LIST*
G04 Aperture macros list*
%AMRoundRect*
0 Rectangle with rounded corners*
0 $1 Rounding radius*
0 $2 $3 $4 $5 $6 $7 $8 $9 X,Y pos of 4 corners*
0 Add a 4 corners polygon primitive as box body*
4,1,4,$2,$3,$4,$5,$6,$7,$8,$9,$2,$3,0*
0 Add four circle primitives for the rounded corners*
1,1,$1+$1,$2,$3*
1,1,$1+$1,$4,$5*
1,1,$1+$1,$6,$7*
1,1,$1+$1,$8,$9*
0 Add four rect primitives between the rounded corners*
20,1,$1+$1,$2,$3,$4,$5,0*
20,1,$1+$1,$4,$5,$6,$7,0*
20,1,$1+$1,$6,$7,$8,$9,0*
20,1,$1+$1,$8,$9,$2,$3,0*%
G04 Aperture macros list end*
%ADD10RoundRect,0.250000X-0.725000X0.600000X-0.725000X-0.600000X0.725000X-0.600000X0.725000X0.600000X0*%
%ADD11O,1.950000X1.700000*%
%ADD12RoundRect,0.250000X1.600000X-0.425000X1.600000X0.425000X-1.600000X0.425000X-1.600000X-0.425000X0*%
%ADD13C,1.728000*%
%ADD14C,1.440000*%
G04 APERTURE END LIST*
D10*
%TO.C,J5*%
X142744950Y-84865553D03*
D11*
X142744950Y-87365553D03*
X142744950Y-89865553D03*
X142744950Y-92365553D03*
X142744950Y-94865553D03*
%TD*%
D12*
%TO.C,J_Power1*%
X177894950Y-59470553D03*
X177894950Y-65120553D03*
%TD*%
D10*
%TO.C,J8*%
X130394950Y-107365553D03*
D11*
X130394950Y-109865553D03*
X130394950Y-112365553D03*
X130394950Y-114865553D03*
X130394950Y-117365553D03*
%TD*%
D10*
%TO.C,J4*%
X130394950Y-62365553D03*
D11*
X130394950Y-64865553D03*
X130394950Y-67365553D03*
X130394950Y-69865553D03*
X130394950Y-72365553D03*
%TD*%
D10*
%TO.C,J7*%
X130394950Y-84865553D03*
D11*
X130394950Y-87365553D03*
X130394950Y-89865553D03*
X130394950Y-92365553D03*
X130394950Y-94865553D03*
%TD*%
D13*
%TO.C,A1*%
X167984950Y-67405553D03*
X152744950Y-97885553D03*
X157824950Y-108045553D03*
X167984950Y-64865553D03*
X152744950Y-64865553D03*
X152744950Y-67405553D03*
X152744950Y-69945553D03*
X152744950Y-72485553D03*
X152744950Y-75025553D03*
X152744950Y-77565553D03*
X152744950Y-80105553D03*
X152744950Y-82645553D03*
X152744950Y-85185553D03*
X152744950Y-87725553D03*
X152744950Y-90265553D03*
X152744950Y-92805553D03*
X152744950Y-95345553D03*
X167984950Y-95345553D03*
X167984950Y-92805553D03*
X167984950Y-90265553D03*
X167984950Y-87725553D03*
X167984950Y-85185553D03*
X167984950Y-82645553D03*
X167984950Y-80105553D03*
X167984950Y-77565553D03*
X167984950Y-75025553D03*
X167984950Y-72485553D03*
X167984950Y-69945553D03*
X152744950Y-100425553D03*
X152744950Y-102965553D03*
X152744950Y-105505553D03*
X152744950Y-108045553D03*
X152744950Y-110585553D03*
X152744950Y-113125553D03*
X152744950Y-115665553D03*
X152744950Y-118205553D03*
X152744950Y-120745553D03*
X167984950Y-120745553D03*
X167984950Y-118205553D03*
X167984950Y-115665553D03*
X167984950Y-113125553D03*
X167984950Y-110585553D03*
X167984950Y-108045553D03*
X167984950Y-105505553D03*
X167984950Y-102965553D03*
X167984950Y-100425553D03*
X152744950Y-62325553D03*
X167984950Y-97885553D03*
X155284950Y-108045553D03*
X167984950Y-62325553D03*
%TD*%
D14*
%TO.C,3386F-1-201LF1*%
X172250000Y-124500000D03*
X177330000Y-121960000D03*
X172250000Y-119420000D03*
%TD*%
D10*
%TO.C,J6*%
X142744950Y-107365553D03*
D11*
X142744950Y-109865553D03*
X142744950Y-112365553D03*
X142744950Y-114865553D03*
X142744950Y-117365553D03*
%TD*%
D10*
%TO.C,J2*%
X142744950Y-62365553D03*
D11*
X142744950Y-64865553D03*
X142744950Y-67365553D03*
X142744950Y-69865553D03*
X142744950Y-72365553D03*
%TD*%
M02*
