%TF.GenerationSoftware,KiCad,Pcbnew,9.0.2*%
%TF.CreationDate,2026-08-16T19:09:34-07:00*%
%TF.ProjectId,Discriminator,44697363-7269-46d6-996e-61746f722e6b,rev?*%
%TF.SameCoordinates,Original*%
%TF.FileFunction,Copper,L3,Inr*%
%TF.FilePolarity,Positive*%
%FSLAX46Y46*%
G04 Gerber Fmt 4.6, Leading zero omitted, Abs format (unit mm)*
G04 Created by KiCad (PCBNEW 9.0.2) date 2026-08-16 19:09:34*
%MOMM*%
%LPD*%
G01*
G04 APERTURE LIST*
G04 Aperture macros list*
%AMRoundRect*
0 Rectangle with rounded corners*
0 $1 Rounding radius*
0 $2 $3 $4 $5 $6 $7 $8 $9 X,Y pos of 4 corners*
0 Add a 4 corners polygon primitive as box body*
4,1,4,$2,$3,$4,$5,$6,$7,$8,$9,$2,$3,0*
0 Add four circle primitives for the rounded corners*
1,1,$1+$1,$2,$3*
1,1,$1+$1,$4,$5*
1,1,$1+$1,$6,$7*
1,1,$1+$1,$8,$9*
0 Add four rect primitives between the rounded corners*
20,1,$1+$1,$2,$3,$4,$5,0*
20,1,$1+$1,$4,$5,$6,$7,0*
20,1,$1+$1,$6,$7,$8,$9,0*
20,1,$1+$1,$8,$9,$2,$3,0*%
G04 Aperture macros list end*
%TA.AperFunction,ComponentPad*%
%ADD10RoundRect,0.250000X-0.725000X0.600000X-0.725000X-0.600000X0.725000X-0.600000X0.725000X0.600000X0*%
%TD*%
%TA.AperFunction,ComponentPad*%
%ADD11O,1.950000X1.700000*%
%TD*%
%TA.AperFunction,ComponentPad*%
%ADD12C,1.524000*%
%TD*%
%TA.AperFunction,ComponentPad*%
%ADD13C,1.440000*%
%TD*%
%TA.AperFunction,ViaPad*%
%ADD14C,0.600000*%
%TD*%
%TA.AperFunction,Conductor*%
%ADD15C,0.355542*%
%TD*%
G04 APERTURE END LIST*
D10*
%TO.N,/2*%
%TO.C,J5*%
X142744950Y-84865553D03*
D11*
%TO.N,GNDA*%
X142744950Y-87365553D03*
%TO.N,/V_r*%
X142744950Y-89865553D03*
%TO.N,+3.3VA*%
X142744950Y-92365553D03*
%TO.N,+5VA*%
X142744950Y-94865553D03*
%TD*%
D10*
%TO.N,/6*%
%TO.C,J8*%
X130394950Y-107365553D03*
D11*
%TO.N,GNDA*%
X130394950Y-109865553D03*
%TO.N,Net-(J8-Pin_3)*%
X130394950Y-112365553D03*
%TO.N,+3.3VA*%
X130394950Y-114865553D03*
%TO.N,+5VA*%
X130394950Y-117365553D03*
%TD*%
D10*
%TO.N,/4*%
%TO.C,J4*%
X130394950Y-62365553D03*
D11*
%TO.N,GNDA*%
X130394950Y-64865553D03*
%TO.N,/V_r*%
X130394950Y-67365553D03*
%TO.N,+3.3VA*%
X130394950Y-69865553D03*
%TO.N,+5VA*%
X130394950Y-72365553D03*
%TD*%
D10*
%TO.N,/5*%
%TO.C,J7*%
X130394950Y-84865553D03*
D11*
%TO.N,GNDA*%
X130394950Y-87365553D03*
%TO.N,/V_r*%
X130394950Y-89865553D03*
%TO.N,+3.3VA*%
X130394950Y-92365553D03*
%TO.N,+5VA*%
X130394950Y-94865553D03*
%TD*%
D12*
%TO.N,+3.3VA*%
%TO.C,A1*%
X167984950Y-67405553D03*
X152744950Y-97885553D03*
X157824950Y-108045553D03*
%TO.N,GNDA*%
X167984950Y-64865553D03*
%TO.N,unconnected-(A1-(CRX1)D0-PadD0)*%
X152744950Y-64865553D03*
%TO.N,unconnected-(A1-(CTX1)D1-PadD1)*%
X152744950Y-67405553D03*
%TO.N,/1*%
X152744950Y-69945553D03*
%TO.N,Net-(D_1-A)*%
X152744950Y-72485553D03*
%TO.N,/2*%
X152744950Y-75025553D03*
%TO.N,Net-(D_2-A)*%
X152744950Y-77565553D03*
%TO.N,/3*%
X152744950Y-80105553D03*
%TO.N,Net-(D_3-A)*%
X152744950Y-82645553D03*
%TO.N,/4*%
X152744950Y-85185553D03*
%TO.N,Net-(D_4-A)*%
X152744950Y-87725553D03*
%TO.N,/5*%
X152744950Y-90265553D03*
%TO.N,Net-(A1-(SDO)D11)*%
X152744950Y-92805553D03*
%TO.N,/6*%
X152744950Y-95345553D03*
%TO.N,unconnected-(A1-(CLK)D13-PadD13)*%
X167984950Y-95345553D03*
%TO.N,/A0*%
X167984950Y-92805553D03*
%TO.N,unconnected-(A1-A1-PadD15)*%
X167984950Y-90265553D03*
%TO.N,unconnected-(A1-A2-PadD16)*%
X167984950Y-87725553D03*
%TO.N,unconnected-(A1-A3-PadD17)*%
X167984950Y-85185553D03*
%TO.N,/SDA*%
X167984950Y-82645553D03*
%TO.N,/SCL*%
X167984950Y-80105553D03*
%TO.N,unconnected-(A1-A6-PadD20)*%
X167984950Y-77565553D03*
%TO.N,unconnected-(A1-A7-PadD21)*%
X167984950Y-75025553D03*
%TO.N,unconnected-(A1-A8-PadD22)*%
X167984950Y-72485553D03*
%TO.N,unconnected-(A1-A9-PadD23)*%
X167984950Y-69945553D03*
%TO.N,Net-(A1-A10)*%
X152744950Y-100425553D03*
%TO.N,unconnected-(A1-A11-PadD25)*%
X152744950Y-102965553D03*
%TO.N,unconnected-(A1-A12-PadD26)*%
X152744950Y-105505553D03*
%TO.N,unconnected-(A1-A13-PadD27)*%
X152744950Y-108045553D03*
%TO.N,unconnected-(A1-PadD28)*%
X152744950Y-110585553D03*
%TO.N,unconnected-(A1-PadD29)*%
X152744950Y-113125553D03*
%TO.N,unconnected-(A1-PadD30)*%
X152744950Y-115665553D03*
%TO.N,unconnected-(A1-PadD31)*%
X152744950Y-118205553D03*
%TO.N,unconnected-(A1-PadD32)*%
X152744950Y-120745553D03*
%TO.N,unconnected-(A1-PadD33)*%
X167984950Y-120745553D03*
%TO.N,unconnected-(A1-PadD34)*%
X167984950Y-118205553D03*
%TO.N,unconnected-(A1-PadD35)*%
X167984950Y-115665553D03*
%TO.N,unconnected-(A1-PadD36)*%
X167984950Y-113125553D03*
%TO.N,unconnected-(A1-PadD37)*%
X167984950Y-110585553D03*
%TO.N,unconnected-(A1-A14-PadD38)*%
X167984950Y-108045553D03*
%TO.N,unconnected-(A1-A15-PadD39)*%
X167984950Y-105505553D03*
%TO.N,unconnected-(A1-A16-PadD40)*%
X167984950Y-102965553D03*
%TO.N,unconnected-(A1-A17-PadD41)*%
X167984950Y-100425553D03*
%TO.N,GNDA*%
X152744950Y-62325553D03*
X167984950Y-97885553D03*
%TO.N,unconnected-(A1-PadVBAT)*%
X155284950Y-108045553D03*
%TO.N,+5VA*%
X167984950Y-62325553D03*
%TD*%
D13*
%TO.N,Net-(3386F-1-201LF1-Pad1)*%
%TO.C,3386F-1-201LF1*%
X172250000Y-124500000D03*
%TO.N,GNDA*%
X177330000Y-121960000D03*
X172250000Y-119420000D03*
%TD*%
D10*
%TO.N,/3*%
%TO.C,J6*%
X142744950Y-107365553D03*
D11*
%TO.N,GNDA*%
X142744950Y-109865553D03*
%TO.N,/V_r*%
X142744950Y-112365553D03*
%TO.N,+3.3VA*%
X142744950Y-114865553D03*
%TO.N,+5VA*%
X142744950Y-117365553D03*
%TD*%
D10*
%TO.N,/1*%
%TO.C,J2*%
X142744950Y-62365553D03*
D11*
%TO.N,GNDA*%
X142744950Y-64865553D03*
%TO.N,/V_r*%
X142744950Y-67365553D03*
%TO.N,+3.3VA*%
X142744950Y-69865553D03*
%TO.N,+5VA*%
X142744950Y-72365553D03*
%TD*%
D14*
%TO.N,GNDA*%
X178000000Y-67000000D03*
X178300000Y-60600000D03*
X174104950Y-78175553D03*
X171500000Y-117500000D03*
X179050000Y-60600000D03*
X177400000Y-60600000D03*
X176000000Y-68000000D03*
X179000000Y-67000000D03*
X174500000Y-117500000D03*
X179000000Y-68000000D03*
X175000000Y-67000000D03*
X178000000Y-68000000D03*
X172500000Y-117500000D03*
X173500000Y-117500000D03*
X177000000Y-67000000D03*
X176000000Y-67000000D03*
X175000000Y-68000000D03*
X170500000Y-117500000D03*
X177000000Y-68000000D03*
%TO.N,/V_r*%
X174904950Y-73335553D03*
X174904950Y-74195553D03*
%TO.N,+5VA*%
X170244950Y-61365553D03*
X171244950Y-61365553D03*
X172244950Y-61365553D03*
%TO.N,Net-(D_4-A)*%
X133794950Y-77365553D03*
%TO.N,Net-(A1-(SDO)D11)*%
X133744950Y-99865553D03*
%TO.N,/A0*%
X172404950Y-86425553D03*
%TO.N,Net-(A1-A10)*%
X133744950Y-122365553D03*
%TD*%
D15*
%TO.N,+3.3VA*%
X148264950Y-97885553D02*
X148264950Y-75385553D01*
X142744950Y-114865553D02*
X148264950Y-109345553D01*
X142744950Y-92365553D02*
X148264950Y-97885553D01*
X148264950Y-97885553D02*
X152744950Y-97885553D01*
X148264950Y-109345553D02*
X148264950Y-97885553D01*
X148264950Y-75385553D02*
X142744950Y-69865553D01*
%TD*%
M02*
