%TF.GenerationSoftware,KiCad,Pcbnew,9.0.2*%
%TF.CreationDate,2026-08-16T19:09:34-07:00*%
%TF.ProjectId,Discriminator,44697363-7269-46d6-996e-61746f722e6b,rev?*%
%TF.SameCoordinates,Original*%
%TF.FileFunction,Copper,L2,Inr*%
%TF.FilePolarity,Positive*%
%FSLAX46Y46*%
G04 Gerber Fmt 4.6, Leading zero omitted, Abs format (unit mm)*
G04 Created by KiCad (PCBNEW 9.0.2) date 2026-08-16 19:09:34*
%MOMM*%
%LPD*%
G01*
G04 APERTURE LIST*
G04 Aperture macros list*
%AMRoundRect*
0 Rectangle with rounded corners*
0 $1 Rounding radius*
0 $2 $3 $4 $5 $6 $7 $8 $9 X,Y pos of 4 corners*
0 Add a 4 corners polygon primitive as box body*
4,1,4,$2,$3,$4,$5,$6,$7,$8,$9,$2,$3,0*
0 Add four circle primitives for the rounded corners*
1,1,$1+$1,$2,$3*
1,1,$1+$1,$4,$5*
1,1,$1+$1,$6,$7*
1,1,$1+$1,$8,$9*
0 Add four rect primitives between the rounded corners*
20,1,$1+$1,$2,$3,$4,$5,0*
20,1,$1+$1,$4,$5,$6,$7,0*
20,1,$1+$1,$6,$7,$8,$9,0*
20,1,$1+$1,$8,$9,$2,$3,0*%
G04 Aperture macros list end*
%TA.AperFunction,ComponentPad*%
%ADD10RoundRect,0.250000X-0.725000X0.600000X-0.725000X-0.600000X0.725000X-0.600000X0.725000X0.600000X0*%
%TD*%
%TA.AperFunction,ComponentPad*%
%ADD11O,1.950000X1.700000*%
%TD*%
%TA.AperFunction,ComponentPad*%
%ADD12C,1.524000*%
%TD*%
%TA.AperFunction,ComponentPad*%
%ADD13C,1.440000*%
%TD*%
%TA.AperFunction,ViaPad*%
%ADD14C,0.600000*%
%TD*%
%TA.AperFunction,Conductor*%
%ADD15C,0.355542*%
%TD*%
%TA.AperFunction,Conductor*%
%ADD16C,0.200000*%
%TD*%
G04 APERTURE END LIST*
D10*
%TO.N,/2*%
%TO.C,J5*%
X142744950Y-84865553D03*
D11*
%TO.N,GNDA*%
X142744950Y-87365553D03*
%TO.N,/V_r*%
X142744950Y-89865553D03*
%TO.N,+3.3VA*%
X142744950Y-92365553D03*
%TO.N,+5VA*%
X142744950Y-94865553D03*
%TD*%
D10*
%TO.N,/6*%
%TO.C,J8*%
X130394950Y-107365553D03*
D11*
%TO.N,GNDA*%
X130394950Y-109865553D03*
%TO.N,Net-(J8-Pin_3)*%
X130394950Y-112365553D03*
%TO.N,+3.3VA*%
X130394950Y-114865553D03*
%TO.N,+5VA*%
X130394950Y-117365553D03*
%TD*%
D10*
%TO.N,/4*%
%TO.C,J4*%
X130394950Y-62365553D03*
D11*
%TO.N,GNDA*%
X130394950Y-64865553D03*
%TO.N,/V_r*%
X130394950Y-67365553D03*
%TO.N,+3.3VA*%
X130394950Y-69865553D03*
%TO.N,+5VA*%
X130394950Y-72365553D03*
%TD*%
D10*
%TO.N,/5*%
%TO.C,J7*%
X130394950Y-84865553D03*
D11*
%TO.N,GNDA*%
X130394950Y-87365553D03*
%TO.N,/V_r*%
X130394950Y-89865553D03*
%TO.N,+3.3VA*%
X130394950Y-92365553D03*
%TO.N,+5VA*%
X130394950Y-94865553D03*
%TD*%
D12*
%TO.N,+3.3VA*%
%TO.C,A1*%
X167984950Y-67405553D03*
X152744950Y-97885553D03*
X157824950Y-108045553D03*
%TO.N,GNDA*%
X167984950Y-64865553D03*
%TO.N,unconnected-(A1-(CRX1)D0-PadD0)*%
X152744950Y-64865553D03*
%TO.N,unconnected-(A1-(CTX1)D1-PadD1)*%
X152744950Y-67405553D03*
%TO.N,/1*%
X152744950Y-69945553D03*
%TO.N,Net-(D_1-A)*%
X152744950Y-72485553D03*
%TO.N,/2*%
X152744950Y-75025553D03*
%TO.N,Net-(D_2-A)*%
X152744950Y-77565553D03*
%TO.N,/3*%
X152744950Y-80105553D03*
%TO.N,Net-(D_3-A)*%
X152744950Y-82645553D03*
%TO.N,/4*%
X152744950Y-85185553D03*
%TO.N,Net-(D_4-A)*%
X152744950Y-87725553D03*
%TO.N,/5*%
X152744950Y-90265553D03*
%TO.N,Net-(A1-(SDO)D11)*%
X152744950Y-92805553D03*
%TO.N,/6*%
X152744950Y-95345553D03*
%TO.N,unconnected-(A1-(CLK)D13-PadD13)*%
X167984950Y-95345553D03*
%TO.N,/A0*%
X167984950Y-92805553D03*
%TO.N,unconnected-(A1-A1-PadD15)*%
X167984950Y-90265553D03*
%TO.N,unconnected-(A1-A2-PadD16)*%
X167984950Y-87725553D03*
%TO.N,unconnected-(A1-A3-PadD17)*%
X167984950Y-85185553D03*
%TO.N,/SDA*%
X167984950Y-82645553D03*
%TO.N,/SCL*%
X167984950Y-80105553D03*
%TO.N,unconnected-(A1-A6-PadD20)*%
X167984950Y-77565553D03*
%TO.N,unconnected-(A1-A7-PadD21)*%
X167984950Y-75025553D03*
%TO.N,unconnected-(A1-A8-PadD22)*%
X167984950Y-72485553D03*
%TO.N,unconnected-(A1-A9-PadD23)*%
X167984950Y-69945553D03*
%TO.N,Net-(A1-A10)*%
X152744950Y-100425553D03*
%TO.N,unconnected-(A1-A11-PadD25)*%
X152744950Y-102965553D03*
%TO.N,unconnected-(A1-A12-PadD26)*%
X152744950Y-105505553D03*
%TO.N,unconnected-(A1-A13-PadD27)*%
X152744950Y-108045553D03*
%TO.N,unconnected-(A1-PadD28)*%
X152744950Y-110585553D03*
%TO.N,unconnected-(A1-PadD29)*%
X152744950Y-113125553D03*
%TO.N,unconnected-(A1-PadD30)*%
X152744950Y-115665553D03*
%TO.N,unconnected-(A1-PadD31)*%
X152744950Y-118205553D03*
%TO.N,unconnected-(A1-PadD32)*%
X152744950Y-120745553D03*
%TO.N,unconnected-(A1-PadD33)*%
X167984950Y-120745553D03*
%TO.N,unconnected-(A1-PadD34)*%
X167984950Y-118205553D03*
%TO.N,unconnected-(A1-PadD35)*%
X167984950Y-115665553D03*
%TO.N,unconnected-(A1-PadD36)*%
X167984950Y-113125553D03*
%TO.N,unconnected-(A1-PadD37)*%
X167984950Y-110585553D03*
%TO.N,unconnected-(A1-A14-PadD38)*%
X167984950Y-108045553D03*
%TO.N,unconnected-(A1-A15-PadD39)*%
X167984950Y-105505553D03*
%TO.N,unconnected-(A1-A16-PadD40)*%
X167984950Y-102965553D03*
%TO.N,unconnected-(A1-A17-PadD41)*%
X167984950Y-100425553D03*
%TO.N,GNDA*%
X152744950Y-62325553D03*
X167984950Y-97885553D03*
%TO.N,unconnected-(A1-PadVBAT)*%
X155284950Y-108045553D03*
%TO.N,+5VA*%
X167984950Y-62325553D03*
%TD*%
D13*
%TO.N,Net-(3386F-1-201LF1-Pad1)*%
%TO.C,3386F-1-201LF1*%
X172250000Y-124500000D03*
%TO.N,GNDA*%
X177330000Y-121960000D03*
X172250000Y-119420000D03*
%TD*%
D10*
%TO.N,/3*%
%TO.C,J6*%
X142744950Y-107365553D03*
D11*
%TO.N,GNDA*%
X142744950Y-109865553D03*
%TO.N,/V_r*%
X142744950Y-112365553D03*
%TO.N,+3.3VA*%
X142744950Y-114865553D03*
%TO.N,+5VA*%
X142744950Y-117365553D03*
%TD*%
D10*
%TO.N,/1*%
%TO.C,J2*%
X142744950Y-62365553D03*
D11*
%TO.N,GNDA*%
X142744950Y-64865553D03*
%TO.N,/V_r*%
X142744950Y-67365553D03*
%TO.N,+3.3VA*%
X142744950Y-69865553D03*
%TO.N,+5VA*%
X142744950Y-72365553D03*
%TD*%
D14*
%TO.N,GNDA*%
X178000000Y-67000000D03*
X178300000Y-60600000D03*
X174104950Y-78175553D03*
X171500000Y-117500000D03*
X179050000Y-60600000D03*
X177400000Y-60600000D03*
X176000000Y-68000000D03*
X179000000Y-67000000D03*
X174500000Y-117500000D03*
X179000000Y-68000000D03*
X175000000Y-67000000D03*
X178000000Y-68000000D03*
X172500000Y-117500000D03*
X173500000Y-117500000D03*
X177000000Y-67000000D03*
X176000000Y-67000000D03*
X175000000Y-68000000D03*
X170500000Y-117500000D03*
X177000000Y-68000000D03*
%TO.N,/V_r*%
X174904950Y-73335553D03*
X174904950Y-74195553D03*
%TO.N,+5VA*%
X170244950Y-61365553D03*
X171244950Y-61365553D03*
X172244950Y-61365553D03*
%TO.N,Net-(D_4-A)*%
X133794950Y-77365553D03*
%TO.N,Net-(A1-(SDO)D11)*%
X133744950Y-99865553D03*
%TO.N,/A0*%
X172404950Y-86425553D03*
%TO.N,Net-(A1-A10)*%
X133744950Y-122365553D03*
%TD*%
D15*
%TO.N,+5VA*%
X168244950Y-59365553D02*
X150744950Y-59365553D01*
X148244950Y-91365553D02*
X148244950Y-91865553D01*
X170244950Y-61365553D02*
X168244950Y-59365553D01*
X148244950Y-69365553D02*
X148244950Y-91365553D01*
X148244950Y-61865553D02*
X148244950Y-69365553D01*
X172244950Y-61365553D02*
X170244950Y-61365553D01*
X148244950Y-91865553D02*
X145244950Y-94865553D01*
X142744950Y-72365553D02*
X145244950Y-72365553D01*
X150744950Y-59365553D02*
X148244950Y-61865553D01*
X145244950Y-94865553D02*
X142744950Y-94865553D01*
X145244950Y-72365553D02*
X148244950Y-69365553D01*
X148244950Y-114365553D02*
X145244950Y-117365553D01*
X148244950Y-91365553D02*
X148244950Y-114365553D01*
X145244950Y-117365553D02*
X142744950Y-117365553D01*
D16*
%TO.N,/A0*%
X172404950Y-86425553D02*
X172404950Y-88385553D01*
X172404950Y-88385553D02*
X167984950Y-92805553D01*
%TD*%
%TA.AperFunction,Conductor*%
%TO.N,GNDA*%
G36*
X179687489Y-57885738D02*
G01*
X179733244Y-57938542D01*
X179744450Y-57990053D01*
X179744450Y-117876000D01*
X179724765Y-117943039D01*
X179671961Y-117988794D01*
X179620450Y-118000000D01*
X170000000Y-118000000D01*
X170000000Y-126741053D01*
X169980315Y-126808092D01*
X169927511Y-126853847D01*
X169876000Y-126865053D01*
X120869495Y-126865053D01*
X120802456Y-126845368D01*
X120756701Y-126792564D01*
X120745495Y-126741044D01*
X120745817Y-122286706D01*
X132944450Y-122286706D01*
X132944450Y-122444399D01*
X132975211Y-122599042D01*
X132975214Y-122599054D01*
X133035552Y-122744725D01*
X133035559Y-122744738D01*
X133123160Y-122875841D01*
X133123163Y-122875845D01*
X133234657Y-122987339D01*
X133234661Y-122987342D01*
X133365764Y-123074943D01*
X133365777Y-123074950D01*
X133511448Y-123135288D01*
X133511453Y-123135290D01*
X133666103Y-123166052D01*
X133666106Y-123166053D01*
X133666108Y-123166053D01*
X133823794Y-123166053D01*
X133823795Y-123166052D01*
X133978447Y-123135290D01*
X134124129Y-123074947D01*
X134255239Y-122987342D01*
X134366739Y-122875842D01*
X134454344Y-122744732D01*
X134514687Y-122599050D01*
X134545450Y-122444395D01*
X134545450Y-122286711D01*
X134545450Y-122286708D01*
X134545449Y-122286706D01*
X134514688Y-122132063D01*
X134514687Y-122132056D01*
X134463324Y-122008053D01*
X134454347Y-121986380D01*
X134454340Y-121986367D01*
X134366739Y-121855264D01*
X134366736Y-121855260D01*
X134255242Y-121743766D01*
X134255238Y-121743763D01*
X134124135Y-121656162D01*
X134124122Y-121656155D01*
X133978451Y-121595817D01*
X133978439Y-121595814D01*
X133823795Y-121565053D01*
X133823792Y-121565053D01*
X133666108Y-121565053D01*
X133666105Y-121565053D01*
X133511460Y-121595814D01*
X133511448Y-121595817D01*
X133365777Y-121656155D01*
X133365764Y-121656162D01*
X133234661Y-121743763D01*
X133234657Y-121743766D01*
X133123163Y-121855260D01*
X133123160Y-121855264D01*
X133035559Y-121986367D01*
X133035552Y-121986380D01*
X132975214Y-122132051D01*
X132975211Y-122132063D01*
X132944450Y-122286706D01*
X120745817Y-122286706D01*
X120745817Y-122280610D01*
X120746372Y-114585766D01*
X120746540Y-112259266D01*
X128919450Y-112259266D01*
X128919450Y-112471839D01*
X128952703Y-112681792D01*
X129018394Y-112883967D01*
X129114901Y-113073373D01*
X129239840Y-113245339D01*
X129390159Y-113395658D01*
X129390164Y-113395662D01*
X129554743Y-113515235D01*
X129597409Y-113570564D01*
X129603388Y-113640178D01*
X129570783Y-113701973D01*
X129554743Y-113715871D01*
X129390164Y-113835443D01*
X129390159Y-113835447D01*
X129239840Y-113985766D01*
X129114901Y-114157732D01*
X129018394Y-114347138D01*
X128952703Y-114549313D01*
X128919450Y-114759266D01*
X128919450Y-114971839D01*
X128952703Y-115181792D01*
X129018394Y-115383967D01*
X129114901Y-115573373D01*
X129239840Y-115745339D01*
X129390159Y-115895658D01*
X129390164Y-115895662D01*
X129554743Y-116015235D01*
X129597409Y-116070564D01*
X129603388Y-116140178D01*
X129570783Y-116201973D01*
X129554743Y-116215871D01*
X129390164Y-116335443D01*
X129390159Y-116335447D01*
X129239840Y-116485766D01*
X129114901Y-116657732D01*
X129018394Y-116847138D01*
X128952703Y-117049313D01*
X128940594Y-117125766D01*
X128919450Y-117259266D01*
X128919450Y-117471840D01*
X128952704Y-117681796D01*
X128965417Y-117720923D01*
X129018394Y-117883967D01*
X129114901Y-118073373D01*
X129239840Y-118245339D01*
X129390163Y-118395662D01*
X129562129Y-118520601D01*
X129562131Y-118520602D01*
X129562134Y-118520604D01*
X129751538Y-118617110D01*
X129953707Y-118682799D01*
X130163663Y-118716053D01*
X130163664Y-118716053D01*
X130626236Y-118716053D01*
X130626237Y-118716053D01*
X130836193Y-118682799D01*
X131038362Y-118617110D01*
X131227766Y-118520604D01*
X131254489Y-118501189D01*
X131399736Y-118395662D01*
X131399738Y-118395659D01*
X131399742Y-118395657D01*
X131550054Y-118245345D01*
X131550056Y-118245341D01*
X131550059Y-118245339D01*
X131674998Y-118073373D01*
X131674997Y-118073373D01*
X131675001Y-118073369D01*
X131771507Y-117883965D01*
X131837196Y-117681796D01*
X131870450Y-117471840D01*
X131870450Y-117259266D01*
X131837196Y-117049310D01*
X131771507Y-116847141D01*
X131675001Y-116657737D01*
X131674999Y-116657734D01*
X131674998Y-116657732D01*
X131550059Y-116485766D01*
X131399742Y-116335449D01*
X131388453Y-116327247D01*
X131235154Y-116215869D01*
X131192490Y-116160542D01*
X131186511Y-116090929D01*
X131219116Y-116029133D01*
X131235149Y-116015239D01*
X131399742Y-115895657D01*
X131550054Y-115745345D01*
X131550056Y-115745341D01*
X131550059Y-115745339D01*
X131674998Y-115573373D01*
X131674997Y-115573373D01*
X131675001Y-115573369D01*
X131771507Y-115383965D01*
X131837196Y-115181796D01*
X131870450Y-114971840D01*
X131870450Y-114759266D01*
X131837196Y-114549310D01*
X131771507Y-114347141D01*
X131675001Y-114157737D01*
X131674999Y-114157734D01*
X131674998Y-114157732D01*
X131550059Y-113985766D01*
X131399742Y-113835449D01*
X131333397Y-113787247D01*
X131235154Y-113715869D01*
X131192490Y-113660542D01*
X131186511Y-113590929D01*
X131219116Y-113529133D01*
X131235149Y-113515239D01*
X131399742Y-113395657D01*
X131550054Y-113245345D01*
X131550056Y-113245341D01*
X131550059Y-113245339D01*
X131674998Y-113073373D01*
X131674997Y-113073373D01*
X131675001Y-113073369D01*
X131771507Y-112883965D01*
X131837196Y-112681796D01*
X131870450Y-112471840D01*
X131870450Y-112259266D01*
X131837196Y-112049310D01*
X131771507Y-111847141D01*
X131675001Y-111657737D01*
X131674999Y-111657734D01*
X131674998Y-111657732D01*
X131550059Y-111485766D01*
X131399736Y-111335443D01*
X131227770Y-111210504D01*
X131038364Y-111113997D01*
X131038363Y-111113996D01*
X131038362Y-111113996D01*
X130836193Y-111048307D01*
X130836191Y-111048306D01*
X130836190Y-111048306D01*
X130674907Y-111022761D01*
X130626237Y-111015053D01*
X130163663Y-111015053D01*
X130114992Y-111022761D01*
X129953710Y-111048306D01*
X129751535Y-111113997D01*
X129562129Y-111210504D01*
X129390163Y-111335443D01*
X129239840Y-111485766D01*
X129114901Y-111657732D01*
X129018394Y-111847138D01*
X128952703Y-112049313D01*
X128919450Y-112259266D01*
X120746540Y-112259266D01*
X120746822Y-108341189D01*
X120746940Y-106715536D01*
X128919450Y-106715536D01*
X128919450Y-108015554D01*
X128919451Y-108015571D01*
X128929950Y-108118349D01*
X128929951Y-108118352D01*
X128938753Y-108144913D01*
X128985136Y-108284887D01*
X129077238Y-108434209D01*
X129201294Y-108558265D01*
X129350616Y-108650367D01*
X129517153Y-108705552D01*
X129619941Y-108716053D01*
X131169958Y-108716052D01*
X131272747Y-108705552D01*
X131439284Y-108650367D01*
X131588606Y-108558265D01*
X131712662Y-108434209D01*
X131804764Y-108284887D01*
X131859949Y-108118350D01*
X131870450Y-108015562D01*
X131870449Y-106715545D01*
X131870448Y-106715536D01*
X141269450Y-106715536D01*
X141269450Y-108015554D01*
X141269451Y-108015571D01*
X141279950Y-108118349D01*
X141279951Y-108118352D01*
X141288753Y-108144913D01*
X141335136Y-108284887D01*
X141427238Y-108434209D01*
X141551294Y-108558265D01*
X141700616Y-108650367D01*
X141867153Y-108705552D01*
X141969941Y-108716053D01*
X143519958Y-108716052D01*
X143622747Y-108705552D01*
X143789284Y-108650367D01*
X143938606Y-108558265D01*
X144062662Y-108434209D01*
X144154764Y-108284887D01*
X144209949Y-108118350D01*
X144220450Y-108015562D01*
X144220449Y-106715545D01*
X144220193Y-106713043D01*
X144209949Y-106612756D01*
X144209948Y-106612753D01*
X144162157Y-106468531D01*
X144154764Y-106446219D01*
X144062662Y-106296897D01*
X143938606Y-106172841D01*
X143789284Y-106080739D01*
X143622747Y-106025554D01*
X143622745Y-106025553D01*
X143519960Y-106015053D01*
X141969948Y-106015053D01*
X141969931Y-106015054D01*
X141867153Y-106025553D01*
X141867150Y-106025554D01*
X141700618Y-106080738D01*
X141700613Y-106080740D01*
X141551292Y-106172842D01*
X141427239Y-106296895D01*
X141335137Y-106446216D01*
X141335135Y-106446221D01*
X141307299Y-106530223D01*
X141279951Y-106612756D01*
X141279951Y-106612757D01*
X141279950Y-106612757D01*
X141269450Y-106715536D01*
X131870448Y-106715536D01*
X131870193Y-106713043D01*
X131859949Y-106612756D01*
X131859948Y-106612753D01*
X131812157Y-106468531D01*
X131804764Y-106446219D01*
X131712662Y-106296897D01*
X131588606Y-106172841D01*
X131439284Y-106080739D01*
X131272747Y-106025554D01*
X131272745Y-106025553D01*
X131169960Y-106015053D01*
X129619948Y-106015053D01*
X129619931Y-106015054D01*
X129517153Y-106025553D01*
X129517150Y-106025554D01*
X129350618Y-106080738D01*
X129350613Y-106080740D01*
X129201292Y-106172842D01*
X129077239Y-106296895D01*
X128985137Y-106446216D01*
X128985135Y-106446221D01*
X128957299Y-106530223D01*
X128929951Y-106612756D01*
X128929951Y-106612757D01*
X128929950Y-106612757D01*
X128919450Y-106715536D01*
X120746940Y-106715536D01*
X120746940Y-106712378D01*
X120747440Y-99786706D01*
X132944450Y-99786706D01*
X132944450Y-99944399D01*
X132975211Y-100099042D01*
X132975214Y-100099054D01*
X133035552Y-100244725D01*
X133035559Y-100244738D01*
X133123160Y-100375841D01*
X133123163Y-100375845D01*
X133234657Y-100487339D01*
X133234661Y-100487342D01*
X133365764Y-100574943D01*
X133365777Y-100574950D01*
X133511448Y-100635288D01*
X133511453Y-100635290D01*
X133666103Y-100666052D01*
X133666106Y-100666053D01*
X133666108Y-100666053D01*
X133823794Y-100666053D01*
X133823795Y-100666052D01*
X133978447Y-100635290D01*
X134124129Y-100574947D01*
X134255239Y-100487342D01*
X134366739Y-100375842D01*
X134454344Y-100244732D01*
X134514687Y-100099050D01*
X134545450Y-99944395D01*
X134545450Y-99786711D01*
X134545450Y-99786708D01*
X134545449Y-99786706D01*
X134514688Y-99632063D01*
X134514687Y-99632056D01*
X134502687Y-99603086D01*
X134454347Y-99486380D01*
X134454340Y-99486367D01*
X134366739Y-99355264D01*
X134366736Y-99355260D01*
X134255242Y-99243766D01*
X134255238Y-99243763D01*
X134124135Y-99156162D01*
X134124122Y-99156155D01*
X133978451Y-99095817D01*
X133978439Y-99095814D01*
X133823795Y-99065053D01*
X133823792Y-99065053D01*
X133666108Y-99065053D01*
X133666105Y-99065053D01*
X133511460Y-99095814D01*
X133511448Y-99095817D01*
X133365777Y-99156155D01*
X133365764Y-99156162D01*
X133234661Y-99243763D01*
X133234657Y-99243766D01*
X133123163Y-99355260D01*
X133123160Y-99355264D01*
X133035559Y-99486367D01*
X133035552Y-99486380D01*
X132975214Y-99632051D01*
X132975211Y-99632063D01*
X132944450Y-99786706D01*
X120747440Y-99786706D01*
X120747440Y-99780610D01*
X120747485Y-99156155D01*
X120748163Y-89759266D01*
X128919450Y-89759266D01*
X128919450Y-89971839D01*
X128952703Y-90181792D01*
X129018394Y-90383967D01*
X129114901Y-90573373D01*
X129239840Y-90745339D01*
X129390159Y-90895658D01*
X129390164Y-90895662D01*
X129554743Y-91015235D01*
X129597409Y-91070564D01*
X129603388Y-91140178D01*
X129570783Y-91201973D01*
X129554743Y-91215871D01*
X129390164Y-91335443D01*
X129390159Y-91335447D01*
X129239840Y-91485766D01*
X129114901Y-91657732D01*
X129018394Y-91847138D01*
X128952703Y-92049313D01*
X128937729Y-92143858D01*
X128919450Y-92259266D01*
X128919450Y-92471840D01*
X128929484Y-92535197D01*
X128952703Y-92681792D01*
X129018394Y-92883967D01*
X129114901Y-93073373D01*
X129239840Y-93245339D01*
X129390159Y-93395658D01*
X129390164Y-93395662D01*
X129554743Y-93515235D01*
X129597409Y-93570564D01*
X129603388Y-93640178D01*
X129570783Y-93701973D01*
X129554743Y-93715871D01*
X129390164Y-93835443D01*
X129390159Y-93835447D01*
X129239840Y-93985766D01*
X129114901Y-94157732D01*
X129018394Y-94347138D01*
X128952703Y-94549313D01*
X128919450Y-94759266D01*
X128919450Y-94971839D01*
X128952703Y-95181792D01*
X129018394Y-95383967D01*
X129114901Y-95573373D01*
X129239840Y-95745339D01*
X129390163Y-95895662D01*
X129562129Y-96020601D01*
X129562131Y-96020602D01*
X129562134Y-96020604D01*
X129751538Y-96117110D01*
X129953707Y-96182799D01*
X130163663Y-96216053D01*
X130163664Y-96216053D01*
X130626236Y-96216053D01*
X130626237Y-96216053D01*
X130836193Y-96182799D01*
X131038362Y-96117110D01*
X131227766Y-96020604D01*
X131249739Y-96004639D01*
X131399736Y-95895662D01*
X131399738Y-95895659D01*
X131399742Y-95895657D01*
X131550054Y-95745345D01*
X131550056Y-95745341D01*
X131550059Y-95745339D01*
X131674998Y-95573373D01*
X131674997Y-95573373D01*
X131675001Y-95573369D01*
X131771507Y-95383965D01*
X131837196Y-95181796D01*
X131870450Y-94971840D01*
X131870450Y-94759266D01*
X131837196Y-94549310D01*
X131771507Y-94347141D01*
X131675001Y-94157737D01*
X131674999Y-94157734D01*
X131674998Y-94157732D01*
X131550059Y-93985766D01*
X131399742Y-93835449D01*
X131399734Y-93835443D01*
X131235154Y-93715869D01*
X131192490Y-93660542D01*
X131186511Y-93590929D01*
X131219116Y-93529133D01*
X131235149Y-93515239D01*
X131399742Y-93395657D01*
X131550054Y-93245345D01*
X131550056Y-93245341D01*
X131550059Y-93245339D01*
X131674998Y-93073373D01*
X131674997Y-93073373D01*
X131675001Y-93073369D01*
X131771507Y-92883965D01*
X131837196Y-92681796D01*
X131870450Y-92471840D01*
X131870450Y-92259266D01*
X131837196Y-92049310D01*
X131771507Y-91847141D01*
X131675001Y-91657737D01*
X131674999Y-91657734D01*
X131674998Y-91657732D01*
X131550059Y-91485766D01*
X131399742Y-91335449D01*
X131349228Y-91298749D01*
X131235154Y-91215869D01*
X131192490Y-91160542D01*
X131186511Y-91090929D01*
X131219116Y-91029133D01*
X131235149Y-91015239D01*
X131399742Y-90895657D01*
X131550054Y-90745345D01*
X131550056Y-90745341D01*
X131550059Y-90745339D01*
X131674998Y-90573373D01*
X131674997Y-90573373D01*
X131675001Y-90573369D01*
X131771507Y-90383965D01*
X131837196Y-90181796D01*
X131870450Y-89971840D01*
X131870450Y-89759266D01*
X131837196Y-89549310D01*
X131771507Y-89347141D01*
X131675001Y-89157737D01*
X131674999Y-89157734D01*
X131674998Y-89157732D01*
X131550059Y-88985766D01*
X131399736Y-88835443D01*
X131227770Y-88710504D01*
X131038364Y-88613997D01*
X131038363Y-88613996D01*
X131038362Y-88613996D01*
X130836193Y-88548307D01*
X130836191Y-88548306D01*
X130836190Y-88548306D01*
X130674907Y-88522761D01*
X130626237Y-88515053D01*
X130163663Y-88515053D01*
X130114992Y-88522761D01*
X129953710Y-88548306D01*
X129751535Y-88613997D01*
X129562129Y-88710504D01*
X129390163Y-88835443D01*
X129239840Y-88985766D01*
X129114901Y-89157732D01*
X129018394Y-89347138D01*
X128952703Y-89549313D01*
X128919450Y-89759266D01*
X120748163Y-89759266D01*
X120748563Y-84215536D01*
X128919450Y-84215536D01*
X128919450Y-85515554D01*
X128919451Y-85515571D01*
X128929950Y-85618349D01*
X128929951Y-85618352D01*
X128985135Y-85784884D01*
X128985137Y-85784889D01*
X129020019Y-85841441D01*
X129077238Y-85934209D01*
X129201294Y-86058265D01*
X129350616Y-86150367D01*
X129517153Y-86205552D01*
X129619941Y-86216053D01*
X131169958Y-86216052D01*
X131272747Y-86205552D01*
X131439284Y-86150367D01*
X131588606Y-86058265D01*
X131712662Y-85934209D01*
X131804764Y-85784887D01*
X131859949Y-85618350D01*
X131870450Y-85515562D01*
X131870449Y-84215545D01*
X131870448Y-84215536D01*
X141269450Y-84215536D01*
X141269450Y-85515554D01*
X141269451Y-85515571D01*
X141279950Y-85618349D01*
X141279951Y-85618352D01*
X141335135Y-85784884D01*
X141335137Y-85784889D01*
X141370019Y-85841441D01*
X141427238Y-85934209D01*
X141551294Y-86058265D01*
X141700616Y-86150367D01*
X141867153Y-86205552D01*
X141969941Y-86216053D01*
X143519958Y-86216052D01*
X143622747Y-86205552D01*
X143789284Y-86150367D01*
X143938606Y-86058265D01*
X144062662Y-85934209D01*
X144154764Y-85784887D01*
X144209949Y-85618350D01*
X144220450Y-85515562D01*
X144220449Y-84215545D01*
X144220125Y-84212378D01*
X144209949Y-84112756D01*
X144209948Y-84112753D01*
X144165316Y-83978063D01*
X144154764Y-83946219D01*
X144062662Y-83796897D01*
X143938606Y-83672841D01*
X143789284Y-83580739D01*
X143622747Y-83525554D01*
X143622745Y-83525553D01*
X143519960Y-83515053D01*
X141969948Y-83515053D01*
X141969931Y-83515054D01*
X141867153Y-83525553D01*
X141867150Y-83525554D01*
X141700618Y-83580738D01*
X141700613Y-83580740D01*
X141551292Y-83672842D01*
X141427239Y-83796895D01*
X141335137Y-83946216D01*
X141335136Y-83946219D01*
X141279951Y-84112756D01*
X141279951Y-84112757D01*
X141279950Y-84112757D01*
X141269450Y-84215536D01*
X131870448Y-84215536D01*
X131870125Y-84212378D01*
X131859949Y-84112756D01*
X131859948Y-84112753D01*
X131815316Y-83978063D01*
X131804764Y-83946219D01*
X131712662Y-83796897D01*
X131588606Y-83672841D01*
X131439284Y-83580739D01*
X131272747Y-83525554D01*
X131272745Y-83525553D01*
X131169960Y-83515053D01*
X129619948Y-83515053D01*
X129619931Y-83515054D01*
X129517153Y-83525553D01*
X129517150Y-83525554D01*
X129350618Y-83580738D01*
X129350613Y-83580740D01*
X129201292Y-83672842D01*
X129077239Y-83796895D01*
X128985137Y-83946216D01*
X128985136Y-83946219D01*
X128929951Y-84112756D01*
X128929951Y-84112757D01*
X128929950Y-84112757D01*
X128919450Y-84215536D01*
X120748563Y-84215536D01*
X120749063Y-77286706D01*
X132994450Y-77286706D01*
X132994450Y-77444399D01*
X133025211Y-77599042D01*
X133025214Y-77599054D01*
X133085552Y-77744725D01*
X133085559Y-77744738D01*
X133173160Y-77875841D01*
X133173163Y-77875845D01*
X133284657Y-77987339D01*
X133284661Y-77987342D01*
X133415764Y-78074943D01*
X133415777Y-78074950D01*
X133561448Y-78135288D01*
X133561453Y-78135290D01*
X133716103Y-78166052D01*
X133716106Y-78166053D01*
X133716108Y-78166053D01*
X133873794Y-78166053D01*
X133873795Y-78166052D01*
X134028447Y-78135290D01*
X134174129Y-78074947D01*
X134305239Y-77987342D01*
X134416739Y-77875842D01*
X134504344Y-77744732D01*
X134564687Y-77599050D01*
X134595450Y-77444395D01*
X134595450Y-77286711D01*
X134595450Y-77286708D01*
X134595449Y-77286706D01*
X134564688Y-77132063D01*
X134564687Y-77132056D01*
X134543507Y-77080923D01*
X134504347Y-76986380D01*
X134504340Y-76986367D01*
X134416739Y-76855264D01*
X134416736Y-76855260D01*
X134305242Y-76743766D01*
X134305238Y-76743763D01*
X134174135Y-76656162D01*
X134174122Y-76656155D01*
X134028451Y-76595817D01*
X134028439Y-76595814D01*
X133873795Y-76565053D01*
X133873792Y-76565053D01*
X133716108Y-76565053D01*
X133716105Y-76565053D01*
X133561460Y-76595814D01*
X133561448Y-76595817D01*
X133415777Y-76656155D01*
X133415764Y-76656162D01*
X133284661Y-76743763D01*
X133284657Y-76743766D01*
X133173163Y-76855260D01*
X133173160Y-76855264D01*
X133085559Y-76986367D01*
X133085552Y-76986380D01*
X133025214Y-77132051D01*
X133025211Y-77132063D01*
X132994450Y-77286706D01*
X120749063Y-77286706D01*
X120749786Y-67259266D01*
X128919450Y-67259266D01*
X128919450Y-67471840D01*
X128952704Y-67681796D01*
X128959005Y-67701189D01*
X129018394Y-67883967D01*
X129114901Y-68073373D01*
X129239840Y-68245339D01*
X129390159Y-68395658D01*
X129390164Y-68395662D01*
X129554743Y-68515235D01*
X129597409Y-68570564D01*
X129603388Y-68640178D01*
X129570783Y-68701973D01*
X129554743Y-68715871D01*
X129390164Y-68835443D01*
X129390159Y-68835447D01*
X129239840Y-68985766D01*
X129114901Y-69157732D01*
X129018394Y-69347138D01*
X128952703Y-69549313D01*
X128936769Y-69649917D01*
X128919450Y-69759266D01*
X128919450Y-69971840D01*
X128952704Y-70181796D01*
X128972002Y-70241190D01*
X129018394Y-70383967D01*
X129114901Y-70573373D01*
X129239840Y-70745339D01*
X129390159Y-70895658D01*
X129390164Y-70895662D01*
X129554743Y-71015235D01*
X129597409Y-71070564D01*
X129603388Y-71140178D01*
X129570783Y-71201973D01*
X129554743Y-71215871D01*
X129390164Y-71335443D01*
X129390159Y-71335447D01*
X129239840Y-71485766D01*
X129114901Y-71657732D01*
X129018394Y-71847138D01*
X128952703Y-72049313D01*
X128930434Y-72189915D01*
X128919450Y-72259266D01*
X128919450Y-72471840D01*
X128952704Y-72681796D01*
X128999318Y-72825260D01*
X129018394Y-72883967D01*
X129114901Y-73073373D01*
X129239840Y-73245339D01*
X129390163Y-73395662D01*
X129562129Y-73520601D01*
X129562131Y-73520602D01*
X129562134Y-73520604D01*
X129751538Y-73617110D01*
X129953707Y-73682799D01*
X130163663Y-73716053D01*
X130163664Y-73716053D01*
X130626236Y-73716053D01*
X130626237Y-73716053D01*
X130836193Y-73682799D01*
X131038362Y-73617110D01*
X131227766Y-73520604D01*
X131373946Y-73414399D01*
X131399736Y-73395662D01*
X131399738Y-73395659D01*
X131399742Y-73395657D01*
X131550054Y-73245345D01*
X131550056Y-73245341D01*
X131550059Y-73245339D01*
X131674998Y-73073373D01*
X131674997Y-73073373D01*
X131675001Y-73073369D01*
X131771507Y-72883965D01*
X131837196Y-72681796D01*
X131870450Y-72471840D01*
X131870450Y-72259266D01*
X131837196Y-72049310D01*
X131771507Y-71847141D01*
X131675001Y-71657737D01*
X131674999Y-71657734D01*
X131674998Y-71657732D01*
X131550059Y-71485766D01*
X131399742Y-71335449D01*
X131372350Y-71315548D01*
X131235154Y-71215869D01*
X131192490Y-71160542D01*
X131186511Y-71090929D01*
X131219116Y-71029133D01*
X131235149Y-71015239D01*
X131399742Y-70895657D01*
X131550054Y-70745345D01*
X131550056Y-70745341D01*
X131550059Y-70745339D01*
X131674998Y-70573373D01*
X131674997Y-70573373D01*
X131675001Y-70573369D01*
X131771507Y-70383965D01*
X131837196Y-70181796D01*
X131870450Y-69971840D01*
X131870450Y-69759266D01*
X131837196Y-69549310D01*
X131771507Y-69347141D01*
X131675001Y-69157737D01*
X131674999Y-69157734D01*
X131674998Y-69157732D01*
X131550059Y-68985766D01*
X131399742Y-68835449D01*
X131331733Y-68786038D01*
X131235154Y-68715869D01*
X131192490Y-68660542D01*
X131186511Y-68590929D01*
X131219116Y-68529133D01*
X131235149Y-68515239D01*
X131399742Y-68395657D01*
X131550054Y-68245345D01*
X131550056Y-68245341D01*
X131550059Y-68245339D01*
X131674998Y-68073373D01*
X131674997Y-68073373D01*
X131675001Y-68073369D01*
X131771507Y-67883965D01*
X131837196Y-67681796D01*
X131870450Y-67471840D01*
X131870450Y-67259266D01*
X141269450Y-67259266D01*
X141269450Y-67471840D01*
X141302704Y-67681796D01*
X141309005Y-67701189D01*
X141368394Y-67883967D01*
X141464901Y-68073373D01*
X141589840Y-68245339D01*
X141740159Y-68395658D01*
X141740164Y-68395662D01*
X141904743Y-68515235D01*
X141947409Y-68570564D01*
X141953388Y-68640178D01*
X141920783Y-68701973D01*
X141904743Y-68715871D01*
X141740164Y-68835443D01*
X141740159Y-68835447D01*
X141589840Y-68985766D01*
X141464901Y-69157732D01*
X141368394Y-69347138D01*
X141302703Y-69549313D01*
X141286769Y-69649917D01*
X141269450Y-69759266D01*
X141269450Y-69971840D01*
X141302704Y-70181796D01*
X141322002Y-70241190D01*
X141368394Y-70383967D01*
X141464901Y-70573373D01*
X141589840Y-70745339D01*
X141740159Y-70895658D01*
X141740164Y-70895662D01*
X141904743Y-71015235D01*
X141947409Y-71070564D01*
X141953388Y-71140178D01*
X141920783Y-71201973D01*
X141904743Y-71215871D01*
X141740164Y-71335443D01*
X141740159Y-71335447D01*
X141589840Y-71485766D01*
X141464901Y-71657732D01*
X141368394Y-71847138D01*
X141302703Y-72049313D01*
X141280434Y-72189915D01*
X141269450Y-72259266D01*
X141269450Y-72471840D01*
X141302704Y-72681796D01*
X141349318Y-72825260D01*
X141368394Y-72883967D01*
X141464901Y-73073373D01*
X141589840Y-73245339D01*
X141740163Y-73395662D01*
X141912129Y-73520601D01*
X141912131Y-73520602D01*
X141912134Y-73520604D01*
X142101538Y-73617110D01*
X142303707Y-73682799D01*
X142513663Y-73716053D01*
X142513664Y-73716053D01*
X142976236Y-73716053D01*
X142976237Y-73716053D01*
X143186193Y-73682799D01*
X143388362Y-73617110D01*
X143577766Y-73520604D01*
X143723946Y-73414399D01*
X143749736Y-73395662D01*
X143749738Y-73395659D01*
X143749742Y-73395657D01*
X143900054Y-73245345D01*
X144009330Y-73094937D01*
X144064659Y-73052273D01*
X144109648Y-73043824D01*
X145172012Y-73043824D01*
X145172032Y-73043825D01*
X145178146Y-73043825D01*
X145311756Y-73043825D01*
X145399911Y-73026289D01*
X145442794Y-73017759D01*
X145566232Y-72966629D01*
X145571326Y-72963225D01*
X145581581Y-72956374D01*
X145644976Y-72914014D01*
X145677323Y-72892401D01*
X145771798Y-72797926D01*
X145771799Y-72797923D01*
X145778865Y-72790858D01*
X145778867Y-72790854D01*
X147354999Y-71214722D01*
X147416321Y-71181239D01*
X147486013Y-71186223D01*
X147541946Y-71228095D01*
X147566363Y-71293559D01*
X147566679Y-71302405D01*
X147566679Y-91533242D01*
X147546994Y-91600281D01*
X147530360Y-91620923D01*
X145000320Y-94150963D01*
X144938997Y-94184448D01*
X144912639Y-94187282D01*
X144109648Y-94187282D01*
X144042609Y-94167597D01*
X144009330Y-94136168D01*
X143900054Y-93985761D01*
X143749742Y-93835449D01*
X143585154Y-93715869D01*
X143542490Y-93660542D01*
X143536511Y-93590929D01*
X143569116Y-93529133D01*
X143585149Y-93515239D01*
X143749742Y-93395657D01*
X143900054Y-93245345D01*
X143900056Y-93245341D01*
X143900059Y-93245339D01*
X144024998Y-93073373D01*
X144024997Y-93073373D01*
X144025001Y-93073369D01*
X144121507Y-92883965D01*
X144187196Y-92681796D01*
X144220450Y-92471840D01*
X144220450Y-92259266D01*
X144187196Y-92049310D01*
X144121507Y-91847141D01*
X144025001Y-91657737D01*
X144024999Y-91657734D01*
X144024998Y-91657732D01*
X143900059Y-91485766D01*
X143749742Y-91335449D01*
X143699228Y-91298749D01*
X143585154Y-91215869D01*
X143542490Y-91160542D01*
X143536511Y-91090929D01*
X143569116Y-91029133D01*
X143585149Y-91015239D01*
X143749742Y-90895657D01*
X143900054Y-90745345D01*
X143900056Y-90745341D01*
X143900059Y-90745339D01*
X144024998Y-90573373D01*
X144024997Y-90573373D01*
X144025001Y-90573369D01*
X144121507Y-90383965D01*
X144187196Y-90181796D01*
X144220450Y-89971840D01*
X144220450Y-89759266D01*
X144187196Y-89549310D01*
X144121507Y-89347141D01*
X144025001Y-89157737D01*
X144024999Y-89157734D01*
X144024998Y-89157732D01*
X143900059Y-88985766D01*
X143749736Y-88835443D01*
X143577770Y-88710504D01*
X143388364Y-88613997D01*
X143388363Y-88613996D01*
X143388362Y-88613996D01*
X143186193Y-88548307D01*
X143186191Y-88548306D01*
X143186190Y-88548306D01*
X143024907Y-88522761D01*
X142976237Y-88515053D01*
X142513663Y-88515053D01*
X142464992Y-88522761D01*
X142303710Y-88548306D01*
X142101535Y-88613997D01*
X141912129Y-88710504D01*
X141740163Y-88835443D01*
X141589840Y-88985766D01*
X141464901Y-89157732D01*
X141368394Y-89347138D01*
X141302703Y-89549313D01*
X141269450Y-89759266D01*
X141269450Y-89971839D01*
X141302703Y-90181792D01*
X141368394Y-90383967D01*
X141464901Y-90573373D01*
X141589840Y-90745339D01*
X141740159Y-90895658D01*
X141740164Y-90895662D01*
X141904743Y-91015235D01*
X141947409Y-91070564D01*
X141953388Y-91140178D01*
X141920783Y-91201973D01*
X141904743Y-91215871D01*
X141740164Y-91335443D01*
X141740159Y-91335447D01*
X141589840Y-91485766D01*
X141464901Y-91657732D01*
X141368394Y-91847138D01*
X141302703Y-92049313D01*
X141287729Y-92143858D01*
X141269450Y-92259266D01*
X141269450Y-92471840D01*
X141279484Y-92535197D01*
X141302703Y-92681792D01*
X141368394Y-92883967D01*
X141464901Y-93073373D01*
X141589840Y-93245339D01*
X141740159Y-93395658D01*
X141740164Y-93395662D01*
X141904743Y-93515235D01*
X141947409Y-93570564D01*
X141953388Y-93640178D01*
X141920783Y-93701973D01*
X141904743Y-93715871D01*
X141740164Y-93835443D01*
X141740159Y-93835447D01*
X141589840Y-93985766D01*
X141464901Y-94157732D01*
X141368394Y-94347138D01*
X141302703Y-94549313D01*
X141269450Y-94759266D01*
X141269450Y-94971839D01*
X141302703Y-95181792D01*
X141368394Y-95383967D01*
X141464901Y-95573373D01*
X141589840Y-95745339D01*
X141740163Y-95895662D01*
X141912129Y-96020601D01*
X141912131Y-96020602D01*
X141912134Y-96020604D01*
X142101538Y-96117110D01*
X142303707Y-96182799D01*
X142513663Y-96216053D01*
X142513664Y-96216053D01*
X142976236Y-96216053D01*
X142976237Y-96216053D01*
X143186193Y-96182799D01*
X143388362Y-96117110D01*
X143577766Y-96020604D01*
X143599739Y-96004639D01*
X143749736Y-95895662D01*
X143749738Y-95895659D01*
X143749742Y-95895657D01*
X143900054Y-95745345D01*
X144009330Y-95594937D01*
X144064659Y-95552273D01*
X144109648Y-95543824D01*
X145172012Y-95543824D01*
X145172032Y-95543825D01*
X145178146Y-95543825D01*
X145311756Y-95543825D01*
X145399911Y-95526289D01*
X145442794Y-95517759D01*
X145566232Y-95466629D01*
X145598779Y-95444882D01*
X145677323Y-95392401D01*
X145771798Y-95297926D01*
X145771799Y-95297923D01*
X145778865Y-95290858D01*
X145778867Y-95290854D01*
X147354999Y-93714722D01*
X147416321Y-93681239D01*
X147486013Y-93686223D01*
X147541946Y-93728095D01*
X147566363Y-93793559D01*
X147566679Y-93802405D01*
X147566679Y-114033242D01*
X147546994Y-114100281D01*
X147530360Y-114120923D01*
X145000320Y-116650963D01*
X144938997Y-116684448D01*
X144912639Y-116687282D01*
X144109648Y-116687282D01*
X144042609Y-116667597D01*
X144009330Y-116636168D01*
X143900054Y-116485761D01*
X143749742Y-116335449D01*
X143585154Y-116215869D01*
X143542490Y-116160542D01*
X143536511Y-116090929D01*
X143569116Y-116029133D01*
X143585149Y-116015239D01*
X143749742Y-115895657D01*
X143900054Y-115745345D01*
X143900056Y-115745341D01*
X143900059Y-115745339D01*
X144024998Y-115573373D01*
X144024997Y-115573373D01*
X144025001Y-115573369D01*
X144121507Y-115383965D01*
X144187196Y-115181796D01*
X144220450Y-114971840D01*
X144220450Y-114759266D01*
X144187196Y-114549310D01*
X144121507Y-114347141D01*
X144025001Y-114157737D01*
X144024999Y-114157734D01*
X144024998Y-114157732D01*
X143900059Y-113985766D01*
X143749742Y-113835449D01*
X143683397Y-113787247D01*
X143585154Y-113715869D01*
X143542490Y-113660542D01*
X143536511Y-113590929D01*
X143569116Y-113529133D01*
X143585149Y-113515239D01*
X143749742Y-113395657D01*
X143900054Y-113245345D01*
X143900056Y-113245341D01*
X143900059Y-113245339D01*
X144024998Y-113073373D01*
X144024997Y-113073373D01*
X144025001Y-113073369D01*
X144121507Y-112883965D01*
X144187196Y-112681796D01*
X144220450Y-112471840D01*
X144220450Y-112259266D01*
X144187196Y-112049310D01*
X144121507Y-111847141D01*
X144025001Y-111657737D01*
X144024999Y-111657734D01*
X144024998Y-111657732D01*
X143900059Y-111485766D01*
X143749736Y-111335443D01*
X143577770Y-111210504D01*
X143388364Y-111113997D01*
X143388363Y-111113996D01*
X143388362Y-111113996D01*
X143186193Y-111048307D01*
X143186191Y-111048306D01*
X143186190Y-111048306D01*
X143024907Y-111022761D01*
X142976237Y-111015053D01*
X142513663Y-111015053D01*
X142464992Y-111022761D01*
X142303710Y-111048306D01*
X142101535Y-111113997D01*
X141912129Y-111210504D01*
X141740163Y-111335443D01*
X141589840Y-111485766D01*
X141464901Y-111657732D01*
X141368394Y-111847138D01*
X141302703Y-112049313D01*
X141269450Y-112259266D01*
X141269450Y-112471839D01*
X141302703Y-112681792D01*
X141368394Y-112883967D01*
X141464901Y-113073373D01*
X141589840Y-113245339D01*
X141740159Y-113395658D01*
X141740164Y-113395662D01*
X141904743Y-113515235D01*
X141947409Y-113570564D01*
X141953388Y-113640178D01*
X141920783Y-113701973D01*
X141904743Y-113715871D01*
X141740164Y-113835443D01*
X141740159Y-113835447D01*
X141589840Y-113985766D01*
X141464901Y-114157732D01*
X141368394Y-114347138D01*
X141302703Y-114549313D01*
X141269450Y-114759266D01*
X141269450Y-114971839D01*
X141302703Y-115181792D01*
X141368394Y-115383967D01*
X141464901Y-115573373D01*
X141589840Y-115745339D01*
X141740159Y-115895658D01*
X141740164Y-115895662D01*
X141904743Y-116015235D01*
X141947409Y-116070564D01*
X141953388Y-116140178D01*
X141920783Y-116201973D01*
X141904743Y-116215871D01*
X141740164Y-116335443D01*
X141740159Y-116335447D01*
X141589840Y-116485766D01*
X141464901Y-116657732D01*
X141368394Y-116847138D01*
X141302703Y-117049313D01*
X141290594Y-117125766D01*
X141269450Y-117259266D01*
X141269450Y-117471840D01*
X141302704Y-117681796D01*
X141315417Y-117720923D01*
X141368394Y-117883967D01*
X141464901Y-118073373D01*
X141589840Y-118245339D01*
X141740163Y-118395662D01*
X141912129Y-118520601D01*
X141912131Y-118520602D01*
X141912134Y-118520604D01*
X142101538Y-118617110D01*
X142303707Y-118682799D01*
X142513663Y-118716053D01*
X142513664Y-118716053D01*
X142976236Y-118716053D01*
X142976237Y-118716053D01*
X143186193Y-118682799D01*
X143388362Y-118617110D01*
X143577766Y-118520604D01*
X143604489Y-118501189D01*
X143749736Y-118395662D01*
X143749738Y-118395659D01*
X143749742Y-118395657D01*
X143900054Y-118245345D01*
X144009330Y-118094937D01*
X144064659Y-118052273D01*
X144109648Y-118043824D01*
X145172012Y-118043824D01*
X145172032Y-118043825D01*
X145178146Y-118043825D01*
X145311756Y-118043825D01*
X145399911Y-118026289D01*
X145442794Y-118017759D01*
X145566232Y-117966629D01*
X145677323Y-117892401D01*
X145771798Y-117797926D01*
X145771799Y-117797924D01*
X145778865Y-117790858D01*
X145778868Y-117790854D01*
X148677319Y-114892403D01*
X148677323Y-114892401D01*
X148771798Y-114797926D01*
X148846026Y-114686835D01*
X148897156Y-114563397D01*
X148910652Y-114495548D01*
X148923222Y-114432357D01*
X148923222Y-114298749D01*
X148923221Y-114298743D01*
X148923221Y-91938491D01*
X148923222Y-91938470D01*
X148923222Y-91793639D01*
X148923221Y-91793613D01*
X148923221Y-69432362D01*
X148923222Y-69432357D01*
X148923222Y-69298749D01*
X148923221Y-69298743D01*
X148923221Y-64766192D01*
X151482450Y-64766192D01*
X151482450Y-64964913D01*
X151513537Y-65161190D01*
X151574943Y-65350182D01*
X151574944Y-65350185D01*
X151665163Y-65527247D01*
X151781969Y-65688017D01*
X151922486Y-65828534D01*
X152083256Y-65945340D01*
X152201782Y-66005732D01*
X152239730Y-66025068D01*
X152290526Y-66073043D01*
X152307321Y-66140864D01*
X152284783Y-66206999D01*
X152239730Y-66246038D01*
X152083255Y-66325766D01*
X151922483Y-66442574D01*
X151781971Y-66583086D01*
X151665163Y-66743858D01*
X151574944Y-66920920D01*
X151574943Y-66920923D01*
X151513537Y-67109915D01*
X151482450Y-67306192D01*
X151482450Y-67504913D01*
X151513537Y-67701190D01*
X151574943Y-67890182D01*
X151574944Y-67890185D01*
X151665163Y-68067247D01*
X151781969Y-68228017D01*
X151922486Y-68368534D01*
X152083256Y-68485340D01*
X152169204Y-68529133D01*
X152239730Y-68565068D01*
X152290526Y-68613043D01*
X152307321Y-68680864D01*
X152284783Y-68746999D01*
X152239730Y-68786038D01*
X152083255Y-68865766D01*
X151922483Y-68982574D01*
X151781971Y-69123086D01*
X151665163Y-69283858D01*
X151574944Y-69460920D01*
X151574943Y-69460923D01*
X151513537Y-69649915D01*
X151482450Y-69846192D01*
X151482450Y-70044913D01*
X151513537Y-70241190D01*
X151574943Y-70430182D01*
X151574944Y-70430185D01*
X151647901Y-70573369D01*
X151665163Y-70607247D01*
X151781969Y-70768017D01*
X151922486Y-70908534D01*
X152083256Y-71025340D01*
X152172013Y-71070564D01*
X152239730Y-71105068D01*
X152290526Y-71153043D01*
X152307321Y-71220864D01*
X152284783Y-71286999D01*
X152239730Y-71326038D01*
X152083255Y-71405766D01*
X151922483Y-71522574D01*
X151781971Y-71663086D01*
X151665163Y-71823858D01*
X151574944Y-72000920D01*
X151574943Y-72000923D01*
X151513537Y-72189915D01*
X151482450Y-72386192D01*
X151482450Y-72584913D01*
X151513537Y-72781190D01*
X151574943Y-72970182D01*
X151574944Y-72970185D01*
X151642134Y-73102051D01*
X151665163Y-73147247D01*
X151781969Y-73308017D01*
X151922486Y-73448534D01*
X152083256Y-73565340D01*
X152184856Y-73617108D01*
X152239730Y-73645068D01*
X152290526Y-73693043D01*
X152307321Y-73760864D01*
X152284783Y-73826999D01*
X152239730Y-73866038D01*
X152083255Y-73945766D01*
X151922483Y-74062574D01*
X151781971Y-74203086D01*
X151665163Y-74363858D01*
X151574944Y-74540920D01*
X151574943Y-74540923D01*
X151513537Y-74729915D01*
X151482450Y-74926192D01*
X151482450Y-75124913D01*
X151513537Y-75321190D01*
X151574943Y-75510182D01*
X151574944Y-75510185D01*
X151665163Y-75687247D01*
X151781969Y-75848017D01*
X151922486Y-75988534D01*
X152083256Y-76105340D01*
X152201782Y-76165732D01*
X152239730Y-76185068D01*
X152290526Y-76233043D01*
X152307321Y-76300864D01*
X152284783Y-76366999D01*
X152239730Y-76406038D01*
X152083255Y-76485766D01*
X151922483Y-76602574D01*
X151781971Y-76743086D01*
X151665163Y-76903858D01*
X151574944Y-77080920D01*
X151574943Y-77080923D01*
X151513537Y-77269915D01*
X151482450Y-77466192D01*
X151482450Y-77664913D01*
X151513537Y-77861190D01*
X151574943Y-78050182D01*
X151574944Y-78050185D01*
X151633982Y-78166052D01*
X151665163Y-78227247D01*
X151781969Y-78388017D01*
X151922486Y-78528534D01*
X152083256Y-78645340D01*
X152201782Y-78705732D01*
X152239730Y-78725068D01*
X152290526Y-78773043D01*
X152307321Y-78840864D01*
X152284783Y-78906999D01*
X152239730Y-78946038D01*
X152083255Y-79025766D01*
X151922483Y-79142574D01*
X151781971Y-79283086D01*
X151665163Y-79443858D01*
X151574944Y-79620920D01*
X151574943Y-79620923D01*
X151513537Y-79809915D01*
X151482450Y-80006192D01*
X151482450Y-80204913D01*
X151513537Y-80401190D01*
X151574943Y-80590182D01*
X151574944Y-80590185D01*
X151665163Y-80767247D01*
X151781969Y-80928017D01*
X151922486Y-81068534D01*
X152083256Y-81185340D01*
X152201782Y-81245732D01*
X152239730Y-81265068D01*
X152290526Y-81313043D01*
X152307321Y-81380864D01*
X152284783Y-81446999D01*
X152239730Y-81486038D01*
X152083255Y-81565766D01*
X151922483Y-81682574D01*
X151781971Y-81823086D01*
X151665163Y-81983858D01*
X151574944Y-82160920D01*
X151574943Y-82160923D01*
X151513537Y-82349915D01*
X151482450Y-82546192D01*
X151482450Y-82744913D01*
X151513537Y-82941190D01*
X151574943Y-83130182D01*
X151574944Y-83130185D01*
X151665163Y-83307247D01*
X151781969Y-83468017D01*
X151922486Y-83608534D01*
X152083256Y-83725340D01*
X152201782Y-83785732D01*
X152239730Y-83805068D01*
X152290526Y-83853043D01*
X152307321Y-83920864D01*
X152284783Y-83986999D01*
X152239730Y-84026038D01*
X152083255Y-84105766D01*
X151922483Y-84222574D01*
X151781971Y-84363086D01*
X151665163Y-84523858D01*
X151574944Y-84700920D01*
X151574943Y-84700923D01*
X151513537Y-84889915D01*
X151482450Y-85086192D01*
X151482450Y-85284913D01*
X151513537Y-85481190D01*
X151574943Y-85670182D01*
X151574944Y-85670185D01*
X151643007Y-85803764D01*
X151665163Y-85847247D01*
X151781969Y-86008017D01*
X151922486Y-86148534D01*
X152083256Y-86265340D01*
X152201782Y-86325732D01*
X152239730Y-86345068D01*
X152290526Y-86393043D01*
X152307321Y-86460864D01*
X152284783Y-86526999D01*
X152239730Y-86566038D01*
X152083255Y-86645766D01*
X151922483Y-86762574D01*
X151781971Y-86903086D01*
X151665163Y-87063858D01*
X151574944Y-87240920D01*
X151574943Y-87240923D01*
X151513537Y-87429915D01*
X151482450Y-87626192D01*
X151482450Y-87824913D01*
X151513537Y-88021190D01*
X151574943Y-88210182D01*
X151574944Y-88210185D01*
X151620139Y-88298883D01*
X151665163Y-88387247D01*
X151781969Y-88548017D01*
X151922486Y-88688534D01*
X152083256Y-88805340D01*
X152142348Y-88835449D01*
X152239730Y-88885068D01*
X152290526Y-88933043D01*
X152307321Y-89000864D01*
X152284783Y-89066999D01*
X152239730Y-89106038D01*
X152083255Y-89185766D01*
X151922483Y-89302574D01*
X151781971Y-89443086D01*
X151665163Y-89603858D01*
X151574944Y-89780920D01*
X151574943Y-89780923D01*
X151513537Y-89969915D01*
X151513232Y-89971840D01*
X151482450Y-90166192D01*
X151482450Y-90364914D01*
X151485468Y-90383967D01*
X151513537Y-90561190D01*
X151574943Y-90750182D01*
X151574944Y-90750185D01*
X151665163Y-90927247D01*
X151781969Y-91088017D01*
X151922486Y-91228534D01*
X152083256Y-91345340D01*
X152186658Y-91398026D01*
X152239730Y-91425068D01*
X152290526Y-91473043D01*
X152307321Y-91540864D01*
X152284783Y-91606999D01*
X152239730Y-91646038D01*
X152083255Y-91725766D01*
X151922483Y-91842574D01*
X151781971Y-91983086D01*
X151665163Y-92143858D01*
X151574944Y-92320920D01*
X151574943Y-92320923D01*
X151513537Y-92509915D01*
X151482450Y-92706192D01*
X151482450Y-92904913D01*
X151513537Y-93101190D01*
X151574943Y-93290182D01*
X151574944Y-93290185D01*
X151628685Y-93395656D01*
X151665163Y-93467247D01*
X151781969Y-93628017D01*
X151922486Y-93768534D01*
X152083256Y-93885340D01*
X152201782Y-93945732D01*
X152239730Y-93965068D01*
X152290526Y-94013043D01*
X152307321Y-94080864D01*
X152284783Y-94146999D01*
X152239730Y-94186038D01*
X152083255Y-94265766D01*
X151922483Y-94382574D01*
X151781971Y-94523086D01*
X151665163Y-94683858D01*
X151574944Y-94860920D01*
X151574943Y-94860923D01*
X151513537Y-95049915D01*
X151482450Y-95246192D01*
X151482450Y-95444913D01*
X151513537Y-95641190D01*
X151574943Y-95830182D01*
X151574944Y-95830185D01*
X151608307Y-95895662D01*
X151665163Y-96007247D01*
X151781969Y-96168017D01*
X151922486Y-96308534D01*
X152083256Y-96425340D01*
X152201782Y-96485732D01*
X152239730Y-96505068D01*
X152290526Y-96553043D01*
X152307321Y-96620864D01*
X152284783Y-96686999D01*
X152239730Y-96726038D01*
X152083255Y-96805766D01*
X151922483Y-96922574D01*
X151781971Y-97063086D01*
X151665163Y-97223858D01*
X151574944Y-97400920D01*
X151574943Y-97400923D01*
X151513537Y-97589915D01*
X151482450Y-97786192D01*
X151482450Y-97984913D01*
X151513537Y-98181190D01*
X151574943Y-98370182D01*
X151574944Y-98370185D01*
X151665163Y-98547247D01*
X151781969Y-98708017D01*
X151922486Y-98848534D01*
X152083256Y-98965340D01*
X152201782Y-99025732D01*
X152239730Y-99045068D01*
X152290526Y-99093043D01*
X152307321Y-99160864D01*
X152284783Y-99226999D01*
X152239730Y-99266038D01*
X152083255Y-99345766D01*
X151922483Y-99462574D01*
X151781971Y-99603086D01*
X151665163Y-99763858D01*
X151574944Y-99940920D01*
X151574943Y-99940923D01*
X151513537Y-100129915D01*
X151513537Y-100129917D01*
X151482450Y-100326192D01*
X151482450Y-100524914D01*
X151490375Y-100574950D01*
X151513537Y-100721190D01*
X151574943Y-100910182D01*
X151574944Y-100910185D01*
X151665163Y-101087247D01*
X151781969Y-101248017D01*
X151922486Y-101388534D01*
X152083256Y-101505340D01*
X152201782Y-101565732D01*
X152239730Y-101585068D01*
X152290526Y-101633043D01*
X152307321Y-101700864D01*
X152284783Y-101766999D01*
X152239730Y-101806038D01*
X152083255Y-101885766D01*
X151922483Y-102002574D01*
X151781971Y-102143086D01*
X151665163Y-102303858D01*
X151574944Y-102480920D01*
X151574943Y-102480923D01*
X151513537Y-102669915D01*
X151482450Y-102866192D01*
X151482450Y-103064913D01*
X151513537Y-103261190D01*
X151574943Y-103450182D01*
X151574944Y-103450185D01*
X151665163Y-103627247D01*
X151781969Y-103788017D01*
X151922486Y-103928534D01*
X152083256Y-104045340D01*
X152201782Y-104105732D01*
X152239730Y-104125068D01*
X152290526Y-104173043D01*
X152307321Y-104240864D01*
X152284783Y-104306999D01*
X152239730Y-104346038D01*
X152083255Y-104425766D01*
X151922483Y-104542574D01*
X151781971Y-104683086D01*
X151665163Y-104843858D01*
X151574944Y-105020920D01*
X151574943Y-105020923D01*
X151513537Y-105209915D01*
X151482450Y-105406192D01*
X151482450Y-105604913D01*
X151513537Y-105801190D01*
X151574943Y-105990182D01*
X151574944Y-105990185D01*
X151621085Y-106080740D01*
X151665163Y-106167247D01*
X151781969Y-106328017D01*
X151922486Y-106468534D01*
X152083256Y-106585340D01*
X152137057Y-106612753D01*
X152239730Y-106665068D01*
X152290526Y-106713043D01*
X152307321Y-106780864D01*
X152284783Y-106846999D01*
X152239730Y-106886038D01*
X152083255Y-106965766D01*
X151922483Y-107082574D01*
X151781971Y-107223086D01*
X151665163Y-107383858D01*
X151574944Y-107560920D01*
X151574943Y-107560923D01*
X151513537Y-107749915D01*
X151482450Y-107946192D01*
X151482450Y-108144913D01*
X151513537Y-108341190D01*
X151574943Y-108530182D01*
X151574944Y-108530185D01*
X151636180Y-108650365D01*
X151665163Y-108707247D01*
X151781969Y-108868017D01*
X151922486Y-109008534D01*
X152083256Y-109125340D01*
X152201782Y-109185732D01*
X152239730Y-109205068D01*
X152290526Y-109253043D01*
X152307321Y-109320864D01*
X152284783Y-109386999D01*
X152239730Y-109426038D01*
X152083255Y-109505766D01*
X151922483Y-109622574D01*
X151781971Y-109763086D01*
X151665163Y-109923858D01*
X151574944Y-110100920D01*
X151574943Y-110100923D01*
X151513537Y-110289915D01*
X151482450Y-110486192D01*
X151482450Y-110684913D01*
X151513537Y-110881190D01*
X151574943Y-111070182D01*
X151574944Y-111070185D01*
X151597268Y-111113997D01*
X151665163Y-111247247D01*
X151781969Y-111408017D01*
X151922486Y-111548534D01*
X152083256Y-111665340D01*
X152201782Y-111725732D01*
X152239730Y-111745068D01*
X152290526Y-111793043D01*
X152307321Y-111860864D01*
X152284783Y-111926999D01*
X152239730Y-111966038D01*
X152083255Y-112045766D01*
X151922483Y-112162574D01*
X151781971Y-112303086D01*
X151665163Y-112463858D01*
X151574944Y-112640920D01*
X151574943Y-112640923D01*
X151513537Y-112829915D01*
X151482450Y-113026192D01*
X151482450Y-113224913D01*
X151513537Y-113421190D01*
X151574943Y-113610182D01*
X151574944Y-113610185D01*
X151626059Y-113710502D01*
X151665163Y-113787247D01*
X151781969Y-113948017D01*
X151922486Y-114088534D01*
X152083256Y-114205340D01*
X152201782Y-114265732D01*
X152239730Y-114285068D01*
X152290526Y-114333043D01*
X152307321Y-114400864D01*
X152284783Y-114466999D01*
X152239730Y-114506038D01*
X152083255Y-114585766D01*
X151922483Y-114702574D01*
X151781971Y-114843086D01*
X151665163Y-115003858D01*
X151574944Y-115180920D01*
X151574943Y-115180923D01*
X151513537Y-115369915D01*
X151482450Y-115566192D01*
X151482450Y-115764913D01*
X151513537Y-115961190D01*
X151574943Y-116150182D01*
X151574944Y-116150185D01*
X151608414Y-116215872D01*
X151665163Y-116327247D01*
X151781969Y-116488017D01*
X151922486Y-116628534D01*
X152083256Y-116745340D01*
X152201782Y-116805732D01*
X152239730Y-116825068D01*
X152290526Y-116873043D01*
X152307321Y-116940864D01*
X152284783Y-117006999D01*
X152239730Y-117046038D01*
X152083255Y-117125766D01*
X151922483Y-117242574D01*
X151781971Y-117383086D01*
X151665163Y-117543858D01*
X151574944Y-117720920D01*
X151574943Y-117720923D01*
X151513537Y-117909915D01*
X151482450Y-118106192D01*
X151482450Y-118304913D01*
X151513537Y-118501190D01*
X151574943Y-118690182D01*
X151574944Y-118690185D01*
X151588125Y-118716053D01*
X151665163Y-118867247D01*
X151781969Y-119028017D01*
X151922486Y-119168534D01*
X152083256Y-119285340D01*
X152201782Y-119345732D01*
X152239730Y-119365068D01*
X152290526Y-119413043D01*
X152307321Y-119480864D01*
X152284783Y-119546999D01*
X152239730Y-119586038D01*
X152083255Y-119665766D01*
X151922483Y-119782574D01*
X151781971Y-119923086D01*
X151665163Y-120083858D01*
X151574944Y-120260920D01*
X151574943Y-120260923D01*
X151513537Y-120449915D01*
X151482450Y-120646192D01*
X151482450Y-120844913D01*
X151513537Y-121041190D01*
X151574943Y-121230182D01*
X151574944Y-121230185D01*
X151665163Y-121407247D01*
X151781969Y-121568017D01*
X151922486Y-121708534D01*
X152083256Y-121825340D01*
X152141977Y-121855260D01*
X152260317Y-121915558D01*
X152260320Y-121915559D01*
X152354816Y-121946262D01*
X152449314Y-121976966D01*
X152645589Y-122008053D01*
X152645590Y-122008053D01*
X152844310Y-122008053D01*
X152844311Y-122008053D01*
X153040586Y-121976966D01*
X153229582Y-121915558D01*
X153406644Y-121825340D01*
X153567414Y-121708534D01*
X153707931Y-121568017D01*
X153824737Y-121407247D01*
X153914955Y-121230185D01*
X153976363Y-121041189D01*
X154007450Y-120844914D01*
X154007450Y-120646192D01*
X153976363Y-120449917D01*
X153914955Y-120260921D01*
X153914955Y-120260920D01*
X153824736Y-120083858D01*
X153707931Y-119923089D01*
X153567414Y-119782572D01*
X153406644Y-119665766D01*
X153250168Y-119586037D01*
X153199373Y-119538063D01*
X153182578Y-119470242D01*
X153205115Y-119404107D01*
X153250168Y-119365068D01*
X153406644Y-119285340D01*
X153567414Y-119168534D01*
X153707931Y-119028017D01*
X153824737Y-118867247D01*
X153914955Y-118690185D01*
X153976363Y-118501189D01*
X154007450Y-118304914D01*
X154007450Y-118106192D01*
X153976363Y-117909917D01*
X153914955Y-117720921D01*
X153914955Y-117720920D01*
X153824736Y-117543858D01*
X153772412Y-117471840D01*
X153707931Y-117383089D01*
X153567414Y-117242572D01*
X153406644Y-117125766D01*
X153250168Y-117046037D01*
X153199373Y-116998063D01*
X153182578Y-116930242D01*
X153205115Y-116864107D01*
X153250168Y-116825068D01*
X153406644Y-116745340D01*
X153567414Y-116628534D01*
X153707931Y-116488017D01*
X153824737Y-116327247D01*
X153914955Y-116150185D01*
X153976363Y-115961189D01*
X154007450Y-115764914D01*
X154007450Y-115566192D01*
X153976363Y-115369917D01*
X153945659Y-115275419D01*
X153914956Y-115180923D01*
X153914955Y-115180920D01*
X153824736Y-115003858D01*
X153801473Y-114971839D01*
X153707931Y-114843089D01*
X153567414Y-114702572D01*
X153406644Y-114585766D01*
X153250168Y-114506037D01*
X153199373Y-114458063D01*
X153182578Y-114390242D01*
X153205115Y-114324107D01*
X153250168Y-114285068D01*
X153406644Y-114205340D01*
X153567414Y-114088534D01*
X153707931Y-113948017D01*
X153824737Y-113787247D01*
X153914955Y-113610185D01*
X153976363Y-113421189D01*
X154007450Y-113224914D01*
X154007450Y-113026192D01*
X153976363Y-112829917D01*
X153914955Y-112640921D01*
X153914955Y-112640920D01*
X153868985Y-112550702D01*
X153824737Y-112463859D01*
X153707931Y-112303089D01*
X153567414Y-112162572D01*
X153406644Y-112045766D01*
X153250168Y-111966037D01*
X153199373Y-111918063D01*
X153182578Y-111850242D01*
X153205115Y-111784107D01*
X153250168Y-111745068D01*
X153406644Y-111665340D01*
X153567414Y-111548534D01*
X153707931Y-111408017D01*
X153824737Y-111247247D01*
X153914955Y-111070185D01*
X153976363Y-110881189D01*
X154007450Y-110684914D01*
X154007450Y-110486192D01*
X153976363Y-110289917D01*
X153914955Y-110100921D01*
X153914955Y-110100920D01*
X153824736Y-109923858D01*
X153707931Y-109763089D01*
X153567414Y-109622572D01*
X153406644Y-109505766D01*
X153250168Y-109426037D01*
X153199373Y-109378063D01*
X153182578Y-109310242D01*
X153205115Y-109244107D01*
X153250168Y-109205068D01*
X153406644Y-109125340D01*
X153567414Y-109008534D01*
X153707931Y-108868017D01*
X153824737Y-108707247D01*
X153904465Y-108550771D01*
X153952440Y-108499976D01*
X154020261Y-108483181D01*
X154086396Y-108505718D01*
X154125434Y-108550771D01*
X154205163Y-108707247D01*
X154321969Y-108868017D01*
X154462486Y-109008534D01*
X154623256Y-109125340D01*
X154710099Y-109169588D01*
X154800317Y-109215558D01*
X154800320Y-109215559D01*
X154894816Y-109246262D01*
X154989314Y-109276966D01*
X155185589Y-109308053D01*
X155185590Y-109308053D01*
X155384310Y-109308053D01*
X155384311Y-109308053D01*
X155580586Y-109276966D01*
X155769582Y-109215558D01*
X155946644Y-109125340D01*
X156107414Y-109008534D01*
X156247931Y-108868017D01*
X156364737Y-108707247D01*
X156444465Y-108550771D01*
X156492440Y-108499976D01*
X156560261Y-108483181D01*
X156626396Y-108505718D01*
X156665434Y-108550771D01*
X156745163Y-108707247D01*
X156861969Y-108868017D01*
X157002486Y-109008534D01*
X157163256Y-109125340D01*
X157250099Y-109169588D01*
X157340317Y-109215558D01*
X157340320Y-109215559D01*
X157434816Y-109246262D01*
X157529314Y-109276966D01*
X157725589Y-109308053D01*
X157725590Y-109308053D01*
X157924310Y-109308053D01*
X157924311Y-109308053D01*
X158120586Y-109276966D01*
X158309582Y-109215558D01*
X158486644Y-109125340D01*
X158647414Y-109008534D01*
X158787931Y-108868017D01*
X158904737Y-108707247D01*
X158994955Y-108530185D01*
X159056363Y-108341189D01*
X159087450Y-108144914D01*
X159087450Y-107946192D01*
X159056363Y-107749917D01*
X158994955Y-107560921D01*
X158994955Y-107560920D01*
X158904736Y-107383858D01*
X158787931Y-107223089D01*
X158647414Y-107082572D01*
X158486644Y-106965766D01*
X158309582Y-106875547D01*
X158309579Y-106875546D01*
X158120587Y-106814140D01*
X158022448Y-106798596D01*
X157924311Y-106783053D01*
X157725589Y-106783053D01*
X157660164Y-106793415D01*
X157529312Y-106814140D01*
X157340320Y-106875546D01*
X157340317Y-106875547D01*
X157163255Y-106965766D01*
X157002483Y-107082574D01*
X156861971Y-107223086D01*
X156745163Y-107383858D01*
X156665435Y-107540333D01*
X156617460Y-107591129D01*
X156549639Y-107607924D01*
X156483504Y-107585386D01*
X156444465Y-107540333D01*
X156364736Y-107383858D01*
X156247931Y-107223089D01*
X156107414Y-107082572D01*
X155946644Y-106965766D01*
X155769582Y-106875547D01*
X155769579Y-106875546D01*
X155580587Y-106814140D01*
X155482448Y-106798596D01*
X155384311Y-106783053D01*
X155185589Y-106783053D01*
X155120164Y-106793415D01*
X154989312Y-106814140D01*
X154800320Y-106875546D01*
X154800317Y-106875547D01*
X154623255Y-106965766D01*
X154462483Y-107082574D01*
X154321971Y-107223086D01*
X154205163Y-107383858D01*
X154125435Y-107540333D01*
X154077460Y-107591129D01*
X154009639Y-107607924D01*
X153943504Y-107585386D01*
X153904465Y-107540333D01*
X153824736Y-107383858D01*
X153707931Y-107223089D01*
X153567414Y-107082572D01*
X153406644Y-106965766D01*
X153250168Y-106886037D01*
X153199373Y-106838063D01*
X153182578Y-106770242D01*
X153205115Y-106704107D01*
X153250168Y-106665068D01*
X153406644Y-106585340D01*
X153567414Y-106468534D01*
X153707931Y-106328017D01*
X153824737Y-106167247D01*
X153914955Y-105990185D01*
X153976363Y-105801189D01*
X154007450Y-105604914D01*
X154007450Y-105406192D01*
X153976363Y-105209917D01*
X153914955Y-105020921D01*
X153914955Y-105020920D01*
X153824736Y-104843858D01*
X153707931Y-104683089D01*
X153567414Y-104542572D01*
X153406644Y-104425766D01*
X153250168Y-104346037D01*
X153199373Y-104298063D01*
X153182578Y-104230242D01*
X153205115Y-104164107D01*
X153250168Y-104125068D01*
X153406644Y-104045340D01*
X153567414Y-103928534D01*
X153707931Y-103788017D01*
X153824737Y-103627247D01*
X153914955Y-103450185D01*
X153976363Y-103261189D01*
X154007450Y-103064914D01*
X154007450Y-102866192D01*
X153976363Y-102669917D01*
X153914955Y-102480921D01*
X153914955Y-102480920D01*
X153824736Y-102303858D01*
X153707931Y-102143089D01*
X153567414Y-102002572D01*
X153406644Y-101885766D01*
X153250168Y-101806037D01*
X153199373Y-101758063D01*
X153182578Y-101690242D01*
X153205115Y-101624107D01*
X153250168Y-101585068D01*
X153406644Y-101505340D01*
X153567414Y-101388534D01*
X153707931Y-101248017D01*
X153824737Y-101087247D01*
X153914955Y-100910185D01*
X153976363Y-100721189D01*
X154007450Y-100524914D01*
X154007450Y-100326192D01*
X166722450Y-100326192D01*
X166722450Y-100524914D01*
X166730375Y-100574950D01*
X166753537Y-100721190D01*
X166814943Y-100910182D01*
X166814944Y-100910185D01*
X166905163Y-101087247D01*
X167021969Y-101248017D01*
X167162486Y-101388534D01*
X167323256Y-101505340D01*
X167441782Y-101565732D01*
X167479730Y-101585068D01*
X167530526Y-101633043D01*
X167547321Y-101700864D01*
X167524783Y-101766999D01*
X167479730Y-101806038D01*
X167323255Y-101885766D01*
X167162483Y-102002574D01*
X167021971Y-102143086D01*
X166905163Y-102303858D01*
X166814944Y-102480920D01*
X166814943Y-102480923D01*
X166753537Y-102669915D01*
X166722450Y-102866192D01*
X166722450Y-103064913D01*
X166753537Y-103261190D01*
X166814943Y-103450182D01*
X166814944Y-103450185D01*
X166905163Y-103627247D01*
X167021969Y-103788017D01*
X167162486Y-103928534D01*
X167323256Y-104045340D01*
X167441782Y-104105732D01*
X167479730Y-104125068D01*
X167530526Y-104173043D01*
X167547321Y-104240864D01*
X167524783Y-104306999D01*
X167479730Y-104346038D01*
X167323255Y-104425766D01*
X167162483Y-104542574D01*
X167021971Y-104683086D01*
X166905163Y-104843858D01*
X166814944Y-105020920D01*
X166814943Y-105020923D01*
X166753537Y-105209915D01*
X166722450Y-105406192D01*
X166722450Y-105604913D01*
X166753537Y-105801190D01*
X166814943Y-105990182D01*
X166814944Y-105990185D01*
X166861085Y-106080740D01*
X166905163Y-106167247D01*
X167021969Y-106328017D01*
X167162486Y-106468534D01*
X167323256Y-106585340D01*
X167377057Y-106612753D01*
X167479730Y-106665068D01*
X167530526Y-106713043D01*
X167547321Y-106780864D01*
X167524783Y-106846999D01*
X167479730Y-106886038D01*
X167323255Y-106965766D01*
X167162483Y-107082574D01*
X167021971Y-107223086D01*
X166905163Y-107383858D01*
X166814944Y-107560920D01*
X166814943Y-107560923D01*
X166753537Y-107749915D01*
X166722450Y-107946192D01*
X166722450Y-108144913D01*
X166753537Y-108341190D01*
X166814943Y-108530182D01*
X166814944Y-108530185D01*
X166876180Y-108650365D01*
X166905163Y-108707247D01*
X167021969Y-108868017D01*
X167162486Y-109008534D01*
X167323256Y-109125340D01*
X167441782Y-109185732D01*
X167479730Y-109205068D01*
X167530526Y-109253043D01*
X167547321Y-109320864D01*
X167524783Y-109386999D01*
X167479730Y-109426038D01*
X167323255Y-109505766D01*
X167162483Y-109622574D01*
X167021971Y-109763086D01*
X166905163Y-109923858D01*
X166814944Y-110100920D01*
X166814943Y-110100923D01*
X166753537Y-110289915D01*
X166722450Y-110486192D01*
X166722450Y-110684913D01*
X166753537Y-110881190D01*
X166814943Y-111070182D01*
X166814944Y-111070185D01*
X166837268Y-111113997D01*
X166905163Y-111247247D01*
X167021969Y-111408017D01*
X167162486Y-111548534D01*
X167323256Y-111665340D01*
X167441782Y-111725732D01*
X167479730Y-111745068D01*
X167530526Y-111793043D01*
X167547321Y-111860864D01*
X167524783Y-111926999D01*
X167479730Y-111966038D01*
X167323255Y-112045766D01*
X167162483Y-112162574D01*
X167021971Y-112303086D01*
X166905163Y-112463858D01*
X166814944Y-112640920D01*
X166814943Y-112640923D01*
X166753537Y-112829915D01*
X166722450Y-113026192D01*
X166722450Y-113224913D01*
X166753537Y-113421190D01*
X166814943Y-113610182D01*
X166814944Y-113610185D01*
X166866059Y-113710502D01*
X166905163Y-113787247D01*
X167021969Y-113948017D01*
X167162486Y-114088534D01*
X167323256Y-114205340D01*
X167441782Y-114265732D01*
X167479730Y-114285068D01*
X167530526Y-114333043D01*
X167547321Y-114400864D01*
X167524783Y-114466999D01*
X167479730Y-114506038D01*
X167323255Y-114585766D01*
X167162483Y-114702574D01*
X167021971Y-114843086D01*
X166905163Y-115003858D01*
X166814944Y-115180920D01*
X166814943Y-115180923D01*
X166753537Y-115369915D01*
X166722450Y-115566192D01*
X166722450Y-115764913D01*
X166753537Y-115961190D01*
X166814943Y-116150182D01*
X166814944Y-116150185D01*
X166848414Y-116215872D01*
X166905163Y-116327247D01*
X167021969Y-116488017D01*
X167162486Y-116628534D01*
X167323256Y-116745340D01*
X167441782Y-116805732D01*
X167479730Y-116825068D01*
X167530526Y-116873043D01*
X167547321Y-116940864D01*
X167524783Y-117006999D01*
X167479730Y-117046038D01*
X167323255Y-117125766D01*
X167162483Y-117242574D01*
X167021971Y-117383086D01*
X166905163Y-117543858D01*
X166814944Y-117720920D01*
X166814943Y-117720923D01*
X166753537Y-117909915D01*
X166722450Y-118106192D01*
X166722450Y-118304913D01*
X166753537Y-118501190D01*
X166814943Y-118690182D01*
X166814944Y-118690185D01*
X166828125Y-118716053D01*
X166905163Y-118867247D01*
X167021969Y-119028017D01*
X167162486Y-119168534D01*
X167323256Y-119285340D01*
X167441782Y-119345732D01*
X167479730Y-119365068D01*
X167530526Y-119413043D01*
X167547321Y-119480864D01*
X167524783Y-119546999D01*
X167479730Y-119586038D01*
X167323255Y-119665766D01*
X167162483Y-119782574D01*
X167021971Y-119923086D01*
X166905163Y-120083858D01*
X166814944Y-120260920D01*
X166814943Y-120260923D01*
X166753537Y-120449915D01*
X166722450Y-120646192D01*
X166722450Y-120844913D01*
X166753537Y-121041190D01*
X166814943Y-121230182D01*
X166814944Y-121230185D01*
X166905163Y-121407247D01*
X167021969Y-121568017D01*
X167162486Y-121708534D01*
X167323256Y-121825340D01*
X167381977Y-121855260D01*
X167500317Y-121915558D01*
X167500320Y-121915559D01*
X167594816Y-121946262D01*
X167689314Y-121976966D01*
X167885589Y-122008053D01*
X167885590Y-122008053D01*
X168084310Y-122008053D01*
X168084311Y-122008053D01*
X168280586Y-121976966D01*
X168469582Y-121915558D01*
X168646644Y-121825340D01*
X168807414Y-121708534D01*
X168947931Y-121568017D01*
X169064737Y-121407247D01*
X169154955Y-121230185D01*
X169216363Y-121041189D01*
X169247450Y-120844914D01*
X169247450Y-120646192D01*
X169216363Y-120449917D01*
X169154955Y-120260921D01*
X169154955Y-120260920D01*
X169064736Y-120083858D01*
X168947931Y-119923089D01*
X168807414Y-119782572D01*
X168646644Y-119665766D01*
X168490168Y-119586037D01*
X168439373Y-119538063D01*
X168422578Y-119470242D01*
X168445115Y-119404107D01*
X168490168Y-119365068D01*
X168646644Y-119285340D01*
X168807414Y-119168534D01*
X168947931Y-119028017D01*
X169064737Y-118867247D01*
X169154955Y-118690185D01*
X169216363Y-118501189D01*
X169247450Y-118304914D01*
X169247450Y-118106192D01*
X169216363Y-117909917D01*
X169154955Y-117720921D01*
X169154955Y-117720920D01*
X169064736Y-117543858D01*
X169012412Y-117471840D01*
X168947931Y-117383089D01*
X168807414Y-117242572D01*
X168646644Y-117125766D01*
X168490168Y-117046037D01*
X168439373Y-116998063D01*
X168422578Y-116930242D01*
X168445115Y-116864107D01*
X168490168Y-116825068D01*
X168646644Y-116745340D01*
X168807414Y-116628534D01*
X168947931Y-116488017D01*
X169064737Y-116327247D01*
X169154955Y-116150185D01*
X169216363Y-115961189D01*
X169247450Y-115764914D01*
X169247450Y-115566192D01*
X169216363Y-115369917D01*
X169185659Y-115275419D01*
X169154956Y-115180923D01*
X169154955Y-115180920D01*
X169064736Y-115003858D01*
X169041473Y-114971839D01*
X168947931Y-114843089D01*
X168807414Y-114702572D01*
X168646644Y-114585766D01*
X168490168Y-114506037D01*
X168439373Y-114458063D01*
X168422578Y-114390242D01*
X168445115Y-114324107D01*
X168490168Y-114285068D01*
X168646644Y-114205340D01*
X168807414Y-114088534D01*
X168947931Y-113948017D01*
X169064737Y-113787247D01*
X169154955Y-113610185D01*
X169216363Y-113421189D01*
X169247450Y-113224914D01*
X169247450Y-113026192D01*
X169216363Y-112829917D01*
X169154955Y-112640921D01*
X169154955Y-112640920D01*
X169108985Y-112550702D01*
X169064737Y-112463859D01*
X168947931Y-112303089D01*
X168807414Y-112162572D01*
X168646644Y-112045766D01*
X168490168Y-111966037D01*
X168439373Y-111918063D01*
X168422578Y-111850242D01*
X168445115Y-111784107D01*
X168490168Y-111745068D01*
X168646644Y-111665340D01*
X168807414Y-111548534D01*
X168947931Y-111408017D01*
X169064737Y-111247247D01*
X169154955Y-111070185D01*
X169216363Y-110881189D01*
X169247450Y-110684914D01*
X169247450Y-110486192D01*
X169216363Y-110289917D01*
X169154955Y-110100921D01*
X169154955Y-110100920D01*
X169064736Y-109923858D01*
X168947931Y-109763089D01*
X168807414Y-109622572D01*
X168646644Y-109505766D01*
X168490168Y-109426037D01*
X168439373Y-109378063D01*
X168422578Y-109310242D01*
X168445115Y-109244107D01*
X168490168Y-109205068D01*
X168646644Y-109125340D01*
X168807414Y-109008534D01*
X168947931Y-108868017D01*
X169064737Y-108707247D01*
X169154955Y-108530185D01*
X169216363Y-108341189D01*
X169247450Y-108144914D01*
X169247450Y-107946192D01*
X169216363Y-107749917D01*
X169154955Y-107560921D01*
X169154955Y-107560920D01*
X169064736Y-107383858D01*
X168947931Y-107223089D01*
X168807414Y-107082572D01*
X168646644Y-106965766D01*
X168490168Y-106886037D01*
X168439373Y-106838063D01*
X168422578Y-106770242D01*
X168445115Y-106704107D01*
X168490168Y-106665068D01*
X168646644Y-106585340D01*
X168807414Y-106468534D01*
X168947931Y-106328017D01*
X169064737Y-106167247D01*
X169154955Y-105990185D01*
X169216363Y-105801189D01*
X169247450Y-105604914D01*
X169247450Y-105406192D01*
X169216363Y-105209917D01*
X169154955Y-105020921D01*
X169154955Y-105020920D01*
X169064736Y-104843858D01*
X168947931Y-104683089D01*
X168807414Y-104542572D01*
X168646644Y-104425766D01*
X168490168Y-104346037D01*
X168439373Y-104298063D01*
X168422578Y-104230242D01*
X168445115Y-104164107D01*
X168490168Y-104125068D01*
X168646644Y-104045340D01*
X168807414Y-103928534D01*
X168947931Y-103788017D01*
X169064737Y-103627247D01*
X169154955Y-103450185D01*
X169216363Y-103261189D01*
X169247450Y-103064914D01*
X169247450Y-102866192D01*
X169216363Y-102669917D01*
X169154955Y-102480921D01*
X169154955Y-102480920D01*
X169064736Y-102303858D01*
X168947931Y-102143089D01*
X168807414Y-102002572D01*
X168646644Y-101885766D01*
X168490168Y-101806037D01*
X168439373Y-101758063D01*
X168422578Y-101690242D01*
X168445115Y-101624107D01*
X168490168Y-101585068D01*
X168646644Y-101505340D01*
X168807414Y-101388534D01*
X168947931Y-101248017D01*
X169064737Y-101087247D01*
X169154955Y-100910185D01*
X169216363Y-100721189D01*
X169247450Y-100524914D01*
X169247450Y-100326192D01*
X169216363Y-100129917D01*
X169156085Y-99944399D01*
X169154956Y-99940923D01*
X169154955Y-99940920D01*
X169108985Y-99850702D01*
X169064737Y-99763859D01*
X168947931Y-99603089D01*
X168807414Y-99462572D01*
X168646644Y-99345766D01*
X168469582Y-99255547D01*
X168469579Y-99255546D01*
X168280587Y-99194140D01*
X168182448Y-99178596D01*
X168084311Y-99163053D01*
X167885589Y-99163053D01*
X167820164Y-99173415D01*
X167689312Y-99194140D01*
X167500320Y-99255546D01*
X167500317Y-99255547D01*
X167323255Y-99345766D01*
X167162483Y-99462574D01*
X167021971Y-99603086D01*
X166905163Y-99763858D01*
X166814944Y-99940920D01*
X166814943Y-99940923D01*
X166753537Y-100129915D01*
X166753537Y-100129917D01*
X166722450Y-100326192D01*
X154007450Y-100326192D01*
X153976363Y-100129917D01*
X153916085Y-99944399D01*
X153914956Y-99940923D01*
X153914955Y-99940920D01*
X153868985Y-99850702D01*
X153824737Y-99763859D01*
X153707931Y-99603089D01*
X153567414Y-99462572D01*
X153406644Y-99345766D01*
X153250168Y-99266037D01*
X153199373Y-99218063D01*
X153182578Y-99150242D01*
X153205115Y-99084107D01*
X153250168Y-99045068D01*
X153406644Y-98965340D01*
X153567414Y-98848534D01*
X153707931Y-98708017D01*
X153824737Y-98547247D01*
X153914955Y-98370185D01*
X153976363Y-98181189D01*
X154007450Y-97984914D01*
X154007450Y-97786192D01*
X153976363Y-97589917D01*
X153914955Y-97400921D01*
X153914955Y-97400920D01*
X153824736Y-97223858D01*
X153707931Y-97063089D01*
X153567414Y-96922572D01*
X153406644Y-96805766D01*
X153250168Y-96726037D01*
X153199373Y-96678063D01*
X153182578Y-96610242D01*
X153205115Y-96544107D01*
X153250168Y-96505068D01*
X153406644Y-96425340D01*
X153567414Y-96308534D01*
X153707931Y-96168017D01*
X153824737Y-96007247D01*
X153914955Y-95830185D01*
X153976363Y-95641189D01*
X154007450Y-95444914D01*
X154007450Y-95246192D01*
X153976363Y-95049917D01*
X153914955Y-94860921D01*
X153914955Y-94860920D01*
X153824736Y-94683858D01*
X153707931Y-94523089D01*
X153567414Y-94382572D01*
X153406644Y-94265766D01*
X153250168Y-94186037D01*
X153199373Y-94138063D01*
X153182578Y-94070242D01*
X153205115Y-94004107D01*
X153250168Y-93965068D01*
X153406644Y-93885340D01*
X153567414Y-93768534D01*
X153707931Y-93628017D01*
X153824737Y-93467247D01*
X153914955Y-93290185D01*
X153976363Y-93101189D01*
X154007450Y-92904914D01*
X154007450Y-92706192D01*
X153976363Y-92509917D01*
X153914955Y-92320921D01*
X153914955Y-92320920D01*
X153824736Y-92143858D01*
X153756043Y-92049310D01*
X153707931Y-91983089D01*
X153567414Y-91842572D01*
X153406644Y-91725766D01*
X153250168Y-91646037D01*
X153199373Y-91598063D01*
X153182578Y-91530242D01*
X153205115Y-91464107D01*
X153250168Y-91425068D01*
X153406644Y-91345340D01*
X153567414Y-91228534D01*
X153707931Y-91088017D01*
X153824737Y-90927247D01*
X153914955Y-90750185D01*
X153976363Y-90561189D01*
X154007450Y-90364914D01*
X154007450Y-90166192D01*
X153976363Y-89969917D01*
X153914955Y-89780921D01*
X153914955Y-89780920D01*
X153824736Y-89603858D01*
X153785107Y-89549313D01*
X153707931Y-89443089D01*
X153567414Y-89302572D01*
X153406644Y-89185766D01*
X153250168Y-89106037D01*
X153199373Y-89058063D01*
X153182578Y-88990242D01*
X153205115Y-88924107D01*
X153250168Y-88885068D01*
X153406644Y-88805340D01*
X153567414Y-88688534D01*
X153707931Y-88548017D01*
X153824737Y-88387247D01*
X153914955Y-88210185D01*
X153976363Y-88021189D01*
X154007450Y-87824914D01*
X154007450Y-87626192D01*
X153976363Y-87429917D01*
X153914955Y-87240921D01*
X153914955Y-87240920D01*
X153824736Y-87063858D01*
X153707931Y-86903089D01*
X153567414Y-86762572D01*
X153406644Y-86645766D01*
X153250168Y-86566037D01*
X153199373Y-86518063D01*
X153182578Y-86450242D01*
X153205115Y-86384107D01*
X153250168Y-86345068D01*
X153406644Y-86265340D01*
X153567414Y-86148534D01*
X153707931Y-86008017D01*
X153824737Y-85847247D01*
X153914955Y-85670185D01*
X153976363Y-85481189D01*
X154007450Y-85284914D01*
X154007450Y-85086192D01*
X153976363Y-84889917D01*
X153914955Y-84700921D01*
X153914955Y-84700920D01*
X153824736Y-84523858D01*
X153707931Y-84363089D01*
X153567414Y-84222572D01*
X153406644Y-84105766D01*
X153250168Y-84026037D01*
X153199373Y-83978063D01*
X153182578Y-83910242D01*
X153205115Y-83844107D01*
X153250168Y-83805068D01*
X153406644Y-83725340D01*
X153567414Y-83608534D01*
X153707931Y-83468017D01*
X153824737Y-83307247D01*
X153914955Y-83130185D01*
X153976363Y-82941189D01*
X154007450Y-82744914D01*
X154007450Y-82546192D01*
X153976363Y-82349917D01*
X153914955Y-82160921D01*
X153914955Y-82160920D01*
X153824736Y-81983858D01*
X153707931Y-81823089D01*
X153567414Y-81682572D01*
X153406644Y-81565766D01*
X153250168Y-81486037D01*
X153199373Y-81438063D01*
X153182578Y-81370242D01*
X153205115Y-81304107D01*
X153250168Y-81265068D01*
X153406644Y-81185340D01*
X153567414Y-81068534D01*
X153707931Y-80928017D01*
X153824737Y-80767247D01*
X153914955Y-80590185D01*
X153976363Y-80401189D01*
X154007450Y-80204914D01*
X154007450Y-80006192D01*
X153976363Y-79809917D01*
X153914955Y-79620921D01*
X153914955Y-79620920D01*
X153824736Y-79443858D01*
X153707931Y-79283089D01*
X153567414Y-79142572D01*
X153406644Y-79025766D01*
X153250168Y-78946037D01*
X153199373Y-78898063D01*
X153182578Y-78830242D01*
X153205115Y-78764107D01*
X153250168Y-78725068D01*
X153406644Y-78645340D01*
X153567414Y-78528534D01*
X153707931Y-78388017D01*
X153824737Y-78227247D01*
X153914955Y-78050185D01*
X153976363Y-77861189D01*
X154007450Y-77664914D01*
X154007450Y-77466192D01*
X153976363Y-77269917D01*
X153914955Y-77080921D01*
X153914955Y-77080920D01*
X153824736Y-76903858D01*
X153707931Y-76743089D01*
X153567414Y-76602572D01*
X153406644Y-76485766D01*
X153250168Y-76406037D01*
X153199373Y-76358063D01*
X153182578Y-76290242D01*
X153205115Y-76224107D01*
X153250168Y-76185068D01*
X153406644Y-76105340D01*
X153567414Y-75988534D01*
X153707931Y-75848017D01*
X153824737Y-75687247D01*
X153914955Y-75510185D01*
X153976363Y-75321189D01*
X154007450Y-75124914D01*
X154007450Y-74926192D01*
X153976363Y-74729917D01*
X153925941Y-74574732D01*
X153914956Y-74540923D01*
X153914955Y-74540920D01*
X153857954Y-74429050D01*
X153824737Y-74363859D01*
X153707931Y-74203089D01*
X153567414Y-74062572D01*
X153406644Y-73945766D01*
X153250168Y-73866037D01*
X153199373Y-73818063D01*
X153182578Y-73750242D01*
X153205115Y-73684107D01*
X153250168Y-73645068D01*
X153406644Y-73565340D01*
X153567414Y-73448534D01*
X153707931Y-73308017D01*
X153824737Y-73147247D01*
X153914955Y-72970185D01*
X153976363Y-72781189D01*
X154007450Y-72584914D01*
X154007450Y-72386192D01*
X153976363Y-72189917D01*
X153945659Y-72095419D01*
X153914956Y-72000923D01*
X153914955Y-72000920D01*
X153868985Y-71910702D01*
X153824737Y-71823859D01*
X153707931Y-71663089D01*
X153567414Y-71522572D01*
X153406644Y-71405766D01*
X153250168Y-71326037D01*
X153199373Y-71278063D01*
X153182578Y-71210242D01*
X153205115Y-71144107D01*
X153250168Y-71105068D01*
X153406644Y-71025340D01*
X153567414Y-70908534D01*
X153707931Y-70768017D01*
X153824737Y-70607247D01*
X153914955Y-70430185D01*
X153976363Y-70241189D01*
X154007450Y-70044914D01*
X154007450Y-69846192D01*
X153976363Y-69649917D01*
X153914955Y-69460921D01*
X153914955Y-69460920D01*
X153856979Y-69347138D01*
X153824737Y-69283859D01*
X153707931Y-69123089D01*
X153567414Y-68982572D01*
X153406644Y-68865766D01*
X153250168Y-68786037D01*
X153199373Y-68738063D01*
X153182578Y-68670242D01*
X153205115Y-68604107D01*
X153250168Y-68565068D01*
X153406644Y-68485340D01*
X153567414Y-68368534D01*
X153707931Y-68228017D01*
X153824737Y-68067247D01*
X153914955Y-67890185D01*
X153976363Y-67701189D01*
X154007450Y-67504914D01*
X154007450Y-67306192D01*
X166722450Y-67306192D01*
X166722450Y-67504913D01*
X166753537Y-67701190D01*
X166814943Y-67890182D01*
X166814944Y-67890185D01*
X166905163Y-68067247D01*
X167021969Y-68228017D01*
X167162486Y-68368534D01*
X167323256Y-68485340D01*
X167409204Y-68529133D01*
X167479730Y-68565068D01*
X167530526Y-68613043D01*
X167547321Y-68680864D01*
X167524783Y-68746999D01*
X167479730Y-68786038D01*
X167323255Y-68865766D01*
X167162483Y-68982574D01*
X167021971Y-69123086D01*
X166905163Y-69283858D01*
X166814944Y-69460920D01*
X166814943Y-69460923D01*
X166753537Y-69649915D01*
X166722450Y-69846192D01*
X166722450Y-70044913D01*
X166753537Y-70241190D01*
X166814943Y-70430182D01*
X166814944Y-70430185D01*
X166887901Y-70573369D01*
X166905163Y-70607247D01*
X167021969Y-70768017D01*
X167162486Y-70908534D01*
X167323256Y-71025340D01*
X167412013Y-71070564D01*
X167479730Y-71105068D01*
X167530526Y-71153043D01*
X167547321Y-71220864D01*
X167524783Y-71286999D01*
X167479730Y-71326038D01*
X167323255Y-71405766D01*
X167162483Y-71522574D01*
X167021971Y-71663086D01*
X166905163Y-71823858D01*
X166814944Y-72000920D01*
X166814943Y-72000923D01*
X166753537Y-72189915D01*
X166722450Y-72386192D01*
X166722450Y-72584913D01*
X166753537Y-72781190D01*
X166814943Y-72970182D01*
X166814944Y-72970185D01*
X166882134Y-73102051D01*
X166905163Y-73147247D01*
X167021969Y-73308017D01*
X167162486Y-73448534D01*
X167323256Y-73565340D01*
X167424856Y-73617108D01*
X167479730Y-73645068D01*
X167530526Y-73693043D01*
X167547321Y-73760864D01*
X167524783Y-73826999D01*
X167479730Y-73866038D01*
X167323255Y-73945766D01*
X167162483Y-74062574D01*
X167021971Y-74203086D01*
X166905163Y-74363858D01*
X166814944Y-74540920D01*
X166814943Y-74540923D01*
X166753537Y-74729915D01*
X166722450Y-74926192D01*
X166722450Y-75124913D01*
X166753537Y-75321190D01*
X166814943Y-75510182D01*
X166814944Y-75510185D01*
X166905163Y-75687247D01*
X167021969Y-75848017D01*
X167162486Y-75988534D01*
X167323256Y-76105340D01*
X167441782Y-76165732D01*
X167479730Y-76185068D01*
X167530526Y-76233043D01*
X167547321Y-76300864D01*
X167524783Y-76366999D01*
X167479730Y-76406038D01*
X167323255Y-76485766D01*
X167162483Y-76602574D01*
X167021971Y-76743086D01*
X166905163Y-76903858D01*
X166814944Y-77080920D01*
X166814943Y-77080923D01*
X166753537Y-77269915D01*
X166722450Y-77466192D01*
X166722450Y-77664913D01*
X166753537Y-77861190D01*
X166814943Y-78050182D01*
X166814944Y-78050185D01*
X166873982Y-78166052D01*
X166905163Y-78227247D01*
X167021969Y-78388017D01*
X167162486Y-78528534D01*
X167323256Y-78645340D01*
X167441782Y-78705732D01*
X167479730Y-78725068D01*
X167530526Y-78773043D01*
X167547321Y-78840864D01*
X167524783Y-78906999D01*
X167479730Y-78946038D01*
X167323255Y-79025766D01*
X167162483Y-79142574D01*
X167021971Y-79283086D01*
X166905163Y-79443858D01*
X166814944Y-79620920D01*
X166814943Y-79620923D01*
X166753537Y-79809915D01*
X166722450Y-80006192D01*
X166722450Y-80204913D01*
X166753537Y-80401190D01*
X166814943Y-80590182D01*
X166814944Y-80590185D01*
X166905163Y-80767247D01*
X167021969Y-80928017D01*
X167162486Y-81068534D01*
X167323256Y-81185340D01*
X167441782Y-81245732D01*
X167479730Y-81265068D01*
X167530526Y-81313043D01*
X167547321Y-81380864D01*
X167524783Y-81446999D01*
X167479730Y-81486038D01*
X167323255Y-81565766D01*
X167162483Y-81682574D01*
X167021971Y-81823086D01*
X166905163Y-81983858D01*
X166814944Y-82160920D01*
X166814943Y-82160923D01*
X166753537Y-82349915D01*
X166722450Y-82546192D01*
X166722450Y-82744913D01*
X166753537Y-82941190D01*
X166814943Y-83130182D01*
X166814944Y-83130185D01*
X166905163Y-83307247D01*
X167021969Y-83468017D01*
X167162486Y-83608534D01*
X167323256Y-83725340D01*
X167441782Y-83785732D01*
X167479730Y-83805068D01*
X167530526Y-83853043D01*
X167547321Y-83920864D01*
X167524783Y-83986999D01*
X167479730Y-84026038D01*
X167323255Y-84105766D01*
X167162483Y-84222574D01*
X167021971Y-84363086D01*
X166905163Y-84523858D01*
X166814944Y-84700920D01*
X166814943Y-84700923D01*
X166753537Y-84889915D01*
X166722450Y-85086192D01*
X166722450Y-85284913D01*
X166753537Y-85481190D01*
X166814943Y-85670182D01*
X166814944Y-85670185D01*
X166883007Y-85803764D01*
X166905163Y-85847247D01*
X167021969Y-86008017D01*
X167162486Y-86148534D01*
X167323256Y-86265340D01*
X167441782Y-86325732D01*
X167479730Y-86345068D01*
X167530526Y-86393043D01*
X167547321Y-86460864D01*
X167524783Y-86526999D01*
X167479730Y-86566038D01*
X167323255Y-86645766D01*
X167162483Y-86762574D01*
X167021971Y-86903086D01*
X166905163Y-87063858D01*
X166814944Y-87240920D01*
X166814943Y-87240923D01*
X166753537Y-87429915D01*
X166722450Y-87626192D01*
X166722450Y-87824913D01*
X166753537Y-88021190D01*
X166814943Y-88210182D01*
X166814944Y-88210185D01*
X166860139Y-88298883D01*
X166905163Y-88387247D01*
X167021969Y-88548017D01*
X167162486Y-88688534D01*
X167323256Y-88805340D01*
X167382348Y-88835449D01*
X167479730Y-88885068D01*
X167530526Y-88933043D01*
X167547321Y-89000864D01*
X167524783Y-89066999D01*
X167479730Y-89106038D01*
X167323255Y-89185766D01*
X167162483Y-89302574D01*
X167021971Y-89443086D01*
X166905163Y-89603858D01*
X166814944Y-89780920D01*
X166814943Y-89780923D01*
X166753537Y-89969915D01*
X166753232Y-89971840D01*
X166722450Y-90166192D01*
X166722450Y-90364914D01*
X166725468Y-90383967D01*
X166753537Y-90561190D01*
X166814943Y-90750182D01*
X166814944Y-90750185D01*
X166905163Y-90927247D01*
X167021969Y-91088017D01*
X167162486Y-91228534D01*
X167323256Y-91345340D01*
X167426658Y-91398026D01*
X167479730Y-91425068D01*
X167530526Y-91473043D01*
X167547321Y-91540864D01*
X167524783Y-91606999D01*
X167479730Y-91646038D01*
X167323255Y-91725766D01*
X167162483Y-91842574D01*
X167021971Y-91983086D01*
X166905163Y-92143858D01*
X166814944Y-92320920D01*
X166814943Y-92320923D01*
X166753537Y-92509915D01*
X166722450Y-92706192D01*
X166722450Y-92904913D01*
X166753537Y-93101190D01*
X166814943Y-93290182D01*
X166814944Y-93290185D01*
X166868685Y-93395656D01*
X166905163Y-93467247D01*
X167021969Y-93628017D01*
X167162486Y-93768534D01*
X167323256Y-93885340D01*
X167441782Y-93945732D01*
X167479730Y-93965068D01*
X167530526Y-94013043D01*
X167547321Y-94080864D01*
X167524783Y-94146999D01*
X167479730Y-94186038D01*
X167323255Y-94265766D01*
X167162483Y-94382574D01*
X167021971Y-94523086D01*
X166905163Y-94683858D01*
X166814944Y-94860920D01*
X166814943Y-94860923D01*
X166753537Y-95049915D01*
X166722450Y-95246192D01*
X166722450Y-95444913D01*
X166753537Y-95641190D01*
X166814943Y-95830182D01*
X166814944Y-95830185D01*
X166848307Y-95895662D01*
X166905163Y-96007247D01*
X167021969Y-96168017D01*
X167162486Y-96308534D01*
X167323256Y-96425340D01*
X167410099Y-96469588D01*
X167500317Y-96515558D01*
X167500320Y-96515559D01*
X167594816Y-96546262D01*
X167689314Y-96576966D01*
X167885589Y-96608053D01*
X167885590Y-96608053D01*
X168084310Y-96608053D01*
X168084311Y-96608053D01*
X168280586Y-96576966D01*
X168469582Y-96515558D01*
X168646644Y-96425340D01*
X168807414Y-96308534D01*
X168947931Y-96168017D01*
X169064737Y-96007247D01*
X169154955Y-95830185D01*
X169216363Y-95641189D01*
X169247450Y-95444914D01*
X169247450Y-95246192D01*
X169216363Y-95049917D01*
X169154955Y-94860921D01*
X169154955Y-94860920D01*
X169064736Y-94683858D01*
X168947931Y-94523089D01*
X168807414Y-94382572D01*
X168646644Y-94265766D01*
X168490168Y-94186037D01*
X168439373Y-94138063D01*
X168422578Y-94070242D01*
X168445115Y-94004107D01*
X168490168Y-93965068D01*
X168646644Y-93885340D01*
X168807414Y-93768534D01*
X168947931Y-93628017D01*
X169064737Y-93467247D01*
X169154955Y-93290185D01*
X169216363Y-93101189D01*
X169247450Y-92904914D01*
X169247450Y-92706192D01*
X169216363Y-92509917D01*
X169216359Y-92509905D01*
X169215819Y-92507652D01*
X169215863Y-92506762D01*
X169215601Y-92505105D01*
X169215949Y-92505049D01*
X169219310Y-92437869D01*
X169248710Y-92391026D01*
X172763456Y-88876281D01*
X172763461Y-88876277D01*
X172773664Y-88866073D01*
X172773666Y-88866073D01*
X172885470Y-88754269D01*
X172963409Y-88619274D01*
X172963410Y-88619274D01*
X172963416Y-88619261D01*
X172964527Y-88617338D01*
X173005451Y-88464610D01*
X173005451Y-88306496D01*
X173005451Y-88298901D01*
X173005450Y-88298883D01*
X173005450Y-87005318D01*
X173025135Y-86938279D01*
X173026348Y-86936427D01*
X173114340Y-86804738D01*
X173114340Y-86804737D01*
X173114344Y-86804732D01*
X173174687Y-86659050D01*
X173205450Y-86504395D01*
X173205450Y-86346711D01*
X173205450Y-86346708D01*
X173205449Y-86346706D01*
X173179460Y-86216051D01*
X173174687Y-86192056D01*
X173156660Y-86148534D01*
X173114347Y-86046380D01*
X173114340Y-86046367D01*
X173026739Y-85915264D01*
X173026736Y-85915260D01*
X172915242Y-85803766D01*
X172915238Y-85803763D01*
X172784135Y-85716162D01*
X172784122Y-85716155D01*
X172638451Y-85655817D01*
X172638439Y-85655814D01*
X172483795Y-85625053D01*
X172483792Y-85625053D01*
X172326108Y-85625053D01*
X172326105Y-85625053D01*
X172171460Y-85655814D01*
X172171448Y-85655817D01*
X172025777Y-85716155D01*
X172025764Y-85716162D01*
X171894661Y-85803763D01*
X171894657Y-85803766D01*
X171783163Y-85915260D01*
X171783160Y-85915264D01*
X171695559Y-86046367D01*
X171695552Y-86046380D01*
X171635214Y-86192051D01*
X171635211Y-86192063D01*
X171604450Y-86346706D01*
X171604450Y-86504399D01*
X171635211Y-86659042D01*
X171635214Y-86659054D01*
X171695552Y-86804725D01*
X171695559Y-86804738D01*
X171783552Y-86936427D01*
X171804430Y-87003104D01*
X171804450Y-87005318D01*
X171804450Y-88085455D01*
X171784765Y-88152494D01*
X171768131Y-88173136D01*
X169455407Y-90485859D01*
X169394084Y-90519344D01*
X169324392Y-90514360D01*
X169268459Y-90472488D01*
X169244042Y-90407024D01*
X169245252Y-90378788D01*
X169247450Y-90364914D01*
X169247450Y-90166192D01*
X169216363Y-89969917D01*
X169154955Y-89780921D01*
X169154955Y-89780920D01*
X169064736Y-89603858D01*
X169025107Y-89549313D01*
X168947931Y-89443089D01*
X168807414Y-89302572D01*
X168646644Y-89185766D01*
X168490168Y-89106037D01*
X168439373Y-89058063D01*
X168422578Y-88990242D01*
X168445115Y-88924107D01*
X168490168Y-88885068D01*
X168646644Y-88805340D01*
X168807414Y-88688534D01*
X168947931Y-88548017D01*
X169064737Y-88387247D01*
X169154955Y-88210185D01*
X169216363Y-88021189D01*
X169247450Y-87824914D01*
X169247450Y-87626192D01*
X169216363Y-87429917D01*
X169154955Y-87240921D01*
X169154955Y-87240920D01*
X169064736Y-87063858D01*
X168947931Y-86903089D01*
X168807414Y-86762572D01*
X168646644Y-86645766D01*
X168490168Y-86566037D01*
X168439373Y-86518063D01*
X168422578Y-86450242D01*
X168445115Y-86384107D01*
X168490168Y-86345068D01*
X168646644Y-86265340D01*
X168807414Y-86148534D01*
X168947931Y-86008017D01*
X169064737Y-85847247D01*
X169154955Y-85670185D01*
X169216363Y-85481189D01*
X169247450Y-85284914D01*
X169247450Y-85086192D01*
X169216363Y-84889917D01*
X169154955Y-84700921D01*
X169154955Y-84700920D01*
X169064736Y-84523858D01*
X168947931Y-84363089D01*
X168807414Y-84222572D01*
X168646644Y-84105766D01*
X168490168Y-84026037D01*
X168439373Y-83978063D01*
X168422578Y-83910242D01*
X168445115Y-83844107D01*
X168490168Y-83805068D01*
X168646644Y-83725340D01*
X168807414Y-83608534D01*
X168947931Y-83468017D01*
X169064737Y-83307247D01*
X169154955Y-83130185D01*
X169216363Y-82941189D01*
X169247450Y-82744914D01*
X169247450Y-82546192D01*
X169216363Y-82349917D01*
X169154955Y-82160921D01*
X169154955Y-82160920D01*
X169064736Y-81983858D01*
X168947931Y-81823089D01*
X168807414Y-81682572D01*
X168646644Y-81565766D01*
X168490168Y-81486037D01*
X168439373Y-81438063D01*
X168422578Y-81370242D01*
X168445115Y-81304107D01*
X168490168Y-81265068D01*
X168646644Y-81185340D01*
X168807414Y-81068534D01*
X168947931Y-80928017D01*
X169064737Y-80767247D01*
X169154955Y-80590185D01*
X169216363Y-80401189D01*
X169247450Y-80204914D01*
X169247450Y-80006192D01*
X169216363Y-79809917D01*
X169154955Y-79620921D01*
X169154955Y-79620920D01*
X169064736Y-79443858D01*
X168947931Y-79283089D01*
X168807414Y-79142572D01*
X168646644Y-79025766D01*
X168490168Y-78946037D01*
X168439373Y-78898063D01*
X168422578Y-78830242D01*
X168445115Y-78764107D01*
X168490168Y-78725068D01*
X168646644Y-78645340D01*
X168807414Y-78528534D01*
X168947931Y-78388017D01*
X169064737Y-78227247D01*
X169154955Y-78050185D01*
X169216363Y-77861189D01*
X169247450Y-77664914D01*
X169247450Y-77466192D01*
X169216363Y-77269917D01*
X169154955Y-77080921D01*
X169154955Y-77080920D01*
X169064736Y-76903858D01*
X168947931Y-76743089D01*
X168807414Y-76602572D01*
X168646644Y-76485766D01*
X168490168Y-76406037D01*
X168439373Y-76358063D01*
X168422578Y-76290242D01*
X168445115Y-76224107D01*
X168490168Y-76185068D01*
X168646644Y-76105340D01*
X168807414Y-75988534D01*
X168947931Y-75848017D01*
X169064737Y-75687247D01*
X169154955Y-75510185D01*
X169216363Y-75321189D01*
X169247450Y-75124914D01*
X169247450Y-74926192D01*
X169216363Y-74729917D01*
X169165941Y-74574732D01*
X169154956Y-74540923D01*
X169154955Y-74540920D01*
X169097954Y-74429050D01*
X169064737Y-74363859D01*
X168947931Y-74203089D01*
X168807414Y-74062572D01*
X168646644Y-73945766D01*
X168490168Y-73866037D01*
X168439373Y-73818063D01*
X168422578Y-73750242D01*
X168445115Y-73684107D01*
X168490168Y-73645068D01*
X168646644Y-73565340D01*
X168807414Y-73448534D01*
X168947931Y-73308017D01*
X168985211Y-73256706D01*
X174104450Y-73256706D01*
X174104450Y-73414399D01*
X174135211Y-73569042D01*
X174135214Y-73569054D01*
X174196951Y-73718101D01*
X174204420Y-73787570D01*
X174196951Y-73813005D01*
X174135214Y-73962051D01*
X174135211Y-73962063D01*
X174104450Y-74116706D01*
X174104450Y-74274399D01*
X174135211Y-74429042D01*
X174135214Y-74429054D01*
X174195552Y-74574725D01*
X174195559Y-74574738D01*
X174283160Y-74705841D01*
X174283163Y-74705845D01*
X174394657Y-74817339D01*
X174394661Y-74817342D01*
X174525764Y-74904943D01*
X174525777Y-74904950D01*
X174671448Y-74965288D01*
X174671453Y-74965290D01*
X174826103Y-74996052D01*
X174826106Y-74996053D01*
X174826108Y-74996053D01*
X174983794Y-74996053D01*
X174983795Y-74996052D01*
X175138447Y-74965290D01*
X175284129Y-74904947D01*
X175415239Y-74817342D01*
X175526739Y-74705842D01*
X175614344Y-74574732D01*
X175674687Y-74429050D01*
X175705450Y-74274395D01*
X175705450Y-74116711D01*
X175705450Y-74116708D01*
X175705449Y-74116706D01*
X175674688Y-73962063D01*
X175674687Y-73962056D01*
X175667940Y-73945766D01*
X175612949Y-73813005D01*
X175605480Y-73743536D01*
X175612949Y-73718101D01*
X175674685Y-73569054D01*
X175674687Y-73569050D01*
X175705450Y-73414395D01*
X175705450Y-73256711D01*
X175705450Y-73256708D01*
X175705449Y-73256706D01*
X175674688Y-73102063D01*
X175674687Y-73102056D01*
X175662805Y-73073369D01*
X175614347Y-72956380D01*
X175614340Y-72956367D01*
X175526739Y-72825264D01*
X175526736Y-72825260D01*
X175415242Y-72713766D01*
X175415238Y-72713763D01*
X175284135Y-72626162D01*
X175284122Y-72626155D01*
X175138451Y-72565817D01*
X175138439Y-72565814D01*
X174983795Y-72535053D01*
X174983792Y-72535053D01*
X174826108Y-72535053D01*
X174826105Y-72535053D01*
X174671460Y-72565814D01*
X174671448Y-72565817D01*
X174525777Y-72626155D01*
X174525764Y-72626162D01*
X174394661Y-72713763D01*
X174394657Y-72713766D01*
X174283163Y-72825260D01*
X174283160Y-72825264D01*
X174195559Y-72956367D01*
X174195552Y-72956380D01*
X174135214Y-73102051D01*
X174135211Y-73102063D01*
X174104450Y-73256706D01*
X168985211Y-73256706D01*
X169064737Y-73147247D01*
X169154955Y-72970185D01*
X169216363Y-72781189D01*
X169247450Y-72584914D01*
X169247450Y-72386192D01*
X169216363Y-72189917D01*
X169185659Y-72095419D01*
X169154956Y-72000923D01*
X169154955Y-72000920D01*
X169108985Y-71910702D01*
X169064737Y-71823859D01*
X168947931Y-71663089D01*
X168807414Y-71522572D01*
X168646644Y-71405766D01*
X168490168Y-71326037D01*
X168439373Y-71278063D01*
X168422578Y-71210242D01*
X168445115Y-71144107D01*
X168490168Y-71105068D01*
X168646644Y-71025340D01*
X168807414Y-70908534D01*
X168947931Y-70768017D01*
X169064737Y-70607247D01*
X169154955Y-70430185D01*
X169216363Y-70241189D01*
X169247450Y-70044914D01*
X169247450Y-69846192D01*
X169216363Y-69649917D01*
X169154955Y-69460921D01*
X169154955Y-69460920D01*
X169096979Y-69347138D01*
X169064737Y-69283859D01*
X168947931Y-69123089D01*
X168807414Y-68982572D01*
X168646644Y-68865766D01*
X168490168Y-68786037D01*
X168439373Y-68738063D01*
X168422578Y-68670242D01*
X168445115Y-68604107D01*
X168490168Y-68565068D01*
X168646644Y-68485340D01*
X168807414Y-68368534D01*
X168947931Y-68228017D01*
X169064737Y-68067247D01*
X169154955Y-67890185D01*
X169216363Y-67701189D01*
X169247450Y-67504914D01*
X169247450Y-67306192D01*
X169216363Y-67109917D01*
X169154955Y-66920921D01*
X169154955Y-66920920D01*
X169064736Y-66743858D01*
X168947931Y-66583089D01*
X168807414Y-66442572D01*
X168646644Y-66325766D01*
X168469582Y-66235547D01*
X168469579Y-66235546D01*
X168280587Y-66174140D01*
X168182448Y-66158596D01*
X168084311Y-66143053D01*
X167885589Y-66143053D01*
X167820164Y-66153415D01*
X167689312Y-66174140D01*
X167500320Y-66235546D01*
X167500317Y-66235547D01*
X167323255Y-66325766D01*
X167162483Y-66442574D01*
X167021971Y-66583086D01*
X166905163Y-66743858D01*
X166814944Y-66920920D01*
X166814943Y-66920923D01*
X166753537Y-67109915D01*
X166722450Y-67306192D01*
X154007450Y-67306192D01*
X153976363Y-67109917D01*
X153914955Y-66920921D01*
X153914955Y-66920920D01*
X153824736Y-66743858D01*
X153707931Y-66583089D01*
X153567414Y-66442572D01*
X153406644Y-66325766D01*
X153250168Y-66246037D01*
X153199373Y-66198063D01*
X153182578Y-66130242D01*
X153205115Y-66064107D01*
X153250168Y-66025068D01*
X153406644Y-65945340D01*
X153567414Y-65828534D01*
X153707931Y-65688017D01*
X153824737Y-65527247D01*
X153914955Y-65350185D01*
X153976363Y-65161189D01*
X154007450Y-64964914D01*
X154007450Y-64766192D01*
X153976363Y-64569917D01*
X153914955Y-64380921D01*
X153914955Y-64380920D01*
X153824736Y-64203858D01*
X153707931Y-64043089D01*
X153567414Y-63902572D01*
X153406644Y-63785766D01*
X153229582Y-63695547D01*
X153229579Y-63695546D01*
X153040587Y-63634140D01*
X152942448Y-63618596D01*
X152844311Y-63603053D01*
X152645589Y-63603053D01*
X152580164Y-63613415D01*
X152449312Y-63634140D01*
X152260320Y-63695546D01*
X152260317Y-63695547D01*
X152083255Y-63785766D01*
X151922483Y-63902574D01*
X151781971Y-64043086D01*
X151665163Y-64203858D01*
X151574944Y-64380920D01*
X151574943Y-64380923D01*
X151513537Y-64569915D01*
X151482450Y-64766192D01*
X148923221Y-64766192D01*
X148923221Y-62226192D01*
X166722450Y-62226192D01*
X166722450Y-62424913D01*
X166753537Y-62621190D01*
X166814943Y-62810182D01*
X166814944Y-62810185D01*
X166905163Y-62987247D01*
X167021969Y-63148017D01*
X167162486Y-63288534D01*
X167323256Y-63405340D01*
X167410099Y-63449588D01*
X167500317Y-63495558D01*
X167500320Y-63495559D01*
X167594816Y-63526262D01*
X167689314Y-63556966D01*
X167885589Y-63588053D01*
X167885590Y-63588053D01*
X168084310Y-63588053D01*
X168084311Y-63588053D01*
X168280586Y-63556966D01*
X168469582Y-63495558D01*
X168646644Y-63405340D01*
X168807414Y-63288534D01*
X168947931Y-63148017D01*
X169064737Y-62987247D01*
X169154955Y-62810185D01*
X169216363Y-62621189D01*
X169247450Y-62424914D01*
X169247450Y-62226192D01*
X169216363Y-62029917D01*
X169184664Y-61932357D01*
X169154956Y-61840923D01*
X169154955Y-61840920D01*
X169091076Y-61715552D01*
X169064737Y-61663859D01*
X168947931Y-61503089D01*
X168807414Y-61362572D01*
X168646644Y-61245766D01*
X168469582Y-61155547D01*
X168469579Y-61155546D01*
X168280587Y-61094140D01*
X168182448Y-61078596D01*
X168084311Y-61063053D01*
X167885589Y-61063053D01*
X167820164Y-61073415D01*
X167689312Y-61094140D01*
X167500320Y-61155546D01*
X167500317Y-61155547D01*
X167323255Y-61245766D01*
X167162483Y-61362574D01*
X167021971Y-61503086D01*
X166905163Y-61663858D01*
X166814944Y-61840920D01*
X166814943Y-61840923D01*
X166753537Y-62029915D01*
X166722450Y-62226192D01*
X148923221Y-62226192D01*
X148923221Y-62197864D01*
X148942906Y-62130825D01*
X148959540Y-62110183D01*
X150989580Y-60080143D01*
X151050903Y-60046658D01*
X151077261Y-60043824D01*
X167912639Y-60043824D01*
X167979678Y-60063509D01*
X168000320Y-60080143D01*
X169437685Y-61517508D01*
X169471170Y-61578831D01*
X169471621Y-61580994D01*
X169475212Y-61599048D01*
X169475214Y-61599054D01*
X169535552Y-61744725D01*
X169535559Y-61744738D01*
X169623160Y-61875841D01*
X169623163Y-61875845D01*
X169734657Y-61987339D01*
X169734661Y-61987342D01*
X169865764Y-62074943D01*
X169865777Y-62074950D01*
X170000673Y-62130825D01*
X170011453Y-62135290D01*
X170166103Y-62166052D01*
X170166106Y-62166053D01*
X170166108Y-62166053D01*
X170323794Y-62166053D01*
X170323795Y-62166052D01*
X170478447Y-62135290D01*
X170624129Y-62074947D01*
X170639433Y-62064720D01*
X170657479Y-62059070D01*
X170673388Y-62048847D01*
X170704348Y-62044395D01*
X170706110Y-62043844D01*
X170708323Y-62043824D01*
X170781577Y-62043824D01*
X170848616Y-62063509D01*
X170850450Y-62064710D01*
X170865771Y-62074947D01*
X171011453Y-62135290D01*
X171166103Y-62166052D01*
X171166106Y-62166053D01*
X171166108Y-62166053D01*
X171323794Y-62166053D01*
X171323795Y-62166052D01*
X171478447Y-62135290D01*
X171624129Y-62074947D01*
X171639433Y-62064720D01*
X171657479Y-62059070D01*
X171673388Y-62048847D01*
X171704348Y-62044395D01*
X171706110Y-62043844D01*
X171708323Y-62043824D01*
X171781577Y-62043824D01*
X171848616Y-62063509D01*
X171850450Y-62064710D01*
X171865771Y-62074947D01*
X172011453Y-62135290D01*
X172166103Y-62166052D01*
X172166106Y-62166053D01*
X172166108Y-62166053D01*
X172323794Y-62166053D01*
X172323795Y-62166052D01*
X172478447Y-62135290D01*
X172624129Y-62074947D01*
X172755239Y-61987342D01*
X172866739Y-61875842D01*
X172954344Y-61744732D01*
X173014687Y-61599050D01*
X173045450Y-61444395D01*
X173045450Y-61286711D01*
X173045450Y-61286708D01*
X173045449Y-61286706D01*
X173022800Y-61172842D01*
X173014687Y-61132056D01*
X172998982Y-61094140D01*
X172954347Y-60986380D01*
X172954340Y-60986367D01*
X172866739Y-60855264D01*
X172866736Y-60855260D01*
X172755242Y-60743766D01*
X172755238Y-60743763D01*
X172624135Y-60656162D01*
X172624122Y-60656155D01*
X172478451Y-60595817D01*
X172478439Y-60595814D01*
X172323795Y-60565053D01*
X172323792Y-60565053D01*
X172166108Y-60565053D01*
X172166105Y-60565053D01*
X172011460Y-60595814D01*
X172011448Y-60595817D01*
X171865774Y-60656157D01*
X171850467Y-60666385D01*
X171832420Y-60672035D01*
X171816512Y-60682259D01*
X171785551Y-60686710D01*
X171783790Y-60687262D01*
X171781577Y-60687282D01*
X171708323Y-60687282D01*
X171641284Y-60667597D01*
X171639433Y-60666385D01*
X171624129Y-60656159D01*
X171624126Y-60656157D01*
X171624125Y-60656157D01*
X171478451Y-60595817D01*
X171478439Y-60595814D01*
X171323795Y-60565053D01*
X171323792Y-60565053D01*
X171166108Y-60565053D01*
X171166105Y-60565053D01*
X171011460Y-60595814D01*
X171011448Y-60595817D01*
X170865774Y-60656157D01*
X170850467Y-60666385D01*
X170832420Y-60672035D01*
X170816512Y-60682259D01*
X170785551Y-60686710D01*
X170783790Y-60687262D01*
X170781577Y-60687282D01*
X170708323Y-60687282D01*
X170641284Y-60667597D01*
X170639433Y-60666385D01*
X170624129Y-60656159D01*
X170624126Y-60656157D01*
X170624125Y-60656157D01*
X170478451Y-60595817D01*
X170478445Y-60595815D01*
X170460391Y-60592224D01*
X170398481Y-60559837D01*
X170396905Y-60558288D01*
X168776138Y-58937521D01*
X168776118Y-58937499D01*
X168677325Y-58838706D01*
X168621777Y-58801591D01*
X168566232Y-58764477D01*
X168442794Y-58713347D01*
X168442788Y-58713345D01*
X168311756Y-58687281D01*
X168311754Y-58687281D01*
X168178146Y-58687281D01*
X168172032Y-58687281D01*
X168172012Y-58687282D01*
X150817888Y-58687282D01*
X150817868Y-58687281D01*
X150811754Y-58687281D01*
X150678146Y-58687281D01*
X150678144Y-58687281D01*
X150547111Y-58713345D01*
X150547105Y-58713347D01*
X150423669Y-58764476D01*
X150312576Y-58838705D01*
X150265339Y-58885942D01*
X150218102Y-58933180D01*
X147718103Y-61433178D01*
X147718098Y-61433184D01*
X147709387Y-61446220D01*
X147709388Y-61446221D01*
X147643877Y-61544264D01*
X147643872Y-61544273D01*
X147592744Y-61667708D01*
X147592742Y-61667714D01*
X147566678Y-61798746D01*
X147566678Y-61938470D01*
X147566679Y-61938491D01*
X147566679Y-69033242D01*
X147546994Y-69100281D01*
X147530360Y-69120923D01*
X145000320Y-71650963D01*
X144938997Y-71684448D01*
X144912639Y-71687282D01*
X144109648Y-71687282D01*
X144042609Y-71667597D01*
X144009330Y-71636168D01*
X143900054Y-71485761D01*
X143749742Y-71335449D01*
X143585154Y-71215869D01*
X143542490Y-71160542D01*
X143536511Y-71090929D01*
X143569116Y-71029133D01*
X143585149Y-71015239D01*
X143749742Y-70895657D01*
X143900054Y-70745345D01*
X143900056Y-70745341D01*
X143900059Y-70745339D01*
X144024998Y-70573373D01*
X144024997Y-70573373D01*
X144025001Y-70573369D01*
X144121507Y-70383965D01*
X144187196Y-70181796D01*
X144220450Y-69971840D01*
X144220450Y-69759266D01*
X144187196Y-69549310D01*
X144121507Y-69347141D01*
X144025001Y-69157737D01*
X144024999Y-69157734D01*
X144024998Y-69157732D01*
X143900059Y-68985766D01*
X143749742Y-68835449D01*
X143681733Y-68786038D01*
X143585154Y-68715869D01*
X143542490Y-68660542D01*
X143536511Y-68590929D01*
X143569116Y-68529133D01*
X143585149Y-68515239D01*
X143749742Y-68395657D01*
X143900054Y-68245345D01*
X143900056Y-68245341D01*
X143900059Y-68245339D01*
X144024998Y-68073373D01*
X144024997Y-68073373D01*
X144025001Y-68073369D01*
X144121507Y-67883965D01*
X144187196Y-67681796D01*
X144220450Y-67471840D01*
X144220450Y-67259266D01*
X144187196Y-67049310D01*
X144121507Y-66847141D01*
X144025001Y-66657737D01*
X144024999Y-66657734D01*
X144024998Y-66657732D01*
X143900059Y-66485766D01*
X143749736Y-66335443D01*
X143577770Y-66210504D01*
X143388364Y-66113997D01*
X143388363Y-66113996D01*
X143388362Y-66113996D01*
X143186193Y-66048307D01*
X143186191Y-66048306D01*
X143186190Y-66048306D01*
X143024907Y-66022761D01*
X142976237Y-66015053D01*
X142513663Y-66015053D01*
X142464992Y-66022761D01*
X142303710Y-66048306D01*
X142101535Y-66113997D01*
X141912129Y-66210504D01*
X141740163Y-66335443D01*
X141589840Y-66485766D01*
X141464901Y-66657732D01*
X141368394Y-66847138D01*
X141302703Y-67049313D01*
X141270223Y-67254385D01*
X141269450Y-67259266D01*
X131870450Y-67259266D01*
X131837196Y-67049310D01*
X131771507Y-66847141D01*
X131675001Y-66657737D01*
X131674999Y-66657734D01*
X131674998Y-66657732D01*
X131550059Y-66485766D01*
X131399736Y-66335443D01*
X131227770Y-66210504D01*
X131038364Y-66113997D01*
X131038363Y-66113996D01*
X131038362Y-66113996D01*
X130836193Y-66048307D01*
X130836191Y-66048306D01*
X130836190Y-66048306D01*
X130674907Y-66022761D01*
X130626237Y-66015053D01*
X130163663Y-66015053D01*
X130114992Y-66022761D01*
X129953710Y-66048306D01*
X129751535Y-66113997D01*
X129562129Y-66210504D01*
X129390163Y-66335443D01*
X129239840Y-66485766D01*
X129114901Y-66657732D01*
X129018394Y-66847138D01*
X128952703Y-67049313D01*
X128920223Y-67254385D01*
X128919450Y-67259266D01*
X120749786Y-67259266D01*
X120750186Y-61715536D01*
X128919450Y-61715536D01*
X128919450Y-63015554D01*
X128919451Y-63015571D01*
X128929950Y-63118349D01*
X128929951Y-63118352D01*
X128985135Y-63284884D01*
X128985137Y-63284889D01*
X128987385Y-63288534D01*
X129077238Y-63434209D01*
X129201294Y-63558265D01*
X129350616Y-63650367D01*
X129517153Y-63705552D01*
X129619941Y-63716053D01*
X131169958Y-63716052D01*
X131272747Y-63705552D01*
X131439284Y-63650367D01*
X131588606Y-63558265D01*
X131712662Y-63434209D01*
X131804764Y-63284887D01*
X131859949Y-63118350D01*
X131870450Y-63015562D01*
X131870449Y-61715545D01*
X131870448Y-61715536D01*
X141269450Y-61715536D01*
X141269450Y-63015554D01*
X141269451Y-63015571D01*
X141279950Y-63118349D01*
X141279951Y-63118352D01*
X141335135Y-63284884D01*
X141335137Y-63284889D01*
X141337385Y-63288534D01*
X141427238Y-63434209D01*
X141551294Y-63558265D01*
X141700616Y-63650367D01*
X141867153Y-63705552D01*
X141969941Y-63716053D01*
X143519958Y-63716052D01*
X143622747Y-63705552D01*
X143789284Y-63650367D01*
X143938606Y-63558265D01*
X144062662Y-63434209D01*
X144154764Y-63284887D01*
X144209949Y-63118350D01*
X144220450Y-63015562D01*
X144220449Y-61715545D01*
X144220125Y-61712378D01*
X144209949Y-61612756D01*
X144209948Y-61612753D01*
X144187201Y-61544107D01*
X144154764Y-61446219D01*
X144062662Y-61296897D01*
X143938606Y-61172841D01*
X143789284Y-61080739D01*
X143622747Y-61025554D01*
X143622745Y-61025553D01*
X143519960Y-61015053D01*
X141969948Y-61015053D01*
X141969931Y-61015054D01*
X141867153Y-61025553D01*
X141867150Y-61025554D01*
X141700618Y-61080738D01*
X141700613Y-61080740D01*
X141551292Y-61172842D01*
X141427239Y-61296895D01*
X141335137Y-61446216D01*
X141335136Y-61446220D01*
X141279951Y-61612756D01*
X141279951Y-61612757D01*
X141279950Y-61612757D01*
X141269450Y-61715536D01*
X131870448Y-61715536D01*
X131870125Y-61712378D01*
X131859949Y-61612756D01*
X131859948Y-61612753D01*
X131837201Y-61544107D01*
X131804764Y-61446219D01*
X131712662Y-61296897D01*
X131588606Y-61172841D01*
X131439284Y-61080739D01*
X131272747Y-61025554D01*
X131272745Y-61025553D01*
X131169960Y-61015053D01*
X129619948Y-61015053D01*
X129619931Y-61015054D01*
X129517153Y-61025553D01*
X129517150Y-61025554D01*
X129350618Y-61080738D01*
X129350613Y-61080740D01*
X129201292Y-61172842D01*
X129077239Y-61296895D01*
X128985137Y-61446216D01*
X128985136Y-61446220D01*
X128929951Y-61612756D01*
X128929951Y-61612757D01*
X128929950Y-61612757D01*
X128919450Y-61715536D01*
X120750186Y-61715536D01*
X120750455Y-57990043D01*
X120770144Y-57923006D01*
X120822952Y-57877255D01*
X120874455Y-57866053D01*
X158734108Y-57866053D01*
X179620450Y-57866053D01*
X179687489Y-57885738D01*
G37*
%TD.AperFunction*%
%TD*%
M02*
